<svg xmlns="http://www.w3.org/2000/svg" width="100" height="100" viewBox="0 0 100 100">
  <g id="Grupo_1198222" data-name="Grupo 1198222" transform="translate(-180 -974)">
    <g id="Grupo_1112424" data-name="Grupo 1112424" transform="translate(16445.764 9993.525)">
      <g id="Grupo_1112415" data-name="Grupo 1112415" transform="translate(-16265.764 -9019.525)">
        <g id="Grupo_1098742" data-name="Grupo 1098742" transform="translate(0 0)">
          <g id="Rectángulo_400898" data-name="Rectángulo 400898" transform="translate(0.001 0)" fill="#ffea99" stroke="#997b00" stroke-width="3">
            <rect width="100" height="100" rx="50" stroke="none"/>
            <rect x="1.5" y="1.5" width="97" height="97" rx="48.5" fill="none"/>
          </g>
          <g id="Rectángulo_400907" data-name="Rectángulo 400907" transform="translate(0 0)" fill="none" stroke="#997b00" stroke-width="3">
            <rect width="100" height="100" rx="50" stroke="none"/>
            <rect x="1.5" y="1.5" width="97" height="97" rx="48.5" fill="none"/>
          </g>
        </g>
      </g>
    </g>
    <g id="farmer_12088058_1_" data-name="farmer_12088058 (1)" transform="translate(160.013 977.632)">
      <g id="Grupo_1198214" data-name="Grupo 1198214" transform="translate(39.119 7.5)">
        <g id="Grupo_1198213" data-name="Grupo 1198213" transform="translate(0 0)">
          <path id="Trazado_916200" data-name="Trazado 916200" d="M171.474,17.723A58.018,58.018,0,0,1,185.5,19.312,14.236,14.236,0,0,0,171.474,7.5h0a14.236,14.236,0,0,0-14.027,11.812A58.018,58.018,0,0,1,171.474,17.723Z" transform="translate(-140.606 -7.5)" fill="#ffd15b"/>
          <g id="Grupo_1198200" data-name="Grupo 1198200" transform="translate(27.812)">
            <path id="Trazado_916201" data-name="Trazado 916201" d="M245.254,18.161a49.125,49.125,0,0,1,6.36,1.151A14.236,14.236,0,0,0,237.587,7.5h0a14.276,14.276,0,0,0-3.056.331A14.251,14.251,0,0,1,245.254,18.161Z" transform="translate(-234.531 -7.5)" fill="#ffc344"/>
          </g>
          <ellipse id="Elipse_12120" data-name="Elipse 12120" cx="23.341" cy="7.929" rx="23.341" ry="7.929" transform="translate(7.527 10.081)" fill="#ffe177"/>
          <g id="Grupo_1198201" data-name="Grupo 1198201" transform="translate(45.015 13.064)">
            <path id="Trazado_916202" data-name="Trazado 916202" d="M359.5,99.289a3.339,3.339,0,0,1,.829,2.1c0,1.837-1.839,3.527-4.924,4.871a4.222,4.222,0,0,1,2.7,3.462c4.021-1.425,6.492-3.358,6.492-5.487C364.6,102.364,362.686,100.645,359.5,99.289Z" transform="translate(-355.401 -99.289)" fill="#ffd15b"/>
          </g>
          <g id="Grupo_1198204" data-name="Grupo 1198204" transform="translate(7.384 39.378)">
            <g id="Grupo_1198203" data-name="Grupo 1198203">
              <g id="Grupo_1198202" data-name="Grupo 1198202">
                <path id="Trazado_916203" data-name="Trazado 916203" d="M96.1,294.615a8.265,8.265,0,0,1,8.259,8l0,.138h1.859l0-.138a8.263,8.263,0,0,1,16.518,0l0,.138h1.859l0-.138a8.249,8.249,0,0,1,13.358-6.222v-3.674a8.54,8.54,0,0,0-8.54-8.54H99.54a8.54,8.54,0,0,0-8.54,8.54v3.674A8.244,8.244,0,0,1,96.1,294.615Z" transform="translate(-91 -284.176)" fill="#e2dee2"/>
              </g>
            </g>
          </g>
          <path id="Trazado_916204" data-name="Trazado 916204" d="M372.258,295.062l.1,0a4.439,4.439,0,0,1,4.335-3.487h.484a8.546,8.546,0,0,0-7.065-6.713V295.34A8.412,8.412,0,0,1,372.258,295.062Z" transform="translate(-323.005 -245.388)" fill="#cbc4cc"/>
          <g id="Grupo_1198205" data-name="Grupo 1198205" transform="translate(11.665 25.047)">
            <path id="Trazado_916205" data-name="Trazado 916205" d="M129.816,186.6l-.029-.1h-2.164a4.084,4.084,0,0,1-3.935-3.014,5.718,5.718,0,1,0,8.291,7.214A10.786,10.786,0,0,1,129.816,186.6Z" transform="translate(-121.079 -183.482)" fill="#554e56"/>
            <path id="Trazado_916206" data-name="Trazado 916206" d="M322.624,183.482a4.084,4.084,0,0,1-3.936,3.014h-2.164l-.029.1a10.788,10.788,0,0,1-2.163,4.1,5.718,5.718,0,1,0,8.291-7.214Z" transform="translate(-286.828 -183.482)" fill="#554e56"/>
          </g>
          <path id="Trazado_916207" data-name="Trazado 916207" d="M228.757,255.395a10.79,10.79,0,0,1-4.521-.99v4.237l4.021,3.973a.712.712,0,0,0,1,0l4.021-3.973V254.4A10.789,10.789,0,0,1,228.757,255.395Z" transform="translate(-197.889 -219.264)" fill="#a44f3e"/>
          <g id="Grupo_1198209" data-name="Grupo 1198209" transform="translate(4.16 46.19)">
            <g id="Grupo_1198206" data-name="Grupo 1198206">
              <path id="Trazado_916208" data-name="Trazado 916208" d="M70.383,363.724a1.839,1.839,0,0,1,1.634.995l.039.078H85.078a8.409,8.409,0,0,0-16.73-1.073Z" transform="translate(-68.348 -353.034)" fill="#fe860a"/>
              <path id="Trazado_916209" data-name="Trazado 916209" d="M113.96,356.519a8.42,8.42,0,0,0-2.135.275,8.412,8.412,0,0,1,6.272,8h4.27A8.409,8.409,0,0,0,113.96,356.519Z" transform="translate(-105.637 -353.034)" fill="#f46700"/>
              <path id="Trazado_916210" data-name="Trazado 916210" d="M130.578,338.094h-3.325a.427.427,0,0,1-.427-.427v-1.2a4.438,4.438,0,0,1,4.438-4.438h3.325a.427.427,0,0,1,.427.427v1.2A4.438,4.438,0,0,1,130.578,338.094Z" transform="translate(-118.503 -332.032)" fill="#0ed290"/>
              <path id="Trazado_916211" data-name="Trazado 916211" d="M134.588,332.032h-1.364a4.438,4.438,0,0,1-4.432,4.22h-1.961c0,.072-.006.145-.006.218v1.2a.427.427,0,0,0,.427.427h3.325a4.438,4.438,0,0,0,4.438-4.438v-1.2A.427.427,0,0,0,134.588,332.032Z" transform="translate(-118.503 -332.032)" fill="#00c285"/>
            </g>
            <g id="Grupo_1198207" data-name="Grupo 1198207" transform="translate(18.301)">
              <path id="Trazado_916212" data-name="Trazado 916212" d="M213.747,364.8a8.408,8.408,0,0,0-16.814,0Z" transform="translate(-196.933 -353.034)" fill="#fe860a"/>
              <path id="Trazado_916213" data-name="Trazado 916213" d="M243.135,356.519a8.42,8.42,0,0,0-2.135.275,8.412,8.412,0,0,1,6.272,8h4.27A8.409,8.409,0,0,0,243.135,356.519Z" transform="translate(-234.728 -353.034)" fill="#f46700"/>
              <path id="Trazado_916214" data-name="Trazado 916214" d="M259.752,338.094h-3.325a.427.427,0,0,1-.427-.427v-1.2a4.438,4.438,0,0,1,4.438-4.438h3.325a.427.427,0,0,1,.427.427v1.2A4.438,4.438,0,0,1,259.752,338.094Z" transform="translate(-247.593 -332.032)" fill="#0ed290"/>
              <path id="Trazado_916215" data-name="Trazado 916215" d="M263.763,332.032H262.4a4.438,4.438,0,0,1-4.432,4.22h-1.961c0,.072-.006.145-.006.218v1.2a.427.427,0,0,0,.427.427h3.325a4.438,4.438,0,0,0,4.438-4.438v-1.2A.427.427,0,0,0,263.763,332.032Z" transform="translate(-247.593 -332.032)" fill="#00c285"/>
            </g>
            <g id="Grupo_1198208" data-name="Grupo 1198208" transform="translate(36.686)">
              <path id="Trazado_916216" data-name="Trazado 916216" d="M339.128,364.8l.039-.078a1.839,1.839,0,0,1,1.634-.995h2.035a8.409,8.409,0,0,0-16.73,1.073Z" transform="translate(-326.107 -353.034)" fill="#fe860a"/>
              <path id="Trazado_916217" data-name="Trazado 916217" d="M339.128,364.8l.039-.078a1.839,1.839,0,0,1,1.634-.995h2.035a8.409,8.409,0,0,0-16.73,1.073Z" transform="translate(-326.107 -353.034)" fill="#fe860a"/>
              <path id="Trazado_916218" data-name="Trazado 916218" d="M378.343,363.724h2.035a8.41,8.41,0,0,0-10.5-6.918,8.412,8.412,0,0,1,6.23,7.991h.561l.039-.078A1.84,1.84,0,0,1,378.343,363.724Z" transform="translate(-363.648 -353.034)" fill="#f46700"/>
              <path id="Trazado_916219" data-name="Trazado 916219" d="M388.927,338.094H385.6a.427.427,0,0,1-.427-.427v-1.2a4.438,4.438,0,0,1,4.438-4.438h3.325a.427.427,0,0,1,.427.427v1.2A4.438,4.438,0,0,1,388.927,338.094Z" transform="translate(-376.768 -332.032)" fill="#0ed290"/>
              <path id="Trazado_916220" data-name="Trazado 916220" d="M392.938,332.032h-1.364a4.438,4.438,0,0,1-4.432,4.22h-1.961c0,.072-.006.145-.006.218v1.2a.427.427,0,0,0,.427.427h3.325a4.438,4.438,0,0,0,4.438-4.438v-1.2A.427.427,0,0,0,392.938,332.032Z" transform="translate(-376.768 -332.032)" fill="#00c285"/>
            </g>
          </g>
          <g id="Grupo_1198210" data-name="Grupo 1198210" transform="translate(13.99 19.764)">
            <path id="Trazado_916221" data-name="Trazado 916221" d="M331.651,146.364h-1.905a5.358,5.358,0,0,1,.105,1.058v4.45a10.823,10.823,0,0,1-.4,2.93h2.2a4.219,4.219,0,0,0,4.219-4.219h0A4.219,4.219,0,0,0,331.651,146.364Z" transform="translate(-302.115 -146.364)" fill="#a44f3e"/>
            <path id="Trazado_916222" data-name="Trazado 916222" d="M143.435,151.873v-4.45a5.359,5.359,0,0,1,.105-1.058h-1.905a4.219,4.219,0,0,0-4.219,4.219h0a4.219,4.219,0,0,0,4.219,4.219h2.2A10.825,10.825,0,0,1,143.435,151.873Z" transform="translate(-137.416 -146.364)" fill="#bb5d4c"/>
          </g>
          <g id="Grupo_1198211" data-name="Grupo 1198211" transform="translate(19.867 15.324)">
            <path id="Trazado_916223" data-name="Trazado 916223" d="M178.709,125.118a11,11,0,0,0,11,11h0a11,11,0,0,0,11-11v-4.45a5.5,5.5,0,0,0-5.5-5.5H184.207a5.5,5.5,0,0,0-5.5,5.5Z" transform="translate(-178.709 -115.17)" fill="#c96e59"/>
          </g>
          <path id="Trazado_916224" data-name="Trazado 916224" d="M215.993,115.169H215.8v9.114a8.988,8.988,0,0,1-8.988,8.988H204.8a11.067,11.067,0,0,1-1.859-.16,10.959,10.959,0,0,0,7.552,3.006h0a11,11,0,0,0,11-11v-4.45A5.5,5.5,0,0,0,215.993,115.169Z" transform="translate(-179.622 -99.845)" fill="#bb5d4c"/>
          <path id="Trazado_916225" data-name="Trazado 916225" d="M131.99,426.464a1.8,1.8,0,0,1-1.817-1.709,1.769,1.769,0,0,1,.97-1.623L131.4,423l-.252-.127a1.758,1.758,0,0,1,0-3.144l.252-.127-.252-.127a1.758,1.758,0,0,1,0-3.144l.252-.127-.252-.127a1.769,1.769,0,0,1-.97-1.623,1.687,1.687,0,0,1,.218-.779H84.243a1.687,1.687,0,0,1,.218.779,1.769,1.769,0,0,1-.97,1.623l-.252.127.252.127a1.758,1.758,0,0,1,0,3.144l-.252.127.252.127a1.758,1.758,0,0,1,0,3.144l-.252.127.252.127a1.769,1.769,0,0,1,.97,1.623,1.8,1.8,0,0,1-1.817,1.709v.142H131.99Z" transform="translate(-76.449 -355.87)" fill="#ffe177"/>
          <g id="Grupo_1198212" data-name="Grupo 1198212" transform="translate(0 56.737)">
            <path id="Trazado_916226" data-name="Trazado 916226" d="M47.274,411.442a1.945,1.945,0,0,1,0-3.453,1.94,1.94,0,0,0-1.959-1.848H42.537a3.418,3.418,0,0,0-3.418,3.418v7.164a3.418,3.418,0,0,0,3.418,3.418h2.777a1.941,1.941,0,0,0,1.959-1.848,1.945,1.945,0,0,1,0-3.453,1.9,1.9,0,0,1,0-3.4Z" transform="translate(-39.119 -406.141)" fill="#c96e59"/>
            <path id="Trazado_916227" data-name="Trazado 916227" d="M415.585,411.442a1.945,1.945,0,0,0,0-3.453,1.94,1.94,0,0,1,1.959-1.848h2.777a3.418,3.418,0,0,1,3.418,3.418v7.164a3.418,3.418,0,0,1-3.418,3.418h-2.777a1.941,1.941,0,0,1-1.959-1.848,1.945,1.945,0,0,0,0-3.453,1.9,1.9,0,0,0,0-3.4Z" transform="translate(-362.004 -406.141)" fill="#c96e59"/>
          </g>
        </g>
        <path id="Trazado_916228" data-name="Trazado 916228" d="M47.274,414.839a1.9,1.9,0,0,1,0-3.4,1.945,1.945,0,0,1,0-3.453,1.94,1.94,0,0,0-1.959-1.848H43.378V414.4a2.135,2.135,0,0,1-2.135,2.135H39.119v.184a3.418,3.418,0,0,0,3.418,3.418h2.777a1.94,1.94,0,0,0,1.959-1.848,1.945,1.945,0,0,1,0-3.453Z" transform="translate(-39.119 -349.403)" fill="#bb5d4c"/>
        <path id="Trazado_916229" data-name="Trazado 916229" d="M420.893,406.481V414.7a2.135,2.135,0,0,1-2.135,2.135h-2.124a1.9,1.9,0,0,0-1.048,1.754,1.94,1.94,0,0,0,1.959,1.848h2.777a3.418,3.418,0,0,0,3.418-3.418V409.85A3.418,3.418,0,0,0,420.893,406.481Z" transform="translate(-362.003 -349.695)" fill="#bb5d4c"/>
      </g>
      <g id="Grupo_1198221" data-name="Grupo 1198221" transform="translate(39.119 7.5)">
        <path id="Trazado_916230" data-name="Trazado 916230" d="M185.644,19.165a14.235,14.235,0,0,0-14-11.665h0a14.235,14.235,0,0,0-14,11.665" transform="translate(-140.778 -7.5)" fill="none" stroke="#000" stroke-linecap="round" stroke-linejoin="round" stroke-miterlimit="10" stroke-width="1.2"/>
        <path id="Trazado_916231" data-name="Trazado 916231" d="M254.882,91.745c4.021-1.425,6.492-3.358,6.492-5.487,0-4.379-10.45-7.929-23.341-7.929q-1.515,0-2.981.064" transform="translate(-207.166 -68.247)" fill="none" stroke="#000" stroke-linecap="round" stroke-linejoin="round" stroke-miterlimit="10" stroke-width="1.2"/>
        <path id="Trazado_916232" data-name="Trazado 916232" d="M107.376,81.66C98.408,82.766,92,85.687,92,89.115c0,2.129,2.471,4.063,6.492,5.487" transform="translate(-84.474 -71.105)" fill="none" stroke="#000" stroke-linecap="round" stroke-linejoin="round" stroke-miterlimit="10" stroke-width="1.2"/>
        <line id="Línea_664" data-name="Línea 664" x1="4.053" transform="translate(22.294 39.378)" fill="none" stroke="#000" stroke-linecap="round" stroke-linejoin="round" stroke-miterlimit="10" stroke-width="1.2"/>
        <path id="Trazado_916233" data-name="Trazado 916233" d="M306.552,290.986a8.542,8.542,0,0,0-8.364-6.811H287.764" transform="translate(-252.375 -244.797)" fill="none" stroke="#000" stroke-linecap="round" stroke-linejoin="round" stroke-miterlimit="10" stroke-width="1.2"/>
        <path id="Trazado_916234" data-name="Trazado 916234" d="M100.928,284.175H99.54a8.54,8.54,0,0,0-8.54,8.54V296.2" transform="translate(-83.616 -244.797)" fill="none" stroke="#000" stroke-linecap="round" stroke-linejoin="round" stroke-miterlimit="10" stroke-width="1.2"/>
        <path id="Trazado_916235" data-name="Trazado 916235" d="M123.564,184.087a5.715,5.715,0,1,0,8.343,7.269" transform="translate(-109.414 -158.954)" fill="none" stroke="#000" stroke-linecap="round" stroke-linejoin="round" stroke-miterlimit="10" stroke-width="1.2"/>
        <path id="Trazado_916236" data-name="Trazado 916236" d="M314.839,191.355a5.715,5.715,0,1,0,8.343-7.269" transform="translate(-275.597 -158.953)" fill="none" stroke="#000" stroke-linecap="round" stroke-linejoin="round" stroke-miterlimit="10" stroke-width="1.2"/>
        <path id="Trazado_916237" data-name="Trazado 916237" d="M224.236,255.527V259.6l4.021,3.973a.712.712,0,0,0,1,0l4.021-3.973v-4.078" transform="translate(-197.889 -220.226)" fill="none" stroke="#000" stroke-linecap="round" stroke-linejoin="round" stroke-miterlimit="10" stroke-width="1.2"/>
        <path id="Trazado_916238" data-name="Trazado 916238" d="M95.021,377.68h12.928a8.39,8.39,0,0,0-2.774-5.974" transform="translate(-87.065 -319.87)" fill="none" stroke="#000" stroke-linecap="round" stroke-linejoin="round" stroke-miterlimit="10" stroke-width="1.2"/>
        <path id="Trazado_916239" data-name="Trazado 916239" d="M76.917,356.522l-.1,0a8.41,8.41,0,0,0-8.3,7.063" transform="translate(-64.331 -306.844)" fill="none" stroke="#000" stroke-linecap="round" stroke-linejoin="round" stroke-miterlimit="10" stroke-width="1.2"/>
        <path id="Trazado_916240" data-name="Trazado 916240" d="M130.578,338.094h-3.325a.427.427,0,0,1-.427-.427v-1.2a4.438,4.438,0,0,1,4.438-4.438h3.325a.427.427,0,0,1,.427.427v1.2A4.438,4.438,0,0,1,130.578,338.094Z" transform="translate(-114.343 -285.842)" fill="none" stroke="#000" stroke-linecap="round" stroke-linejoin="round" stroke-miterlimit="10" stroke-width="1.2"/>
        <path id="Trazado_916241" data-name="Trazado 916241" d="M205.478,356.522l-.1,0a8.407,8.407,0,0,0-8.4,8.135h16.8A8.389,8.389,0,0,0,211,358.681" transform="translate(-174.507 -306.844)" fill="none" stroke="#000" stroke-linecap="round" stroke-linejoin="round" stroke-miterlimit="10" stroke-width="1.2"/>
        <path id="Trazado_916242" data-name="Trazado 916242" d="M259.752,338.094h-3.325a.427.427,0,0,1-.427-.427v-1.2a4.438,4.438,0,0,1,4.438-4.438h3.325a.427.427,0,0,1,.427.427v1.2A4.438,4.438,0,0,1,259.752,338.094Z" transform="translate(-225.132 -285.842)" fill="none" stroke="#000" stroke-linecap="round" stroke-linejoin="round" stroke-miterlimit="10" stroke-width="1.2"/>
        <path id="Trazado_916243" data-name="Trazado 916243" d="M334.652,356.521l-.1,0a8.407,8.407,0,0,0-8.4,8.135" transform="translate(-285.296 -306.844)" fill="none" stroke="#000" stroke-linecap="round" stroke-linejoin="round" stroke-miterlimit="10" stroke-width="1.2"/>
        <path id="Trazado_916244" data-name="Trazado 916244" d="M427.37,376.614a8.4,8.4,0,0,0-2.674-4.9" transform="translate(-369.818 -319.877)" fill="none" stroke="#000" stroke-linecap="round" stroke-linejoin="round" stroke-miterlimit="10" stroke-width="1.2"/>
        <path id="Trazado_916245" data-name="Trazado 916245" d="M388.927,338.094H385.6a.427.427,0,0,1-.427-.427v-1.2a4.438,4.438,0,0,1,4.438-4.438h3.325a.427.427,0,0,1,.427.427v1.2A4.438,4.438,0,0,1,388.927,338.094Z" transform="translate(-335.922 -285.842)" fill="none" stroke="#000" stroke-linecap="round" stroke-linejoin="round" stroke-miterlimit="10" stroke-width="1.2"/>
        <path id="Trazado_916246" data-name="Trazado 916246" d="M330.5,154.8h2.055a4.219,4.219,0,0,0,4.219-4.219h0a4.219,4.219,0,0,0-4.219-4.219h-1.76" transform="translate(-289.026 -126.6)" fill="none" stroke="#000" stroke-linecap="round" stroke-linejoin="round" stroke-miterlimit="10" stroke-width="1.2"/>
        <path id="Trazado_916247" data-name="Trazado 916247" d="M143.4,146.364h-1.76a4.219,4.219,0,0,0-4.219,4.219h0a4.219,4.219,0,0,0,4.219,4.219h2.055" transform="translate(-123.426 -126.6)" fill="none" stroke="#000" stroke-linecap="round" stroke-linejoin="round" stroke-miterlimit="10" stroke-width="1.2"/>
        <g id="Grupo_1198215" data-name="Grupo 1198215" transform="translate(19.867 15.324)">
          <path id="Trazado_916248" data-name="Trazado 916248" d="M178.709,125.118a11,11,0,0,0,11,11h0a11,11,0,0,0,11-11v-4.45a5.5,5.5,0,0,0-5.5-5.5H184.207a5.5,5.5,0,0,0-5.5,5.5Z" transform="translate(-178.709 -115.17)" fill="none" stroke="#000" stroke-linecap="round" stroke-linejoin="round" stroke-miterlimit="10" stroke-width="1.2"/>
        </g>
        <g id="Grupo_1198217" data-name="Grupo 1198217" transform="translate(25.744 20.062)">
          <g id="Grupo_1198216" data-name="Grupo 1198216" transform="translate(0 0)">
            <line id="Línea_665" data-name="Línea 665" y2="1.68" fill="none" stroke="#000" stroke-linecap="round" stroke-linejoin="round" stroke-miterlimit="10" stroke-width="1.2"/>
            <line id="Línea_666" data-name="Línea 666" y2="1.68" transform="translate(10.247)" fill="none" stroke="#000" stroke-linecap="round" stroke-linejoin="round" stroke-miterlimit="10" stroke-width="1.2"/>
          </g>
          <path id="Trazado_916249" data-name="Trazado 916249" d="M246.5,165.425l-1.181-1.012a1.133,1.133,0,0,1-.064-1.661l.55-.55a2.372,2.372,0,0,0,.695-1.677" transform="translate(-241.376 -158.807)" fill="none" stroke="#000" stroke-linecap="round" stroke-linejoin="round" stroke-miterlimit="10" stroke-width="1.2"/>
          <path id="Trazado_916250" data-name="Trazado 916250" d="M232.271,216.221a4.773,4.773,0,0,0,6.754,0" transform="translate(-230.525 -206.576)" fill="none" stroke="#000" stroke-linecap="round" stroke-linejoin="round" stroke-miterlimit="10" stroke-width="1.2"/>
        </g>
        <line id="Línea_667" data-name="Línea 667" x2="49.346" transform="translate(6.195 70.736)" fill="none" stroke="#000" stroke-linecap="round" stroke-linejoin="round" stroke-miterlimit="10" stroke-width="1.2"/>
        <g id="Grupo_1198219" data-name="Grupo 1198219" transform="translate(12.711 62.012)">
          <line id="Línea_668" data-name="Línea 668" x2="5.208" transform="translate(0 4.523)" fill="none" stroke="#000" stroke-linecap="round" stroke-linejoin="round" stroke-miterlimit="10" stroke-width="1.2"/>
          <line id="Línea_669" data-name="Línea 669" x2="7.979" transform="translate(28.334 4.523)" fill="none" stroke="#000" stroke-linecap="round" stroke-linejoin="round" stroke-miterlimit="10" stroke-width="1.2"/>
          <g id="Grupo_1198218" data-name="Grupo 1198218" transform="translate(3.093)">
            <line id="Línea_670" data-name="Línea 670" x2="9.403" fill="none" stroke="#000" stroke-linecap="round" stroke-linejoin="round" stroke-miterlimit="10" stroke-width="1.2"/>
            <line id="Línea_671" data-name="Línea 671" x2="12.754" transform="translate(18.349)" fill="none" stroke="#000" stroke-linecap="round" stroke-linejoin="round" stroke-miterlimit="10" stroke-width="1.2"/>
          </g>
        </g>
        <g id="Grupo_1198220" data-name="Grupo 1198220" transform="translate(0 56.737)">
          <path id="Trazado_916251" data-name="Trazado 916251" d="M47.274,411.442a1.945,1.945,0,0,1,0-3.453,1.94,1.94,0,0,0-1.959-1.848H42.537a3.418,3.418,0,0,0-3.418,3.418v7.164a3.418,3.418,0,0,0,3.418,3.418h2.777a1.941,1.941,0,0,0,1.959-1.848,1.945,1.945,0,0,1,0-3.453,1.9,1.9,0,0,1,0-3.4Z" transform="translate(-39.119 -406.141)" fill="none" stroke="#000" stroke-linecap="round" stroke-linejoin="round" stroke-miterlimit="10" stroke-width="1.2"/>
          <path id="Trazado_916252" data-name="Trazado 916252" d="M415.585,411.442a1.945,1.945,0,0,0,0-3.453,1.94,1.94,0,0,1,1.959-1.848h2.777a3.418,3.418,0,0,1,3.418,3.418v7.164a3.418,3.418,0,0,1-3.418,3.418h-2.777a1.941,1.941,0,0,1-1.959-1.848,1.945,1.945,0,0,0,0-3.453,1.9,1.9,0,0,0,0-3.4Z" transform="translate(-362.004 -406.141)" fill="none" stroke="#000" stroke-linecap="round" stroke-linejoin="round" stroke-miterlimit="10" stroke-width="1.2"/>
        </g>
        <line id="Línea_672" data-name="Línea 672" x1="3.789" transform="translate(49.991 57.81)" fill="none" stroke="#000" stroke-linecap="round" stroke-linejoin="round" stroke-miterlimit="10" stroke-width="1.2"/>
        <line id="Línea_673" data-name="Línea 673" x1="37.053" transform="translate(7.956 57.81)" fill="none" stroke="#000" stroke-linecap="round" stroke-linejoin="round" stroke-miterlimit="10" stroke-width="1.2"/>
      </g>
    </g>
  </g>
</svg>
