<svg xmlns="http://www.w3.org/2000/svg" xmlns:xlink="http://www.w3.org/1999/xlink" width="118" height="118" viewBox="0 0 118 118">
  <defs>
    <filter id="Trazado_896985" x="0" y="0" width="118" height="118" filterUnits="userSpaceOnUse">
      <feOffset dy="3" input="SourceAlpha"/>
      <feGaussianBlur stdDeviation="3" result="blur"/>
      <feFlood flood-opacity="0.161"/>
      <feComposite operator="in" in2="blur"/>
      <feComposite in="SourceGraphic"/>
    </filter>
  </defs>
  <g id="Grupo_1198464" data-name="Grupo 1198464" transform="translate(-196.891 -2883.351)">
    <g id="Grupo_1198129" data-name="Grupo 1198129" transform="translate(-129 -962.649)">
      <g id="Grupo_1111318" data-name="Grupo 1111318" transform="translate(334.891 3852)">
        <g id="Grupo_1109826" data-name="Grupo 1109826" transform="translate(0)">
          <g id="Grupo_1098742" data-name="Grupo 1098742" transform="translate(0 0)">
            <g transform="matrix(1, 0, 0, 1, -9, -6)" filter="url(#Trazado_896985)">
              <g id="Trazado_896985-2" data-name="Trazado 896985" transform="translate(9 6)" fill="#fc0" opacity="0.859">
                <path d="M 49.99993515014648 99.25 C 43.35091018676758 99.25 36.90116119384766 97.94794464111328 30.82986831665039 95.37999725341797 C 24.96530914306641 92.89950561523438 19.6982421875 89.34828948974609 15.17497539520264 84.82501983642578 C 10.65170860290527 80.3017578125 7.100495338439941 75.03469085693359 4.620001792907715 69.17012786865234 C 2.05205512046814 63.09883499145508 0.7500017881393433 56.64908981323242 0.7500017881393433 50.00006103515625 C 0.7500017881393433 43.35090255737305 2.05205512046814 36.90115737915039 4.620001792907715 30.82986259460449 C 7.100495338439941 24.96530342102051 10.65170860290527 19.6982364654541 15.17497539520264 15.17496967315674 C 19.6982421875 10.65170288085938 24.96530914306641 7.100489616394043 30.82986831665039 4.619996070861816 C 36.90116119384766 2.05204963684082 43.35091018676758 0.7499961853027344 49.99993515014648 0.7499961853027344 C 56.64896011352539 0.7499961853027344 63.09870910644531 2.05204963684082 69.16999816894531 4.619996070861816 C 75.03456115722656 7.100489616394043 80.30162811279297 10.65170288085938 84.82489776611328 15.17496967315674 C 89.34815979003906 19.6982364654541 92.89937591552734 24.96530342102051 95.37986755371094 30.82986259460449 C 97.94781494140625 36.90115737915039 99.24987030029297 43.35090255737305 99.24987030029297 49.99993133544922 C 99.24987030029297 56.64908981323242 97.94781494140625 63.09883499145508 95.37986755371094 69.17012786865234 C 92.89937591552734 75.03469085693359 89.34815979003906 80.3017578125 84.82489776611328 84.82501983642578 C 80.30162811279297 89.34828948974609 75.03456115722656 92.89950561523438 69.16999816894531 95.37999725341797 C 63.09870910644531 97.94794464111328 56.64896011352539 99.25 49.99993515014648 99.25 Z" stroke="none"/>
                <path d="M 49.99993515014648 1.499992370605469 C 43.45182037353516 1.499992370605469 37.10037612915039 2.782127380371094 31.12203216552734 5.310752868652344 C 25.34687805175781 7.753440856933594 20.15993499755859 11.25067138671875 15.70529174804688 15.70529937744141 C 11.25066375732422 20.15994262695312 7.753433227539062 25.34687042236328 5.310752868652344 31.12202453613281 C 2.782119750976562 37.10038375854492 1.499992370605469 43.45182418823242 1.499992370605469 50.00006866455078 C 1.499992370605469 56.54818344116211 2.782119750976562 62.89962387084961 5.310752868652344 68.87796783447266 C 7.753433227539062 74.65312194824219 11.25066375732422 79.84006500244141 15.70529174804688 84.29469299316406 C 20.15993499755859 88.74932861328125 25.34687805175781 92.24656677246094 31.12203216552734 94.68925476074219 C 37.10037612915039 97.21788024902344 43.45182037353516 98.5 49.99993515014648 98.5 C 56.54804992675781 98.5 62.89949417114258 97.21788024902344 68.87783813476562 94.68925476074219 C 74.65299224853516 92.24656677246094 79.83993530273438 88.74932861328125 84.29456329345703 84.29469299316406 C 88.74919128417969 79.84006500244141 92.24643707275391 74.65312194824219 94.68911743164062 68.87796783447266 C 97.21775054931641 62.89962387084961 98.49986267089844 56.54818344116211 98.49986267089844 49.99992370605469 C 98.49986267089844 43.45182418823242 97.21775054931641 37.10038375854492 94.68911743164062 31.12202453613281 C 92.24643707275391 25.34687042236328 88.74919128417969 20.15994262695312 84.29456329345703 15.70529937744141 C 79.83993530273438 11.25067138671875 74.65299224853516 7.753440856933594 68.87783813476562 5.310752868652344 C 62.89949417114258 2.782127380371094 56.54804992675781 1.499992370605469 49.99993515014648 1.499992370605469 M 49.99993515014648 -7.62939453125e-06 C 77.6141357421875 -7.62939453125e-06 99.99986267089844 22.3857421875 99.99986267089844 49.99992370605469 L 99.99986267089844 50.00006866455078 C 99.99986267089844 77.61426544189453 77.6141357421875 100 49.99993515014648 100 C 22.38573455810547 100 -7.62939453125e-06 77.61426544189453 -7.62939453125e-06 50.00006866455078 L -7.62939453125e-06 49.99992370605469 C -7.62939453125e-06 22.3857421875 22.38573455810547 -7.62939453125e-06 49.99993515014648 -7.62939453125e-06 Z" stroke="none" fill="#fff"/>
              </g>
            </g>
            <g id="Rectángulo_400907" data-name="Rectángulo 400907" transform="translate(0)" fill="none" stroke="#fff" stroke-width="1.5">
              <rect width="100" height="100" rx="50" stroke="none"/>
              <rect x="0.75" y="0.75" width="98.5" height="98.5" rx="49.25" fill="none"/>
            </g>
          </g>
        </g>
      </g>
    </g>
    <g id="letter_4079724" transform="translate(223.318 2907.268)">
      <g id="Grupo_1198462" data-name="Grupo 1198462" transform="translate(1.056 1.056)">
        <g id="Grupo_1198449" data-name="Grupo 1198449" transform="translate(16.894 42.235)">
          <path id="Trazado_916994" data-name="Trazado 916994" d="M18.056,41a11.616,11.616,0,0,1,9.5,4.931v8.553a7.931,7.931,0,0,1-2.112-1.668,8.109,8.109,0,0,1-1.879-3.558,7.665,7.665,0,0,1-.232-1.922A6.345,6.345,0,0,0,17,41Z" transform="translate(-17 -41)" fill="#fcd770"/>
        </g>
        <g id="Grupo_1198450" data-name="Grupo 1198450" transform="translate(10.559 42.235)">
          <path id="Trazado_916995" data-name="Trazado 916995" d="M23.9,49.257,15.762,56.1a20.5,20.5,0,0,1-2.65-3.147c-.3-.422-.57-.866-.834-1.309l-.412-.718A6.289,6.289,0,0,1,11,47.737v-.4A6.34,6.34,0,0,1,17.335,41a6.345,6.345,0,0,1,6.335,6.335,7.665,7.665,0,0,0,.232,1.922Z" transform="translate(-11 -41)" fill="#fcd770"/>
        </g>
        <g id="Grupo_1198451" data-name="Grupo 1198451" transform="translate(12.671 54.188)">
          <path id="Trazado_916996" data-name="Trazado 916996" d="M30.411,61.485H13V52.32a20.5,20.5,0,0,0,2.65,3.147A21.087,21.087,0,0,0,30.411,61.485Z" transform="translate(-13 -52.32)" fill="#fcd770"/>
        </g>
        <g id="Grupo_1198452" data-name="Grupo 1198452" transform="translate(0 6.335)">
          <path id="Trazado_916997" data-name="Trazado 916997" d="M30.565,42.9a2.118,2.118,0,0,0-2.112,2.112v2.819a11.616,11.616,0,0,0-9.5-4.931h3.168A10.563,10.563,0,0,0,32.676,32.341V23.894a2.118,2.118,0,0,0-2.112-2.112h-3.8A14.075,14.075,0,0,1,15.782,16.5a8.4,8.4,0,0,1-7.8,5.279H7.335V32.341A10.563,10.563,0,0,0,17.894,42.9a6.34,6.34,0,0,0-6.335,6.335H7.23a6.525,6.525,0,0,1-5.9-4.086A4.162,4.162,0,0,1,1,43.428c0-2.9,2.112-2.9,2.112-5.818S1,34.706,1,31.8s2.112-2.893,2.112-5.8V23.894a16.894,16.894,0,1,1,33.788,0v2.112c0,2.9,2.112,2.9,2.112,5.8S36.9,34.706,36.9,37.61c0,2.724,1.848,2.893,2.091,5.29Z" transform="translate(-1 -7)" fill="#b27946"/>
        </g>
        <g id="Grupo_1198453" data-name="Grupo 1198453" transform="translate(47.082 46.459)">
          <path id="Trazado_916998" data-name="Trazado 916998" d="M54.6,50.153a3.166,3.166,0,0,0-5.406,2.238,3.172,3.172,0,0,0-3.168-3.168,2.986,2.986,0,0,0-.433.032A6.857,6.857,0,0,0,47.079,45H57.638a6.857,6.857,0,0,0,1.489,4.255,2.986,2.986,0,0,0-.433-.032,3.163,3.163,0,0,0-3.168,3.168A3.16,3.16,0,0,0,54.6,50.153Z" transform="translate(-45.59 -45)" fill="#dfb28b"/>
        </g>
        <g id="Grupo_1198454" data-name="Grupo 1198454" transform="translate(44.347 50.682)">
          <path id="Trazado_916999" data-name="Trazado 916999" d="M61.562,50.89a6.92,6.92,0,0,1-2.291-1.858A2.986,2.986,0,0,0,58.838,49a3.163,3.163,0,0,0-3.168,3.168,3.168,3.168,0,0,0-6.335,0A3.172,3.172,0,0,0,46.168,49a2.986,2.986,0,0,0-.433.032,6.92,6.92,0,0,1-2.291,1.858L43,51.112v8.447a7.636,7.636,0,0,0,5.269,2.112h8.468a7.636,7.636,0,0,0,5.269-2.112V51.112Z" transform="translate(-43 -49)" fill="#cf9e76"/>
        </g>
        <g id="Grupo_1198455" data-name="Grupo 1198455" transform="translate(46.459 42.235)">
          <path id="Trazado_917000" data-name="Trazado 917000" d="M59.782,42.056v2.112a1.059,1.059,0,0,1-1.056,1.056H46.056A1.059,1.059,0,0,1,45,44.168V42.056A1.059,1.059,0,0,1,46.056,41H58.726A1.059,1.059,0,0,1,59.782,42.056Z" transform="translate(-45 -41)" fill="#d3a06c"/>
        </g>
        <g id="Grupo_1198456" data-name="Grupo 1198456" transform="translate(47.515 16.894)">
          <path id="Trazado_917001" data-name="Trazado 917001" d="M46,27.253A11.461,11.461,0,0,1,52.335,17a11.449,11.449,0,0,1,6.335,10.253v.612a11.461,11.461,0,0,1-6.335,10.253A11.461,11.461,0,0,1,46,27.865Z" transform="translate(-46 -17)" fill="#b4dd7f"/>
        </g>
        <g id="Grupo_1198457" data-name="Grupo 1198457" transform="translate(38.012)">
          <path id="Trazado_917002" data-name="Trazado 917002" d="M37,11.559V3.112A2.118,2.118,0,0,1,39.112,1H56.006a2.118,2.118,0,0,1,2.112,2.112v8.447a2.118,2.118,0,0,1-2.112,2.112H48.615l-3.791,3.791a1.493,1.493,0,0,1-2.545-1.056V13.671H39.112A2.118,2.118,0,0,1,37,11.559Z" transform="translate(-37 -1)" fill="#e6e9ed"/>
        </g>
        <g id="Grupo_1198458" data-name="Grupo 1198458" transform="translate(27.453 42.235)">
          <path id="Trazado_917003" data-name="Trazado 917003" d="M39.671,43.112V56.933a3.26,3.26,0,0,0-6.177-1.457l-.158.306-3.21-.317A8.036,8.036,0,0,1,27,54.484V43.112A2.118,2.118,0,0,1,29.112,41h8.447A2.118,2.118,0,0,1,39.671,43.112Z" transform="translate(-27 -41)" fill="#e6e9ed"/>
        </g>
        <g id="Grupo_1198459" data-name="Grupo 1198459" transform="translate(15.321 50.492)">
          <path id="Trazado_917004" data-name="Trazado 917004" d="M40.313,57.457v.961a3.258,3.258,0,0,1-3.263,3.263H30.271A21.087,21.087,0,0,1,15.51,55.662l8.141-6.842a8.109,8.109,0,0,0,1.879,3.558,7.931,7.931,0,0,0,2.112,1.668,8.036,8.036,0,0,0,3.125.982l3.21.317.158-.306A3.257,3.257,0,0,1,40.313,56.5Z" transform="translate(-15.51 -48.82)" fill="#f0d0b4"/>
        </g>
        <g id="Grupo_1198460" data-name="Grupo 1198460" transform="translate(6.335 15.838)">
          <path id="Trazado_917005" data-name="Trazado 917005" d="M32.341,23.391v8.447A10.563,10.563,0,0,1,21.782,42.4H17.559A10.563,10.563,0,0,1,7,31.838V21.279h.644A8.4,8.4,0,0,0,15.447,16a14.075,14.075,0,0,0,10.981,5.279h3.8A2.118,2.118,0,0,1,32.341,23.391Z" transform="translate(-7 -16)" fill="#f0d0b4"/>
        </g>
        <g id="Grupo_1198461" data-name="Grupo 1198461" transform="translate(14.782 33.788)">
          <path id="Trazado_917006" data-name="Trazado 917006" d="M15,33h8.447A4.224,4.224,0,1,1,15,33Z" transform="translate(-15 -33)" fill="#ff826e"/>
        </g>
      </g>
      <g id="Grupo_1198463" data-name="Grupo 1198463" transform="translate(0 0)">
        <path id="Trazado_917007" data-name="Trazado 917007" d="M14,33.056a5.279,5.279,0,0,0,10.559,0V32H14Zm8.266,1.056a3.168,3.168,0,0,1-5.974,0Z" transform="translate(0.782 1.788)"/>
        <path id="Trazado_917008" data-name="Trazado 917008" d="M16.335,28.224h2.112a4.224,4.224,0,1,0-8.447,0h2.112a2.112,2.112,0,0,1,4.224,0Z" transform="translate(0.559 1.341)"/>
        <path id="Trazado_917009" data-name="Trazado 917009" d="M24.224,24A4.228,4.228,0,0,0,20,28.224h2.112a2.112,2.112,0,0,1,4.224,0h2.112A4.228,4.228,0,0,0,24.224,24Z" transform="translate(1.118 1.341)"/>
        <path id="Trazado_917010" data-name="Trazado 917010" d="M39.938,42.036a6.025,6.025,0,0,0-1.072-2.082,3.477,3.477,0,0,1,0-4.566,5.565,5.565,0,0,0,0-7.047,3.318,3.318,0,0,1-.854-2.28V23.95a17.95,17.95,0,1,0-35.9,0v2.112a3.318,3.318,0,0,1-.854,2.28,5.563,5.563,0,0,0,0,7.046,3.324,3.324,0,0,1,.854,2.283,3.328,3.328,0,0,1-.854,2.285A5.392,5.392,0,0,0,0,43.481a5.269,5.269,0,0,0,.418,2.147,7.516,7.516,0,0,0,6.87,4.72H10.6a7.381,7.381,0,0,0,.963,3.066l.417.715c.219.374.451.737.688,1.095v9.906h17.95v-.017c.172,0,.342.017.514.017h6.782a4.324,4.324,0,0,0,4.319-4.319V45.068a3.163,3.163,0,0,0-2.3-3.031Zm.186,13.16a4.28,4.28,0,0,0-5.88,1.42l-2.5-.25a7.106,7.106,0,0,1-2.178-.58V45.068a1.057,1.057,0,0,1,1.056-1.056h8.447a1.057,1.057,0,0,1,1.056,1.056V55.2ZM16.455,56.608a19.873,19.873,0,0,1-2.648-3.545l-.418-.716a5.272,5.272,0,0,1-.718-2.659v-.4a5.28,5.28,0,0,1,5.275-5.278h.01a5.278,5.278,0,0,1,5.273,5.279,9.394,9.394,0,0,0,.13,1.512ZM19.014,41.9H17.944a9.5,9.5,0,0,1-9.5-9.5v-9.51a9.4,9.4,0,0,0,7.633-4.467,15.039,15.039,0,0,0,10.743,4.476h3.8a1.057,1.057,0,0,1,1.056,1.056V32.4a9.514,9.514,0,0,1-9.5,9.5Zm5.227,3.522a10.567,10.567,0,0,1,3.212,2.834V54.35a7.085,7.085,0,0,1-2.113-5.059A7.33,7.33,0,0,0,24.241,45.422Zm-13.6,2.813H7.288a5.435,5.435,0,0,1-4.934-3.453,3.163,3.163,0,0,1-.242-1.3A3.328,3.328,0,0,1,2.966,41.2,5.4,5.4,0,0,0,4.224,37.67a5.393,5.393,0,0,0-1.258-3.525,3.473,3.473,0,0,1,0-4.562,5.389,5.389,0,0,0,1.258-3.521V23.95a15.838,15.838,0,0,1,31.676,0v2.112a5.389,5.389,0,0,0,1.258,3.521,3.473,3.473,0,0,1,0,4.562,5.569,5.569,0,0,0,0,7.05,7.269,7.269,0,0,1,.465.7h-7a3.172,3.172,0,0,0-3.168,3.168v.073a12.626,12.626,0,0,0-2.186-1.56A11.626,11.626,0,0,0,33.787,32.4V23.95a3.172,3.172,0,0,0-3.168-3.168h-3.8A12.947,12.947,0,0,1,16.663,15.9l-1.132-1.415-.674,1.682a7.307,7.307,0,0,1-6.818,4.616h-1.7V32.4a11.6,11.6,0,0,0,7.406,10.823,7.481,7.481,0,0,0-1.017.845,7.334,7.334,0,0,0-2.082,4.172Zm4.14,14.782V57.912a22.294,22.294,0,0,0,6.956,5.105Zm25.341-2.207a2.209,2.209,0,0,1-2.207,2.207H31.135a20.124,20.124,0,0,1-13.159-4.929l6.038-5.078a9.186,9.186,0,0,0,7.52,5.458l3.931.394.478-.96a2.207,2.207,0,0,1,4.181.986v1.922Z" transform="translate(0 0.335)"/>
        <path id="Trazado_917011" data-name="Trazado 917011" d="M30,48h6.335v2.112H30Z" transform="translate(1.676 2.682)"/>
        <path id="Trazado_917012" data-name="Trazado 917012" d="M30,44h6.335v2.112H30Z" transform="translate(1.676 2.459)"/>
        <path id="Trazado_917013" data-name="Trazado 917013" d="M45.631,18.259l3.477-3.477h6.954a3.172,3.172,0,0,0,3.168-3.168V3.168A3.172,3.172,0,0,0,56.062,0H39.168A3.172,3.172,0,0,0,36,3.168v8.447a3.172,3.172,0,0,0,3.168,3.168h2.112v1.675a2.549,2.549,0,0,0,4.351,1.8Zm-2.24-1.8V12.671H39.168a1.057,1.057,0,0,1-1.056-1.056V3.168a1.057,1.057,0,0,1,1.056-1.056H56.062a1.057,1.057,0,0,1,1.056,1.056v8.447a1.057,1.057,0,0,1-1.056,1.056H48.233l-4.1,4.1a.454.454,0,0,1-.745-.309Z" transform="translate(2.012 0)"/>
        <path id="Trazado_917014" data-name="Trazado 917014" d="M44,6h2.112V8.112H44Z" transform="translate(2.459 0.335)"/>
        <path id="Trazado_917015" data-name="Trazado 917015" d="M40,6h2.112V8.112H40Z" transform="translate(2.235 0.335)"/>
        <path id="Trazado_917016" data-name="Trazado 917016" d="M48,6h2.112V8.112H48Z" transform="translate(2.682 0.335)"/>
        <path id="Trazado_917017" data-name="Trazado 917017" d="M52,6h2.112V8.112H52Z" transform="translate(2.906 0.335)"/>
        <path id="Trazado_917018" data-name="Trazado 917018" d="M62.088,51.8A5.734,5.734,0,0,1,59,47.672a2.109,2.109,0,0,0,2.007-2.1V43.459a2.114,2.114,0,0,0-2.112-2.112H53.615v-2.54A12.438,12.438,0,0,0,59.95,27.93v-.617a12.449,12.449,0,0,0-6.919-11.2l-.472-.235-.472.237a12.446,12.446,0,0,0-6.919,11.194v.617A12.438,12.438,0,0,0,51.5,38.807v2.54H46.224a2.114,2.114,0,0,0-2.112,2.112v2.112a2.109,2.109,0,0,0,2.006,2.1,5.736,5.736,0,0,1-3.09,4.123L42,52.31v9.55l.326.311a8.634,8.634,0,0,0,5.994,2.405H56.8a8.641,8.641,0,0,0,6-2.4l.326-.313V52.31ZM47.279,27.93v-.617a10.343,10.343,0,0,1,5.279-9.055,10.343,10.343,0,0,1,5.279,9.055v.617a10.335,10.335,0,0,1-4.224,8.364V33.339l2.858-2.858L54.98,28.988l-1.365,1.364V27l2.858-2.858L54.98,22.651l-1.365,1.365V20.23H51.5v3.786l-1.365-1.365-1.493,1.493L51.5,27v3.349l-1.365-1.365L48.645,30.48,51.5,33.338v2.954a10.331,10.331,0,0,1-4.224-8.363Zm8.447,23.324a4.168,4.168,0,0,0-6.335,0,4.209,4.209,0,0,0-1.835-1.224,7.833,7.833,0,0,0,.707-2.347h8.591a7.834,7.834,0,0,0,.707,2.347A4.218,4.218,0,0,0,55.726,51.254ZM54.671,62.465H50.447V54.018a2.112,2.112,0,1,1,4.224,0ZM46.224,43.459H58.894v2.112H46.224ZM44.112,60.939V53.614a7.893,7.893,0,0,0,2.176-1.7,2.111,2.111,0,0,1,2.047,2.105v8.447h-.015A6.534,6.534,0,0,1,44.112,60.939Zm16.894,0A6.534,6.534,0,0,1,56.8,62.465h-.015V54.018a2.111,2.111,0,0,1,2.047-2.105,7.913,7.913,0,0,0,2.176,1.7Z" transform="translate(2.347 0.887)"/>
      </g>
    </g>
  </g>
</svg>
