<svg xmlns="http://www.w3.org/2000/svg" xmlns:xlink="http://www.w3.org/1999/xlink" width="118" height="118" viewBox="0 0 118 118">
  <defs>
    <filter id="Trazado_896985" x="0" y="0" width="118" height="118" filterUnits="userSpaceOnUse">
      <feOffset dy="3" input="SourceAlpha"/>
      <feGaussianBlur stdDeviation="3" result="blur"/>
      <feFlood flood-opacity="0.161"/>
      <feComposite operator="in" in2="blur"/>
      <feComposite in="SourceGraphic"/>
    </filter>
  </defs>
  <g id="Grupo_1198624" data-name="Grupo 1198624" transform="translate(-268 -3623.475)">
    <g id="Grupo_1198134" data-name="Grupo 1198134" transform="translate(-0.051 -705)">
      <g id="Grupo_1181844" data-name="Grupo 1181844" transform="translate(277.051 4334.475)">
        <g id="Grupo_1111318" data-name="Grupo 1111318" transform="translate(0)">
          <g id="Grupo_1109826" data-name="Grupo 1109826" transform="translate(0 0)">
            <g id="Grupo_1098742" data-name="Grupo 1098742">
              <g transform="matrix(1, 0, 0, 1, -9, -6)" filter="url(#Trazado_896985)">
                <g id="Trazado_896985-2" data-name="Trazado 896985" transform="translate(9 6)" fill="#9ad354" opacity="0.859">
                  <path d="M 49.99993515014648 99.5 C 43.31726837158203 99.5 36.83476257324219 98.19129943847656 30.73248100280762 95.61025238037109 C 24.83812141418457 93.11714172363281 19.54434776306152 89.54795837402344 14.99820137023926 85.00179290771484 C 10.45204162597656 80.45565032958984 6.88285493850708 75.16187286376953 4.389748573303223 69.26751708984375 C 1.808695197105408 63.16523742675781 0.5000017881393433 56.6827278137207 0.5000017881393433 50.00006103515625 C 0.5000017881393433 43.31726455688477 1.808695197105408 36.83475494384766 4.389748573303223 30.73247528076172 C 6.88285493850708 24.83811569213867 10.45204162597656 19.54434204101562 14.99820137023926 14.99819660186768 C 19.54434776306152 10.45203590393066 24.83812141418457 6.88284969329834 30.73248100280762 4.389742851257324 C 36.83476257324219 1.808689475059509 43.31726837158203 0.4999961853027344 49.99993515014648 0.4999961853027344 C 56.68260192871094 0.4999961853027344 63.16510772705078 1.808689475059509 69.26738739013672 4.389742851257324 C 75.16175079345703 6.88284969329834 80.45552062988281 10.45203590393066 85.00167083740234 14.99819660186768 C 89.54782867431641 19.54434204101562 93.11701202392578 24.83811569213867 95.61012268066406 30.73247528076172 C 98.19117736816406 36.83475494384766 99.49987030029297 43.31726455688477 99.49987030029297 49.99993133544922 C 99.49987030029297 56.6827278137207 98.19117736816406 63.16523742675781 95.61012268066406 69.26751708984375 C 93.11701202392578 75.16187286376953 89.54782867431641 80.45565032958984 85.00167083740234 85.00179290771484 C 80.45552062988281 89.54795837402344 75.16175079345703 93.11714172363281 69.26738739013672 95.61025238037109 C 63.16510772705078 98.19129943847656 56.68260192871094 99.5 49.99993515014648 99.5 Z" stroke="none"/>
                  <path d="M 49.99993515014648 0.9999923706054688 C 43.38454818725586 0.9999923706054688 36.96757507324219 2.29541015625 30.92725372314453 4.850250244140625 C 25.09249877929688 7.318145751953125 19.85213470458984 10.85135650634766 15.35174560546875 15.35174560546875 C 10.85136413574219 19.85212707519531 7.318145751953125 25.09249114990234 4.850257873535156 30.92724609375 C 2.295417785644531 36.96757125854492 1 43.38454437255859 1 50.00006103515625 C 1 56.61544799804688 2.295417785644531 63.03242111206055 4.850257873535156 69.07273864746094 C 7.318145751953125 74.90750122070312 10.85136413574219 80.14786529541016 15.35174560546875 84.64824676513672 C 19.85213470458984 89.14863586425781 25.09249877929688 92.68184661865234 30.92725372314453 95.14974212646484 C 36.96757507324219 97.70458221435547 43.38454818725586 99 49.99993515014648 99 C 56.61532211303711 99 63.03229522705078 97.70458221435547 69.07261657714844 95.14974212646484 C 74.90737915039062 92.68184661865234 80.14773559570312 89.14863586425781 84.64812469482422 84.64824676513672 C 89.14850616455078 80.14786529541016 92.68172454833984 74.90750122070312 95.14961242675781 69.07273864746094 C 97.70445251464844 63.03242111206055 98.99987030029297 56.61544799804688 98.99987030029297 49.99993133544922 C 98.99987030029297 43.38454437255859 97.70445251464844 36.96757125854492 95.14961242675781 30.92724609375 C 92.68172454833984 25.09249114990234 89.14850616455078 19.85212707519531 84.64812469482422 15.35174560546875 C 80.14773559570312 10.85135650634766 74.90737915039062 7.318145751953125 69.07261657714844 4.850250244140625 C 63.03229522705078 2.29541015625 56.61532211303711 0.9999923706054688 49.99993515014648 0.9999923706054688 M 49.99993515014648 -7.62939453125e-06 C 77.6141357421875 -7.62939453125e-06 99.99987030029297 22.38572692871094 99.99987030029297 49.99993133544922 L 99.99987030029297 50.00006103515625 C 99.99987030029297 77.61426544189453 77.6141357421875 100 49.99993515014648 100 C 22.38573455810547 100 0 77.61426544189453 0 50.00006103515625 L 0 49.99993133544922 C 0 22.38572692871094 22.38573455810547 -7.62939453125e-06 49.99993515014648 -7.62939453125e-06 Z" stroke="none" fill="#fff"/>
                </g>
              </g>
              <g id="Rectángulo_400907" data-name="Rectángulo 400907" transform="translate(0)" fill="none" stroke="#fff" stroke-width="1">
                <rect width="100" height="100" rx="50" stroke="none"/>
                <rect x="0.5" y="0.5" width="99" height="99" rx="49.5" fill="none"/>
              </g>
            </g>
          </g>
        </g>
      </g>
    </g>
    <g id="pottery_3940343" transform="translate(286.191 3635.216)">
      <path id="Trazado_917609" data-name="Trazado 917609" d="M18.655,34.98v1.766c-2.217-2.887-3.557-3.415-5.155-3.08l2.578-5.245a9.612,9.612,0,0,1,2.578,6.56Z" transform="translate(3.465 1.567)" fill="#f6bb42"/>
      <path id="Trazado_917610" data-name="Trazado 917610" d="M11.366,44.2a8.806,8.806,0,0,0,3.854-.876l.013.013v3.454h.013l-1.289,1.289-2.578-1.289L8.8,48.076,7.513,46.787H7.5V43.32a8.862,8.862,0,0,0,3.866.876Z" transform="translate(1.733 5.871)" fill="#f5f7fa"/>
      <path id="Trazado_917611" data-name="Trazado 917611" d="M11.665,46.01,14.243,47.3l1.289-1.289h1.289v5.142H6.51V46.01H7.8L9.088,47.3Z" transform="translate(1.447 6.648)" fill="#e6e9ed"/>
      <path id="Trazado_917612" data-name="Trazado 917612" d="M7.668,46.01v5.142H6.379v2.591H2.5V49.876A3.861,3.861,0,0,1,6.366,46.01Z" transform="translate(0.289 6.648)" fill="#e6e9ed"/>
      <path id="Trazado_917613" data-name="Trazado 917613" d="M6.8,50H18.4v2.591H5.51V50Z" transform="translate(1.158 7.8)" fill="#656d78"/>
      <path id="Trazado_917614" data-name="Trazado 917614" d="M19.652,49.876v3.866H15.8V51.152H14.51V46.01h1.276a3.861,3.861,0,0,1,3.866,3.866Z" transform="translate(3.757 6.648)" fill="#e6e9ed"/>
      <path id="Trazado_917615" data-name="Trazado 917615" d="M53.366,44.2a8.806,8.806,0,0,0,3.854-.876l.013.013v3.454h.013l-1.289,1.289-2.578-1.289L50.8,48.076l-1.289-1.289H49.5V43.32a8.862,8.862,0,0,0,3.866.876Z" transform="translate(13.863 5.871)" fill="#f5f7fa"/>
      <path id="Trazado_917616" data-name="Trazado 917616" d="M53.665,46.01,56.243,47.3l1.289-1.289h1.289v5.142H48.51V46.01H49.8L51.088,47.3Z" transform="translate(13.577 6.648)" fill="#e6e9ed"/>
      <path id="Trazado_917617" data-name="Trazado 917617" d="M49.668,46.01v5.142H48.379v2.591H44.5V49.876a3.861,3.861,0,0,1,3.866-3.866Z" transform="translate(12.419 6.648)" fill="#e6e9ed"/>
      <path id="Trazado_917618" data-name="Trazado 917618" d="M48.8,50H60.4v2.591H47.51V50Z" transform="translate(13.288 7.8)" fill="#656d78"/>
      <path id="Trazado_917619" data-name="Trazado 917619" d="M61.652,49.876v3.866H57.8V51.152H56.51V46.01h1.276a3.861,3.861,0,0,1,3.866,3.866Z" transform="translate(15.887 6.648)" fill="#e6e9ed"/>
      <path id="Trazado_917620" data-name="Trazado 917620" d="M3.5,34.649c7.488.864,10.465-1.637,12.888-2.139,1.6-.335,2.938.193,5.155,3.08v2.745a9.022,9.022,0,0,1-18.043,0Z" transform="translate(0.577 2.723)" fill="#eac6bb"/>
      <path id="Trazado_917621" data-name="Trazado 917621" d="M19.255,29.116l-2.578,5.245c-2.423.5-5.4,3-12.888,2.139-.412-.052-.838-.1-1.289-.18v-.644a9.659,9.659,0,0,1,16.755-6.56Z" transform="translate(0.289 0.871)" fill="#ffce54"/>
      <path id="Trazado_917622" data-name="Trazado 917622" d="M49.366,32.428A3.869,3.869,0,0,1,45.5,36.295V29.851a3.864,3.864,0,0,1,3.866-3.841Z" transform="translate(12.708 0.871)" fill="#e9573f"/>
      <path id="Trazado_917623" data-name="Trazado 917623" d="M65.255,34.3V47.189A10.334,10.334,0,0,0,54.944,36.878H52.366A3.861,3.861,0,0,1,48.5,33.012V26.568a10.52,10.52,0,0,1,6.444-2.578A10.324,10.324,0,0,1,65.255,34.3Z" transform="translate(13.574 0.288)" fill="#fc6e51"/>
      <path id="Trazado_917624" data-name="Trazado 917624" d="M55.811,34.856a10.245,10.245,0,0,1,7.733,3.506v.374a9.022,9.022,0,0,1-18.043,0V34.856a3.87,3.87,0,0,0,3.866-3.866,3.861,3.861,0,0,0,3.866,3.866Z" transform="translate(12.708 2.31)" fill="#eac6bb"/>
      <path id="Trazado_917625" data-name="Trazado 917625" d="M44.941,61.444v3.866H39.8V61.444H38.51V55a6.444,6.444,0,0,1,6.431,6.444Z" transform="translate(10.689 9.244)" fill="#e6e9ed"/>
      <path id="Trazado_917626" data-name="Trazado 917626" d="M44.131,60v3.866H23.51V60H44.131Z" transform="translate(6.357 10.688)" fill="#656d78"/>
      <path id="Trazado_917627" data-name="Trazado 917627" d="M39.376,55v6.444H35.51V55h3.854Z" transform="translate(9.822 9.244)" fill="#545c66"/>
      <path id="Trazado_917628" data-name="Trazado 917628" d="M25.957,55v6.444H24.668v3.866H19.5V61.444A6.438,6.438,0,0,1,25.944,55Z" transform="translate(5.198 9.244)" fill="#e6e9ed"/>
      <path id="Trazado_917629" data-name="Trazado 917629" d="M28.364,55l.013.026v6.418H24.51V55Z" transform="translate(6.645 9.244)" fill="#545c66"/>
      <path id="Trazado_917630" data-name="Trazado 917630" d="M37.821,55v6.444H27.51V55.026l1.276,2.552,3.866-1.289,3.866,1.289L37.808,55Z" transform="translate(7.512 9.244)" fill="#e6e9ed"/>
      <path id="Trazado_917631" data-name="Trazado 917631" d="M45.7,39.311V43.2l-3.866-2.6a17.171,17.171,0,0,1-7.088,1.289A29.654,29.654,0,0,1,26.366,40.6L22.5,43.2V39.311A10.3,10.3,0,0,1,32.811,29h7.733v5.155A5.154,5.154,0,0,1,45.7,39.311Z" transform="translate(6.065 1.735)" fill="#965353"/>
      <path id="Trazado_917632" data-name="Trazado 917632" d="M45.7,40.6v3.841l-2.578,1.289a6.438,6.438,0,0,1-6.444,6.444L35.4,50.888H32.823l-1.315,1.289a6.438,6.438,0,0,1-6.444-6.444L22.5,44.444V40.6L26.366,38a29.654,29.654,0,0,0,8.377,1.289A17.171,17.171,0,0,0,41.832,38Z" transform="translate(6.065 4.334)" fill="#eac6bb"/>
      <path id="Trazado_917633" data-name="Trazado 917633" d="M45.7,43a11.6,11.6,0,1,1-23.2.064V43l2.565,1.289a6.438,6.438,0,0,0,6.444,6.444l1.315-1.289H35.4l1.276,1.289a6.438,6.438,0,0,0,6.444-6.444Z" transform="translate(6.065 5.778)" fill="#965353"/>
      <path id="Trazado_917634" data-name="Trazado 917634" d="M28.789,58.716l-1.276-2.552-.013-.026V51.06a11.574,11.574,0,0,0,10.311,0v5.078l-1.289,2.578-3.866-1.289Z" transform="translate(7.509 8.106)" fill="#f5f7fa"/>
      <path id="Trazado_917639" data-name="Trazado 917639" d="M19.788,63.021A1.288,1.288,0,0,1,18.5,61.732,7.741,7.741,0,0,1,26.232,54a1.289,1.289,0,1,1,0,2.578,5.16,5.16,0,0,0-5.155,5.155,1.288,1.288,0,0,1-1.289,1.289Z" transform="translate(4.909 8.955)"/>
      <path id="Trazado_917640" data-name="Trazado 917640" d="M28.654,56.577H24.788a1.289,1.289,0,0,1,0-2.578h3.866a1.289,1.289,0,0,1,0,2.578Z" transform="translate(6.353 8.955)"/>
      <path id="Trazado_917641" data-name="Trazado 917641" d="M19.788,65.443A1.288,1.288,0,0,1,18.5,64.154V60.288a1.289,1.289,0,0,1,2.578,0v3.866a1.288,1.288,0,0,1-1.289,1.289Z" transform="translate(4.909 10.399)"/>
      <path id="Trazado_917642" data-name="Trazado 917642" d="M45.232,63.021a1.288,1.288,0,0,1-1.289-1.289,5.16,5.16,0,0,0-5.155-5.155,1.289,1.289,0,1,1,0-2.578,7.741,7.741,0,0,1,7.733,7.733,1.288,1.288,0,0,1-1.289,1.289Z" transform="translate(10.397 8.955)"/>
      <path id="Trazado_917643" data-name="Trazado 917643" d="M39.654,56.577H35.788a1.289,1.289,0,0,1,0-2.578h3.866a1.289,1.289,0,0,1,0,2.578Z" transform="translate(9.53 8.955)"/>
      <path id="Trazado_917644" data-name="Trazado 917644" d="M43.788,65.443A1.288,1.288,0,0,1,42.5,64.154V60.288a1.289,1.289,0,1,1,2.578,0v3.866a1.288,1.288,0,0,1-1.289,1.289Z" transform="translate(11.841 10.399)"/>
      <path id="Trazado_917645" data-name="Trazado 917645" d="M27.788,57.713A1.288,1.288,0,0,1,26.5,56.424V51.352a1.289,1.289,0,1,1,2.578,0v5.072a1.288,1.288,0,0,1-1.289,1.289Z" transform="translate(7.22 7.818)"/>
      <path id="Trazado_917646" data-name="Trazado 917646" d="M35.788,57.713A1.288,1.288,0,0,1,34.5,56.424V51.352a1.289,1.289,0,1,1,2.578,0v5.072a1.288,1.288,0,0,1-1.289,1.289Z" transform="translate(9.53 7.818)"/>
      <path id="Trazado_917647" data-name="Trazado 917647" d="M38.521,30.577H30.788a1.289,1.289,0,0,1,0-2.578h7.733a1.289,1.289,0,1,1,0,2.578Z" transform="translate(8.086 1.446)"/>
      <path id="Trazado_917648" data-name="Trazado 917648" d="M34.386,56.175A12.9,12.9,0,0,1,21.5,43.29a1.289,1.289,0,0,1,2.578,0,10.311,10.311,0,1,0,20.621,0,1.289,1.289,0,0,1,2.578,0A12.9,12.9,0,0,1,34.386,56.175Z" transform="translate(5.776 5.49)"/>
      <path id="Trazado_917649" data-name="Trazado 917649" d="M22.788,46.375A1.288,1.288,0,0,1,21.5,45.086v-7.8a1.289,1.289,0,0,1,2.578,0v7.8a1.288,1.288,0,0,1-1.289,1.289Z" transform="translate(5.776 3.756)"/>
      <path id="Trazado_917650" data-name="Trazado 917650" d="M40.788,46.312A1.288,1.288,0,0,1,39.5,45.023V37.288a1.289,1.289,0,1,1,2.578,0v7.735a1.288,1.288,0,0,1-1.289,1.289Z" transform="translate(10.974 3.756)"/>
      <path id="Trazado_917651" data-name="Trazado 917651" d="M41.943,39.731a1.288,1.288,0,0,1-1.289-1.289,3.87,3.87,0,0,0-3.866-3.865,1.289,1.289,0,1,1,0-2.578,6.451,6.451,0,0,1,6.444,6.443,1.288,1.288,0,0,1-1.289,1.289Z" transform="translate(9.819 2.601)"/>
      <path id="Trazado_917652" data-name="Trazado 917652" d="M36.788,35.732A1.288,1.288,0,0,1,35.5,34.443V29.288a1.289,1.289,0,1,1,2.578,0v5.155a1.288,1.288,0,0,1-1.289,1.289Z" transform="translate(9.819 1.446)"/>
      <path id="Trazado_917653" data-name="Trazado 917653" d="M22.788,40.887A1.288,1.288,0,0,1,21.5,39.6,11.612,11.612,0,0,1,33.1,28a1.289,1.289,0,0,1,0,2.578A9.033,9.033,0,0,0,24.077,39.6a1.288,1.288,0,0,1-1.289,1.289Z" transform="translate(5.776 1.446)"/>
      <path id="Trazado_917654" data-name="Trazado 917654" d="M41.653,42.187a1.29,1.29,0,0,1-.72-.22l-3.866-2.61a1.289,1.289,0,1,1,1.442-2.137l3.866,2.61a1.289,1.289,0,0,1-.722,2.357Z" transform="translate(10.108 4.045)"/>
      <path id="Trazado_917655" data-name="Trazado 917655" d="M34.165,40.866a30.844,30.844,0,0,1-8.784-1.354,1.289,1.289,0,0,1,.812-2.447,28.7,28.7,0,0,0,7.972,1.223,16.241,16.241,0,0,0,6.52-1.157,1.289,1.289,0,0,1,1.144,2.311,18.389,18.389,0,0,1-7.664,1.423Z" transform="translate(6.642 4.045)"/>
      <path id="Trazado_917656" data-name="Trazado 917656" d="M22.789,42.187a1.289,1.289,0,0,1-.722-2.357l3.866-2.61a1.289,1.289,0,1,1,1.442,2.137l-3.866,2.61A1.289,1.289,0,0,1,22.789,42.187Z" transform="translate(5.776 4.045)"/>
      <path id="Trazado_917657" data-name="Trazado 917657" d="M2.79,51.453A1.288,1.288,0,0,1,1.5,50.164a5.16,5.16,0,0,1,5.155-5.155,1.289,1.289,0,0,1,0,2.578,2.581,2.581,0,0,0-2.578,2.578A1.288,1.288,0,0,1,2.79,51.453Z" transform="translate(0 6.358)"/>
      <path id="Trazado_917658" data-name="Trazado 917658" d="M8.367,47.592H5.79a1.289,1.289,0,0,1,0-2.578H8.367a1.289,1.289,0,0,1,0,2.578Z" transform="translate(0.866 6.36)"/>
      <path id="Trazado_917659" data-name="Trazado 917659" d="M2.79,54.457A1.288,1.288,0,0,1,1.5,53.168V49.3a1.289,1.289,0,1,1,2.578,0v3.87A1.288,1.288,0,0,1,2.79,54.457Z" transform="translate(0 7.225)"/>
      <path id="Trazado_917660" data-name="Trazado 917660" d="M19.656,51.453a1.288,1.288,0,0,1-1.289-1.289,2.581,2.581,0,0,0-2.578-2.578,1.289,1.289,0,0,1,0-2.578,5.16,5.16,0,0,1,5.155,5.155,1.288,1.288,0,0,1-1.289,1.289Z" transform="translate(3.755 6.358)"/>
      <path id="Trazado_917661" data-name="Trazado 917661" d="M16.367,47.592H13.79a1.289,1.289,0,1,1,0-2.578h2.578a1.289,1.289,0,0,1,0,2.578Z" transform="translate(3.177 6.36)"/>
      <path id="Trazado_917662" data-name="Trazado 917662" d="M18.79,54.457A1.288,1.288,0,0,1,17.5,53.168V49.3a1.289,1.289,0,0,1,2.578,0v3.87a1.288,1.288,0,0,1-1.289,1.289Z" transform="translate(4.621 7.225)"/>
      <path id="Trazado_917663" data-name="Trazado 917663" d="M7.79,48.367A1.288,1.288,0,0,1,6.5,47.078V43.62a1.289,1.289,0,0,1,2.578,0v3.459A1.288,1.288,0,0,1,7.79,48.367Z" transform="translate(1.444 5.585)"/>
      <path id="Trazado_917664" data-name="Trazado 917664" d="M13.79,48.36A1.288,1.288,0,0,1,12.5,47.071V43.62a1.289,1.289,0,1,1,2.578,0v3.451A1.288,1.288,0,0,1,13.79,48.36Z" transform="translate(3.177 5.585)"/>
      <path id="Trazado_917665" data-name="Trazado 917665" d="M3.79,39.418A1.288,1.288,0,0,1,2.5,38.13v-3.7a1.289,1.289,0,0,1,2.578,0v3.7A1.288,1.288,0,0,1,3.79,39.418Z" transform="translate(0.289 2.932)"/>
      <path id="Trazado_917666" data-name="Trazado 917666" d="M17.79,39.6A1.288,1.288,0,0,1,16.5,38.312V33.8a1.289,1.289,0,0,1,2.578,0v4.511A1.288,1.288,0,0,1,17.79,39.6Z" transform="translate(4.332 2.749)"/>
      <path id="Trazado_917667" data-name="Trazado 917667" d="M22.122,37.256a1.288,1.288,0,0,1-1.289-1.289,8.377,8.377,0,1,0-16.755,0,1.289,1.289,0,1,1-2.578,0,10.955,10.955,0,1,1,21.91,0,1.288,1.288,0,0,1-1.289,1.289Z" transform="translate(0 0.583)"/>
      <path id="Trazado_917668" data-name="Trazado 917668" d="M22.123,37.17a1.288,1.288,0,0,1-1.025-.5c-2.488-3.252-3.167-2.98-5.689-1.982A21.713,21.713,0,0,1,2.588,36.026a1.288,1.288,0,0,1,.4-2.545,19.193,19.193,0,0,0,11.47-1.194c3.1-1.23,5.188-1.757,8.684,2.81a1.289,1.289,0,0,1-1.022,2.073Z" transform="translate(0 2.436)"/>
      <path id="Trazado_917669" data-name="Trazado 917669" d="M13.788,35.243a1.289,1.289,0,0,1-1.155-1.856l2.578-5.248a1.288,1.288,0,1,1,2.313,1.135l-2.578,5.248a1.288,1.288,0,0,1-1.158.721Z" transform="translate(3.177 1.278)"/>
      <path id="Trazado_917670" data-name="Trazado 917670" d="M12.812,47.6A10.32,10.32,0,0,1,2.5,37.3a1.289,1.289,0,0,1,2.578,0,7.733,7.733,0,0,0,15.466,0,1.289,1.289,0,1,1,2.578,0A10.32,10.32,0,0,1,12.812,47.6Z" transform="translate(0.289 3.759)"/>
      <path id="Trazado_917671" data-name="Trazado 917671" d="M29.787,50.868a1.289,1.289,0,0,1-.9-2.21L30.2,47.372A1.289,1.289,0,1,1,32,49.214L30.688,50.5a1.284,1.284,0,0,1-.9.368Z" transform="translate(7.797 6.935)"/>
      <path id="Trazado_917672" data-name="Trazado 917672" d="M33.381,49.582H30.806a1.289,1.289,0,1,1,0-2.578h2.575a1.289,1.289,0,1,1,0,2.578Z" transform="translate(8.092 6.935)"/>
      <path id="Trazado_917673" data-name="Trazado 917673" d="M34.073,50.868a1.286,1.286,0,0,1-.918-.384L31.887,49.2a1.289,1.289,0,0,1,1.835-1.81l1.269,1.286a1.289,1.289,0,0,1-.918,2.194Z" transform="translate(8.669 6.935)"/>
      <path id="Trazado_917674" data-name="Trazado 917674" d="M31.231,52.024A7.742,7.742,0,0,1,23.5,44.291a1.289,1.289,0,1,1,2.578,0,5.161,5.161,0,0,0,5.157,5.155,1.289,1.289,0,0,1,0,2.578Z" transform="translate(6.353 5.779)"/>
      <path id="Trazado_917675" data-name="Trazado 917675" d="M25.362,45.869a1.3,1.3,0,0,1-.576-.136l-2.575-1.29a1.29,1.29,0,1,1,1.155-2.306l2.575,1.29a1.289,1.289,0,0,1-.579,2.442Z" transform="translate(5.776 5.49)"/>
      <path id="Trazado_917676" data-name="Trazado 917676" d="M33.789,52.024a1.289,1.289,0,0,1,0-2.578,5.161,5.161,0,0,0,5.157-5.155,1.289,1.289,0,0,1,2.578,0A7.742,7.742,0,0,1,33.789,52.024Z" transform="translate(8.953 5.779)"/>
      <path id="Trazado_917677" data-name="Trazado 917677" d="M38.791,45.869a1.289,1.289,0,0,1-.579-2.442l2.575-1.29a1.29,1.29,0,1,1,1.155,2.306l-2.575,1.29a1.3,1.3,0,0,1-.576.136Z" transform="translate(10.397 5.49)"/>
      <path id="Trazado_917678" data-name="Trazado 917678" d="M45.788,40.886A1.288,1.288,0,0,1,44.5,39.6V29.282a1.289,1.289,0,1,1,2.578,0V39.6a1.288,1.288,0,0,1-1.289,1.289Z" transform="translate(12.418 1.444)"/>
      <path id="Trazado_917679" data-name="Trazado 917679" d="M59.788,38.659A1.288,1.288,0,0,1,58.5,37.371v-.378a1.289,1.289,0,1,1,2.578,0v.378a1.288,1.288,0,0,1-1.289,1.289Z" transform="translate(16.462 3.671)"/>
      <path id="Trazado_917680" data-name="Trazado 917680" d="M44.788,51.437A1.288,1.288,0,0,1,43.5,50.148a5.16,5.16,0,0,1,5.155-5.155,1.289,1.289,0,0,1,0,2.578,2.581,2.581,0,0,0-2.578,2.578,1.288,1.288,0,0,1-1.289,1.289Z" transform="translate(12.13 6.354)"/>
      <path id="Trazado_917681" data-name="Trazado 917681" d="M50.365,47.577H47.788a1.289,1.289,0,1,1,0-2.578h2.578a1.289,1.289,0,0,1,0,2.578Z" transform="translate(12.996 6.356)"/>
      <path id="Trazado_917682" data-name="Trazado 917682" d="M44.788,54.442A1.288,1.288,0,0,1,43.5,53.153V49.282a1.289,1.289,0,1,1,2.578,0v3.871a1.288,1.288,0,0,1-1.289,1.289Z" transform="translate(12.13 7.22)"/>
      <path id="Trazado_917683" data-name="Trazado 917683" d="M61.654,51.437a1.288,1.288,0,0,1-1.289-1.289,2.581,2.581,0,0,0-2.578-2.578,1.289,1.289,0,1,1,0-2.578,5.16,5.16,0,0,1,5.155,5.155,1.288,1.288,0,0,1-1.289,1.289Z" transform="translate(15.884 6.354)"/>
      <path id="Trazado_917684" data-name="Trazado 917684" d="M58.365,47.577H55.788a1.289,1.289,0,0,1,0-2.578h2.578a1.289,1.289,0,0,1,0,2.578Z" transform="translate(15.307 6.356)"/>
      <path id="Trazado_917685" data-name="Trazado 917685" d="M60.788,54.442A1.288,1.288,0,0,1,59.5,53.153V49.282a1.289,1.289,0,1,1,2.578,0v3.871a1.288,1.288,0,0,1-1.289,1.289Z" transform="translate(16.751 7.22)"/>
      <path id="Trazado_917686" data-name="Trazado 917686" d="M49.788,48.352A1.288,1.288,0,0,1,48.5,47.063V43.6a1.289,1.289,0,1,1,2.578,0v3.459a1.288,1.288,0,0,1-1.289,1.289Z" transform="translate(13.574 5.581)"/>
      <path id="Trazado_917687" data-name="Trazado 917687" d="M55.788,48.344A1.288,1.288,0,0,1,54.5,47.055V43.6a1.289,1.289,0,1,1,2.578,0v3.451a1.288,1.288,0,0,1-1.289,1.289Z" transform="translate(15.307 5.581)"/>
      <path id="Trazado_917688" data-name="Trazado 917688" d="M54.81,47.588A10.32,10.32,0,0,1,44.5,37.282a1.289,1.289,0,0,1,2.578,0,7.733,7.733,0,0,0,15.466,0,1.289,1.289,0,1,1,2.578,0A10.32,10.32,0,0,1,54.81,47.588Z" transform="translate(12.418 3.755)"/>
      <path id="Trazado_917689" data-name="Trazado 917689" d="M65.543,35.881a1.288,1.288,0,0,1-1.289-1.289,9.033,9.033,0,0,0-9.022-9.022,9.4,9.4,0,0,0-5.637,2.294,1.289,1.289,0,1,1-1.614-2.011,11.736,11.736,0,0,1,7.251-2.861,11.612,11.612,0,0,1,11.6,11.6,1.288,1.288,0,0,1-1.289,1.289Z" transform="translate(13.285)"/>
      <path id="Trazado_917690" data-name="Trazado 917690" d="M64.1,45.881a1.288,1.288,0,0,1-1.289-1.289,9.033,9.033,0,0,0-9.022-9.022,1.289,1.289,0,0,1,0-2.578,11.612,11.612,0,0,1,11.6,11.6A1.288,1.288,0,0,1,64.1,45.881Z" transform="translate(14.729 2.888)"/>
      <path id="Trazado_917691" data-name="Trazado 917691" d="M45.788,36.437a1.289,1.289,0,1,1,0-2.578,2.581,2.581,0,0,0,2.578-2.578,1.289,1.289,0,1,1,2.578,0A5.16,5.16,0,0,1,45.788,36.437Z" transform="translate(12.418 2.022)"/>
      <path id="Trazado_917692" data-name="Trazado 917692" d="M45.788,31.451A1.288,1.288,0,0,1,44.5,30.162a5.16,5.16,0,0,1,5.155-5.155,1.289,1.289,0,0,1,0,2.578,2.581,2.581,0,0,0-2.578,2.578,1.288,1.288,0,0,1-1.289,1.289Z" transform="translate(12.418 0.582)"/>
      <path id="Trazado_917693" data-name="Trazado 917693" d="M52.654,36.437A5.16,5.16,0,0,1,47.5,31.282a1.289,1.289,0,1,1,2.578,0,2.581,2.581,0,0,0,2.578,2.578,1.289,1.289,0,1,1,0,2.578Z" transform="translate(13.285 2.022)"/>
      <path id="Trazado_917694" data-name="Trazado 917694" d="M48.788,34.015A1.288,1.288,0,0,1,47.5,32.726V26.282a1.289,1.289,0,1,1,2.578,0v6.444a1.288,1.288,0,0,1-1.289,1.289Z" transform="translate(13.285 0.578)"/>
      <path id="Trazado_917695" data-name="Trazado 917695" d="M61.788,46.459A1.288,1.288,0,0,1,60.5,45.17V32.282a1.289,1.289,0,1,1,2.578,0V45.17a1.288,1.288,0,0,1-1.289,1.289Z" transform="translate(17.039 2.311)"/>
      <path id="Trazado_917696" data-name="Trazado 917696" d="M54.365,35.571H51.788a1.289,1.289,0,0,1,0-2.578h2.578a1.289,1.289,0,0,1,0,2.578Z" transform="translate(14.151 2.888)"/>
      <path id="Trazado_917697" data-name="Trazado 917697" d="M34.788,59.154a1.289,1.289,0,0,1-1.152-1.865l1.288-2.578a1.289,1.289,0,0,1,2.306,1.153l-1.288,2.578a1.287,1.287,0,0,1-1.154.712Z" transform="translate(9.242 8.955)"/>
      <path id="Trazado_917698" data-name="Trazado 917698" d="M35.656,58.865a1.287,1.287,0,0,1-.408-.067L31.38,57.51a1.288,1.288,0,0,1,.816-2.444l3.868,1.289a1.289,1.289,0,0,1-.408,2.511Z" transform="translate(8.375 9.244)"/>
      <path id="Trazado_917699" data-name="Trazado 917699" d="M28.789,58.865a1.289,1.289,0,0,1-.408-2.511l3.865-1.289a1.288,1.288,0,1,1,.816,2.444L29.2,58.8a1.287,1.287,0,0,1-.408.067Z" transform="translate(7.509 9.244)"/>
      <path id="Trazado_917700" data-name="Trazado 917700" d="M29.079,59.154a1.289,1.289,0,0,1-1.154-.712l-1.29-2.578a1.289,1.289,0,0,1,2.306-1.153l1.29,2.578a1.289,1.289,0,0,1-1.152,1.865Z" transform="translate(7.22 8.955)"/>
      <path id="Trazado_917707" data-name="Trazado 917707" d="M50.8,48.875a1.289,1.289,0,0,1-.578-2.442L52.8,45.145a1.289,1.289,0,0,1,1.153,2.306l-2.578,1.289a1.29,1.29,0,0,1-.575.136Z" transform="translate(13.866 6.358)"/>
      <path id="Trazado_917708" data-name="Trazado 917708" d="M54.8,48.875a1.289,1.289,0,0,1-.911-2.2l1.289-1.289A1.289,1.289,0,1,1,57,47.209L55.713,48.5a1.285,1.285,0,0,1-.911.378Z" transform="translate(15.022 6.358)"/>
      <path id="Trazado_917709" data-name="Trazado 917709" d="M51.09,48.875a1.285,1.285,0,0,1-.911-.378L48.89,47.209a1.289,1.289,0,0,1,1.822-1.822L52,46.675a1.289,1.289,0,0,1-.911,2.2Z" transform="translate(13.578 6.358)"/>
      <path id="Trazado_917710" data-name="Trazado 917710" d="M55.378,48.875a1.29,1.29,0,0,1-.575-.136l-2.578-1.289a1.289,1.289,0,1,1,1.153-2.306l2.578,1.289a1.289,1.289,0,0,1-.578,2.442Z" transform="translate(14.444 6.358)"/>
      <path id="Trazado_917711" data-name="Trazado 917711" d="M47.8,54.155a1.288,1.288,0,0,1-1.289-1.289V50.289a1.289,1.289,0,1,1,2.578,0v2.578A1.288,1.288,0,0,1,47.8,54.155Z" transform="translate(13 7.511)"/>
      <path id="Trazado_917712" data-name="Trazado 917712" d="M60.69,51.578H47.8A1.289,1.289,0,0,1,47.8,49H60.69a1.289,1.289,0,0,1,0,2.578Z" transform="translate(13 7.511)"/>
      <path id="Trazado_917713" data-name="Trazado 917713" d="M57.8,54.172a1.288,1.288,0,0,1-1.289-1.289V50.289a1.289,1.289,0,0,1,2.578,0v2.594A1.288,1.288,0,0,1,57.8,54.172Z" transform="translate(15.888 7.511)"/>
      <path id="Trazado_917714" data-name="Trazado 917714" d="M56.8,52.729a1.288,1.288,0,0,1-1.289-1.289V46.3a1.289,1.289,0,1,1,2.578,0V51.44A1.288,1.288,0,0,1,56.8,52.729Z" transform="translate(15.6 6.36)"/>
      <path id="Trazado_917715" data-name="Trazado 917715" d="M48.8,52.729a1.288,1.288,0,0,1-1.289-1.289V46.3a1.289,1.289,0,1,1,2.578,0V51.44A1.288,1.288,0,0,1,48.8,52.729Z" transform="translate(13.289 6.36)"/>
      <path id="Trazado_917716" data-name="Trazado 917716" d="M8.808,48.875a1.289,1.289,0,0,1-.578-2.442l2.578-1.289a1.289,1.289,0,1,1,1.153,2.306L9.383,48.739a1.29,1.29,0,0,1-.575.136Z" transform="translate(1.738 6.358)"/>
      <path id="Trazado_917717" data-name="Trazado 917717" d="M12.806,48.875a1.289,1.289,0,0,1-.911-2.2l1.289-1.289a1.289,1.289,0,0,1,1.822,1.822L13.718,48.5a1.285,1.285,0,0,1-.911.378Z" transform="translate(2.893 6.358)"/>
      <path id="Trazado_917718" data-name="Trazado 917718" d="M9.1,48.875a1.285,1.285,0,0,1-.911-.378L6.9,47.209a1.289,1.289,0,1,1,1.822-1.822l1.289,1.289a1.289,1.289,0,0,1-.911,2.2Z" transform="translate(1.449 6.358)"/>
      <path id="Trazado_917719" data-name="Trazado 917719" d="M13.383,48.875a1.29,1.29,0,0,1-.575-.136L10.23,47.451a1.289,1.289,0,0,1,1.153-2.306l2.578,1.289a1.289,1.289,0,0,1-.578,2.442Z" transform="translate(2.315 6.358)"/>
      <path id="Trazado_917720" data-name="Trazado 917720" d="M5.806,54.155a1.288,1.288,0,0,1-1.289-1.289V50.289a1.289,1.289,0,0,1,2.578,0v2.578a1.288,1.288,0,0,1-1.289,1.289Z" transform="translate(0.871 7.511)"/>
      <path id="Trazado_917721" data-name="Trazado 917721" d="M18.695,51.578H5.806a1.289,1.289,0,1,1,0-2.578H18.695a1.289,1.289,0,0,1,0,2.578Z" transform="translate(0.871 7.511)"/>
      <path id="Trazado_917722" data-name="Trazado 917722" d="M15.806,54.172a1.288,1.288,0,0,1-1.289-1.289V50.289a1.289,1.289,0,0,1,2.578,0v2.594a1.288,1.288,0,0,1-1.289,1.289Z" transform="translate(3.759 7.511)"/>
      <path id="Trazado_917723" data-name="Trazado 917723" d="M14.806,52.729a1.288,1.288,0,0,1-1.289-1.289V46.3a1.289,1.289,0,1,1,2.578,0V51.44a1.288,1.288,0,0,1-1.289,1.289Z" transform="translate(3.471 6.36)"/>
      <path id="Trazado_917724" data-name="Trazado 917724" d="M6.805,52.729A1.288,1.288,0,0,1,5.517,51.44V46.3a1.289,1.289,0,1,1,2.578,0V51.44a1.288,1.288,0,0,1-1.289,1.289Z" transform="translate(1.16 6.36)"/>
      <path id="Trazado_917725" data-name="Trazado 917725" d="M44.425,65.444a1.288,1.288,0,0,1-1.289-1.289V61.578H25.093v2.578a1.289,1.289,0,1,1-2.578,0V60.289A1.288,1.288,0,0,1,23.8,59H44.425a1.288,1.288,0,0,1,1.289,1.289v3.866a1.288,1.288,0,0,1-1.289,1.289Z" transform="translate(6.069 10.399)"/>
      <path id="Trazado_917726" data-name="Trazado 917726" d="M24.8,63.022a1.288,1.288,0,0,1-1.289-1.289V55.289a1.289,1.289,0,1,1,2.578,0v6.444A1.288,1.288,0,0,1,24.8,63.022Z" transform="translate(6.358 8.955)"/>
      <path id="Trazado_917727" data-name="Trazado 917727" d="M27.8,63.022a1.288,1.288,0,0,1-1.289-1.289V55.289a1.289,1.289,0,0,1,2.578,0v6.444A1.288,1.288,0,0,1,27.8,63.022Z" transform="translate(7.225 8.955)"/>
      <path id="Trazado_917728" data-name="Trazado 917728" d="M35.8,63.022a1.288,1.288,0,0,1-1.289-1.289V55.289a1.289,1.289,0,0,1,2.578,0v6.444A1.288,1.288,0,0,1,35.8,63.022Z" transform="translate(9.535 8.955)"/>
      <path id="Trazado_917729" data-name="Trazado 917729" d="M38.8,63.022a1.288,1.288,0,0,1-1.289-1.289V55.289a1.289,1.289,0,0,1,2.578,0v6.444A1.288,1.288,0,0,1,38.8,63.022Z" transform="translate(10.402 8.955)"/>
    </g>
  </g>
</svg>
