<svg xmlns="http://www.w3.org/2000/svg" xmlns:xlink="http://www.w3.org/1999/xlink" width="118" height="118" viewBox="0 0 118 118">
  <defs>
    <filter id="Trazado_896985" x="0" y="0" width="118" height="118" filterUnits="userSpaceOnUse">
      <feOffset dy="3" input="SourceAlpha"/>
      <feGaussianBlur stdDeviation="3" result="blur"/>
      <feFlood flood-opacity="0.161"/>
      <feComposite operator="in" in2="blur"/>
      <feComposite in="SourceGraphic"/>
    </filter>
  </defs>
  <g id="Grupo_1198625" data-name="Grupo 1198625" transform="translate(-583 -3623.475)">
    <g id="Grupo_1198135" data-name="Grupo 1198135" transform="translate(-0.051 -705)">
      <g id="Grupo_1181847" data-name="Grupo 1181847" transform="translate(592.051 4334.475)">
        <g id="Grupo_1111318" data-name="Grupo 1111318" transform="translate(0)">
          <g id="Grupo_1109826" data-name="Grupo 1109826" transform="translate(0 0)">
            <g id="Grupo_1098742" data-name="Grupo 1098742">
              <g transform="matrix(1, 0, 0, 1, -9, -6)" filter="url(#Trazado_896985)">
                <g id="Trazado_896985-2" data-name="Trazado 896985" transform="translate(9 6)" fill="#9ad354" opacity="0.859">
                  <path d="M 49.99993515014648 99.5 C 43.31726837158203 99.5 36.83476257324219 98.19129943847656 30.73248100280762 95.61025238037109 C 24.83812141418457 93.11714172363281 19.54434776306152 89.54795837402344 14.99820137023926 85.00179290771484 C 10.45204162597656 80.45565032958984 6.88285493850708 75.16187286376953 4.389748573303223 69.26751708984375 C 1.808695197105408 63.16523742675781 0.5000017881393433 56.6827278137207 0.5000017881393433 50.00006103515625 C 0.5000017881393433 43.31726455688477 1.808695197105408 36.83475494384766 4.389748573303223 30.73247528076172 C 6.88285493850708 24.83811569213867 10.45204162597656 19.54434204101562 14.99820137023926 14.99819660186768 C 19.54434776306152 10.45203590393066 24.83812141418457 6.88284969329834 30.73248100280762 4.389742851257324 C 36.83476257324219 1.808689475059509 43.31726837158203 0.4999961853027344 49.99993515014648 0.4999961853027344 C 56.68260192871094 0.4999961853027344 63.16510772705078 1.808689475059509 69.26738739013672 4.389742851257324 C 75.16175079345703 6.88284969329834 80.45552062988281 10.45203590393066 85.00167083740234 14.99819660186768 C 89.54782867431641 19.54434204101562 93.11701202392578 24.83811569213867 95.61012268066406 30.73247528076172 C 98.19117736816406 36.83475494384766 99.49987030029297 43.31726455688477 99.49987030029297 49.99993133544922 C 99.49987030029297 56.6827278137207 98.19117736816406 63.16523742675781 95.61012268066406 69.26751708984375 C 93.11701202392578 75.16187286376953 89.54782867431641 80.45565032958984 85.00167083740234 85.00179290771484 C 80.45552062988281 89.54795837402344 75.16175079345703 93.11714172363281 69.26738739013672 95.61025238037109 C 63.16510772705078 98.19129943847656 56.68260192871094 99.5 49.99993515014648 99.5 Z" stroke="none"/>
                  <path d="M 49.99993515014648 0.9999923706054688 C 43.38454818725586 0.9999923706054688 36.96757507324219 2.29541015625 30.92725372314453 4.850250244140625 C 25.09249877929688 7.318145751953125 19.85213470458984 10.85135650634766 15.35174560546875 15.35174560546875 C 10.85136413574219 19.85212707519531 7.318145751953125 25.09249114990234 4.850257873535156 30.92724609375 C 2.295417785644531 36.96757125854492 1 43.38454437255859 1 50.00006103515625 C 1 56.61544799804688 2.295417785644531 63.03242111206055 4.850257873535156 69.07273864746094 C 7.318145751953125 74.90750122070312 10.85136413574219 80.14786529541016 15.35174560546875 84.64824676513672 C 19.85213470458984 89.14863586425781 25.09249877929688 92.68184661865234 30.92725372314453 95.14974212646484 C 36.96757507324219 97.70458221435547 43.38454818725586 99 49.99993515014648 99 C 56.61532211303711 99 63.03229522705078 97.70458221435547 69.07261657714844 95.14974212646484 C 74.90737915039062 92.68184661865234 80.14773559570312 89.14863586425781 84.64812469482422 84.64824676513672 C 89.14850616455078 80.14786529541016 92.68172454833984 74.90750122070312 95.14961242675781 69.07273864746094 C 97.70445251464844 63.03242111206055 98.99987030029297 56.61544799804688 98.99987030029297 49.99993133544922 C 98.99987030029297 43.38454437255859 97.70445251464844 36.96757125854492 95.14961242675781 30.92724609375 C 92.68172454833984 25.09249114990234 89.14850616455078 19.85212707519531 84.64812469482422 15.35174560546875 C 80.14773559570312 10.85135650634766 74.90737915039062 7.318145751953125 69.07261657714844 4.850250244140625 C 63.03229522705078 2.29541015625 56.61532211303711 0.9999923706054688 49.99993515014648 0.9999923706054688 M 49.99993515014648 -7.62939453125e-06 C 77.6141357421875 -7.62939453125e-06 99.99987030029297 22.38572692871094 99.99987030029297 49.99993133544922 L 99.99987030029297 50.00006103515625 C 99.99987030029297 77.61426544189453 77.6141357421875 100 49.99993515014648 100 C 22.38573455810547 100 0 77.61426544189453 0 50.00006103515625 L 0 49.99993133544922 C 0 22.38572692871094 22.38573455810547 -7.62939453125e-06 49.99993515014648 -7.62939453125e-06 Z" stroke="none" fill="#fff"/>
                </g>
              </g>
              <g id="Rectángulo_400907" data-name="Rectángulo 400907" transform="translate(0)" fill="none" stroke="#fff" stroke-width="1">
                <rect width="100" height="100" rx="50" stroke="none"/>
                <rect x="0.5" y="0.5" width="99" height="99" rx="49.5" fill="none"/>
              </g>
            </g>
          </g>
        </g>
      </g>
    </g>
    <g id="executive_18722764" transform="translate(574.713 3610.366)">
      <path id="Trazado_917730" data-name="Trazado 917730" d="M36.782,65.182l14.41,10.674V69.985H95.529v5.871l14.41-10.674L95.529,54.508v5.871H84.349a6.2,6.2,0,0,1-6.191-6.191V50.066h5.871L73.355,35.656,62.681,50.066h5.871v4.122a6.2,6.2,0,0,1-6.191,6.191H51.192V54.508Z" transform="translate(-5.573 -5.54)" fill="#60b7fe" fill-rule="evenodd"/>
      <path id="Trazado_917731" data-name="Trazado 917731" d="M198.929,212.939l3.262-1.619h10.992l5.531,7.115-3.84,22.875-14.847-1.99Z" transform="translate(-139.906 -151.072)" fill="#ffbf31" fill-rule="evenodd"/>
      <path id="Trazado_917732" data-name="Trazado 917732" d="M231.566,237.53l-2.163-2.748,2.057-13.3,4.128-5.03h-7.837l3.92,5.025,2.058,13.3Z" transform="translate(-163.784 -155.327)" fill="#847784" fill-rule="evenodd"/>
      <circle id="Elipse_12142" data-name="Elipse 12142" cx="6.32" cy="6.32" r="6.32" transform="matrix(0.949, -0.316, 0.316, 0.949, 59.793, 49.985)" fill="#f0b16e"/>
      <path id="Trazado_917733" data-name="Trazado 917733" d="M129.588,240.6l-4.92,2.075s-.061-1.267-.184-3.8V225.68l-7.695,14.29h-5.5l8.5-23.172a8.226,8.226,0,0,1,7.843-5.476h1.95V240.6Z" transform="translate(-67.303 -151.073)" fill="#19cfba" fill-rule="evenodd"/>
      <path id="Trazado_917734" data-name="Trazado 917734" d="M282.03,240.6l4.92,2.075s.061-1.267.184-3.8V225.68l7.695,14.29h5.5l-8.5-23.172a8.226,8.226,0,0,0-7.843-5.476h-1.95V240.6Z" transform="translate(-208.752 -151.073)" fill="#19cfba" fill-rule="evenodd"/>
      <path id="Trazado_917735" data-name="Trazado 917735" d="M140.382,379.656h34.551a1.847,1.847,0,0,1,1.842,1.842v10.84a1.847,1.847,0,0,1-1.842,1.842H140.382a1.847,1.847,0,0,1-1.842-1.842V381.5a1.847,1.847,0,0,1,1.842-1.842Z" transform="translate(-89.876 -290.532)" fill="#847784" fill-rule="evenodd"/>
      <path id="Trazado_917736" data-name="Trazado 917736" d="M95.421,358.76h49.453a2.164,2.164,0,0,1,2.158,2.158V363.1a2.164,2.164,0,0,1-2.158,2.158H95.421a2.164,2.164,0,0,1-2.158-2.158v-2.181A2.164,2.164,0,0,1,95.421,358.76Z" transform="translate(-52.366 -273.22)" fill="#f0b16e" fill-rule="evenodd"/>
      <path id="Trazado_917737" data-name="Trazado 917737" d="M91.108,68.037V64.446A1.155,1.155,0,0,0,89.956,63.3H83.122a9.4,9.4,0,0,0-7.889-4.2H73.2a7.5,7.5,0,0,0,1.975-4.06,7.278,7.278,0,0,0,3.6.947H89.956a1.154,1.154,0,0,0,1.152-1.149V51.25l11.326,8.393ZM88.7,84.391,81.99,66.122A7.045,7.045,0,0,0,75.233,61.4h-.8V84.391h2.807V74.608a1.149,1.149,0,0,1,2.159-.545l5.556,10.328H88.7Zm-9.167,0V79.166l2.817,5.225Zm10.813,2.3H92.5A1.014,1.014,0,0,1,93.519,87.7V89.88A1.013,1.013,0,0,1,92.5,90.889H43.056a1,1,0,0,1-1.007-1.008V87.7a1,1,0,0,1,1.007-1.009H90.344Zm-4.6,15.117a.7.7,0,0,1-.687.692H50.509a.7.7,0,0,1-.7-.692V93.186H85.746ZM56.027,79.166v5.225H53.22ZM53.568,66.122l-6.7,18.27h3.737l5.566-10.328a1.15,1.15,0,0,1,2.159.545v9.783h2.807V61.4h-.8A7.069,7.069,0,0,0,53.568,66.122ZM45.621,63.3a1.149,1.149,0,0,0-1.152,1.149v3.591L33.143,59.643,44.469,51.25v3.589a1.148,1.148,0,0,0,1.152,1.149H56.782a7.315,7.315,0,0,0,3.611-.947,7.425,7.425,0,0,0,1.965,4.06H60.335a9.4,9.4,0,0,0-7.889,4.2Zm22.787-4.2H67.16a5.174,5.174,0,1,1,1.249,0Zm-1.849,6.791L64.488,79.281a1.118,1.118,0,0,0,.223.886l2.168,2.748a1.142,1.142,0,0,0,1.8,0l2.168-2.748a1.163,1.163,0,0,0,.232-.886L69.008,65.892l3.117-2.964V84.391H63.432V62.928Zm2.178,13.247-.958-6.149-.949,6.149.949,1.209Zm-.958-15.25L70.4,61.4H65.165ZM59.386,43.377l8.393-11.33,8.393,11.33H72.581a1.147,1.147,0,0,0-1.142,1.149v2.932a7.44,7.44,0,0,0-7.309,0V44.526a1.149,1.149,0,0,0-1.152-1.149Zm45.662,15.343-14.4-10.674a1.158,1.158,0,0,0-1.839.924V53.69H78.776a5,5,0,0,1-3.8-1.744,7.454,7.454,0,0,0-1.152-2.364,35.883,35.883,0,0,1-.087-3.908h4.724a1.149,1.149,0,0,0,.92-1.832L68.708,29.434a1.151,1.151,0,0,0-1.849,0L56.182,43.843a1.153,1.153,0,0,0,.929,1.832h4.714a35.887,35.887,0,0,1-.087,3.908A7.426,7.426,0,0,0,60.6,51.947a5.035,5.035,0,0,1-3.814,1.744H46.773V48.969a1.157,1.157,0,0,0-1.839-.924L30.529,58.72a1.135,1.135,0,0,0,0,1.846l14.4,10.674a1.156,1.156,0,0,0,1.839-.922V65.595h4.54l-6.892,18.8H43.056A3.317,3.317,0,0,0,39.745,87.7v2.182a3.315,3.315,0,0,0,3.311,3.306h4.463v8.622a2.991,2.991,0,0,0,2.991,2.99H85.058a3,3,0,0,0,2.991-2.99V93.186H92.5a3.309,3.309,0,0,0,3.311-3.306V87.7A3.311,3.311,0,0,0,92.5,84.391H91.147l-6.9-18.8H88.8v4.723a1.154,1.154,0,0,0,1.839.922l14.4-10.674a1.15,1.15,0,0,0,0-1.846Z" fill="#101316" fill-rule="evenodd"/>
    </g>
  </g>
</svg>
