<svg xmlns="http://www.w3.org/2000/svg" xmlns:xlink="http://www.w3.org/1999/xlink" width="118" height="118" viewBox="0 0 118 118">
  <defs>
    <filter id="Trazado_896985" x="0" y="0" width="118" height="118" filterUnits="userSpaceOnUse">
      <feOffset dy="3" input="SourceAlpha"/>
      <feGaussianBlur stdDeviation="3" result="blur"/>
      <feFlood flood-opacity="0.161"/>
      <feComposite operator="in" in2="blur"/>
      <feComposite in="SourceGraphic"/>
    </filter>
  </defs>
  <g id="Grupo_1198701" data-name="Grupo 1198701" transform="translate(-899.051 -3623)">
    <g id="Grupo_1198654" data-name="Grupo 1198654">
      <g id="Grupo_1198136" data-name="Grupo 1198136" transform="translate(0 -705.475)">
        <g id="Grupo_1181848" data-name="Grupo 1181848" transform="translate(908.051 4334.475)">
          <g id="Grupo_1111318" data-name="Grupo 1111318" transform="translate(0)">
            <g id="Grupo_1109826" data-name="Grupo 1109826" transform="translate(0 0)">
              <g id="Grupo_1098742" data-name="Grupo 1098742">
                <g transform="matrix(1, 0, 0, 1, -9, -6)" filter="url(#Trazado_896985)">
                  <g id="Trazado_896985-2" data-name="Trazado 896985" transform="translate(9 6)" fill="#9ad354" opacity="0.859">
                    <path d="M 49.99993515014648 99.5 C 43.31726837158203 99.5 36.83476257324219 98.19129943847656 30.73248100280762 95.61025238037109 C 24.83812141418457 93.11714172363281 19.54434776306152 89.54795837402344 14.99820137023926 85.00179290771484 C 10.45204162597656 80.45565032958984 6.88285493850708 75.16187286376953 4.389748573303223 69.26751708984375 C 1.808695197105408 63.16523742675781 0.5000017881393433 56.6827278137207 0.5000017881393433 50.00006103515625 C 0.5000017881393433 43.31726455688477 1.808695197105408 36.83475494384766 4.389748573303223 30.73247528076172 C 6.88285493850708 24.83811569213867 10.45204162597656 19.54434204101562 14.99820137023926 14.99819660186768 C 19.54434776306152 10.45203590393066 24.83812141418457 6.88284969329834 30.73248100280762 4.389742851257324 C 36.83476257324219 1.808689475059509 43.31726837158203 0.4999961853027344 49.99993515014648 0.4999961853027344 C 56.68260192871094 0.4999961853027344 63.16510772705078 1.808689475059509 69.26738739013672 4.389742851257324 C 75.16175079345703 6.88284969329834 80.45552062988281 10.45203590393066 85.00167083740234 14.99819660186768 C 89.54782867431641 19.54434204101562 93.11701202392578 24.83811569213867 95.61012268066406 30.73247528076172 C 98.19117736816406 36.83475494384766 99.49987030029297 43.31726455688477 99.49987030029297 49.99993133544922 C 99.49987030029297 56.6827278137207 98.19117736816406 63.16523742675781 95.61012268066406 69.26751708984375 C 93.11701202392578 75.16187286376953 89.54782867431641 80.45565032958984 85.00167083740234 85.00179290771484 C 80.45552062988281 89.54795837402344 75.16175079345703 93.11714172363281 69.26738739013672 95.61025238037109 C 63.16510772705078 98.19129943847656 56.68260192871094 99.5 49.99993515014648 99.5 Z" stroke="none"/>
                    <path d="M 49.99993515014648 0.9999923706054688 C 43.38454818725586 0.9999923706054688 36.96757507324219 2.29541015625 30.92725372314453 4.850250244140625 C 25.09249877929688 7.318145751953125 19.85213470458984 10.85135650634766 15.35174560546875 15.35174560546875 C 10.85136413574219 19.85212707519531 7.318145751953125 25.09249114990234 4.850257873535156 30.92724609375 C 2.295417785644531 36.96757125854492 1 43.38454437255859 1 50.00006103515625 C 1 56.61544799804688 2.295417785644531 63.03242111206055 4.850257873535156 69.07273864746094 C 7.318145751953125 74.90750122070312 10.85136413574219 80.14786529541016 15.35174560546875 84.64824676513672 C 19.85213470458984 89.14863586425781 25.09249877929688 92.68184661865234 30.92725372314453 95.14974212646484 C 36.96757507324219 97.70458221435547 43.38454818725586 99 49.99993515014648 99 C 56.61532211303711 99 63.03229522705078 97.70458221435547 69.07261657714844 95.14974212646484 C 74.90737915039062 92.68184661865234 80.14773559570312 89.14863586425781 84.64812469482422 84.64824676513672 C 89.14850616455078 80.14786529541016 92.68172454833984 74.90750122070312 95.14961242675781 69.07273864746094 C 97.70445251464844 63.03242111206055 98.99987030029297 56.61544799804688 98.99987030029297 49.99993133544922 C 98.99987030029297 43.38454437255859 97.70445251464844 36.96757125854492 95.14961242675781 30.92724609375 C 92.68172454833984 25.09249114990234 89.14850616455078 19.85212707519531 84.64812469482422 15.35174560546875 C 80.14773559570312 10.85135650634766 74.90737915039062 7.318145751953125 69.07261657714844 4.850250244140625 C 63.03229522705078 2.29541015625 56.61532211303711 0.9999923706054688 49.99993515014648 0.9999923706054688 M 49.99993515014648 -7.62939453125e-06 C 77.6141357421875 -7.62939453125e-06 99.99987030029297 22.38572692871094 99.99987030029297 49.99993133544922 L 99.99987030029297 50.00006103515625 C 99.99987030029297 77.61426544189453 77.6141357421875 100 49.99993515014648 100 C 22.38573455810547 100 0 77.61426544189453 0 50.00006103515625 L 0 49.99993133544922 C 0 22.38572692871094 22.38573455810547 -7.62939453125e-06 49.99993515014648 -7.62939453125e-06 Z" stroke="none" fill="#fff"/>
                  </g>
                </g>
                <g id="Rectángulo_400907" data-name="Rectángulo 400907" transform="translate(0)" fill="none" stroke="#fff" stroke-width="1">
                  <rect width="100" height="100" rx="50" stroke="none"/>
                  <rect x="0.5" y="0.5" width="99" height="99" rx="49.5" fill="none"/>
                </g>
              </g>
            </g>
          </g>
        </g>
      </g>
    </g>
    <g id="conference_7017978" transform="translate(925.375 3644.324)">
      <g id="Grupo_1198699" data-name="Grupo 1198699" transform="translate(1.054 1.054)">
        <g id="Grupo_1198673" data-name="Grupo 1198673" transform="translate(46.379 18.973)">
          <path id="Trazado_917822" data-name="Trazado 917822" d="M372.649,160.433v2.108a2.109,2.109,0,0,0-2.108-2.108h-3.162a3.161,3.161,0,0,1-3.162-3.162v3.162h-2.108A2.105,2.105,0,0,0,360,162.541v-4.216A6.324,6.324,0,0,1,366.324,152h4.216a6.326,6.326,0,0,1,6.324,6.324v4.216a2.105,2.105,0,0,0-2.108-2.108Z" transform="translate(-360 -152)" fill="#656d78"/>
        </g>
        <g id="Grupo_1198674" data-name="Grupo 1198674" transform="translate(54.812 12.649)">
          <path id="Trazado_917823" data-name="Trazado 917823" d="M432.433,108.216a4.216,4.216,0,0,1-2.154,3.679,6.288,6.288,0,0,0-4.17-1.571h-1.544a4.217,4.217,0,1,1,7.869-2.108Z" transform="translate(-424 -104)" fill="#656d78"/>
        </g>
        <g id="Grupo_1198675" data-name="Grupo 1198675" transform="translate(54.262 38.306)">
          <path id="Trazado_917824" data-name="Trazado 917824" d="M423.105,307.857a10.122,10.122,0,0,0-3.275-.978l.012-.111a4.268,4.268,0,0,0,.538.034,4.215,4.215,0,0,0,4.216-4.216V298.73a6.332,6.332,0,0,1,4.216,5.965v3.162Z" transform="translate(-419.83 -298.73)" fill="#fcd770"/>
        </g>
        <g id="Grupo_1198676" data-name="Grupo 1198676" transform="translate(46.379 38.306)">
          <path id="Trazado_917825" data-name="Trazado 917825" d="M367.9,306.769l-.012.111a10.308,10.308,0,0,0-1.252-.076H360v-2.108a6.332,6.332,0,0,1,4.216-5.965v3.857A4.217,4.217,0,0,0,367.9,306.769Z" transform="translate(-360 -298.73)" fill="#fcd770"/>
        </g>
        <g id="Grupo_1198677" data-name="Grupo 1198677" transform="translate(50.595 42.163)">
          <path id="Trazado_917826" data-name="Trazado 917826" d="M392,328h8.433a4.215,4.215,0,0,1-4.216,4.216,4.267,4.267,0,0,1-.538-.034A4.217,4.217,0,0,1,392,328Z" transform="translate(-392 -328)" fill="#e6e9ed"/>
        </g>
        <g id="Grupo_1198678" data-name="Grupo 1198678" transform="translate(0 37.947)">
          <path id="Trazado_917827" data-name="Trazado 917827" d="M16.433,298.108v6.483a10.1,10.1,0,0,0-2.726.9H8v-3.162A6.325,6.325,0,0,1,14.324,296Z" transform="translate(-8 -296)" fill="#ef7385"/>
        </g>
        <g id="Grupo_1198679" data-name="Grupo 1198679" transform="translate(8.433 37.947)">
          <path id="Trazado_917828" data-name="Trazado 917828" d="M80.433,302.324v2.108H73.8a10.28,10.28,0,0,0-1.8.158v-6.483L74.108,296a6.325,6.325,0,0,1,6.324,6.324Z" transform="translate(-72 -296)" fill="#ef7385"/>
        </g>
        <g id="Grupo_1198680" data-name="Grupo 1198680" transform="translate(0 18.973)">
          <path id="Trazado_917829" data-name="Trazado 917829" d="M24.865,153.054v2.524a4.856,4.856,0,0,1-4.216,4.812,4.942,4.942,0,0,1-.643.042h-.076a4.592,4.592,0,0,1-2.546-.771l-1.394-.93a2.429,2.429,0,0,0-3.752,1.7H10.108A2.105,2.105,0,0,0,8,162.541v-4.216A6.324,6.324,0,0,1,14.324,152h9.487A1.054,1.054,0,0,1,24.865,153.054Z" transform="translate(-8 -152)" fill="#656d78"/>
        </g>
        <g id="Grupo_1198681" data-name="Grupo 1198681" transform="translate(23.19)">
          <path id="Trazado_917830" data-name="Trazado 917830" d="M197.7,16.433H186.108A2.108,2.108,0,0,0,184,18.541V14.324a4.217,4.217,0,0,1,4.216-4.216A3.811,3.811,0,0,1,191.628,8h2.913a6.324,6.324,0,0,1,6.324,6.324v4.216a2.105,2.105,0,0,0-2.108-2.108Z" transform="translate(-184 -8)" fill="#b27946"/>
        </g>
        <g id="Grupo_1198682" data-name="Grupo 1198682" transform="translate(21.081 18.973)">
          <path id="Trazado_917831" data-name="Trazado 917831" d="M184.865,166.757v2.108h-4.216v-9.487a1.054,1.054,0,0,0-1.054-1.054h-4.216a1.054,1.054,0,0,0-1.054,1.054v3.162a2.105,2.105,0,0,0-2.108,2.108v2.108a2.108,2.108,0,0,0,2.108,2.108h-2.108A4.217,4.217,0,0,1,168,164.649V157.4a4.215,4.215,0,0,1,3.194-4.09l5.239-1.31a2.108,2.108,0,1,0,4.216,0l5.239,1.31a4.215,4.215,0,0,1,3.194,4.09v9.358Z" transform="translate(-168 -152)" fill="#e6e9ed"/>
        </g>
        <g id="Grupo_1198683" data-name="Grupo 1198683" transform="translate(25.298 35.838)">
          <path id="Trazado_917832" data-name="Trazado 917832" d="M206.324,290.541H200V280h12.649v10.541Z" transform="translate(-200 -280)" fill="#4fc1e9"/>
        </g>
        <g id="Grupo_1198684" data-name="Grupo 1198684" transform="translate(27.406 25.298)">
          <path id="Trazado_917833" data-name="Trazado 917833" d="M222.324,201.054v9.487H216a2.108,2.108,0,0,0,2.108-2.108v-2.108A2.108,2.108,0,0,0,216,204.216v-3.162A1.054,1.054,0,0,1,217.054,200h4.216A1.054,1.054,0,0,1,222.324,201.054Z" transform="translate(-216 -200)" fill="#969faa"/>
        </g>
        <g id="Grupo_1198685" data-name="Grupo 1198685" transform="translate(59.028 27.406)">
          <path id="Trazado_917834" data-name="Trazado 917834" d="M459.6,216.617a2.109,2.109,0,0,1-1.492,3.6H456V216h2.108A2.106,2.106,0,0,1,459.6,216.617Z" transform="translate(-456 -216)" fill="#f0d0b4"/>
        </g>
        <g id="Grupo_1198686" data-name="Grupo 1198686" transform="translate(46.379 27.406)">
          <path id="Trazado_917835" data-name="Trazado 917835" d="M364.216,216v4.216h-2.108a2.108,2.108,0,1,1,0-4.216Z" transform="translate(-360 -216)" fill="#f0d0b4"/>
        </g>
        <g id="Grupo_1198687" data-name="Grupo 1198687" transform="translate(50.595 24.244)">
          <path id="Trazado_917836" data-name="Trazado 917836" d="M400.433,206.063v3.857H392v-3.857a6.307,6.307,0,0,1,2.108-.36v-2.108A3.813,3.813,0,0,1,392,200.184V192a3.161,3.161,0,0,0,3.162,3.162h3.162a2.109,2.109,0,0,1,2.108,2.108v2.913a3.813,3.813,0,0,1-2.108,3.411V205.7A6.307,6.307,0,0,1,400.433,206.063Z" transform="translate(-392 -192)" fill="#f0d0b4"/>
        </g>
        <g id="Grupo_1198688" data-name="Grupo 1198688" transform="translate(37.947 33.73)">
          <path id="Trazado_917837" data-name="Trazado 917837" d="M300.216,264v1.054a3.163,3.163,0,0,1-3.162,3.162H296V264Z" transform="translate(-296 -264)" fill="#f0d0b4"/>
        </g>
        <g id="Grupo_1198689" data-name="Grupo 1198689" transform="translate(35.838 8.433)">
          <path id="Trazado_917838" data-name="Trazado 917838" d="M283.6,72.617a2.109,2.109,0,0,1-1.492,3.6H280V72h2.108A2.106,2.106,0,0,1,283.6,72.617Z" transform="translate(-280 -72)" fill="#f0d0b4"/>
        </g>
        <g id="Grupo_1198690" data-name="Grupo 1198690" transform="translate(27.406 8.433)">
          <path id="Trazado_917839" data-name="Trazado 917839" d="M224.433,76.216v.805a3.811,3.811,0,0,1-2.108,3.411v2.108a2.108,2.108,0,1,1-4.216,0V80.433A3.813,3.813,0,0,1,216,77.021V72h8.433Z" transform="translate(-216 -72)" fill="#f0d0b4"/>
        </g>
        <g id="Grupo_1198691" data-name="Grupo 1198691" transform="translate(23.19 8.433)">
          <path id="Trazado_917840" data-name="Trazado 917840" d="M188.216,72v4.216h-2.108a2.108,2.108,0,0,1,0-4.216Z" transform="translate(-184 -72)" fill="#f0d0b4"/>
        </g>
        <g id="Grupo_1198692" data-name="Grupo 1198692" transform="translate(25.298 29.514)">
          <path id="Trazado_917841" data-name="Trazado 917841" d="M204.216,234.108v2.108a2.108,2.108,0,1,1-4.216,0v-2.108a2.108,2.108,0,1,1,4.216,0Z" transform="translate(-200 -232)" fill="#f0d0b4"/>
        </g>
        <g id="Grupo_1198693" data-name="Grupo 1198693" transform="translate(12.649 27.406)">
          <path id="Trazado_917842" data-name="Trazado 917842" d="M107.6,216.617a2.109,2.109,0,0,1-1.492,3.6H104V216h2.108A2.106,2.106,0,0,1,107.6,216.617Z" transform="translate(-104 -216)" fill="#f0d0b4"/>
        </g>
        <g id="Grupo_1198694" data-name="Grupo 1198694" transform="translate(4.216 25.298)">
          <path id="Trazado_917843" data-name="Trazado 917843" d="M48.433,202.108v5.021a3.813,3.813,0,0,1-2.108,3.411v2.108l-2.108,2.108-2.108-2.108v-2.108A3.813,3.813,0,0,1,40,207.129v-4.7a2.333,2.333,0,0,1,.021-.32,2.428,2.428,0,0,1,3.752-1.7l1.394.93a4.592,4.592,0,0,0,2.546.771h.076a4.942,4.942,0,0,0,.643-.042Z" transform="translate(-40 -200)" fill="#f0d0b4"/>
        </g>
        <g id="Grupo_1198695" data-name="Grupo 1198695" transform="translate(0 27.406)">
          <path id="Trazado_917844" data-name="Trazado 917844" d="M10.108,216h2.129a2.333,2.333,0,0,0-.021.32v3.9H10.108a2.108,2.108,0,1,1,0-4.216Z" transform="translate(-8 -216)" fill="#f0d0b4"/>
        </g>
        <g id="Grupo_1198696" data-name="Grupo 1198696" transform="translate(0 46.379)">
          <path id="Trazado_917845" data-name="Trazado 917845" d="M71.244,370.234a10.241,10.241,0,0,1-1.08,4.576l-1.028,2.055H10.108L9.08,374.81a10.235,10.235,0,0,1,4.626-13.756,10.1,10.1,0,0,1,2.726-.9,10.277,10.277,0,0,1,1.8-.158H61.011a10.308,10.308,0,0,1,1.252.076,10.122,10.122,0,0,1,3.276.978,10.244,10.244,0,0,1,5.706,9.18Z" transform="translate(-8 -360)" fill="#d3a06c"/>
        </g>
        <g id="Grupo_1198697" data-name="Grupo 1198697" transform="translate(48.487 50.595)">
          <path id="Trazado_917846" data-name="Trazado 917846" d="M382.324,393.054v6.324a1.054,1.054,0,0,1-1.054,1.054h-4.216A1.054,1.054,0,0,1,376,399.379v-6.324A1.054,1.054,0,0,1,377.054,392h4.216A1.054,1.054,0,0,1,382.324,393.054Z" transform="translate(-376 -392)" fill="#e6e9ed"/>
        </g>
        <g id="Grupo_1198698" data-name="Grupo 1198698" transform="translate(8.433 50.595)">
          <path id="Trazado_917847" data-name="Trazado 917847" d="M78.324,393.054v6.324a1.054,1.054,0,0,1-1.054,1.054H73.054A1.054,1.054,0,0,1,72,399.379v-6.324A1.054,1.054,0,0,1,73.054,392H77.27A1.054,1.054,0,0,1,78.324,393.054Z" transform="translate(-72 -392)" fill="#e6e9ed"/>
        </g>
      </g>
      <g id="Grupo_1198700" data-name="Grupo 1198700" transform="translate(0 0)">
        <path id="Trazado_917848" data-name="Trazado 917848" d="M65.352,17.919a5.27,5.27,0,1,0-10.434,1.054H53.758a7.387,7.387,0,0,0-7.378,7.378v4.216a3.166,3.166,0,0,0,3.162,3.162H50.6a4.832,4.832,0,0,0,2.1,3.762v.529a7.39,7.39,0,0,0-6.324,7.3v1.054H40.055V40.055a4.221,4.221,0,0,0,4.216-4.216V25.427a5.263,5.263,0,0,0-3.992-5.113L35.838,19.2v-.685a4.832,4.832,0,0,0,2.1-3.762H39a3.166,3.166,0,0,0,3.162-3.162V7.378A7.387,7.387,0,0,0,34.784,0H31.871a4.837,4.837,0,0,0-4.036,2.145A5.278,5.278,0,0,0,23.19,7.378v4.216a3.166,3.166,0,0,0,3.162,3.162h1.062a4.832,4.832,0,0,0,2.1,3.762V19.2l-4.44,1.11a5.263,5.263,0,0,0-3.992,5.113v7.249A5.279,5.279,0,0,0,25.3,37.84v8.539H18.973V45.325a7.39,7.39,0,0,0-6.324-7.3v-.529a4.832,4.832,0,0,0,2.1-3.762h1.062a3.161,3.161,0,0,0,1.449-5.971,5.887,5.887,0,0,0,1.713-4.154V21.081a2.111,2.111,0,0,0-2.108-2.108H7.378A7.387,7.387,0,0,0,0,26.352v4.216A3.166,3.166,0,0,0,3.162,33.73H4.224a4.832,4.832,0,0,0,2.1,3.762v.529A7.39,7.39,0,0,0,0,45.325v3.162H2.108V45.325A5.276,5.276,0,0,1,6.96,40.073l1.473,1.472v5.2A11.288,11.288,0,0,0,1.192,62.714l1.319,2.638H62.842l1.319-2.638A11.286,11.286,0,0,0,58.946,47.49a5.266,5.266,0,0,0,2.19-4.273V41.112a5.265,5.265,0,0,1,2.108,4.213v3.162h2.108V45.325a7.39,7.39,0,0,0-6.324-7.3v-.529a4.832,4.832,0,0,0,2.1-3.762H62.19a3.166,3.166,0,0,0,3.162-3.162V26.352a7.341,7.341,0,0,0-1.633-4.622,5.278,5.278,0,0,0,1.633-3.811Zm-8.433,0a3.162,3.162,0,1,1,5.253,2.371,7.336,7.336,0,0,0-4.2-1.317H57.1A3.171,3.171,0,0,1,56.92,17.919Zm-3.162,3.162h4.216a5.276,5.276,0,0,1,5.27,5.27v1.235a3.148,3.148,0,0,0-1.054-.181H61.128a4.837,4.837,0,0,0-2.682-4.1L57.5,25.186a2.743,2.743,0,0,1,1.523,2.4,3.146,3.146,0,0,0-1.051-.181H54.812A2.111,2.111,0,0,1,52.7,25.3H50.6v2.108H49.541a3.148,3.148,0,0,0-1.054.181V26.352a5.276,5.276,0,0,1,5.27-5.27Zm-5.27,9.487a1.055,1.055,0,0,1,1.054-1.054H50.6v2.108H49.541A1.055,1.055,0,0,1,48.487,30.568Zm0,14.757A5.265,5.265,0,0,1,50.6,41.112v2.105a5.242,5.242,0,0,0,1.057,3.162H48.487Zm4.4-1.054h5.962a3.162,3.162,0,0,1-5.962,0Zm-12.83-6.324V35.838h2.108A2.111,2.111,0,0,1,40.055,37.947Zm-5.742-20.97-.583.291v2.76a1.054,1.054,0,0,1-2.108,0v-2.76l-.583-.291a2.745,2.745,0,0,1-1.526-2.468V10.541h6.324v3.967A2.745,2.745,0,0,1,34.313,16.976ZM39,12.649H37.947V10.541H39a1.054,1.054,0,0,1,0,2.108ZM28.46,4.216h.651l.291-.583a2.745,2.745,0,0,1,2.468-1.526h2.913a5.276,5.276,0,0,1,5.27,5.27V8.614A3.148,3.148,0,0,0,39,8.433H37.947a2.111,2.111,0,0,1-2.108-2.108H33.73A4.189,4.189,0,0,0,34.3,8.433H33.73a2.111,2.111,0,0,1-2.108-2.108H29.514a4.189,4.189,0,0,0,.567,2.108H26.352a3.148,3.148,0,0,0-1.054.181V7.378A3.166,3.166,0,0,1,28.46,4.216ZM25.3,11.595a1.055,1.055,0,0,1,1.054-1.054h1.054v2.108H26.352A1.055,1.055,0,0,1,25.3,11.595ZM23.19,32.676V25.427a3.158,3.158,0,0,1,2.4-3.068l4.2-1.05a3.161,3.161,0,0,0,5.779,0l4.2,1.05a3.158,3.158,0,0,1,2.4,3.068v8.3H40.055V27.406H37.947v8.433H35.839V27.406A2.111,2.111,0,0,0,33.73,25.3H29.514a2.111,2.111,0,0,0-2.108,2.108V29.7A3.167,3.167,0,0,0,25.3,32.676v2.108a3.153,3.153,0,0,0,.136.918,3.168,3.168,0,0,1-2.245-3.026Zm4.216,2.108V32.676a1.054,1.054,0,0,1,2.108,0v2.108a1.054,1.054,0,1,1-2.108,0ZM29.514,29.7V27.406H33.73v8.433H31.441a3.147,3.147,0,0,0,.181-1.054V32.676A3.167,3.167,0,0,0,29.514,29.7Zm-2.108,8.251H37.947v8.433H33.73V44.09a3.167,3.167,0,0,0,2.108-2.981V40.055H33.73v1.054a1.054,1.054,0,0,1-2.108,0V40.055H29.514v1.054a3.167,3.167,0,0,0,2.108,2.981v2.289H27.406ZM15.811,31.622H14.757V29.514h1.054a1.054,1.054,0,1,1,0,2.108Zm-13.7-1.054a1.055,1.055,0,0,1,1.054-1.054H4.216v2.108H3.162A1.055,1.055,0,0,1,2.108,30.568ZM4.5,27.406H3.162a3.148,3.148,0,0,0-1.054.181V26.352a5.276,5.276,0,0,1,5.27-5.27h9.487v2.524a3.807,3.807,0,0,1-3.806,3.8h-.076a3.525,3.525,0,0,1-1.961-.594l-1.394-.93A3.466,3.466,0,0,0,7.7,25.3h0a3.488,3.488,0,0,0-3.2,2.108ZM6.324,28.78A1.376,1.376,0,0,1,7.7,27.406h0a1.365,1.365,0,0,1,.76.23l1.394.93a5.623,5.623,0,0,0,2.8.937v3.978a2.745,2.745,0,0,1-1.526,2.468l-.583.291v2.323L9.487,39.618,8.433,38.564V36.241L7.85,35.95a2.745,2.745,0,0,1-1.526-2.468Zm4.216,12.765,1.473-1.473a5.276,5.276,0,0,1,4.852,5.252v1.054H11.287c-.251,0-.5.011-.747.027Zm52.7,16.121a9.227,9.227,0,0,1-.969,4.105l-.737,1.473H3.814l-.737-1.473a9.179,9.179,0,0,1,8.21-13.284H54.065a9.189,9.189,0,0,1,9.179,9.179ZM59.028,33.481A2.745,2.745,0,0,1,57.5,35.95l-.583.291v3.814h1.054a5.274,5.274,0,0,1,1.054.106v2H52.7v-2a5.274,5.274,0,0,1,1.054-.106h1.054V36.241l-.583-.291A2.745,2.745,0,0,1,52.7,33.481V28.947a4.19,4.19,0,0,0,2.108.567h3.162a1.055,1.055,0,0,1,1.054,1.054Zm3.162-1.859H61.136V29.514H62.19a1.054,1.054,0,1,1,0,2.108Z" transform="translate(0 0)"/>
        <path id="Trazado_917849" data-name="Trazado 917849" d="M70.324,384H66.108A2.111,2.111,0,0,0,64,386.108v6.324a2.111,2.111,0,0,0,2.108,2.108h4.216a2.111,2.111,0,0,0,2.108-2.108v-6.324A2.111,2.111,0,0,0,70.324,384Zm0,8.433H66.108v-6.324h4.216v6.324Z" transform="translate(-55.567 -333.405)"/>
        <path id="Trazado_917850" data-name="Trazado 917850" d="M368,386.108v6.324a2.111,2.111,0,0,0,2.108,2.108h4.216a2.111,2.111,0,0,0,2.108-2.108v-6.324A2.111,2.111,0,0,0,374.324,384h-4.216A2.111,2.111,0,0,0,368,386.108Zm6.326,6.324h-4.218v-6.324h4.216Z" transform="translate(-319.513 -333.405)"/>
      </g>
    </g>
  </g>
</svg>
