<svg xmlns="http://www.w3.org/2000/svg" xmlns:xlink="http://www.w3.org/1999/xlink" width="118" height="118" viewBox="0 0 118 118">
  <defs>
    <filter id="Trazado_896985" x="0" y="0" width="118" height="118" filterUnits="userSpaceOnUse">
      <feOffset dy="3" input="SourceAlpha"/>
      <feGaussianBlur stdDeviation="3" result="blur"/>
      <feFlood flood-opacity="0.161"/>
      <feComposite operator="in" in2="blur"/>
      <feComposite in="SourceGraphic"/>
    </filter>
  </defs>
  <g id="Grupo_1198137" data-name="Grupo 1198137" transform="translate(-1213.109 -4328.475)">
    <g id="Grupo_1181849" data-name="Grupo 1181849" transform="translate(1222.109 4334.475)">
      <g id="Grupo_1111318" data-name="Grupo 1111318" transform="translate(0)">
        <g id="Grupo_1109826" data-name="Grupo 1109826" transform="translate(0 0)">
          <g id="Grupo_1098742" data-name="Grupo 1098742">
            <g transform="matrix(1, 0, 0, 1, -9, -6)" filter="url(#Trazado_896985)">
              <g id="Trazado_896985-2" data-name="Trazado 896985" transform="translate(9 6)" fill="#9ad354" opacity="0.859">
                <path d="M 49.99993515014648 99.5 C 43.31726837158203 99.5 36.83476257324219 98.19129943847656 30.73248100280762 95.61025238037109 C 24.83812141418457 93.11714172363281 19.54434776306152 89.54795837402344 14.99820137023926 85.00179290771484 C 10.45204162597656 80.45565032958984 6.88285493850708 75.16187286376953 4.389748573303223 69.26751708984375 C 1.808695197105408 63.16523742675781 0.5000017881393433 56.6827278137207 0.5000017881393433 50.00006103515625 C 0.5000017881393433 43.31726455688477 1.808695197105408 36.83475494384766 4.389748573303223 30.73247528076172 C 6.88285493850708 24.83811569213867 10.45204162597656 19.54434204101562 14.99820137023926 14.99819660186768 C 19.54434776306152 10.45203590393066 24.83812141418457 6.88284969329834 30.73248100280762 4.389742851257324 C 36.83476257324219 1.808689475059509 43.31726837158203 0.4999961853027344 49.99993515014648 0.4999961853027344 C 56.68260192871094 0.4999961853027344 63.16510772705078 1.808689475059509 69.26738739013672 4.389742851257324 C 75.16175079345703 6.88284969329834 80.45552062988281 10.45203590393066 85.00167083740234 14.99819660186768 C 89.54782867431641 19.54434204101562 93.11701202392578 24.83811569213867 95.61012268066406 30.73247528076172 C 98.19117736816406 36.83475494384766 99.49987030029297 43.31726455688477 99.49987030029297 49.99993133544922 C 99.49987030029297 56.6827278137207 98.19117736816406 63.16523742675781 95.61012268066406 69.26751708984375 C 93.11701202392578 75.16187286376953 89.54782867431641 80.45565032958984 85.00167083740234 85.00179290771484 C 80.45552062988281 89.54795837402344 75.16175079345703 93.11714172363281 69.26738739013672 95.61025238037109 C 63.16510772705078 98.19129943847656 56.68260192871094 99.5 49.99993515014648 99.5 Z" stroke="none"/>
                <path d="M 49.99993515014648 0.9999923706054688 C 43.38454818725586 0.9999923706054688 36.96757507324219 2.29541015625 30.92725372314453 4.850250244140625 C 25.09249877929688 7.318145751953125 19.85213470458984 10.85135650634766 15.35174560546875 15.35174560546875 C 10.85136413574219 19.85212707519531 7.318145751953125 25.09249114990234 4.850257873535156 30.92724609375 C 2.295417785644531 36.96757125854492 1 43.38454437255859 1 50.00006103515625 C 1 56.61544799804688 2.295417785644531 63.03242111206055 4.850257873535156 69.07273864746094 C 7.318145751953125 74.90750122070312 10.85136413574219 80.14786529541016 15.35174560546875 84.64824676513672 C 19.85213470458984 89.14863586425781 25.09249877929688 92.68184661865234 30.92725372314453 95.14974212646484 C 36.96757507324219 97.70458221435547 43.38454818725586 99 49.99993515014648 99 C 56.61532211303711 99 63.03229522705078 97.70458221435547 69.07261657714844 95.14974212646484 C 74.90737915039062 92.68184661865234 80.14773559570312 89.14863586425781 84.64812469482422 84.64824676513672 C 89.14850616455078 80.14786529541016 92.68172454833984 74.90750122070312 95.14961242675781 69.07273864746094 C 97.70445251464844 63.03242111206055 98.99987030029297 56.61544799804688 98.99987030029297 49.99993133544922 C 98.99987030029297 43.38454437255859 97.70445251464844 36.96757125854492 95.14961242675781 30.92724609375 C 92.68172454833984 25.09249114990234 89.14850616455078 19.85212707519531 84.64812469482422 15.35174560546875 C 80.14773559570312 10.85135650634766 74.90737915039062 7.318145751953125 69.07261657714844 4.850250244140625 C 63.03229522705078 2.29541015625 56.61532211303711 0.9999923706054688 49.99993515014648 0.9999923706054688 M 49.99993515014648 -7.62939453125e-06 C 77.6141357421875 -7.62939453125e-06 99.99987030029297 22.38572692871094 99.99987030029297 49.99993133544922 L 99.99987030029297 50.00006103515625 C 99.99987030029297 77.61426544189453 77.6141357421875 100 49.99993515014648 100 C 22.38573455810547 100 0 77.61426544189453 0 50.00006103515625 L 0 49.99993133544922 C 0 22.38572692871094 22.38573455810547 -7.62939453125e-06 49.99993515014648 -7.62939453125e-06 Z" stroke="none" fill="#fff"/>
              </g>
            </g>
            <g id="Rectángulo_400907" data-name="Rectángulo 400907" transform="translate(0)" fill="none" stroke="#fff" stroke-width="1">
              <rect width="100" height="100" rx="50" stroke="none"/>
              <rect x="0.5" y="0.5" width="99" height="99" rx="49.5" fill="none"/>
            </g>
          </g>
        </g>
      </g>
    </g>
    <g id="communication_8235261" transform="translate(1234.517 4347.882)">
      <g id="Grupo_1198663" data-name="Grupo 1198663" transform="translate(7.5 7.5)">
        <path id="Trazado_917767" data-name="Trazado 917767" d="M187.283,355.659v10.917l-4.938,1.843h-14.18l-2.8-1.843V355.1a5.087,5.087,0,0,1,4.345-5.032l1.451-.213a2.53,2.53,0,0,0,.643-.184l1.456.491a5.283,5.283,0,0,0,6.125,0l1.456-.491a2.569,2.569,0,0,0,.648.185l1.3.461a5.08,5.08,0,0,1,2.785,1.366A5.959,5.959,0,0,1,187.283,355.659Z" transform="translate(-146.253 -308.235)" fill="#bbec6c"/>
        <path id="Trazado_917768" data-name="Trazado 917768" d="M304.3,365.094l-2.759,4.669h-2.18V360.09a7.368,7.368,0,0,1,1.948-4.953.5.5,0,0,0,.135-.311c.094-1.657-1.336-2.967-2.936-3.625a6.687,6.687,0,0,1,4.23,1.578,5.091,5.091,0,0,1,1.557,3.466Z" transform="translate(-263.271 -309.58)" fill="#a0e254"/>
        <path id="Trazado_917769" data-name="Trazado 917769" d="M227.576,320.859l-1.456,1.034a5.283,5.283,0,0,1-6.125,0l-1.456-1.034a2.471,2.471,0,0,0,.539-.322,2.508,2.508,0,0,0,.751-.953l1.211-2.694h4.034l1.212,2.694a2.508,2.508,0,0,0,.751.953A2.471,2.471,0,0,0,227.576,320.859Z" transform="translate(-192.984 -279.424)" fill="#ba7052"/>
        <path id="Trazado_917770" data-name="Trazado 917770" d="M219.079,347.01a2.471,2.471,0,0,1-.539.322" transform="translate(-192.984 -305.897)" fill="#dfdfdf"/>
        <path id="Trazado_917771" data-name="Trazado 917771" d="M289.249,347.332a2.47,2.47,0,0,1-.539-.322" transform="translate(-254.657 -305.897)" fill="#dfdfdf"/>
        <path id="Trazado_917772" data-name="Trazado 917772" d="M214.75,225.747a6.56,6.56,0,1,0-.163,1.46A6.568,6.568,0,0,0,214.75,225.747Z" transform="translate(-178.109 -193.546)" fill="#c6805d"/>
        <path id="Trazado_917773" data-name="Trazado 917773" d="M191.973,198.174l2.862-5.515a.242.242,0,0,1,.361-.082l.781.59a3.979,3.979,0,0,0,4.8,0l.782-.591a.242.242,0,0,1,.361.082l1.35,2.6,1.511,1.961.769-2.034a3.455,3.455,0,0,0,.12-2.5l-.353-1.378a6.279,6.279,0,0,0-3.972-4.315h0a9.55,9.55,0,0,0-4.373-.837,9.068,9.068,0,0,0-1.989.55h0a6.762,6.762,0,0,0-4.017,4.591l-.353,1.378a4.767,4.767,0,0,0,.187,2.944Z" transform="translate(-168.303 -164.513)" fill="#fee07d"/>
        <path id="Trazado_917774" data-name="Trazado 917774" d="M253.2,194.9l-1.177,2.554-1.516-2.917a4.754,4.754,0,0,0,.061-2.581l-.354-1.378a6.761,6.761,0,0,0-4.017-4.591,9.03,9.03,0,0,0-1.99-.55,9.08,9.08,0,0,1,4.809.55,6.761,6.761,0,0,1,4.017,4.591l.354,1.378A4.775,4.775,0,0,1,253.2,194.9Z" transform="translate(-215.546 -163.796)" fill="#fed062"/>
        <path id="Trazado_917775" data-name="Trazado 917775" d="M61.37,377.81a2.533,2.533,0,0,1-.39.222" transform="translate(-54.504 -332.967)" fill="#fedecf"/>
        <path id="Trazado_917776" data-name="Trazado 917776" d="M132.149,378.032a2.521,2.521,0,0,1-.389-.222" transform="translate(-116.713 -332.967)" fill="#fedecf"/>
        <path id="Trazado_917777" data-name="Trazado 917777" d="M349.861,216.375a6.631,6.631,0,0,1,2.832.735h0a7.611,7.611,0,0,1,4.616,5.615l.153.76a14.179,14.179,0,0,1,.28,2.8l-.251,13.105H340.605l0-13.264a14.191,14.191,0,0,1,.28-2.8l.153-.76a8.6,8.6,0,0,1,5.107-5.836h0a8.936,8.936,0,0,1,1.831-.52s1.417.165,1.924.165Z" transform="translate(-300.268 -190.936)" fill="#807782"/>
        <path id="Trazado_917778" data-name="Trazado 917778" d="M411.881,238.45h-2.986l0-13.264a14.2,14.2,0,0,0-.281-2.8l-.152-.76a8.6,8.6,0,0,0-5.108-5.836,8.965,8.965,0,0,0-1.83-.521,8.765,8.765,0,0,1,4.815.521,8.592,8.592,0,0,1,5.108,5.836l.153.76a14.2,14.2,0,0,1,.281,2.8Z" transform="translate(-353.806 -189.996)" fill="#6f6571"/>
        <path id="Trazado_917779" data-name="Trazado 917779" d="M64.618,7.869,61.737,7.5H9.918A2.418,2.418,0,0,0,7.5,9.918v9.176a2.418,2.418,0,0,0,2.418,2.418h7.221a.242.242,0,0,1,.224.15l1.508,3.658a.242.242,0,0,0,.448,0l1.508-3.658a.242.242,0,0,1,.224-.15H35.636a.242.242,0,0,1,.224.15l1.508,3.658a.242.242,0,0,0,.448,0l1.508-3.658a.242.242,0,0,1,.224-.15H54.134a.242.242,0,0,1,.224.15l1.508,3.658a.242.242,0,0,0,.448,0l1.508-3.658a.242.242,0,0,1,.224-.15h3.777l3.019-.293A2.418,2.418,0,0,0,67.258,18.8l-.222-8.514A2.418,2.418,0,0,0,64.618,7.869Z" transform="translate(-7.5 -7.5)" fill="#dbe9ff"/>
        <path id="Trazado_917780" data-name="Trazado 917780" d="M458.445,9.918v9.175a2.418,2.418,0,0,1-2.418,2.418H452.1a2.417,2.417,0,0,0,2.417-2.418V9.918A2.417,2.417,0,0,0,452.1,7.5h3.927A2.418,2.418,0,0,1,458.445,9.918Z" transform="translate(-398.261 -7.5)" fill="#c3ddff"/>
        <path id="Trazado_917781" data-name="Trazado 917781" d="M227.551,416.507h-6.723a1.024,1.024,0,0,1-1.021-1.021v-4.238a1.024,1.024,0,0,1,1.021-1.021h6.723a1.024,1.024,0,0,1,1.021,1.021v4.238A1.024,1.024,0,0,1,227.551,416.507Z" transform="translate(-194.098 -361.458)" fill="#f2f2f2"/>
        <g id="Grupo_1198658" data-name="Grupo 1198658" transform="translate(38.272 41.113)">
          <g id="Grupo_1198657" data-name="Grupo 1198657" transform="translate(0 3.914)">
            <path id="Trazado_917782" data-name="Trazado 917782" d="M327.332,412.263v6.4l-1.937.7H323.55v-9.674c0-.062,0-.124,0-.186,0,0,.99-1.657,1.121-1.87l2.476,4A1.208,1.208,0,0,1,327.332,412.263Z" transform="translate(-323.55 -404.203)" fill="#fedecf"/>
            <g id="Grupo_1198655" data-name="Grupo 1198655" transform="translate(18.13 3.293)">
              <path id="Trazado_917783" data-name="Trazado 917783" d="M477.052,408.715v9.311a.363.363,0,0,1-.363.363h-1.481l-1.937-.708v-6.39a1.208,1.208,0,0,1,.182-.637l2.557-4.13c.456.741,1.04,2,1.04,2C477.05,408.589,477.052,408.653,477.052,408.715Z" transform="translate(-473.27 -406.525)" fill="#fedecf"/>
            </g>
            <path id="Trazado_917784" data-name="Trazado 917784" d="M327.87,407.631l-.512,7.352h-1.938v-6.544a1.211,1.211,0,0,0-.182-.638l-1.659-2.679a5.1,5.1,0,0,1,.4-1.806,5.038,5.038,0,0,1,.345-.667l3.361,4.344A1.208,1.208,0,0,1,327.87,407.631Z" transform="translate(-323.576 -399.826)" fill="#fdd0bf"/>
            <g id="Grupo_1198656" data-name="Grupo 1198656" transform="translate(17.469 2.823)">
              <path id="Trazado_917785" data-name="Trazado 917785" d="M472.247,405.113h0l-1.659,2.677a1.211,1.211,0,0,0-.182.638v6.546h-1.938l-.662-7.26a1.208,1.208,0,0,1,.182-.637l3.51-4.438A5.083,5.083,0,0,1,472.247,405.113Z" transform="translate(-467.807 -402.64)" fill="#fdd0bf"/>
            </g>
            <path id="Trazado_917786" data-name="Trazado 917786" d="M349.716,382.1l-3.157,4.309a1.208,1.208,0,0,0-.182.637l.091,7.129-1.518.315H332.781v-7.1a1.208,1.208,0,0,0-.182-.637l-2.849-4.6a5.079,5.079,0,0,1,3.594-2.372l1.45-.213a2.545,2.545,0,0,0,.76-.239l1.689.4a4.677,4.677,0,0,0,5.424,0l1.689-.4a2.537,2.537,0,0,0,.759.239l1.451.213a5.114,5.114,0,0,1,1.5.465c.05.025.1.05.149.076,0,0,.465.569.806.9A3.807,3.807,0,0,1,349.716,382.1Z" transform="translate(-328.999 -379.33)" fill="#fe7f86"/>
            <path id="Trazado_917787" data-name="Trazado 917787" d="M460.48,389.36l-2.848,4.6a1.208,1.208,0,0,0-.182.637v7.1h-2.18v-8.308a1.208,1.208,0,0,1,.182-.637l3.083-5.219a5.095,5.095,0,0,1,1.945,1.83Z" transform="translate(-439.319 -386.537)" fill="#f76d7b"/>
          </g>
          <path id="Trazado_917788" data-name="Trazado 917788" d="M386.482,350.924l-1.689,1.2a4.677,4.677,0,0,1-5.424,0l-1.689-1.2a2.53,2.53,0,0,0,1.172-1.221l1.212-2.693H384.1l1.212,2.693A2.518,2.518,0,0,0,386.482,350.924Z" transform="translate(-371.125 -347.01)" fill="#fdd0bf"/>
        </g>
        <path id="Trazado_917789" data-name="Trazado 917789" d="M376.964,264.574a5.763,5.763,0,0,0-3.426-3.808l-1.651-.655a.727.727,0,0,0-.55.006l-1.639.69a5.763,5.763,0,0,0-3.231,3.49l-.584,1.753a2.194,2.194,0,0,0,.025,1.472,6.1,6.1,0,0,0,11.426-.05,2.223,2.223,0,0,0,.057-1.369Z" transform="translate(-322.383 -229.476)" fill="#fedecf"/>
        <g id="Grupo_1198662" data-name="Grupo 1198662" transform="translate(0 41.113)">
          <g id="Grupo_1198661" data-name="Grupo 1198661" transform="translate(0 3.914)">
            <path id="Trazado_917790" data-name="Trazado 917790" d="M11.282,412.263v6.4l-1.938.7H7.863A.363.363,0,0,1,7.5,419v-9.311c0-.062,0-.124,0-.186,0,0,.99-1.657,1.121-1.87l2.476,4A1.208,1.208,0,0,1,11.282,412.263Z" transform="translate(-7.5 -404.203)" fill="#fedecf"/>
            <g id="Grupo_1198659" data-name="Grupo 1198659" transform="translate(18.13 3.293)">
              <path id="Trazado_917791" data-name="Trazado 917791" d="M161,408.715v9.674h-1.844l-1.938-.708v-6.39a1.208,1.208,0,0,1,.182-.637l2.557-4.13c.456.741,1.04,2,1.04,2C161,408.589,161,408.653,161,408.715Z" transform="translate(-157.22 -406.525)" fill="#fedecf"/>
            </g>
            <path id="Trazado_917792" data-name="Trazado 917792" d="M11.82,407.631l-.512,7.352H9.371v-6.544a1.211,1.211,0,0,0-.182-.638L7.53,405.123a5.1,5.1,0,0,1,.4-1.806,5.04,5.04,0,0,1,.345-.667l3.361,4.344A1.208,1.208,0,0,1,11.82,407.631Z" transform="translate(-7.526 -399.826)" fill="#fdd0bf"/>
            <g id="Grupo_1198660" data-name="Grupo 1198660" transform="translate(17.469 2.823)">
              <path id="Trazado_917793" data-name="Trazado 917793" d="M156.2,405.113h0l-1.659,2.677a1.211,1.211,0,0,0-.182.638v6.546h-1.937l-.662-7.26a1.209,1.209,0,0,1,.182-.637l3.51-4.438A5.081,5.081,0,0,1,156.2,405.113Z" transform="translate(-151.757 -402.64)" fill="#fdd0bf"/>
            </g>
            <path id="Trazado_917794" data-name="Trazado 917794" d="M33.666,382.1l-3.157,4.309a1.208,1.208,0,0,0-.182.637l.091,7.129-1.518.315H16.731v-7.1a1.208,1.208,0,0,0-.182-.637l-2.849-4.6a5.079,5.079,0,0,1,3.594-2.372l1.45-.213a2.545,2.545,0,0,0,.76-.239l1.689.4a4.677,4.677,0,0,0,5.424,0l1.689-.4a2.537,2.537,0,0,0,.759.239l1.451.213a5.114,5.114,0,0,1,1.5.465q.075.037.149.076s.465.569.806.9A3.809,3.809,0,0,1,33.666,382.1Z" transform="translate(-12.949 -379.33)" fill="#dcbdf9"/>
            <path id="Trazado_917795" data-name="Trazado 917795" d="M144.43,389.36l-2.848,4.6a1.208,1.208,0,0,0-.182.637v7.1h-2.18v-8.308a1.208,1.208,0,0,1,.182-.637l3.083-5.219a5.094,5.094,0,0,1,1.945,1.83Z" transform="translate(-123.269 -386.537)" fill="#d0aff2"/>
          </g>
          <path id="Trazado_917796" data-name="Trazado 917796" d="M70.432,350.924l-1.689,1.2a4.677,4.677,0,0,1-5.424,0l-1.689-1.2A2.53,2.53,0,0,0,62.8,349.7l1.212-2.693h4.034L69.26,349.7A2.519,2.519,0,0,0,70.432,350.924Z" transform="translate(-55.075 -347.01)" fill="#fdd0bf"/>
        </g>
        <path id="Trazado_917797" data-name="Trazado 917797" d="M56.877,255.857a6.56,6.56,0,1,0-.163,1.46A6.568,6.568,0,0,0,56.877,255.857Z" transform="translate(-39.353 -220.009)" fill="#fedecf"/>
        <path id="Trazado_917798" data-name="Trazado 917798" d="M46.859,228.057l.729-2.051a3.492,3.492,0,0,0,.205-2.5l-.353-1.378A7.228,7.228,0,0,0,43,217.64h0a8.906,8.906,0,0,0-4.33-.7,9.078,9.078,0,0,0-1.558.471h0A6.762,6.762,0,0,0,33.089,222l-.353,1.378a4.767,4.767,0,0,0,.187,2.944l1.177,2.554,1.886-2.955a.36.36,0,0,1,.4-.154,7.372,7.372,0,0,0,7.926-2.7.12.12,0,0,1,.216.054C45.24,224.877,45.429,226.473,46.859,228.057Z" transform="translate(-29.549 -191.568)" fill="#c6805d"/>
        <path id="Trazado_917799" data-name="Trazado 917799" d="M92.2,225.013l-1.177,2.554a10.866,10.866,0,0,1-2.378-5.758l-.006-.023-.285-1.095A6.764,6.764,0,0,0,84.34,216.1a9.024,9.024,0,0,0-1.56-.471,9.072,9.072,0,0,1,5.239.471,6.763,6.763,0,0,1,4.018,4.591l.354,1.378A4.776,4.776,0,0,1,92.2,225.013Z" transform="translate(-73.664 -190.259)" fill="#ba7052"/>
      </g>
      <g id="Grupo_1198672" data-name="Grupo 1198672" transform="translate(7.5 7.5)">
        <g id="Grupo_1198666" data-name="Grupo 1198666" transform="translate(19.217 21.534)">
          <g id="Grupo_1198665" data-name="Grupo 1198665" transform="translate(0 16.937)">
            <g id="Grupo_1198664" data-name="Grupo 1198664">
              <path id="Trazado_917800" data-name="Trazado 917800" d="M174.584,325.194l-.76,1.688a2.522,2.522,0,0,1-1.932,1.46l-1.45.213a5.085,5.085,0,0,0-2.785,1.365h0a5.086,5.086,0,0,0-1.461,2.662" transform="translate(-166.197 -325.194)" fill="none" stroke="#000" stroke-linecap="round" stroke-linejoin="round" stroke-miterlimit="10" stroke-width="1.2"/>
              <path id="Trazado_917801" data-name="Trazado 917801" d="M283.928,330.851a5.076,5.076,0,0,0-.762-.93h0a5.085,5.085,0,0,0-2.785-1.366l-1.45-.213a2.521,2.521,0,0,1-1.932-1.46l-.76-1.688" transform="translate(-262.913 -325.194)" fill="none" stroke="#000" stroke-linecap="round" stroke-linejoin="round" stroke-miterlimit="10" stroke-width="1.2"/>
            </g>
            <path id="Trazado_917802" data-name="Trazado 917802" d="M220.493,349.916l1.57,1.116a4.679,4.679,0,0,0,5.423,0l1.547-1.1" transform="translate(-213.918 -346.922)" fill="none" stroke="#000" stroke-linecap="round" stroke-linejoin="round" stroke-miterlimit="10" stroke-width="1.2"/>
          </g>
          <path id="Trazado_917803" data-name="Trazado 917803" d="M202.959,285.471a6.569,6.569,0,0,0,12.809,0" transform="translate(-198.507 -273.344)" fill="none" stroke="#000" stroke-linecap="round" stroke-linejoin="round" stroke-miterlimit="10" stroke-width="1.2"/>
          <path id="Trazado_917804" data-name="Trazado 917804" d="M191.974,197.454l2.994-5.769,1.01.763a3.979,3.979,0,0,0,4.8,0l1.01-.763,3,5.769,1.177-2.554a4.769,4.769,0,0,0,.187-2.944l-.353-1.378a6.762,6.762,0,0,0-4.017-4.591h0a9.073,9.073,0,0,0-6.8,0h0a6.762,6.762,0,0,0-4.017,4.591l-.353,1.378a4.767,4.767,0,0,0,.187,2.944Z" transform="translate(-187.522 -185.327)" fill="none" stroke="#000" stroke-linecap="round" stroke-linejoin="round" stroke-miterlimit="10" stroke-width="1.2"/>
        </g>
        <g id="Grupo_1198668" data-name="Grupo 1198668" transform="translate(0 25.18)">
          <g id="Grupo_1198667" data-name="Grupo 1198667" transform="translate(0 16.982)">
            <path id="Trazado_917805" data-name="Trazado 917805" d="M15.967,355.672l-.74,1.644a2.522,2.522,0,0,1-1.932,1.46l-1.45.213a5.085,5.085,0,0,0-2.785,1.366h0A5.085,5.085,0,0,0,7.5,364.02v9.675" transform="translate(-7.5 -355.672)" fill="none" stroke="#000" stroke-linecap="round" stroke-linejoin="round" stroke-miterlimit="10" stroke-width="1.2"/>
            <path id="Trazado_917806" data-name="Trazado 917806" d="M127,373.694V364.02a5.085,5.085,0,0,0-1.56-3.665h0a5.084,5.084,0,0,0-2.785-1.366l-1.45-.213a2.521,2.521,0,0,1-1.932-1.46l-.74-1.644" transform="translate(-105.087 -355.672)" fill="none" stroke="#000" stroke-linecap="round" stroke-linejoin="round" stroke-miterlimit="10" stroke-width="1.2"/>
          </g>
          <path id="Trazado_917807" data-name="Trazado 917807" d="M45.087,315.582a6.569,6.569,0,0,0,12.809,0" transform="translate(-40.535 -303.455)" fill="none" stroke="#000" stroke-linecap="round" stroke-linejoin="round" stroke-miterlimit="10" stroke-width="1.2"/>
          <path id="Trazado_917808" data-name="Trazado 917808" d="M157.224,416.2V408.76l2.926-4.724" transform="translate(-139.093 -381.198)" fill="none" stroke="#000" stroke-linecap="round" stroke-linejoin="round" stroke-miterlimit="10" stroke-width="1.2"/>
          <path id="Trazado_917809" data-name="Trazado 917809" d="M17.411,416.064v-7.442l-2.937-4.743" transform="translate(-13.629 -381.06)" fill="none" stroke="#000" stroke-linecap="round" stroke-linejoin="round" stroke-miterlimit="10" stroke-width="1.2"/>
          <path id="Trazado_917810" data-name="Trazado 917810" d="M62.205,379.731l1.62,1.152a4.679,4.679,0,0,0,5.423,0l1.62-1.152" transform="translate(-55.58 -359.836)" fill="none" stroke="#000" stroke-linecap="round" stroke-linejoin="round" stroke-miterlimit="10" stroke-width="1.2"/>
          <path id="Trazado_917811" data-name="Trazado 917811" d="M33.755,219.033a6.758,6.758,0,0,0-.668,1.656l-.353,1.378a4.767,4.767,0,0,0,.187,2.944l1.177,2.554,2.035-3.189a7.313,7.313,0,0,0,8.354-2.875h0l.4,2.1a7.309,7.309,0,0,0,1.277,2.944l.742,1.016,1.177-2.554a4.769,4.769,0,0,0,.187-2.944l-.353-1.378A6.762,6.762,0,0,0,43.9,216.1h0a9.073,9.073,0,0,0-6.8,0h0l-.183.077" transform="translate(-29.547 -215.437)" fill="none" stroke="#000" stroke-linecap="round" stroke-linejoin="round" stroke-miterlimit="10" stroke-width="1.2"/>
        </g>
        <g id="Grupo_1198670" data-name="Grupo 1198670" transform="translate(38.272 25.144)">
          <line id="Línea_755" data-name="Línea 755" x2="0.003" y2="7.932" transform="translate(19.799 13.19)" fill="none" stroke="#000" stroke-linecap="round" stroke-linejoin="round" stroke-miterlimit="10" stroke-width="1.2"/>
          <path id="Trazado_917812" data-name="Trazado 917812" d="M340.611,236.29l0-11.107a14.186,14.186,0,0,1,.28-2.8l.153-.76a8.6,8.6,0,0,1,5.107-5.836h0a8.93,8.93,0,0,1,3.346-.65h-.045a8.929,8.929,0,0,1,3.346.65h0a8.6,8.6,0,0,1,5.107,5.836l.153.76a14.188,14.188,0,0,1,.237,1.705" transform="translate(-338.545 -215.137)" fill="none" stroke="#000" stroke-linecap="round" stroke-linejoin="round" stroke-miterlimit="10" stroke-width="1.2"/>
          <g id="Grupo_1198669" data-name="Grupo 1198669" transform="translate(0 16.53)">
            <path id="Trazado_917813" data-name="Trazado 917813" d="M332.233,351.639l-.96,2.132a2.521,2.521,0,0,1-1.932,1.46l-1.45.213a5.085,5.085,0,0,0-2.785,1.366h0a5.085,5.085,0,0,0-1.56,3.665v9.675" transform="translate(-323.546 -351.639)" fill="none" stroke="#000" stroke-linecap="round" stroke-linejoin="round" stroke-miterlimit="10" stroke-width="1.2"/>
            <path id="Trazado_917814" data-name="Trazado 917814" d="M441.45,370.15v-9.675a5.085,5.085,0,0,0-1.56-3.665h0a5.084,5.084,0,0,0-2.785-1.366l-1.45-.213a2.521,2.521,0,0,1-1.932-1.46l-.96-2.132" transform="translate(-419.537 -351.639)" fill="none" stroke="#000" stroke-linecap="round" stroke-linejoin="round" stroke-miterlimit="10" stroke-width="1.2"/>
          </g>
          <path id="Trazado_917815" data-name="Trazado 917815" d="M473.27,416.269v-7.442l2.92-4.715" transform="translate(-455.139 -381.229)" fill="none" stroke="#000" stroke-linecap="round" stroke-linejoin="round" stroke-miterlimit="10" stroke-width="1.2"/>
          <path id="Trazado_917816" data-name="Trazado 917816" d="M333.585,416.269v-7.442l-2.92-4.715" transform="translate(-329.803 -381.229)" fill="none" stroke="#000" stroke-linecap="round" stroke-linejoin="round" stroke-miterlimit="10" stroke-width="1.2"/>
          <path id="Trazado_917817" data-name="Trazado 917817" d="M378.347,379.8l1.608,1.144a4.679,4.679,0,0,0,5.424,0l1.594-1.133" transform="translate(-371.711 -359.859)" fill="none" stroke="#000" stroke-linecap="round" stroke-linejoin="round" stroke-miterlimit="10" stroke-width="1.2"/>
          <path id="Trazado_917818" data-name="Trazado 917818" d="M376.953,264.151a5.763,5.763,0,0,0-3.426-3.808l-1.927-.764-1.913.806a5.763,5.763,0,0,0-3.231,3.49l-.584,1.753a2.171,2.171,0,0,0,.015,1.447,6.1,6.1,0,0,0,11.446-.052,2.2,2.2,0,0,0,.047-1.343Z" transform="translate(-360.644 -254.197)" fill="none" stroke="#000" stroke-linecap="round" stroke-linejoin="round" stroke-miterlimit="10" stroke-width="1.2"/>
        </g>
        <g id="Grupo_1198671" data-name="Grupo 1198671" transform="translate(0 0)">
          <path id="Trazado_917819" data-name="Trazado 917819" d="M155.3,12.7V9.918A2.418,2.418,0,0,0,152.878,7.5h-45.7" transform="translate(-95.112 -7.5)" fill="none" stroke="#000" stroke-linecap="round" stroke-linejoin="round" stroke-miterlimit="10" stroke-width="1.2"/>
          <path id="Trazado_917820" data-name="Trazado 917820" d="M15.333,7.5H9.918A2.418,2.418,0,0,0,7.5,9.918v9.176a2.418,2.418,0,0,0,2.418,2.418H17.3l1.794,4.351,1.794-4.351H35.8l1.794,4.351,1.794-4.351H54.3l1.794,4.351,1.794-4.351h7.383a2.418,2.418,0,0,0,2.418-2.418V16.938" transform="translate(-7.5 -7.5)" fill="none" stroke="#000" stroke-linecap="round" stroke-linejoin="round" stroke-miterlimit="10" stroke-width="1.2"/>
          <line id="Línea_756" data-name="Línea 756" x2="11.536" transform="translate(4.838 5.2)" fill="none" stroke="#000" stroke-linecap="round" stroke-linejoin="round" stroke-miterlimit="10" stroke-width="1.2"/>
          <line id="Línea_757" data-name="Línea 757" x2="15.898" transform="translate(20.605 5.2)" fill="none" stroke="#000" stroke-linecap="round" stroke-linejoin="round" stroke-miterlimit="10" stroke-width="1.2"/>
          <line id="Línea_758" data-name="Línea 758" x2="7.193" transform="translate(40.734 5.2)" fill="none" stroke="#000" stroke-linecap="round" stroke-linejoin="round" stroke-miterlimit="10" stroke-width="1.2"/>
          <line id="Línea_759" data-name="Línea 759" x2="3.188" transform="translate(52.159 5.2)" fill="none" stroke="#000" stroke-linecap="round" stroke-linejoin="round" stroke-miterlimit="10" stroke-width="1.2"/>
          <line id="Línea_760" data-name="Línea 760" x1="11.536" transform="translate(43.811 8.827)" fill="none" stroke="#000" stroke-linecap="round" stroke-linejoin="round" stroke-miterlimit="10" stroke-width="1.2"/>
          <line id="Línea_761" data-name="Línea 761" x1="15.898" transform="translate(23.682 8.827)" fill="none" stroke="#000" stroke-linecap="round" stroke-linejoin="round" stroke-miterlimit="10" stroke-width="1.2"/>
          <line id="Línea_762" data-name="Línea 762" x1="7.193" transform="translate(12.257 8.827)" fill="none" stroke="#000" stroke-linecap="round" stroke-linejoin="round" stroke-miterlimit="10" stroke-width="1.2"/>
          <line id="Línea_763" data-name="Línea 763" x1="3.188" transform="translate(4.838 8.827)" fill="none" stroke="#000" stroke-linecap="round" stroke-linejoin="round" stroke-miterlimit="10" stroke-width="1.2"/>
        </g>
        <path id="Trazado_917821" data-name="Trazado 917821" d="M227.551,416.507h-6.723a1.024,1.024,0,0,1-1.021-1.021v-4.238a1.024,1.024,0,0,1,1.021-1.021h6.723a1.024,1.024,0,0,1,1.021,1.021v4.238A1.024,1.024,0,0,1,227.551,416.507Z" transform="translate(-194.098 -361.458)" fill="none" stroke="#000" stroke-linecap="round" stroke-linejoin="round" stroke-miterlimit="10" stroke-width="1.2"/>
      </g>
    </g>
  </g>
</svg>
