<svg xmlns="http://www.w3.org/2000/svg" xmlns:xlink="http://www.w3.org/1999/xlink" width="118" height="118" viewBox="0 0 118 118">
  <defs>
    <filter id="Trazado_896985" x="0" y="0" width="118" height="118" filterUnits="userSpaceOnUse">
      <feOffset dy="3" input="SourceAlpha"/>
      <feGaussianBlur stdDeviation="3" result="blur"/>
      <feFlood flood-opacity="0.161"/>
      <feComposite operator="in" in2="blur"/>
      <feComposite in="SourceGraphic"/>
    </filter>
  </defs>
  <g id="Grupo_1198723" data-name="Grupo 1198723" transform="translate(-196.891 -4461.322)">
    <g id="Grupo_1198139" data-name="Grupo 1198139" transform="translate(-129 615.322)">
      <g id="Grupo_1111318" data-name="Grupo 1111318" transform="translate(334.891 3852)">
        <g id="Grupo_1109826" data-name="Grupo 1109826" transform="translate(0)">
          <g id="Grupo_1098742" data-name="Grupo 1098742" transform="translate(0 0)">
            <g transform="matrix(1, 0, 0, 1, -9, -6)" filter="url(#Trazado_896985)">
              <g id="Trazado_896985-2" data-name="Trazado 896985" transform="translate(9 6)" fill="#fc0" opacity="0.859">
                <path d="M 49.99993515014648 99.5 C 43.31726837158203 99.5 36.83476257324219 98.19129943847656 30.73248100280762 95.61025238037109 C 24.83812141418457 93.11714172363281 19.54434776306152 89.54795837402344 14.99820137023926 85.00179290771484 C 10.45204162597656 80.45565032958984 6.88285493850708 75.16187286376953 4.389748573303223 69.26751708984375 C 1.808695197105408 63.16523742675781 0.5000017881393433 56.6827278137207 0.5000017881393433 50.00006103515625 C 0.5000017881393433 43.31726455688477 1.808695197105408 36.83475494384766 4.389748573303223 30.73247528076172 C 6.88285493850708 24.83811569213867 10.45204162597656 19.54434204101562 14.99820137023926 14.99819660186768 C 19.54434776306152 10.45203590393066 24.83812141418457 6.88284969329834 30.73248100280762 4.389742851257324 C 36.83476257324219 1.808689475059509 43.31726837158203 0.4999961853027344 49.99993515014648 0.4999961853027344 C 56.68260192871094 0.4999961853027344 63.16510772705078 1.808689475059509 69.26738739013672 4.389742851257324 C 75.16175079345703 6.88284969329834 80.45552062988281 10.45203590393066 85.00167083740234 14.99819660186768 C 89.54782867431641 19.54434204101562 93.11701202392578 24.83811569213867 95.61012268066406 30.73247528076172 C 98.19117736816406 36.83475494384766 99.49987030029297 43.31726455688477 99.49987030029297 49.99993133544922 C 99.49987030029297 56.6827278137207 98.19117736816406 63.16523742675781 95.61012268066406 69.26751708984375 C 93.11701202392578 75.16187286376953 89.54782867431641 80.45565032958984 85.00167083740234 85.00179290771484 C 80.45552062988281 89.54795837402344 75.16175079345703 93.11714172363281 69.26738739013672 95.61025238037109 C 63.16510772705078 98.19129943847656 56.68260192871094 99.5 49.99993515014648 99.5 Z" stroke="none"/>
                <path d="M 49.99993515014648 0.9999923706054688 C 43.38454818725586 0.9999923706054688 36.96757507324219 2.29541015625 30.92725372314453 4.850250244140625 C 25.09249877929688 7.318145751953125 19.85213470458984 10.85135650634766 15.35174560546875 15.35174560546875 C 10.85136413574219 19.85212707519531 7.318145751953125 25.09249114990234 4.850257873535156 30.92724609375 C 2.295417785644531 36.96757125854492 1 43.38454437255859 1 50.00006103515625 C 1 56.61544799804688 2.295417785644531 63.03242111206055 4.850257873535156 69.07273864746094 C 7.318145751953125 74.90750122070312 10.85136413574219 80.14786529541016 15.35174560546875 84.64824676513672 C 19.85213470458984 89.14863586425781 25.09249877929688 92.68184661865234 30.92725372314453 95.14974212646484 C 36.96757507324219 97.70458221435547 43.38454818725586 99 49.99993515014648 99 C 56.61532211303711 99 63.03229522705078 97.70458221435547 69.07261657714844 95.14974212646484 C 74.90737915039062 92.68184661865234 80.14773559570312 89.14863586425781 84.64812469482422 84.64824676513672 C 89.14850616455078 80.14786529541016 92.68172454833984 74.90750122070312 95.14961242675781 69.07273864746094 C 97.70445251464844 63.03242111206055 98.99987030029297 56.61544799804688 98.99987030029297 49.99993133544922 C 98.99987030029297 43.38454437255859 97.70445251464844 36.96757125854492 95.14961242675781 30.92724609375 C 92.68172454833984 25.09249114990234 89.14850616455078 19.85212707519531 84.64812469482422 15.35174560546875 C 80.14773559570312 10.85135650634766 74.90737915039062 7.318145751953125 69.07261657714844 4.850250244140625 C 63.03229522705078 2.29541015625 56.61532211303711 0.9999923706054688 49.99993515014648 0.9999923706054688 M 49.99993515014648 -7.62939453125e-06 C 77.6141357421875 -7.62939453125e-06 99.99987030029297 22.38572692871094 99.99987030029297 49.99993133544922 L 99.99987030029297 50.00006103515625 C 99.99987030029297 77.61426544189453 77.6141357421875 100 49.99993515014648 100 C 22.38573455810547 100 0 77.61426544189453 0 50.00006103515625 L 0 49.99993133544922 C 0 22.38572692871094 22.38573455810547 -7.62939453125e-06 49.99993515014648 -7.62939453125e-06 Z" stroke="none" fill="#fff"/>
              </g>
            </g>
            <g id="Rectángulo_400907" data-name="Rectángulo 400907" transform="translate(0)" fill="none" stroke="#fff" stroke-width="1">
              <rect width="100" height="100" rx="50" stroke="none"/>
              <rect x="0.5" y="0.5" width="99" height="99" rx="49.5" fill="none"/>
            </g>
          </g>
        </g>
      </g>
    </g>
    <g id="inclusion_18290492" transform="translate(193.184 4450.552)">
      <g id="Grupo_1198721" data-name="Grupo 1198721" transform="translate(27.032 31.21)">
        <path id="Trazado_918303" data-name="Trazado 918303" d="M42.29,204.86h25.2v6.166a6.185,6.185,0,0,1-6.166,6.166H48.456a6.182,6.182,0,0,1-6.166-6.166Z" transform="translate(-40.805 -178.261)" fill="#fdcb0f" fill-rule="evenodd"/>
        <path id="Trazado_918304" data-name="Trazado 918304" d="M67.12,204.86H88.384v6.166a6.185,6.185,0,0,1-6.166,6.166H73.283a6.181,6.181,0,0,1-6.162-6.166V204.86Z" transform="translate(-61.698 -178.261)" fill="#fde01b" fill-rule="evenodd"/>
        <path id="Trazado_918305" data-name="Trazado 918305" d="M315.81,204.86h25.2v6.166a6.185,6.185,0,0,1-6.166,6.166H321.976a6.182,6.182,0,0,1-6.166-6.166Z" transform="translate(-270.957 -178.261)" fill="#fdcb0f" fill-rule="evenodd"/>
        <path id="Trazado_918306" data-name="Trazado 918306" d="M340.64,204.86H361.9v6.166a6.185,6.185,0,0,1-6.166,6.166h-8.93a6.182,6.182,0,0,1-6.166-6.166V204.86Z" transform="translate(-291.85 -178.261)" fill="#fde01b" fill-rule="evenodd"/>
        <path id="Trazado_918307" data-name="Trazado 918307" d="M80.5,112.933v2.305a1.534,1.534,0,0,0,1.533,1.528h53.386a1.537,1.537,0,0,0,1.533-1.528v-2.305a1.538,1.538,0,0,0-1.533-1.533H82.033a1.535,1.535,0,0,0-1.533,1.533Z" transform="translate(-72.956 -99.619)" fill="#fde01b" fill-rule="evenodd"/>
        <path id="Trazado_918308" data-name="Trazado 918308" d="M80.5,129.089v1.151a.768.768,0,0,0,.769.764h54.915a.768.768,0,0,0,.769-.764v-1.151a.772.772,0,0,0-.769-.769H81.269A.773.773,0,0,0,80.5,129.089Z" transform="translate(-72.957 -113.856)" fill="#fdcb0f" fill-rule="evenodd"/>
        <path id="Trazado_918309" data-name="Trazado 918309" d="M235.47,77.92h7.308v42.254H235.47Z" transform="translate(-203.355 -71.448)" fill="#fdcb0f" fill-rule="evenodd"/>
        <path id="Trazado_918310" data-name="Trazado 918310" d="M258.52,77.92h3.655v42.254H258.52Z" transform="translate(-222.75 -71.448)" fill="#fde01b" fill-rule="evenodd"/>
        <path id="Trazado_918311" data-name="Trazado 918311" d="M299.37,290.794h-7.937c-5.811,0-9.042,4.755-9.042,10.571v9.956H302V297.379l11.286-11.73a2.988,2.988,0,0,0-4.226-4.226Z" transform="translate(-242.836 -241.923)" fill="#97d729" fill-rule="evenodd"/>
        <path id="Trazado_918312" data-name="Trazado 918312" d="M295.6,323h17.519V309.057l11.286-11.73a1.711,1.711,0,1,0-2.136-2.022l-9.694,9.371h-7.933c-5.816,0-9.043,4.755-9.043,10.566Z" transform="translate(-253.951 -253.603)" fill="#a2e62e" fill-rule="evenodd"/>
        <path id="Trazado_918313" data-name="Trazado 918313" d="M321.543,273.68A6.323,6.323,0,1,0,327.867,280,6.323,6.323,0,0,0,321.543,273.68Z" transform="translate(-270.46 -236.169)" fill="#ffb09e" fill-rule="evenodd"/>
        <path id="Trazado_918314" data-name="Trazado 918314" d="M321.543,273.68a3.752,3.752,0,1,0,2.423.48A6.323,6.323,0,0,0,321.543,273.68Z" transform="translate(-270.46 -236.169)" fill="#ffcebf" fill-rule="evenodd"/>
        <path id="Trazado_918315" data-name="Trazado 918315" d="M47.759,290.794h7.933c5.816,0,9.042,4.755,9.042,10.571v9.956H45.125V297.379l-11.286-11.73a2.988,2.988,0,0,1,4.226-4.226Z" transform="translate(-32.937 -241.923)" fill="#0ab69f" fill-rule="evenodd"/>
        <path id="Trazado_918316" data-name="Trazado 918316" d="M62.63,323H45.112V309.057l-11.286-11.73a2.871,2.871,0,0,1-.809-2.791,2.86,2.86,0,0,1,2.944.769l9.694,9.371h7.933c5.811,0,9.042,4.755,9.042,10.566Z" transform="translate(-32.924 -253.603)" fill="#0ed2b3" fill-rule="evenodd"/>
        <path id="Trazado_918317" data-name="Trazado 918317" d="M127.223,273.68A6.323,6.323,0,1,1,120.9,280,6.32,6.32,0,0,1,127.223,273.68Z" transform="translate(-106.951 -236.169)" fill="#ffb09e" fill-rule="evenodd"/>
        <path id="Trazado_918318" data-name="Trazado 918318" d="M138.928,273.68a6.325,6.325,0,0,1,4.628,10.63A6.323,6.323,0,0,1,136.5,274.16,6.319,6.319,0,0,1,138.928,273.68Z" transform="translate(-118.655 -236.169)" fill="#ffcebf" fill-rule="evenodd"/>
        <path id="Trazado_918319" data-name="Trazado 918319" d="M183.192,381.186h23.479v-13.1a6.6,6.6,0,0,0-6.585-6.585H189.775a6.6,6.6,0,0,0-6.585,6.585v13.1Z" transform="translate(-159.364 -310.064)" fill="#0593fc" fill-rule="evenodd"/>
        <path id="Trazado_918320" data-name="Trazado 918320" d="M213.82,381.186h18.626v-13.1a6.6,6.6,0,0,0-6.585-6.585H220.4a6.6,6.6,0,0,0-6.585,6.585Z" transform="translate(-185.138 -310.064)" fill="#26a6fe" fill-rule="evenodd"/>
        <path id="Trazado_918321" data-name="Trazado 918321" d="M221.512,286.5a6.735,6.735,0,1,1-6.732,6.737A6.732,6.732,0,0,1,221.512,286.5Z" transform="translate(-185.946 -246.956)" fill="#ffb09e" fill-rule="evenodd"/>
        <path id="Trazado_918322" data-name="Trazado 918322" d="M237.727,286.5a6.738,6.738,0,0,1,4.5,11.749,6.912,6.912,0,0,1-1.438.152,6.731,6.731,0,0,1-4.5-11.744A6.618,6.618,0,0,1,237.727,286.5Z" transform="translate(-202.16 -246.956)" fill="#ffcebf" fill-rule="evenodd"/>
        <path id="Trazado_918323" data-name="Trazado 918323" d="M197.869,37.1A11.43,11.43,0,1,1,186.44,48.53,11.432,11.432,0,0,1,197.869,37.1Z" transform="translate(-162.099 -37.1)" fill="#66f" fill-rule="evenodd"/>
        <path id="Trazado_918324" data-name="Trazado 918324" d="M214.63,37.1a11.432,11.432,0,0,1,7.137,20.36,11.434,11.434,0,0,1-11.115-19.65A11.46,11.46,0,0,1,214.63,37.1Z" transform="translate(-178.861 -37.1)" fill="#99f" fill-rule="evenodd"/>
      </g>
      <path id="Trazado_918325" data-name="Trazado 918325" d="M68.725,43.539a1.11,1.11,0,1,1,2.194.333,8.216,8.216,0,0,1-12.989,5.37,1.111,1.111,0,0,1-1.808-.642l-.35-1.919a1.106,1.106,0,0,1,1.456-1.24v0l1.838.656a1.109,1.109,0,0,1,.566,1.636,6,6,0,0,0,9.093-4.191Zm-1.051-7.5a1.107,1.107,0,0,1,1.8.642l.35,1.919a1.1,1.1,0,0,1-1.456,1.24v0l-1.834-.656a1.113,1.113,0,0,1-.571-1.636,6,6,0,0,0-9.088,4.189,1.109,1.109,0,0,1-2.194-.328,8.218,8.218,0,0,1,12.991-5.373ZM62.8,30.1A12.542,12.542,0,0,1,75.318,41.881H89.493a2.643,2.643,0,0,1,2.638,2.643v2.305a2.642,2.642,0,0,1-2.638,2.638h-.958L96.323,56.7h.759a1.113,1.113,0,0,1,1.11,1.11v6.166a7.235,7.235,0,0,1-1.865,4.85,4.54,4.54,0,0,1,.49.162,4.086,4.086,0,0,1,1.46,6.715L87.308,87.1v13.5a1.112,1.112,0,0,1-1.11,1.11H75.448v.615a1.113,1.113,0,0,1-1.11,1.11H50.859a1.11,1.11,0,0,1-1.11-1.11v-.615H39.218a1.11,1.11,0,0,1-1.11-1.11V87.1L27.137,75.7a4.082,4.082,0,0,1,1.46-6.715,4.027,4.027,0,0,1,.637-.2,7.227,7.227,0,0,1-1.83-4.809V57.809a1.113,1.113,0,0,1,1.11-1.11h.759l7.785-7.232c-1.088,0-1.945.1-2.818-.774a2.634,2.634,0,0,1-.777-1.865V44.524a2.648,2.648,0,0,1,2.643-2.643H50.283A12.541,12.541,0,0,1,62.8,30.1Zm12.455,14a12.211,12.211,0,0,1-.791,3.146h15.03a.423.423,0,0,0,.422-.419V44.522a.427.427,0,0,0-.422-.422Zm-1.938,5.367a12.584,12.584,0,0,1-5.752,4.777V71.418a7.846,7.846,0,0,1,2.085,9.505,9.157,9.157,0,0,1,2.543-1.389,7.428,7.428,0,0,1,1.051-10.108,7.306,7.306,0,0,1-2.472-5.451V57.809a1.113,1.113,0,0,1,1.11-1.11h.759l7.785-7.232Zm-7.974,5.456a12.809,12.809,0,0,1-5.093,0V70a7.871,7.871,0,0,1,5.093.135Zm-7.308-.679a12.606,12.606,0,0,1-5.757-4.777H45.17L52.958,56.7h.759a1.113,1.113,0,0,1,1.11,1.11v6.166a7.282,7.282,0,0,1-2.567,5.532,7.438,7.438,0,0,1,.962,10.032,9.207,9.207,0,0,1,2.207,1.137,7.844,7.844,0,0,1,2.607-9.569Zm-6.9-7a12.629,12.629,0,0,1-.791-3.146H36.108a.427.427,0,0,0-.422.422v2.305a.424.424,0,0,0,.422.419ZM70.1,35.342a10.321,10.321,0,1,0,0,14.6A10.324,10.324,0,0,0,70.1,35.342Zm-14.779,65.88v-9a1.11,1.11,0,0,1,2.22,0v9H67.66v-9a1.11,1.11,0,0,1,2.22,0v9h3.349v-12a5.493,5.493,0,0,0-5.475-5.475h-.436a7.827,7.827,0,0,1-9.437,0h-.436a5.493,5.493,0,0,0-5.475,5.475v12ZM66.577,73.513a5.624,5.624,0,1,0,1.646,3.978A5.623,5.623,0,0,0,66.577,73.513Zm4.769,8.912a7.717,7.717,0,0,1,4.1,6.8V99.5h9.64V86.663a1.119,1.119,0,0,1,.368-.828L96.685,74.163a1.88,1.88,0,0,0-.7-3.124h0a1.787,1.787,0,0,0-1.96.463L84.33,80.873a1.1,1.1,0,0,1-.764.311v0H82.3a7.451,7.451,0,0,1-8.175.127A7.247,7.247,0,0,0,72.061,82a7.769,7.769,0,0,0-.715.422ZM49.749,99.5V89.226a7.718,7.718,0,0,1,4.226-6.864,6.453,6.453,0,0,0-.634-.373,7.181,7.181,0,0,0-2.05-.674,7.443,7.443,0,0,1-8.17-.127H41.853v0a1.1,1.1,0,0,1-.769-.311L31.39,71.5a1.786,1.786,0,0,0-1.96-.463,1.876,1.876,0,0,0-.7,3.124L39.961,85.836a1.111,1.111,0,0,1,.365.828V99.5ZM47.3,67.611a7.368,7.368,0,0,1,2.971.62,5.051,5.051,0,0,0,2.332-4.256V58.919H29.627v5.056a5.075,5.075,0,0,0,5.056,5.056h8.248A7.4,7.4,0,0,1,47.3,67.611Zm-7.217,9.223a7.432,7.432,0,0,1,.823-5.583H34.683c-.13,0-.257,0-.382-.01Zm10.9-5.478a5.216,5.216,0,1,0,1.522,3.691,5.217,5.217,0,0,0-1.522-3.691Zm27.126-1.524A5.213,5.213,0,1,0,81.4,71,5.211,5.211,0,0,0,78.115,69.833Zm-2.864-1.651a7.442,7.442,0,0,1,7.232.85H90.92a5.075,5.075,0,0,0,5.056-5.056V58.919H72.995v5.056a5.033,5.033,0,0,0,2.256,4.207Zm9.258,3.07a7.461,7.461,0,0,1,.823,5.583l5.776-5.586c-.063,0-.125,0-.189,0h-6.41ZM41.915,49.468h-1.6L32.53,56.7H49.7Zm43.368,0h-1.6L75.9,56.7H93.071Z" transform="translate(0)"/>
    </g>
  </g>
</svg>
