<svg xmlns="http://www.w3.org/2000/svg" xmlns:xlink="http://www.w3.org/1999/xlink" width="118" height="118" viewBox="0 0 118 118">
  <defs>
    <filter id="Trazado_896985" x="0" y="0" width="118" height="118" filterUnits="userSpaceOnUse">
      <feOffset dy="3" input="SourceAlpha"/>
      <feGaussianBlur stdDeviation="3" result="blur"/>
      <feFlood flood-opacity="0.161"/>
      <feComposite operator="in" in2="blur"/>
      <feComposite in="SourceGraphic"/>
    </filter>
  </defs>
  <g id="Grupo_1198724" data-name="Grupo 1198724" transform="translate(-616.891 -4461.322)">
    <g id="Grupo_1198140" data-name="Grupo 1198140" transform="translate(291 615.322)">
      <g id="Grupo_1111318" data-name="Grupo 1111318" transform="translate(334.891 3852)">
        <g id="Grupo_1109826" data-name="Grupo 1109826" transform="translate(0)">
          <g id="Grupo_1098742" data-name="Grupo 1098742" transform="translate(0 0)">
            <g transform="matrix(1, 0, 0, 1, -9, -6)" filter="url(#Trazado_896985)">
              <g id="Trazado_896985-2" data-name="Trazado 896985" transform="translate(9 6)" fill="#fc0" opacity="0.859">
                <path d="M 49.99993515014648 99.5 C 43.31726837158203 99.5 36.83476257324219 98.19129943847656 30.73248100280762 95.61025238037109 C 24.83812141418457 93.11714172363281 19.54434776306152 89.54795837402344 14.99820137023926 85.00179290771484 C 10.45204162597656 80.45565032958984 6.88285493850708 75.16187286376953 4.389748573303223 69.26751708984375 C 1.808695197105408 63.16523742675781 0.5000017881393433 56.6827278137207 0.5000017881393433 50.00006103515625 C 0.5000017881393433 43.31726455688477 1.808695197105408 36.83475494384766 4.389748573303223 30.73247528076172 C 6.88285493850708 24.83811569213867 10.45204162597656 19.54434204101562 14.99820137023926 14.99819660186768 C 19.54434776306152 10.45203590393066 24.83812141418457 6.88284969329834 30.73248100280762 4.389742851257324 C 36.83476257324219 1.808689475059509 43.31726837158203 0.4999961853027344 49.99993515014648 0.4999961853027344 C 56.68260192871094 0.4999961853027344 63.16510772705078 1.808689475059509 69.26738739013672 4.389742851257324 C 75.16175079345703 6.88284969329834 80.45552062988281 10.45203590393066 85.00167083740234 14.99819660186768 C 89.54782867431641 19.54434204101562 93.11701202392578 24.83811569213867 95.61012268066406 30.73247528076172 C 98.19117736816406 36.83475494384766 99.49987030029297 43.31726455688477 99.49987030029297 49.99993133544922 C 99.49987030029297 56.6827278137207 98.19117736816406 63.16523742675781 95.61012268066406 69.26751708984375 C 93.11701202392578 75.16187286376953 89.54782867431641 80.45565032958984 85.00167083740234 85.00179290771484 C 80.45552062988281 89.54795837402344 75.16175079345703 93.11714172363281 69.26738739013672 95.61025238037109 C 63.16510772705078 98.19129943847656 56.68260192871094 99.5 49.99993515014648 99.5 Z" stroke="none"/>
                <path d="M 49.99993515014648 0.9999923706054688 C 43.38454818725586 0.9999923706054688 36.96757507324219 2.29541015625 30.92725372314453 4.850250244140625 C 25.09249877929688 7.318145751953125 19.85213470458984 10.85135650634766 15.35174560546875 15.35174560546875 C 10.85136413574219 19.85212707519531 7.318145751953125 25.09249114990234 4.850257873535156 30.92724609375 C 2.295417785644531 36.96757125854492 1 43.38454437255859 1 50.00006103515625 C 1 56.61544799804688 2.295417785644531 63.03242111206055 4.850257873535156 69.07273864746094 C 7.318145751953125 74.90750122070312 10.85136413574219 80.14786529541016 15.35174560546875 84.64824676513672 C 19.85213470458984 89.14863586425781 25.09249877929688 92.68184661865234 30.92725372314453 95.14974212646484 C 36.96757507324219 97.70458221435547 43.38454818725586 99 49.99993515014648 99 C 56.61532211303711 99 63.03229522705078 97.70458221435547 69.07261657714844 95.14974212646484 C 74.90737915039062 92.68184661865234 80.14773559570312 89.14863586425781 84.64812469482422 84.64824676513672 C 89.14850616455078 80.14786529541016 92.68172454833984 74.90750122070312 95.14961242675781 69.07273864746094 C 97.70445251464844 63.03242111206055 98.99987030029297 56.61544799804688 98.99987030029297 49.99993133544922 C 98.99987030029297 43.38454437255859 97.70445251464844 36.96757125854492 95.14961242675781 30.92724609375 C 92.68172454833984 25.09249114990234 89.14850616455078 19.85212707519531 84.64812469482422 15.35174560546875 C 80.14773559570312 10.85135650634766 74.90737915039062 7.318145751953125 69.07261657714844 4.850250244140625 C 63.03229522705078 2.29541015625 56.61532211303711 0.9999923706054688 49.99993515014648 0.9999923706054688 M 49.99993515014648 -7.62939453125e-06 C 77.6141357421875 -7.62939453125e-06 99.99987030029297 22.38572692871094 99.99987030029297 49.99993133544922 L 99.99987030029297 50.00006103515625 C 99.99987030029297 77.61426544189453 77.6141357421875 100 49.99993515014648 100 C 22.38573455810547 100 0 77.61426544189453 0 50.00006103515625 L 0 49.99993133544922 C 0 22.38572692871094 22.38573455810547 -7.62939453125e-06 49.99993515014648 -7.62939453125e-06 Z" stroke="none" fill="#fff"/>
              </g>
            </g>
            <g id="Rectángulo_400907" data-name="Rectángulo 400907" transform="translate(0)" fill="none" stroke="#fff" stroke-width="1">
              <rect width="100" height="100" rx="50" stroke="none"/>
              <rect x="0.5" y="0.5" width="99" height="99" rx="49.5" fill="none"/>
            </g>
          </g>
        </g>
      </g>
    </g>
    <g id="avatar_6003196_1_" data-name="avatar_6003196 (1)" transform="translate(644.834 4484.267)">
      <path id="Trazado_918326" data-name="Trazado 918326" d="M46.426,31A15.426,15.426,0,1,0,61.852,46.426,15.426,15.426,0,0,0,46.426,31Z" transform="translate(3.157 3.158)" fill="#60a917"/>
      <path id="Trazado_918327" data-name="Trazado 918327" d="M43.443,31.1a15.412,15.412,0,0,1,.116,30.65,15.416,15.416,0,1,0-.116-30.65Z" transform="translate(4.425 3.158)" fill="#549414"/>
      <rect id="Rectángulo_408586" data-name="Rectángulo 408586" width="17.63" height="4.407" rx="2" transform="translate(40.769 42.973)" fill="#f5f5f5"/>
      <rect id="Rectángulo_408587" data-name="Rectángulo 408587" width="17.63" height="4.407" rx="2" transform="translate(40.769 51.787)" fill="#f5f5f5"/>
      <path id="Trazado_918328" data-name="Trazado 918328" d="M54.685,19.815c0,1.807-1.091,3.79-4.407,5.19V22.647a4.338,4.338,0,0,0-1.873-3.6c-2.38-1.6-7.658-3.636-19.062-3.636s-16.682,2.038-19.062,3.636a4.338,4.338,0,0,0-1.873,3.6v2.138C5.476,23.407,4,21.523,4,19.815c0-3.228,4.98-6.049,12.418-7.581A64.756,64.756,0,0,1,29.343,11a64.756,64.756,0,0,1,12.925,1.234C49.705,13.766,54.685,16.586,54.685,19.815Z" transform="translate(0.407 1.12)" fill="#ff9801"/>
      <path id="Trazado_918329" data-name="Trazado 918329" d="M40.078,12.234A64.756,64.756,0,0,0,27.153,11c-.561,0-1.1.026-1.653.04a63.525,63.525,0,0,1,11.272,1.194c7.438,1.532,12.418,4.352,12.418,7.581a4.5,4.5,0,0,1-1.1,2.906V25c3.317-1.4,4.407-3.383,4.407-5.19C52.5,16.586,47.515,13.766,40.078,12.234Z" transform="translate(2.597 1.12)" fill="#f57c00"/>
      <path id="Trazado_918330" data-name="Trazado 918330" d="M41.12,13.253a64.756,64.756,0,0,0-12.925-1.234A64.757,64.757,0,0,0,15.27,13.253L16.6,3.843A3.323,3.323,0,0,1,20.746,1.11a29.29,29.29,0,0,0,7.449.992,29.29,29.29,0,0,0,7.449-.992,3.323,3.323,0,0,1,4.143,2.733Z" transform="translate(1.555 0.102)" fill="sienna"/>
      <path id="Trazado_918331" data-name="Trazado 918331" d="M34.69,3.843l1.252,8.837c1.172.166,2.314.354,3.387.576L38,3.843A3.323,3.323,0,0,0,33.853,1.11c-.31.08-.661.159-1,.238A3.3,3.3,0,0,1,34.69,3.843Z" transform="translate(3.346 0.102)" fill="#783e22"/>
      <path id="Trazado_918332" data-name="Trazado 918332" d="M48.463,60.325H11V47.841l5.509-1.851v5.52a2.21,2.21,0,0,0,2.2,2.2h17.1A15.374,15.374,0,0,0,48.463,60.325Z" transform="translate(1.12 4.685)" fill="#02a9f4"/>
      <path id="Trazado_918333" data-name="Trazado 918333" d="M33.826,53H30.52a15.374,15.374,0,0,0,12.649,6.611h3.306A15.374,15.374,0,0,1,33.826,53Z" transform="translate(3.109 5.399)" fill="#0377bc"/>
      <path id="Trazado_918334" data-name="Trazado 918334" d="M12.018,47.67V60.154H2.189a1.191,1.191,0,0,1-.97-1.873l5.157-7.371a6.553,6.553,0,0,1,3.295-2.457Z" transform="translate(0.102 4.856)" fill="#ffdf00"/>
      <path id="Trazado_918335" data-name="Trazado 918335" d="M35.3,53.816H18.2a2.21,2.21,0,0,1-2.2-2.2v-5.52l3.306-1.1V45s2.2,4.407,8.815,4.407a11.76,11.76,0,0,0,4.8-.948,15.255,15.255,0,0,0,2.38,5.355Z" transform="translate(1.63 4.583)" fill="#ffdf00"/>
      <path id="Trazado_918336" data-name="Trazado 918336" d="M31.644,48.14a11.19,11.19,0,0,1-3.074.827A15.369,15.369,0,0,0,30.719,53.5h3.306A15.255,15.255,0,0,1,31.644,48.14Z" transform="translate(2.91 4.904)" fill="#fec108"/>
      <path id="Trazado_918337" data-name="Trazado 918337" d="M32.222,45.862a14.939,14.939,0,0,0,.4,3.46,11.76,11.76,0,0,1-4.8.948C21.2,50.269,19,45.862,19,45.862v-.011a7.109,7.109,0,0,0,3.295-5.5,6.925,6.925,0,0,0-.342-2.435c.364.264.749.518,1.135.76a10.007,10.007,0,0,0,4.727,1.664c2.4,0,5.6-1.994,7.548-3.8a15.349,15.349,0,0,0-3.14,9.322Z" transform="translate(1.935 3.722)" fill="#ffe0b2"/>
      <path id="Trazado_918338" data-name="Trazado 918338" d="M45.055,24.917a4.407,4.407,0,0,1-4.407,4.4l-1.62,4.87a11.175,11.175,0,0,1-1.388,2.788,13.983,13.983,0,0,0-1.565,1.763c-1.95,1.807-5.146,3.8-7.548,3.8A10.007,10.007,0,0,1,23.8,40.872c-.386-.242-.771-.5-1.135-.76A14.642,14.642,0,0,1,20,37.731a10.788,10.788,0,0,1-1.972-3.548l-1.62-4.87a4.4,4.4,0,1,1,0-8.793c5.509-.011,12.12,3.295,12.12-5.52,0,8.815,6.611,5.509,12.12,5.52a4.407,4.407,0,0,1,4.407,4.4Z" transform="translate(1.223 1.528)" fill="#ffe0b2"/>
      <path id="Trazado_918339" data-name="Trazado 918339" d="M39.275,20.01a21.342,21.342,0,0,0-2.26.138,4.386,4.386,0,0,1-.008,8.533A2.113,2.113,0,0,0,35.539,30.1L34.35,33.673a11.175,11.175,0,0,1-1.388,2.788A13.984,13.984,0,0,0,31.4,38.224a16.125,16.125,0,0,1-5.915,3.534,6.049,6.049,0,0,0,1.673.268c2.4,0,5.6-1.994,7.548-3.8a13.983,13.983,0,0,1,1.565-1.763,11.175,11.175,0,0,0,1.388-2.788l1.62-4.87a4.4,4.4,0,1,0,0-8.793Z" transform="translate(2.595 2.038)" fill="#dfc49c"/>
      <path id="Trazado_918340" data-name="Trazado 918340" d="M28.935,15c0,8.815-6.611,5.509-12.12,5.52a4.4,4.4,0,1,0,0,8.793l1.62,4.87a10.788,10.788,0,0,0,1.972,3.548,14.641,14.641,0,0,0,2.666,2.38,6.925,6.925,0,0,1,.342,2.435h-7.7A7.713,7.713,0,0,1,8,34.833V22.239a4.338,4.338,0,0,1,1.873-3.6C12.253,17.038,17.531,15,28.935,15Z" transform="translate(0.815 1.528)" fill="sienna"/>
      <path id="Trazado_918341" data-name="Trazado 918341" d="M47.935,22.239V32.674c-.364-.033-.727-.044-1.1-.044a15.361,15.361,0,0,0-10.721,4.341A11.175,11.175,0,0,0,37.5,34.183l1.62-4.87a4.4,4.4,0,1,0,0-8.793C33.611,20.509,27,23.815,27,15c11.4,0,16.682,2.038,19.062,3.636a4.338,4.338,0,0,1,1.873,3.6Z" transform="translate(2.75 1.528)" fill="sienna"/>
      <path id="Trazado_918342" data-name="Trazado 918342" d="M47.935,22.239V32.674c-.364-.033-.727-.044-1.1-.044a14.617,14.617,0,0,0-2.2.165V22.239a4.338,4.338,0,0,0-1.873-3.6C40.619,17.2,36.134,15.419,27,15.066V15c11.4,0,16.682,2.038,19.062,3.636a4.338,4.338,0,0,1,1.873,3.6Z" transform="translate(2.75 1.528)" fill="#783e22"/>
      <path id="Trazado_918343" data-name="Trazado 918343" d="M51.787,33.22V26.829c3.811-1.854,4.407-4.461,4.407-5.894,0-4.043-5.368-6.916-12.536-8.5L42.431,3.788A4.424,4.424,0,0,0,36.922.152a27.121,27.121,0,0,1-14.334,0,4.425,4.425,0,0,0-5.52,3.642l-1.226,8.648c-7.168,1.58-12.536,4.454-12.536,8.5,0,2.128,1.605,4.151,4.407,5.635v9.791a8.825,8.825,0,0,0,8.815,8.815h6.41a6.585,6.585,0,0,1-2.519,3.408l-11,3.678a7.619,7.619,0,0,0-3.851,2.876L.416,62.5a2.292,2.292,0,0,0,1.878,3.607h47.29a16.519,16.519,0,0,0,2.2-32.892Zm-10.177,1.9,1.074-3.232a5.5,5.5,0,0,0-.814-10.937,25.827,25.827,0,0,0-3.845.317c-2.444.3-4.753.593-5.95-.467A4.647,4.647,0,0,1,30.9,17.643c10.749.14,15.444,2.19,17.293,3.433a3.225,3.225,0,0,1,1.389,2.691v9.289a16.418,16.418,0,0,0-7.973,2.059ZM18.731,51.472l1.739-.582c1.049,1.422,3.8,4.2,9.28,4.2A13.46,13.46,0,0,0,33.8,54.5a16.417,16.417,0,0,0,1.173,2.8H19.833a1.1,1.1,0,0,1-1.1-1.1Zm14.573.865a11.163,11.163,0,0,1-3.555.552A8.98,8.98,0,0,1,22.406,49.8a7.78,7.78,0,0,0,2.927-5.963,10.01,10.01,0,0,0,4.417,1.324,9.807,9.807,0,0,0,4.344-1.291,15.933,15.933,0,0,0-.789,8.463ZM29.75,21.426a4.722,4.722,0,0,0,.866,1.023c1.946,1.718,4.862,1.352,7.683,1a29.347,29.347,0,0,1,3.547-.3h.024a3.295,3.295,0,1,1,0,6.589,1.1,1.1,0,0,0-1.046.755l-1.615,4.858a10.119,10.119,0,0,1-1.229,2.478,16.691,16.691,0,0,0-1.432,1.625c-1.881,1.742-4.815,3.506-6.8,3.506a8.925,8.925,0,0,1-4.152-1.5,15.59,15.59,0,0,1-3.538-2.917,9.645,9.645,0,0,1-1.763-3.18l-1.62-4.87a1.1,1.1,0,0,0-1.048-.755,3.295,3.295,0,0,1,0-6.589,30.616,30.616,0,0,1,3.569.3c2.819.35,5.736.716,7.683-1a4.721,4.721,0,0,0,.868-1.023ZM19.249,4.1a2.187,2.187,0,0,1,.971-1.53,2.226,2.226,0,0,1,1.8-.294,29.318,29.318,0,0,0,15.458,0,2.243,2.243,0,0,1,1.8.3A2.183,2.183,0,0,1,40.25,4.1l1.118,7.887a70.093,70.093,0,0,0-23.237,0ZM5.509,20.935c0-3.648,9.955-7.713,24.241-7.713s24.241,4.065,24.241,7.713a4.077,4.077,0,0,1-2.2,3.376v-.544a5.427,5.427,0,0,0-2.361-4.518c-2.6-1.744-8.121-3.823-19.676-3.823s-17.079,2.079-19.679,3.826a5.426,5.426,0,0,0-2.358,4.515v.253a4.236,4.236,0,0,1-2.2-3.085ZM9.917,36.361V23.767A3.224,3.224,0,0,1,11.3,21.079c1.852-1.244,6.548-3.3,17.3-3.436A4.647,4.647,0,0,1,27.428,20.8c-1.2,1.06-3.512.771-5.95.467a31.044,31.044,0,0,0-3.815-.317H17.63a5.5,5.5,0,0,0-.814,10.937L18.2,36.07a11.862,11.862,0,0,0,2.179,3.9,15.8,15.8,0,0,0,2.534,2.314,6.544,6.544,0,0,1,.159.691H16.528a6.618,6.618,0,0,1-6.611-6.612ZM2.222,63.767,7.382,56.4a5.44,5.44,0,0,1,2.746-2.051l.89-.3v9.856H2.294Zm11,.141V53.315l3.306-1.1v3.982A3.306,3.306,0,0,0,19.833,59.5H36.392a16.645,16.645,0,0,0,4.98,4.407Zm36.361,0A14.324,14.324,0,1,1,63.908,49.584,14.324,14.324,0,0,1,49.583,63.908Z" transform="translate(0 0)"/>
      <path id="Trazado_918344" data-name="Trazado 918344" d="M52.528,38H39.306a3.306,3.306,0,1,0,0,6.611H52.528a3.306,3.306,0,0,0,0-6.611Zm0,4.407H39.306a1.1,1.1,0,0,1,0-2.2H52.528a1.1,1.1,0,0,1,0,2.2Z" transform="translate(3.667 3.871)"/>
      <path id="Trazado_918345" data-name="Trazado 918345" d="M52.528,46H39.306a3.306,3.306,0,0,0,0,6.611H52.528a3.306,3.306,0,0,0,0-6.611Zm0,4.407H39.306a1.1,1.1,0,0,1,0-2.2H52.528a1.1,1.1,0,0,1,0,2.2Z" transform="translate(3.667 4.686)"/>
      <path id="Trazado_918346" data-name="Trazado 918346" d="M25.1,34.195a6.419,6.419,0,0,0,2.211.481,6.29,6.29,0,0,0,2.2-.481,1.1,1.1,0,1,0,0-2.2,3.817,3.817,0,0,1-2.2,1.1,3.878,3.878,0,0,1-2.211-1.1,1.1,1.1,0,1,0,0,2.2Z" transform="translate(2.444 2.259)"/>
      <path id="Trazado_918347" data-name="Trazado 918347" d="M28.306,34.991H26.1a1.1,1.1,0,1,0,0,2.2h2.2a1.1,1.1,0,0,0,0-2.2Z" transform="translate(2.546 3.564)"/>
      <path id="Trazado_918348" data-name="Trazado 918348" d="M21.1,22.991a1.1,1.1,0,1,0,0,2.2,1.1,1.1,0,1,0,2.2,0,1.1,1.1,0,1,0,0-2.2Z" transform="translate(2.037 2.342)"/>
      <path id="Trazado_918349" data-name="Trazado 918349" d="M31.1,25.195a1.1,1.1,0,1,0,2.2,0,1.1,1.1,0,1,0,0-2.2H31.1a1.1,1.1,0,1,0,0,2.2Z" transform="translate(3.056 2.342)"/>
      <path id="Trazado_918350" data-name="Trazado 918350" d="M26.1,30.195h2.2a1.1,1.1,0,0,0,0-2.2H26.1a1.1,1.1,0,0,0,0,2.2Z" transform="translate(2.546 2.851)"/>
    </g>
  </g>
</svg>
