<svg xmlns="http://www.w3.org/2000/svg" xmlns:xlink="http://www.w3.org/1999/xlink" width="208.051" height="119.263" viewBox="0 0 208.051 119.263">
  <defs>
    <filter id="influencer-their-pet-creating-content-online-spaces-social-media" x="0" y="32" width="208.051" height="87" filterUnits="userSpaceOnUse">
      <feOffset dy="3" input="SourceAlpha"/>
      <feGaussianBlur stdDeviation="3" result="blur"/>
      <feFlood flood-opacity="0.161"/>
      <feComposite operator="in" in2="blur"/>
      <feComposite in="SourceGraphic"/>
    </filter>
    <filter id="Rect치ngulo_401593" x="42.457" y="0" width="71.898" height="119.263" filterUnits="userSpaceOnUse">
      <feOffset dy="3" input="SourceAlpha"/>
      <feGaussianBlur stdDeviation="3" result="blur-2"/>
      <feFlood flood-opacity="0.161"/>
      <feComposite operator="in" in2="blur-2"/>
      <feComposite in="SourceGraphic"/>
    </filter>
  </defs>
  <g id="Grupo_1198154" data-name="Grupo 1198154" transform="translate(-1220.949 -2117)">
    <g transform="matrix(1, 0, 0, 1, 1220.95, 2117)" filter="url(#influencer-their-pet-creating-content-online-spaces-social-media)">
      <path id="influencer-their-pet-creating-content-online-spaces-social-media-2" data-name="influencer-their-pet-creating-content-online-spaces-social-media" d="M0,0H190.051V69H0Z" transform="translate(9 38)" fill="#f9e5d6"/>
    </g>
    <g id="Grupo_1182090" data-name="Grupo 1182090" transform="translate(1031.625 -3625)">
      <g transform="matrix(1, 0, 0, 1, 189.32, 5742)" filter="url(#Rect치ngulo_401593)">
        <rect id="Rect치ngulo_401593-2" data-name="Rect치ngulo 401593" width="53.898" height="101.263" rx="8" transform="translate(51.46 6)" fill="#ffea99"/>
      </g>
    </g>
    <g id="farming_16223840" transform="translate(1292.584 2122)">
      <path id="Trazado_918599" data-name="Trazado 918599" d="M38.176,18.307a65.579,65.579,0,0,1,15.967,1.88L50.247,4.4A3.264,3.264,0,0,0,47.1,2H29.251A3.264,3.264,0,0,0,26.1,4.4l-3.9,15.786a65.519,65.519,0,0,1,15.968-1.882Z" transform="translate(7.7 0.631)" fill="#ea8e49"/>
      <path id="Trazado_918600" data-name="Trazado 918600" d="M36.636,16.256A66.147,66.147,0,0,1,52.063,18L48.707,4.4A3.264,3.264,0,0,0,45.559,2H30.972a3.264,3.264,0,0,0-3.147,2.4L24.65,17.269A69.238,69.238,0,0,1,36.636,16.256Z" transform="translate(9.24 0.631)" fill="#fcab68"/>
      <path id="Trazado_918601" data-name="Trazado 918601" d="M37.677,16A76.5,76.5,0,0,0,23,17.313V24.8a23.414,23.414,0,0,0,4.362,13.612,12.674,12.674,0,0,0,20.629,0A23.417,23.417,0,0,0,52.353,24.8V17.314A76.361,76.361,0,0,0,37.677,16Z" transform="translate(8.2 9.461)" fill="#f2b789"/>
      <path id="Trazado_918602" data-name="Trazado 918602" d="M43.984,12C26.873,12,13,17.841,13,25.046c0,5.316,7.565,9.882,18.4,11.914a23.377,23.377,0,0,1-2.094-9.634V19.837a76.362,76.362,0,0,1,14.677-1.314,76.5,76.5,0,0,1,14.677,1.313v7.488a23.385,23.385,0,0,1-2.094,9.636c10.836-2.032,18.4-6.6,18.4-11.914C74.968,17.841,61.1,12,43.984,12Z" transform="translate(1.892 6.938)" fill="#ea8e49"/>
      <path id="Trazado_918603" data-name="Trazado 918603" d="M25.523,22.28V20H23.077a4.077,4.077,0,0,0,0,8.154h3.209A23.366,23.366,0,0,1,25.523,22.28Z" transform="translate(5.677 11.984)" fill="#f2b789"/>
      <path id="Trazado_918604" data-name="Trazado 918604" d="M36.415,16A82.659,82.659,0,0,0,25,16.757V24.8a23.414,23.414,0,0,0,4.362,13.612,12.674,12.674,0,0,0,8.684,5.2,12.668,12.668,0,0,0,8.684-5.2A23.417,23.417,0,0,0,51.092,24.8V17.314A76.361,76.361,0,0,0,36.415,16Z" transform="translate(9.461 9.461)" fill="#f6cca5"/>
      <path id="Trazado_918605" data-name="Trazado 918605" d="M53.4,36l14.975,3.744A14.676,14.676,0,0,1,79.491,53.982V78.4H11V53.982A14.676,14.676,0,0,1,22.117,39.744L37.092,36l.548.822a9.141,9.141,0,0,0,15.212,0Z" transform="translate(0.631 22.076)" fill="#ea8e49"/>
      <path id="Trazado_918606" data-name="Trazado 918606" d="M35.154,43.937a9.144,9.144,0,0,0,7.606-4.07l.548-.822V31.172a12.642,12.642,0,0,1-16.307,0v7.873l.548.822A9.142,9.142,0,0,0,35.154,43.937Z" transform="translate(10.723 19.031)" fill="#f2b789"/>
      <path id="Trazado_918607" data-name="Trazado 918607" d="M34.523,43.937a9.144,9.144,0,0,0,7.606-4.07l.548-.822V31.172A12.59,12.59,0,0,1,28,32.32v8.855A9.125,9.125,0,0,0,34.523,43.937Z" transform="translate(11.353 19.031)" fill="#f6cca5"/>
      <path id="Trazado_918608" data-name="Trazado 918608" d="M78.23,53.982A14.676,14.676,0,0,0,67.113,39.744L52.138,36l-.548.822a9.141,9.141,0,0,1-15.212,0L35.83,36,20.855,39.744A14.641,14.641,0,0,0,13,44.77V56.706a16.8,16.8,0,0,0,16.8,16.8H78.23Z" transform="translate(1.892 22.076)" fill="#fcab68"/>
      <path id="Trazado_918609" data-name="Trazado 918609" d="M56.876,70.83,55.353,49.515A1.63,1.63,0,0,0,53.727,48H24.149a1.629,1.629,0,0,0-1.626,1.515L21,70.83Z" transform="translate(6.938 29.645)" fill="#5d6972"/>
      <path id="Trazado_918610" data-name="Trazado 918610" d="M54.343,49.515A1.63,1.63,0,0,0,52.717,48H23.789L22.612,64.479a3.646,3.646,0,0,0,3.637,3.906H55.691Z" transform="translate(7.949 29.645)" fill="#7a838b"/>
      <path id="Trazado_918611" data-name="Trazado 918611" d="M11,56h9.784v9.784H11Z" transform="translate(0.631 34.691)" fill="#f2b789"/>
      <path id="Trazado_918612" data-name="Trazado 918612" d="M12,60.892a3.261,3.261,0,0,0,3.261,3.261h4.892V56H12Z" transform="translate(1.261 34.691)" fill="#f6cca5"/>
      <path id="Trazado_918613" data-name="Trazado 918613" d="M47,56h9.784v9.784H47Z" transform="translate(23.337 34.691)" fill="#f2b789"/>
      <path id="Trazado_918614" data-name="Trazado 918614" d="M49,60.892a3.261,3.261,0,0,0,3.261,3.261h3.261V56H49Z" transform="translate(24.599 34.691)" fill="#f6cca5"/>
      <path id="Trazado_918615" data-name="Trazado 918615" d="M41.6,36.706,37,55.124h6.523L48.1,38.33Z" transform="translate(17.03 22.521)" fill="#5d6972"/>
      <path id="Trazado_918616" data-name="Trazado 918616" d="M47.55,38.26l-5.776-1.443-3.849,15.4a1.632,1.632,0,0,0,1.582,2.027h3.685Z" transform="translate(17.582 22.591)" fill="#7a838b"/>
      <path id="Trazado_918617" data-name="Trazado 918617" d="M24.772,55.124h6.523L26.69,36.706l-6.5,1.624Z" transform="translate(6.428 22.521)" fill="#5d6972"/>
      <path id="Trazado_918618" data-name="Trazado 918618" d="M26.291,36.706l-5.468,1.367,3.7,13.548A3.19,3.19,0,0,0,27.6,53.972h3.012Z" transform="translate(6.827 22.521)" fill="#7a838b"/>
      <path id="Trazado_918619" data-name="Trazado 918619" d="M26,52H45.569V68.307H26Z" transform="translate(10.092 32.168)" fill="#cecece"/>
      <path id="Trazado_918620" data-name="Trazado 918620" d="M26,52H45.569V65.046H26Z" transform="translate(10.092 32.168)" fill="#e6e6e6"/>
      <path id="Trazado_918621" data-name="Trazado 918621" d="M26,52H45.569v6.523H26Z" transform="translate(10.092 32.168)" fill="#80bbce"/>
      <path id="Trazado_918622" data-name="Trazado 918622" d="M27,53.631a3.261,3.261,0,0,0,3.261,3.261H44.938V52H27Z" transform="translate(10.723 32.168)" fill="#a7d0e1"/>
      <path id="Trazado_918623" data-name="Trazado 918623" d="M43.741,20H41.3v2.28a23.357,23.357,0,0,1-.763,5.874h3.209a4.077,4.077,0,0,0,0-8.154Z" transform="translate(19.258 11.984)" fill="#f2b789"/>
      <path id="Trazado_918624" data-name="Trazado 918624" d="M43.741,20H41.3v2.28a23.357,23.357,0,0,1-.763,5.874h3.209a4.077,4.077,0,0,0,0-8.154Z" transform="translate(19.258 11.984)" fill="#f2b789"/>
      <g id="Grupo_1198932" data-name="Grupo 1198932" transform="translate(16.903 18.938)">
        <path id="Trazado_918625" data-name="Trazado 918625" d="M57.885,25.046h2.444a4.065,4.065,0,0,1,4.026,3.568c4.2-1.446,7.513-3.336,9.455-5.517C71.57,16.819,58.742,12,43.208,12c-13.271,0-24.562,3.519-28.975,8.459.956,2.7,3.878,5.129,8.126,7.022a4.075,4.075,0,0,1,3.726-2.435h2.446v-5.21a76.5,76.5,0,0,1,14.677-1.313,76.5,76.5,0,0,1,14.677,1.313Z" transform="translate(-14.233 -12)" fill="#fcab68"/>
      </g>
      <g id="Grupo_1198933" data-name="Grupo 1198933" transform="translate(10 1)">
        <path id="Trazado_918626" data-name="Trazado 918626" d="M69.4,60.238,55.661,56.8V50.912a14.2,14.2,0,0,0,1.857-2.089A25.092,25.092,0,0,0,59.6,45.338c11.668-2.36,18.891-7.433,18.891-13.354,0-5.029-5.367-9.383-13.7-12.017L59.583,4.345A4.889,4.889,0,0,0,54.94,1H36.811A4.886,4.886,0,0,0,32.17,4.345L26.963,19.967c-8.335,2.634-13.7,6.988-13.7,12.017,0,5.921,7.221,10.994,18.889,13.353a25.12,25.12,0,0,0,2.084,3.487,14.186,14.186,0,0,0,1.857,2.089V56.8L22.353,60.238A16.281,16.281,0,0,0,10,76.058a1.631,1.631,0,1,0,3.261,0A13.027,13.027,0,0,1,23.144,63.4l2.926-.732,3.209,13.9a3.255,3.255,0,0,0-1.443,2.471l-1.415,19.8H23.046V84.168a1.631,1.631,0,1,0-3.261,0V89.06H13.261V84.168a1.631,1.631,0,1,0-3.261,0v16.307a1.629,1.629,0,0,0,1.631,1.631H80.122a1.629,1.629,0,0,0,1.631-1.631V76.058A16.281,16.281,0,0,0,69.4,60.238Zm9.091,15.82v13H71.968V84.168a1.631,1.631,0,0,0-3.261,0V98.844H65.333l-1.414-19.8a3.263,3.263,0,0,0-1.443-2.472l3.208-13.9,2.927.732a13.029,13.029,0,0,1,9.881,12.658Zm-39.47-.044L35.4,60.336l1.6-.4a10.772,10.772,0,0,0,17.744,0l1.6.4L52.732,76.014ZM59.514,61.127l3,.75L59.255,76.012H56.08Zm9.192-29.143c0,.126-.209.5-.918.993A5.7,5.7,0,0,0,63,30.353h-.815V28.8C66.494,29.879,68.707,31.206,68.707,31.984Zm-6.523,2.278v-.647H63a2.446,2.446,0,0,1,0,4.892H61.815A25.324,25.324,0,0,0,62.184,34.262ZM35.263,5.377a1.63,1.63,0,0,1,1.548-1.115H54.94a1.629,1.629,0,0,1,1.548,1.115l4.52,13.563a67.719,67.719,0,0,0-15.132-1.632A67.745,67.745,0,0,0,30.743,18.94ZM23.046,31.984c0-.525,1.74-1.978,6.523-3.178v1.548h-.815a5.7,5.7,0,0,0-4.788,2.624C23.253,32.481,23.046,32.11,23.046,31.984Zm5.708,1.631h.815v.647a25.339,25.339,0,0,0,.369,4.245H28.754a2.446,2.446,0,1,1,0-4.892Zm4.077.647V28.119c1.047-.181,2.19-.347,3.441-.494a1.63,1.63,0,0,0,1.43-1.808,1.606,1.606,0,0,0-1.808-1.43c-6.016.7-16.108,2.621-16.108,7.6,0,1.636,1.1,3.067,3.281,4.269a5.637,5.637,0,0,0,1.223,3.319c-4.847-2.092-7.766-4.814-7.766-7.588,0-5.4,12.056-11.415,29.353-11.415S75.23,26.585,75.23,31.984c0,2.774-2.921,5.5-7.766,7.588a5.648,5.648,0,0,0,1.223-3.319c2.179-1.2,3.281-2.634,3.281-4.269,0-5.6-13.525-8.154-26.092-8.154q-1.683,0-3.309.059a1.63,1.63,0,1,0,.117,3.258q1.566-.054,3.191-.055a76.344,76.344,0,0,1,13.046,1.024v6.146a21.679,21.679,0,0,1-4.057,12.666,11.047,11.047,0,0,1-17.977,0A21.675,21.675,0,0,1,32.83,34.262ZM45.876,54.814A14.315,14.315,0,0,0,52.4,53.236v4.346l-.274.411a7.51,7.51,0,0,1-12.5,0l-.274-.411V53.236A14.31,14.31,0,0,0,45.876,54.814Zm-13.64,6.313,3.436,14.887H32.5L29.235,61.879Zm-1.15,18.149h29.58l1.4,19.569H57.292V84.168a1.629,1.629,0,0,0-1.631-1.631h-9.8a1.631,1.631,0,1,0,0,3.261H54.03V89.06H37.723V85.8h1.631a1.631,1.631,0,1,0,0-3.261H36.092a1.629,1.629,0,0,0-1.631,1.631V98.844H29.69Zm6.635,13.046H54.03v6.523H37.723Zm-24.461,0h6.523v6.523H13.261Zm58.707,6.523V92.322h6.523v6.523Z" transform="translate(-10 -1)"/>
        <path id="Trazado_918627" data-name="Trazado 918627" d="M28,26.631a6.523,6.523,0,1,0,13.046,0,1.631,1.631,0,1,0-3.261,0,3.261,3.261,0,1,1-6.523,0,1.631,1.631,0,0,0-3.261,0Z" transform="translate(1.353 14.138)"/>
        <path id="Trazado_918628" data-name="Trazado 918628" d="M28.631,23.892a1.629,1.629,0,0,0,1.631-1.631V20.631a1.631,1.631,0,0,0-3.261,0v1.631A1.629,1.629,0,0,0,28.631,23.892Z" transform="translate(0.723 10.353)"/>
        <path id="Trazado_918629" data-name="Trazado 918629" d="M36.631,23.892a1.629,1.629,0,0,0,1.631-1.631V20.631a1.631,1.631,0,1,0-3.261,0v1.631A1.629,1.629,0,0,0,36.631,23.892Z" transform="translate(5.769 10.353)"/>
      </g>
    </g>
  </g>
</svg>
