<svg xmlns="http://www.w3.org/2000/svg" xmlns:xlink="http://www.w3.org/1999/xlink" width="118" height="118" viewBox="0 0 118 118">
  <defs>
    <filter id="Trazado_896985" x="0" y="0" width="118" height="118" filterUnits="userSpaceOnUse">
      <feOffset dy="3" input="SourceAlpha"/>
      <feGaussianBlur stdDeviation="3" result="blur"/>
      <feFlood flood-opacity="0.161"/>
      <feComposite operator="in" in2="blur"/>
      <feComposite in="SourceGraphic"/>
    </filter>
  </defs>
  <g id="Grupo_1199148" data-name="Grupo 1199148" transform="translate(-326.408 -8275.206)">
    <g id="Grupo_1198164" data-name="Grupo 1198164" transform="translate(0.517 4429.206)">
      <g id="Grupo_1111318" data-name="Grupo 1111318" transform="translate(334.891 3852)">
        <g id="Grupo_1109826" data-name="Grupo 1109826" transform="translate(0)">
          <g id="Grupo_1098742" data-name="Grupo 1098742" transform="translate(0 0)">
            <g transform="matrix(1, 0, 0, 1, -9, -6)" filter="url(#Trazado_896985)">
              <g id="Trazado_896985-2" data-name="Trazado 896985" transform="translate(9 6)" fill="#d6edba" opacity="0.859">
                <path d="M 49.99993515014648 99 C 43.38454818725586 99 36.96757507324219 97.70458221435547 30.92725563049316 95.14974212646484 C 25.09249496459961 92.68184661865234 19.85213470458984 89.14863586425781 15.3517484664917 84.64824676513672 C 10.85136222839355 80.14786529541016 7.318148612976074 74.90750122070312 4.850255012512207 69.07274627685547 C 2.295415163040161 63.03242111206055 1.000001788139343 56.61544799804688 1.000001788139343 50.00006103515625 C 1.000001788139343 43.38454437255859 2.295415163040161 36.96757125854492 4.850255012512207 30.92724990844727 C 7.318148612976074 25.09248924255371 10.85136222839355 19.85212898254395 15.3517484664917 15.3517427444458 C 19.85213470458984 10.85135650634766 25.09249496459961 7.318142890930176 30.92725563049316 4.850249290466309 C 36.96757507324219 2.295409440994263 43.38454818725586 0.9999961853027344 49.99993515014648 0.9999961853027344 C 56.61532211303711 0.9999961853027344 63.03229522705078 2.295409440994263 69.07261657714844 4.850249290466309 C 74.90737152099609 7.318142890930176 80.14773559570312 10.85135650634766 84.64812469482422 15.3517427444458 C 89.14850616455078 19.85212898254395 92.68172454833984 25.09248924255371 95.14961242675781 30.92724990844727 C 97.70445251464844 36.96757125854492 98.99987030029297 43.38454437255859 98.99987030029297 49.99993133544922 C 98.99987030029297 56.61544799804688 97.70445251464844 63.03242111206055 95.14961242675781 69.07274627685547 C 92.68172454833984 74.90750122070312 89.14850616455078 80.14786529541016 84.64812469482422 84.64824676513672 C 80.14773559570312 89.14863586425781 74.90737152099609 92.68184661865234 69.07261657714844 95.14974212646484 C 63.03229522705078 97.70458221435547 56.61532211303711 99 49.99993515014648 99 Z" stroke="none"/>
                <path d="M 49.99993515014648 1.999992370605469 C 43.51910781860352 1.999992370605469 37.23319244384766 3.268821716308594 31.31680297851562 5.771255493164062 C 25.60124969482422 8.188728332519531 20.46773529052734 11.64997863769531 16.05885314941406 16.05885314941406 C 11.64997863769531 20.46772766113281 8.188720703125 25.60124969482422 5.771247863769531 31.31681060791016 C 3.268821716308594 37.23318099975586 1.999992370605469 43.51909637451172 1.999992370605469 50.00006866455078 C 1.999992370605469 56.48089599609375 3.268821716308594 62.76681137084961 5.771247863769531 68.68319702148438 C 8.188720703125 74.39875793457031 11.64997863769531 79.53227233886719 16.05885314941406 83.94113922119141 C 20.46773529052734 88.35002136230469 25.60124969482422 91.81126403808594 31.31680297851562 94.22873687744141 C 37.23319244384766 96.73117065429688 43.51910781860352 98 49.99993515014648 98 C 56.48076248168945 98 62.76667785644531 96.73117065429688 68.68305969238281 94.22873687744141 C 74.39862060546875 91.81126403808594 79.53213500976562 88.35002136230469 83.94100952148438 83.94113922119141 C 88.34989166259766 79.53227233886719 91.81113433837891 74.39875793457031 94.22860717773438 68.68319702148438 C 96.73103332519531 62.76681137084961 97.99986267089844 56.48089599609375 97.99986267089844 49.99992370605469 C 97.99986267089844 43.51909637451172 96.73103332519531 37.23318099975586 94.22860717773438 31.31681060791016 C 91.81113433837891 25.60124969482422 88.34989166259766 20.46772766113281 83.94100952148438 16.05885314941406 C 79.53213500976562 11.64997863769531 74.39862060546875 8.188728332519531 68.68305969238281 5.771255493164062 C 62.76667785644531 3.268821716308594 56.48076248168945 1.999992370605469 49.99993515014648 1.999992370605469 M 49.99993515014648 -7.62939453125e-06 C 77.6141357421875 -7.62939453125e-06 99.99986267089844 22.3857421875 99.99986267089844 49.99992370605469 L 99.99986267089844 50.00006866455078 C 99.99986267089844 77.61426544189453 77.6141357421875 100 49.99993515014648 100 C 22.38573455810547 100 -7.62939453125e-06 77.61426544189453 -7.62939453125e-06 50.00006866455078 L -7.62939453125e-06 49.99992370605469 C -7.62939453125e-06 22.3857421875 22.38573455810547 -7.62939453125e-06 49.99993515014648 -7.62939453125e-06 Z" stroke="none" fill="#fff"/>
              </g>
            </g>
            <g id="Rectángulo_400907" data-name="Rectángulo 400907" transform="translate(0)" fill="none" stroke="#fff" stroke-width="2">
              <rect width="100" height="100" rx="50" stroke="none"/>
              <rect x="1" y="1" width="98" height="98" rx="49" fill="none"/>
            </g>
          </g>
        </g>
      </g>
    </g>
    <g id="agriculture_18007581" transform="translate(322.899 8294.823)">
      <g id="Grupo_1199147" data-name="Grupo 1199147" transform="translate(30.445 1.022)">
        <path id="Trazado_918826" data-name="Trazado 918826" d="M90.753,52.864a26.088,26.088,0,0,0,3.233-7.819l2.831-.716,3.452-.869a32.141,32.141,0,0,0,0-8.779l-3.452-.869L93.985,33.1a25.94,25.94,0,0,0-3.233-7.821l1.494-2.5,1.825-3.059a32.415,32.415,0,0,0-6.209-6.2l-3.055,1.825-2.5,1.5a26.027,26.027,0,0,0-7.819-3.233l-.716-2.835L72.9,7.307a32.469,32.469,0,0,0-8.779,0l-.873,3.452-.711,2.831a26.054,26.054,0,0,0-7.82,3.237l-2.5-1.494-3.059-1.825A31.918,31.918,0,0,0,45.837,16.4a33.387,33.387,0,0,0-2.893,3.315l1.83,3.059,1.494,2.5a26.1,26.1,0,0,0-3.237,7.819l-2.831.716-3.452.87a32.3,32.3,0,0,0,0,8.779l3.452.869,2.831.716a26.1,26.1,0,0,0,3.237,7.819l-1.494,2.5-1.83,3.06a33.388,33.388,0,0,0,2.893,3.315,31.919,31.919,0,0,0,3.316,2.889l3.059-1.825,2.5-1.494a25.938,25.938,0,0,0,7.82,3.233l.712,2.831.873,3.452a32.153,32.153,0,0,0,8.779,0l.869-3.452.716-2.827A26.143,26.143,0,0,0,82.3,61.312l2.5,1.494,3.055,1.825a32.388,32.388,0,0,0,3.32-2.889,33.342,33.342,0,0,0,2.889-3.315l-1.825-3.059Z" transform="translate(-36.445 -7.007)" fill="#ffab02" fill-rule="evenodd"/>
        <path id="Trazado_918827" data-name="Trazado 918827" d="M152.413,122.966a20.149,20.149,0,1,0-28.495,0,20.149,20.149,0,0,0,28.495,0Z" transform="translate(-106.103 -76.658)" fill="#d5e3f2" fill-rule="evenodd"/>
        <path id="Trazado_918828" data-name="Trazado 918828" d="M264.924,189.616c-4.466-.865-7.447.84-8.924,5.154C260.475,195.651,263.442,193.917,264.924,189.616Z" transform="translate(-223.937 -162.763)" fill="#a0d82c" fill-rule="evenodd"/>
        <path id="Trazado_918829" data-name="Trazado 918829" d="M242.892,121.472c-2.98,3.436-3,6.871,0,10.307C245.893,128.343,245.876,124.908,242.892,121.472Z" transform="translate(-210.829 -104.756)" fill="#a0d82c" fill-rule="evenodd"/>
        <path id="Trazado_918830" data-name="Trazado 918830" d="M194.885,189.616c4.466-.865,7.451.84,8.924,5.154C199.335,195.651,196.371,193.917,194.885,189.616Z" transform="translate(-171.746 -162.763)" fill="#a0d82c" fill-rule="evenodd"/>
        <path id="Trazado_918831" data-name="Trazado 918831" d="M264.924,240.751c-4.466-.865-7.447.836-8.924,5.149C260.475,246.782,263.442,245.048,264.924,240.751Z" transform="translate(-223.937 -206.431)" fill="#a0d82c" fill-rule="evenodd"/>
        <path id="Trazado_918832" data-name="Trazado 918832" d="M194.885,240.751c4.466-.865,7.451.836,8.924,5.149C199.335,246.782,196.371,245.048,194.885,240.751Z" transform="translate(-171.746 -206.431)" fill="#a0d82c" fill-rule="evenodd"/>
        <path id="Trazado_918833" data-name="Trazado 918833" d="M204.111,278.993a30.69,30.69,0,0,1,13.341,3.03,32.171,32.171,0,0,1-44.137,27.634,30.8,30.8,0,0,1,30.8-30.664Z" transform="translate(-153.326 -239.275)" fill="#a0d82c" fill-rule="evenodd"/>
        <path id="Trazado_918834" data-name="Trazado 918834" d="M247.138,326.87a30.753,30.753,0,0,1,6.78.749A32.2,32.2,0,0,1,216.8,352.376,30.8,30.8,0,0,1,247.138,326.87Z" transform="translate(-190.459 -280.161)" fill="#8ec423" fill-rule="evenodd"/>
        <path id="Trazado_918835" data-name="Trazado 918835" d="M271,391.3a30.806,30.806,0,0,1,27.332-19.355A32.166,32.166,0,0,1,271,391.3Z" transform="translate(-236.747 -318.65)" fill="#85b81f" fill-rule="evenodd"/>
        <path id="Trazado_918836" data-name="Trazado 918836" d="M49.74,281.941a30.8,30.8,0,0,1,30.792,30.233,32.169,32.169,0,0,1-44.1-27.216,30.628,30.628,0,0,1,13.312-3.018Z" transform="translate(-36.428 -241.792)" fill="#85b81f" fill-rule="evenodd"/>
        <path id="Trazado_918837" data-name="Trazado 918837" d="M46.746,326.814a30.808,30.808,0,0,1,30.366,25.622A32.193,32.193,0,0,1,40.6,327.431a30.714,30.714,0,0,1,6.148-.617Z" transform="translate(-39.991 -280.113)" fill="#8ec423" fill-rule="evenodd"/>
        <path id="Trazado_918838" data-name="Trazado 918838" d="M52.983,370.326a30.822,30.822,0,0,1,26.479,19.513,32.18,32.18,0,0,1-26.479-19.513Z" transform="translate(-50.566 -317.271)" fill="#a0d82c" fill-rule="evenodd"/>
        <path id="Trazado_918839" data-name="Trazado 918839" d="M47.232,19.7a32.8,32.8,0,0,1,2.889-3.315q.739-.733,1.507-1.411L49.153,13.5a31.917,31.917,0,0,0-3.316,2.889A33.387,33.387,0,0,0,42.944,19.7l1.83,3.059,1.494,2.5a26.1,26.1,0,0,0-3.237,7.819L40.2,33.8l-3.452.87a32.3,32.3,0,0,0,0,8.779l3.452.869,2.831.716a25.721,25.721,0,0,0,.782,2.682,30.455,30.455,0,0,1,4.11-.517c-.236-.716-.435-1.436-.6-2.165l-2.835-.716-3.452-.869a32.481,32.481,0,0,1,0-8.779l3.452-.869,2.835-.716a25.983,25.983,0,0,1,3.233-7.82l-1.494-2.5Zm19.587-6.121.716-2.831L68.4,7.3c.745-.1,1.5-.178,2.248-.228A32.219,32.219,0,0,0,64.12,7.3l-.873,3.452-.711,2.831a26.306,26.306,0,0,0-5.6,2L59,16.819A26.054,26.054,0,0,1,66.819,13.582Z" transform="translate(-36.445 -7)" fill="#ed9e00" fill-rule="evenodd"/>
      </g>
      <path id="Trazado_918840" data-name="Trazado 918840" d="M95.015,42.848a31.578,31.578,0,0,0-6.369-2.263c.065-.228.128-.456.187-.685l5.686-1.434a1.022,1.022,0,0,0,.763-.852,33.159,33.159,0,0,0,0-9.059,1.022,1.022,0,0,0-.763-.852l-5.686-1.434a26.9,26.9,0,0,0-2.888-6.983l3.005-5.036a1.022,1.022,0,0,0-.064-1.142,33.407,33.407,0,0,0-6.4-6.4,1.021,1.021,0,0,0-1.143-.063l-5.032,3a27.11,27.11,0,0,0-6.981-2.89L67.892,1.071a1.022,1.022,0,0,0-.853-.763,33.5,33.5,0,0,0-9.056,0,1.022,1.022,0,0,0-.853.762L55.694,6.758a27.013,27.013,0,0,0-6.981,2.89L43.677,6.643a1.022,1.022,0,0,0-1.141.063,33.044,33.044,0,0,0-3.423,2.983,34.116,34.116,0,0,0-2.983,3.418,1.022,1.022,0,0,0-.063,1.143l3.008,5.035a27.021,27.021,0,0,0-2.89,6.982L30.5,27.7a1.023,1.023,0,0,0-.763.852,33.336,33.336,0,0,0,0,9.058,1.022,1.022,0,0,0,.763.853L36.185,39.9q.14.543.3,1.079A31.416,31.416,0,0,0,30,43.266a1.022,1.022,0,0,0-.576,1,33.188,33.188,0,0,0,.625,4.268.014.014,0,0,0,0,.005l0,.007A33.191,33.191,0,0,0,59.176,74.6l.049.005q1.622.159,3.271.161a33.365,33.365,0,0,0,5.216-.41l.025,0,.034-.007a32.961,32.961,0,0,0,7.162-1.994c.012,0,.022-.012.034-.017s.049-.016.073-.026a33.25,33.25,0,0,0,17.9-17.535.974.974,0,0,0,.048-.11,32.97,32.97,0,0,0,1.9-5.915c0-.015.009-.029.012-.044s.006-.035.009-.053a33.129,33.129,0,0,0,.68-4.813,1.022,1.022,0,0,0-.577-.991ZM38.026,38.826a1.022,1.022,0,0,0-.745-.758l-5.607-1.415a31.281,31.281,0,0,1,0-7.138L37.281,28.1a1.022,1.022,0,0,0,.745-.759,24.989,24.989,0,0,1,3.11-7.513,1.022,1.022,0,0,0,.009-1.063L38.181,13.8a32.339,32.339,0,0,1,2.38-2.668,31.08,31.08,0,0,1,2.667-2.377l4.965,2.963a1.022,1.022,0,0,0,1.063-.009A25,25,0,0,1,56.769,8.6a1.022,1.022,0,0,0,.759-.746l1.414-5.605a31.458,31.458,0,0,1,7.139,0L67.5,7.855a1.022,1.022,0,0,0,.758.745,25.08,25.08,0,0,1,7.514,3.11,1.022,1.022,0,0,0,1.063.009l4.96-2.962A31.356,31.356,0,0,1,86.839,13.8l-2.962,4.964a1.022,1.022,0,0,0,.009,1.063,24.875,24.875,0,0,1,3.105,7.511,1.022,1.022,0,0,0,.745.76l5.607,1.415a31.114,31.114,0,0,1,0,7.137l-5.607,1.415a1.022,1.022,0,0,0-.745.761c-.1.448-.223.9-.354,1.342a31.9,31.9,0,0,0-4.029-.422,21.174,21.174,0,1,0-40.051.423,31.991,31.991,0,0,0-4.052.4c-.179-.574-.341-1.159-.479-1.749ZM62.508,19.4a5.594,5.594,0,0,1,0,6.991A5.6,5.6,0,0,1,62.508,19.4Zm1.022,22.278a10.979,10.979,0,0,0,1.1.058c3.726,0,6.392-2.066,7.77-6.059a1.022,1.022,0,0,0-.771-1.337c-3.457-.672-6.2.1-8.1,2.244v-2.37c.374.038.739.058,1.1.058,3.731,0,6.4-2.066,7.774-6.062a1.022,1.022,0,0,0-.773-1.337c-3.457-.668-6.2.109-8.1,2.252v-.705c3.064-3.713,2.981-7.63-.251-11.351a1.022,1.022,0,0,0-1.544,0c-3.227,3.721-3.31,7.637-.25,11.351v.7c-1.9-2.142-4.641-2.918-8.1-2.251a1.022,1.022,0,0,0-.772,1.338C54,32.2,56.666,34.27,60.39,34.27a10.958,10.958,0,0,0,1.1-.059v2.37c-1.9-2.142-4.641-2.915-8.1-2.243a1.022,1.022,0,0,0-.771,1.338c1.38,3.994,4.047,6.06,7.774,6.06a10.939,10.939,0,0,0,1.094-.058v3.866a31.623,31.623,0,0,0-16.746-5.38,19.128,19.128,0,1,1,35.709-.437A31.428,31.428,0,0,0,63.531,45.09Zm.412-2.012A5.585,5.585,0,0,1,70,36.17a5.589,5.589,0,0,1-6.053,3.493Zm0-7.464A5.6,5.6,0,0,1,69.994,28.7,5.59,5.59,0,0,1,63.943,32.2Zm-2.867,0a5.593,5.593,0,0,1-6.053-3.494A5.6,5.6,0,0,1,61.076,32.2Zm0,7.466a5.6,5.6,0,0,1-6.053-3.494,5.585,5.585,0,0,1,6.054,3.493ZM34.555,55.276A29.929,29.929,0,0,1,57.7,72.342,31.424,31.424,0,0,1,34.555,55.276ZM62.5,72.72c-.823,0-1.638-.035-2.447-.1A31.837,31.837,0,0,0,33.585,53.109,30.65,30.65,0,0,1,32.3,49.152,29.794,29.794,0,0,1,66.364,72.48a31.419,31.419,0,0,1-3.867.24Zm5.889-.558A31.46,31.46,0,0,0,55.236,52.308,31.8,31.8,0,0,0,31.863,47.15q-.21-1.156-.334-2.34a29.291,29.291,0,0,1,6.449-2.06l.015,0a30,30,0,0,1,5.764-.555A29.638,29.638,0,0,1,67.7,54.157a1,1,0,0,0,.4.546,29.512,29.512,0,0,1,3.8,7.408,1.014,1.014,0,0,0,.142.428A30.141,30.141,0,0,1,73.5,70.714a30.911,30.911,0,0,1-5.118,1.447Zm7.12-2.286A31.821,31.821,0,0,0,74.1,62.335,29.83,29.83,0,0,1,90.34,55.457,31.339,31.339,0,0,1,75.5,69.876Zm15.8-16.55a31.877,31.877,0,0,0-17.94,6.959A31.452,31.452,0,0,0,70.1,54.1a29.737,29.737,0,0,1,22.559-4.833,31.026,31.026,0,0,1-1.347,4.058ZM93.1,47.27a31.778,31.778,0,0,0-24.206,5.178,32.122,32.122,0,0,0-2.983-3.322q-.977-.946-2.02-1.8A29.825,29.825,0,0,1,93.5,44.4q-.131,1.453-.4,2.874Z" transform="translate(0)"/>
    </g>
  </g>
</svg>
