<svg xmlns="http://www.w3.org/2000/svg" xmlns:xlink="http://www.w3.org/1999/xlink" width="118" height="118" viewBox="0 0 118 118">
  <defs>
    <filter id="Trazado_896985" x="0" y="0" width="118" height="118" filterUnits="userSpaceOnUse">
      <feOffset dy="3" input="SourceAlpha"/>
      <feGaussianBlur stdDeviation="3" result="blur"/>
      <feFlood flood-opacity="0.161"/>
      <feComposite operator="in" in2="blur"/>
      <feComposite in="SourceGraphic"/>
    </filter>
  </defs>
  <g id="Grupo_1199150" data-name="Grupo 1199150" transform="translate(-742.298 -8275.206)">
    <g id="Grupo_1198165" data-name="Grupo 1198165" transform="translate(416.408 4429.206)">
      <g id="Grupo_1111318" data-name="Grupo 1111318" transform="translate(334.891 3852)">
        <g id="Grupo_1109826" data-name="Grupo 1109826" transform="translate(0)">
          <g id="Grupo_1098742" data-name="Grupo 1098742" transform="translate(0 0)">
            <g transform="matrix(1, 0, 0, 1, -9, -6)" filter="url(#Trazado_896985)">
              <g id="Trazado_896985-2" data-name="Trazado 896985" transform="translate(9 6)" fill="#d6edba" opacity="0.859">
                <path d="M 49.99993515014648 99 C 43.38454818725586 99 36.96757507324219 97.70458221435547 30.92725563049316 95.14974212646484 C 25.09249496459961 92.68184661865234 19.85213470458984 89.14863586425781 15.3517484664917 84.64824676513672 C 10.85136222839355 80.14786529541016 7.318148612976074 74.90750122070312 4.850255012512207 69.07274627685547 C 2.295415163040161 63.03242111206055 1.000001788139343 56.61544799804688 1.000001788139343 50.00006103515625 C 1.000001788139343 43.38454437255859 2.295415163040161 36.96757125854492 4.850255012512207 30.92724990844727 C 7.318148612976074 25.09248924255371 10.85136222839355 19.85212898254395 15.3517484664917 15.3517427444458 C 19.85213470458984 10.85135650634766 25.09249496459961 7.318142890930176 30.92725563049316 4.850249290466309 C 36.96757507324219 2.295409440994263 43.38454818725586 0.9999961853027344 49.99993515014648 0.9999961853027344 C 56.61532211303711 0.9999961853027344 63.03229522705078 2.295409440994263 69.07261657714844 4.850249290466309 C 74.90737152099609 7.318142890930176 80.14773559570312 10.85135650634766 84.64812469482422 15.3517427444458 C 89.14850616455078 19.85212898254395 92.68172454833984 25.09248924255371 95.14961242675781 30.92724990844727 C 97.70445251464844 36.96757125854492 98.99987030029297 43.38454437255859 98.99987030029297 49.99993133544922 C 98.99987030029297 56.61544799804688 97.70445251464844 63.03242111206055 95.14961242675781 69.07274627685547 C 92.68172454833984 74.90750122070312 89.14850616455078 80.14786529541016 84.64812469482422 84.64824676513672 C 80.14773559570312 89.14863586425781 74.90737152099609 92.68184661865234 69.07261657714844 95.14974212646484 C 63.03229522705078 97.70458221435547 56.61532211303711 99 49.99993515014648 99 Z" stroke="none"/>
                <path d="M 49.99993515014648 1.999992370605469 C 43.51910781860352 1.999992370605469 37.23319244384766 3.268821716308594 31.31680297851562 5.771255493164062 C 25.60124969482422 8.188728332519531 20.46773529052734 11.64997863769531 16.05885314941406 16.05885314941406 C 11.64997863769531 20.46772766113281 8.188720703125 25.60124969482422 5.771247863769531 31.31681060791016 C 3.268821716308594 37.23318099975586 1.999992370605469 43.51909637451172 1.999992370605469 50.00006866455078 C 1.999992370605469 56.48089599609375 3.268821716308594 62.76681137084961 5.771247863769531 68.68319702148438 C 8.188720703125 74.39875793457031 11.64997863769531 79.53227233886719 16.05885314941406 83.94113922119141 C 20.46773529052734 88.35002136230469 25.60124969482422 91.81126403808594 31.31680297851562 94.22873687744141 C 37.23319244384766 96.73117065429688 43.51910781860352 98 49.99993515014648 98 C 56.48076248168945 98 62.76667785644531 96.73117065429688 68.68305969238281 94.22873687744141 C 74.39862060546875 91.81126403808594 79.53213500976562 88.35002136230469 83.94100952148438 83.94113922119141 C 88.34989166259766 79.53227233886719 91.81113433837891 74.39875793457031 94.22860717773438 68.68319702148438 C 96.73103332519531 62.76681137084961 97.99986267089844 56.48089599609375 97.99986267089844 49.99992370605469 C 97.99986267089844 43.51909637451172 96.73103332519531 37.23318099975586 94.22860717773438 31.31681060791016 C 91.81113433837891 25.60124969482422 88.34989166259766 20.46772766113281 83.94100952148438 16.05885314941406 C 79.53213500976562 11.64997863769531 74.39862060546875 8.188728332519531 68.68305969238281 5.771255493164062 C 62.76667785644531 3.268821716308594 56.48076248168945 1.999992370605469 49.99993515014648 1.999992370605469 M 49.99993515014648 -7.62939453125e-06 C 77.6141357421875 -7.62939453125e-06 99.99986267089844 22.3857421875 99.99986267089844 49.99992370605469 L 99.99986267089844 50.00006866455078 C 99.99986267089844 77.61426544189453 77.6141357421875 100 49.99993515014648 100 C 22.38573455810547 100 -7.62939453125e-06 77.61426544189453 -7.62939453125e-06 50.00006866455078 L -7.62939453125e-06 49.99992370605469 C -7.62939453125e-06 22.3857421875 22.38573455810547 -7.62939453125e-06 49.99993515014648 -7.62939453125e-06 Z" stroke="none" fill="#fff"/>
              </g>
            </g>
            <g id="Rectángulo_400907" data-name="Rectángulo 400907" transform="translate(0)" fill="none" stroke="#fff" stroke-width="2">
              <rect width="100" height="100" rx="50" stroke="none"/>
              <rect x="1" y="1" width="98" height="98" rx="49" fill="none"/>
            </g>
          </g>
        </g>
      </g>
    </g>
    <g id="_27-list" data-name="27-list" transform="translate(766.457 8297.231)">
      <path id="Trazado_918841" data-name="Trazado 918841" d="M8,3H58.962V66.7H8Z" transform="translate(0.062 0.185)" fill="#679c20"/>
      <path id="Trazado_918842" data-name="Trazado 918842" d="M21.679,7.123V5H10V64.456H49.283l7.432-7.432V5H45.037V7.123Z" transform="translate(0.185 0.309)" fill="#5b8a1d"/>
      <path id="Trazado_918843" data-name="Trazado 918843" d="M48.1,56.9v5.309H12V7h9.555a2.13,2.13,0,0,0,2.123,2.123H25.8v2.123a2.13,2.13,0,0,0,2.123,2.123H38.543a2.13,2.13,0,0,0,2.123-2.123V9.123H42.79A2.13,2.13,0,0,0,44.913,7h9.555V55.839H48.1Zm-23.358-3.61v-1.7H18.37v6.37h6.37Zm0-10.617v-1.7H18.37v6.37h6.37Zm0-10.617v-1.7H18.37v6.37h6.37Z" transform="translate(0.309 0.432)" fill="#f7f3eb"/>
      <path id="Trazado_918844" data-name="Trazado 918844" d="M46,53h6.37L46,59.37Z" transform="translate(2.407 3.271)" fill="#ded9d0"/>
      <path id="Trazado_918845" data-name="Trazado 918845" d="M44.358,6.309V7.37a2.13,2.13,0,0,1-2.123,2.123H40.111v2.123a2.13,2.13,0,0,1-2.123,2.123H27.37a2.13,2.13,0,0,1-2.123-2.123V9.494H23.123A2.13,2.13,0,0,1,21,7.37V1H44.358Z" transform="translate(0.864 0.062)" fill="#ffb844"/>
      <path id="Trazado_918846" data-name="Trazado 918846" d="M37.741,11.123H27.123A2.13,2.13,0,0,1,25,9v2.123a2.13,2.13,0,0,0,2.123,2.123H37.741a2.13,2.13,0,0,0,2.123-2.123V9A2.13,2.13,0,0,1,37.741,11.123Z" transform="translate(1.111 0.555)" fill="#fe792c"/>
      <path id="Trazado_918847" data-name="Trazado 918847" d="M23.123,7.123A2.13,2.13,0,0,1,21,5V7.123a2.13,2.13,0,0,0,2.123,2.123h2.123V7.123Z" transform="translate(0.864 0.309)" fill="#fe792c"/>
      <path id="Trazado_918848" data-name="Trazado 918848" d="M41.123,7.123H39V9.247h2.123a2.13,2.13,0,0,0,2.123-2.123V5a2.13,2.13,0,0,1-2.123,2.123Z" transform="translate(1.975 0.309)" fill="#fe792c"/>
      <path id="Trazado_918849" data-name="Trazado 918849" d="M37.741,13.123H27.123A2.13,2.13,0,0,1,25,11v2.123a2.13,2.13,0,0,0,2.123,2.123H37.741a2.13,2.13,0,0,0,2.123-2.123V11A2.13,2.13,0,0,1,37.741,13.123Z" transform="translate(1.111 0.679)" fill="#e8e4dc"/>
      <path id="Trazado_918850" data-name="Trazado 918850" d="M23.123,9.123A2.13,2.13,0,0,1,21,7V9.123a2.13,2.13,0,0,0,2.123,2.123h2.123V9.123Z" transform="translate(0.864 0.432)" fill="#e8e4dc"/>
      <path id="Trazado_918851" data-name="Trazado 918851" d="M41.123,9.123H39v2.123h2.123a2.13,2.13,0,0,0,2.123-2.123V7a2.13,2.13,0,0,1-2.123,2.123Z" transform="translate(1.975 0.432)" fill="#e8e4dc"/>
      <path id="Trazado_918852" data-name="Trazado 918852" d="M21,1H44.358V3.123H21Z" transform="translate(0.864 0.062)" fill="#ffdf64"/>
      <path id="Trazado_918853" data-name="Trazado 918853" d="M24.37,50.7V55.37H18V49h6.37Z" transform="translate(0.679 3.024)" fill="#ffb844"/>
      <path id="Trazado_918854" data-name="Trazado 918854" d="M24.37,40.7V45.37H18V39h6.37Z" transform="translate(0.679 2.407)" fill="#ffb844"/>
      <path id="Trazado_918855" data-name="Trazado 918855" d="M24.37,30.7V35.37H18V29h6.37Z" transform="translate(0.679 1.79)" fill="#ffb844"/>
      <path id="Trazado_918856" data-name="Trazado 918856" d="M40.2,16.22c.616.616,0,4.937-1.847,6.784-1.784,1.784-4.162,1.847-5.425.722L33,23.418Z" transform="translate(1.6 1.001)" fill="#679c20"/>
      <path id="Trazado_918857" data-name="Trazado 918857" d="M40.26,16.233l-7.2,7.2-.074.308a1.124,1.124,0,0,1-.127-.106,3.146,3.146,0,0,1-.86-2.24,4.719,4.719,0,0,1,1.476-3.313C35.323,16.233,39.644,15.618,40.26,16.233Z" transform="translate(1.543 0.988)" fill="#78b22a"/>
      <path id="Trazado_918858" data-name="Trazado 918858" d="M32.48,21.393a3.146,3.146,0,0,1-.86,2.24,1.125,1.125,0,0,1-.127.106l-.074-.308-7.2-7.2c.616-.616,4.937,0,6.784,1.847A4.719,4.719,0,0,1,32.48,21.393Z" transform="translate(1.063 0.988)" fill="#78b22a"/>
      <path id="Trazado_918859" data-name="Trazado 918859" d="M31.432,23.418l.074.308c-1.263,1.125-3.642,1.062-5.425-.722-1.847-1.847-2.463-6.169-1.847-6.784Z" transform="translate(1.049 1.001)" fill="#679c20"/>
      <path id="Trazado_918860" data-name="Trazado 918860" d="M33.175,25.294l.882-1.4a2.88,2.88,0,0,1-.956-.543,1.125,1.125,0,0,1-.127-.106,2.8,2.8,0,0,1-.588-.9,1.062,1.062,0,0,0-.24.441l-.032.127-.032-.127a1.062,1.062,0,0,0-.24-.441,2.8,2.8,0,0,1-.588.9,1.124,1.124,0,0,1-.127.106,2.88,2.88,0,0,1-.956.543l.88,1.4v3.056h2.123Z" transform="translate(1.43 1.379)" fill="#5b8a1d"/>
      <rect id="Rectángulo_408701" data-name="Rectángulo 408701" width="8.494" height="2.123" rx="1" transform="translate(27.281 1.062)" fill="#fff978"/>
      <rect id="Rectángulo_408702" data-name="Rectángulo 408702" width="3.185" height="2.123" rx="0.977" transform="translate(38.321 1.062)" fill="#fff978"/>
      <g id="Grupo_1199149" data-name="Grupo 1199149" transform="translate(35.38 7.779)">
        <ellipse id="Elipse_12143" data-name="Elipse 12143" cx="1.743" cy="2.427" rx="1.743" ry="2.427" transform="translate(11.869 5.236) rotate(-45)" fill="#f6fafd"/>
        <ellipse id="Elipse_12144" data-name="Elipse 12144" cx="0.876" cy="1.219" rx="0.876" ry="1.219" transform="translate(13.333 9.738) rotate(-45)" fill="#f6fafd"/>
        <ellipse id="Elipse_12145" data-name="Elipse 12145" cx="0.876" cy="1.219" rx="0.876" ry="1.219" transform="translate(1.655 1.239) rotate(-45)" fill="#f6fafd"/>
        <ellipse id="Elipse_12146" data-name="Elipse 12146" cx="0.438" cy="0.609" rx="0.438" ry="0.609" transform="translate(0 1.892) rotate(-45)" fill="#f6fafd"/>
      </g>
      <path id="Trazado_918861" data-name="Trazado 918861" d="M57.962,65.332H9.123V8H7V66.394a1.062,1.062,0,0,0,1.062,1.062H59.024a1.062,1.062,0,0,0,1.062-1.062V32.419H57.962Z" transform="translate(0 0.494)"/>
      <path id="Trazado_918862" data-name="Trazado 918862" d="M59.024,2.123H46.283V1.062A1.062,1.062,0,0,0,45.222,0H21.864A1.062,1.062,0,0,0,20.8,1.062V2.123H8.062A1.062,1.062,0,0,0,7,3.185V6.37H9.123V4.247H20.8V7.432a3.185,3.185,0,0,0,3.185,3.185h1.062v1.062a3.185,3.185,0,0,0,3.185,3.185H38.851a3.185,3.185,0,0,0,3.185-3.185V10.617H43.1a3.185,3.185,0,0,0,3.185-3.185V4.247H57.962V30.79h2.123V3.185A1.062,1.062,0,0,0,59.024,2.123ZM44.16,7.432A1.062,1.062,0,0,1,43.1,8.494H40.975a1.062,1.062,0,0,0-1.062,1.062v2.123a1.062,1.062,0,0,1-1.062,1.062H28.234a1.062,1.062,0,0,1-1.062-1.062V9.555a1.062,1.062,0,0,0-1.062-1.062H23.987a1.062,1.062,0,0,1-1.062-1.062V2.123H44.16Z" transform="translate(0)"/>
      <path id="Trazado_918863" data-name="Trazado 918863" d="M11,62.271a1.062,1.062,0,0,0,1.062,1.062h36.1a1.062,1.062,0,0,0,.75-.311l6.37-6.37a1.062,1.062,0,0,0,.311-.751V7.062A1.062,1.062,0,0,0,54.53,6H48.16V8.123h5.309V54.839H48.16A1.062,1.062,0,0,0,47.1,55.9H27.987v2.123H47.1v3.185H13.123V59.086H11Zm40.967-5.309-2.746,2.746V56.962Z" transform="translate(0.247 0.37)"/>
      <path id="Trazado_918864" data-name="Trazado 918864" d="M11,52h2.123v2.123H11Z" transform="translate(0.247 3.209)"/>
      <path id="Trazado_918865" data-name="Trazado 918865" d="M11,7.062V52.715h2.123V8.123h5.309V6h-6.37A1.062,1.062,0,0,0,11,7.062Z" transform="translate(0.247 0.37)"/>
      <path id="Trazado_918866" data-name="Trazado 918866" d="M37.656,15.256a9.508,9.508,0,0,0-4.375,2.137,6.655,6.655,0,0,0-.726.862,6.656,6.656,0,0,0-.726-.862,9.508,9.508,0,0,0-4.37-2.137c-1.108-.245-3.09-.537-3.911.287-1.263,1.262-.139,6.3,1.851,8.287A5.891,5.891,0,0,0,29.074,25.6c.127.011.255.015.381.015a4.5,4.5,0,0,0,1.743-.349l.3.6V28.8h2.123V25.868l.3-.6a4.5,4.5,0,0,0,1.738.349,3.277,3.277,0,0,0,.381-.015,5.891,5.891,0,0,0,3.677-1.773c1.99-1.99,3.114-7.024,1.851-8.281C40.746,14.719,38.764,15.011,37.656,15.256Zm-2.872,3.638a7.326,7.326,0,0,1,3.536-1.6l-4.644,4.643a3.493,3.493,0,0,1,1.108-3.039Zm-4.459,0a3.493,3.493,0,0,1,1.106,3.039l-4.647-4.647a7.326,7.326,0,0,1,3.541,1.608Zm-1.094,4.591A3.77,3.77,0,0,1,26.9,22.328a7.332,7.332,0,0,1-1.607-3.54L29.94,23.44a2.526,2.526,0,0,1-.708.046Zm8.984-1.157a3.77,3.77,0,0,1-2.336,1.157,2.6,2.6,0,0,1-.7-.046l4.65-4.651a7.332,7.332,0,0,1-1.61,3.538Z" transform="translate(0.988 0.926)"/>
      <path id="Trazado_918867" data-name="Trazado 918867" d="M17,29.062v6.37a1.062,1.062,0,0,0,1.062,1.062h6.37a1.062,1.062,0,0,0,1.062-1.062V31.271l1.725-1.38-1.327-1.658-.495.4A1.062,1.062,0,0,0,24.432,28h-6.37A1.062,1.062,0,0,0,17,29.062Zm6.37,5.309H19.123V32.686L20.5,34.059a1.062,1.062,0,0,0,1.414.079l1.46-1.168Zm0-4.247v.126l-2.045,1.636-1.451-1.451-.751.751V30.123Z" transform="translate(0.617 1.728)"/>
      <path id="Trazado_918868" data-name="Trazado 918868" d="M27,29H47.173v2.123H27Z" transform="translate(1.234 1.79)"/>
      <path id="Trazado_918869" data-name="Trazado 918869" d="M27,33H47.173v2.123H27Z" transform="translate(1.234 2.037)"/>
      <path id="Trazado_918870" data-name="Trazado 918870" d="M27,39H47.173v2.123H27Z" transform="translate(1.234 2.407)"/>
      <path id="Trazado_918871" data-name="Trazado 918871" d="M27,43H47.173v2.123H27Z" transform="translate(1.234 2.654)"/>
      <path id="Trazado_918872" data-name="Trazado 918872" d="M24.432,48h-6.37A1.062,1.062,0,0,0,17,49.062v6.37a1.062,1.062,0,0,0,1.062,1.062h6.37a1.062,1.062,0,0,0,1.062-1.062V51.271l1.725-1.38-1.327-1.658-.495.4A1.062,1.062,0,0,0,24.432,48ZM23.37,50.123v.126l-2.045,1.636-1.451-1.451-.751.751V50.123Zm0,4.247H19.123V52.686L20.5,54.059a1.062,1.062,0,0,0,1.414.079l1.46-1.168Z" transform="translate(0.617 2.962)"/>
      <path id="Trazado_918873" data-name="Trazado 918873" d="M27,49H47.173v2.123H27Z" transform="translate(1.234 3.024)"/>
      <path id="Trazado_918874" data-name="Trazado 918874" d="M25.892,38.233l-.495.4A1.062,1.062,0,0,0,24.432,38h-6.37A1.062,1.062,0,0,0,17,39.062v6.37a1.062,1.062,0,0,0,1.062,1.062h6.37a1.062,1.062,0,0,0,1.062-1.062V41.271l1.725-1.38ZM23.37,40.123v.126l-2.045,1.636-1.451-1.451-.751.751V40.123Zm0,4.247H19.123V42.686L20.5,44.059a1.062,1.062,0,0,0,1.414.079l1.46-1.168Z" transform="translate(0.617 2.345)"/>
    </g>
  </g>
</svg>
