<svg xmlns="http://www.w3.org/2000/svg" xmlns:xlink="http://www.w3.org/1999/xlink" width="118" height="118" viewBox="0 0 118 118">
  <defs>
    <filter id="Trazado_896985" x="0" y="0" width="118" height="118" filterUnits="userSpaceOnUse">
      <feOffset dy="3" input="SourceAlpha"/>
      <feGaussianBlur stdDeviation="3" result="blur"/>
      <feFlood flood-opacity="0.161"/>
      <feComposite operator="in" in2="blur"/>
      <feComposite in="SourceGraphic"/>
    </filter>
  </defs>
  <g id="Grupo_1199152" data-name="Grupo 1199152" transform="translate(-196.891 -8757.455)">
    <g id="Grupo_1198169" data-name="Grupo 1198169" transform="translate(-129 4911.455)">
      <g id="Grupo_1111318" data-name="Grupo 1111318" transform="translate(334.891 3852)">
        <g id="Grupo_1109826" data-name="Grupo 1109826" transform="translate(0)">
          <g id="Grupo_1098742" data-name="Grupo 1098742" transform="translate(0 0)">
            <g transform="matrix(1, 0, 0, 1, -9, -6)" filter="url(#Trazado_896985)">
              <g id="Trazado_896985-2" data-name="Trazado 896985" transform="translate(9 6)" fill="#fc0" opacity="0.859">
                <path d="M 49.99993515014648 99.5 C 43.31726837158203 99.5 36.83476257324219 98.19129943847656 30.73248100280762 95.61025238037109 C 24.83812141418457 93.11714172363281 19.54434776306152 89.54795837402344 14.99820137023926 85.00179290771484 C 10.45204162597656 80.45565032958984 6.88285493850708 75.16187286376953 4.389748573303223 69.26751708984375 C 1.808695197105408 63.16523742675781 0.5000017881393433 56.6827278137207 0.5000017881393433 50.00006103515625 C 0.5000017881393433 43.31726455688477 1.808695197105408 36.83475494384766 4.389748573303223 30.73247528076172 C 6.88285493850708 24.83811569213867 10.45204162597656 19.54434204101562 14.99820137023926 14.99819660186768 C 19.54434776306152 10.45203590393066 24.83812141418457 6.88284969329834 30.73248100280762 4.389742851257324 C 36.83476257324219 1.808689475059509 43.31726837158203 0.4999961853027344 49.99993515014648 0.4999961853027344 C 56.68260192871094 0.4999961853027344 63.16510772705078 1.808689475059509 69.26738739013672 4.389742851257324 C 75.16175079345703 6.88284969329834 80.45552062988281 10.45203590393066 85.00167083740234 14.99819660186768 C 89.54782867431641 19.54434204101562 93.11701202392578 24.83811569213867 95.61012268066406 30.73247528076172 C 98.19117736816406 36.83475494384766 99.49987030029297 43.31726455688477 99.49987030029297 49.99993133544922 C 99.49987030029297 56.6827278137207 98.19117736816406 63.16523742675781 95.61012268066406 69.26751708984375 C 93.11701202392578 75.16187286376953 89.54782867431641 80.45565032958984 85.00167083740234 85.00179290771484 C 80.45552062988281 89.54795837402344 75.16175079345703 93.11714172363281 69.26738739013672 95.61025238037109 C 63.16510772705078 98.19129943847656 56.68260192871094 99.5 49.99993515014648 99.5 Z" stroke="none"/>
                <path d="M 49.99993515014648 0.9999923706054688 C 43.38454818725586 0.9999923706054688 36.96757507324219 2.29541015625 30.92725372314453 4.850250244140625 C 25.09249877929688 7.318145751953125 19.85213470458984 10.85135650634766 15.35174560546875 15.35174560546875 C 10.85136413574219 19.85212707519531 7.318145751953125 25.09249114990234 4.850257873535156 30.92724609375 C 2.295417785644531 36.96757125854492 1 43.38454437255859 1 50.00006103515625 C 1 56.61544799804688 2.295417785644531 63.03242111206055 4.850257873535156 69.07273864746094 C 7.318145751953125 74.90750122070312 10.85136413574219 80.14786529541016 15.35174560546875 84.64824676513672 C 19.85213470458984 89.14863586425781 25.09249877929688 92.68184661865234 30.92725372314453 95.14974212646484 C 36.96757507324219 97.70458221435547 43.38454818725586 99 49.99993515014648 99 C 56.61532211303711 99 63.03229522705078 97.70458221435547 69.07261657714844 95.14974212646484 C 74.90737915039062 92.68184661865234 80.14773559570312 89.14863586425781 84.64812469482422 84.64824676513672 C 89.14850616455078 80.14786529541016 92.68172454833984 74.90750122070312 95.14961242675781 69.07273864746094 C 97.70445251464844 63.03242111206055 98.99987030029297 56.61544799804688 98.99987030029297 49.99993133544922 C 98.99987030029297 43.38454437255859 97.70445251464844 36.96757125854492 95.14961242675781 30.92724609375 C 92.68172454833984 25.09249114990234 89.14850616455078 19.85212707519531 84.64812469482422 15.35174560546875 C 80.14773559570312 10.85135650634766 74.90737915039062 7.318145751953125 69.07261657714844 4.850250244140625 C 63.03229522705078 2.29541015625 56.61532211303711 0.9999923706054688 49.99993515014648 0.9999923706054688 M 49.99993515014648 -7.62939453125e-06 C 77.6141357421875 -7.62939453125e-06 99.99987030029297 22.38572692871094 99.99987030029297 49.99993133544922 L 99.99987030029297 50.00006103515625 C 99.99987030029297 77.61426544189453 77.6141357421875 100 49.99993515014648 100 C 22.38573455810547 100 0 77.61426544189453 0 50.00006103515625 L 0 49.99993133544922 C 0 22.38572692871094 22.38573455810547 -7.62939453125e-06 49.99993515014648 -7.62939453125e-06 Z" stroke="none" fill="#fff"/>
              </g>
            </g>
            <g id="Rectángulo_400907" data-name="Rectángulo 400907" transform="translate(0)" fill="none" stroke="#fff" stroke-width="1">
              <rect width="100" height="100" rx="50" stroke="none"/>
              <rect x="0.5" y="0.5" width="99" height="99" rx="49.5" fill="none"/>
            </g>
          </g>
        </g>
      </g>
    </g>
    <g id="inclusive_18722635" transform="translate(152.649 8746.825)">
      <path id="Trazado_918895" data-name="Trazado 918895" d="M141.072,307.488a7.742,7.742,0,0,0-7.719,7.719v5.183c0,10.422-.708-2.58,5.508,6.212h9.692a7.668,7.668,0,0,0,.239-1.9v-9.494A7.742,7.742,0,0,0,141.072,307.488Z" transform="translate(-48.125 -231.063)" fill="#19cfba" fill-rule="evenodd"/>
      <circle id="Elipse_12148" data-name="Elipse 12148" cx="3.908" cy="3.908" r="3.908" transform="translate(88.25 69.604) rotate(-13.3)" fill="#f0b16e"/>
      <path id="Trazado_918896" data-name="Trazado 918896" d="M283.578,307.488a7.742,7.742,0,0,1,7.719,7.719v4.651c-1.769,5.836-10.294,5.8-15.2,6.744a7.668,7.668,0,0,1-.239-1.9v-9.493a7.742,7.742,0,0,1,7.719-7.719Z" transform="translate(-166.37 -231.063)" fill="#fa6e85" fill-rule="evenodd"/>
      <circle id="Elipse_12149" data-name="Elipse 12149" cx="3.908" cy="3.908" r="3.908" transform="translate(113.3 68.619)" fill="#f0b16e"/>
      <path id="Trazado_918897" data-name="Trazado 918897" d="M212.383,307.488a7.742,7.742,0,0,1,7.719,7.719V324.7a7.668,7.668,0,0,1-.239,1.9H204.9a7.668,7.668,0,0,1-.239-1.9v-9.493A7.742,7.742,0,0,1,212.383,307.488Z" transform="translate(-107.306 -231.063)" fill="#60b7fe" fill-rule="evenodd"/>
      <circle id="Elipse_12150" data-name="Elipse 12150" cx="3.908" cy="3.908" r="3.908" transform="translate(100.375 75.453) rotate(-76.7)" fill="#f0b16e"/>
      <path id="Trazado_918898" data-name="Trazado 918898" d="M138.3,88.138a28.912,28.912,0,0,1-55.358,0,21.588,21.588,0,0,1,9.773-24.968,52.466,52.466,0,0,0,11.3-8.949V50.742H98.1l12.529-15.085,12.529,15.085h-5.921V54.22a52.472,52.472,0,0,0,11.3,8.95A21.588,21.588,0,0,1,138.3,88.138ZM108.115,100.5A20.87,20.87,0,0,0,130.6,85.818,13.529,13.529,0,0,0,124.45,70.1a60.473,60.473,0,0,1-13.825-11.169A60.473,60.473,0,0,1,96.8,70.1,13.528,13.528,0,0,0,90.65,85.818,20.914,20.914,0,0,0,101.4,98.5l.078-.043,8.017-4.581a1.98,1.98,0,0,1,2.409.323l.075.075a2,2,0,0,1-.1,2.923Z" transform="translate(-5.548 -5.549)" fill="#f0b16e" fill-rule="evenodd"/>
      <path id="Trazado_918899" data-name="Trazado 918899" d="M92.732,77.571l.394,0a6.547,6.547,0,0,1,4.433,1.894,8.826,8.826,0,0,0-1.346,4.678v7.286l-.394.227a19.862,19.862,0,0,1-8.991-9.926A6.579,6.579,0,0,1,92.732,77.571Zm.211-2.287a2.761,2.761,0,1,1,2.769-2.756A2.75,2.75,0,0,1,92.944,75.285Zm12.135,0a2.761,2.761,0,1,1,2.769-2.756A2.756,2.756,0,0,1,105.079,75.285Zm9.366-2.756a2.764,2.764,0,1,1,2.769,2.756A2.769,2.769,0,0,1,114.444,72.529ZM112.6,79.467a6.453,6.453,0,0,1,4.615-1.889c.067,0,.135,0,.2-.007a6.559,6.559,0,0,1,5.9,4.161,19.634,19.634,0,0,1-9.385,10.134v-7.72A8.82,8.82,0,0,0,112.6,79.467ZM91.829,65.537a12.321,12.321,0,0,0-5.923,13.239,8.765,8.765,0,0,1,3.433-2.723,5.042,5.042,0,1,1,7.221,0A8.881,8.881,0,0,1,99.011,77.7a8.772,8.772,0,0,1,2.462-1.642,5.048,5.048,0,1,1,7.212,0,8.909,8.909,0,0,1,2.462,1.642,8.884,8.884,0,0,1,2.452-1.642,5.054,5.054,0,1,1,7.221,0,8.9,8.9,0,0,1,3.433,2.723,12.315,12.315,0,0,0-5.933-13.239,61.7,61.7,0,0,1-13.241-10.484A61.5,61.5,0,0,1,91.829,65.537Zm15.4,22.383a3.123,3.123,0,0,0-2.288-1,3.165,3.165,0,0,0-1.567.423L98.5,90.127V84.145a6.513,6.513,0,0,1,1.356-4,.913.913,0,0,0,.106-.133,6.556,6.556,0,0,1,4.923-2.443h.385a6.574,6.574,0,0,1,4.923,2.442.981.981,0,0,0,.106.136,6.563,6.563,0,0,1,1.356,3.994v8.693a19.765,19.765,0,0,1-6.231,1.123l1.654-1.452A3.138,3.138,0,0,0,107.232,87.92Zm24.433-5.659a20.523,20.523,0,0,0-9.26-23.656,53.775,53.775,0,0,1-11.548-9.145,1.148,1.148,0,0,1-.317-.788V45.193a1.148,1.148,0,0,1,1.144-1.141h3.49L105.079,31.9l-10.1,12.156h3.49a1.139,1.139,0,0,1,1.135,1.141v3.479a1.148,1.148,0,0,1-.317.788,53.483,53.483,0,0,1-11.539,9.145,20.523,20.523,0,0,0-9.26,23.656,27.97,27.97,0,0,0,23.971,19.62c5.721-.626,10.308-2.834,12.375-4.785a1.628,1.628,0,0,0-1.577-2.422,21.988,21.988,0,0,1-8.163,1.572,22.432,22.432,0,0,1-2.663-.16,1.144,1.144,0,0,1-.625-1.991l3.769-3.3a.92.92,0,0,0-1.067-1.472L96.492,93.9l-.1.054a1.153,1.153,0,0,1-1.058.021A22.1,22.1,0,0,1,84.011,80.6a14.654,14.654,0,0,1,6.664-17.03,59.414,59.414,0,0,0,13.567-10.957,1.135,1.135,0,0,1,1.673,0A59.405,59.405,0,0,0,119.483,63.57a14.673,14.673,0,0,1,6.664,17.03A21.954,21.954,0,0,1,116,93.354a3.9,3.9,0,0,1,.625,5.169,12.834,12.834,0,0,1-2.558,1.962,27.965,27.965,0,0,0,17.6-18.223Zm1.615-14.273a22.648,22.648,0,0,0-9.721-11.351,51.336,51.336,0,0,1-10.731-8.426V46.334h4.779a1.142,1.142,0,0,0,.875-1.87L105.954,29.38a1.135,1.135,0,0,0-1.75,0L91.675,44.464a1.138,1.138,0,0,0,.875,1.87h4.779v1.877a51.4,51.4,0,0,1-10.74,8.426A22.707,22.707,0,0,0,76.309,82.918a30.05,30.05,0,0,0,57.539,0A22.648,22.648,0,0,0,133.281,67.988Z" fill="#080909" fill-rule="evenodd"/>
    </g>
  </g>
</svg>
