<svg xmlns="http://www.w3.org/2000/svg" xmlns:xlink="http://www.w3.org/1999/xlink" width="118" height="118" viewBox="0 0 118 118">
  <defs>
    <filter id="Trazado_896985" x="0" y="0" width="118" height="118" filterUnits="userSpaceOnUse">
      <feOffset dy="3" input="SourceAlpha"/>
      <feGaussianBlur stdDeviation="3" result="blur"/>
      <feFlood flood-opacity="0.161"/>
      <feComposite operator="in" in2="blur"/>
      <feComposite in="SourceGraphic"/>
    </filter>
  </defs>
  <g id="Grupo_1199153" data-name="Grupo 1199153" transform="translate(-616.891 -8757.455)">
    <g id="Grupo_1198168" data-name="Grupo 1198168" transform="translate(291 4911.455)">
      <g id="Grupo_1111318" data-name="Grupo 1111318" transform="translate(334.891 3852)">
        <g id="Grupo_1109826" data-name="Grupo 1109826" transform="translate(0)">
          <g id="Grupo_1098742" data-name="Grupo 1098742" transform="translate(0 0)">
            <g transform="matrix(1, 0, 0, 1, -9, -6)" filter="url(#Trazado_896985)">
              <g id="Trazado_896985-2" data-name="Trazado 896985" transform="translate(9 6)" fill="#fc0" opacity="0.859">
                <path d="M 49.99993515014648 99.5 C 43.31726837158203 99.5 36.83476257324219 98.19129943847656 30.73248100280762 95.61025238037109 C 24.83812141418457 93.11714172363281 19.54434776306152 89.54795837402344 14.99820137023926 85.00179290771484 C 10.45204162597656 80.45565032958984 6.88285493850708 75.16187286376953 4.389748573303223 69.26751708984375 C 1.808695197105408 63.16523742675781 0.5000017881393433 56.6827278137207 0.5000017881393433 50.00006103515625 C 0.5000017881393433 43.31726455688477 1.808695197105408 36.83475494384766 4.389748573303223 30.73247528076172 C 6.88285493850708 24.83811569213867 10.45204162597656 19.54434204101562 14.99820137023926 14.99819660186768 C 19.54434776306152 10.45203590393066 24.83812141418457 6.88284969329834 30.73248100280762 4.389742851257324 C 36.83476257324219 1.808689475059509 43.31726837158203 0.4999961853027344 49.99993515014648 0.4999961853027344 C 56.68260192871094 0.4999961853027344 63.16510772705078 1.808689475059509 69.26738739013672 4.389742851257324 C 75.16175079345703 6.88284969329834 80.45552062988281 10.45203590393066 85.00167083740234 14.99819660186768 C 89.54782867431641 19.54434204101562 93.11701202392578 24.83811569213867 95.61012268066406 30.73247528076172 C 98.19117736816406 36.83475494384766 99.49987030029297 43.31726455688477 99.49987030029297 49.99993133544922 C 99.49987030029297 56.6827278137207 98.19117736816406 63.16523742675781 95.61012268066406 69.26751708984375 C 93.11701202392578 75.16187286376953 89.54782867431641 80.45565032958984 85.00167083740234 85.00179290771484 C 80.45552062988281 89.54795837402344 75.16175079345703 93.11714172363281 69.26738739013672 95.61025238037109 C 63.16510772705078 98.19129943847656 56.68260192871094 99.5 49.99993515014648 99.5 Z" stroke="none"/>
                <path d="M 49.99993515014648 0.9999923706054688 C 43.38454818725586 0.9999923706054688 36.96757507324219 2.29541015625 30.92725372314453 4.850250244140625 C 25.09249877929688 7.318145751953125 19.85213470458984 10.85135650634766 15.35174560546875 15.35174560546875 C 10.85136413574219 19.85212707519531 7.318145751953125 25.09249114990234 4.850257873535156 30.92724609375 C 2.295417785644531 36.96757125854492 1 43.38454437255859 1 50.00006103515625 C 1 56.61544799804688 2.295417785644531 63.03242111206055 4.850257873535156 69.07273864746094 C 7.318145751953125 74.90750122070312 10.85136413574219 80.14786529541016 15.35174560546875 84.64824676513672 C 19.85213470458984 89.14863586425781 25.09249877929688 92.68184661865234 30.92725372314453 95.14974212646484 C 36.96757507324219 97.70458221435547 43.38454818725586 99 49.99993515014648 99 C 56.61532211303711 99 63.03229522705078 97.70458221435547 69.07261657714844 95.14974212646484 C 74.90737915039062 92.68184661865234 80.14773559570312 89.14863586425781 84.64812469482422 84.64824676513672 C 89.14850616455078 80.14786529541016 92.68172454833984 74.90750122070312 95.14961242675781 69.07273864746094 C 97.70445251464844 63.03242111206055 98.99987030029297 56.61544799804688 98.99987030029297 49.99993133544922 C 98.99987030029297 43.38454437255859 97.70445251464844 36.96757125854492 95.14961242675781 30.92724609375 C 92.68172454833984 25.09249114990234 89.14850616455078 19.85212707519531 84.64812469482422 15.35174560546875 C 80.14773559570312 10.85135650634766 74.90737915039062 7.318145751953125 69.07261657714844 4.850250244140625 C 63.03229522705078 2.29541015625 56.61532211303711 0.9999923706054688 49.99993515014648 0.9999923706054688 M 49.99993515014648 -7.62939453125e-06 C 77.6141357421875 -7.62939453125e-06 99.99987030029297 22.38572692871094 99.99987030029297 49.99993133544922 L 99.99987030029297 50.00006103515625 C 99.99987030029297 77.61426544189453 77.6141357421875 100 49.99993515014648 100 C 22.38573455810547 100 0 77.61426544189453 0 50.00006103515625 L 0 49.99993133544922 C 0 22.38572692871094 22.38573455810547 -7.62939453125e-06 49.99993515014648 -7.62939453125e-06 Z" stroke="none" fill="#fff"/>
              </g>
            </g>
            <g id="Rectángulo_400907" data-name="Rectángulo 400907" transform="translate(0)" fill="none" stroke="#fff" stroke-width="1">
              <rect width="100" height="100" rx="50" stroke="none"/>
              <rect x="0.5" y="0.5" width="99" height="99" rx="49.5" fill="none"/>
            </g>
          </g>
        </g>
      </g>
    </g>
    <g id="protect_6264768" transform="translate(639.021 8779.241)">
      <path id="Trazado_918900" data-name="Trazado 918900" d="M64.06,20.592V32.038a34.966,34.966,0,0,1-28.03,34.3A34.966,34.966,0,0,1,8,32.038V20.592A46.843,46.843,0,0,0,36.03,7.85,46.843,46.843,0,0,0,64.06,20.592Z" transform="translate(0.84 1.147)" fill="#e6e6e6"/>
      <path id="Trazado_918901" data-name="Trazado 918901" d="M10,20.313v9.564a34.966,34.966,0,0,0,28.03,34.3,34.921,34.921,0,0,0,15.622-7.562A34.939,34.939,0,0,0,63.724,32.038V20.592A46.843,46.843,0,0,1,35.694,7.85,46.851,46.851,0,0,1,10,20.313Z" transform="translate(1.175 1.147)" fill="#fff"/>
      <path id="Trazado_918902" data-name="Trazado 918902" d="M18.336,49.191V59.7l14.015,4.672V51.8a11.059,11.059,0,0,1,1.168-4.948h0a11.058,11.058,0,0,0,1.168-4.947V31.8a2.423,2.423,0,0,0-1.943-2.429,2.336,2.336,0,0,0-2.728,2.3V29.461a2.423,2.423,0,0,0-1.943-2.429,2.336,2.336,0,0,0-2.728,2.3,2.336,2.336,0,0,0-2.728-2.3,2.423,2.423,0,0,0-1.943,2.429V30.5a2.336,2.336,0,0,0-2.728-2.3A2.423,2.423,0,0,0,16,30.629v4Z" transform="translate(2.183 4.363)" fill="#d08d78"/>
      <rect id="Rectángulo_408703" data-name="Rectángulo 408703" width="4.672" height="9.343" rx="2" transform="translate(22.855 41.874) rotate(180)" fill="#ad7768"/>
      <path id="Trazado_918903" data-name="Trazado 918903" d="M18.336,28a2.324,2.324,0,0,1,.958.21,2.324,2.324,0,0,1,.21.958V33.84a2.326,2.326,0,0,1-3.294,2.126,2.324,2.324,0,0,1-.21-.958V30.336A2.336,2.336,0,0,1,18.336,28Z" transform="translate(2.183 4.531)" fill="#d08d78"/>
      <rect id="Rectángulo_408704" data-name="Rectángulo 408704" width="4.672" height="9.343" rx="2" transform="translate(27.526 40.706) rotate(180)" fill="#ad7768"/>
      <path id="Trazado_918904" data-name="Trazado 918904" d="M22.336,27a2.324,2.324,0,0,1,.958.21,2.324,2.324,0,0,1,.21.958V32.84a2.326,2.326,0,0,1-3.294,2.126,2.324,2.324,0,0,1-.21-.958V29.336A2.336,2.336,0,0,1,22.336,27Z" transform="translate(2.855 4.363)" fill="#d08d78"/>
      <rect id="Rectángulo_408705" data-name="Rectángulo 408705" width="4.672" height="9.343" rx="2" transform="translate(36.87 43.042) rotate(180)" fill="#ad7768"/>
      <path id="Trazado_918905" data-name="Trazado 918905" d="M30.336,29a2.324,2.324,0,0,1,.958.21,2.324,2.324,0,0,1,.21.958V34.84a2.326,2.326,0,0,1-3.294,2.126,2.324,2.324,0,0,1-.21-.958V31.336A2.336,2.336,0,0,1,30.336,29Z" transform="translate(4.198 4.699)" fill="#d08d78"/>
      <rect id="Rectángulo_408706" data-name="Rectángulo 408706" width="4.672" height="9.343" rx="2" transform="translate(32.198 40.706) rotate(180)" fill="#ad7768"/>
      <path id="Trazado_918906" data-name="Trazado 918906" d="M26.336,27a2.324,2.324,0,0,1,.958.21,2.324,2.324,0,0,1,.21.958V32.84a2.326,2.326,0,0,1-3.294,2.126,2.324,2.324,0,0,1-.21-.958V29.336A2.336,2.336,0,0,1,26.336,27Z" transform="translate(3.526 4.363)" fill="#d08d78"/>
      <path id="Trazado_918907" data-name="Trazado 918907" d="M16,32.5a5.781,5.781,0,0,1,2.336-.5h5.356a2.819,2.819,0,0,1,1.994,4.813,7.457,7.457,0,0,1-3.074,1.86,9.635,9.635,0,0,1,1.713,3.639,4.313,4.313,0,0,1-3.219,5.427l-3.145-1.725L16,33.793Z" transform="translate(2.183 5.203)" fill="#ad7768"/>
      <path id="Trazado_918908" data-name="Trazado 918908" d="M18.672,48.183,16.92,45.991A13.314,13.314,0,0,1,14,37.672h0A4.672,4.672,0,0,1,18.672,33h5.356a1.651,1.651,0,0,1,1.651,1.651h0a1.653,1.653,0,0,1-.483,1.168h0a6.323,6.323,0,0,1-4.472,1.852H19.84a8.452,8.452,0,0,1,4.672,7.559v2.953Z" transform="translate(1.847 5.37)" fill="#d08d78"/>
      <path id="Trazado_918909" data-name="Trazado 918909" d="M48.351,56.191v3.5H34.336V58.8a11.059,11.059,0,0,0-1.168-4.948h0A11.058,11.058,0,0,1,32,48.908V38.8a2.423,2.423,0,0,1,1.943-2.429,2.336,2.336,0,0,1,2.728,2.3V36.461a2.423,2.423,0,0,1,1.943-2.429,2.336,2.336,0,0,1,2.728,2.3,2.336,2.336,0,0,1,2.728-2.3,2.423,2.423,0,0,1,1.943,2.429V37.5a2.336,2.336,0,0,1,2.728-2.3,2.423,2.423,0,0,1,1.943,2.429v4Z" transform="translate(4.87 5.538)" fill="#b07a4e"/>
      <rect id="Rectángulo_408707" data-name="Rectángulo 408707" width="4.672" height="9.343" rx="2" transform="translate(50.885 40.706)" fill="#996945"/>
      <path id="Trazado_918910" data-name="Trazado 918910" d="M46.168,35a2.324,2.324,0,0,0-.958.21,2.324,2.324,0,0,0-.21.958V40.84a2.326,2.326,0,0,0,3.294,2.126,2.324,2.324,0,0,0,.21-.958V37.336A2.336,2.336,0,0,0,46.168,35Z" transform="translate(7.053 5.706)" fill="#b07a4e"/>
      <rect id="Rectángulo_408708" data-name="Rectángulo 408708" width="4.672" height="9.343" rx="2" transform="translate(46.213 39.538)" fill="#996945"/>
      <path id="Trazado_918911" data-name="Trazado 918911" d="M42.168,34a2.324,2.324,0,0,0-.958.21,2.324,2.324,0,0,0-.21.958V39.84a2.326,2.326,0,0,0,3.294,2.126,2.324,2.324,0,0,0,.21-.958V36.336A2.336,2.336,0,0,0,42.168,34Z" transform="translate(6.381 5.538)" fill="#b07a4e"/>
      <rect id="Rectángulo_408709" data-name="Rectángulo 408709" width="4.672" height="9.343" rx="2" transform="translate(36.87 41.874)" fill="#996945"/>
      <path id="Trazado_918912" data-name="Trazado 918912" d="M34.168,36a2.324,2.324,0,0,0-.958.21,2.324,2.324,0,0,0-.21.958V41.84a2.327,2.327,0,0,0,3.294,2.126,2.324,2.324,0,0,0,.21-.958V38.336A2.336,2.336,0,0,0,34.168,36Z" transform="translate(5.038 5.874)" fill="#b07a4e"/>
      <rect id="Rectángulo_408710" data-name="Rectángulo 408710" width="4.672" height="9.343" rx="2" transform="translate(41.541 39.538)" fill="#996945"/>
      <path id="Trazado_918913" data-name="Trazado 918913" d="M38.168,34a2.324,2.324,0,0,0-.958.21,2.324,2.324,0,0,0-.21.958V39.84a2.326,2.326,0,0,0,3.294,2.126,2.324,2.324,0,0,0,.21-.958V36.336A2.336,2.336,0,0,0,38.168,34Z" transform="translate(5.709 5.538)" fill="#b07a4e"/>
      <path id="Trazado_918914" data-name="Trazado 918914" d="M49.511,39.5a5.781,5.781,0,0,0-2.336-.5H41.819a2.819,2.819,0,0,0-1.994,4.813,7.457,7.457,0,0,0,3.074,1.86,9.635,9.635,0,0,0-1.713,3.639,4.313,4.313,0,0,0,3.219,5.427l3.145-1.725,1.961-12.222Z" transform="translate(6.045 6.378)" fill="#996945"/>
      <path id="Trazado_918915" data-name="Trazado 918915" d="M47.008,55.183l1.752-2.192a13.314,13.314,0,0,0,2.92-8.319h0A4.672,4.672,0,0,0,47.008,40H41.651A1.651,1.651,0,0,0,40,41.651h0a1.653,1.653,0,0,0,.483,1.168h0a6.323,6.323,0,0,0,4.472,1.852h.884a8.452,8.452,0,0,0-4.672,7.559v2.953Z" transform="translate(6.213 6.546)" fill="#b07a4e"/>
      <path id="Trazado_918916" data-name="Trazado 918916" d="M40.351,43.191V66.549H26.336V45.8a11.059,11.059,0,0,0-1.168-4.948h0A11.058,11.058,0,0,1,24,35.908V25.8a2.423,2.423,0,0,1,1.943-2.429,2.336,2.336,0,0,1,2.728,2.3V23.461a2.423,2.423,0,0,1,1.943-2.429,2.336,2.336,0,0,1,2.728,2.3,2.336,2.336,0,0,1,2.728-2.3,2.423,2.423,0,0,1,1.943,2.429V24.5a2.336,2.336,0,0,1,2.728-2.3,2.423,2.423,0,0,1,1.943,2.429v4Z" transform="translate(3.526 3.355)" fill="#f2b9a1"/>
      <rect id="Rectángulo_408711" data-name="Rectángulo 408711" width="4.672" height="9.343" rx="2" transform="translate(41.541 25.523)" fill="#d08d78"/>
      <path id="Trazado_918917" data-name="Trazado 918917" d="M38.168,22a2.324,2.324,0,0,0-.958.21,2.324,2.324,0,0,0-.21.958V27.84a2.326,2.326,0,0,0,3.294,2.126,2.324,2.324,0,0,0,.21-.958V24.336A2.336,2.336,0,0,0,38.168,22Z" transform="translate(5.709 3.523)" fill="#f2b9a1"/>
      <rect id="Rectángulo_408712" data-name="Rectángulo 408712" width="4.672" height="9.343" rx="2" transform="translate(36.87 24.355)" fill="#d08d78"/>
      <path id="Trazado_918918" data-name="Trazado 918918" d="M34.168,21a2.324,2.324,0,0,0-.958.21,2.324,2.324,0,0,0-.21.958V26.84a2.326,2.326,0,0,0,3.294,2.126,2.324,2.324,0,0,0,.21-.958V23.336A2.336,2.336,0,0,0,34.168,21Z" transform="translate(5.038 3.355)" fill="#f2b9a1"/>
      <rect id="Rectángulo_408713" data-name="Rectángulo 408713" width="4.672" height="9.343" rx="2" transform="translate(27.526 26.691)" fill="#d08d78"/>
      <path id="Trazado_918919" data-name="Trazado 918919" d="M26.168,23a2.324,2.324,0,0,0-.958.21,2.324,2.324,0,0,0-.21.958V28.84a2.326,2.326,0,0,0,3.294,2.126,2.324,2.324,0,0,0,.21-.958V25.336A2.336,2.336,0,0,0,26.168,23Z" transform="translate(3.694 3.691)" fill="#f2b9a1"/>
      <rect id="Rectángulo_408714" data-name="Rectángulo 408714" width="4.672" height="9.343" rx="2" transform="translate(32.198 24.355)" fill="#d08d78"/>
      <path id="Trazado_918920" data-name="Trazado 918920" d="M30.168,21a2.324,2.324,0,0,0-.958.21,2.324,2.324,0,0,0-.21.958V26.84a2.326,2.326,0,0,0,3.294,2.126,2.324,2.324,0,0,0,.21-.958V23.336A2.336,2.336,0,0,0,30.168,21Z" transform="translate(4.366 3.355)" fill="#f2b9a1"/>
      <path id="Trazado_918921" data-name="Trazado 918921" d="M41.511,26.5a5.781,5.781,0,0,0-2.336-.5H33.819a2.819,2.819,0,0,0-1.994,4.813,7.457,7.457,0,0,0,3.074,1.86,9.635,9.635,0,0,0-1.713,3.639,4.313,4.313,0,0,0,3.219,5.427l3.145-1.725,1.961-12.222Z" transform="translate(4.702 4.195)" fill="#d08d78"/>
      <path id="Trazado_918922" data-name="Trazado 918922" d="M39.008,42.183l1.752-2.192a13.314,13.314,0,0,0,2.92-8.319h0A4.672,4.672,0,0,0,39.008,27H33.651A1.651,1.651,0,0,0,32,28.651h0a1.653,1.653,0,0,0,.483,1.168h0a6.323,6.323,0,0,0,4.472,1.852h.884a8.452,8.452,0,0,0-4.672,7.559v2.952Z" transform="translate(4.87 4.363)" fill="#f2b9a1"/>
      <path id="Trazado_918923" data-name="Trazado 918923" d="M66.6,17.031A42,42,0,0,1,36.7,2,42,42,0,0,1,23.317,12.616,42.028,42.028,0,0,1,6.8,17.031L4,17.183V33.02A39.671,39.671,0,0,0,36.7,72.076,39.671,39.671,0,0,0,69.4,33.02V17.183ZM64.732,33.02a34.966,34.966,0,0,1-28.03,34.3,34.966,34.966,0,0,1-28.03-34.3V21.574A46.843,46.843,0,0,0,36.7,8.832a46.843,46.843,0,0,0,28.03,12.742Z" transform="translate(0.168 0.165)" fill="#0059be"/>
      <path id="Trazado_918924" data-name="Trazado 918924" d="M36.483,2.114c-.088.014-.175.027-.264.035A42.01,42.01,0,0,1,22.982,12.6,42.028,42.028,0,0,1,6.467,17.012L6,17.038v14.8A39.671,39.671,0,0,0,38.7,70.888a39.664,39.664,0,0,0,9.606-3.015A39.677,39.677,0,0,0,69.068,33V17.164l-2.8-.152a42,42,0,0,1-29.782-14.9ZM64.4,33a34.966,34.966,0,0,1-28.03,34.3A34.966,34.966,0,0,1,8.336,33V21.555A46.843,46.843,0,0,0,36.366,8.813,46.843,46.843,0,0,0,64.4,21.555Z" transform="translate(0.504 0.184)" fill="#006bdb"/>
      <path id="Trazado_918925" data-name="Trazado 918925" d="M69.637,16.18l-2.8-.157A40.91,40.91,0,0,1,37.768,1.416a1.211,1.211,0,0,0-1.8,0A40.91,40.91,0,0,1,6.91,16.026L4.1,16.18A1.168,1.168,0,0,0,3,17.348V33.181A40.8,40.8,0,0,0,36.664,73.389a1.14,1.14,0,0,0,.411,0A40.8,40.8,0,0,0,70.739,33.181V17.348A1.168,1.168,0,0,0,69.637,16.18Zm-1.233,17A38.467,38.467,0,0,1,36.87,71.052,38.467,38.467,0,0,1,5.336,33.181V18.453l1.7-.1a43.256,43.256,0,0,0,29.83-14.4,43.256,43.256,0,0,0,29.83,14.4l1.7.1Z"/>
      <path id="Trazado_918926" data-name="Trazado 918926" d="M64.333,19.6A45.711,45.711,0,0,1,37,7.17a1.168,1.168,0,0,0-1.612,0A45.711,45.711,0,0,1,8.063,19.6,1.168,1.168,0,0,0,7,20.765V32.211A36.283,36.283,0,0,0,35.964,67.65a1.168,1.168,0,0,0,.467,0A36.283,36.283,0,0,0,65.4,32.2V20.757a1.168,1.168,0,0,0-1.063-1.16Zm-19.96,9.736a5.84,5.84,0,0,0-1.168-.117H42.038V26.88a1.168,1.168,0,0,1,1.372-1.15,1.265,1.265,0,0,1,.964,1.275ZM39.7,26.88v2.336H37.849a2.747,2.747,0,0,0-.484.049V25.712a1.168,1.168,0,0,1,1.372-1.15,1.265,1.265,0,0,1,.964,1.275Zm-4.672,3.5a1.168,1.168,0,0,1-2.336,0V25.837a1.265,1.265,0,0,1,.964-1.275,1.168,1.168,0,0,1,1.372,1.15Zm-4.672,0v2.211a1.265,1.265,0,0,1-.964,1.275,1.168,1.168,0,0,1-1.372-1.15V28.173a1.265,1.265,0,0,1,.964-1.275,1.168,1.168,0,0,1,1.372,1.15Zm-4.672,5.889a2.747,2.747,0,0,0-.484-.049H23.351V32.845a1.265,1.265,0,0,1,.964-1.275,1.168,1.168,0,0,1,1.372,1.15Zm-4.672-.049H19.847a5.84,5.84,0,0,0-1.168.117V34.013a1.265,1.265,0,0,1,.964-1.275,1.168,1.168,0,0,1,1.372,1.15Zm-1.168,2.336H25.2a.484.484,0,0,1,.342.826A5.12,5.12,0,0,1,21.9,40.9h-.885a1.168,1.168,0,0,0-.522,2.219,7.241,7.241,0,0,1,4.026,6.508v.617h2.336v-.617A9.564,9.564,0,0,0,24.123,42.9a7.429,7.429,0,0,0,2.114-1.063,12.2,12.2,0,0,0,.74,1.919,9.957,9.957,0,0,1,1.045,4.425V62.447a33.762,33.762,0,0,1-7.008-4.714V52.574a1.168,1.168,0,0,0-.256-.73l-1.752-2.192a12.194,12.194,0,0,1-2.664-7.589A3.5,3.5,0,0,1,19.847,38.559ZM36.2,65.312a33.519,33.519,0,0,1-5.84-1.8V48.178a12.305,12.305,0,0,0-1.285-5.469,9.957,9.957,0,0,1-1.051-4.425V36.02a3.527,3.527,0,0,0,1.168.2,3.691,3.691,0,0,0,.576-.047,3.545,3.545,0,0,0,2.776-2.546,3.433,3.433,0,0,0,2.9-.138,2.8,2.8,0,0,0,.408.536,7.457,7.457,0,0,0,3.074,1.861A9.564,9.564,0,0,0,36.2,42.614v.617h2.336v-.617a7.241,7.241,0,0,1,4.026-6.508,1.168,1.168,0,0,0-.522-2.219h-.885a5.12,5.12,0,0,1-3.645-1.51.484.484,0,0,1,.342-.826h5.356a3.5,3.5,0,0,1,3.5,3.5,12.188,12.188,0,0,1-2.663,7.591l-1.752,2.192a1.168,1.168,0,0,0-.257.728v17.94a33.521,33.521,0,0,1-5.84,1.8Zm8.175-2.865V45.979l1.5-1.869a14.482,14.482,0,0,0,2.37-4.3,1.285,1.285,0,0,1,.806,1.215V44.4H47.193A2.819,2.819,0,0,0,45.2,49.212a7.457,7.457,0,0,0,3.074,1.86A9.564,9.564,0,0,0,45.541,57.8v.617h2.336V57.8A7.241,7.241,0,0,1,51.9,51.29a1.168,1.168,0,0,0-.522-2.219H50.5a5.12,5.12,0,0,1-3.645-1.51.484.484,0,0,1,.342-.826h5.356a3.5,3.5,0,0,1,3.5,3.5,12.118,12.118,0,0,1-.4,3.031,33.961,33.961,0,0,1-11.276,9.178Zm9.343-17.931a5.839,5.839,0,0,0-1.168-.117H51.381V42.063a1.168,1.168,0,0,1,1.372-1.15,1.265,1.265,0,0,1,.964,1.275ZM63.06,32.2A33.655,33.655,0,0,1,58.3,49.407a5.808,5.808,0,0,0-2.252-3.81V42.188a3.6,3.6,0,0,0-2.92-3.582,3.54,3.54,0,0,0-2.326.419,3.483,3.483,0,0,0-1.976-1.483,14.491,14.491,0,0,0,.215-2.486,5.813,5.813,0,0,0-2.336-4.641V27.005a3.6,3.6,0,0,0-2.92-3.582,3.533,3.533,0,0,0-2.327.419,3.455,3.455,0,0,0-2.345-1.587,3.514,3.514,0,0,0-2.849.787c-.023.019-.046.039-.068.058-.022-.02-.044-.04-.068-.058A3.476,3.476,0,0,0,30.509,24.8a3.552,3.552,0,0,0-1.9-.21,3.6,3.6,0,0,0-2.927,3.582v1.263a3.542,3.542,0,0,0-1.752-.173A3.455,3.455,0,0,0,21.6,30.851a3.542,3.542,0,0,0-2.336-.42,3.6,3.6,0,0,0-2.92,3.582v3.409a5.813,5.813,0,0,0-2.336,4.641,14.535,14.535,0,0,0,3.174,9.049l1.5,1.872v2.51A33.836,33.836,0,0,1,9.336,32.2V21.815A48.077,48.077,0,0,0,36.2,9.612a48.078,48.078,0,0,0,26.862,12.2Z" transform="translate(0.672 0.979)"/>
    </g>
  </g>
</svg>
