<svg xmlns="http://www.w3.org/2000/svg" xmlns:xlink="http://www.w3.org/1999/xlink" width="118" height="118" viewBox="0 0 118 118">
  <defs>
    <filter id="Elipse_12115" x="0" y="0" width="118" height="118" filterUnits="userSpaceOnUse">
      <feOffset dy="3" input="SourceAlpha"/>
      <feGaussianBlur stdDeviation="3" result="blur"/>
      <feFlood flood-opacity="0.161"/>
      <feComposite operator="in" in2="blur"/>
      <feComposite in="SourceGraphic"/>
    </filter>
  </defs>
  <g id="Grupo_1198258" data-name="Grupo 1198258" transform="translate(-205.949 -5109.429)">
    <g id="Grupo_1198117" data-name="Grupo 1198117" transform="translate(214.949 5115.429)">
      <g id="Grupo_1182334" data-name="Grupo 1182334">
        <g id="Grupo_1181949" data-name="Grupo 1181949">
          <g transform="matrix(1, 0, 0, 1, -9, -6)" filter="url(#Elipse_12115)">
            <g id="Elipse_12115-2" data-name="Elipse 12115" transform="translate(9 6)" fill="#fff9e4" stroke="#b18d00" stroke-width="4">
              <circle cx="50" cy="50" r="50" stroke="none"/>
              <circle cx="50" cy="50" r="48" fill="none"/>
            </g>
          </g>
        </g>
      </g>
    </g>
    <g id="organic-content_17353816" transform="translate(231.262 5134.711)">
      <rect id="Rect치ngulo_408476" data-name="Rect치ngulo 408476" width="49" height="49" rx="4" transform="translate(12.289 12.289)" fill="#0082ed"/>
      <path id="Trazado_916396" data-name="Trazado 916396" d="M54.591,12h-38.5A4.089,4.089,0,0,0,12,16.089v38.5A32.712,32.712,0,0,0,54.591,12Z" transform="translate(0.2 0.2)" fill="#1aa3ff"/>
      <path id="Trazado_916397" data-name="Trazado 916397" d="M56.978,12H16.089A4.089,4.089,0,0,0,12,16.089v4.089H61.067V16.089A4.089,4.089,0,0,0,56.978,12Z" transform="translate(0.2 0.2)" fill="#ffbf1f"/>
      <path id="Trazado_916398" data-name="Trazado 916398" d="M54.591,12h-38.5A4.089,4.089,0,0,0,12,16.089v4.089H56.714A32.519,32.519,0,0,0,54.591,12Z" transform="translate(0.2 0.2)" fill="#ffde17"/>
      <rect id="Rect치ngulo_408477" data-name="Rect치ngulo 408477" width="28" height="28" rx="4" transform="translate(4.289 4.289)" fill="#ffbf1f"/>
      <path id="Trazado_916399" data-name="Trazado 916399" d="M26.327,4H8.089A4.089,4.089,0,0,0,4,8.089V26.327A16.336,16.336,0,0,0,26.327,4Z" transform="translate(0.022 0.022)" fill="#ffde17"/>
      <path id="Trazado_916400" data-name="Trazado 916400" d="M59.915,42.411a6.824,6.824,0,0,0-7.354-.513,6.412,6.412,0,0,0-2.289,2.243V37.668a6.692,6.692,0,0,0,3.049-5.534A6.821,6.821,0,0,0,49.232,26a6.821,6.821,0,0,0-4.089,6.133,6.7,6.7,0,0,0,3.084,5.56v6.461a6.405,6.405,0,0,0-2.3-2.256,6.82,6.82,0,0,0-7.354.513,6.819,6.819,0,0,0,3.3,6.59,6.7,6.7,0,0,0,6.349.08V60.756h2.044V49.085A6.7,6.7,0,0,0,56.613,49a6.82,6.82,0,0,0,3.3-6.59Z" transform="translate(0.79 0.511)" fill="#ffbf1f"/>
      <path id="Trazado_916401" data-name="Trazado 916401" d="M50.272,37.668a6.692,6.692,0,0,0,3.049-5.534A6.821,6.821,0,0,0,49.232,26a6.821,6.821,0,0,0-4.089,6.133,6.7,6.7,0,0,0,3.084,5.56v6.461a6.405,6.405,0,0,0-2.3-2.256,6.82,6.82,0,0,0-7.354.513,6.819,6.819,0,0,0,3.3,6.59,6.342,6.342,0,0,0,1.951.709,32.9,32.9,0,0,0,6.442-6.722Z" transform="translate(0.79 0.511)" fill="#ffde17"/>
      <g id="Grupo_1198257" data-name="Grupo 1198257" transform="translate(3 3)">
        <path id="Trazado_916402" data-name="Trazado 916402" d="M45.756,59.533H16.111a3.07,3.07,0,0,1-3.067-3.067V36.022a1.022,1.022,0,0,0-2.044,0V56.467a5.117,5.117,0,0,0,5.111,5.111H45.756a1.022,1.022,0,0,0,0-2.044Z" transform="translate(-2.822 -2.289)" fill="#12173a"/>
        <path id="Trazado_916403" data-name="Trazado 916403" d="M60.178,49a1.023,1.023,0,0,0-1.022,1.022v6.133a3.07,3.07,0,0,1-3.067,3.067H53.022a1.022,1.022,0,1,0,0,2.044h3.067A5.117,5.117,0,0,0,61.2,56.156V50.022A1.023,1.023,0,0,0,60.178,49Z" transform="translate(-1.911 -1.978)" fill="#12173a"/>
        <path id="Trazado_916404" data-name="Trazado 916404" d="M56.467,11H36.022a1.022,1.022,0,0,0,0,2.044H56.467a3.07,3.07,0,0,1,3.067,3.067v3.067H36.022a1.022,1.022,0,0,0,0,2.044H59.533V38.6a1.022,1.022,0,1,0,2.044,0V16.111A5.117,5.117,0,0,0,56.467,11Z" transform="translate(-2.289 -2.822)" fill="#12173a"/>
        <path id="Trazado_916405" data-name="Trazado 916405" d="M56.067,17.044a1.022,1.022,0,0,0,0-2.044H54.022a1.022,1.022,0,0,0,0,2.044Z" transform="translate(-1.889 -2.733)" fill="#12173a"/>
        <path id="Trazado_916406" data-name="Trazado 916406" d="M50.067,17.044a1.022,1.022,0,0,0,0-2.044H48.022a1.022,1.022,0,0,0,0,2.044Z" transform="translate(-2.022 -2.733)" fill="#12173a"/>
        <path id="Trazado_916407" data-name="Trazado 916407" d="M44.067,17.044a1.022,1.022,0,0,0,0-2.044H42.022a1.022,1.022,0,0,0,0,2.044Z" transform="translate(-2.155 -2.733)" fill="#12173a"/>
        <path id="Trazado_916408" data-name="Trazado 916408" d="M57.141,49.912a7.8,7.8,0,0,0,3.814-7.564,1.02,1.02,0,0,0-.426-.746,7.8,7.8,0,0,0-8.453-.567,7.377,7.377,0,0,0-1.783,1.44v-3.59a7.631,7.631,0,0,0-.61-13.788,1.019,1.019,0,0,0-.86,0A7.631,7.631,0,0,0,48.248,38.9v3.58a7.381,7.381,0,0,0-1.79-1.45A7.8,7.8,0,0,0,38,41.6a1.022,1.022,0,0,0-.426.746,7.8,7.8,0,0,0,3.813,7.564,7.481,7.481,0,0,0,3.723.985,7.82,7.82,0,0,0,3.133-.677V60.777a1.022,1.022,0,0,0,2.044,0V50.244a7.94,7.94,0,0,0,3.125.653,7.485,7.485,0,0,0,3.722-.985ZM48.25,47.949A5.588,5.588,0,0,1,39.6,43a5.575,5.575,0,0,1,8.655,4.751v.2Zm1-10.806a5.589,5.589,0,0,1,0-9.975,5.589,5.589,0,0,1,0,9.975Zm1.04,10.81V47.59A5.566,5.566,0,0,1,58.941,43a5.588,5.588,0,0,1-8.647,4.952Z" transform="translate(-2.232 -2.511)" fill="#12173a"/>
        <path id="Trazado_916409" data-name="Trazado 916409" d="M33.667,28.556V8.111A5.117,5.117,0,0,0,28.556,3H8.111A5.117,5.117,0,0,0,3,8.111a1.022,1.022,0,0,0,2.044,0A3.07,3.07,0,0,1,8.111,5.044H28.556a3.07,3.07,0,0,1,3.067,3.067V28.556a3.07,3.07,0,0,1-3.067,3.067H8.111a3.07,3.07,0,0,1-3.067-3.067V12.2A1.022,1.022,0,0,0,3,12.2V28.556a5.117,5.117,0,0,0,5.111,5.111H28.556A5.117,5.117,0,0,0,33.667,28.556Z" transform="translate(-3 -3)" fill="#12173a"/>
        <path id="Trazado_916410" data-name="Trazado 916410" d="M32.333,40H18.022a1.022,1.022,0,1,0,0,2.044H32.333a1.022,1.022,0,0,0,0-2.044Z" transform="translate(-2.689 -2.178)" fill="#12173a"/>
        <path id="Trazado_916411" data-name="Trazado 916411" d="M33.356,45.022A1.023,1.023,0,0,0,32.333,44H18.022a1.022,1.022,0,1,0,0,2.044H32.333A1.023,1.023,0,0,0,33.356,45.022Z" transform="translate(-2.689 -2.089)" fill="#12173a"/>
        <path id="Trazado_916412" data-name="Trazado 916412" d="M18.022,48a1.022,1.022,0,1,0,0,2.044H28.244a1.022,1.022,0,1,0,0-2.044Z" transform="translate(-2.689 -2)" fill="#12173a"/>
        <path id="Trazado_916413" data-name="Trazado 916413" d="M18.022,14A1.023,1.023,0,0,0,17,15.022v3.067a1.02,1.02,0,0,0,.3.723l3.067,3.067a1.022,1.022,0,0,0,1.445-1.445l-2.767-2.767V15.022A1.023,1.023,0,0,0,18.022,14Z" transform="translate(-2.689 -2.756)" fill="#12173a"/>
        <path id="Trazado_916414" data-name="Trazado 916414" d="M22.461,15.588a1.023,1.023,0,0,0,.283,1.418l3.067,2.044a1.023,1.023,0,0,0,1.418-.283L29.273,15.7a1.022,1.022,0,1,0-1.7-1.135l-.591.887a9.2,9.2,0,1,0-.813,7.348,1.023,1.023,0,0,0-1.77-1.024,7.156,7.156,0,1,1,.635-5.7l-1.155-.77a1.021,1.021,0,0,0-1.418.283Z" transform="translate(-2.867 -2.867)" fill="#12173a"/>
      </g>
    </g>
  </g>
</svg>
