<svg xmlns="http://www.w3.org/2000/svg" xmlns:xlink="http://www.w3.org/1999/xlink" width="118" height="118" viewBox="0 0 118 118">
  <defs>
    <filter id="Trazado_896985" x="0" y="0" width="118" height="118" filterUnits="userSpaceOnUse">
      <feOffset dy="3" input="SourceAlpha"/>
      <feGaussianBlur stdDeviation="3" result="blur"/>
      <feFlood flood-opacity="0.161"/>
      <feComposite operator="in" in2="blur"/>
      <feComposite in="SourceGraphic"/>
    </filter>
  </defs>
  <g id="Grupo_1198270" data-name="Grupo 1198270" transform="translate(-326.229 -3136.021)">
    <g id="Grupo_1198100" data-name="Grupo 1198100" transform="translate(0.339 -709.979)">
      <g id="Grupo_1111318" data-name="Grupo 1111318" transform="translate(334.891 3852)">
        <g id="Grupo_1109826" data-name="Grupo 1109826" transform="translate(0)">
          <g id="Grupo_1098742" data-name="Grupo 1098742" transform="translate(0 0)">
            <g transform="matrix(1, 0, 0, 1, -9, -6)" filter="url(#Trazado_896985)">
              <g id="Trazado_896985-2" data-name="Trazado 896985" transform="translate(9 6)" fill="#d6edba" opacity="0.859">
                <path d="M 49.99993515014648 99.5 C 43.31726837158203 99.5 36.83476257324219 98.19129943847656 30.73248100280762 95.61025238037109 C 24.83812141418457 93.11714172363281 19.54434776306152 89.54795837402344 14.99820137023926 85.00179290771484 C 10.45204162597656 80.45565032958984 6.88285493850708 75.16187286376953 4.389748573303223 69.26751708984375 C 1.808695197105408 63.16523742675781 0.5000017881393433 56.6827278137207 0.5000017881393433 50.00006103515625 C 0.5000017881393433 43.31726455688477 1.808695197105408 36.83475494384766 4.389748573303223 30.73247528076172 C 6.88285493850708 24.83811569213867 10.45204162597656 19.54434204101562 14.99820137023926 14.99819660186768 C 19.54434776306152 10.45203590393066 24.83812141418457 6.88284969329834 30.73248100280762 4.389742851257324 C 36.83476257324219 1.808689475059509 43.31726837158203 0.4999961853027344 49.99993515014648 0.4999961853027344 C 56.68260192871094 0.4999961853027344 63.16510772705078 1.808689475059509 69.26738739013672 4.389742851257324 C 75.16175079345703 6.88284969329834 80.45552062988281 10.45203590393066 85.00167083740234 14.99819660186768 C 89.54782867431641 19.54434204101562 93.11701202392578 24.83811569213867 95.61012268066406 30.73247528076172 C 98.19117736816406 36.83475494384766 99.49987030029297 43.31726455688477 99.49987030029297 49.99993133544922 C 99.49987030029297 56.6827278137207 98.19117736816406 63.16523742675781 95.61012268066406 69.26751708984375 C 93.11701202392578 75.16187286376953 89.54782867431641 80.45565032958984 85.00167083740234 85.00179290771484 C 80.45552062988281 89.54795837402344 75.16175079345703 93.11714172363281 69.26738739013672 95.61025238037109 C 63.16510772705078 98.19129943847656 56.68260192871094 99.5 49.99993515014648 99.5 Z" stroke="none"/>
                <path d="M 49.99993515014648 0.9999923706054688 C 43.38454818725586 0.9999923706054688 36.96757507324219 2.29541015625 30.92725372314453 4.850250244140625 C 25.09249877929688 7.318145751953125 19.85213470458984 10.85135650634766 15.35174560546875 15.35174560546875 C 10.85136413574219 19.85212707519531 7.318145751953125 25.09249114990234 4.850257873535156 30.92724609375 C 2.295417785644531 36.96757125854492 1 43.38454437255859 1 50.00006103515625 C 1 56.61544799804688 2.295417785644531 63.03242111206055 4.850257873535156 69.07273864746094 C 7.318145751953125 74.90750122070312 10.85136413574219 80.14786529541016 15.35174560546875 84.64824676513672 C 19.85213470458984 89.14863586425781 25.09249877929688 92.68184661865234 30.92725372314453 95.14974212646484 C 36.96757507324219 97.70458221435547 43.38454818725586 99 49.99993515014648 99 C 56.61532211303711 99 63.03229522705078 97.70458221435547 69.07261657714844 95.14974212646484 C 74.90737915039062 92.68184661865234 80.14773559570312 89.14863586425781 84.64812469482422 84.64824676513672 C 89.14850616455078 80.14786529541016 92.68172454833984 74.90750122070312 95.14961242675781 69.07273864746094 C 97.70445251464844 63.03242111206055 98.99987030029297 56.61544799804688 98.99987030029297 49.99993133544922 C 98.99987030029297 43.38454437255859 97.70445251464844 36.96757125854492 95.14961242675781 30.92724609375 C 92.68172454833984 25.09249114990234 89.14850616455078 19.85212707519531 84.64812469482422 15.35174560546875 C 80.14773559570312 10.85135650634766 74.90737915039062 7.318145751953125 69.07261657714844 4.850250244140625 C 63.03229522705078 2.29541015625 56.61532211303711 0.9999923706054688 49.99993515014648 0.9999923706054688 M 49.99993515014648 -7.62939453125e-06 C 77.6141357421875 -7.62939453125e-06 99.99987030029297 22.38572692871094 99.99987030029297 49.99993133544922 L 99.99987030029297 50.00006103515625 C 99.99987030029297 77.61426544189453 77.6141357421875 100 49.99993515014648 100 C 22.38573455810547 100 0 77.61426544189453 0 50.00006103515625 L 0 49.99993133544922 C 0 22.38572692871094 22.38573455810547 -7.62939453125e-06 49.99993515014648 -7.62939453125e-06 Z" stroke="none" fill="#fff"/>
              </g>
            </g>
            <g id="Rectángulo_400907" data-name="Rectángulo 400907" transform="translate(0)" fill="none" stroke="#fff" stroke-width="1">
              <rect width="100" height="100" rx="50" stroke="none"/>
              <rect x="0.5" y="0.5" width="99" height="99" rx="49.5" fill="none"/>
            </g>
          </g>
        </g>
      </g>
    </g>
    <g id="avatar_6003196" transform="translate(353.705 3156.497)">
      <path id="Trazado_916534" data-name="Trazado 916534" d="M46.914,31A15.914,15.914,0,1,0,62.827,46.914,15.914,15.914,0,0,0,46.914,31Z" transform="translate(4.237 4.237)" fill="#60a917"/>
      <path id="Trazado_916535" data-name="Trazado 916535" d="M43.443,31.105a15.9,15.9,0,0,1,.119,31.619,15.9,15.9,0,1,0-.119-31.619Z" transform="translate(5.938 4.238)" fill="#549414"/>
      <rect id="Rectángulo_408481" data-name="Rectángulo 408481" width="18.187" height="4.547" rx="2" transform="translate(42.057 44.331)" fill="#f5f5f5"/>
      <rect id="Rectángulo_408482" data-name="Rectángulo 408482" width="18.187" height="4.547" rx="2" transform="translate(42.057 53.424)" fill="#f5f5f5"/>
      <path id="Trazado_916536" data-name="Trazado 916536" d="M56.287,20.094c0,1.864-1.125,3.91-4.547,5.354V23.015A4.475,4.475,0,0,0,49.808,19.3c-2.455-1.648-7.9-3.751-19.665-3.751S12.934,17.65,10.479,19.3a4.475,4.475,0,0,0-1.932,3.717V25.22C5.523,23.8,4,21.855,4,20.094c0-3.33,5.138-6.24,12.81-7.82A66.8,66.8,0,0,1,30.144,11a66.8,66.8,0,0,1,13.333,1.273C51.15,13.853,56.287,16.763,56.287,20.094Z" transform="translate(0.547 1.504)" fill="#ff9801"/>
      <path id="Trazado_916537" data-name="Trazado 916537" d="M40.538,12.273A66.8,66.8,0,0,0,27.205,11c-.579,0-1.137.027-1.705.041a65.533,65.533,0,0,1,11.628,1.232c7.673,1.58,12.81,4.49,12.81,7.82a4.64,4.64,0,0,1-1.137,3v2.356c3.421-1.444,4.547-3.49,4.547-5.354C53.349,16.763,48.211,13.853,40.538,12.273Z" transform="translate(3.485 1.504)" fill="#f57c00"/>
      <path id="Trazado_916538" data-name="Trazado 916538" d="M41.937,13.64A66.8,66.8,0,0,0,28.6,12.367,66.8,66.8,0,0,0,15.27,13.64l1.375-9.707a3.428,3.428,0,0,1,4.274-2.819A30.215,30.215,0,0,0,28.6,2.137a30.215,30.215,0,0,0,7.684-1.023,3.428,3.428,0,0,1,4.274,2.819Z" transform="translate(2.087 0.137)" fill="sienna"/>
      <path id="Trazado_916539" data-name="Trazado 916539" d="M34.749,3.933l1.291,9.116c1.209.172,2.387.365,3.494.594L38.159,3.933a3.428,3.428,0,0,0-4.274-2.819c-.319.083-.682.164-1.037.246a3.4,3.4,0,0,1,1.9,2.573Z" transform="translate(4.49 0.137)" fill="#783e22"/>
      <path id="Trazado_916540" data-name="Trazado 916540" d="M49.647,60.778H11V47.9l5.683-1.91v5.695a2.28,2.28,0,0,0,2.273,2.273H36.6A15.86,15.86,0,0,0,49.647,60.778Z" transform="translate(1.503 6.286)" fill="#02a9f4"/>
      <path id="Trazado_916541" data-name="Trazado 916541" d="M33.93,53H30.52a15.86,15.86,0,0,0,13.049,6.82h3.41A15.86,15.86,0,0,1,33.93,53Z" transform="translate(4.171 7.244)" fill="#0377bc"/>
      <path id="Trazado_916542" data-name="Trazado 916542" d="M12.366,47.67V60.549H2.227a1.229,1.229,0,0,1-1-1.932l5.32-7.6a6.76,6.76,0,0,1,3.4-2.535Z" transform="translate(0.137 6.516)" fill="#ffdf00"/>
      <path id="Trazado_916543" data-name="Trazado 916543" d="M35.915,54.095H18.273A2.28,2.28,0,0,1,16,51.821V46.127l3.41-1.137V45s2.273,4.547,9.093,4.547a12.132,12.132,0,0,0,4.956-.978,15.737,15.737,0,0,0,2.455,5.524Z" transform="translate(2.187 6.15)" fill="#ffdf00"/>
      <path id="Trazado_916544" data-name="Trazado 916544" d="M31.741,48.14a11.543,11.543,0,0,1-3.171.854,15.854,15.854,0,0,0,2.217,4.671H34.2A15.737,15.737,0,0,1,31.741,48.14Z" transform="translate(3.905 6.58)" fill="#fec108"/>
      <path id="Trazado_916545" data-name="Trazado 916545" d="M32.64,46.156a15.412,15.412,0,0,0,.409,3.569,12.132,12.132,0,0,1-4.956.978C21.273,50.7,19,46.156,19,46.156v-.011a7.334,7.334,0,0,0,3.4-5.672,7.144,7.144,0,0,0-.352-2.512c.375.273.773.534,1.171.784a10.323,10.323,0,0,0,4.876,1.716c2.478,0,5.774-2.057,7.786-3.922a15.834,15.834,0,0,0-3.24,9.616Z" transform="translate(2.597 4.995)" fill="#ffe0b2"/>
      <path id="Trazado_916546" data-name="Trazado 916546" d="M46.1,25.23a4.547,4.547,0,0,1-4.547,4.535L39.882,34.79a11.528,11.528,0,0,1-1.432,2.876,14.425,14.425,0,0,0-1.614,1.819c-2.012,1.864-5.308,3.922-7.786,3.922a10.323,10.323,0,0,1-4.876-1.716c-.4-.25-.8-.512-1.171-.784a15.1,15.1,0,0,1-2.751-2.455,11.129,11.129,0,0,1-2.035-3.66l-1.671-5.024a4.535,4.535,0,1,1,0-9.071c5.683-.011,12.5,3.4,12.5-5.695,0,9.093,6.82,5.683,12.5,5.695A4.547,4.547,0,0,1,46.1,25.23Z" transform="translate(1.641 2.05)" fill="#ffe0b2"/>
      <path id="Trazado_916547" data-name="Trazado 916547" d="M39.711,20.01a22.018,22.018,0,0,0-2.331.142,4.525,4.525,0,0,1-.008,8.8,2.18,2.18,0,0,0-1.515,1.461L34.63,34.1A11.528,11.528,0,0,1,33.2,36.981,14.426,14.426,0,0,0,31.584,38.8a16.634,16.634,0,0,1-6.1,3.645,6.24,6.24,0,0,0,1.725.276c2.478,0,5.774-2.057,7.786-3.922a14.425,14.425,0,0,1,1.614-1.819A11.528,11.528,0,0,0,38.04,34.1l1.671-5.024a4.535,4.535,0,0,0,0-9.071Z" transform="translate(3.483 2.735)" fill="#dfc49c"/>
      <path id="Trazado_916548" data-name="Trazado 916548" d="M29.6,15c0,9.093-6.82,5.683-12.5,5.695a4.535,4.535,0,1,0,0,9.071l1.671,5.024A11.129,11.129,0,0,0,20.8,38.45a15.1,15.1,0,0,0,2.751,2.455,7.144,7.144,0,0,1,.352,2.512H15.957A7.957,7.957,0,0,1,8,35.46V22.468a4.475,4.475,0,0,1,1.932-3.717C12.388,17.1,17.832,15,29.6,15Z" transform="translate(1.093 2.05)" fill="sienna"/>
      <path id="Trazado_916549" data-name="Trazado 916549" d="M48.6,22.468V33.232c-.375-.034-.75-.045-1.137-.045A15.847,15.847,0,0,0,36.4,37.665a11.528,11.528,0,0,0,1.432-2.876L39.5,29.766a4.535,4.535,0,1,0,0-9.071C33.82,20.683,27,24.093,27,15c11.765,0,17.209,2.1,19.665,3.751A4.475,4.475,0,0,1,48.6,22.468Z" transform="translate(3.69 2.05)" fill="sienna"/>
      <path id="Trazado_916550" data-name="Trazado 916550" d="M48.6,22.468V33.232c-.375-.034-.75-.045-1.137-.045a15.079,15.079,0,0,0-2.273.171V22.468a4.475,4.475,0,0,0-1.932-3.717C41.049,17.273,36.423,15.432,27,15.068V15c11.765,0,17.209,2.1,19.665,3.751A4.475,4.475,0,0,1,48.6,22.468Z" transform="translate(3.69 2.05)" fill="#783e22"/>
      <path id="Trazado_916551" data-name="Trazado 916551" d="M53.424,34.27V27.677c3.932-1.913,4.547-4.6,4.547-6.08,0-4.17-5.538-7.135-12.932-8.765L43.772,3.908A4.564,4.564,0,0,0,38.089.157,27.978,27.978,0,0,1,23.3.154,4.565,4.565,0,0,0,17.607,3.91l-1.265,8.922C8.948,14.462,3.41,17.427,3.41,21.6c0,2.195,1.656,4.282,4.547,5.813v10.1A9.1,9.1,0,0,0,17.05,46.6h6.612a6.793,6.793,0,0,1-2.6,3.516L9.721,53.914a7.86,7.86,0,0,0-3.973,2.967L.43,64.48A2.364,2.364,0,0,0,2.366,68.2H51.151A17.041,17.041,0,0,0,53.424,34.27Zm-10.5,1.955,1.108-3.334a5.672,5.672,0,0,0-.84-11.283,26.644,26.644,0,0,0-3.967.327c-2.521.313-4.9.612-6.138-.482A4.793,4.793,0,0,1,31.878,18.2c11.088.144,15.932,2.26,17.839,3.542a3.327,3.327,0,0,1,1.433,2.776V34.1a16.937,16.937,0,0,0-8.225,2.124ZM19.323,53.1l1.794-.6c1.082,1.467,3.916,4.335,9.573,4.335a13.886,13.886,0,0,0,4.181-.612,16.936,16.936,0,0,0,1.211,2.885H20.46a1.137,1.137,0,0,1-1.137-1.137Zm15.034.892a11.516,11.516,0,0,1-3.667.569,9.264,9.264,0,0,1-7.576-3.183,8.026,8.026,0,0,0,3.019-6.152,10.327,10.327,0,0,0,4.557,1.366,10.116,10.116,0,0,0,4.481-1.332,16.436,16.436,0,0,0-.814,8.731ZM30.69,22.1a4.871,4.871,0,0,0,.893,1.055c2.007,1.772,5.016,1.395,7.926,1.034a30.274,30.274,0,0,1,3.659-.31h.025a3.4,3.4,0,1,1,0,6.8,1.137,1.137,0,0,0-1.079.779l-1.666,5.012a10.439,10.439,0,0,1-1.267,2.556A17.217,17.217,0,0,0,37.7,40.7c-1.94,1.8-4.967,3.617-7.013,3.617a9.207,9.207,0,0,1-4.283-1.548,16.083,16.083,0,0,1-3.65-3.009,9.949,9.949,0,0,1-1.819-3.28l-1.671-5.024a1.137,1.137,0,0,0-1.081-.779,3.4,3.4,0,0,1,0-6.8,31.584,31.584,0,0,1,3.682.31c2.908.361,5.918.739,7.926-1.034a4.871,4.871,0,0,0,.9-1.055ZM19.858,4.234a2.256,2.256,0,0,1,1-1.579,2.3,2.3,0,0,1,1.86-.3,30.245,30.245,0,0,0,15.947,0,2.314,2.314,0,0,1,1.856.3,2.252,2.252,0,0,1,1,1.575l1.154,8.136a72.309,72.309,0,0,0-23.972,0ZM5.683,21.6c0-3.764,10.27-7.957,25.007-7.957S55.7,17.834,55.7,21.6a4.206,4.206,0,0,1-2.273,3.483v-.562a5.6,5.6,0,0,0-2.436-4.66c-2.679-1.8-8.377-3.944-20.3-3.944s-17.619,2.145-20.3,3.947a5.6,5.6,0,0,0-2.433,4.658v.261A4.369,4.369,0,0,1,5.683,21.6ZM10.23,37.511V24.518a3.326,3.326,0,0,1,1.43-2.774c1.911-1.283,6.755-3.4,17.846-3.544A4.793,4.793,0,0,1,28.3,21.454c-1.24,1.093-3.623.8-6.138.482a32.025,32.025,0,0,0-3.935-.327h-.035a5.672,5.672,0,0,0-.84,11.283l1.433,4.319a12.236,12.236,0,0,0,2.248,4.022,16.3,16.3,0,0,0,2.614,2.387,6.751,6.751,0,0,1,.164.713H17.05a6.827,6.827,0,0,1-6.82-6.821ZM2.293,65.782l5.323-7.6a5.612,5.612,0,0,1,2.833-2.115l.918-.309V65.928h-9Zm11.348.145V55l3.41-1.137v4.108a3.41,3.41,0,0,0,3.41,3.41H37.542a17.171,17.171,0,0,0,5.138,4.547Zm37.511,0A14.777,14.777,0,1,1,65.928,51.151,14.777,14.777,0,0,1,51.151,65.928Z" transform="translate(0 0)"/>
      <path id="Trazado_916552" data-name="Trazado 916552" d="M53.05,38H39.41a3.41,3.41,0,0,0,0,6.82H53.05a3.41,3.41,0,1,0,0-6.82Zm0,4.547H39.41a1.137,1.137,0,0,1,0-2.273H53.05a1.137,1.137,0,0,1,0,2.273Z" transform="translate(4.92 5.194)"/>
      <path id="Trazado_916553" data-name="Trazado 916553" d="M53.05,46H39.41a3.41,3.41,0,1,0,0,6.82H53.05a3.41,3.41,0,1,0,0-6.82Zm0,4.547H39.41a1.137,1.137,0,0,1,0-2.273H53.05a1.137,1.137,0,1,1,0,2.273Z" transform="translate(4.92 6.288)"/>
      <path id="Trazado_916554" data-name="Trazado 916554" d="M25.137,34.264h4.547a1.137,1.137,0,0,0,0-2.273H25.137a1.137,1.137,0,0,0,0,2.273Z" transform="translate(3.28 4.373)"/>
      <path id="Trazado_916555" data-name="Trazado 916555" d="M28.41,34.991H26.137a1.137,1.137,0,1,0,0,2.273H28.41a1.137,1.137,0,1,0,0-2.273Z" transform="translate(3.417 4.783)"/>
      <path id="Trazado_916556" data-name="Trazado 916556" d="M21.137,22.991a1.137,1.137,0,0,0,0,2.273,1.137,1.137,0,1,0,2.273,0,1.137,1.137,0,0,0,0-2.273Z" transform="translate(2.734 3.143)"/>
      <path id="Trazado_916557" data-name="Trazado 916557" d="M31.137,25.264a1.137,1.137,0,1,0,2.273,0,1.137,1.137,0,0,0,0-2.273H31.137a1.137,1.137,0,0,0,0,2.273Z" transform="translate(4.1 3.143)"/>
      <path id="Trazado_916558" data-name="Trazado 916558" d="M26.137,30.264H28.41a1.137,1.137,0,1,0,0-2.273H26.137a1.137,1.137,0,1,0,0,2.273Z" transform="translate(3.417 3.826)"/>
    </g>
  </g>
</svg>
