<svg xmlns="http://www.w3.org/2000/svg" xmlns:xlink="http://www.w3.org/1999/xlink" width="272" height="228.943" viewBox="0 0 272 228.943">
  <defs>
    <clipPath id="clip-path">
      <rect id="Rectángulo_408390" data-name="Rectángulo 408390" width="272" height="178.022" rx="8" transform="translate(205.083 5119.432)" fill="#eaf4ff" opacity="0.58"/>
    </clipPath>
    <clipPath id="clip-path-2">
      <rect id="Rectángulo_408485" data-name="Rectángulo 408485" width="271.999" height="586.711" fill="none"/>
    </clipPath>
    <clipPath id="clip-path-3">
      <rect id="Rectángulo_408509" data-name="Rectángulo 408509" width="272" height="228.943" rx="8" transform="translate(205.083 5100.432)" fill="#eaf4ff" opacity="0.58"/>
    </clipPath>
    <clipPath id="clip-path-4">
      <rect id="Rectángulo_408508" data-name="Rectángulo 408508" width="243.889" height="237.35" fill="none"/>
    </clipPath>
    <clipPath id="clip-path-5">
      <rect id="Rectángulo_408507" data-name="Rectángulo 408507" width="170.837" height="237.12" fill="none"/>
    </clipPath>
    <clipPath id="clip-path-6">
      <rect id="Rectángulo_408486" data-name="Rectángulo 408486" width="12.217" height="27.918" fill="none"/>
    </clipPath>
    <clipPath id="clip-path-7">
      <rect id="Rectángulo_408487" data-name="Rectángulo 408487" width="18.535" height="23.701" fill="none"/>
    </clipPath>
    <clipPath id="clip-path-8">
      <rect id="Rectángulo_408488" data-name="Rectángulo 408488" width="11.171" height="28.359" fill="none"/>
    </clipPath>
    <clipPath id="clip-path-9">
      <rect id="Rectángulo_408492" data-name="Rectángulo 408492" width="12.542" height="32.794" fill="none"/>
    </clipPath>
    <clipPath id="clip-path-10">
      <rect id="Rectángulo_408495" data-name="Rectángulo 408495" width="60.378" height="3.659" fill="none"/>
    </clipPath>
    <clipPath id="clip-path-11">
      <rect id="Rectángulo_408496" data-name="Rectángulo 408496" width="11.589" height="39.458" fill="none"/>
    </clipPath>
    <clipPath id="clip-path-12">
      <rect id="Rectángulo_408497" data-name="Rectángulo 408497" width="3.005" height="5.814" fill="none"/>
    </clipPath>
    <clipPath id="clip-path-13">
      <rect id="Rectángulo_408498" data-name="Rectángulo 408498" width="3.902" height="5.256" fill="none"/>
    </clipPath>
    <clipPath id="clip-path-14">
      <rect id="Rectángulo_408499" data-name="Rectángulo 408499" width="17.363" height="11.735" fill="none"/>
    </clipPath>
    <clipPath id="clip-path-15">
      <rect id="Rectángulo_408502" data-name="Rectángulo 408502" width="6.467" height="3.332" fill="none"/>
    </clipPath>
    <clipPath id="clip-path-16">
      <rect id="Rectángulo_408503" data-name="Rectángulo 408503" width="1.302" height="2.526" fill="none"/>
    </clipPath>
    <clipPath id="clip-path-17">
      <rect id="Rectángulo_408504" data-name="Rectángulo 408504" width="22.633" height="33.609" fill="none"/>
    </clipPath>
    <clipPath id="clip-path-18">
      <rect id="Rectángulo_408505" data-name="Rectángulo 408505" width="3.983" height="4.338" fill="none"/>
    </clipPath>
    <clipPath id="clip-path-19">
      <rect id="Rectángulo_408506" data-name="Rectángulo 408506" width="3.984" height="4.338" fill="none"/>
    </clipPath>
  </defs>
  <g id="Grupo_1198359" data-name="Grupo 1198359" transform="translate(-205.083 -5100.432)">
    <g id="Enmascarar_grupo_1098806" data-name="Enmascarar grupo 1098806" clip-path="url(#clip-path)">
      <g id="Grupo_1198312" data-name="Grupo 1198312" transform="translate(205.083 4843.001)">
        <rect id="Rectángulo_408483" data-name="Rectángulo 408483" width="272" height="586.712" transform="translate(0 -0.001)" fill="#e2f7f2"/>
        <rect id="Rectángulo_408484" data-name="Rectángulo 408484" width="2.304" height="30.387" transform="translate(42.33 345.595)" fill="#872a21"/>
        <g id="Grupo_1198311" data-name="Grupo 1198311" transform="translate(0 0)">
          <g id="Grupo_1198310" data-name="Grupo 1198310" clip-path="url(#clip-path-2)">
            <path id="Trazado_916645" data-name="Trazado 916645" d="M47.342,304.563c-1.139-2.671-4.185-2.671-5.324,0-4.556,10.68-13.362,32.959-13.355,45.611,0,4.223,4.511,7.619,8.745,9.878a15.156,15.156,0,0,0,14.544,0c4.233-2.259,8.742-5.655,8.745-9.878.007-12.652-8.8-34.932-13.355-45.611" transform="translate(-1.197 -12.636)" fill="#569171"/>
            <path id="Trazado_916646" data-name="Trazado 916646" d="M47.451,357.868c-4.463-1.757-9.333-4.614-9.82-8.809-1.438-12.387,4.554-35.041,7.886-46.348a2.8,2.8,0,0,0-3.5,1.852c-4.556,10.68-13.362,32.959-13.355,45.612,0,4.222,4.511,7.619,8.745,9.877a15.157,15.157,0,0,0,14.544,0c.635-.338,1.276-.7,1.908-1.092a15.522,15.522,0,0,1-6.409-1.091" transform="translate(-1.197 -12.636)" fill="#3a6d50"/>
            <path id="Trazado_916647" data-name="Trazado 916647" d="M0,353.282s127.385-5.24,271.626,85.644V601.464H0Z" transform="translate(0 -14.752)" fill="#7dbb77"/>
            <path id="Trazado_916648" data-name="Trazado 916648" d="M0,477.091c114.322,7.4,232.118,60.223,271.626,79.43V502.95C178.87,425.237.008,401.7,0,401.7Z" transform="translate(0 -16.777)" fill="#569171"/>
            <path id="Trazado_916649" data-name="Trazado 916649" d="M251.683,271.481H130.5s.458-5.727,10.079-5.268c.458-9.393,13.745-15.119,22.45-7.56-6.414-15.806-2.52-27.489,8.476-28.634s18.325,10.308,20.387,17.409c6.642-7.1,8.017-1.145,8.246,0,10.08-10.995,23.595-7.33,27.718-2.977s3.207,14.66,3.207,14.66,14.431-6.184,17.638.458-2.519,8.934-2.519,8.934,4.81-.916,5.5,2.978" transform="translate(-5.45 -9.603)" fill="#fff"/>
          </g>
        </g>
      </g>
    </g>
    <g id="Enmascarar_grupo_1098807" data-name="Enmascarar grupo 1098807" clip-path="url(#clip-path-3)">
      <g id="Grupo_1198358" data-name="Grupo 1198358" transform="translate(192.527 5092.025)">
        <g id="Grupo_1198357" data-name="Grupo 1198357" clip-path="url(#clip-path-4)">
          <g id="Grupo_1198356" data-name="Grupo 1198356" transform="translate(73.054)">
            <g id="Grupo_1198355" data-name="Grupo 1198355" clip-path="url(#clip-path-5)">
              <line id="Línea_681" data-name="Línea 681" x2="72.935" y2="86.76" transform="translate(-59.556 142.534)" fill="none" stroke="#540d0a" stroke-linecap="round" stroke-miterlimit="10" stroke-width="1.157"/>
              <path id="Trazado_916650" data-name="Trazado 916650" d="M115.739,317.61l2.9-33.509s-12.034.115-2.9,33.509" transform="translate(-117.68 -112.881)" fill="#7dbb77"/>
              <path id="Trazado_916651" data-name="Trazado 916651" d="M118,317.61l2.9-33.509s11.835,2.181-2.9,33.509" transform="translate(-119.937 -112.881)" fill="#5a8e54"/>
              <line id="Línea_682" data-name="Línea 682" x1="2.192" y2="30.648" transform="translate(-2.02 180.328)" fill="none" stroke="#540d0a" stroke-linecap="round" stroke-miterlimit="10" stroke-width="1.157"/>
              <path id="Trazado_916652" data-name="Trazado 916652" d="M141.754,348.555l2.9-33.509s-12.034.115-2.9,33.509" transform="translate(-128.016 -125.176)" fill="#7dbb77"/>
              <path id="Trazado_916653" data-name="Trazado 916653" d="M144.011,348.555l2.9-33.509s11.836,2.181-2.9,33.509" transform="translate(-130.273 -125.176)" fill="#5a8e54"/>
              <line id="Línea_683" data-name="Línea 683" x1="2.192" y2="30.648" transform="translate(13.658 198.978)" fill="none" stroke="#540d0a" stroke-linecap="round" stroke-miterlimit="10" stroke-width="1.157"/>
              <path id="Trazado_916654" data-name="Trazado 916654" d="M111.552,374.486l-33.509-2.9s2.18-11.835,33.509,2.9" transform="translate(-104.062 -145.855)" fill="#aedba9"/>
              <path id="Trazado_916655" data-name="Trazado 916655" d="M111.552,377.45l-33.509-2.9s.115,12.034,33.509,2.9" transform="translate(-104.062 -148.819)" fill="#5a8e54"/>
              <line id="Línea_684" data-name="Línea 684" x2="30.569" y2="3.107" transform="translate(-16.911 226.519)" fill="none" stroke="#540d0a" stroke-linecap="round" stroke-miterlimit="10" stroke-width="1.157"/>
              <path id="Trazado_916656" data-name="Trazado 916656" d="M350.868,288.554l15.473-18.406s6.026,6.141-15.473,18.406" transform="translate(-212.463 -107.337)" fill="#aedba9"/>
              <path id="Trazado_916657" data-name="Trazado 916657" d="M350.868,288.273l15.473-18.406s-7.086-4.88-15.473,18.406" transform="translate(-212.463 -107.057)" fill="#5a8e54"/>
              <line id="Línea_685" data-name="Línea 685" x1="52.141" y2="62.025" transform="translate(97.144 168.274)" fill="none" stroke="#540d0a" stroke-linecap="round" stroke-miterlimit="10" stroke-width="0.827"/>
              <path id="Trazado_916658" data-name="Trazado 916658" d="M336.4,292.95l-2.074-23.956s8.6.082,2.074,23.956" transform="translate(-205.892 -106.879)" fill="#aedba9"/>
              <path id="Trazado_916659" data-name="Trazado 916659" d="M334.286,292.95l-2.074-23.956s-8.461,1.559,2.074,23.956" transform="translate(-203.774 -106.879)" fill="#5a8e54"/>
              <line id="Línea_686" data-name="Línea 686" x2="1.567" y2="21.911" transform="translate(129.002 168.627)" fill="none" stroke="#540d0a" stroke-linecap="round" stroke-miterlimit="10" stroke-width="0.827"/>
              <path id="Trazado_916660" data-name="Trazado 916660" d="M345.183,311.487l23.956-2.074s-1.559-8.461-23.956,2.074" transform="translate(-210.204 -121.661)" fill="#aedba9"/>
              <path id="Trazado_916661" data-name="Trazado 916661" d="M345.183,313.606l23.956-2.074s-.082,8.6-23.956,2.074" transform="translate(-210.204 -123.78)" fill="#5a8e54"/>
              <line id="Línea_687" data-name="Línea 687" x1="21.854" y2="2.221" transform="translate(130.569 188.316)" fill="none" stroke="#540d0a" stroke-linecap="round" stroke-miterlimit="10" stroke-width="0.827"/>
              <path id="Trazado_916662" data-name="Trazado 916662" d="M317.807,315.073l-2.074-23.956s8.6.082,2.074,23.956" transform="translate(-198.503 -115.669)" fill="#aedba9"/>
              <path id="Trazado_916663" data-name="Trazado 916663" d="M315.688,315.073l-2.074-23.956s-8.461,1.559,2.074,23.956" transform="translate(-196.384 -115.669)" fill="#5a8e54"/>
              <line id="Línea_688" data-name="Línea 688" x2="1.567" y2="21.911" transform="translate(117.794 181.959)" fill="none" stroke="#540d0a" stroke-linecap="round" stroke-miterlimit="10" stroke-width="0.827"/>
              <path id="Trazado_916664" data-name="Trazado 916664" d="M326.585,333.61l23.956-2.074s-1.559-8.462-23.956,2.074" transform="translate(-202.815 -130.451)" fill="#aedba9"/>
              <path id="Trazado_916665" data-name="Trazado 916665" d="M326.585,335.729l23.956-2.074s-.082,8.6-23.956,2.074" transform="translate(-202.815 -132.57)" fill="#5a8e54"/>
              <line id="Línea_689" data-name="Línea 689" x1="21.854" y2="2.221" transform="translate(119.361 201.648)" fill="none" stroke="#540d0a" stroke-linecap="round" stroke-miterlimit="10" stroke-width="0.827"/>
              <path id="Trazado_916666" data-name="Trazado 916666" d="M299.21,337.2l-2.074-23.956s8.6.082,2.074,23.956" transform="translate(-191.114 -124.459)" fill="#7dbb77"/>
              <path id="Trazado_916667" data-name="Trazado 916667" d="M297.091,337.2l-2.074-23.956s-8.461,1.559,2.074,23.956" transform="translate(-188.995 -124.459)" fill="#5a8e54"/>
              <line id="Línea_690" data-name="Línea 690" x2="1.567" y2="21.91" transform="translate(106.586 195.292)" fill="none" stroke="#540d0a" stroke-linecap="round" stroke-miterlimit="10" stroke-width="0.827"/>
              <path id="Trazado_916668" data-name="Trazado 916668" d="M307.988,355.733l23.956-2.074s-1.559-8.461-23.956,2.074" transform="translate(-195.426 -139.242)" fill="#aedba9"/>
              <path id="Trazado_916669" data-name="Trazado 916669" d="M307.988,357.852l23.956-2.074s-.082,8.6-23.956,2.074" transform="translate(-195.426 -141.36)" fill="#5a8e54"/>
              <line id="Línea_691" data-name="Línea 691" x1="21.854" y2="2.221" transform="translate(108.153 214.981)" fill="none" stroke="#540d0a" stroke-linecap="round" stroke-miterlimit="10" stroke-width="0.827"/>
              <path id="Trazado_916670" data-name="Trazado 916670" d="M280.612,359.318l-2.074-23.956s8.6.081,2.074,23.956" transform="translate(-183.724 -133.249)" fill="#7dbb77"/>
              <path id="Trazado_916671" data-name="Trazado 916671" d="M278.493,359.318l-2.074-23.956s-8.461,1.559,2.074,23.956" transform="translate(-181.606 -133.249)" fill="#5a8e54"/>
              <line id="Línea_692" data-name="Línea 692" x2="1.567" y2="21.91" transform="translate(95.377 208.625)" fill="none" stroke="#540d0a" stroke-linecap="round" stroke-miterlimit="10" stroke-width="0.827"/>
              <path id="Trazado_916672" data-name="Trazado 916672" d="M289.39,377.855l23.956-2.074s-1.559-8.461-23.956,2.074" transform="translate(-188.036 -148.031)" fill="#aedba9"/>
              <path id="Trazado_916673" data-name="Trazado 916673" d="M289.39,379.974l23.956-2.074s-.082,8.6-23.956,2.074" transform="translate(-188.036 -150.15)" fill="#5a8e54"/>
              <line id="Línea_693" data-name="Línea 693" x1="21.854" y2="2.221" transform="translate(96.945 228.314)" fill="none" stroke="#540d0a" stroke-linecap="round" stroke-miterlimit="10" stroke-width="0.827"/>
              <path id="Trazado_916674" data-name="Trazado 916674" d="M161.129,273.884s-20.232-25.279-6.757-28.476,6.757,28.476,6.757,28.476" transform="translate(-132.55 -97.417)" fill="#7dbb77"/>
              <path id="Trazado_916675" data-name="Trazado 916675" d="M154.646,245.409a5.454,5.454,0,0,0-4.214,3.315,1.856,1.856,0,0,0,1.954.175c1.689-.8,2.527-.668,3.8.742,1.041,1.152,4.029.607,4.761-1.9-1.295-2.022-3.294-3.05-6.3-2.335" transform="translate(-132.824 -97.418)" fill="#365b31"/>
              <path id="Trazado_916676" data-name="Trazado 916676" d="M156.411,243.321s-.676-3.621-1.978-4.927a.806.806,0,0,1,.051-1.214.8.8,0,0,1,1.2.263,15.685,15.685,0,0,1,1.744,5.637Z" transform="translate(-134.314 -94.171)" fill="#365b31"/>
              <g id="Grupo_1198315" data-name="Grupo 1198315" transform="translate(17.195 148.549)" opacity="0.26">
                <g id="Grupo_1198314" data-name="Grupo 1198314">
                  <g id="Grupo_1198313" data-name="Grupo 1198313" clip-path="url(#clip-path-6)">
                    <path id="Trazado_916677" data-name="Trazado 916677" d="M161.965,269.539c-12.434-13.8-9.22-22.99-9.2-23.056-10.1,4.848,8.362,27.918,8.362,27.918s.416-1.963.833-4.862" transform="translate(-149.747 -246.484)" fill="#365b31"/>
                  </g>
                </g>
              </g>
              <path id="Trazado_916678" data-name="Trazado 916678" d="M149.924,277.52s-27.332-17.357-15.621-24.749,15.621,24.749,15.621,24.749" transform="translate(-125.257 -99.994)" fill="#7dbb77"/>
              <path id="Trazado_916679" data-name="Trazado 916679" d="M134.307,252.773a5.454,5.454,0,0,0-2.912,4.5,1.855,1.855,0,0,0,1.905-.468c1.338-1.308,2.174-1.451,3.837-.53,1.359.753,4.008-.732,3.89-3.338-1.88-1.493-4.1-1.816-6.72-.166" transform="translate(-125.26 -99.996)" fill="#365b31"/>
              <path id="Trazado_916680" data-name="Trazado 916680" d="M134.683,251.514s-1.813-3.206-3.468-4.02a.806.806,0,0,1-.345-1.165.8.8,0,0,1,1.222-.139,15.688,15.688,0,0,1,3.476,4.766Z" transform="translate(-125.001 -97.729)" fill="#365b31"/>
              <g id="Grupo_1198318" data-name="Grupo 1198318" transform="translate(6.132 153.826)" opacity="0.26">
                <g id="Grupo_1198317" data-name="Grupo 1198317">
                  <g id="Grupo_1198316" data-name="Grupo 1198316" clip-path="url(#clip-path-7)">
                    <path id="Trazado_916681" data-name="Trazado 916681" d="M149.139,274.071c-16.236-9.027-16.172-18.761-16.171-18.832-7.985,7.86,16.959,23.7,16.959,23.7s-.243-1.992-.787-4.869" transform="translate(-131.391 -255.239)" fill="#365b31"/>
                  </g>
                </g>
              </g>
              <path id="Trazado_916682" data-name="Trazado 916682" d="M127.3,289.968s-18.719-26.418-5.08-28.822,5.08,28.822,5.08,28.822" transform="translate(-119.637 -103.708)" fill="#7dbb77"/>
              <path id="Trazado_916683" data-name="Trazado 916683" d="M122.6,261.146a5.454,5.454,0,0,0-4.4,3.063,1.855,1.855,0,0,0,1.94.289c1.734-.7,2.562-.519,3.752.963.972,1.212,3.987.842,4.864-1.615-1.175-2.094-3.11-3.237-6.156-2.7" transform="translate(-120.017 -103.708)" fill="#365b31"/>
              <path id="Trazado_916684" data-name="Trazado 916684" d="M124.589,258.97s-.463-3.654-1.686-5.035a.805.805,0,0,1,.121-1.208.8.8,0,0,1,1.184.333,15.687,15.687,0,0,1,1.411,5.728Z" transform="translate(-121.8 -100.359)" fill="#365b31"/>
              <g id="Grupo_1198321" data-name="Grupo 1198321" transform="translate(-2.392 157.901)" opacity="0.26">
                <g id="Grupo_1198320" data-name="Grupo 1198320">
                  <g id="Grupo_1198319" data-name="Grupo 1198319" clip-path="url(#clip-path-8)">
                    <path id="Trazado_916685" data-name="Trazado 916685" d="M128.417,285.557c-11.606-14.505-7.859-23.49-7.832-23.555-10.367,4.249,6.715,28.359,6.715,28.359s.53-1.935,1.117-4.8" transform="translate(-117.247 -262.001)" fill="#365b31"/>
                  </g>
                </g>
              </g>
              <path id="Trazado_916686" data-name="Trazado 916686" d="M182.676,279.2s-3.044-34.112,3.962-33.278-3.962,33.278-3.962,33.278" transform="translate(-145.374 -97.706)" fill="#cdc12d"/>
              <line id="Línea_694" data-name="Línea 694" y1="32.318" x2="3.847" transform="translate(37.416 148.217)" fill="none" stroke="#a09320" stroke-miterlimit="10" stroke-width="0.985"/>
              <path id="Trazado_916687" data-name="Trazado 916687" d="M186.376,243.262s.237,1.272,3.711.442c-.914-2.668-1.377-3.209-.759-6.182l-1.1-.678s-.03,5.247-1.848,6.418" transform="translate(-147.106 -94.105)" fill="#a09320"/>
              <path id="Trazado_916688" data-name="Trazado 916688" d="M183.632,280.959s5.041-33.874,11.656-31.42-11.656,31.42-11.656,31.42" transform="translate(-146.016 -99.098)" fill="#cdc12d"/>
              <line id="Línea_695" data-name="Línea 695" y1="30.514" x2="11.32" transform="translate(37.952 150.44)" fill="none" stroke="#a09320" stroke-miterlimit="10" stroke-width="0.985"/>
              <path id="Trazado_916689" data-name="Trazado 916689" d="M199.391,246.536s-.067,1.292,3.5,1.3c-.263-2.808-.585-3.443.712-6.188l-.914-.917s-1.26,5.093-3.3,5.806" transform="translate(-152.277 -95.649)" fill="#a09320"/>
              <path id="Trazado_916690" data-name="Trazado 916690" d="M191.511,288.106s5.042-33.874,11.656-31.42-11.656,31.42-11.656,31.42" transform="translate(-149.146 -101.938)" fill="#cdc12d"/>
              <line id="Línea_696" data-name="Línea 696" y1="30.513" x2="11.32" transform="translate(42.701 154.748)" fill="none" stroke="#a09320" stroke-miterlimit="10" stroke-width="0.985"/>
              <path id="Trazado_916691" data-name="Trazado 916691" d="M207.27,253.683s-.067,1.292,3.5,1.3c-.262-2.808-.585-3.443.712-6.188l-.914-.918s-1.26,5.093-3.3,5.806" transform="translate(-155.408 -98.488)" fill="#a09320"/>
              <rect id="Rectángulo_408489" data-name="Rectángulo 408489" width="23.311" height="39.458" transform="translate(35.676 165.038)" fill="#540d0a"/>
              <rect id="Rectángulo_408490" data-name="Rectángulo 408490" width="66.111" height="32.794" transform="translate(-6.134 204.496)" fill="#540d0a"/>
              <line id="Línea_697" data-name="Línea 697" x2="64.02" transform="translate(-6.134 210.245)" fill="none" stroke="#872a21" stroke-miterlimit="10" stroke-width="1.22"/>
              <line id="Línea_698" data-name="Línea 698" x2="64.02" transform="translate(-6.134 215.993)" fill="none" stroke="#872a21" stroke-miterlimit="10" stroke-width="1.22"/>
              <line id="Línea_699" data-name="Línea 699" x2="64.02" transform="translate(-6.134 221.742)" fill="none" stroke="#872a21" stroke-miterlimit="10" stroke-width="1.22"/>
              <line id="Línea_700" data-name="Línea 700" x2="64.02" transform="translate(-6.134 227.491)" fill="none" stroke="#872a21" stroke-miterlimit="10" stroke-width="1.22"/>
              <line id="Línea_701" data-name="Línea 701" x2="64.02" transform="translate(-6.134 233.239)" fill="none" stroke="#872a21" stroke-miterlimit="10" stroke-width="1.22"/>
              <g id="Grupo_1198324" data-name="Grupo 1198324" transform="translate(47.435 204.496)" opacity="0.68" style="mix-blend-mode: multiply;isolation: isolate">
                <g id="Grupo_1198323" data-name="Grupo 1198323">
                  <g id="Grupo_1198322" data-name="Grupo 1198322" clip-path="url(#clip-path-9)">
                    <rect id="Rectángulo_408491" data-name="Rectángulo 408491" width="12.543" height="32.794" transform="translate(-0.001 0)" fill="#540d0a"/>
                  </g>
                </g>
              </g>
              <rect id="Rectángulo_408493" data-name="Rectángulo 408493" width="53.306" height="39.458" transform="translate(-17.631 165.038)" fill="#872a21"/>
              <g id="Grupo_1198327" data-name="Grupo 1198327" transform="translate(-6.133 204.496)" opacity="0.68" style="mix-blend-mode: multiply;isolation: isolate">
                <g id="Grupo_1198326" data-name="Grupo 1198326">
                  <g id="Grupo_1198325" data-name="Grupo 1198325" clip-path="url(#clip-path-10)">
                    <rect id="Rectángulo_408494" data-name="Rectángulo 408494" width="60.378" height="3.659" transform="translate(0)" fill="#540d0a"/>
                  </g>
                </g>
              </g>
              <line id="Línea_702" data-name="Línea 702" x2="53.306" transform="translate(-17.631 171.049)" fill="none" stroke="#540d0a" stroke-miterlimit="10" stroke-width="1.271"/>
              <line id="Línea_703" data-name="Línea 703" x2="53.306" transform="translate(-17.631 177.842)" fill="none" stroke="#540d0a" stroke-miterlimit="10" stroke-width="1.271"/>
              <line id="Línea_704" data-name="Línea 704" x2="53.306" transform="translate(-17.631 184.636)" fill="none" stroke="#540d0a" stroke-miterlimit="10" stroke-width="1.271"/>
              <line id="Línea_705" data-name="Línea 705" x2="53.306" transform="translate(-17.631 191.43)" fill="none" stroke="#540d0a" stroke-miterlimit="10" stroke-width="1.271"/>
              <line id="Línea_706" data-name="Línea 706" x2="53.306" transform="translate(-17.631 198.224)" fill="none" stroke="#540d0a" stroke-miterlimit="10" stroke-width="1.271"/>
              <line id="Línea_707" data-name="Línea 707" x2="24.171" transform="translate(35.806 171.049)" fill="none" stroke="#872a21" stroke-miterlimit="10" stroke-width="1.22"/>
              <line id="Línea_708" data-name="Línea 708" x2="24.171" transform="translate(35.806 177.842)" fill="none" stroke="#872a21" stroke-miterlimit="10" stroke-width="1.22"/>
              <line id="Línea_709" data-name="Línea 709" x2="24.171" transform="translate(35.806 184.636)" fill="none" stroke="#872a21" stroke-miterlimit="10" stroke-width="1.22"/>
              <line id="Línea_710" data-name="Línea 710" x2="24.171" transform="translate(35.806 191.43)" fill="none" stroke="#872a21" stroke-miterlimit="10" stroke-width="1.22"/>
              <line id="Línea_711" data-name="Línea 711" x2="24.171" transform="translate(35.806 198.224)" fill="none" stroke="#872a21" stroke-miterlimit="10" stroke-width="1.22"/>
              <g id="Grupo_1198330" data-name="Grupo 1198330" transform="translate(47.397 165.038)" opacity="0.68" style="mix-blend-mode: multiply;isolation: isolate">
                <g id="Grupo_1198329" data-name="Grupo 1198329">
                  <g id="Grupo_1198328" data-name="Grupo 1198328" clip-path="url(#clip-path-11)">
                    <path id="Trazado_916692" data-name="Trazado 916692" d="M199.9,313.3s-.523-30.05,2.352-39.458h9.2V313.3Z" transform="translate(-199.861 -273.844)" fill="#540d0a"/>
                  </g>
                </g>
              </g>
              <g id="Grupo_1198333" data-name="Grupo 1198333" transform="translate(25.876 153.826)" opacity="0.5" style="mix-blend-mode: overlay;isolation: isolate">
                <g id="Grupo_1198332" data-name="Grupo 1198332">
                  <g id="Grupo_1198331" data-name="Grupo 1198331" clip-path="url(#clip-path-12)">
                    <path id="Trazado_916693" data-name="Trazado 916693" d="M167.158,258.145c0,1.606-.673,2.907-1.5,2.907s-1.5-1.3-1.5-2.907.673-2.907,1.5-2.907,1.5,1.3,1.5,2.907" transform="translate(-164.152 -255.239)" fill="#fff"/>
                  </g>
                </g>
              </g>
              <g id="Grupo_1198336" data-name="Grupo 1198336" transform="translate(14.832 155.984)" opacity="0.5" style="mix-blend-mode: overlay;isolation: isolate">
                <g id="Grupo_1198335" data-name="Grupo 1198335">
                  <g id="Grupo_1198334" data-name="Grupo 1198334" clip-path="url(#clip-path-13)">
                    <path id="Trazado_916694" data-name="Trazado 916694" d="M149.078,260.7c.8,1.39.871,2.854.152,3.269s-1.952-.376-2.755-1.766-.871-2.854-.152-3.269,1.952.376,2.755,1.766" transform="translate(-145.826 -258.82)" fill="#fff"/>
                  </g>
                </g>
              </g>
              <path id="Trazado_916695" data-name="Trazado 916695" d="M224.3,22.6s-4.013-5.713-7.23-6.717-12.939,2.472-17.2,8.613-4.436,15-1.789,19.143S224.3,22.6,224.3,22.6" transform="translate(-151.06 -6.243)" fill="#7dbb77"/>
              <path id="Trazado_916696" data-name="Trazado 916696" d="M224.3,24.157a33.069,33.069,0,0,0-3.925-4.527c-3.984,1.771-17.637,8.4-24.035,18.5a13.811,13.811,0,0,0,1.738,7.063c2.646,4.142,26.221-21.04,26.221-21.04" transform="translate(-151.067 -7.8)" fill="#651d13"/>
              <path id="Trazado_916697" data-name="Trazado 916697" d="M205.512,30.044c13.261-10.393,28.342-13.294,33.683-6.479s-1.079,20.766-14.341,31.159S196.513,68.018,191.172,61.2s1.079-20.766,14.341-31.159" transform="translate(-148.264 -7.898)" fill="#7dbb77"/>
              <path id="Trazado_916698" data-name="Trazado 916698" d="M206.846,31.746c12.7-9.956,27.071-13.03,32.953-7.28a8.205,8.205,0,0,0-.6-.9c-5.341-6.816-20.422-3.915-33.683,6.478S185.829,54.388,191.171,61.2a8.246,8.246,0,0,0,.73.8c-4.178-7.086,2.241-20.3,14.944-30.258" transform="translate(-148.263 -7.898)" fill="#5a8e54"/>
              <path id="Trazado_916699" data-name="Trazado 916699" d="M201.954,78.464c4.833,1.031,11.415-.292,18.243-3.675l-5-19.88s-10.7,9.649-13.244,23.555" transform="translate(-153.295 -21.817)" fill="#336d4c"/>
              <path id="Trazado_916700" data-name="Trazado 916700" d="M344.648,170.121s12.724-6.975,14.669-2.916-4.811,21.27-4.811,21.27h-2.662s5.528-15.674,1.229-16.8-7.431,2.561-8.425,1.639,0-3.192,0-3.192" transform="translate(-209.816 -65.931)" fill="#365b31"/>
              <path id="Trazado_916701" data-name="Trazado 916701" d="M357.963,188.687s4.9-14.6,11.563-19.6,13.033,7.826,14.7,12-.392,5.347-5.977.644-9.309-11.465-17.247,6.566c-1.959,2.548-3.037.392-3.037.392" transform="translate(-215.282 -66.731)" fill="#5a8e54"/>
              <path id="Trazado_916702" data-name="Trazado 916702" d="M326.25,182.368s-3.234-6.728-3.43-11.9.392-5.784,3.626-5.187,3.332-1.362,3.724-5.772,7.153-5.487,8.329,6.173a43.108,43.108,0,0,1-3.136,20.774Z" transform="translate(-201.305 -62.146)" fill="#5a8e54"/>
              <path id="Trazado_916703" data-name="Trazado 916703" d="M330.879,186.172s1.96-4.7,0-11.759.98-6.271,3.92-8.82,2.352-.783,4.507-6.663,14.306-5.487,11.171,2.94-3.527,12.347-2.352,14.5-6.859,9.735-9.6,10.943-7.643-1.144-7.643-1.144" transform="translate(-204.269 -61.571)" fill="#7dbb77"/>
              <path id="Trazado_916704" data-name="Trazado 916704" d="M348.413,161.547s-.875,8.692-5.775,12.381c.2,6.629-5.487,17.016-5.487,17.016" transform="translate(-207.013 -64.187)" fill="none" stroke="#5a8e54" stroke-linecap="round" stroke-miterlimit="10" stroke-width="0.738"/>
              <path id="Trazado_916705" data-name="Trazado 916705" d="M347.457,162.567a8.426,8.426,0,0,1,3.421,5.825" transform="translate(-211.108 -64.592)" fill="none" stroke="#5a8e54" stroke-linecap="round" stroke-miterlimit="10" stroke-width="0.738"/>
              <path id="Trazado_916706" data-name="Trazado 916706" d="M353.9,178.619s-1.16,1.479-6.165,1.328" transform="translate(-211.217 -70.97)" fill="none" stroke="#5a8e54" stroke-linecap="round" stroke-miterlimit="10" stroke-width="0.738"/>
              <path id="Trazado_916707" data-name="Trazado 916707" d="M335.037,179.27a13.092,13.092,0,0,0,5.948,7.3" transform="translate(-206.173 -71.229)" fill="none" stroke="#5a8e54" stroke-linecap="round" stroke-miterlimit="10" stroke-width="0.738"/>
              <g id="Grupo_1198339" data-name="Grupo 1198339" transform="translate(126.61 114.355)" opacity="0.33" style="mix-blend-mode: multiply;isolation: isolate">
                <g id="Grupo_1198338" data-name="Grupo 1198338">
                  <g id="Grupo_1198337" data-name="Grupo 1198337" clip-path="url(#clip-path-14)">
                    <path id="Trazado_916708" data-name="Trazado 916708" d="M338.941,201.137c2.743-1.208,10.779-8.787,9.6-10.943a4.25,4.25,0,0,1-.21-.448,59.42,59.42,0,0,1-16.355,1.862,17.754,17.754,0,0,1-.681,8.385s4.9,2.352,7.643,1.144" transform="translate(-331.297 -189.746)" fill="#5a8e54"/>
                  </g>
                </g>
              </g>
              <path id="Trazado_916709" data-name="Trazado 916709" d="M225.734,89.985a9.247,9.247,0,1,1-9.247-9.247,9.248,9.248,0,0,1,9.247,9.247" transform="translate(-155.396 -32.079)" fill="#651d13"/>
              <path id="Trazado_916710" data-name="Trazado 916710" d="M197.038,119.1s9.839,27.812,10.558,31.34,5.03,18.945,5.03,21.427,14.438-24.041,14.438-24.041l-22.538-31.337Z" transform="translate(-151.342 -46.284)" fill="#fff"/>
              <path id="Trazado_916711" data-name="Trazado 916711" d="M256.071,106.34s6.4-2.482,12.935,9.407,11.89,35.93,16.332,41.94S298.4,183.948,298.4,183.948l-27.306.523Z" transform="translate(-174.798 -42.166)" fill="#c67855"/>
              <path id="Trazado_916712" data-name="Trazado 916712" d="M269.007,115.747c-6.533-11.89-12.935-9.407-12.935-9.407l4.451,23.149c4.835-5.975,12.684-4.23,12.713-4.223a77.773,77.773,0,0,0-4.229-9.519" transform="translate(-174.798 -42.166)" fill="#fff"/>
              <path id="Trazado_916713" data-name="Trazado 916713" d="M232.494,105.4l5.748.654s11.759,18.161,14.11,26.261,13.327,74.863,15.287,82.311,12.412,64.543,12.412,64.543H248.433l-3.788-36.321v36.321H211.72s-1.7-54.09,1.046-70.552,6.663-34.623,3.4-46.512c8.362-3.527,11.236-18.684,2.091-45.467-.653-7.97-1.7-9.015,2.221-9.668s12.021-1.569,12.021-1.569" transform="translate(-156.969 -41.878)" fill="#872a21"/>
              <path id="Trazado_916714" data-name="Trazado 916714" d="M236.912,105.4s-8.1.915-12.02,1.569c-1.439.239-2.208.534-2.573,1.2l11,16.061a110.986,110.986,0,0,0,13.654-.932c-2.091-8.1-8-17.665-8-17.666Z" transform="translate(-161.387 -41.878)" fill="#fff"/>
              <path id="Trazado_916715" data-name="Trazado 916715" d="M278.908,248.142s1.187,25.347-5.809,34.493c1.627-8.1,1.888-20.9,1.366-33.709a5.322,5.322,0,0,1,4.442-.784" transform="translate(-181.563 -98.521)" fill="#681d19"/>
              <path id="Trazado_916716" data-name="Trazado 916716" d="M312.223,190.036s-3.92-14.11-8.721-16.756-10.779,2.646-7.839,8.378a41.24,41.24,0,0,0,7.251,9.848s5.879.947,9.309-1.47" transform="translate(-190.219 -68.57)" fill="#cdc12d"/>
              <path id="Trazado_916717" data-name="Trazado 916717" d="M263.274,154.231s2.352,10.562,1.862,13.414-6.859,3.832-6.859,3.832-8.721.98-10.877-17.246Z" transform="translate(-171.352 -61.28)" fill="#681d19"/>
              <path id="Trazado_916718" data-name="Trazado 916718" d="M302.915,192.082s5.879.947,9.309-1.47c0,0-.533-1.918-1.446-4.471a14.991,14.991,0,0,1-10.019-3.075c-2.394-1.959-2.944-5.91-2.961-9.038a6.086,6.086,0,0,0-2.135,8.205,41.239,41.239,0,0,0,7.251,9.848" transform="translate(-190.219 -69.146)" fill="#a09320"/>
              <path id="Trazado_916719" data-name="Trazado 916719" d="M285.817,190.036s-3.92-14.11-8.721-16.756-10.779,2.646-7.839,8.378a41.24,41.24,0,0,0,7.251,9.848s5.879.947,9.309-1.47" transform="translate(-179.727 -68.57)" fill="#cdc12d"/>
              <path id="Trazado_916720" data-name="Trazado 916720" d="M276.509,192.082s5.88.947,9.309-1.47c0,0-.533-1.918-1.446-4.471a14.991,14.991,0,0,1-10.019-3.075c-2.394-1.959-2.944-5.91-2.961-9.038a6.086,6.086,0,0,0-2.135,8.205,41.24,41.24,0,0,0,7.251,9.848" transform="translate(-179.727 -69.146)" fill="#a09320"/>
              <rect id="Rectángulo_408500" data-name="Rectángulo 408500" width="55.815" height="34.95" transform="translate(85.586 119.048)" fill="#540d0a"/>
              <rect id="Rectángulo_408501" data-name="Rectángulo 408501" width="16.905" height="34.95" transform="translate(141.4 119.048)" fill="#872a21"/>
              <path id="Trazado_916721" data-name="Trazado 916721" d="M224.854,77.433A180.773,180.773,0,0,1,225.9,95.855c7.709,7.186,17.9,6.925,12.021-1.568A104.193,104.193,0,0,1,235.7,83.443Z" transform="translate(-162.394 -30.766)" fill="#c67855"/>
              <path id="Trazado_916722" data-name="Trazado 916722" d="M238.055,87.033l-7.326-1.006a16.633,16.633,0,0,0,8.627,7.826c-.894-4.034-1.22-6.218-1.3-6.819" transform="translate(-164.729 -34.181)" fill="#651d13"/>
              <path id="Trazado_916723" data-name="Trazado 916723" d="M263.274,151.323H247.4v-4.41h14.8Z" transform="translate(-171.352 -58.373)" fill="#540d0a"/>
              <path id="Trazado_916724" data-name="Trazado 916724" d="M236.9,38.627a89.865,89.865,0,0,1,5.683,21.558C243.757,70.963,241.013,74.1,232,71.356c-7.839-2.548-17.442-12.543-17.442-12.543s.2-12.151,22.342-20.186" transform="translate(-158.303 -15.348)" fill="#c67855"/>
              <path id="Trazado_916725" data-name="Trazado 916725" d="M235.888,39.264c-21.127,8.032-21.332,19.8-21.332,19.8,14.192-5.12,19.534-15.081,21.332-19.8" transform="translate(-158.303 -15.601)" fill="#651d13"/>
              <path id="Trazado_916726" data-name="Trazado 916726" d="M242.557,58.978S237,59.043,234.717,61a6.758,6.758,0,0,1,7.84-2.025" transform="translate(-166.313 -23.221)" fill="#651d13"/>
              <path id="Trazado_916727" data-name="Trazado 916727" d="M242.831,64.75s-4.7.849-6.271,3c5.618.327,6.925,0,6.925,0a13.743,13.743,0,0,0-.653-3" transform="translate(-167.045 -25.727)" fill="#fff"/>
              <path id="Trazado_916728" data-name="Trazado 916728" d="M245.078,67.756a13.742,13.742,0,0,0-.653-3,18.133,18.133,0,0,0-3.739,1.173,3,3,0,0,0,.1,1.95,20.453,20.453,0,0,0,4.287-.118" transform="translate(-168.639 -25.727)" fill="#651d13"/>
              <path id="Trazado_916729" data-name="Trazado 916729" d="M236.56,67.541s1.568-2.091,6.271-3c1.176-.262,1.489-.327,1.489-.327" transform="translate(-167.045 -25.512)" fill="none" stroke="#651d13" stroke-miterlimit="10" stroke-width="0.985"/>
              <path id="Trazado_916730" data-name="Trazado 916730" d="M258.575,63l-.878.335.262,2.939,1.222-.2C259,65.04,258.8,64.01,258.575,63" transform="translate(-175.444 -25.033)" fill="#651d13"/>
              <path id="Trazado_916731" data-name="Trazado 916731" d="M255.748,69.737a11.788,11.788,0,0,1,1.568,4.442l-1.895.261" transform="translate(-174.539 -27.708)" fill="none" stroke="#651d13" stroke-miterlimit="10" stroke-width="0.492"/>
              <path id="Trazado_916732" data-name="Trazado 916732" d="M255.156,81.227a33.51,33.51,0,0,1-5.72.2" transform="translate(-172.161 -32.274)" fill="none" stroke="#651d13" stroke-miterlimit="10" stroke-width="0.492"/>
              <g id="Grupo_1198342" data-name="Grupo 1198342" transform="translate(69.254 43.988)" opacity="0.62">
                <g id="Grupo_1198341" data-name="Grupo 1198341">
                  <g id="Grupo_1198340" data-name="Grupo 1198340" clip-path="url(#clip-path-15)">
                    <path id="Trazado_916733" data-name="Trazado 916733" d="M242.594,74.654c0,.92-1.448,1.666-3.234,1.666s-3.233-.745-3.233-1.666,1.448-1.666,3.233-1.666,3.234.746,3.234,1.666" transform="translate(-236.127 -72.988)" fill="#bc2617"/>
                  </g>
                </g>
              </g>
              <g id="Grupo_1198345" data-name="Grupo 1198345" transform="translate(82.995 42.502)" opacity="0.62">
                <g id="Grupo_1198344" data-name="Grupo 1198344">
                  <g id="Grupo_1198343" data-name="Grupo 1198343" clip-path="url(#clip-path-16)">
                    <path id="Trazado_916734" data-name="Trazado 916734" d="M258.927,71.715c0,.547.513,1.031,1.3,1.334-.007-.064-.012-.126-.019-.191-.085-.78-.189-1.56-.306-2.335-.6.3-.978.724-.978,1.192" transform="translate(-258.928 -70.523)" fill="#bc2617"/>
                  </g>
                </g>
              </g>
              <path id="Trazado_916735" data-name="Trazado 916735" d="M220.153,70.4c1.864,2.109,1.907,5.115.1,6.717s-4.791,1.19-6.654-.919-1.907-5.115-.1-6.716,4.79-1.19,6.654.918" transform="translate(-157.354 -27.218)" fill="#c67855"/>
              <path id="Trazado_916736" data-name="Trazado 916736" d="M219.672,75.583c-1.864-2.108-4.843-2.52-6.654-.918a3.784,3.784,0,0,0-.712.855,5.65,5.65,0,0,0,1.343,2.736c1.863,2.108,4.843,2.52,6.654.918a3.813,3.813,0,0,0,.712-.856,5.66,5.66,0,0,0-1.343-2.736" transform="translate(-157.409 -29.278)" fill="#aa6144"/>
              <path id="Trazado_916737" data-name="Trazado 916737" d="M226.092,192.546a156.623,156.623,0,0,1,0,34.363c-2.142,17.769-2.822,44.422,0,86.885" transform="translate(-162.143 -76.504)" fill="none" stroke="#b2544f" stroke-miterlimit="10" stroke-width="1.22"/>
              <path id="Trazado_916738" data-name="Trazado 916738" d="M266.694,322.35a52.746,52.746,0,0,1,3.86-16.854" transform="translate(-179.018 -121.382)" fill="none" stroke="#b2544f" stroke-miterlimit="10" stroke-width="1.22"/>
              <line id="Línea_712" data-name="Línea 712" x2="7.691" y2="45.954" transform="translate(89.13 191.336)" fill="none" stroke="#b2544f" stroke-miterlimit="10" stroke-width="1.22"/>
              <path id="Trazado_916739" data-name="Trazado 916739" d="M248.712,262.931s-3.136,11.53-17.246,11.726l.2-7.84s10.191-.588,12.15-9.015Z" transform="translate(-165.021 -102.432)" fill="#681d19"/>
              <path id="Trazado_916740" data-name="Trazado 916740" d="M257.127,57.373c-.487.108-1.086.333-1.007.788a8.641,8.641,0,0,1,1.135-.295c-.043-.166-.086-.329-.128-.493" transform="translate(-174.814 -22.796)" fill="#651d13"/>
              <g id="Grupo_1198348" data-name="Grupo 1198348" transform="translate(61.903 23.279)" opacity="0.18" style="mix-blend-mode: overlay;isolation: isolate">
                <g id="Grupo_1198347" data-name="Grupo 1198347">
                  <g id="Grupo_1198346" data-name="Grupo 1198346" clip-path="url(#clip-path-17)">
                    <path id="Trazado_916741" data-name="Trazado 916741" d="M240.622,38.627c-8.217,2.981-13.408,6.529-16.692,9.813.97,5.274,4.814,19.921,17.966,23.8,4.075-.507,5.254-4.305,4.409-12.051a89.865,89.865,0,0,0-5.683-21.558" transform="translate(-223.93 -38.627)" fill="#fff"/>
                  </g>
                </g>
              </g>
              <path id="Trazado_916742" data-name="Trazado 916742" d="M249.952,39.011s4.014,7.357,4.895,11.558c3.1-5.017,1.341-9.916-3.885-11.942Z" transform="translate(-172.366 -15.348)" fill="#651d13"/>
              <path id="Trazado_916743" data-name="Trazado 916743" d="M367.181,178.75s8.947-12.185,16.1,1.24" transform="translate(-218.945 -69.009)" fill="none" stroke="#365b31" stroke-miterlimit="10" stroke-width="0.492"/>
              <line id="Línea_713" data-name="Línea 713" x1="55.506" transform="translate(85.895 125.32)" fill="none" stroke="#872a21" stroke-miterlimit="10" stroke-width="1.22"/>
              <line id="Línea_714" data-name="Línea 714" x1="55.506" transform="translate(85.895 132.388)" fill="none" stroke="#872a21" stroke-miterlimit="10" stroke-width="1.22"/>
              <line id="Línea_715" data-name="Línea 715" x1="55.506" transform="translate(85.895 139.456)" fill="none" stroke="#872a21" stroke-miterlimit="10" stroke-width="1.22"/>
              <line id="Línea_716" data-name="Línea 716" x1="55.506" transform="translate(85.895 146.524)" fill="none" stroke="#872a21" stroke-miterlimit="10" stroke-width="1.22"/>
              <path id="Trazado_916744" data-name="Trazado 916744" d="M215.823,108.438s29.4,48.864,34.1,55.92,8.231,11.628,8.231,11.628,4.965,2.221,6.925,2.744,3.266,4.05.392,4.312-6.4-1.176-4.965,1.437,5.1,10.975,4.312,11.628a3.665,3.665,0,0,1-4.965-.392,6.786,6.786,0,0,1-5.879.392s-4.7,1.176-6.271-2.091-4.312-13.457-6.664-17.377-15.678-21.558-21.753-28.352-19.141-28.091-22.277-33.839.719-11.236,5.716-11.759,9.583-.086,13.1,5.749" transform="translate(-150.88 -40.736)" fill="#c67855"/>
              <path id="Trazado_916745" data-name="Trazado 916745" d="M223.857,121.764c-4.653-7.7-8.035-13.326-8.035-13.326-3.515-5.835-8.1-6.271-13.1-5.749s-8.851,6.01-5.716,11.759c1.611,2.954,5.845,10.012,10.4,17.1,1-9.421,16.446-9.783,16.446-9.783" transform="translate(-150.88 -40.736)" fill="#fff"/>
              <path id="Trazado_916746" data-name="Trazado 916746" d="M228.883,164.974a8.647,8.647,0,0,0-3.506.742,85.485,85.485,0,0,0,5.629,7.383c1.328,1.486,3,3.488,4.833,5.753a8.677,8.677,0,0,0-6.956-13.878" transform="translate(-162.602 -65.549)" fill="#a05a3f"/>
              <path id="Trazado_916747" data-name="Trazado 916747" d="M235.738,123.964s-8-13.681-9.961-15.9" transform="translate(-162.761 -42.936)" fill="none" stroke="#a0931d" stroke-miterlimit="10" stroke-width="0.637"/>
              <path id="Trazado_916748" data-name="Trazado 916748" d="M197.755,122.308s7.469,12.605,10.4,17.1" transform="translate(-151.627 -48.596)" fill="none" stroke="#a0931d" stroke-miterlimit="10" stroke-width="0.637"/>
              <line id="Línea_717" data-name="Línea 717" x2="16.905" transform="translate(141.4 125.32)" fill="none" stroke="#540d0a" stroke-miterlimit="10" stroke-width="1.221"/>
              <line id="Línea_718" data-name="Línea 718" x2="16.905" transform="translate(141.4 132.388)" fill="none" stroke="#540d0a" stroke-miterlimit="10" stroke-width="1.221"/>
              <line id="Línea_719" data-name="Línea 719" x2="16.905" transform="translate(141.4 139.456)" fill="none" stroke="#540d0a" stroke-miterlimit="10" stroke-width="1.221"/>
              <line id="Línea_720" data-name="Línea 720" x2="16.905" transform="translate(141.4 146.524)" fill="none" stroke="#540d0a" stroke-miterlimit="10" stroke-width="1.221"/>
              <g id="Grupo_1198351" data-name="Grupo 1198351" transform="translate(111.358 106.068)" opacity="0.5" style="mix-blend-mode: overlay;isolation: isolate">
                <g id="Grupo_1198350" data-name="Grupo 1198350">
                  <g id="Grupo_1198349" data-name="Grupo 1198349" clip-path="url(#clip-path-18)">
                    <path id="Trazado_916749" data-name="Trazado 916749" d="M309.256,177.145c.845,1.057.958,2.37.253,2.933s-1.96.163-2.8-.894-.958-2.37-.253-2.933,1.96-.163,2.8.894" transform="translate(-305.989 -175.996)" fill="#fff"/>
                  </g>
                </g>
              </g>
              <g id="Grupo_1198354" data-name="Grupo 1198354" transform="translate(93.851 106.364)" opacity="0.5" style="mix-blend-mode: overlay;isolation: isolate">
                <g id="Grupo_1198353" data-name="Grupo 1198353">
                  <g id="Grupo_1198352" data-name="Grupo 1198352" clip-path="url(#clip-path-19)">
                    <path id="Trazado_916750" data-name="Trazado 916750" d="M280.208,177.638c.844,1.057.958,2.37.253,2.933s-1.961.163-2.8-.894-.958-2.37-.253-2.933,1.96-.163,2.8.894" transform="translate(-276.94 -176.488)" fill="#fff"/>
                  </g>
                </g>
              </g>
              <line id="Línea_721" data-name="Línea 721" y1="2.253" x2="12.311" transform="translate(91.535 181.861)" fill="none" stroke="#b2544f" stroke-miterlimit="10" stroke-width="1.22"/>
              <path id="Trazado_916751" data-name="Trazado 916751" d="M210.329,137.816s4.572-9.354,17.376-8.047" transform="translate(-156.623 -51.511)" fill="none" stroke="#a0931d" stroke-miterlimit="10" stroke-width="0.637"/>
            </g>
          </g>
        </g>
      </g>
    </g>
  </g>
</svg>
