<svg xmlns="http://www.w3.org/2000/svg" xmlns:xlink="http://www.w3.org/1999/xlink" width="118" height="118" viewBox="0 0 118 118">
  <defs>
    <filter id="Elipse_12115" x="0" y="0" width="118" height="118" filterUnits="userSpaceOnUse">
      <feOffset dy="3" input="SourceAlpha"/>
      <feGaussianBlur stdDeviation="3" result="blur"/>
      <feFlood flood-opacity="0.161"/>
      <feComposite operator="in" in2="blur"/>
      <feComposite in="SourceGraphic"/>
    </filter>
  </defs>
  <g id="Grupo_1198372" data-name="Grupo 1198372" transform="translate(-205.949 -6085.466)">
    <g id="Grupo_1198119" data-name="Grupo 1198119" transform="translate(214.949 6091.466)">
      <g id="Grupo_1182334" data-name="Grupo 1182334">
        <g id="Grupo_1181949" data-name="Grupo 1181949">
          <g transform="matrix(1, 0, 0, 1, -9, -6)" filter="url(#Elipse_12115)">
            <g id="Elipse_12115-2" data-name="Elipse 12115" transform="translate(9 6)" fill="#fff9e4" stroke="#b18d00" stroke-width="4">
              <circle cx="50" cy="50" r="50" stroke="none"/>
              <circle cx="50" cy="50" r="48" fill="none"/>
            </g>
          </g>
        </g>
      </g>
    </g>
    <g id="constitution_3958087" transform="translate(230.051 6110)">
      <g id="Grupo_1198370" data-name="Grupo 1198370">
        <g id="Grupo_1198361" data-name="Grupo 1198361">
          <path id="Trazado_916772" data-name="Trazado 916772" d="M61,47V61H29a2.006,2.006,0,0,1-2-2V49a2.006,2.006,0,0,1,2-2H61Z" fill="#ff826e"/>
        </g>
        <g id="Grupo_1198362" data-name="Grupo 1198362">
          <path id="Trazado_916773" data-name="Trazado 916773" d="M31,1V11H21V46l6,3a2.006,2.006,0,0,1,2-2H59V1Z" fill="#e6e9ed"/>
        </g>
        <g id="Grupo_1198363" data-name="Grupo 1198363">
          <path id="Trazado_916774" data-name="Trazado 916774" d="M49,35V29h6V39H47V35Z" fill="#ff826e"/>
        </g>
        <g id="Grupo_1198364" data-name="Grupo 1198364">
          <path id="Trazado_916775" data-name="Trazado 916775" d="M49,29v6H41V25h8Z" fill="#fcd770"/>
        </g>
        <g id="Grupo_1198365" data-name="Grupo 1198365">
          <path id="Trazado_916776" data-name="Trazado 916776" d="M31,1V11H21Z" fill="#ff826e"/>
        </g>
        <g id="Grupo_1198366" data-name="Grupo 1198366">
          <path id="Trazado_916777" data-name="Trazado 916777" d="M55,11v1a3,3,0,0,1-6,0V11h6Z" fill="#fcd770"/>
        </g>
        <g id="Grupo_1198367" data-name="Grupo 1198367">
          <path id="Trazado_916778" data-name="Trazado 916778" d="M41,11v1a3,3,0,0,1-6,0V11h6Z" fill="#fcd770"/>
        </g>
        <g id="Grupo_1198368" data-name="Grupo 1198368">
          <path id="Trazado_916779" data-name="Trazado 916779" d="M21,46l-.99-.49A4.684,4.684,0,0,0,17.87,45H10.99A4.815,4.815,0,0,0,7.6,46.4L3.83,50.17a2.828,2.828,0,1,0,4,4l.25-.25a2.3,2.3,0,0,0,1.51,1.61,7.9,7.9,0,0,1,2.55,1.42l2.74,2.28A7.642,7.642,0,0,0,19.76,61a7.557,7.557,0,0,0,2.41-.39L27,59V49Z" fill="#f0d0b4"/>
        </g>
        <g id="Grupo_1198369" data-name="Grupo 1198369">
          <path id="Trazado_916780" data-name="Trazado 916780" d="M11,41S1,36,1,28C1,9,11,9,11,9c0,8,10,9,10,21C21,38,11,41,11,41Z" fill="#b4dd7f"/>
        </g>
      </g>
      <g id="Grupo_1198371" data-name="Grupo 1198371">
        <path id="Trazado_916781" data-name="Trazado 916781" d="M60,46V0H30.586L20,10.586v11.1A26.363,26.363,0,0,0,15.979,16.5C13.844,14.195,12,12.2,12,9V8H11C10.551,8,0,8.228,0,28c0,7.485,7.81,12.374,10,13.6v2.5a5.732,5.732,0,0,0-3.111,1.6L3.122,49.465A3.827,3.827,0,0,0,5.829,56,3.792,3.792,0,0,0,7.78,55.45a3.311,3.311,0,0,0,1.494,1.029A7.028,7.028,0,0,1,10,56.8V62h2V58.135L14.239,60a8.626,8.626,0,0,0,8.253,1.558l3.81-1.27A2.994,2.994,0,0,0,29,62H62V46ZM30,3.414V10H23.414ZM22,12H32V2H58V46H29a2.989,2.989,0,0,0-2.621,1.571L22,45.381ZM12,41.714a17.946,17.946,0,0,0,8-5.651v8.351A5.831,5.831,0,0,0,17.868,44H12ZM2,28c0-14.4,5.748-17.28,8.063-17.856.374,3.316,2.358,5.459,4.447,7.715C17.21,20.773,20,23.786,20,30c0,5.506-5.45,8.469-8,9.554V35.46l6.65-5.7-1.3-1.519L12,32.826V28.481l4.625-3.7-1.25-1.562L12,25.919V18H10v7.919l-3.375-2.7-1.25,1.562L10,28.481v4.345L4.65,28.241l-1.3,1.518L10,35.46v3.8C7.355,37.583,2,33.513,2,28ZM5.829,54a1.828,1.828,0,0,1-1.293-3.121L8.3,47.111a3.763,3.763,0,0,1,1.7-.966v3.887a3.317,3.317,0,0,0-3,3.291c0,.076.013.149.018.224A1.805,1.805,0,0,1,5.829,54ZM21.858,59.66a6.715,6.715,0,0,1-6.339-1.2l-2.737-2.28a8.853,8.853,0,0,0-2.876-1.6A1.325,1.325,0,0,1,10.325,52a5.421,5.421,0,0,1,3.86,1.6l.936.938A4.981,4.981,0,0,0,18.657,56H22V54H18.657a2.986,2.986,0,0,1-2.122-.879l-.935-.936A7.4,7.4,0,0,0,12,50.2V46h5.868a3.821,3.821,0,0,1,1.7.4L26,49.618v8.661ZM60,60H29a1,1,0,0,1-1-1V49a1,1,0,0,1,1-1H60Z"/>
        <path id="Trazado_916782" data-name="Trazado 916782" d="M38,16a4,4,0,0,0,4-4V10H39V6h5V20H42v2h6V20H46V6h5v4H48v2a4,4,0,0,0,8,0V10H53V4H37v6H34v2A4,4,0,0,0,38,16Zm14-2a2,2,0,0,1-2-2h4A2,2,0,0,1,52,14ZM40,12a2,2,0,0,1-4,0Z"/>
        <path id="Trazado_916783" data-name="Trazado 916783" d="M24,18h2v2H24Z"/>
        <path id="Trazado_916784" data-name="Trazado 916784" d="M28,18H38v2H28Z"/>
        <path id="Trazado_916785" data-name="Trazado 916785" d="M24,22H38v2H24Z"/>
        <path id="Trazado_916786" data-name="Trazado 916786" d="M24,26H38v2H24Z"/>
        <path id="Trazado_916787" data-name="Trazado 916787" d="M24,30h2v2H24Z"/>
        <path id="Trazado_916788" data-name="Trazado 916788" d="M28,30h4v2H28Z"/>
        <path id="Trazado_916789" data-name="Trazado 916789" d="M34,30h4v2H34Z"/>
        <path id="Trazado_916790" data-name="Trazado 916790" d="M24,34H38v2H24Z"/>
        <path id="Trazado_916791" data-name="Trazado 916791" d="M50,24H40V36h6v4H56V28H50Zm-8,2h6v8H42Zm12,4v8H48V36h2V30Z"/>
        <path id="Trazado_916792" data-name="Trazado 916792" d="M40,42H56v2H40Z"/>
        <path id="Trazado_916793" data-name="Trazado 916793" d="M24,42H38v2H24Z"/>
        <path id="Trazado_916794" data-name="Trazado 916794" d="M24,38H38v2H24Z"/>
      </g>
    </g>
  </g>
</svg>
