<svg xmlns="http://www.w3.org/2000/svg" xmlns:xlink="http://www.w3.org/1999/xlink" width="220" height="146.835" viewBox="0 0 220 146.835">
  <defs>
    <filter id="Rect치ngulo_404858" x="0" y="0" width="220" height="146.835" filterUnits="userSpaceOnUse">
      <feOffset dx="3" dy="6" input="SourceAlpha"/>
      <feGaussianBlur stdDeviation="5" result="blur"/>
      <feFlood flood-opacity="0.161"/>
      <feComposite operator="in" in2="blur"/>
      <feComposite in="SourceGraphic"/>
    </filter>
  </defs>
  <g id="Grupo_1198262" data-name="Grupo 1198262" transform="translate(-215.395 -1990)">
    <g id="Grupo_1198081" data-name="Grupo 1198081" transform="translate(227.396 1999)">
      <g id="Grupo_1113681" data-name="Grupo 1113681" transform="translate(0 0)">
        <g transform="matrix(1, 0, 0, 1, -12, -9)" filter="url(#Rect치ngulo_404858)">
          <rect id="Rect치ngulo_404858-2" data-name="Rect치ngulo 404858" width="190" height="116.835" rx="8" transform="translate(12 9)" fill="#4c6929"/>
        </g>
      </g>
    </g>
    <g id="agronomy_14114649" transform="translate(215.328 1961.169)">
      <path id="Trazado_916468" data-name="Trazado 916468" d="M215.654,295.209a13.994,13.994,0,0,1,3.979,2.3l4.552-.968a.389.389,0,0,1,.424.189l3.107,5.382a.39.39,0,0,1-.048.461l-3.112,3.456a14.108,14.108,0,0,1,0,4.6l3.112,3.456a.389.389,0,0,1,.048.461l-3.107,5.382a.389.389,0,0,1-.424.189l-4.55-.967a14,14,0,0,1-3.98,2.3l-1.436,4.42a.39.39,0,0,1-.375.273h-6.214a.389.389,0,0,1-.375-.273l-1.436-4.421a13.99,13.99,0,0,1-3.979-2.3l-4.552.968a.389.389,0,0,1-.424-.189l-3.107-5.382a.39.39,0,0,1,.048-.461l3.112-3.456a14.12,14.12,0,0,1,0-4.6l-3.112-3.456a.389.389,0,0,1-.048-.461l3.107-5.382a.389.389,0,0,1,.424-.189l4.552.968a13.994,13.994,0,0,1,3.979-2.3l1.436-4.421a.39.39,0,0,1,.375-.273h6.214a.39.39,0,0,1,.375.273Zm-4.919,5.358a7.761,7.761,0,1,0,7.761,7.761A7.761,7.761,0,0,0,210.735,300.567Z" transform="translate(-108.669 -182.007)" fill="#ada0ad" fill-rule="evenodd"/>
      <path id="Trazado_916469" data-name="Trazado 916469" d="M117.678,252.773a54.684,54.684,0,0,1-14.2-4.333c-7.6-3.456-15.839-8.54-20.771-15.429-7.545-10.536-9.232-24.474-9.232-37.015l-3.878-26.248,24.91-8.3,3.235,17.638,17.073,9.448c-.955,12.984-6.591,10.18-19.167,5.224.034.092-.078,19.714-.078,21.821a28.614,28.614,0,0,0,26.951,28.564h0a6.2,6.2,0,0,1,1.659,3.913c.083,3.746-3.128,5.247-6.5,4.72Z" transform="translate(-22.113 -91.991)" fill="#fcd4a9" fill-rule="evenodd"/>
      <path id="Trazado_916470" data-name="Trazado 916470" d="M81.555,133.748l2.259,7.766a2.654,2.654,0,0,1-1.8,3.28L50.386,154a2.654,2.654,0,0,1-3.28-1.8l-2.259-7.766a2.654,2.654,0,0,1,1.8-3.28l31.626-9.2a2.654,2.654,0,0,1,3.28,1.8Z" transform="translate(-4.781 -71.344)" fill="#88c8fe" fill-rule="evenodd"/>
      <path id="Trazado_916471" data-name="Trazado 916471" d="M256.5,252.773a54.687,54.687,0,0,0,14.2-4.333c7.6-3.456,15.838-8.54,20.771-15.429,7.545-10.536,9.232-24.474,9.232-37.015l3.878-26.248-24.91-8.3-3.235,17.638-17.073,9.448c.955,12.984,6.591,10.18,19.167,5.224-.034.092.078,19.714.078,21.821a28.614,28.614,0,0,1-26.951,28.564h0A6.2,6.2,0,0,0,250,248.052c-.083,3.746,3.128,5.247,6.5,4.72Z" transform="translate(-147.932 -91.991)" fill="#fcd4a9" fill-rule="evenodd"/>
      <path id="Trazado_916472" data-name="Trazado 916472" d="M328.138,133.748l-2.259,7.766a2.654,2.654,0,0,0,1.8,3.28l31.626,9.2a2.654,2.654,0,0,0,3.28-1.8l2.259-7.766a2.654,2.654,0,0,0-1.8-3.28l-31.626-9.2A2.654,2.654,0,0,0,328.138,133.748Z" transform="translate(-200.78 -71.344)" fill="#88c8fe" fill-rule="evenodd"/>
      <path id="Trazado_916473" data-name="Trazado 916473" d="M209.634,36.415a12.085,12.085,0,0,1,0,19.733A12.084,12.084,0,0,1,209.634,36.415Zm-17.511,23.84A15.849,15.849,0,0,1,209.634,72.11a15.849,15.849,0,0,1,17.511-11.856,15.849,15.849,0,0,1-17.511,11.856,15.849,15.849,0,0,1-17.511-11.856Zm0,19.969A15.849,15.849,0,0,1,209.634,92.08a15.849,15.849,0,0,1,17.511-11.856A15.849,15.849,0,0,1,209.634,92.08a15.849,15.849,0,0,1-17.511-11.856Z" transform="translate(-107.568 -4.792)" fill="#19cfba" fill-rule="evenodd"/>
      <path id="Trazado_916474" data-name="Trazado 916474" d="M102.067,34.3a10.031,10.031,0,0,1,0,14.38,10.031,10.031,0,0,1,0-14.38Zm-9.86,28.722a13.8,13.8,0,0,1-4.957-5.736,14.6,14.6,0,0,1,12.123,8.208A13.779,13.779,0,0,1,92.207,63.018Zm17.511-3.261a13.8,13.8,0,0,1,7.166-2.475,14.583,14.583,0,0,1-12.123,8.208A13.793,13.793,0,0,1,109.718,59.757Zm0,19.968a13.786,13.786,0,0,1,7.166-2.473,14.591,14.591,0,0,1-12.123,8.209,13.8,13.8,0,0,1,4.957-5.736Zm-3.461,35.414a11.858,11.858,0,0,1,3.389,1.96,2.066,2.066,0,0,0,1.749.426l3.359-.713,1.887,3.27-2.3,2.548a2.07,2.07,0,0,0-.5,1.724,12.063,12.063,0,0,1,0,3.923,2.079,2.079,0,0,0,.5,1.726l2.3,2.548-1.887,3.27-3.357-.713a2.067,2.067,0,0,0-1.749.425,11.919,11.919,0,0,1-3.39,1.963,2.067,2.067,0,0,0-1.244,1.3l-1.06,3.261H100.18L99.12,138.8a2.08,2.08,0,0,0-1.244-1.3,11.849,11.849,0,0,1-3.388-1.96,2.068,2.068,0,0,0-1.749-.425l-3.358.713-1.888-3.27,2.3-2.548a2.076,2.076,0,0,0,.5-1.726,12.038,12.038,0,0,1,0-3.923,2.069,2.069,0,0,0-.5-1.724l-2.3-2.548,1.888-3.27,3.359.713a2.067,2.067,0,0,0,1.749-.426,11.849,11.849,0,0,1,3.388-1.96,2.082,2.082,0,0,0,1.244-1.3l1.06-3.261h3.774l1.06,3.261A2.084,2.084,0,0,0,106.257,115.139ZM92.207,82.986a13.783,13.783,0,0,1-4.957-5.734,14.587,14.587,0,0,1,12.123,8.209,13.788,13.788,0,0,1-7.166-2.475Zm4.533-6.694c-3.959-2.683-8.681-3.761-12.632-2.889a2.071,2.071,0,0,0-1.6,2.36c1.257,7.616,9.582,13.993,17.484,13.836V106.43H98.959a2.46,2.46,0,0,0-2.347,1.7l-1.141,3.511a16.147,16.147,0,0,0-2.808,1.626l-3.615-.77a2.465,2.465,0,0,0-2.65,1.181l-3.107,5.38a2.466,2.466,0,0,0,.3,2.889l2.473,2.744a16.228,16.228,0,0,0,0,3.244l-2.473,2.747a2.457,2.457,0,0,0-.3,2.882L86.4,138.95a2.462,2.462,0,0,0,2.651,1.181l3.615-.769a16.117,16.117,0,0,0,2.808,1.626l1.142,3.509A2.463,2.463,0,0,0,98.96,146.2h6.215a2.465,2.465,0,0,0,2.347-1.707l1.14-3.509a16.1,16.1,0,0,0,2.81-1.626l3.613.769a2.463,2.463,0,0,0,2.651-1.181l3.107-5.382a2.462,2.462,0,0,0-.3-2.885l-2.473-2.744a16.161,16.161,0,0,0,0-3.244l2.473-2.748a2.46,2.46,0,0,0,.3-2.884l-3.107-5.382a2.468,2.468,0,0,0-2.651-1.181l-3.615.77a16.133,16.133,0,0,0-2.809-1.626l-1.141-3.511a2.461,2.461,0,0,0-2.346-1.7h-1.035V89.6c7.923.15,16.228-6.229,17.484-13.836a2.071,2.071,0,0,0-1.6-2.36c-3.95-.872-8.673.206-12.631,2.889a19.1,19.1,0,0,0-3.254,2.781V69.63a17.682,17.682,0,0,0,10.112-3.179c3.958-2.681,6.714-6.665,7.372-10.657a2.069,2.069,0,0,0-1.6-2.36c-3.951-.873-8.673.206-12.631,2.889A19.077,19.077,0,0,0,104.14,59.1V52.37a14.157,14.157,0,0,0-.885-22.45,2.071,2.071,0,0,0-2.376,0,14.157,14.157,0,0,0-.884,22.45V59.1a19.246,19.246,0,0,0-3.254-2.781c-3.958-2.679-8.68-3.759-12.631-2.885a2.069,2.069,0,0,0-1.6,2.36C83.768,63.41,92.1,69.788,99.994,69.631v9.443a19.124,19.124,0,0,0-3.254-2.781ZM162.077,72.5l-2.26,7.768a.58.58,0,0,1-.71.389l-31.626-9.2a.581.581,0,0,1-.39-.711l2.259-7.768a.585.585,0,0,1,.711-.389l31.626,9.2a.584.584,0,0,1,.39.711Zm-11.354,31.2,3-20.291-21.295-6.2-1.88,10.25a2.079,2.079,0,0,1-1.035,1.441L113.623,97.7c.351,3.17,1.06,5.109,2.113,5.769,2.184,1.37,8.569-1.45,14.107-3.635a2.074,2.074,0,0,1,2.829,2.054l.082,21.7A30.7,30.7,0,0,1,104.8,154.145c-1.5,2.305-.575,5.211,3.446,4.583a52.581,52.581,0,0,0,13.665-4.171c6.348-2.885,14.962-7.789,19.945-14.747,5.95-8.311,8.843-20.022,8.843-35.807A2.043,2.043,0,0,1,150.723,103.7ZM99.248,158.091c1.1-.936.867-2.743.084-3.946A30.7,30.7,0,0,1,71.38,123.579l.083-21.7a2.074,2.074,0,0,1,2.829-2.054c5.538,2.185,11.923,5,14.107,3.635,1.053-.66,1.762-2.6,2.113-5.769L74.622,88.9a2.077,2.077,0,0,1-1.035-1.441l-1.88-10.25-21.295,6.2L53.433,104c0,15.785,2.892,27.5,8.843,35.807,4.983,6.959,13.6,11.862,19.944,14.747a52.592,52.592,0,0,0,13.665,4.171A4.289,4.289,0,0,0,99.248,158.091ZM44.592,80.6a.564.564,0,0,1-.276-.337L42.057,72.5a.584.584,0,0,1,.39-.711l31.781-9.222a.586.586,0,0,1,.556.414l2.259,7.764a.581.581,0,0,1-.39.711l-31.626,9.2a.564.564,0,0,1-.434-.052ZM165.659,70.069a4.683,4.683,0,0,0-2.815-2.26l-31.625-9.2a4.723,4.723,0,0,0-5.851,3.212l-2.259,7.766a4.724,4.724,0,0,0,3.213,5.85l2.1.613-1.779,9.7-16.214,8.973a2.074,2.074,0,0,0-1.064,1.965c.409,5.569,1.694,8.74,4.165,10.291,3.467,2.175,8.121.541,14.993-2.168l.081,18.77a26.541,26.541,0,0,1-25,26.494,2.081,2.081,0,0,0-1.543.828,2.089,2.089,0,0,0-1.543-.828,26.542,26.542,0,0,1-25-26.494l.081-18.77c6.874,2.709,11.527,4.342,14.994,2.168,2.471-1.551,3.755-4.723,4.165-10.291A2.073,2.073,0,0,0,93.7,94.721L77.488,85.748l-1.779-9.7,2.1-.613a4.724,4.724,0,0,0,3.213-5.85L78.765,61.82h0a4.722,4.722,0,0,0-5.849-3.212l-31.626,9.2a4.722,4.722,0,0,0-3.214,5.848l2.26,7.768a4.723,4.723,0,0,0,5.85,3.212l.208-.059,2.893,19.577c.019,16.606,3.166,29.058,9.619,38.069,5.517,7.7,14.79,13.011,21.6,16.11a56.928,56.928,0,0,0,14.742,4.492,8.244,8.244,0,0,0,6.821-1.7,8.251,8.251,0,0,0,6.82,1.7,56.927,56.927,0,0,0,14.742-4.492c6.809-3.1,16.082-8.405,21.6-16.11,6.453-9.011,9.6-21.463,9.619-38.069l2.893-19.577a4.937,4.937,0,0,0,1.524.248,4.728,4.728,0,0,0,4.534-3.4l2.26-7.768a4.683,4.683,0,0,0-.4-3.588Zm-57.9,56.247A5.688,5.688,0,1,0,102.067,132,5.695,5.695,0,0,0,107.755,126.317Zm-15.523,0a9.835,9.835,0,1,0,9.835-9.834A9.846,9.846,0,0,0,92.232,126.317Z" transform="translate(0 0)" fill="#0b0c0d" fill-rule="evenodd"/>
    </g>
  </g>
</svg>
