<svg xmlns="http://www.w3.org/2000/svg" xmlns:xlink="http://www.w3.org/1999/xlink" width="68" height="68" viewBox="0 0 68 68">
  <defs>
    <clipPath id="clip-path">
      <path id="path3762" d="M0-682.665H68v68H0Z" transform="translate(0 682.665)"/>
    </clipPath>
  </defs>
  <g id="g3756" transform="translate(0 682.665)">
    <g id="g3758" transform="translate(0 -682.665)">
      <g id="g3760" clip-path="url(#clip-path)">
        <g id="g3766" transform="translate(14.655 1.328)">
          <path id="path3768" d="M-15.031-295.327H24.5a1.942,1.942,0,0,1,.253-1.525c2.63-3.921.79-5.734-1.834-6.008-2.088-.218-4.467-.078-4.959-.844-1.754-2.734-3.222-3.275-4.874-3.446-11.111-1.15-5.124-5.3-8.546-7.067-4.16-2.142,2.113-9.49,6.635-9.682,2.963-.125-.573-8.136-7.871-1.425-1.236,1.137-5.188,2.234-7.349,2.869-2.491.731-1.187,1.7-3.252,4.791-1.992,2.985-1.73.308-2.666,2.154-1.176,2.319-2.26,2.6-3.129,2.665-2.438.189-4.693,4.487-3.028,6.853,1.826,2.594.59,9.18.838,9.787a4.348,4.348,0,0,1,.251.878" transform="translate(16.694 327.999)" fill="#ffc144" fill-rule="evenodd"/>
        </g>
        <g id="g3770" transform="translate(10.094 34)">
          <path id="path3772" d="M-413.584,0h-39.53c.481,2.649-1.008,6.354-3.221,6.485-4.214.25-1.268,2.106-2.656,2.948-1.309.794,1.466,3.266,1.941,3.247,2.973-.118,5.884,5.77,7.576,2.863.211-.363,1.881.08,3.688.793h23.322c.657-1.512,2.23-.847,2.818-1.982,1.022-1.972-1.278-3.67.168-4.536,2.865-1.716,4.537,2.946,7.232,1.348,2.318-1.375-1.828-5.574-.534-7.018.931-1.039-.508-2.634-.805-4.148" transform="translate(459.339)" fill="#60a4ff" fill-rule="evenodd"/>
        </g>
        <g id="g3774" transform="translate(23.648 50.336)">
          <path id="path3776" d="M-210.807,0h-23.322c2.273.9,4.764,2.217,4.847,2.894.317,2.595,1.966,1.065,1.932,2.213-.081,2.727,1.958,1.736,2.066,2.518.51,3.694,5.228,1.839,6.385,1.7,5.458-.638,2.931,7.535,6.206,6.98s1.524-4.529,2.015-7.848c.339-2.3,1.371-2.514.665-5.093-.452-1.649-1.31-2.111-.813-3.321l.02-.047" transform="translate(234.129)" fill="#ff5a58" fill-rule="evenodd"/>
        </g>
        <g id="g3778" transform="translate(16.247 28.023)">
          <path id="path3780" d="M0,0H0" fill="none" stroke="#000" stroke-linecap="round" stroke-linejoin="round" stroke-miterlimit="2.613" stroke-width="1"/>
        </g>
        <g id="g3782" transform="translate(10.094 1.328)">
          <path id="path3784" d="M-41.727-187.281c-.405-2.372,1.506-5.407,3.546-5.565.869-.067,1.953-.346,3.129-2.665.936-1.846.674.831,2.666-2.154,2.066-3.1.761-4.059,3.252-4.791,2.161-.634,6.113-1.732,7.349-2.869,7.3-6.711,10.834,1.3,7.871,1.425-4.522.191-10.795,7.539-6.635,9.682,3.422,1.762-2.565,5.916,8.546,7.067,1.652.171,3.12.711,4.874,3.446.491.766,2.871.626,4.959.844,2.624.274,4.464,2.087,1.834,6.008-1.247,1.859,1.808,4.272.552,5.673-1.295,1.444,2.852,5.643.534,7.018-2.7,1.6-4.368-3.064-7.232-1.348-1.446.866.855,2.564-.168,4.536-.594,1.146-2.193.457-2.838,2.029-.5,1.21.362,1.671.813,3.321.706,2.579-.326,2.8-.665,5.093-.49,3.319,1.261,7.292-2.015,7.848s-.748-7.618-6.206-6.98c-1.157.135-5.876,1.99-6.385-1.7-.108-.782-2.147.209-2.066-2.518.034-1.148-1.614.382-1.932-2.213-.148-1.215-8.058-4.507-8.536-3.687-1.692,2.908-4.6-2.981-7.576-2.863-.476.019-3.25-2.453-1.942-3.247,1.388-.842-1.558-2.7,2.656-2.948,2.213-.131,3.7-3.836,3.22-6.485H-.7" transform="translate(46.343 208)" fill="none" stroke="#000" stroke-linecap="round" stroke-linejoin="round" stroke-miterlimit="22.926" stroke-width="1"/>
        </g>
        <g id="g3786" transform="translate(18.744 50.336)">
          <path id="path3788" d="M-44.974,0h23.139M-49.949,0h.36" transform="translate(49.949)" fill="none" stroke="#000" stroke-linecap="round" stroke-linejoin="round" stroke-miterlimit="22.926" stroke-width="1"/>
        </g>
      </g>
    </g>
  </g>
</svg>
