<svg xmlns="http://www.w3.org/2000/svg" xmlns:xlink="http://www.w3.org/1999/xlink" width="272" height="325.984" viewBox="0 0 272 325.984">
  <defs>
    <clipPath id="clip-path">
      <rect id="Rectángulo_408718" data-name="Rectángulo 408718" width="272" height="325.984" rx="8" transform="translate(205.07 536.254)" fill="#eaf4ff" opacity="0.65"/>
    </clipPath>
    <clipPath id="clip-path-2">
      <rect id="Rectángulo_408717" data-name="Rectángulo 408717" width="283.854" height="612.283" fill="none"/>
    </clipPath>
    <clipPath id="clip-path-3">
      <rect id="Rectángulo_408737" data-name="Rectángulo 408737" width="20.933" height="15.83" transform="translate(0 0)" fill="none"/>
    </clipPath>
    <clipPath id="clip-path-22">
      <rect id="Rectángulo_408719" data-name="Rectángulo 408719" width="168.19" height="281.086" fill="none"/>
    </clipPath>
    <clipPath id="clip-path-23">
      <rect id="Rectángulo_408736" data-name="Rectángulo 408736" width="134.436" height="87.867" fill="none"/>
    </clipPath>
    <clipPath id="clip-path-24">
      <rect id="Rectángulo_408735" data-name="Rectángulo 408735" width="134.436" height="87.867" transform="translate(0 0)" fill="none"/>
    </clipPath>
  </defs>
  <g id="Enmascarar_grupo_1098825" data-name="Enmascarar grupo 1098825" transform="translate(-205.07 -536.254)" clip-path="url(#clip-path)">
    <g id="Grupo_1199162" data-name="Grupo 1199162" transform="translate(205.07 337.105)">
      <rect id="Rectángulo_408715" data-name="Rectángulo 408715" width="283.855" height="612.284" transform="translate(0 -0.001)" fill="#e2f7f2"/>
      <rect id="Rectángulo_408716" data-name="Rectángulo 408716" width="2.404" height="31.711" transform="translate(44.175 360.658)" fill="#872a21"/>
      <g id="Grupo_1199161" data-name="Grupo 1199161">
        <g id="Grupo_1199160" data-name="Grupo 1199160" clip-path="url(#clip-path-2)">
          <path id="Trazado_1030833" data-name="Trazado 1030833" d="M48.156,304.65c-1.189-2.787-4.367-2.787-5.556,0-4.755,11.145-13.944,34.4-13.937,47.6,0,4.407,4.708,7.951,9.126,10.308a15.817,15.817,0,0,0,15.178,0c4.417-2.357,9.123-5.9,9.126-10.308.007-13.2-9.182-36.454-13.937-47.6" fill="#569171"/>
          <path id="Trazado_1030834" data-name="Trazado 1030834" d="M48.27,360.278c-4.658-1.834-9.74-4.815-10.248-9.193-1.5-12.927,4.753-36.568,8.23-48.368A2.924,2.924,0,0,0,42.6,304.65c-4.755,11.145-13.944,34.4-13.937,47.6,0,4.406,4.708,7.951,9.126,10.307a15.817,15.817,0,0,0,15.178,0c.663-.353,1.332-.734,1.991-1.14a16.2,16.2,0,0,1-6.688-1.139" fill="#3a6d50"/>
          <path id="Trazado_1030835" data-name="Trazado 1030835" d="M0,353.284s132.937-5.468,283.465,89.377V612.283H0Z" fill="#7dbb77"/>
          <path id="Trazado_1030836" data-name="Trazado 1030836" d="M0,480.377c119.305,7.719,242.235,62.848,283.465,82.892V507.363C186.666,426.263.008,401.7,0,401.7Z" fill="#569171"/>
          <path id="Trazado_1030837" data-name="Trazado 1030837" d="M256.965,273.292H130.505s.478-5.977,10.518-5.5c.478-9.8,14.344-15.778,23.428-7.889-6.694-16.495-2.63-28.687,8.845-29.882s19.124,10.757,21.276,18.168c6.932-7.411,8.366-1.195,8.6,0,10.519-11.474,24.623-7.649,28.926-3.107s3.347,15.3,3.347,15.3,15.06-6.454,18.407.478-2.629,9.323-2.629,9.323,5.02-.956,5.737,3.108" transform="translate(1 -3)" fill="#fff"/>
          <g id="Grupo_1199172" data-name="Grupo 1199172" transform="translate(15.47 457.461)">
            <g id="Grupo_1199171" data-name="Grupo 1199171" clip-path="url(#clip-path-3)">
              <path id="Trazado_1030897" data-name="Trazado 1030897" d="M10.123,15.783c-.027.007-.106.02-.212.046H7.528c-.318-1.048-1.035-3.57-1.6-6.291C5.053,5.324,4.548.619,6.46.048,8.471-.556,9.439,4.6,9.871,9.173a44.237,44.237,0,0,1,.252,6.61" fill="#607a17"/>
              <path id="Trazado_1030898" data-name="Trazado 1030898" d="M10.253,15.83H8.786a73.531,73.531,0,0,1,3.75-6.67c0-.006.007-.013.007-.02,2.3-3.6,5.2-7.2,7.512-7.074,4.1.226-7.373,11.435-9.8,13.764" fill="#607a17"/>
              <path id="Trazado_1030899" data-name="Trazado 1030899" d="M8.5,15.83H5.524C3.706,13.494-1.842,5.935.62,4.037c1.52-1.168,3.637,2.084,5.309,5.5C6.8,11.324,7.542,13.156,8.02,14.43c.232.63.4,1.121.484,1.4" fill="#89b62e"/>
              <path id="Trazado_1030900" data-name="Trazado 1030900" d="M12.5,11.047c0,.005,0,.009,0,.014-.768,2.164-1.646,4.109-1.944,4.769H7.45c.029-.195.081-.541.158-1,.157-.916.407-2.287.753-3.758.859-3.6,2.3-7.829,4.347-7.649,2,.18,1.027,4.171-.206,7.625" fill="#89b62e"/>
            </g>
          </g>
          <g id="Grupo_1199187" data-name="Grupo 1199187" transform="translate(28.663 383.461)">
            <g id="Grupo_1199171-2" data-name="Grupo 1199171" clip-path="url(#clip-path-3)">
              <path id="Trazado_1030897-2" data-name="Trazado 1030897" d="M10.123,15.783c-.027.007-.106.02-.212.046H7.528c-.318-1.048-1.035-3.57-1.6-6.291C5.053,5.324,4.548.619,6.46.048,8.471-.556,9.439,4.6,9.871,9.173a44.237,44.237,0,0,1,.252,6.61" fill="#607a17"/>
              <path id="Trazado_1030898-2" data-name="Trazado 1030898" d="M10.253,15.83H8.786a73.531,73.531,0,0,1,3.75-6.67c0-.006.007-.013.007-.02,2.3-3.6,5.2-7.2,7.512-7.074,4.1.226-7.373,11.435-9.8,13.764" fill="#607a17"/>
              <path id="Trazado_1030899-2" data-name="Trazado 1030899" d="M8.5,15.83H5.524C3.706,13.494-1.842,5.935.62,4.037c1.52-1.168,3.637,2.084,5.309,5.5C6.8,11.324,7.542,13.156,8.02,14.43c.232.63.4,1.121.484,1.4" fill="#89b62e"/>
              <path id="Trazado_1030900-2" data-name="Trazado 1030900" d="M12.5,11.047c0,.005,0,.009,0,.014-.768,2.164-1.646,4.109-1.944,4.769H7.45c.029-.195.081-.541.158-1,.157-.916.407-2.287.753-3.758.859-3.6,2.3-7.829,4.347-7.649,2,.18,1.027,4.171-.206,7.625" fill="#89b62e"/>
            </g>
          </g>
          <g id="Grupo_1199173" data-name="Grupo 1199173" transform="translate(24.445 421.461)">
            <g id="Grupo_1199171-3" data-name="Grupo 1199171" clip-path="url(#clip-path-3)">
              <path id="Trazado_1030897-3" data-name="Trazado 1030897" d="M10.123,15.783c-.027.007-.106.02-.212.046H7.528c-.318-1.048-1.035-3.57-1.6-6.291C5.053,5.324,4.548.619,6.46.048,8.471-.556,9.439,4.6,9.871,9.173a44.237,44.237,0,0,1,.252,6.61" fill="#607a17"/>
              <path id="Trazado_1030898-3" data-name="Trazado 1030898" d="M10.253,15.83H8.786a73.531,73.531,0,0,1,3.75-6.67c0-.006.007-.013.007-.02,2.3-3.6,5.2-7.2,7.512-7.074,4.1.226-7.373,11.435-9.8,13.764" fill="#607a17"/>
              <path id="Trazado_1030899-3" data-name="Trazado 1030899" d="M8.5,15.83H5.524C3.706,13.494-1.842,5.935.62,4.037c1.52-1.168,3.637,2.084,5.309,5.5C6.8,11.324,7.542,13.156,8.02,14.43c.232.63.4,1.121.484,1.4" fill="#89b62e"/>
              <path id="Trazado_1030900-3" data-name="Trazado 1030900" d="M12.5,11.047c0,.005,0,.009,0,.014-.768,2.164-1.646,4.109-1.944,4.769H7.45c.029-.195.081-.541.158-1,.157-.916.407-2.287.753-3.758.859-3.6,2.3-7.829,4.347-7.649,2,.18,1.027,4.171-.206,7.625" fill="#89b62e"/>
            </g>
          </g>
          <g id="Grupo_1199186" data-name="Grupo 1199186" transform="translate(37.638 347.461)">
            <g id="Grupo_1199171-4" data-name="Grupo 1199171" clip-path="url(#clip-path-3)">
              <path id="Trazado_1030897-4" data-name="Trazado 1030897" d="M10.123,15.783c-.027.007-.106.02-.212.046H7.528c-.318-1.048-1.035-3.57-1.6-6.291C5.053,5.324,4.548.619,6.46.048,8.471-.556,9.439,4.6,9.871,9.173a44.237,44.237,0,0,1,.252,6.61" fill="#607a17"/>
              <path id="Trazado_1030898-4" data-name="Trazado 1030898" d="M10.253,15.83H8.786a73.531,73.531,0,0,1,3.75-6.67c0-.006.007-.013.007-.02,2.3-3.6,5.2-7.2,7.512-7.074,4.1.226-7.373,11.435-9.8,13.764" fill="#607a17"/>
              <path id="Trazado_1030899-4" data-name="Trazado 1030899" d="M8.5,15.83H5.524C3.706,13.494-1.842,5.935.62,4.037c1.52-1.168,3.637,2.084,5.309,5.5C6.8,11.324,7.542,13.156,8.02,14.43c.232.63.4,1.121.484,1.4" fill="#89b62e"/>
              <path id="Trazado_1030900-4" data-name="Trazado 1030900" d="M12.5,11.047c0,.005,0,.009,0,.014-.768,2.164-1.646,4.109-1.944,4.769H7.45c.029-.195.081-.541.158-1,.157-.916.407-2.287.753-3.758.859-3.6,2.3-7.829,4.347-7.649,2,.18,1.027,4.171-.206,7.625" fill="#89b62e"/>
            </g>
          </g>
          <g id="Grupo_1199174" data-name="Grupo 1199174" transform="translate(54.958 426.461)">
            <g id="Grupo_1199171-5" data-name="Grupo 1199171" clip-path="url(#clip-path-3)">
              <path id="Trazado_1030897-5" data-name="Trazado 1030897" d="M10.123,15.783c-.027.007-.106.02-.212.046H7.528c-.318-1.048-1.035-3.57-1.6-6.291C5.053,5.324,4.548.619,6.46.048,8.471-.556,9.439,4.6,9.871,9.173a44.237,44.237,0,0,1,.252,6.61" fill="#607a17"/>
              <path id="Trazado_1030898-5" data-name="Trazado 1030898" d="M10.253,15.83H8.786a73.531,73.531,0,0,1,3.75-6.67c0-.006.007-.013.007-.02,2.3-3.6,5.2-7.2,7.512-7.074,4.1.226-7.373,11.435-9.8,13.764" fill="#607a17"/>
              <path id="Trazado_1030899-5" data-name="Trazado 1030899" d="M8.5,15.83H5.524C3.706,13.494-1.842,5.935.62,4.037c1.52-1.168,3.637,2.084,5.309,5.5C6.8,11.324,7.542,13.156,8.02,14.43c.232.63.4,1.121.484,1.4" fill="#89b62e"/>
              <path id="Trazado_1030900-5" data-name="Trazado 1030900" d="M12.5,11.047c0,.005,0,.009,0,.014-.768,2.164-1.646,4.109-1.944,4.769H7.45c.029-.195.081-.541.158-1,.157-.916.407-2.287.753-3.758.859-3.6,2.3-7.829,4.347-7.649,2,.18,1.027,4.171-.206,7.625" fill="#89b62e"/>
            </g>
          </g>
          <g id="Grupo_1199185" data-name="Grupo 1199185" transform="translate(68.151 352.461)">
            <g id="Grupo_1199171-6" data-name="Grupo 1199171" clip-path="url(#clip-path-3)">
              <path id="Trazado_1030897-6" data-name="Trazado 1030897" d="M10.123,15.783c-.027.007-.106.02-.212.046H7.528c-.318-1.048-1.035-3.57-1.6-6.291C5.053,5.324,4.548.619,6.46.048,8.471-.556,9.439,4.6,9.871,9.173a44.237,44.237,0,0,1,.252,6.61" fill="#607a17"/>
              <path id="Trazado_1030898-6" data-name="Trazado 1030898" d="M10.253,15.83H8.786a73.531,73.531,0,0,1,3.75-6.67c0-.006.007-.013.007-.02,2.3-3.6,5.2-7.2,7.512-7.074,4.1.226-7.373,11.435-9.8,13.764" fill="#607a17"/>
              <path id="Trazado_1030899-6" data-name="Trazado 1030899" d="M8.5,15.83H5.524C3.706,13.494-1.842,5.935.62,4.037c1.52-1.168,3.637,2.084,5.309,5.5C6.8,11.324,7.542,13.156,8.02,14.43c.232.63.4,1.121.484,1.4" fill="#89b62e"/>
              <path id="Trazado_1030900-6" data-name="Trazado 1030900" d="M12.5,11.047c0,.005,0,.009,0,.014-.768,2.164-1.646,4.109-1.944,4.769H7.45c.029-.195.081-.541.158-1,.157-.916.407-2.287.753-3.758.859-3.6,2.3-7.829,4.347-7.649,2,.18,1.027,4.171-.206,7.625" fill="#89b62e"/>
            </g>
          </g>
          <g id="Grupo_1199175" data-name="Grupo 1199175" transform="translate(48.958 459.461)">
            <g id="Grupo_1199171-7" data-name="Grupo 1199171" clip-path="url(#clip-path-3)">
              <path id="Trazado_1030897-7" data-name="Trazado 1030897" d="M10.123,15.783c-.027.007-.106.02-.212.046H7.528c-.318-1.048-1.035-3.57-1.6-6.291C5.053,5.324,4.548.619,6.46.048,8.471-.556,9.439,4.6,9.871,9.173a44.237,44.237,0,0,1,.252,6.61" fill="#607a17"/>
              <path id="Trazado_1030898-7" data-name="Trazado 1030898" d="M10.253,15.83H8.786a73.531,73.531,0,0,1,3.75-6.67c0-.006.007-.013.007-.02,2.3-3.6,5.2-7.2,7.512-7.074,4.1.226-7.373,11.435-9.8,13.764" fill="#607a17"/>
              <path id="Trazado_1030899-7" data-name="Trazado 1030899" d="M8.5,15.83H5.524C3.706,13.494-1.842,5.935.62,4.037c1.52-1.168,3.637,2.084,5.309,5.5C6.8,11.324,7.542,13.156,8.02,14.43c.232.63.4,1.121.484,1.4" fill="#89b62e"/>
              <path id="Trazado_1030900-7" data-name="Trazado 1030900" d="M12.5,11.047c0,.005,0,.009,0,.014-.768,2.164-1.646,4.109-1.944,4.769H7.45c.029-.195.081-.541.158-1,.157-.916.407-2.287.753-3.758.859-3.6,2.3-7.829,4.347-7.649,2,.18,1.027,4.171-.206,7.625" fill="#89b62e"/>
            </g>
          </g>
          <g id="Grupo_1199184" data-name="Grupo 1199184" transform="translate(62.151 385.461)">
            <g id="Grupo_1199171-8" data-name="Grupo 1199171" clip-path="url(#clip-path-3)">
              <path id="Trazado_1030897-8" data-name="Trazado 1030897" d="M10.123,15.783c-.027.007-.106.02-.212.046H7.528c-.318-1.048-1.035-3.57-1.6-6.291C5.053,5.324,4.548.619,6.46.048,8.471-.556,9.439,4.6,9.871,9.173a44.237,44.237,0,0,1,.252,6.61" fill="#607a17"/>
              <path id="Trazado_1030898-8" data-name="Trazado 1030898" d="M10.253,15.83H8.786a73.531,73.531,0,0,1,3.75-6.67c0-.006.007-.013.007-.02,2.3-3.6,5.2-7.2,7.512-7.074,4.1.226-7.373,11.435-9.8,13.764" fill="#607a17"/>
              <path id="Trazado_1030899-8" data-name="Trazado 1030899" d="M8.5,15.83H5.524C3.706,13.494-1.842,5.935.62,4.037c1.52-1.168,3.637,2.084,5.309,5.5C6.8,11.324,7.542,13.156,8.02,14.43c.232.63.4,1.121.484,1.4" fill="#89b62e"/>
              <path id="Trazado_1030900-8" data-name="Trazado 1030900" d="M12.5,11.047c0,.005,0,.009,0,.014-.768,2.164-1.646,4.109-1.944,4.769H7.45c.029-.195.081-.541.158-1,.157-.916.407-2.287.753-3.758.859-3.6,2.3-7.829,4.347-7.649,2,.18,1.027,4.171-.206,7.625" fill="#89b62e"/>
            </g>
          </g>
          <g id="Grupo_1199176" data-name="Grupo 1199176" transform="translate(91.958 437.291)">
            <g id="Grupo_1199171-9" data-name="Grupo 1199171" clip-path="url(#clip-path-3)">
              <path id="Trazado_1030897-9" data-name="Trazado 1030897" d="M10.123,15.783c-.027.007-.106.02-.212.046H7.528c-.318-1.048-1.035-3.57-1.6-6.291C5.053,5.324,4.548.619,6.46.048,8.471-.556,9.439,4.6,9.871,9.173a44.237,44.237,0,0,1,.252,6.61" fill="#607a17"/>
              <path id="Trazado_1030898-9" data-name="Trazado 1030898" d="M10.253,15.83H8.786a73.531,73.531,0,0,1,3.75-6.67c0-.006.007-.013.007-.02,2.3-3.6,5.2-7.2,7.512-7.074,4.1.226-7.373,11.435-9.8,13.764" fill="#607a17"/>
              <path id="Trazado_1030899-9" data-name="Trazado 1030899" d="M8.5,15.83H5.524C3.706,13.494-1.842,5.935.62,4.037c1.52-1.168,3.637,2.084,5.309,5.5C6.8,11.324,7.542,13.156,8.02,14.43c.232.63.4,1.121.484,1.4" fill="#89b62e"/>
              <path id="Trazado_1030900-9" data-name="Trazado 1030900" d="M12.5,11.047c0,.005,0,.009,0,.014-.768,2.164-1.646,4.109-1.944,4.769H7.45c.029-.195.081-.541.158-1,.157-.916.407-2.287.753-3.758.859-3.6,2.3-7.829,4.347-7.649,2,.18,1.027,4.171-.206,7.625" fill="#89b62e"/>
            </g>
          </g>
          <g id="Grupo_1199182" data-name="Grupo 1199182" transform="translate(105.151 363.291)">
            <g id="Grupo_1199171-10" data-name="Grupo 1199171" clip-path="url(#clip-path-3)">
              <path id="Trazado_1030897-10" data-name="Trazado 1030897" d="M10.123,15.783c-.027.007-.106.02-.212.046H7.528c-.318-1.048-1.035-3.57-1.6-6.291C5.053,5.324,4.548.619,6.46.048,8.471-.556,9.439,4.6,9.871,9.173a44.237,44.237,0,0,1,.252,6.61" fill="#607a17"/>
              <path id="Trazado_1030898-10" data-name="Trazado 1030898" d="M10.253,15.83H8.786a73.531,73.531,0,0,1,3.75-6.67c0-.006.007-.013.007-.02,2.3-3.6,5.2-7.2,7.512-7.074,4.1.226-7.373,11.435-9.8,13.764" fill="#607a17"/>
              <path id="Trazado_1030899-10" data-name="Trazado 1030899" d="M8.5,15.83H5.524C3.706,13.494-1.842,5.935.62,4.037c1.52-1.168,3.637,2.084,5.309,5.5C6.8,11.324,7.542,13.156,8.02,14.43c.232.63.4,1.121.484,1.4" fill="#89b62e"/>
              <path id="Trazado_1030900-10" data-name="Trazado 1030900" d="M12.5,11.047c0,.005,0,.009,0,.014-.768,2.164-1.646,4.109-1.944,4.769H7.45c.029-.195.081-.541.158-1,.157-.916.407-2.287.753-3.758.859-3.6,2.3-7.829,4.347-7.649,2,.18,1.027,4.171-.206,7.625" fill="#89b62e"/>
            </g>
          </g>
          <g id="Grupo_1199177" data-name="Grupo 1199177" transform="translate(85.958 465.376)">
            <g id="Grupo_1199171-11" data-name="Grupo 1199171" clip-path="url(#clip-path-3)">
              <path id="Trazado_1030897-11" data-name="Trazado 1030897" d="M10.123,15.783c-.027.007-.106.02-.212.046H7.528c-.318-1.048-1.035-3.57-1.6-6.291C5.053,5.324,4.548.619,6.46.048,8.471-.556,9.439,4.6,9.871,9.173a44.237,44.237,0,0,1,.252,6.61" fill="#607a17"/>
              <path id="Trazado_1030898-11" data-name="Trazado 1030898" d="M10.253,15.83H8.786a73.531,73.531,0,0,1,3.75-6.67c0-.006.007-.013.007-.02,2.3-3.6,5.2-7.2,7.512-7.074,4.1.226-7.373,11.435-9.8,13.764" fill="#607a17"/>
              <path id="Trazado_1030899-11" data-name="Trazado 1030899" d="M8.5,15.83H5.524C3.706,13.494-1.842,5.935.62,4.037c1.52-1.168,3.637,2.084,5.309,5.5C6.8,11.324,7.542,13.156,8.02,14.43c.232.63.4,1.121.484,1.4" fill="#89b62e"/>
              <path id="Trazado_1030900-11" data-name="Trazado 1030900" d="M12.5,11.047c0,.005,0,.009,0,.014-.768,2.164-1.646,4.109-1.944,4.769H7.45c.029-.195.081-.541.158-1,.157-.916.407-2.287.753-3.758.859-3.6,2.3-7.829,4.347-7.649,2,.18,1.027,4.171-.206,7.625" fill="#89b62e"/>
            </g>
          </g>
          <g id="Grupo_1199183" data-name="Grupo 1199183" transform="translate(99.151 391.376)">
            <g id="Grupo_1199171-12" data-name="Grupo 1199171" clip-path="url(#clip-path-3)">
              <path id="Trazado_1030897-12" data-name="Trazado 1030897" d="M10.123,15.783c-.027.007-.106.02-.212.046H7.528c-.318-1.048-1.035-3.57-1.6-6.291C5.053,5.324,4.548.619,6.46.048,8.471-.556,9.439,4.6,9.871,9.173a44.237,44.237,0,0,1,.252,6.61" fill="#607a17"/>
              <path id="Trazado_1030898-12" data-name="Trazado 1030898" d="M10.253,15.83H8.786a73.531,73.531,0,0,1,3.75-6.67c0-.006.007-.013.007-.02,2.3-3.6,5.2-7.2,7.512-7.074,4.1.226-7.373,11.435-9.8,13.764" fill="#607a17"/>
              <path id="Trazado_1030899-12" data-name="Trazado 1030899" d="M8.5,15.83H5.524C3.706,13.494-1.842,5.935.62,4.037c1.52-1.168,3.637,2.084,5.309,5.5C6.8,11.324,7.542,13.156,8.02,14.43c.232.63.4,1.121.484,1.4" fill="#89b62e"/>
              <path id="Trazado_1030900-12" data-name="Trazado 1030900" d="M12.5,11.047c0,.005,0,.009,0,.014-.768,2.164-1.646,4.109-1.944,4.769H7.45c.029-.195.081-.541.158-1,.157-.916.407-2.287.753-3.758.859-3.6,2.3-7.829,4.347-7.649,2,.18,1.027,4.171-.206,7.625" fill="#89b62e"/>
            </g>
          </g>
          <g id="Grupo_1199178" data-name="Grupo 1199178" transform="translate(127.958 445.206)">
            <g id="Grupo_1199171-13" data-name="Grupo 1199171" clip-path="url(#clip-path-3)">
              <path id="Trazado_1030897-13" data-name="Trazado 1030897" d="M10.123,15.783c-.027.007-.106.02-.212.046H7.528c-.318-1.048-1.035-3.57-1.6-6.291C5.053,5.324,4.548.619,6.46.048,8.471-.556,9.439,4.6,9.871,9.173a44.237,44.237,0,0,1,.252,6.61" fill="#607a17"/>
              <path id="Trazado_1030898-13" data-name="Trazado 1030898" d="M10.253,15.83H8.786a73.531,73.531,0,0,1,3.75-6.67c0-.006.007-.013.007-.02,2.3-3.6,5.2-7.2,7.512-7.074,4.1.226-7.373,11.435-9.8,13.764" fill="#607a17"/>
              <path id="Trazado_1030899-13" data-name="Trazado 1030899" d="M8.5,15.83H5.524C3.706,13.494-1.842,5.935.62,4.037c1.52-1.168,3.637,2.084,5.309,5.5C6.8,11.324,7.542,13.156,8.02,14.43c.232.63.4,1.121.484,1.4" fill="#89b62e"/>
              <path id="Trazado_1030900-13" data-name="Trazado 1030900" d="M12.5,11.047c0,.005,0,.009,0,.014-.768,2.164-1.646,4.109-1.944,4.769H7.45c.029-.195.081-.541.158-1,.157-.916.407-2.287.753-3.758.859-3.6,2.3-7.829,4.347-7.649,2,.18,1.027,4.171-.206,7.625" fill="#89b62e"/>
            </g>
          </g>
          <g id="Grupo_1199181" data-name="Grupo 1199181" transform="translate(141.151 371.206)">
            <g id="Grupo_1199171-14" data-name="Grupo 1199171" clip-path="url(#clip-path-3)">
              <path id="Trazado_1030897-14" data-name="Trazado 1030897" d="M10.123,15.783c-.027.007-.106.02-.212.046H7.528c-.318-1.048-1.035-3.57-1.6-6.291C5.053,5.324,4.548.619,6.46.048,8.471-.556,9.439,4.6,9.871,9.173a44.237,44.237,0,0,1,.252,6.61" fill="#607a17"/>
              <path id="Trazado_1030898-14" data-name="Trazado 1030898" d="M10.253,15.83H8.786a73.531,73.531,0,0,1,3.75-6.67c0-.006.007-.013.007-.02,2.3-3.6,5.2-7.2,7.512-7.074,4.1.226-7.373,11.435-9.8,13.764" fill="#607a17"/>
              <path id="Trazado_1030899-14" data-name="Trazado 1030899" d="M8.5,15.83H5.524C3.706,13.494-1.842,5.935.62,4.037c1.52-1.168,3.637,2.084,5.309,5.5C6.8,11.324,7.542,13.156,8.02,14.43c.232.63.4,1.121.484,1.4" fill="#89b62e"/>
              <path id="Trazado_1030900-14" data-name="Trazado 1030900" d="M12.5,11.047c0,.005,0,.009,0,.014-.768,2.164-1.646,4.109-1.944,4.769H7.45c.029-.195.081-.541.158-1,.157-.916.407-2.287.753-3.758.859-3.6,2.3-7.829,4.347-7.649,2,.18,1.027,4.171-.206,7.625" fill="#89b62e"/>
            </g>
          </g>
          <g id="Grupo_1199179" data-name="Grupo 1199179" transform="translate(120.8 474.568)">
            <g id="Grupo_1199171-15" data-name="Grupo 1199171" clip-path="url(#clip-path-3)">
              <path id="Trazado_1030897-15" data-name="Trazado 1030897" d="M10.123,15.783c-.027.007-.106.02-.212.046H7.528c-.318-1.048-1.035-3.57-1.6-6.291C5.053,5.324,4.548.619,6.46.048,8.471-.556,9.439,4.6,9.871,9.173a44.237,44.237,0,0,1,.252,6.61" fill="#607a17"/>
              <path id="Trazado_1030898-15" data-name="Trazado 1030898" d="M10.253,15.83H8.786a73.531,73.531,0,0,1,3.75-6.67c0-.006.007-.013.007-.02,2.3-3.6,5.2-7.2,7.512-7.074,4.1.226-7.373,11.435-9.8,13.764" fill="#607a17"/>
              <path id="Trazado_1030899-15" data-name="Trazado 1030899" d="M8.5,15.83H5.524C3.706,13.494-1.842,5.935.62,4.037c1.52-1.168,3.637,2.084,5.309,5.5C6.8,11.324,7.542,13.156,8.02,14.43c.232.63.4,1.121.484,1.4" fill="#89b62e"/>
              <path id="Trazado_1030900-15" data-name="Trazado 1030900" d="M12.5,11.047c0,.005,0,.009,0,.014-.768,2.164-1.646,4.109-1.944,4.769H7.45c.029-.195.081-.541.158-1,.157-.916.407-2.287.753-3.758.859-3.6,2.3-7.829,4.347-7.649,2,.18,1.027,4.171-.206,7.625" fill="#89b62e"/>
            </g>
            <g id="Grupo_1199188" data-name="Grupo 1199188" transform="translate(-27 28)" clip-path="url(#clip-path-3)">
              <path id="Trazado_1030901" data-name="Trazado 1030901" d="M10.123,15.783c-.027.007-.106.02-.212.046H7.528c-.318-1.048-1.035-3.57-1.6-6.291C5.053,5.324,4.548.619,6.46.048,8.471-.556,9.439,4.6,9.871,9.173a44.237,44.237,0,0,1,.252,6.61" fill="#607a17"/>
              <path id="Trazado_1030902" data-name="Trazado 1030902" d="M10.253,15.83H8.786a73.531,73.531,0,0,1,3.75-6.67c0-.006.007-.013.007-.02,2.3-3.6,5.2-7.2,7.512-7.074,4.1.226-7.373,11.435-9.8,13.764" fill="#607a17"/>
              <path id="Trazado_1030903" data-name="Trazado 1030903" d="M8.5,15.83H5.524C3.706,13.494-1.842,5.935.62,4.037c1.52-1.168,3.637,2.084,5.309,5.5C6.8,11.324,7.542,13.156,8.02,14.43c.232.63.4,1.121.484,1.4" fill="#89b62e"/>
              <path id="Trazado_1030904" data-name="Trazado 1030904" d="M12.5,11.047c0,.005,0,.009,0,.014-.768,2.164-1.646,4.109-1.944,4.769H7.45c.029-.195.081-.541.158-1,.157-.916.407-2.287.753-3.758.859-3.6,2.3-7.829,4.347-7.649,2,.18,1.027,4.171-.206,7.625" fill="#89b62e"/>
            </g>
            <g id="Grupo_1199189" data-name="Grupo 1199189" transform="translate(-84 15.83)" clip-path="url(#clip-path-3)">
              <path id="Trazado_1030905" data-name="Trazado 1030905" d="M10.123,15.783c-.027.007-.106.02-.212.046H7.528c-.318-1.048-1.035-3.57-1.6-6.291C5.053,5.324,4.548.619,6.46.048,8.471-.556,9.439,4.6,9.871,9.173a44.237,44.237,0,0,1,.252,6.61" fill="#607a17"/>
              <path id="Trazado_1030906" data-name="Trazado 1030906" d="M10.253,15.83H8.786a73.531,73.531,0,0,1,3.75-6.67c0-.006.007-.013.007-.02,2.3-3.6,5.2-7.2,7.512-7.074,4.1.226-7.373,11.435-9.8,13.764" fill="#607a17"/>
              <path id="Trazado_1030907" data-name="Trazado 1030907" d="M8.5,15.83H5.524C3.706,13.494-1.842,5.935.62,4.037c1.52-1.168,3.637,2.084,5.309,5.5C6.8,11.324,7.542,13.156,8.02,14.43c.232.63.4,1.121.484,1.4" fill="#89b62e"/>
              <path id="Trazado_1030908" data-name="Trazado 1030908" d="M12.5,11.047c0,.005,0,.009,0,.014-.768,2.164-1.646,4.109-1.944,4.769H7.45c.029-.195.081-.541.158-1,.157-.916.407-2.287.753-3.758.859-3.6,2.3-7.829,4.347-7.649,2,.18,1.027,4.171-.206,7.625" fill="#89b62e"/>
            </g>
            <g id="Grupo_1199190" data-name="Grupo 1199190" transform="translate(-118 13.83)" clip-path="url(#clip-path-3)">
              <path id="Trazado_1030909" data-name="Trazado 1030909" d="M10.123,15.783c-.027.007-.106.02-.212.046H7.528c-.318-1.048-1.035-3.57-1.6-6.291C5.053,5.324,4.548.619,6.46.048,8.471-.556,9.439,4.6,9.871,9.173a44.237,44.237,0,0,1,.252,6.61" fill="#607a17"/>
              <path id="Trazado_1030910" data-name="Trazado 1030910" d="M10.253,15.83H8.786a73.531,73.531,0,0,1,3.75-6.67c0-.006.007-.013.007-.02,2.3-3.6,5.2-7.2,7.512-7.074,4.1.226-7.373,11.435-9.8,13.764" fill="#607a17"/>
              <path id="Trazado_1030911" data-name="Trazado 1030911" d="M8.5,15.83H5.524C3.706,13.494-1.842,5.935.62,4.037c1.52-1.168,3.637,2.084,5.309,5.5C6.8,11.324,7.542,13.156,8.02,14.43c.232.63.4,1.121.484,1.4" fill="#89b62e"/>
              <path id="Trazado_1030912" data-name="Trazado 1030912" d="M12.5,11.047c0,.005,0,.009,0,.014-.768,2.164-1.646,4.109-1.944,4.769H7.45c.029-.195.081-.541.158-1,.157-.916.407-2.287.753-3.758.859-3.6,2.3-7.829,4.347-7.649,2,.18,1.027,4.171-.206,7.625" fill="#89b62e"/>
            </g>
          </g>
          <g id="Grupo_1199180" data-name="Grupo 1199180" transform="translate(133.993 400.568)">
            <g id="Grupo_1199171-16" data-name="Grupo 1199171" clip-path="url(#clip-path-3)">
              <path id="Trazado_1030897-16" data-name="Trazado 1030897" d="M10.123,15.783c-.027.007-.106.02-.212.046H7.528c-.318-1.048-1.035-3.57-1.6-6.291C5.053,5.324,4.548.619,6.46.048,8.471-.556,9.439,4.6,9.871,9.173a44.237,44.237,0,0,1,.252,6.61" fill="#607a17"/>
              <path id="Trazado_1030898-16" data-name="Trazado 1030898" d="M10.253,15.83H8.786a73.531,73.531,0,0,1,3.75-6.67c0-.006.007-.013.007-.02,2.3-3.6,5.2-7.2,7.512-7.074,4.1.226-7.373,11.435-9.8,13.764" fill="#607a17"/>
              <path id="Trazado_1030899-16" data-name="Trazado 1030899" d="M8.5,15.83H5.524C3.706,13.494-1.842,5.935.62,4.037c1.52-1.168,3.637,2.084,5.309,5.5C6.8,11.324,7.542,13.156,8.02,14.43c.232.63.4,1.121.484,1.4" fill="#89b62e"/>
              <path id="Trazado_1030900-16" data-name="Trazado 1030900" d="M12.5,11.047c0,.005,0,.009,0,.014-.768,2.164-1.646,4.109-1.944,4.769H7.45c.029-.195.081-.541.158-1,.157-.916.407-2.287.753-3.758.859-3.6,2.3-7.829,4.347-7.649,2,.18,1.027,4.171-.206,7.625" fill="#89b62e"/>
            </g>
          </g>
        </g>
      </g>
    </g>
    <g id="Grupo_1199163" data-name="Grupo 1199163" transform="translate(296.758 581.152)">
      <g id="Grupo_1199163-2" data-name="Grupo 1199163" clip-path="url(#clip-path-22)">
        <path id="Trazado_1030838" data-name="Trazado 1030838" d="M68.27,71.362S65.608,87.992,64.9,88.779s-40.241-24.93-40.241-24.93l-9.038,10.1s55.6,53.12,58.6,45.073S87.814,70.409,87.814,70.409Z" transform="translate(4.721 19.29)" fill="#df867f"/>
        <path id="Trazado_1030839" data-name="Trazado 1030839" d="M30.6,70.74s-1.559-6.866-3.128-8.533-3.757-3.6-5.578-5.3-2.678-3.763-4.063-2.2S20.4,61.351,20.4,61.351a24.269,24.269,0,0,1-6.7-4.9c-3.323-3.4-6.913-7.693-7.974-6.585A3.876,3.876,0,0,0,4.565,51.63s-1.826-1.056-2.655-.208.073,2.763.073,2.763S.368,55.222.363,56.146s3.344,7.654,7.03,11.47c0,0-6.969-6.253-7.292-5.8s-.159,3.116,5.08,7.84S20.347,78.23,20.347,78.23Z" transform="translate(0 15.011)" fill="#df867f"/>
        <path id="Trazado_1030840" data-name="Trazado 1030840" d="M1.523,53.141a58.85,58.85,0,0,0,4.662,6.395c2.55,2.975,6.169,6.878,6.169,6.878" transform="translate(0.46 16.055)" fill="none" stroke="#1f3542" stroke-linecap="round" stroke-miterlimit="10" stroke-width="0.379"/>
        <path id="Trazado_1030841" data-name="Trazado 1030841" d="M3.506,51.179s6.05,7.033,11.138,12.48" transform="translate(1.059 15.462)" fill="none" stroke="#1f3542" stroke-linecap="round" stroke-miterlimit="10" stroke-width="0.379"/>
        <path id="Trazado_1030842" data-name="Trazado 1030842" d="M68.18,51.848s-7.775,1.018-9.719,9.9-2.406,13.236-2.406,13.236l7.313,1.3,7.96-13.976Z" transform="translate(16.936 15.665)" fill="#f7e83e"/>
        <path id="Trazado_1030843" data-name="Trazado 1030843" d="M54.5,223.588a49.056,49.056,0,0,0,.491,5.681H96.262l.359-18.088L97,192.1l.216-10.272.1-4.938q-2.535.07-5.034.035a131.975,131.975,0,0,1-18.269-1.654,145.173,145.173,0,0,1-17.165-3.764s-.012.12-.023.361c-.8,13.017-1.582,26.79-2.014,37.374-.1,2.625-.18,5.047-.24,7.216-.072,2.865-.1,5.3-.072,7.132" transform="translate(16.463 51.816)" fill="#df867f"/>
        <path id="Trazado_1030844" data-name="Trazado 1030844" d="M56.3,180.582c5.466,1.572,22.449,5.942,40.473,5.374L97.52,148.1l-33.263-6.616a153.8,153.8,0,0,0-7.959,39.1" transform="translate(17.009 42.745)" fill="#1f3542"/>
        <path id="Trazado_1030845" data-name="Trazado 1030845" d="M54.379,231.291H97.256l-.6-18.088-.216-6.761-2.014-13.485-1.534-10.236-.576-3.776-2.109-14.132-10.093,2.637-23.23,6.077s-.012.12-.023.359c-.216,2.625-1.51,19.442-2.146,37.663-.085,2.4-.156,4.818-.216,7.24-.1,4.231-.143,8.451-.12,12.5" transform="translate(16.428 49.794)" fill="#1f3542"/>
        <path id="Trazado_1030846" data-name="Trazado 1030846" d="M51.644,228.076H99.278c7.576-8.559,16.842-19.514,24.621-30.087a105.013,105.013,0,0,1-26.035-7.084c-.9-.384-1.762-.767-2.613-1.163-11.818-5.453-18.615-11.7-21.132-14.288a.053.053,0,0,0-.012.036c-.624,1.09-1.234,2.169-1.822,3.236a242.578,242.578,0,0,0-16.853,36.535c-.036.108-.072.2-.108.313a125.609,125.609,0,0,0-3.68,12.5" transform="translate(15.603 53.009)" fill="#df867f"/>
        <path id="Trazado_1030847" data-name="Trazado 1030847" d="M68.906,185.16c4.1,4.223,19.615,18.208,49.778,22.54,3.327-4.5,6.361-8.921,8.884-13.052,14.916-24.423,4.953-51.313,4.953-51.313l-45.444,12.6c-7.112,10.547-13.125,20.291-18.171,29.23" transform="translate(20.818 43.305)" fill="#1f3542"/>
        <path id="Trazado_1030848" data-name="Trazado 1030848" d="M112.091,57.732C103.547,67,66.9,63.946,65.279,56.219c-4.288-20.39-7.077-37.105,4.486-50.7C74.408.053,83.266-.507,89.964.293c16.579,1.958,19.8,8.723,21.633,25.365.831,7.518,5.159,27.011.493,32.074" transform="translate(18.599 0)" fill="#1f3542"/>
        <path id="Trazado_1030849" data-name="Trazado 1030849" d="M98.717,57.6,95.86,63.026s-6.844,8.645-7.015,8.608-15.516-5.046-15.516-5.046L73.2,57.54l2.529-22.572,20.186-3.817.193-.043a87.17,87.17,0,0,0,.525,16.42c.273,1.724,1.217,6.7,1.217,6.7Z" transform="translate(22.114 9.398)" fill="#df867f"/>
        <path id="Trazado_1030850" data-name="Trazado 1030850" d="M100.473,21.662S96.757,57.7,79.682,58.291c-7.606.262-12.412-10.062-13.625-20.514-1.425-12.28,1.492-25.012,1.492-25.012l24.8-9.438Z" transform="translate(19.839 1.005)" fill="#df867f"/>
        <path id="Trazado_1030851" data-name="Trazado 1030851" d="M87.006,41.418c-2.663,3.129-5.939,5.227-9.953,5.365a7.942,7.942,0,0,1-2.682-.366" transform="translate(22.469 12.513)" fill="none" stroke="#1f3542" stroke-linecap="round" stroke-linejoin="round" stroke-width="0.485"/>
        <path id="Trazado_1030852" data-name="Trazado 1030852" d="M71.409,25.788a1.432,1.432,0,0,1-1.026,1.822,1.648,1.648,0,0,1-1.7-1.418,1.432,1.432,0,0,1,1.026-1.822,1.646,1.646,0,0,1,1.7,1.418" transform="translate(20.738 7.359)" fill="#1f3542"/>
        <path id="Trazado_1030853" data-name="Trazado 1030853" d="M101.828,31.874c-1.311-4.958-6.817-6.752-11.395-7.979A16.322,16.322,0,0,1,79.041,13.407S75.1,28.356,65.168,25.722c0,0,.156-29.669,20.436-24.167,25.639,6.956,16.224,30.319,16.224,30.319" transform="translate(19.689 0.264)" fill="#1f3542"/>
        <path id="Trazado_1030854" data-name="Trazado 1030854" d="M74.2,30.733l-.38,1.944a1.369,1.369,0,0,0,1.363,1.63l.411-.007" transform="translate(22.293 9.285)" fill="none" stroke="#1f3542" stroke-linecap="round" stroke-linejoin="round" stroke-width="0.485"/>
        <path id="Trazado_1030855" data-name="Trazado 1030855" d="M78.347,22.364s3.849-1.2,6.548,1Z" transform="translate(23.67 6.658)" fill="#1f3542"/>
        <path id="Trazado_1030856" data-name="Trazado 1030856" d="M72.919,22.639a6.5,6.5,0,0,0-5.994,1.117Z" transform="translate(20.22 6.75)" fill="#1f3542"/>
        <path id="Trazado_1030857" data-name="Trazado 1030857" d="M92.536,23.149s6.5-.117,5.251,5.013S89.318,35.9,89.318,35.9Z" transform="translate(26.985 6.994)" fill="#df867f"/>
        <path id="Trazado_1030858" data-name="Trazado 1030858" d="M92.782,25.753s3.374,1.5-1.5,4.473Z" transform="translate(27.58 7.781)" fill="#1f3542"/>
        <path id="Trazado_1030859" data-name="Trazado 1030859" d="M97.509,25.281a6.264,6.264,0,0,0-2.119,1.883c-1.318,1.585-3.742,9.67-4.287,9.552S92.849,24.9,85.521,18.19s5.469-5.495,5.469-5.495,6.008,5.69,5.969,6.25.551,6.336.551,6.336" transform="translate(25.153 3.81)" fill="#1f3542"/>
        <path id="Trazado_1030860" data-name="Trazado 1030860" d="M70.567,24.36a3.78,3.78,0,0,0-3.5,1.526,6.72,6.72,0,0,1,2.872-.673Z" transform="translate(20.264 7.352)" fill="#1f3542"/>
        <path id="Trazado_1030861" data-name="Trazado 1030861" d="M78.73,26.9a1.432,1.432,0,0,0,1.2,1.71,1.647,1.647,0,0,0,1.55-1.582,1.431,1.431,0,0,0-1.2-1.71A1.647,1.647,0,0,0,78.73,26.9" transform="translate(23.783 7.647)" fill="#1f3542"/>
        <path id="Trazado_1030862" data-name="Trazado 1030862" d="M79.622,25.351a3.78,3.78,0,0,1,3.632,1.168,6.717,6.717,0,0,0-2.926-.382Z" transform="translate(24.056 7.633)" fill="#1f3542"/>
        <path id="Trazado_1030863" data-name="Trazado 1030863" d="M81.066,36.845S76.412,46.2,71.873,36.5Z" transform="translate(21.715 11.028)" fill="#fff"/>
        <path id="Trazado_1030864" data-name="Trazado 1030864" d="M68.447,68.894c-.555,8.2-3.121,18.929,9.719,21.031S96.675,85.408,99.411,77.2s17.382-24.169,17.382-24.169L98.619,47.919s-13.575,15.265-23.062,2.5l-8.729,2.151a58.967,58.967,0,0,1,1.619,16.327" transform="translate(20.19 14.477)" fill="#df867f"/>
        <path id="Trazado_1030865" data-name="Trazado 1030865" d="M64.689,169.621c10.739,15.183,26.457,14.853,46.271,15.228s24.6-10.375,24.6-10.375-.135-1.4-1.216-12.253c-1.819-18.264-8.017-41.4-10.431-69.539s3.4-37.831,3.4-37.831l-23.065-6.505s-5.75,18.305-18.581,16.2-7.06-12.036-7.534-14l-9.6,2.362A104.563,104.563,0,0,1,66.1,63.382C63.457,72.9,57.152,79.011,55.212,92.754s4.9,18.741,9.344,34.291.133,42.576.133,42.576" transform="translate(16.578 14.606)" fill="#f7e83e"/>
        <path id="Trazado_1030866" data-name="Trazado 1030866" d="M106.995,91.2,69.348,95.186s-9.237,13.4-8.718,15.572c5.9,24.637,3.287,43.081,2.326,45.914s16.839,18.221,16.839,18.221L127,178.446l8.025-19.363L130.613,135.3s-19.9-36.984-23.618-44.091" transform="translate(18.311 27.555)" fill="#1f3542"/>
        <path id="Trazado_1030867" data-name="Trazado 1030867" d="M69.422,132.5s-4.514-72.545-4.05-80.316c0,0,3.917-1.652,4.856-1.454s1.279,18.073,1.533,22.843,5.232,61.205,5.232,61.205Z" transform="translate(19.741 15.322)" fill="#1f3542"/>
        <path id="Trazado_1030868" data-name="Trazado 1030868" d="M99.375,132.724s-1.505-21.956-1.655-33.41,8.47-47.787,8.47-47.787-6.405-1.928-7.005-1.975-7.978,25.765-9,43.1C89.569,103,91.7,133.777,91.7,133.777Z" transform="translate(27.212 14.971)" fill="#1f3542"/>
        <path id="Trazado_1030869" data-name="Trazado 1030869" d="M70.84,116.3s1.085,10.46,1.085,15.622c0,0,8.671,5.16,12.49,5.573s12.077-6.09,12.386-7.123-1.7-15.1-1.7-15.1Z" transform="translate(21.402 34.827)" fill="#2f4956"/>
        <line id="Línea_818" data-name="Línea 818" x1="1.365" y1="12.701" transform="translate(133.817 89.698)" fill="none" stroke="#1f3542" stroke-linecap="round" stroke-miterlimit="10" stroke-width="0.379"/>
        <path id="Trazado_1030870" data-name="Trazado 1030870" d="M59.022,72.838s4.24-8.235,5.07-11.607" transform="translate(17.832 18.499)" fill="none" stroke="#1f3542" stroke-linecap="round" stroke-miterlimit="10" stroke-width="0.379"/>
        <path id="Trazado_1030871" data-name="Trazado 1030871" d="M92.391,88.7a13.982,13.982,0,0,0-3.658-4.827C86.4,82.084,78.987,80.5,77.642,80.257S75.2,84.224,75.2,84.224L89.272,91.9Z" transform="translate(22.718 24.245)" fill="#df867f"/>
        <path id="Trazado_1030872" data-name="Trazado 1030872" d="M29.443,73.034l8.844,42.208a2.4,2.4,0,0,0,2.353,1.912H99.09a2.4,2.4,0,0,0,2.359-2.865L93.243,72.255a2.4,2.4,0,0,0-2.33-1.944c-9.2-.09-48.242-.451-59.179-.174a2.4,2.4,0,0,0-2.292,2.9" transform="translate(8.88 21.159)" fill="#fff"/>
        <path id="Trazado_1030873" data-name="Trazado 1030873" d="M58.358,88.746c.391,2-.647,3.882-2.319,4.208s-3.341-1.026-3.733-3.024.648-3.882,2.319-4.208,3.341,1.026,3.733,3.024" transform="translate(15.778 25.884)" fill="#d9eaa7"/>
        <path id="Trazado_1030874" data-name="Trazado 1030874" d="M143.706,88.6c-11.44,5.619-23.213,1.337-25.955.753l6.324,26.511a134.475,134.475,0,0,0-23.434-20.24,26.5,26.5,0,0,0-1.986-3.587c-1.371-2.065-3.556-4.54-6.219-5.126a75.054,75.054,0,0,1-9.291-2.979A69.151,69.151,0,0,0,72.8,81.544c-1.49-.154-5.948,2.087.206,5.35,0,0-1.086,4.271,1.551,6.235a3.945,3.945,0,0,0,.022,5.4s-1.757,2.53,1.664,5.383,6.317,3,8.65,3.417a42.765,42.765,0,0,0,7.686.961c1.789,3.254,7.214,13.9,16.67,23.052,28.92,28,36.431,9.9,37.2,4.2,1.582-11.786.112-26.5-2.736-46.947" transform="translate(21.1 24.634)" fill="#df867f"/>
        <path id="Trazado_1030875" data-name="Trazado 1030875" d="M72.269,85.652s3.583,1.2,8.03,3a48.638,48.638,0,0,0,8.241,2.513" transform="translate(21.834 25.878)" fill="none" stroke="#1f3542" stroke-miterlimit="10" stroke-width="0.411"/>
        <path id="Trazado_1030876" data-name="Trazado 1030876" d="M73.46,90.44a54.662,54.662,0,0,0,10.565,4.978" transform="translate(22.194 27.324)" fill="none" stroke="#1f3542" stroke-miterlimit="10" stroke-width="0.411"/>
        <path id="Trazado_1030877" data-name="Trazado 1030877" d="M73.478,94.587a38.031,38.031,0,0,0,8.474,5.167" transform="translate(22.199 28.577)" fill="none" stroke="#1f3542" stroke-miterlimit="10" stroke-width="0.411"/>
        <path id="Trazado_1030878" data-name="Trazado 1030878" d="M111.921,108.678s8.552,6.425,11.806,12.366" transform="translate(33.814 32.834)" fill="none" stroke="#1f3542" stroke-miterlimit="10" stroke-width="0.411"/>
        <path id="Trazado_1030879" data-name="Trazado 1030879" d="M133.853,97.116c-11.44,5.619-25.55,3.5-28.291,2.912L102.45,74.581,106.9,61.391l6.041-8.05s14.3,7,18.334,28c.882,4.613,1.775,10.019,2.577,15.777" transform="translate(30.953 16.116)" fill="#f7e83e"/>
        <line id="Línea_819" data-name="Línea 819" x1="3.376" y1="18.102" transform="translate(136.102 98.51)" fill="none" stroke="#1f3542" stroke-linecap="round" stroke-miterlimit="10" stroke-width="0.379"/>
        <path id="Trazado_1030880" data-name="Trazado 1030880" d="M49.2,228.076H101.3c8.319-10.224,18.519-23.014,23.338-30.087,4.9-7.2-10.776-13.329-25.82-17.356-1.462-.4-2.925-.767-4.362-1.126-10.489-2.578-19.6-4.052-19.6-4.052a.053.053,0,0,0-.012.036c-.1.108-.4.563-.9,1.306a.325.325,0,0,0-.036.06,237.132,237.132,0,0,0-14.395,24.717c-.624,1.2-1.163,2.289-1.607,3.247-.5,1.068-1.007,2.134-1.5,3.225-.048.1-.085.191-.133.288A118.156,118.156,0,0,0,49.2,228.076" transform="translate(14.863 53.009)" fill="#1f3542"/>
        <path id="Trazado_1030881" data-name="Trazado 1030881" d="M55.889,209.85C61.527,197.61,83.761,163.079,86,158.826" transform="translate(16.885 47.985)" fill="none" stroke="#2f4956" stroke-linecap="round" stroke-linejoin="round" stroke-width="0.686"/>
        <path id="Trazado_1030882" data-name="Trazado 1030882" d="M75.98,166.313s-1.673-6.485-2.745-10.084" transform="translate(22.126 47.201)" fill="none" stroke="#2f4956" stroke-linecap="round" stroke-linejoin="round" stroke-width="0.686"/>
      </g>
    </g>
    <g id="Grupo_1199164" data-name="Grupo 1199164" transform="translate(219.54 543.954)">
      <g id="Grupo_1199170" data-name="Grupo 1199170" clip-path="url(#clip-path-23)">
        <g id="Grupo_1199169" data-name="Grupo 1199169">
          <g id="Grupo_1199168" data-name="Grupo 1199168" clip-path="url(#clip-path-24)">
            <g id="Grupo_1199167" data-name="Grupo 1199167" opacity="0.7">
              <g id="Grupo_1199166" data-name="Grupo 1199166">
                <g id="Grupo_1199165" data-name="Grupo 1199165" clip-path="url(#clip-path-24)">
                  <path id="Trazado_1030883" data-name="Trazado 1030883" d="M127.223,87.391H7.214A6.738,6.738,0,0,1,.476,80.654V7.213A6.738,6.738,0,0,1,7.214.476H127.223a6.737,6.737,0,0,1,6.737,6.737V80.654a6.737,6.737,0,0,1-6.737,6.737" fill="#fff"/>
                  <path id="Rectángulo_408720" data-name="Rectángulo 408720" d="M6.737,0H126.746a6.738,6.738,0,0,1,6.738,6.738V80.177a6.738,6.738,0,0,1-6.738,6.738H6.737A6.737,6.737,0,0,1,0,80.178V6.737A6.737,6.737,0,0,1,6.737,0Z" transform="translate(0.476 0.476)" fill="none" stroke="#607a17" stroke-miterlimit="10" stroke-width="0.952"/>
                </g>
              </g>
            </g>
            <path id="Trazado_1030884" data-name="Trazado 1030884" d="M8.623,7.316A1.253,1.253,0,1,1,7.37,6.063,1.253,1.253,0,0,1,8.623,7.316" fill="#89b62e"/>
            <path id="Trazado_1030885" data-name="Trazado 1030885" d="M13.656,7.316A1.253,1.253,0,1,1,12.4,6.063a1.253,1.253,0,0,1,1.253,1.253" fill="#89b62e"/>
            <path id="Trazado_1030886" data-name="Trazado 1030886" d="M18.689,7.316a1.252,1.252,0,1,1-1.253-1.253,1.253,1.253,0,0,1,1.253,1.253" fill="#89b62e"/>
            <path id="Trazado_1030887" data-name="Trazado 1030887" d="M52.332,44.968H13.585a1.6,1.6,0,0,1-1.629-1.643l.28-22.951A2,2,0,0,1,14.2,18.438H52.949a1.6,1.6,0,0,1,1.629,1.643L54.3,43.032a2,2,0,0,1-1.966,1.936" fill="#89b62e"/>
            <path id="Trazado_1030888" data-name="Trazado 1030888" d="M20.752,36.123l-3.161,3.123a10.213,10.213,0,0,1-3.02-7.4h4.416a5.868,5.868,0,0,0,1.765,4.282" fill="#1f3542"/>
            <path id="Trazado_1030889" data-name="Trazado 1030889" d="M25.076,21.462l-.054,4.417a6.052,6.052,0,0,0-6.035,5.962H14.571A10.534,10.534,0,0,1,25.076,21.462" fill="#fff"/>
            <path id="Trazado_1030890" data-name="Trazado 1030890" d="M32.446,24.573,29.285,27.7a5.862,5.862,0,0,0-4.263-1.817l.054-4.417a10.213,10.213,0,0,1,7.37,3.111" fill="#d9eaa7"/>
            <path id="Trazado_1030891" data-name="Trazado 1030891" d="M35.328,31.84a10.532,10.532,0,0,1-10.5,10.378,10.206,10.206,0,0,1-7.231-2.973l3.16-3.123a5.853,5.853,0,0,0,4.125,1.68,6.052,6.052,0,0,0,6.037-5.962,5.863,5.863,0,0,0-1.629-4.145l3.161-3.123a10.221,10.221,0,0,1,2.882,7.268" fill="#f7e83e"/>
            <path id="Trazado_1030892" data-name="Trazado 1030892" d="M51.665,25.1H38.675l.015-1.237H51.68Z" fill="#fff"/>
            <path id="Trazado_1030893" data-name="Trazado 1030893" d="M51.634,27.631H44.5l.015-1.237h7.135Z" fill="#d9eaa7"/>
            <path id="Trazado_1030894" data-name="Trazado 1030894" d="M51.528,36.291H38.538l.015-1.237h12.99Z" fill="#fff"/>
            <path id="Trazado_1030895" data-name="Trazado 1030895" d="M51.5,38.817H44.362l.015-1.237h7.135Z" fill="#d9eaa7"/>
            <rect id="Rectángulo_408722" data-name="Rectángulo 408722" width="56.359" height="1.613" transform="translate(65.142 24.107)" fill="#d9eaa7"/>
            <rect id="Rectángulo_408723" data-name="Rectángulo 408723" width="56.359" height="1.613" transform="translate(65.142 31.259)" fill="#d9eaa7"/>
            <rect id="Rectángulo_408724" data-name="Rectángulo 408724" width="45.828" height="1.613" transform="translate(75.673 37.686)" fill="#d9eaa7"/>
            <rect id="Rectángulo_408725" data-name="Rectángulo 408725" width="32.712" height="1.613" transform="translate(88.789 24.107)" fill="#89b62e"/>
            <rect id="Rectángulo_408726" data-name="Rectángulo 408726" width="27.553" height="1.613" transform="translate(93.948 31.259)" fill="#89b62e"/>
            <rect id="Rectángulo_408727" data-name="Rectángulo 408727" width="22.405" height="1.613" transform="translate(99.096 37.686)" fill="#89b62e"/>
            <path id="Trazado_1030896" data-name="Trazado 1030896" d="M121.179,78.181l-107.8-.339a1.677,1.677,0,0,1-1.672-1.682l.079-25.17a1.676,1.676,0,0,1,1.682-1.671l107.8.339a1.676,1.676,0,0,1,1.671,1.682l-.079,25.169a1.677,1.677,0,0,1-1.682,1.672" fill="#1f3542"/>
            <rect id="Rectángulo_408728" data-name="Rectángulo 408728" width="8.837" height="6.706" transform="translate(24.168 73.716) rotate(-89.821)" fill="#89b62e"/>
            <rect id="Rectángulo_408729" data-name="Rectángulo 408729" width="12.107" height="6.705" transform="translate(37.734 73.758) rotate(-89.821)" fill="#f7e83e"/>
            <rect id="Rectángulo_408730" data-name="Rectángulo 408730" width="16.927" height="6.705" transform="translate(51.299 73.801) rotate(-89.821)" fill="#89b62e"/>
            <rect id="Rectángulo_408731" data-name="Rectángulo 408731" width="11.878" height="6.705" transform="translate(64.864 73.844) rotate(-89.821)" fill="#f7e83e"/>
            <rect id="Rectángulo_408732" data-name="Rectángulo 408732" width="5.853" height="6.705" transform="translate(78.429 73.886) rotate(-89.821)" fill="#89b62e"/>
            <rect id="Rectángulo_408733" data-name="Rectángulo 408733" width="20.427" height="6.705" transform="translate(105.559 73.972) rotate(-89.821)" fill="#89b62e"/>
            <rect id="Rectángulo_408734" data-name="Rectángulo 408734" width="15.837" height="6.706" transform="translate(91.993 73.929) rotate(-89.821)" fill="#f7e83e"/>
          </g>
        </g>
      </g>
    </g>
  </g>
</svg>
