<svg xmlns="http://www.w3.org/2000/svg" xmlns:xlink="http://www.w3.org/1999/xlink" width="118" height="118" viewBox="0 0 118 118">
  <defs>
    <filter id="Trazado_874925" x="0" y="0" width="118" height="118" filterUnits="userSpaceOnUse">
      <feOffset dy="3" input="SourceAlpha"/>
      <feGaussianBlur stdDeviation="3" result="blur"/>
      <feFlood flood-opacity="0.161"/>
      <feComposite operator="in" in2="blur"/>
      <feComposite in="SourceGraphic"/>
    </filter>
  </defs>
  <g id="Grupo_1199256" data-name="Grupo 1199256" transform="translate(-5326.324 8757.577)">
    <g id="Grupo_1198188" data-name="Grupo 1198188" transform="translate(4526.823 -11268.734)">
      <g id="Grupo_1111316" data-name="Grupo 1111316" transform="translate(808.5 2517.157)">
        <g id="Grupo_1109835" data-name="Grupo 1109835" transform="translate(0 0)">
          <g id="Grupo_1107913" data-name="Grupo 1107913" transform="translate(0 0)">
            <g transform="matrix(1, 0, 0, 1, -9, -6)" filter="url(#Trazado_874925)">
              <g id="Trazado_874925-2" data-name="Trazado 874925" transform="translate(9 6)" fill="#9ad354" opacity="0.859">
                <path d="M 49.99972534179688 98.4998779296875 C 43.45164108276367 98.4998779296875 37.10022354125977 97.21776580810547 31.12189674377441 94.68914794921875 C 25.34676742553711 92.24647521972656 20.15985298156738 88.74925994873047 15.70523929595947 84.29464721679688 C 11.25062561035156 79.84004974365234 7.753411293029785 74.65313720703125 5.310725212097168 68.87800598144531 C 2.782111167907715 62.89969253540039 1.499996781349182 56.54829406738281 1.499996781349182 50.00022125244141 C 1.499996781349182 43.45157623291016 2.782111167907715 37.10017776489258 5.310725212097168 31.12186431884766 C 7.753411293029785 25.34673500061035 11.25062561035156 20.15983581542969 15.70523929595947 15.70522117614746 C 20.15985298156738 11.25062084197998 25.34676742553711 7.753406524658203 31.12189674377441 5.31073522567749 C 37.10022354125977 2.782120943069458 43.45164108276367 1.500006556510925 49.99972534179688 1.500006556510925 C 56.54780960083008 1.500006556510925 62.89922714233398 2.782120943069458 68.87755584716797 5.31073522567749 C 74.65267944335938 7.753406524658203 79.839599609375 11.25062084197998 84.29421234130859 15.70522117614746 C 88.74882507324219 20.15983581542969 92.24604034423828 25.34673500061035 94.68872833251953 31.12186431884766 C 97.21733856201172 37.10017776489258 98.49945068359375 43.45157623291016 98.49945068359375 49.99964904785156 C 98.49945068359375 56.54829406738281 97.21733856201172 62.89969253540039 94.68872833251953 68.87800598144531 C 92.24604034423828 74.65313720703125 88.74882507324219 79.84004974365234 84.29421234130859 84.29464721679688 C 79.839599609375 88.74925994873047 74.65267944335938 92.24647521972656 68.87755584716797 94.68914794921875 C 62.89922714233398 97.21776580810547 56.54780960083008 98.4998779296875 49.99972534179688 98.4998779296875 Z" stroke="none"/>
                <path d="M 49.99972534179688 3 C 43.65348052978516 3 37.49866485595703 4.242240905761719 31.70623016357422 6.692230224609375 C 26.10989379882812 9.059272766113281 21.08323669433594 12.44853210449219 16.76589202880859 16.76587677001953 C 12.44855499267578 21.08321380615234 9.059295654296875 26.10985565185547 6.692230224609375 31.70618438720703 C 4.24224853515625 37.49859619140625 3 43.65341186523438 3 50.00022888183594 C 3 56.34645843505859 4.24224853515625 62.50127410888672 6.692230224609375 68.29368591308594 C 9.059295654296875 73.8900146484375 12.44855499267578 78.91665649414062 16.76589202880859 83.23399353027344 C 21.08323669433594 87.55132293701172 26.10989379882812 90.94059753417969 31.70623016357422 93.30764007568359 C 37.49866485595703 95.75762939453125 43.65348052978516 96.99987030029297 49.99972534179688 96.99987030029297 C 56.34597015380859 96.99987030029297 62.50078582763672 95.75762939453125 68.293212890625 93.30764007568359 C 73.88955688476562 90.94059753417969 78.91621398925781 87.55132293701172 83.23355865478516 83.23399353027344 C 87.55089569091797 78.91665649414062 90.94015502929688 73.8900146484375 93.30722045898438 68.29368591308594 C 95.7572021484375 62.50127410888672 96.99945068359375 56.34645843505859 96.99945068359375 49.99964141845703 C 96.99945068359375 43.65341186523438 95.7572021484375 37.49859619140625 93.30722045898438 31.70618438720703 C 90.94015502929688 26.10985565185547 87.55089569091797 21.08321380615234 83.23355865478516 16.76587677001953 C 78.91621398925781 12.44853210449219 73.88955688476562 9.059272766113281 68.293212890625 6.692230224609375 C 62.50078582763672 4.242240905761719 56.34597015380859 3 49.99972534179688 3 M 49.99972534179688 0 C 77.61381530761719 0 99.99945068359375 22.38559722900391 99.99945068359375 49.99964141845703 L 99.99945068359375 50.00022888183594 C 99.99945068359375 77.6142578125 77.61381530761719 99.99987030029297 49.99972534179688 99.99987030029297 C 22.38563537597656 99.99987030029297 0 77.6142578125 0 50.00022888183594 L 0 49.99964141845703 C 0 22.38559722900391 22.38563537597656 0 49.99972534179688 0 Z" stroke="none" fill="#fff"/>
              </g>
            </g>
            <g id="Trazado_874923" data-name="Trazado 874923" transform="translate(0 0)" fill="none">
              <path d="M50,0a50,50,0,0,1,50,50h0A50,50,0,0,1,0,50H0A50,50,0,0,1,50,0Z" stroke="none"/>
              <path d="M 49.99972534179688 3 C 43.65348052978516 3 37.49866485595703 4.242240905761719 31.70623016357422 6.692230224609375 C 26.10989379882812 9.059272766113281 21.08323669433594 12.44853210449219 16.76589202880859 16.76587677001953 C 12.44855499267578 21.08321380615234 9.059295654296875 26.10985565185547 6.692230224609375 31.70618438720703 C 4.24224853515625 37.49859619140625 3 43.65341186523438 3 50.00022888183594 C 3 56.34645843505859 4.24224853515625 62.50127410888672 6.692230224609375 68.29368591308594 C 9.059295654296875 73.8900146484375 12.44855499267578 78.91665649414062 16.76589202880859 83.23399353027344 C 21.08323669433594 87.55132293701172 26.10989379882812 90.94059753417969 31.70623016357422 93.30764007568359 C 37.49866485595703 95.75762939453125 43.65348052978516 96.99987030029297 49.99972534179688 96.99987030029297 C 56.34597015380859 96.99987030029297 62.50078582763672 95.75762939453125 68.293212890625 93.30764007568359 C 73.88955688476562 90.94059753417969 78.91621398925781 87.55132293701172 83.23355865478516 83.23399353027344 C 87.55089569091797 78.91665649414062 90.94015502929688 73.8900146484375 93.30722045898438 68.29368591308594 C 95.7572021484375 62.50127410888672 96.99945068359375 56.34645843505859 96.99945068359375 49.99964141845703 C 96.99945068359375 43.65341186523438 95.7572021484375 37.49859619140625 93.30722045898438 31.70618438720703 C 90.94015502929688 26.10985565185547 87.55089569091797 21.08321380615234 83.23355865478516 16.76587677001953 C 78.91621398925781 12.44853210449219 73.88955688476562 9.059272766113281 68.293212890625 6.692230224609375 C 62.50078582763672 4.242240905761719 56.34597015380859 3 49.99972534179688 3 M 49.99972534179688 0 C 77.61381530761719 0 99.99945068359375 22.38559722900391 99.99945068359375 49.99964141845703 L 99.99945068359375 50.00022888183594 C 99.99945068359375 77.6142578125 77.61381530761719 99.99987030029297 49.99972534179688 99.99987030029297 C 22.38563537597656 99.99987030029297 0 77.6142578125 0 50.00022888183594 L 0 49.99964141845703 C 0 22.38559722900391 22.38563537597656 0 49.99972534179688 0 Z" stroke="none" fill="#fff"/>
            </g>
          </g>
        </g>
      </g>
    </g>
    <g id="dividend_3707995" transform="translate(5353 -8736)">
      <g id="Grupo_1199254" data-name="Grupo 1199254">
        <g id="Grupo_1199244" data-name="Grupo 1199244">
          <path id="Trazado_1031007" data-name="Trazado 1031007" d="M37,8c-.34,0-.67.03-1,.05V2h4l.58,2.34a19.853,19.853,0,0,1,7.79,3.22l2.07-1.24,4.24,4.24-1.24,2.07a19.853,19.853,0,0,1,3.22,7.79L59,21v4H52.95c.02-.33.05-.66.05-1A16,16,0,0,0,37,8Z" fill="#ffc729"/>
        </g>
        <g id="Grupo_1199245" data-name="Grupo 1199245">
          <path id="Trazado_1031008" data-name="Trazado 1031008" d="M54,29v2l-2.34.58a19.853,19.853,0,0,1-3.22,7.79l1.24,2.06-4.24,4.25-2.07-1.24a19.853,19.853,0,0,1-7.79,3.22L35,50H29l-.58-2.34a19.853,19.853,0,0,1-7.79-3.22l-2.07,1.24-4.24-4.25,1.24-2.06a19.853,19.853,0,0,1-3.22-7.79L10,31V25l2.34-.58a19.853,19.853,0,0,1,3.22-7.79l-1.24-2.07,4.24-4.24,2.07,1.24a19.853,19.853,0,0,1,7.79-3.22L29,6h3v6A16,16,0,1,0,47.95,29Z" fill="#ffc729"/>
        </g>
        <g id="Grupo_1199246" data-name="Grupo 1199246">
          <path id="Trazado_1031009" data-name="Trazado 1031009" d="M37,12c-.34,0-.67.02-1,.05v-4c.33-.02.66-.05,1-.05A16,16,0,0,1,53,24c0,.34-.03.67-.05,1h-4c.03-.33.05-.66.05-1A12,12,0,0,0,37,12Z" fill="#fcd770"/>
        </g>
        <g id="Grupo_1199247" data-name="Grupo 1199247">
          <path id="Trazado_1031010" data-name="Trazado 1031010" d="M43.95,29h4A15.991,15.991,0,1,1,32,12v4A12,12,0,1,0,43.95,29Z" fill="#fcd770"/>
        </g>
        <g id="Grupo_1199248" data-name="Grupo 1199248">
          <path id="Trazado_1031011" data-name="Trazado 1031011" d="M49,24c0,.34-.02.67-.05,1H36V12.05c.33-.03.66-.05,1-.05A12,12,0,0,1,49,24Z" fill="#ffeaa7"/>
        </g>
        <g id="Grupo_1199249" data-name="Grupo 1199249">
          <path id="Trazado_1031012" data-name="Trazado 1031012" d="M32,27v2H43.95A12,12,0,1,1,32,16Z" fill="#ffeaa7"/>
        </g>
        <g id="Grupo_1199250" data-name="Grupo 1199250">
          <path id="Trazado_1031013" data-name="Trazado 1031013" d="M57.45,45.89,61,53H58v9H54V53H51l3.55-7.11a1.626,1.626,0,0,1,2.9,0Z" fill="#ff826e"/>
        </g>
        <g id="Grupo_1199251" data-name="Grupo 1199251">
          <path id="Trazado_1031014" data-name="Trazado 1031014" d="M9.45,45.89,13,53H10v9H6V53H3l3.55-7.11a1.626,1.626,0,0,1,2.9,0Z" fill="#ff826e"/>
        </g>
        <g id="Grupo_1199252" data-name="Grupo 1199252">
          <path id="Trazado_1031015" data-name="Trazado 1031015" d="M40,54h8a7.989,7.989,0,0,1-8,8H32a7.989,7.989,0,0,1,8-8Z" fill="#e6f8ce"/>
        </g>
        <g id="Grupo_1199253" data-name="Grupo 1199253">
          <path id="Trazado_1031016" data-name="Trazado 1031016" d="M32,62H24a7.989,7.989,0,0,1-8-8h8a7.989,7.989,0,0,1,8,8Z" fill="#e6f8ce"/>
        </g>
      </g>
      <g id="Grupo_1199255" data-name="Grupo 1199255">
        <path id="Trazado_1031017" data-name="Trazado 1031017" d="M59,61V54h3.618l-4.276-8.553a2.619,2.619,0,0,0-4.684,0L49.382,54H53v7H45.644A8.983,8.983,0,0,0,49,54V53H40a8.983,8.983,0,0,0-7,3.356V51h2.781l.62-2.479a20.722,20.722,0,0,0,7-2.9l2.187,1.312,5.347-5.347L49.626,39.4a20.715,20.715,0,0,0,2.9-7L55,31.78V28H33V5H28.219L27.6,7.479a20.722,20.722,0,0,0-7,2.9L18.41,9.063l-5.347,5.346L14.375,16.6a20.715,20.715,0,0,0-2.9,7L9,24.22v7.561l2.48.621a20.715,20.715,0,0,0,2.9,7l-1.312,2.187,5.347,5.347L20.6,45.626a20.742,20.742,0,0,0,7,2.9L28.219,51H31v5.356A8.983,8.983,0,0,0,24,53H15v1a8.983,8.983,0,0,0,3.356,7H11V54h3.618l-4.276-8.553a2.619,2.619,0,0,0-4.684,0L1.382,54H5v7H1v2H63V61ZM31,15.051a12.926,12.926,0,0,0-7.447,3.088L22.14,16.725A14.918,14.918,0,0,1,31,13.051ZM20.725,18.139l1.414,1.414A12.926,12.926,0,0,0,19.051,27h-2A14.913,14.913,0,0,1,20.725,18.139ZM19.051,29a12.932,12.932,0,0,0,3.088,7.448l-1.414,1.414A14.919,14.919,0,0,1,17.051,29Zm4.5,8.862A12.929,12.929,0,0,0,31,40.949v2a14.911,14.911,0,0,1-8.861-3.675ZM33,40.951a12.957,12.957,0,0,0,7.43-3.109l1.425,1.425A14.907,14.907,0,0,1,33,42.951ZM43.275,37.86l-1.43-1.43A12.908,12.908,0,0,0,44.825,30h2.008A14.917,14.917,0,0,1,43.275,37.86ZM42.807,30A11,11,0,1,1,31,17.051v7.134A2.943,2.943,0,0,0,30,24V22H28v2a3,3,0,1,0,0,6h2a1,1,0,0,1,0,2H28a1,1,0,0,1-1-1H25a3,3,0,0,0,3,3v2h2V34a3,3,0,0,0,3-3,2.966,2.966,0,0,0-.184-1ZM31,28.184A2.966,2.966,0,0,0,30,28H28a1,1,0,0,1,0-2h2a1,1,0,0,1,1,1ZM29.229,46.793l-.635-.115a18.769,18.769,0,0,1-7.4-3.059l-.531-.367L18.72,44.419l-3.139-3.14,1.167-1.944-.368-.53a18.79,18.79,0,0,1-3.059-7.4l-.115-.635L11,30.22V25.78l2.207-.552.115-.635a18.763,18.763,0,0,1,3.059-7.4l.368-.53L15.582,14.72l3.139-3.139,1.945,1.167.531-.367a18.784,18.784,0,0,1,7.4-3.059l.635-.115L29.781,7H31v4.051A16.988,16.988,0,1,0,48.844,30H53v.22l-2.207.552-.115.635a18.763,18.763,0,0,1-3.059,7.4l-.368.53,1.167,1.944-3.139,3.14-1.945-1.167-.531.367a18.784,18.784,0,0,1-7.4,3.059l-.635.115L34.219,49H29.781ZM4.618,52l2.829-5.658a.64.64,0,0,1,1.105,0L11.382,52H9v9H7V52ZM24,61a7.011,7.011,0,0,1-6.929-6H24a7.011,7.011,0,0,1,6.929,6Zm9.071,0A7.011,7.011,0,0,1,40,55h6.929A7.011,7.011,0,0,1,40,61Zm19.547-9,2.829-5.658a.64.64,0,0,1,1.1,0L59.382,52H57v9H55V52Z"/>
        <path id="Trazado_1031018" data-name="Trazado 1031018" d="M53.89,26H60V20.22L57.52,19.6a20.715,20.715,0,0,0-2.9-7l1.312-2.188L50.59,5.063,48.4,6.375a20.742,20.742,0,0,0-7-2.9L40.781,1H35V26H53.89ZM50,24a12.932,12.932,0,0,0-3.138-8.447l1.414-1.414A14.925,14.925,0,0,1,52,24ZM37,9a14.921,14.921,0,0,1,9.861,3.725l-1.414,1.414A12.927,12.927,0,0,0,37,11Zm0-6h2.219l.552,2.207.635.115a18.769,18.769,0,0,1,7.4,3.059l.531.367L50.28,7.581l3.139,3.139-1.167,1.945.368.53a18.79,18.79,0,0,1,3.059,7.4l.115.635L58,21.78V24H54A17.019,17.019,0,0,0,37,7Zm0,21V13A11.013,11.013,0,0,1,48,24Z"/>
      </g>
    </g>
  </g>
</svg>
