<svg xmlns="http://www.w3.org/2000/svg" xmlns:xlink="http://www.w3.org/1999/xlink" width="272" height="293.992" viewBox="0 0 272 293.992">
  <defs>
    <clipPath id="clip-path">
      <rect id="Rectángulo_410872" data-name="Rectángulo 410872" width="272" height="257.984" rx="8" transform="translate(205.07 536.254)" fill="#eaf4ff" opacity="0.65"/>
    </clipPath>
    <clipPath id="clip-path-2">
      <rect id="Rectángulo_410871" data-name="Rectángulo 410871" width="283.854" height="612.283" fill="none"/>
    </clipPath>
    <clipPath id="clip-path-3">
      <rect id="Rectángulo_410852" data-name="Rectángulo 410852" width="20.933" height="15.83" transform="translate(0 0)" fill="none"/>
    </clipPath>
    <clipPath id="clip-path-22">
      <rect id="Rectángulo_410847" data-name="Rectángulo 410847" width="272" height="293.992" rx="8" transform="translate(230.179 3298.457)" fill="#eaf4ff"/>
    </clipPath>
    <clipPath id="clip-path-23">
      <rect id="Rectángulo_410849" data-name="Rectángulo 410849" width="219.357" height="290.671" fill="none"/>
    </clipPath>
  </defs>
  <g id="Grupo_1199348" data-name="Grupo 1199348" transform="translate(-230.179 -3298.457)">
    <g id="Enmascarar_grupo_1098827" data-name="Enmascarar grupo 1098827" transform="translate(25.108 2763.357)" clip-path="url(#clip-path)">
      <g id="Grupo_1199347" data-name="Grupo 1199347" transform="translate(205.07 337.105)">
        <rect id="Rectángulo_410850" data-name="Rectángulo 410850" width="283.855" height="612.284" transform="translate(0 -0.001)" fill="#e2f7f2"/>
        <rect id="Rectángulo_410851" data-name="Rectángulo 410851" width="2.404" height="31.711" transform="translate(44.175 360.658)" fill="#872a21"/>
        <g id="Grupo_1199346" data-name="Grupo 1199346">
          <g id="Grupo_1199345" data-name="Grupo 1199345" clip-path="url(#clip-path-2)">
            <path id="Trazado_1031116" data-name="Trazado 1031116" d="M48.156,304.65c-1.189-2.787-4.367-2.787-5.556,0-4.755,11.145-13.944,34.4-13.937,47.6,0,4.407,4.708,7.951,9.126,10.308a15.817,15.817,0,0,0,15.178,0c4.417-2.357,9.123-5.9,9.126-10.308.007-13.2-9.182-36.454-13.937-47.6" fill="#569171"/>
            <path id="Trazado_1031117" data-name="Trazado 1031117" d="M48.27,360.278c-4.658-1.834-9.74-4.815-10.248-9.193-1.5-12.927,4.753-36.568,8.23-48.368A2.924,2.924,0,0,0,42.6,304.65c-4.755,11.145-13.944,34.4-13.937,47.6,0,4.406,4.708,7.951,9.126,10.307a15.817,15.817,0,0,0,15.178,0c.663-.353,1.332-.734,1.991-1.14a16.2,16.2,0,0,1-6.688-1.139" fill="#3a6d50"/>
            <path id="Trazado_1031118" data-name="Trazado 1031118" d="M0,353.284s132.937-5.468,283.465,89.377V612.283H0Z" fill="#7dbb77"/>
            <path id="Trazado_1031119" data-name="Trazado 1031119" d="M0,480.377c119.305,7.719,242.235,62.848,283.465,82.892V507.363C186.666,426.263.008,401.7,0,401.7Z" fill="#569171"/>
            <path id="Trazado_1031120" data-name="Trazado 1031120" d="M256.965,273.292H130.505s.478-5.977,10.518-5.5c.478-9.8,14.344-15.778,23.428-7.889-6.694-16.495-2.63-28.687,8.845-29.882s19.124,10.757,21.276,18.168c6.932-7.411,8.366-1.195,8.6,0,10.519-11.474,24.623-7.649,28.926-3.107s3.347,15.3,3.347,15.3,15.06-6.454,18.407.478-2.629,9.323-2.629,9.323,5.02-.956,5.737,3.108" transform="translate(1 -3)" fill="#fff"/>
            <g id="Grupo_1199311" data-name="Grupo 1199311" transform="translate(15.47 457.461)">
              <g id="Grupo_1199310" data-name="Grupo 1199310" clip-path="url(#clip-path-3)">
                <path id="Trazado_1031121" data-name="Trazado 1031121" d="M10.123,15.783c-.027.007-.106.02-.212.046H7.528c-.318-1.048-1.035-3.57-1.6-6.291C5.053,5.324,4.548.619,6.46.048,8.471-.556,9.439,4.6,9.871,9.173a44.237,44.237,0,0,1,.252,6.61" fill="#607a17"/>
                <path id="Trazado_1031122" data-name="Trazado 1031122" d="M10.253,15.83H8.786a73.531,73.531,0,0,1,3.75-6.67c0-.006.007-.013.007-.02,2.3-3.6,5.2-7.2,7.512-7.074,4.1.226-7.373,11.435-9.8,13.764" fill="#607a17"/>
                <path id="Trazado_1031123" data-name="Trazado 1031123" d="M8.5,15.83H5.524C3.706,13.494-1.842,5.935.62,4.037c1.52-1.168,3.637,2.084,5.309,5.5C6.8,11.324,7.542,13.156,8.02,14.43c.232.63.4,1.121.484,1.4" fill="#89b62e"/>
                <path id="Trazado_1031124" data-name="Trazado 1031124" d="M12.5,11.047c0,.005,0,.009,0,.014-.768,2.164-1.646,4.109-1.944,4.769H7.45c.029-.195.081-.541.158-1,.157-.916.407-2.287.753-3.758.859-3.6,2.3-7.829,4.347-7.649,2,.18,1.027,4.171-.206,7.625" fill="#89b62e"/>
              </g>
            </g>
            <g id="Grupo_1199313" data-name="Grupo 1199313" transform="translate(28.663 383.461)">
              <g id="Grupo_1199312" data-name="Grupo 1199312" clip-path="url(#clip-path-3)">
                <path id="Trazado_1031125" data-name="Trazado 1031125" d="M10.123,15.783c-.027.007-.106.02-.212.046H7.528c-.318-1.048-1.035-3.57-1.6-6.291C5.053,5.324,4.548.619,6.46.048,8.471-.556,9.439,4.6,9.871,9.173a44.237,44.237,0,0,1,.252,6.61" fill="#607a17"/>
                <path id="Trazado_1031126" data-name="Trazado 1031126" d="M10.253,15.83H8.786a73.531,73.531,0,0,1,3.75-6.67c0-.006.007-.013.007-.02,2.3-3.6,5.2-7.2,7.512-7.074,4.1.226-7.373,11.435-9.8,13.764" fill="#607a17"/>
                <path id="Trazado_1031127" data-name="Trazado 1031127" d="M8.5,15.83H5.524C3.706,13.494-1.842,5.935.62,4.037c1.52-1.168,3.637,2.084,5.309,5.5C6.8,11.324,7.542,13.156,8.02,14.43c.232.63.4,1.121.484,1.4" fill="#89b62e"/>
                <path id="Trazado_1031128" data-name="Trazado 1031128" d="M12.5,11.047c0,.005,0,.009,0,.014-.768,2.164-1.646,4.109-1.944,4.769H7.45c.029-.195.081-.541.158-1,.157-.916.407-2.287.753-3.758.859-3.6,2.3-7.829,4.347-7.649,2,.18,1.027,4.171-.206,7.625" fill="#89b62e"/>
              </g>
            </g>
            <g id="Grupo_1199315" data-name="Grupo 1199315" transform="translate(24.445 421.461)">
              <g id="Grupo_1199314" data-name="Grupo 1199314" clip-path="url(#clip-path-3)">
                <path id="Trazado_1031129" data-name="Trazado 1031129" d="M10.123,15.783c-.027.007-.106.02-.212.046H7.528c-.318-1.048-1.035-3.57-1.6-6.291C5.053,5.324,4.548.619,6.46.048,8.471-.556,9.439,4.6,9.871,9.173a44.237,44.237,0,0,1,.252,6.61" fill="#607a17"/>
                <path id="Trazado_1031130" data-name="Trazado 1031130" d="M10.253,15.83H8.786a73.531,73.531,0,0,1,3.75-6.67c0-.006.007-.013.007-.02,2.3-3.6,5.2-7.2,7.512-7.074,4.1.226-7.373,11.435-9.8,13.764" fill="#607a17"/>
                <path id="Trazado_1031131" data-name="Trazado 1031131" d="M8.5,15.83H5.524C3.706,13.494-1.842,5.935.62,4.037c1.52-1.168,3.637,2.084,5.309,5.5C6.8,11.324,7.542,13.156,8.02,14.43c.232.63.4,1.121.484,1.4" fill="#89b62e"/>
                <path id="Trazado_1031132" data-name="Trazado 1031132" d="M12.5,11.047c0,.005,0,.009,0,.014-.768,2.164-1.646,4.109-1.944,4.769H7.45c.029-.195.081-.541.158-1,.157-.916.407-2.287.753-3.758.859-3.6,2.3-7.829,4.347-7.649,2,.18,1.027,4.171-.206,7.625" fill="#89b62e"/>
              </g>
            </g>
            <g id="Grupo_1199317" data-name="Grupo 1199317" transform="translate(37.638 347.461)">
              <g id="Grupo_1199316" data-name="Grupo 1199316" clip-path="url(#clip-path-3)">
                <path id="Trazado_1031133" data-name="Trazado 1031133" d="M10.123,15.783c-.027.007-.106.02-.212.046H7.528c-.318-1.048-1.035-3.57-1.6-6.291C5.053,5.324,4.548.619,6.46.048,8.471-.556,9.439,4.6,9.871,9.173a44.237,44.237,0,0,1,.252,6.61" fill="#607a17"/>
                <path id="Trazado_1031134" data-name="Trazado 1031134" d="M10.253,15.83H8.786a73.531,73.531,0,0,1,3.75-6.67c0-.006.007-.013.007-.02,2.3-3.6,5.2-7.2,7.512-7.074,4.1.226-7.373,11.435-9.8,13.764" fill="#607a17"/>
                <path id="Trazado_1031135" data-name="Trazado 1031135" d="M8.5,15.83H5.524C3.706,13.494-1.842,5.935.62,4.037c1.52-1.168,3.637,2.084,5.309,5.5C6.8,11.324,7.542,13.156,8.02,14.43c.232.63.4,1.121.484,1.4" fill="#89b62e"/>
                <path id="Trazado_1031136" data-name="Trazado 1031136" d="M12.5,11.047c0,.005,0,.009,0,.014-.768,2.164-1.646,4.109-1.944,4.769H7.45c.029-.195.081-.541.158-1,.157-.916.407-2.287.753-3.758.859-3.6,2.3-7.829,4.347-7.649,2,.18,1.027,4.171-.206,7.625" fill="#89b62e"/>
              </g>
            </g>
            <g id="Grupo_1199319" data-name="Grupo 1199319" transform="translate(54.958 426.461)">
              <g id="Grupo_1199318" data-name="Grupo 1199318" clip-path="url(#clip-path-3)">
                <path id="Trazado_1031137" data-name="Trazado 1031137" d="M10.123,15.783c-.027.007-.106.02-.212.046H7.528c-.318-1.048-1.035-3.57-1.6-6.291C5.053,5.324,4.548.619,6.46.048,8.471-.556,9.439,4.6,9.871,9.173a44.237,44.237,0,0,1,.252,6.61" fill="#607a17"/>
                <path id="Trazado_1031138" data-name="Trazado 1031138" d="M10.253,15.83H8.786a73.531,73.531,0,0,1,3.75-6.67c0-.006.007-.013.007-.02,2.3-3.6,5.2-7.2,7.512-7.074,4.1.226-7.373,11.435-9.8,13.764" fill="#607a17"/>
                <path id="Trazado_1031139" data-name="Trazado 1031139" d="M8.5,15.83H5.524C3.706,13.494-1.842,5.935.62,4.037c1.52-1.168,3.637,2.084,5.309,5.5C6.8,11.324,7.542,13.156,8.02,14.43c.232.63.4,1.121.484,1.4" fill="#89b62e"/>
                <path id="Trazado_1031140" data-name="Trazado 1031140" d="M12.5,11.047c0,.005,0,.009,0,.014-.768,2.164-1.646,4.109-1.944,4.769H7.45c.029-.195.081-.541.158-1,.157-.916.407-2.287.753-3.758.859-3.6,2.3-7.829,4.347-7.649,2,.18,1.027,4.171-.206,7.625" fill="#89b62e"/>
              </g>
            </g>
            <g id="Grupo_1199321" data-name="Grupo 1199321" transform="translate(68.151 352.461)">
              <g id="Grupo_1199320" data-name="Grupo 1199320" clip-path="url(#clip-path-3)">
                <path id="Trazado_1031141" data-name="Trazado 1031141" d="M10.123,15.783c-.027.007-.106.02-.212.046H7.528c-.318-1.048-1.035-3.57-1.6-6.291C5.053,5.324,4.548.619,6.46.048,8.471-.556,9.439,4.6,9.871,9.173a44.237,44.237,0,0,1,.252,6.61" fill="#607a17"/>
                <path id="Trazado_1031142" data-name="Trazado 1031142" d="M10.253,15.83H8.786a73.531,73.531,0,0,1,3.75-6.67c0-.006.007-.013.007-.02,2.3-3.6,5.2-7.2,7.512-7.074,4.1.226-7.373,11.435-9.8,13.764" fill="#607a17"/>
                <path id="Trazado_1031143" data-name="Trazado 1031143" d="M8.5,15.83H5.524C3.706,13.494-1.842,5.935.62,4.037c1.52-1.168,3.637,2.084,5.309,5.5C6.8,11.324,7.542,13.156,8.02,14.43c.232.63.4,1.121.484,1.4" fill="#89b62e"/>
                <path id="Trazado_1031144" data-name="Trazado 1031144" d="M12.5,11.047c0,.005,0,.009,0,.014-.768,2.164-1.646,4.109-1.944,4.769H7.45c.029-.195.081-.541.158-1,.157-.916.407-2.287.753-3.758.859-3.6,2.3-7.829,4.347-7.649,2,.18,1.027,4.171-.206,7.625" fill="#89b62e"/>
              </g>
            </g>
            <g id="Grupo_1199323" data-name="Grupo 1199323" transform="translate(48.958 459.461)">
              <g id="Grupo_1199322" data-name="Grupo 1199322" clip-path="url(#clip-path-3)">
                <path id="Trazado_1031145" data-name="Trazado 1031145" d="M10.123,15.783c-.027.007-.106.02-.212.046H7.528c-.318-1.048-1.035-3.57-1.6-6.291C5.053,5.324,4.548.619,6.46.048,8.471-.556,9.439,4.6,9.871,9.173a44.237,44.237,0,0,1,.252,6.61" fill="#607a17"/>
                <path id="Trazado_1031146" data-name="Trazado 1031146" d="M10.253,15.83H8.786a73.531,73.531,0,0,1,3.75-6.67c0-.006.007-.013.007-.02,2.3-3.6,5.2-7.2,7.512-7.074,4.1.226-7.373,11.435-9.8,13.764" fill="#607a17"/>
                <path id="Trazado_1031147" data-name="Trazado 1031147" d="M8.5,15.83H5.524C3.706,13.494-1.842,5.935.62,4.037c1.52-1.168,3.637,2.084,5.309,5.5C6.8,11.324,7.542,13.156,8.02,14.43c.232.63.4,1.121.484,1.4" fill="#89b62e"/>
                <path id="Trazado_1031148" data-name="Trazado 1031148" d="M12.5,11.047c0,.005,0,.009,0,.014-.768,2.164-1.646,4.109-1.944,4.769H7.45c.029-.195.081-.541.158-1,.157-.916.407-2.287.753-3.758.859-3.6,2.3-7.829,4.347-7.649,2,.18,1.027,4.171-.206,7.625" fill="#89b62e"/>
              </g>
            </g>
            <g id="Grupo_1199325" data-name="Grupo 1199325" transform="translate(62.151 385.461)">
              <g id="Grupo_1199324" data-name="Grupo 1199324" clip-path="url(#clip-path-3)">
                <path id="Trazado_1031149" data-name="Trazado 1031149" d="M10.123,15.783c-.027.007-.106.02-.212.046H7.528c-.318-1.048-1.035-3.57-1.6-6.291C5.053,5.324,4.548.619,6.46.048,8.471-.556,9.439,4.6,9.871,9.173a44.237,44.237,0,0,1,.252,6.61" fill="#607a17"/>
                <path id="Trazado_1031150" data-name="Trazado 1031150" d="M10.253,15.83H8.786a73.531,73.531,0,0,1,3.75-6.67c0-.006.007-.013.007-.02,2.3-3.6,5.2-7.2,7.512-7.074,4.1.226-7.373,11.435-9.8,13.764" fill="#607a17"/>
                <path id="Trazado_1031151" data-name="Trazado 1031151" d="M8.5,15.83H5.524C3.706,13.494-1.842,5.935.62,4.037c1.52-1.168,3.637,2.084,5.309,5.5C6.8,11.324,7.542,13.156,8.02,14.43c.232.63.4,1.121.484,1.4" fill="#89b62e"/>
                <path id="Trazado_1031152" data-name="Trazado 1031152" d="M12.5,11.047c0,.005,0,.009,0,.014-.768,2.164-1.646,4.109-1.944,4.769H7.45c.029-.195.081-.541.158-1,.157-.916.407-2.287.753-3.758.859-3.6,2.3-7.829,4.347-7.649,2,.18,1.027,4.171-.206,7.625" fill="#89b62e"/>
              </g>
            </g>
            <g id="Grupo_1199327" data-name="Grupo 1199327" transform="translate(91.958 437.291)">
              <g id="Grupo_1199326" data-name="Grupo 1199326" clip-path="url(#clip-path-3)">
                <path id="Trazado_1031153" data-name="Trazado 1031153" d="M10.123,15.783c-.027.007-.106.02-.212.046H7.528c-.318-1.048-1.035-3.57-1.6-6.291C5.053,5.324,4.548.619,6.46.048,8.471-.556,9.439,4.6,9.871,9.173a44.237,44.237,0,0,1,.252,6.61" fill="#607a17"/>
                <path id="Trazado_1031154" data-name="Trazado 1031154" d="M10.253,15.83H8.786a73.531,73.531,0,0,1,3.75-6.67c0-.006.007-.013.007-.02,2.3-3.6,5.2-7.2,7.512-7.074,4.1.226-7.373,11.435-9.8,13.764" fill="#607a17"/>
                <path id="Trazado_1031155" data-name="Trazado 1031155" d="M8.5,15.83H5.524C3.706,13.494-1.842,5.935.62,4.037c1.52-1.168,3.637,2.084,5.309,5.5C6.8,11.324,7.542,13.156,8.02,14.43c.232.63.4,1.121.484,1.4" fill="#89b62e"/>
                <path id="Trazado_1031156" data-name="Trazado 1031156" d="M12.5,11.047c0,.005,0,.009,0,.014-.768,2.164-1.646,4.109-1.944,4.769H7.45c.029-.195.081-.541.158-1,.157-.916.407-2.287.753-3.758.859-3.6,2.3-7.829,4.347-7.649,2,.18,1.027,4.171-.206,7.625" fill="#89b62e"/>
              </g>
            </g>
            <g id="Grupo_1199329" data-name="Grupo 1199329" transform="translate(105.151 363.291)">
              <g id="Grupo_1199328" data-name="Grupo 1199328" clip-path="url(#clip-path-3)">
                <path id="Trazado_1031157" data-name="Trazado 1031157" d="M10.123,15.783c-.027.007-.106.02-.212.046H7.528c-.318-1.048-1.035-3.57-1.6-6.291C5.053,5.324,4.548.619,6.46.048,8.471-.556,9.439,4.6,9.871,9.173a44.237,44.237,0,0,1,.252,6.61" fill="#607a17"/>
                <path id="Trazado_1031158" data-name="Trazado 1031158" d="M10.253,15.83H8.786a73.531,73.531,0,0,1,3.75-6.67c0-.006.007-.013.007-.02,2.3-3.6,5.2-7.2,7.512-7.074,4.1.226-7.373,11.435-9.8,13.764" fill="#607a17"/>
                <path id="Trazado_1031159" data-name="Trazado 1031159" d="M8.5,15.83H5.524C3.706,13.494-1.842,5.935.62,4.037c1.52-1.168,3.637,2.084,5.309,5.5C6.8,11.324,7.542,13.156,8.02,14.43c.232.63.4,1.121.484,1.4" fill="#89b62e"/>
                <path id="Trazado_1031160" data-name="Trazado 1031160" d="M12.5,11.047c0,.005,0,.009,0,.014-.768,2.164-1.646,4.109-1.944,4.769H7.45c.029-.195.081-.541.158-1,.157-.916.407-2.287.753-3.758.859-3.6,2.3-7.829,4.347-7.649,2,.18,1.027,4.171-.206,7.625" fill="#89b62e"/>
              </g>
            </g>
            <g id="Grupo_1199331" data-name="Grupo 1199331" transform="translate(85.958 465.376)">
              <g id="Grupo_1199330" data-name="Grupo 1199330" clip-path="url(#clip-path-3)">
                <path id="Trazado_1031161" data-name="Trazado 1031161" d="M10.123,15.783c-.027.007-.106.02-.212.046H7.528c-.318-1.048-1.035-3.57-1.6-6.291C5.053,5.324,4.548.619,6.46.048,8.471-.556,9.439,4.6,9.871,9.173a44.237,44.237,0,0,1,.252,6.61" fill="#607a17"/>
                <path id="Trazado_1031162" data-name="Trazado 1031162" d="M10.253,15.83H8.786a73.531,73.531,0,0,1,3.75-6.67c0-.006.007-.013.007-.02,2.3-3.6,5.2-7.2,7.512-7.074,4.1.226-7.373,11.435-9.8,13.764" fill="#607a17"/>
                <path id="Trazado_1031163" data-name="Trazado 1031163" d="M8.5,15.83H5.524C3.706,13.494-1.842,5.935.62,4.037c1.52-1.168,3.637,2.084,5.309,5.5C6.8,11.324,7.542,13.156,8.02,14.43c.232.63.4,1.121.484,1.4" fill="#89b62e"/>
                <path id="Trazado_1031164" data-name="Trazado 1031164" d="M12.5,11.047c0,.005,0,.009,0,.014-.768,2.164-1.646,4.109-1.944,4.769H7.45c.029-.195.081-.541.158-1,.157-.916.407-2.287.753-3.758.859-3.6,2.3-7.829,4.347-7.649,2,.18,1.027,4.171-.206,7.625" fill="#89b62e"/>
              </g>
            </g>
            <g id="Grupo_1199333" data-name="Grupo 1199333" transform="translate(99.151 391.376)">
              <g id="Grupo_1199332" data-name="Grupo 1199332" clip-path="url(#clip-path-3)">
                <path id="Trazado_1031165" data-name="Trazado 1031165" d="M10.123,15.783c-.027.007-.106.02-.212.046H7.528c-.318-1.048-1.035-3.57-1.6-6.291C5.053,5.324,4.548.619,6.46.048,8.471-.556,9.439,4.6,9.871,9.173a44.237,44.237,0,0,1,.252,6.61" fill="#607a17"/>
                <path id="Trazado_1031166" data-name="Trazado 1031166" d="M10.253,15.83H8.786a73.531,73.531,0,0,1,3.75-6.67c0-.006.007-.013.007-.02,2.3-3.6,5.2-7.2,7.512-7.074,4.1.226-7.373,11.435-9.8,13.764" fill="#607a17"/>
                <path id="Trazado_1031167" data-name="Trazado 1031167" d="M8.5,15.83H5.524C3.706,13.494-1.842,5.935.62,4.037c1.52-1.168,3.637,2.084,5.309,5.5C6.8,11.324,7.542,13.156,8.02,14.43c.232.63.4,1.121.484,1.4" fill="#89b62e"/>
                <path id="Trazado_1031168" data-name="Trazado 1031168" d="M12.5,11.047c0,.005,0,.009,0,.014-.768,2.164-1.646,4.109-1.944,4.769H7.45c.029-.195.081-.541.158-1,.157-.916.407-2.287.753-3.758.859-3.6,2.3-7.829,4.347-7.649,2,.18,1.027,4.171-.206,7.625" fill="#89b62e"/>
              </g>
            </g>
            <g id="Grupo_1199335" data-name="Grupo 1199335" transform="translate(127.958 445.206)">
              <g id="Grupo_1199334" data-name="Grupo 1199334" clip-path="url(#clip-path-3)">
                <path id="Trazado_1031169" data-name="Trazado 1031169" d="M10.123,15.783c-.027.007-.106.02-.212.046H7.528c-.318-1.048-1.035-3.57-1.6-6.291C5.053,5.324,4.548.619,6.46.048,8.471-.556,9.439,4.6,9.871,9.173a44.237,44.237,0,0,1,.252,6.61" fill="#607a17"/>
                <path id="Trazado_1031170" data-name="Trazado 1031170" d="M10.253,15.83H8.786a73.531,73.531,0,0,1,3.75-6.67c0-.006.007-.013.007-.02,2.3-3.6,5.2-7.2,7.512-7.074,4.1.226-7.373,11.435-9.8,13.764" fill="#607a17"/>
                <path id="Trazado_1031171" data-name="Trazado 1031171" d="M8.5,15.83H5.524C3.706,13.494-1.842,5.935.62,4.037c1.52-1.168,3.637,2.084,5.309,5.5C6.8,11.324,7.542,13.156,8.02,14.43c.232.63.4,1.121.484,1.4" fill="#89b62e"/>
                <path id="Trazado_1031172" data-name="Trazado 1031172" d="M12.5,11.047c0,.005,0,.009,0,.014-.768,2.164-1.646,4.109-1.944,4.769H7.45c.029-.195.081-.541.158-1,.157-.916.407-2.287.753-3.758.859-3.6,2.3-7.829,4.347-7.649,2,.18,1.027,4.171-.206,7.625" fill="#89b62e"/>
              </g>
            </g>
            <g id="Grupo_1199337" data-name="Grupo 1199337" transform="translate(141.151 371.206)">
              <g id="Grupo_1199336" data-name="Grupo 1199336" clip-path="url(#clip-path-3)">
                <path id="Trazado_1031173" data-name="Trazado 1031173" d="M10.123,15.783c-.027.007-.106.02-.212.046H7.528c-.318-1.048-1.035-3.57-1.6-6.291C5.053,5.324,4.548.619,6.46.048,8.471-.556,9.439,4.6,9.871,9.173a44.237,44.237,0,0,1,.252,6.61" fill="#607a17"/>
                <path id="Trazado_1031174" data-name="Trazado 1031174" d="M10.253,15.83H8.786a73.531,73.531,0,0,1,3.75-6.67c0-.006.007-.013.007-.02,2.3-3.6,5.2-7.2,7.512-7.074,4.1.226-7.373,11.435-9.8,13.764" fill="#607a17"/>
                <path id="Trazado_1031175" data-name="Trazado 1031175" d="M8.5,15.83H5.524C3.706,13.494-1.842,5.935.62,4.037c1.52-1.168,3.637,2.084,5.309,5.5C6.8,11.324,7.542,13.156,8.02,14.43c.232.63.4,1.121.484,1.4" fill="#89b62e"/>
                <path id="Trazado_1031176" data-name="Trazado 1031176" d="M12.5,11.047c0,.005,0,.009,0,.014-.768,2.164-1.646,4.109-1.944,4.769H7.45c.029-.195.081-.541.158-1,.157-.916.407-2.287.753-3.758.859-3.6,2.3-7.829,4.347-7.649,2,.18,1.027,4.171-.206,7.625" fill="#89b62e"/>
              </g>
            </g>
            <g id="Grupo_1199342" data-name="Grupo 1199342" transform="translate(120.8 474.568)">
              <g id="Grupo_1199338" data-name="Grupo 1199338" clip-path="url(#clip-path-3)">
                <path id="Trazado_1031177" data-name="Trazado 1031177" d="M10.123,15.783c-.027.007-.106.02-.212.046H7.528c-.318-1.048-1.035-3.57-1.6-6.291C5.053,5.324,4.548.619,6.46.048,8.471-.556,9.439,4.6,9.871,9.173a44.237,44.237,0,0,1,.252,6.61" fill="#607a17"/>
                <path id="Trazado_1031178" data-name="Trazado 1031178" d="M10.253,15.83H8.786a73.531,73.531,0,0,1,3.75-6.67c0-.006.007-.013.007-.02,2.3-3.6,5.2-7.2,7.512-7.074,4.1.226-7.373,11.435-9.8,13.764" fill="#607a17"/>
                <path id="Trazado_1031179" data-name="Trazado 1031179" d="M8.5,15.83H5.524C3.706,13.494-1.842,5.935.62,4.037c1.52-1.168,3.637,2.084,5.309,5.5C6.8,11.324,7.542,13.156,8.02,14.43c.232.63.4,1.121.484,1.4" fill="#89b62e"/>
                <path id="Trazado_1031180" data-name="Trazado 1031180" d="M12.5,11.047c0,.005,0,.009,0,.014-.768,2.164-1.646,4.109-1.944,4.769H7.45c.029-.195.081-.541.158-1,.157-.916.407-2.287.753-3.758.859-3.6,2.3-7.829,4.347-7.649,2,.18,1.027,4.171-.206,7.625" fill="#89b62e"/>
              </g>
              <g id="Grupo_1199339" data-name="Grupo 1199339" transform="translate(-27 28)" clip-path="url(#clip-path-3)">
                <path id="Trazado_1031181" data-name="Trazado 1031181" d="M10.123,15.783c-.027.007-.106.02-.212.046H7.528c-.318-1.048-1.035-3.57-1.6-6.291C5.053,5.324,4.548.619,6.46.048,8.471-.556,9.439,4.6,9.871,9.173a44.237,44.237,0,0,1,.252,6.61" fill="#607a17"/>
                <path id="Trazado_1031182" data-name="Trazado 1031182" d="M10.253,15.83H8.786a73.531,73.531,0,0,1,3.75-6.67c0-.006.007-.013.007-.02,2.3-3.6,5.2-7.2,7.512-7.074,4.1.226-7.373,11.435-9.8,13.764" fill="#607a17"/>
                <path id="Trazado_1031183" data-name="Trazado 1031183" d="M8.5,15.83H5.524C3.706,13.494-1.842,5.935.62,4.037c1.52-1.168,3.637,2.084,5.309,5.5C6.8,11.324,7.542,13.156,8.02,14.43c.232.63.4,1.121.484,1.4" fill="#89b62e"/>
                <path id="Trazado_1031184" data-name="Trazado 1031184" d="M12.5,11.047c0,.005,0,.009,0,.014-.768,2.164-1.646,4.109-1.944,4.769H7.45c.029-.195.081-.541.158-1,.157-.916.407-2.287.753-3.758.859-3.6,2.3-7.829,4.347-7.649,2,.18,1.027,4.171-.206,7.625" fill="#89b62e"/>
              </g>
              <g id="Grupo_1199340" data-name="Grupo 1199340" transform="translate(-84 15.83)" clip-path="url(#clip-path-3)">
                <path id="Trazado_1031185" data-name="Trazado 1031185" d="M10.123,15.783c-.027.007-.106.02-.212.046H7.528c-.318-1.048-1.035-3.57-1.6-6.291C5.053,5.324,4.548.619,6.46.048,8.471-.556,9.439,4.6,9.871,9.173a44.237,44.237,0,0,1,.252,6.61" fill="#607a17"/>
                <path id="Trazado_1031186" data-name="Trazado 1031186" d="M10.253,15.83H8.786a73.531,73.531,0,0,1,3.75-6.67c0-.006.007-.013.007-.02,2.3-3.6,5.2-7.2,7.512-7.074,4.1.226-7.373,11.435-9.8,13.764" fill="#607a17"/>
                <path id="Trazado_1031187" data-name="Trazado 1031187" d="M8.5,15.83H5.524C3.706,13.494-1.842,5.935.62,4.037c1.52-1.168,3.637,2.084,5.309,5.5C6.8,11.324,7.542,13.156,8.02,14.43c.232.63.4,1.121.484,1.4" fill="#89b62e"/>
                <path id="Trazado_1031188" data-name="Trazado 1031188" d="M12.5,11.047c0,.005,0,.009,0,.014-.768,2.164-1.646,4.109-1.944,4.769H7.45c.029-.195.081-.541.158-1,.157-.916.407-2.287.753-3.758.859-3.6,2.3-7.829,4.347-7.649,2,.18,1.027,4.171-.206,7.625" fill="#89b62e"/>
              </g>
              <g id="Grupo_1199341" data-name="Grupo 1199341" transform="translate(-118 13.83)" clip-path="url(#clip-path-3)">
                <path id="Trazado_1031189" data-name="Trazado 1031189" d="M10.123,15.783c-.027.007-.106.02-.212.046H7.528c-.318-1.048-1.035-3.57-1.6-6.291C5.053,5.324,4.548.619,6.46.048,8.471-.556,9.439,4.6,9.871,9.173a44.237,44.237,0,0,1,.252,6.61" fill="#607a17"/>
                <path id="Trazado_1031190" data-name="Trazado 1031190" d="M10.253,15.83H8.786a73.531,73.531,0,0,1,3.75-6.67c0-.006.007-.013.007-.02,2.3-3.6,5.2-7.2,7.512-7.074,4.1.226-7.373,11.435-9.8,13.764" fill="#607a17"/>
                <path id="Trazado_1031191" data-name="Trazado 1031191" d="M8.5,15.83H5.524C3.706,13.494-1.842,5.935.62,4.037c1.52-1.168,3.637,2.084,5.309,5.5C6.8,11.324,7.542,13.156,8.02,14.43c.232.63.4,1.121.484,1.4" fill="#89b62e"/>
                <path id="Trazado_1031192" data-name="Trazado 1031192" d="M12.5,11.047c0,.005,0,.009,0,.014-.768,2.164-1.646,4.109-1.944,4.769H7.45c.029-.195.081-.541.158-1,.157-.916.407-2.287.753-3.758.859-3.6,2.3-7.829,4.347-7.649,2,.18,1.027,4.171-.206,7.625" fill="#89b62e"/>
              </g>
            </g>
            <g id="Grupo_1199344" data-name="Grupo 1199344" transform="translate(133.993 400.568)">
              <g id="Grupo_1199343" data-name="Grupo 1199343" clip-path="url(#clip-path-3)">
                <path id="Trazado_1031193" data-name="Trazado 1031193" d="M10.123,15.783c-.027.007-.106.02-.212.046H7.528c-.318-1.048-1.035-3.57-1.6-6.291C5.053,5.324,4.548.619,6.46.048,8.471-.556,9.439,4.6,9.871,9.173a44.237,44.237,0,0,1,.252,6.61" fill="#607a17"/>
                <path id="Trazado_1031194" data-name="Trazado 1031194" d="M10.253,15.83H8.786a73.531,73.531,0,0,1,3.75-6.67c0-.006.007-.013.007-.02,2.3-3.6,5.2-7.2,7.512-7.074,4.1.226-7.373,11.435-9.8,13.764" fill="#607a17"/>
                <path id="Trazado_1031195" data-name="Trazado 1031195" d="M8.5,15.83H5.524C3.706,13.494-1.842,5.935.62,4.037c1.52-1.168,3.637,2.084,5.309,5.5C6.8,11.324,7.542,13.156,8.02,14.43c.232.63.4,1.121.484,1.4" fill="#89b62e"/>
                <path id="Trazado_1031196" data-name="Trazado 1031196" d="M12.5,11.047c0,.005,0,.009,0,.014-.768,2.164-1.646,4.109-1.944,4.769H7.45c.029-.195.081-.541.158-1,.157-.916.407-2.287.753-3.758.859-3.6,2.3-7.829,4.347-7.649,2,.18,1.027,4.171-.206,7.625" fill="#89b62e"/>
              </g>
            </g>
          </g>
        </g>
      </g>
    </g>
    <g id="Enmascarar_grupo_1098826" data-name="Enmascarar grupo 1098826" clip-path="url(#clip-path-22)">
      <g id="Grupo_1199309" data-name="Grupo 1199309" transform="translate(247.864 3301.782)">
        <g id="Grupo_1199308" data-name="Grupo 1199308" transform="translate(0 -0.004)" clip-path="url(#clip-path-23)">
          <path id="Trazado_1031065" data-name="Trazado 1031065" d="M343.544,47.269C328.934,49,317.726,54.164,316.126,62.45c-.014,0-4.449,28.718-4.449,28.718a10.321,10.321,0,0,1-8.2,6.014,10.322,10.322,0,0,0-9.037,11.464,19.789,19.789,0,0,0,9.8,14.839l12.517,7.18a40.309,40.309,0,0,0,24.8,5.065l10.783-1.276c18.426-2.181,22.048-34.31,20.775-45.057l-1.376-11.626c4.314-3.317,10.533-8.255,9.967-13.034-1.267-10.7-16.914-19.982-38.161-17.468" transform="translate(-218.757 -34.818)" fill="#130f40"/>
          <path id="Trazado_1031066" data-name="Trazado 1031066" d="M336.143,135.53a40.869,40.869,0,0,1-20.253-5.374l-12.517-7.18a20.129,20.129,0,0,1-9.932-15.031A10.592,10.592,0,0,1,302.7,96.2a10.116,10.116,0,0,0,7.981-5.833c.084-.545,1.148-7.434,2.214-14.324.555-3.589,1.111-7.179,1.529-9.872.209-1.347.383-2.468.506-3.254.11-.7.165-1.058.216-1.24l-.019,0c1.522-7.88,11.6-13.488,27.641-15.387l.03.255-.03-.255c9.931-1.176,19.419.175,26.718,3.8,6.81,3.385,11.084,8.448,11.729,13.889.594,5.018-5.949,10.1-9.95,13.178l1.359,11.482c.7,5.9-.111,16.674-3.011,25.848-2.6,8.23-7.834,18.292-17.989,19.494l-10.783,1.276a40.012,40.012,0,0,1-4.7.276M315.634,61.773c-.093.518-4.4,28.42-4.446,28.7a.249.249,0,0,1-.02.066,10.632,10.632,0,0,1-8.4,6.164,10.077,10.077,0,0,0-8.813,11.179,19.614,19.614,0,0,0,9.677,14.646l12.517,7.18a40.317,40.317,0,0,0,24.637,5.033l10.783-1.276c9.883-1.17,15-11.053,17.559-19.138,2.878-9.1,3.683-19.786,2.991-25.633L370.74,77.069a.256.256,0,0,1,.1-.234c3.9-3,10.434-8.023,9.869-12.8-.623-5.266-4.8-10.183-11.447-13.49-7.21-3.584-16.6-4.916-26.428-3.753-7.433.88-13.83,2.645-18.5,5.1-5.017,2.643-7.944,5.963-8.7,9.87v.006" transform="translate(-218.014 -34.086)" fill="#130f40"/>
          <path id="Trazado_1031067" data-name="Trazado 1031067" d="M634.661,367.2c-11.407,20.775-.025,61.546,12.953,105.236h35.9C674.144,438,658.155,376.884,634.661,367.2" transform="translate(-468.157 -272.885)" fill="#ff4f79"/>
          <path id="Trazado_1031068" data-name="Trazado 1031068" d="M682.831,471.956h-35.9a.257.257,0,0,1-.246-.184c-6.508-21.911-12.6-43.081-15.628-61.242-3.38-20.277-2.5-34.732,2.7-44.191a.258.258,0,0,1,.323-.114c22.942,9.452,38.746,67.637,48.189,102.4l.817,3a.257.257,0,0,1-.248.324m-35.711-.514H682.5l-.728-2.68c-9.389-34.566-25.082-92.345-47.677-101.973-10.768,19.983-.947,57.588,13.03,104.653" transform="translate(-467.472 -272.143)" fill="#130f40"/>
          <path id="Trazado_1031069" data-name="Trazado 1031069" d="M393.883,386.186c.24,22.878-1.578,45.661-3.1,68.6H310.81c8.778-36.637-14.53-60.266-6.776-106.3a150.163,150.163,0,0,1,87.217,0Z" transform="translate(-224.747 -254.162)" fill="#ff4f79"/>
          <path id="Trazado_1031070" data-name="Trazado 1031070" d="M310.03,454.3a.257.257,0,0,1-.25-.317c4.3-17.964.842-32.9-2.822-48.722-3.887-16.775-7.905-34.122-3.957-57.562a.257.257,0,0,1,.181-.2,150.425,150.425,0,0,1,87.363,0,.257.257,0,0,1-.146.493,150.884,150.884,0,0,0-86.917-.045c-3.886,23.259.111,40.514,3.978,57.2,3.657,15.785,7.112,30.7,2.9,48.641h79.412q.291-4.388.591-8.77c1.326-19.516,2.7-39.7,2.488-59.567a.257.257,0,1,1,.514-.005c.209,19.89-1.163,40.081-2.49,59.607q-.306,4.5-.606,9.009a.257.257,0,0,1-.256.24Z" transform="translate(-223.967 -253.42)" fill="#130f40"/>
          <path id="Trazado_1031071" data-name="Trazado 1031071" d="M473.273,255.175,453.355,245.8l1.524-31.46,16.789-1.987Z" transform="translate(-336.908 -157.81)" fill="#f3abc7"/>
          <path id="Trazado_1031072" data-name="Trazado 1031072" d="M472.531,254.689a.26.26,0,0,1-.109-.024L452.5,245.294a.257.257,0,0,1-.147-.245l1.524-31.46a.257.257,0,0,1,.227-.242l16.789-1.987a.257.257,0,0,1,.287.246l1.606,42.818a.257.257,0,0,1-.257.266M452.878,244.9l19.381,9.118L470.679,211.9l-16.3,1.929Z" transform="translate(-336.165 -157.068)" fill="#130f40"/>
          <path id="Trazado_1031073" data-name="Trazado 1031073" d="M442.093,138.519l-.44.052a5.3,5.3,0,0,1-5.721-4.164l-.329-1.642a4.433,4.433,0,0,1,3.826-5.294,1.591,1.591,0,0,1,1.747,1.268l.885,4.419a5.472,5.472,0,0,0,2.789-5.433l-.457-3.863c-.464-10.316,14.03-7.622,16.4-18.96a15.476,15.476,0,0,1,10.631,12.914l.57,4.817a69.237,69.237,0,0,1,.308,13.019,15.176,15.176,0,0,1-13.355,14Z" transform="translate(-323.645 -77.958)" fill="#f3abc7"/>
          <path id="Trazado_1031074" data-name="Trazado 1031074" d="M458.2,149.17a.257.257,0,0,1-.03-.512A14.936,14.936,0,0,0,471.3,134.893a69.161,69.161,0,0,0-.307-12.971l-.57-4.817a15.267,15.267,0,0,0-10.187-12.61c-1.275,5.517-5.481,7.73-9.2,9.687-3.949,2.078-7.359,3.874-7.131,8.927l.456,3.844a5.71,5.71,0,0,1-2.92,5.688.257.257,0,0,1-.376-.174l-.885-4.419a1.341,1.341,0,0,0-1.465-1.063,4.145,4.145,0,0,0-.762.163,4.1,4.1,0,0,0-2.843,4.826l.329,1.642a5.048,5.048,0,0,0,5.439,3.959l.439-.052a.257.257,0,1,1,.06.51l-.439.052a5.574,5.574,0,0,1-6-4.368l-.329-1.642a4.691,4.691,0,0,1,4.048-5.6,1.857,1.857,0,0,1,2.029,1.472l.814,4.063a5.194,5.194,0,0,0,2.354-5l-.457-3.863c-.243-5.4,3.471-7.353,7.4-9.423,3.86-2.032,7.852-4.133,9-9.619a.257.257,0,0,1,.33-.192,15.782,15.782,0,0,1,10.808,13.128l.57,4.817a69.681,69.681,0,0,1,.309,13.067,15.45,15.45,0,0,1-13.581,14.24l-.031,0" transform="translate(-322.901 -77.214)" fill="#130f40"/>
          <path id="Trazado_1031075" data-name="Trazado 1031075" d="M532.946,198.391h-.073a.257.257,0,0,1,0-.514c.02,0,.047,0,.07,0a7.638,7.638,0,0,0,3.339-.783,15.168,15.168,0,0,1-2.6-7.125.257.257,0,0,1,.509-.07,14.4,14.4,0,0,0,2.688,7.127.257.257,0,0,1-.082.386,8.211,8.211,0,0,1-3.85.98" transform="translate(-395.812 -140.955)" fill="#130f40"/>
          <path id="Trazado_1031076" data-name="Trazado 1031076" d="M557.821,183.747a1.158,1.158,0,0,1-1.287-1.014l-.243-2.056a1.158,1.158,0,1,1,2.3-.273l.243,2.056a1.158,1.158,0,0,1-1.014,1.287" transform="translate(-413.397 -133.305)" fill="#130f40"/>
          <path id="Trazado_1031077" data-name="Trazado 1031077" d="M497.818,187.6l.243,2.056a1.158,1.158,0,1,1-2.3.272l-.244-2.056a1.159,1.159,0,0,1,2.3-.272" transform="translate(-368.234 -138.651)" fill="#130f40"/>
          <path id="Trazado_1031078" data-name="Trazado 1031078" d="M553.608,160.414a.254.254,0,0,1-.039,0l-4-.612a.257.257,0,1,1,.078-.508l4,.612a.257.257,0,0,1-.039.511" transform="translate(-408.244 -118.373)" fill="#130f40"/>
          <path id="Trazado_1031079" data-name="Trazado 1031079" d="M489.326,166.737a.257.257,0,0,1-.1-.495l3.749-1.53a.257.257,0,0,1,.194.476l-3.749,1.53a.255.255,0,0,1-.1.019" transform="translate(-363.448 -122.389)" fill="#130f40"/>
          <path id="Trazado_1031080" data-name="Trazado 1031080" d="M518.37,234.447c2.74,4.129,8.254,3.779,9.262-.349a34.19,34.19,0,0,1-9.262.349" transform="translate(-385.223 -173.967)" fill="#fff"/>
          <path id="Trazado_1031081" data-name="Trazado 1031081" d="M372.233,781.055l-.058.039,0-.039H292.255c-7.387,18.161-12.093,50.546-14.8,89.794h127.3Z" transform="translate(-206.192 -580.434)" fill="#130f40"/>
          <path id="Trazado_1031082" data-name="Trazado 1031082" d="M404.022,870.363h-127.3a.257.257,0,0,1-.256-.274c2.94-42.7,7.925-72.935,14.814-89.873a.256.256,0,0,1,.238-.16h79.949a.272.272,0,0,1,.109.012.256.256,0,0,1,.161.156l32.532,89.794a.257.257,0,0,1-.241.344m-127.03-.514H403.655l-32.342-89.271-.013-.007s-79.615,0-79.615,0c-6.82,16.881-11.764,46.916-14.694,89.279" transform="translate(-205.449 -579.692)" fill="#130f40"/>
          <path id="Trazado_1031083" data-name="Trazado 1031083" d="M412.556,24.6l-51.031,15.31-2.751-9.169A20.257,20.257,0,0,1,372.355,5.514l12.226-3.668A20.257,20.257,0,0,1,409.8,15.427Z" transform="translate(-265.981 -0.732)" fill="#d5a168"/>
          <path id="Trazado_1031084" data-name="Trazado 1031084" d="M360.768,39.428a.256.256,0,0,1-.246-.183l-2.751-9.169A20.514,20.514,0,0,1,371.525,4.533L383.751.864a20.536,20.536,0,0,1,25.544,13.754l2.751,9.169a.257.257,0,0,1-.172.32l-51.031,15.31a.259.259,0,0,1-.074.011M389.636.511a19.935,19.935,0,0,0-5.737.846L371.672,5.025a20,20,0,0,0-13.409,24.9l2.677,8.923,50.539-15.163L408.8,14.766A20.037,20.037,0,0,0,389.636.511" transform="translate(-265.225 0.003)" fill="#130f40"/>
          <path id="Trazado_1031085" data-name="Trazado 1031085" d="M371.971,72.245c16.6-13.295,28.5-21.9,43.851-26.5,12.832-3.85,20,2.122,24.177,6.091-10.348,9.557-40.558,9.482-68.028,20.41" transform="translate(-276.427 -33.071)" fill="#ad7940"/>
          <path id="Trazado_1031086" data-name="Trazado 1031086" d="M371.228,71.7a.257.257,0,0,1-.161-.457C386.692,58.731,398.99,49.5,415,44.7c12.02-3.606,19.094,1.086,24.428,6.151a.257.257,0,0,1,0,.375c-5.665,5.232-17.352,7.63-30.883,10.406C396.981,64,383.872,66.691,371.322,71.683a.251.251,0,0,1-.095.018m51.781-27.757a27.294,27.294,0,0,0-7.856,1.246c-15.475,4.643-27.488,13.461-42.45,25.4,12.109-4.62,24.636-7.19,35.741-9.469,13.294-2.727,24.8-5.087,30.434-10.1-3.907-3.671-8.771-7.087-15.869-7.087" transform="translate(-275.684 -32.27)" fill="#130f40"/>
          <path id="Trazado_1031087" data-name="Trazado 1031087" d="M229.677,367.2c-22.168,13-24.045,67.469-27.237,109a23,23,0,0,0,22.923,24.763h61.05v-28.53H241.458c4.943-18.982,12.089-36.771,16.234-56.137a40.727,40.727,0,0,0-16.17-41.706,123.457,123.457,0,0,0-11.845-7.394" transform="translate(-150.39 -272.885)" fill="#ff4f79"/>
          <path id="Trazado_1031088" data-name="Trazado 1031088" d="M285.931,500.587H224.625a23,23,0,0,1-17.054-7.45,23.331,23.331,0,0,1-6.125-17.589c.281-3.657.546-7.338.828-11.235,1.395-19.349,2.976-41.279,6.7-59.309,4.272-20.691,10.761-33.337,19.838-38.662l.26.443c-8.945,5.247-15.354,17.782-19.594,38.323-3.715,18-5.3,39.909-6.689,59.242-.281,3.9-.546,7.579-.828,11.237a22.738,22.738,0,0,0,22.667,24.486h60.793V472.057H240.389l.084-.322c2.1-8.063,4.637-16.038,7.09-23.749,3.322-10.443,6.758-21.242,9.141-32.376l.5.107c-2.389,11.159-5.828,21.97-9.154,32.425-2.419,7.6-4.919,15.461-7,23.4h44.878Z" transform="translate(-149.653 -272.243)" fill="#130f40"/>
          <path id="Trazado_1031089" data-name="Trazado 1031089" d="M713.411,805.442H691.818v-28.53h37.661c2.784,10.147,3.738,28.53-16.068,28.53" transform="translate(-514.119 -577.355)" fill="#ff4f79"/>
          <path id="Trazado_1031090" data-name="Trazado 1031090" d="M712.668,804.957H691.075a.257.257,0,0,1-.257-.257V776.17a.257.257,0,0,1,.257-.257h37.661a.257.257,0,0,1,.248.189c.963,3.51,3.666,15.54-1.989,22.955-2.986,3.915-7.805,5.9-14.326,5.9m-21.336-.514h21.336c6.352,0,11.034-1.917,13.917-5.7,5.416-7.1,2.941-18.642,1.954-22.319H691.332Z" transform="translate(-513.376 -576.613)" fill="#130f40"/>
          <path id="Trazado_1031091" data-name="Trazado 1031091" d="M510.417,639.849h50.431c4.073,0,8.365-3.3,9.585-7.375L594,553.8c1.22-4.073-1.092-7.375-5.166-7.375H538.406c-4.073,0-8.365,3.3-9.585,7.375l-23.57,78.671c-1.22,4.073,1.093,7.375,5.166,7.375" transform="translate(-375.231 -406.072)" fill="#130f40"/>
          <path id="Trazado_1031092" data-name="Trazado 1031092" d="M560.1,639.363H509.665a5.651,5.651,0,0,1-4.694-2.152,6.145,6.145,0,0,1-.718-5.554l23.57-78.671c1.249-4.168,5.659-7.559,9.831-7.559h50.431a5.65,5.65,0,0,1,4.694,2.152,6.145,6.145,0,0,1,.718,5.554L569.928,631.8c-1.249,4.168-5.659,7.559-9.831,7.559m-22.442-93.422c-3.962,0-8.151,3.227-9.339,7.192L504.746,631.8a5.646,5.646,0,0,0,.638,5.1,5.15,5.15,0,0,0,4.282,1.945H560.1c3.962,0,8.151-3.227,9.339-7.192l23.57-78.671a5.647,5.647,0,0,0-.638-5.1,5.151,5.151,0,0,0-4.282-1.945Z" transform="translate(-374.48 -405.329)" fill="#130f40"/>
          <path id="Trazado_1031093" data-name="Trazado 1031093" d="M490.19,767.79a14.842,14.842,0,0,0-5.342,7.1l-5.066,14.436c-1.472,4.193.14,7.834,3.89,8.786l2.184.555L496.69,767.79Z" transform="translate(-356.144 -570.576)" fill="#f3abc7"/>
          <path id="Trazado_1031094" data-name="Trazado 1031094" d="M485.113,798.176a.253.253,0,0,1-.063-.008l-2.184-.555a5.89,5.89,0,0,1-3.88-2.924,7.674,7.674,0,0,1-.189-6.2l5.066-14.436a15.175,15.175,0,0,1,5.44-7.224.258.258,0,0,1,.144-.044h6.5a.257.257,0,0,1,.242.342L485.356,798a.257.257,0,0,1-.242.172m4.414-30.874a14.665,14.665,0,0,0-5.18,6.925l-5.066,14.436a7.171,7.171,0,0,0,.157,5.783,5.389,5.389,0,0,0,3.554,2.669l1.956.5,10.637-30.31Z" transform="translate(-355.403 -569.833)" fill="#130f40"/>
          <path id="Trazado_1031095" data-name="Trazado 1031095" d="M496.579,783.316l6.707-3.086c1.72-.79,2.908-2.579,2.689-4.05a1.918,1.918,0,0,0-1.675-1.644l1.688-.776c1.761-.808,2.977-2.64,2.752-4.146a2.079,2.079,0,0,0-2.374-1.722l2.457-1.13c1.837-.844,3.105-2.755,2.871-4.326-.2-1.341-1.425-2-2.906-1.74l2.581-1.187c1.837-.844,3.105-2.755,2.871-4.326-.248-1.662-2.064-2.3-4-1.407l-7.163,3.3Z" transform="translate(-369.029 -559.86)" fill="#f3abc7"/>
          <path id="Trazado_1031096" data-name="Trazado 1031096" d="M495.835,782.825a.257.257,0,0,1-.107-.49l6.707-3.086c1.6-.736,2.742-2.431,2.542-3.779a1.663,1.663,0,0,0-1.465-1.429.257.257,0,0,1-.063-.487l1.688-.776c1.643-.755,2.811-2.493,2.605-3.875a1.814,1.814,0,0,0-2.106-1.5.257.257,0,0,1-.121-.49l2.457-1.13c1.718-.789,2.94-2.608,2.724-4.055a1.738,1.738,0,0,0-.7-1.187,2.509,2.509,0,0,0-1.912-.338.257.257,0,0,1-.152-.486l2.581-1.187c1.718-.789,2.94-2.608,2.724-4.055a1.739,1.739,0,0,0-.907-1.328,3.133,3.133,0,0,0-2.733.117l-7.163,3.3a.257.257,0,1,1-.215-.466l7.163-3.3a3.59,3.59,0,0,1,3.193-.1,2.263,2.263,0,0,1,1.171,1.7c.251,1.685-1.075,3.7-3.018,4.6l-1.5.69a2.576,2.576,0,0,1,1.069.438,2.241,2.241,0,0,1,.9,1.528c.251,1.685-1.075,3.7-3.018,4.6l-1.6.734a2.181,2.181,0,0,1,1.66,1.847c.241,1.62-1.032,3.56-2.9,4.418l-1.082.5a2.117,2.117,0,0,1,1.216,1.652c.236,1.585-1.009,3.483-2.835,4.322l-6.707,3.085a.254.254,0,0,1-.107.024" transform="translate(-368.285 -559.112)" fill="#130f40"/>
          <path id="Trazado_1031097" data-name="Trazado 1031097" d="M772.309,767.79c1.391,1.712,1.449,4.523.65,7.1l-4.479,14.436a13.614,13.614,0,0,1-9.7,8.786l-2.55.555,9.579-30.874Z" transform="translate(-561.987 -570.576)" fill="#f3abc7"/>
          <path id="Trazado_1031098" data-name="Trazado 1031098" d="M755.487,798.176a.257.257,0,0,1-.245-.333l9.58-30.874a.257.257,0,0,1,.245-.181h6.5a.257.257,0,0,1,.2.095c1.347,1.657,1.607,4.4.7,7.335l-4.48,14.436a13.817,13.817,0,0,1-9.89,8.961l-2.55.555a.282.282,0,0,1-.055.006m9.769-30.874-9.393,30.272,2.12-.461a13.282,13.282,0,0,0,9.509-8.611l4.48-14.436c.829-2.674.625-5.249-.529-6.764Z" transform="translate(-561.244 -569.833)" fill="#130f40"/>
          <path id="Trazado_1031099" data-name="Trazado 1031099" d="M772.312,757.074l-4.981-3.3c-1.348-.892-3.586-.255-4.932,1.407-1.273,1.571-1.268,3.482.011,4.326l1.8,1.188a4.444,4.444,0,0,0-4.057,1.74c-1.273,1.571-1.268,3.482.011,4.326l1.71,1.13a4.432,4.432,0,0,0-3.513,1.722c-1.22,1.506-1.215,3.338.011,4.146l1.1.731a4.669,4.669,0,0,0-2.347,1.563c-1.192,1.471-1.187,3.26.01,4.05l4.667,3.086Z" transform="translate(-561.99 -559.86)" fill="#f3abc7"/>
          <path id="Trazado_1031100" data-name="Trazado 1031100" d="M761.058,782.691a.257.257,0,0,1-.142-.043l-4.667-3.086a2.228,2.228,0,0,1-.984-1.566,3.746,3.746,0,0,1,.917-2.86,4.981,4.981,0,0,1,1.969-1.475l-.669-.442a2.276,2.276,0,0,1-1.005-1.6,3.829,3.829,0,0,1,.937-2.923,4.954,4.954,0,0,1,2.93-1.769l-1.069-.707a2.364,2.364,0,0,1-1.044-1.661,3.984,3.984,0,0,1,.975-3.041,5.015,5.015,0,0,1,3.339-1.877l-1.02-.674a2.364,2.364,0,0,1-1.044-1.661,3.985,3.985,0,0,1,.975-3.041c1.439-1.776,3.8-2.432,5.274-1.46l4.981,3.3a.257.257,0,0,1-.284.428l-4.981-3.3c-1.233-.816-3.335-.195-4.591,1.355a3.475,3.475,0,0,0-.866,2.639,1.863,1.863,0,0,0,.819,1.311l1.8,1.188a.257.257,0,0,1-.191.466,4.218,4.218,0,0,0-3.808,1.65,3.475,3.475,0,0,0-.866,2.639,1.862,1.862,0,0,0,.819,1.311l1.71,1.131a.257.257,0,0,1-.156.471,4.188,4.188,0,0,0-3.3,1.627,3.319,3.319,0,0,0-.828,2.521,1.773,1.773,0,0,0,.78,1.249l1.1.731a.257.257,0,0,1-.074.462,4.387,4.387,0,0,0-2.215,1.477,3.237,3.237,0,0,0-.808,2.458,1.727,1.727,0,0,0,.76,1.216l4.667,3.086a.257.257,0,0,1-.142.471" transform="translate(-561.246 -559.106)" fill="#130f40"/>
          <rect id="Rectángulo_410848" data-name="Rectángulo 410848" width="12.162" height="0.514" transform="translate(78.907 199.3)" fill="#130f40"/>
          <path id="Trazado_1031101" data-name="Trazado 1031101" d="M88.981,1128.711h0Z" transform="translate(-0.184 -838.792)" fill="#668fff"/>
          <path id="Trazado_1031102" data-name="Trazado 1031102" d="M89.54,1068.239a57.333,57.333,0,0,0-88.54,0Z" transform="translate(-0.743 -778.32)" fill="#6e7100"/>
          <path id="Trazado_1031103" data-name="Trazado 1031103" d="M88.8,1067.752H.257a.257.257,0,0,1-.2-.42,57.59,57.59,0,0,1,88.936,0,.257.257,0,0,1-.2.42M.8,1067.238H88.249a57.075,57.075,0,0,0-87.445,0" transform="translate(0 -777.576)" fill="#130f40"/>
          <path id="Trazado_1031104" data-name="Trazado 1031104" d="M146.543,929.42,77.661,860.538Z" transform="translate(-57.713 -639.501)" fill="#668fff"/>
          <path id="Trazado_1031105" data-name="Trazado 1031105" d="M77.4,860.273a62.942,62.942,0,0,1,68.732,68.732H133.967A62.941,62.941,0,0,1,77.4,860.273" transform="translate(-57.299 -639.087)" fill="#130f40"/>
          <path id="Trazado_1031106" data-name="Trazado 1031106" d="M133.216,928.511A63.2,63.2,0,0,1,76.39,859.5a.257.257,0,0,1,.231-.231,63.2,63.2,0,0,1,69.013,69.012.263.263,0,0,1-.026.09c-.071.142-.071.142-.752.142ZM76.881,859.757A62.684,62.684,0,0,0,133.241,928c.088,0,10.229,0,11.9,0a62.685,62.685,0,0,0-68.263-68.24" transform="translate(-56.548 -638.335)" fill="#130f40"/>
          <path id="Trazado_1031107" data-name="Trazado 1031107" d="M146.977,929.006a62.942,62.942,0,0,0-68.732-68.732Z" transform="translate(-58.147 -639.087)" fill="#a0a201"/>
          <path id="Trazado_1031108" data-name="Trazado 1031108" d="M146.234,928.511a.256.256,0,0,1-.182-.075L77.32,859.7a.257.257,0,0,1,.157-.437,63.2,63.2,0,0,1,69.013,69.012.257.257,0,0,1-.169.217.261.261,0,0,1-.087.015M78.07,859.727l67.958,67.958A62.684,62.684,0,0,0,78.07,859.727" transform="translate(-57.404 -638.335)" fill="#130f40"/>
          <path id="Trazado_1031109" data-name="Trazado 1031109" d="M138.974,951.624H128.711a.257.257,0,0,1,0-.514h10.263a.257.257,0,1,1,0,.514" transform="translate(-95.46 -706.809)" fill="#130f40"/>
          <path id="Trazado_1031110" data-name="Trazado 1031110" d="M157.691,994.342H139.132a.257.257,0,1,1,0-.514h18.559a.257.257,0,1,1,0,.514" transform="translate(-103.204 -738.555)" fill="#130f40"/>
          <path id="Trazado_1031111" data-name="Trazado 1031111" d="M176.987,1037.058H150.333a.257.257,0,1,1,0-.514h26.654a.257.257,0,1,1,0,.514" transform="translate(-111.528 -770.299)" fill="#130f40"/>
          <path id="Trazado_1031112" data-name="Trazado 1031112" d="M255.65,1079.775h-14.23a.257.257,0,1,1,0-.514h14.23a.257.257,0,1,1,0,.514" transform="translate(-179.219 -802.044)" fill="#130f40"/>
          <path id="Trazado_1031113" data-name="Trazado 1031113" d="M186,939.26a.257.257,0,0,1-.257-.257V928.74a.257.257,0,0,1,.514,0V939a.257.257,0,0,1-.257.257" transform="translate(-138.032 -689.994)" fill="#130f40"/>
          <path id="Trazado_1031114" data-name="Trazado 1031114" d="M228.715,941.406a.257.257,0,0,1-.257-.257V916.863a.257.257,0,1,1,.514,0v24.286a.257.257,0,0,1-.257.257" transform="translate(-169.777 -681.168)" fill="#130f40"/>
          <path id="Trazado_1031115" data-name="Trazado 1031115" d="M271.433,977.272a.257.257,0,0,1-.257-.257V950.361a.257.257,0,0,1,.514,0v26.654a.257.257,0,0,1-.257.257" transform="translate(-201.522 -706.062)" fill="#130f40"/>
        </g>
      </g>
    </g>
  </g>
</svg>
