<svg xmlns="http://www.w3.org/2000/svg" xmlns:xlink="http://www.w3.org/1999/xlink" width="220" height="158.96" viewBox="0 0 220 158.96">
  <defs>
    <filter id="Rect치ngulo_404858" x="0" y="0" width="220" height="158.96" filterUnits="userSpaceOnUse">
      <feOffset dx="3" dy="6" input="SourceAlpha"/>
      <feGaussianBlur stdDeviation="5" result="blur"/>
      <feFlood flood-opacity="0.161"/>
      <feComposite operator="in" in2="blur"/>
      <feComposite in="SourceGraphic"/>
    </filter>
  </defs>
  <g id="Grupo_1199159" data-name="Grupo 1199159" transform="translate(-204.467 -898)">
    <g id="Grupo_1197899" data-name="Grupo 1197899" transform="translate(216.467 907)">
      <g id="Grupo_1113681" data-name="Grupo 1113681" transform="translate(0 0)">
        <g transform="matrix(1, 0, 0, 1, -12, -9)" filter="url(#Rect치ngulo_404858)">
          <rect id="Rect치ngulo_404858-2" data-name="Rect치ngulo 404858" width="190" height="128.96" rx="8" transform="translate(12 9)" fill="#4c6929"/>
        </g>
      </g>
    </g>
    <g id="sprout_562557" transform="translate(261.272 920.967)">
      <path id="Trazado_1030816" data-name="Trazado 1030816" d="M91.547,105.1a11.95,11.95,0,0,1,23.328-3.732,42.883,42.883,0,1,0-36.1,19.8,42.531,42.531,0,0,0,20.052-4.995A12.034,12.034,0,0,1,91.547,105.1Z" transform="translate(-28.682 -27.995)" fill="#ef5050"/>
      <path id="Trazado_1030817" data-name="Trazado 1030817" d="M121.6,135.333a12,12,0,0,1,11.959-12.03,11.85,11.85,0,0,1,6.6,2,35.595,35.595,0,1,0-31.327,18.756,35.323,35.323,0,0,0,14.222-2.972A12.031,12.031,0,0,1,121.6,135.333Z" transform="translate(-58.739 -58.232)" fill="#fb8276"/>
      <g id="Grupo_1199156" data-name="Grupo 1199156" transform="translate(14.47 14.146)" opacity="0.1">
        <path id="Trazado_1030818" data-name="Trazado 1030818" d="M77.272,108.219a35.749,35.749,0,0,1,33.6-35.781c-.673-.038-1.35-.059-2.032-.059a35.841,35.841,0,0,0,0,71.681c.682,0,1.359-.021,2.032-.059A35.75,35.75,0,0,1,77.272,108.219Z" transform="translate(-73.209 -72.379)"/>
      </g>
      <path id="Trazado_1030819" data-name="Trazado 1030819" d="M162.665,153.2a28.381,28.381,0,1,0-24.125,13.481,28.156,28.156,0,0,0,12.88-3.1A11.987,11.987,0,0,1,162.665,153.2Z" transform="translate(-88.443 -88.114)" fill="#fff"/>
      <path id="Trazado_1030820" data-name="Trazado 1030820" d="M192.177,171.619a20.318,20.318,0,1,1-20.318-20.439A20.379,20.379,0,0,1,192.177,171.619Z" transform="translate(-121.763 -121.633)" fill="#fcdb67"/>
      <g id="Grupo_1199157" data-name="Grupo 1199157" transform="translate(34.921 48.902)">
        <path id="Trazado_1030821" data-name="Trazado 1030821" d="M186.812,261.9a8.956,8.956,0,0,1-8.728-11.015.587.587,0,0,1,.436-.436,9.048,9.048,0,0,1,2.072-.241,8.956,8.956,0,0,1,8.728,11.016.586.586,0,0,1-.436.436,9.044,9.044,0,0,1-2.072.24Z" transform="translate(-177.848 -250.211)" fill="#89c947"/>
        <path id="Trazado_1030822" data-name="Trazado 1030822" d="M275.984,261.9a9.045,9.045,0,0,1-2.072-.24.587.587,0,0,1-.436-.436,8.973,8.973,0,0,1,10.8-10.775.586.586,0,0,1,.436.436,8.956,8.956,0,0,1-8.728,11.015Z" transform="translate(-254.596 -250.212)" fill="#89c947"/>
      </g>
      <path id="Trazado_1030823" data-name="Trazado 1030823" d="M236.681,193.387a.585.585,0,0,1-.308-.087,8.941,8.941,0,0,1,0-15.24.587.587,0,0,1,.615,0,8.941,8.941,0,0,1,0,15.24A.585.585,0,0,1,236.681,193.387Z" transform="translate(-186.584 -143.19)" fill="#368c0e"/>
      <path id="Trazado_1030824" data-name="Trazado 1030824" d="M344.743,344.973a11.959,11.959,0,1,1-11.959-12.03A12,12,0,0,1,344.743,344.973Z" transform="translate(-257.961 -267.872)" fill="#ffc502"/>
      <g id="Grupo_1199158" data-name="Grupo 1199158" transform="translate(62.864 65.071)" opacity="0.1">
        <path id="Trazado_1030825" data-name="Trazado 1030825" d="M324.889,344.974a12.011,12.011,0,0,1,9.926-11.853,12.03,12.03,0,1,0,0,23.708A12.011,12.011,0,0,1,324.889,344.974Z" transform="translate(-320.824 -332.944)"/>
      </g>
      <path id="Trazado_1030826" data-name="Trazado 1030826" d="M98.723,48.812H94.476a44.463,44.463,0,0,0-12.984-30.4A43.957,43.957,0,0,0,51.59,5.363v-3.9a1.466,1.466,0,1,0-2.932,0V5.361A43.96,43.96,0,0,0,18.7,18.416a44.465,44.465,0,0,0-12.984,30.4H1.667a1.466,1.466,0,0,0,0,2.932H5.739A44.452,44.452,0,0,0,18.7,81.556,43.96,43.96,0,0,0,48.659,94.612V98.6a1.466,1.466,0,1,0,2.932,0V94.613a43.921,43.921,0,0,0,18.665-4.821,13.3,13.3,0,0,0,4.568.806h0a13.344,13.344,0,0,0,7.021-1.991A1.466,1.466,0,0,0,80.3,86.112a10.414,10.414,0,0,1-5.48,1.554h0a10.538,10.538,0,1,1,9.389-5.842,1.466,1.466,0,1,0,2.625,1.306,13.566,13.566,0,0,0,.951-9.528,44.469,44.469,0,0,0,6.67-21.858h4.266a1.466,1.466,0,1,0,0-2.932ZM79.413,20.483a41.55,41.55,0,0,1,12.13,28.329H87.17a37.248,37.248,0,0,0-35.58-36.1V8.3A41.049,41.049,0,0,1,79.413,20.483ZM48.659,8.294v4.416a37.247,37.247,0,0,0-35.634,36.1H8.651A41.645,41.645,0,0,1,48.659,8.294ZM8.673,51.744h4.373A37.245,37.245,0,0,0,48.659,87.262v4.416A41.641,41.641,0,0,1,8.673,51.744ZM67.012,88.067A40.962,40.962,0,0,1,51.59,91.676V87.259A36.668,36.668,0,0,0,63.722,84.68,13.568,13.568,0,0,0,67.012,88.067ZM61.656,74.474A26.638,26.638,0,0,1,50.1,77.1a27.116,27.116,0,1,1,17.8-47.47,1.466,1.466,0,1,0,1.944-2.194A29.971,29.971,0,1,0,50.1,80.034a29.563,29.563,0,0,0,11.319-2.242,13.466,13.466,0,0,0,.93,4.28A33.792,33.792,0,0,1,50.1,84.361,34.339,34.339,0,1,1,80.808,65.025a13.263,13.263,0,0,0-4.154-1.291,30.166,30.166,0,0,0-1.919-30.75,1.466,1.466,0,0,0-2.42,1.654A27.241,27.241,0,0,1,73.339,63.69,13.481,13.481,0,0,0,61.656,74.474Zm24.7-4.271a13.568,13.568,0,0,0-3.073-3.571,37.2,37.2,0,0,0,3.862-14.888h4.377A41.626,41.626,0,0,1,86.356,70.2Z"/>
      <path id="Trazado_1030827" data-name="Trazado 1030827" d="M165.826,143.68a21.931,21.931,0,0,0-16.685,35.987,1.466,1.466,0,0,0,2.25-1.88,18.828,18.828,0,1,1,15.9,6.713V180.44l2.944-2.937a10.517,10.517,0,0,0,1.8.156,10.374,10.374,0,0,0,7.377-3.049,10.481,10.481,0,0,0,2.777-9.77,2.04,2.04,0,0,0-1.526-1.525,10.518,10.518,0,0,0-2.408-.28,10.378,10.378,0,0,0-7.377,3.048,10.483,10.483,0,0,0-2.838,9.467l-.75.748v-9.6a10.4,10.4,0,0,0-.388-17.481,2.085,2.085,0,0,0-2.155,0,10.4,10.4,0,0,0-.389,17.482V176.3l-.75-.749a10.484,10.484,0,0,0-2.838-9.467,10.376,10.376,0,0,0-7.377-3.048,10.5,10.5,0,0,0-2.409.28,2.042,2.042,0,0,0-1.526,1.525,10.483,10.483,0,0,0,2.777,9.769,10.374,10.374,0,0,0,7.377,3.049h0a10.5,10.5,0,0,0,1.8-.156l2.944,2.937V184.5a18.707,18.707,0,0,1-8.232-2.64,1.466,1.466,0,0,0-1.518,2.508,21.866,21.866,0,1,0,11.215-40.687Zm7.125,24.479a7.466,7.466,0,0,1,5.307-2.192,7.6,7.6,0,0,1,1.189.094,7.535,7.535,0,0,1-2.1,6.474,7.453,7.453,0,0,1-4.253,2.119l2.46-2.454a1.466,1.466,0,0,0-2.071-2.075l-2.691,2.685A7.525,7.525,0,0,1,172.951,168.159Zm-18.643,4.375a7.537,7.537,0,0,1-2.1-6.474,7.592,7.592,0,0,1,1.189-.094,7.478,7.478,0,0,1,7.468,6.842l-2.691-2.685A1.466,1.466,0,0,0,156.1,172.2l2.46,2.454A7.453,7.453,0,0,1,154.308,172.534Zm8.413-14.445a7.545,7.545,0,0,1,3.105-6.063,7.452,7.452,0,0,1,1.466,10.716v-4.108a1.466,1.466,0,1,0-2.932,0v4.108A7.514,7.514,0,0,1,162.721,158.089Z" transform="translate(-115.729 -115.599)"/>
      <path id="Trazado_1030828" data-name="Trazado 1030828" d="M359.3,368.769a1.466,1.466,0,0,0,1.466-1.466v-.359h.248a3.829,3.829,0,0,0,0-7.657h-3.426a.9.9,0,0,1,0-1.794h4.381a1.466,1.466,0,1,0,0-2.932h-1.2v-.837a1.466,1.466,0,1,0-2.932,0v.837h-.247a3.828,3.828,0,0,0,0,7.657h3.426a.9.9,0,0,1,0,1.794h-5.188a1.466,1.466,0,1,0,0,2.932h2.009v.359A1.466,1.466,0,0,0,359.3,368.769Z" transform="translate(-284.477 -283.413)"/>
    </g>
  </g>
</svg>
