<svg xmlns="http://www.w3.org/2000/svg" xmlns:xlink="http://www.w3.org/1999/xlink" width="66.344" height="66.344" viewBox="0 0 66.344 66.344">
  <defs>
    <clipPath id="clip-path">
      <path id="path6582" d="M0-682.665H66.344v66.344H0Z" transform="translate(0 682.665)"/>
    </clipPath>
  </defs>
  <g id="g6576" transform="translate(0 682.665)">
    <g id="g6578" transform="translate(0 -682.665)">
      <g id="g6580" clip-path="url(#clip-path)">
        <g id="g6586" transform="translate(15.859 2.461)">
          <path id="path6588" d="M-39.446-98.442h-4.246v-8.576a2.021,2.021,0,0,1,2.021-2.021h.2a2.021,2.021,0,0,1,2.021,2.021Z" transform="translate(43.692 109.038)" fill="#aca5d6"/>
        </g>
        <g id="g6590" transform="translate(16.791 2.461)">
          <path id="path6592" d="M-12.017,0h-.2a2.01,2.01,0,0,0-1.089.32,2.018,2.018,0,0,1,.932,1.7V10.6H-10V2.021A2.021,2.021,0,0,0-12.017,0" transform="translate(13.311)" fill="#978ecb"/>
        </g>
        <g id="g6594" transform="translate(8.781 3.697)">
          <path id="path6596" d="M-268.8-559.119h-28.935v-48.2A3.146,3.146,0,0,1-295.6-610.3l26.792-9.006Z" transform="translate(297.739 619.305)" fill="#c8effe"/>
        </g>
        <g id="g6598" transform="translate(34.923 3.697)">
          <path id="path6600" d="M0-8.721V50.526H2.793V-9.66Z" transform="translate(0 9.66)" fill="#99e6fc"/>
        </g>
        <g id="g6602" transform="translate(37.716 31.228)">
          <path id="path6604" d="M-186.943-20.018v30.5h-20.123V-22.173H-189.1a2.154,2.154,0,0,1,2.155,2.155" transform="translate(207.066 22.173)" fill="#f5fcff"/>
        </g>
        <g id="g6606" transform="translate(52.892 31.228)">
          <path id="path6608" d="M-25.946,0h-2.793a2.156,2.156,0,0,1,2.156,2.156v30.5h2.793V2.156A2.156,2.156,0,0,0-25.946,0" transform="translate(28.739 0)" fill="#ddf4fe"/>
        </g>
        <g id="g6610" transform="translate(37.716 57.837)">
          <path id="path6612" d="M0-56.165H26.194a1.461,1.461,0,0,0,1.461-1.461v-4.585H0Z" transform="translate(0 62.211)" fill="#b6c4cf"/>
        </g>
        <g id="g6614" transform="translate(51.516 50.435)">
          <path id="path6616" d="M-58.743-.108v7.39h-6.323V5.29A5.411,5.411,0,0,1-59.655-.12h.548c.122,0,.244,0,.364.012" transform="translate(65.067 0.12)" fill="#ddf4fe"/>
        </g>
        <g id="g6618" transform="translate(61.118 57.837)">
          <path id="path6620" d="M-13.574,0V4.585a1.461,1.461,0,0,1-1.461,1.461h2.793a1.461,1.461,0,0,0,1.461-1.461V0Z" transform="translate(15.035)" fill="#9facba"/>
        </g>
        <g id="g6622" transform="translate(54.001 50.435)">
          <path id="path6624" d="M-50.266,0h.549a5.411,5.411,0,0,1,5.411,5.411V7.4h-11.37V5.411A5.411,5.411,0,0,1-50.266,0" transform="translate(55.677)" fill="#bbec6c"/>
        </g>
        <g id="g6626" transform="translate(58.29 50.435)">
          <path id="path6628" d="M-15.521,0h-.549a5.426,5.426,0,0,0-1.122.117A5.412,5.412,0,0,1-12.9,5.411V7.4h2.793V5.411A5.411,5.411,0,0,0-15.521,0" transform="translate(17.192)" fill="#a2e62e"/>
        </g>
        <g id="g6630" transform="translate(0.972 57.837)">
          <path id="path6632" d="M-13.574-56.165h6.348v-6.046h-7.809v4.585a1.461,1.461,0,0,0,1.461,1.461" transform="translate(15.035 62.211)" fill="#b6c4cf"/>
        </g>
        <path id="path6634" d="M61.617-81.485H64.41V-87.53H61.617Z" transform="translate(-55.629 145.368)" fill="#9facba"/>
        <g id="g6636" transform="translate(0.972 50.435)">
          <path id="path6638" d="M-65.448,0h.764V7.4h-7.809V7.045A7.045,7.045,0,0,1-65.448,0" transform="translate(72.493)" fill="#bbec6c"/>
        </g>
        <g id="g6640" transform="translate(5.988 50.435)">
          <path id="path6642" d="M-18.847,0a7.044,7.044,0,0,0-2.029.3V7.4h2.793V0Z" transform="translate(20.876)" fill="#a2e62e"/>
        </g>
        <g id="g6644" transform="translate(37.716 3.697)">
          <path id="path6646" d="M0,0,9.1,8.8a3.146,3.146,0,0,1,.959,2.262v16.47H0Z" fill="#60b8fe"/>
        </g>
        <g id="g6648" transform="translate(37.716 3.697)">
          <path id="path6650" d="M-84.561-81.738l-9.1-8.8v2.7l6.31,6.1a3.146,3.146,0,0,1,.96,2.262v16.47H-83.6v-16.47a3.146,3.146,0,0,0-.959-2.262" transform="translate(93.664 90.537)" fill="#27a5fe"/>
        </g>
        <g id="g6652" transform="translate(15.859 51.686)">
          <path id="path6654" d="M-107-113.311h-11.518v-8.256a1.426,1.426,0,0,1,1.043-1.374l9.045-2.525A1.126,1.126,0,0,1-107-124.381Z" transform="translate(118.514 125.508)" fill="#60b8fe"/>
        </g>
        <g id="g6656" transform="translate(24.379 51.686)">
          <path id="path6658" d="M-14.574-.392l-1.569.438a1.115,1.115,0,0,1,.205.647v11.07h2.793V.693A1.126,1.126,0,0,0-14.574-.392" transform="translate(16.143 0.434)" fill="#27a5fe"/>
        </g>
        <g id="g6660" transform="translate(42.277 35.57)">
          <path id="path6662" d="M-94.734-34.126h-9.531a.667.667,0,0,1-.667-.667v-2.339a.667.667,0,0,1,.667-.667h9.531a.667.667,0,0,1,.667.667v2.339a.667.667,0,0,1-.667.667" transform="translate(104.932 37.8)" fill="#c8effe"/>
        </g>
        <g id="g6664" transform="translate(49.682 35.57)">
          <path id="path6666" d="M-25.946,0h-2.793a.667.667,0,0,1,.667.667V3.006a.667.667,0,0,1-.667.667h2.793a.667.667,0,0,0,.667-.667V.667A.667.667,0,0,0-25.946,0" transform="translate(28.739)" fill="#99e6fc"/>
        </g>
        <g id="g6668" transform="translate(42.277 42.96)">
          <path id="path6670" d="M-94.734-34.126h-9.531a.667.667,0,0,1-.667-.667v-2.339a.667.667,0,0,1,.667-.667h9.531a.667.667,0,0,1,.667.667v2.339a.667.667,0,0,1-.667.667" transform="translate(104.932 37.8)" fill="#c8effe"/>
        </g>
        <g id="g6672" transform="translate(49.682 42.96)">
          <path id="path6674" d="M-25.946,0h-2.793a.667.667,0,0,1,.667.667V3.006a.667.667,0,0,1-.667.667h2.793a.667.667,0,0,0,.667-.667V.667A.667.667,0,0,0-25.946,0" transform="translate(28.739)" fill="#99e6fc"/>
        </g>
        <g id="g6676" transform="translate(42.277 50.425)">
          <path id="path6678" d="M-35.482-34.126h-3.152a.667.667,0,0,1-.667-.667v-2.339a.667.667,0,0,1,.667-.667h3.152a.667.667,0,0,1,.667.667v2.339a.667.667,0,0,1-.667.667" transform="translate(39.301 37.8)" fill="#c8effe"/>
        </g>
        <g id="g6680" transform="translate(43.304 50.426)">
          <path id="path6682" d="M-25.944,0h-2.793a.667.667,0,0,1,.667.667V3.006a.667.667,0,0,1-.667.667h2.793a.667.667,0,0,0,.667-.667V.667A.667.667,0,0,0-25.944,0" transform="translate(28.737)" fill="#99e6fc"/>
        </g>
        <g id="g6684" transform="translate(8.781 3.697)">
          <path id="path6686" d="M-268.8-559.119h-28.935v-48.2A3.146,3.146,0,0,1-295.6-610.3l26.792-9.006Z" transform="translate(297.739 619.305)" fill="none" stroke="#000" stroke-linecap="round" stroke-linejoin="round" stroke-miterlimit="10" stroke-width="1.2"/>
        </g>
        <g id="g6688" transform="translate(37.716 31.228)">
          <path id="path6690" d="M-151.288-247.191v6.046h-16.285V-273.8H-149.6a2.154,2.154,0,0,1,2.155,2.155v17.286" transform="translate(167.573 273.799)" fill="none" stroke="#000" stroke-linecap="round" stroke-linejoin="round" stroke-miterlimit="10" stroke-width="1.2"/>
        </g>
        <g id="g6692" transform="translate(37.716 57.837)">
          <path id="path6694" d="M0-56.165H26.194a1.461,1.461,0,0,0,1.461-1.461v-4.585H0Z" transform="translate(0 62.211)" fill="none" stroke="#000" stroke-linecap="round" stroke-linejoin="round" stroke-miterlimit="10" stroke-width="1.2"/>
        </g>
        <g id="g6696" transform="translate(54.001 50.435)">
          <path id="path6698" d="M-50.266,0h.549a5.411,5.411,0,0,1,5.411,5.411V7.4h-11.37V5.411A5.411,5.411,0,0,1-50.266,0Z" transform="translate(55.677)" fill="none" stroke="#000" stroke-linecap="round" stroke-linejoin="round" stroke-miterlimit="10" stroke-width="1.2"/>
        </g>
        <g id="g6700" transform="translate(0.972 57.837)">
          <path id="path6702" d="M-13.574-56.165h6.348v-6.046h-7.809v4.585A1.461,1.461,0,0,0-13.574-56.165Z" transform="translate(15.035 62.211)" fill="none" stroke="#000" stroke-linecap="round" stroke-linejoin="round" stroke-miterlimit="10" stroke-width="1.2"/>
        </g>
        <g id="g6704" transform="translate(0.972 50.435)">
          <path id="path6706" d="M-65.448,0h.764V7.4h-7.809V7.045A7.045,7.045,0,0,1-65.448,0Z" transform="translate(72.493)" fill="none" stroke="#000" stroke-linecap="round" stroke-linejoin="round" stroke-miterlimit="10" stroke-width="1.2"/>
        </g>
        <g id="g6708" transform="translate(37.716 3.697)">
          <path id="path6710" d="M-93.474-255.757h-10.062v-27.531l9.1,8.8a3.146,3.146,0,0,1,.959,2.262v11.889" transform="translate(103.536 283.287)" fill="none" stroke="#000" stroke-linecap="round" stroke-linejoin="round" stroke-miterlimit="10" stroke-width="1.2"/>
        </g>
        <g id="g6712" transform="translate(15.859 2.461)">
          <path id="path6714" d="M0-79.737V-86.3a2.02,2.02,0,0,1,2.021-2.02h.2a2.02,2.02,0,0,1,2.02,2.02v5.135" transform="translate(0 88.32)" fill="none" stroke="#000" stroke-linecap="round" stroke-linejoin="round" stroke-miterlimit="10" stroke-width="1.2"/>
        </g>
        <g id="g6716" transform="translate(15.859 11.043)">
          <path id="path6718" d="M-203.049,0l-21.857,7.347" transform="translate(224.906)" fill="none" stroke="#000" stroke-linecap="round" stroke-linejoin="round" stroke-miterlimit="10" stroke-width="1.2"/>
        </g>
        <g id="g6720" transform="translate(15.859 18.037)">
          <path id="path6722" d="M-203.049,0l-21.857,7.347" transform="translate(224.906)" fill="none" stroke="#000" stroke-linecap="round" stroke-linejoin="round" stroke-miterlimit="10" stroke-width="1.2"/>
        </g>
        <g id="g6724" transform="translate(15.859 25.032)">
          <path id="path6726" d="M-203.049,0l-21.857,7.347" transform="translate(224.906)" fill="none" stroke="#000" stroke-linecap="round" stroke-linejoin="round" stroke-miterlimit="10" stroke-width="1.2"/>
        </g>
        <g id="g6728" transform="translate(15.859 32.026)">
          <path id="path6730" d="M-203.049,0l-21.857,7.347" transform="translate(224.906)" fill="none" stroke="#000" stroke-linecap="round" stroke-linejoin="round" stroke-miterlimit="10" stroke-width="1.2"/>
        </g>
        <g id="g6732" transform="translate(15.859 45.155)">
          <path id="path6734" d="M-33.52,0l-3.608,1.213" transform="translate(37.128)" fill="none" stroke="#000" stroke-linecap="round" stroke-linejoin="round" stroke-miterlimit="10" stroke-width="1.2"/>
        </g>
        <g id="g6736" transform="translate(23.819 39.021)">
          <path id="path6738" d="M-129.1,0-143,4.671" transform="translate(142.996)" fill="none" stroke="#000" stroke-linecap="round" stroke-linejoin="round" stroke-miterlimit="10" stroke-width="1.2"/>
        </g>
        <g id="g6740" transform="translate(15.859 51.686)">
          <path id="path6742" d="M-107-113.311h-11.518v-8.256a1.426,1.426,0,0,1,1.043-1.374l9.045-2.525A1.126,1.126,0,0,1-107-124.381Z" transform="translate(118.514 125.508)" fill="none" stroke="#000" stroke-linecap="round" stroke-linejoin="round" stroke-miterlimit="10" stroke-width="1.2"/>
        </g>
        <g id="g6744" transform="translate(42.277 35.57)">
          <path id="path6746" d="M-94.734-34.126h-9.531a.667.667,0,0,1-.667-.667v-2.339a.667.667,0,0,1,.667-.667h9.531a.667.667,0,0,1,.667.667v2.339A.667.667,0,0,1-94.734-34.126Z" transform="translate(104.932 37.8)" fill="none" stroke="#000" stroke-linecap="round" stroke-linejoin="round" stroke-miterlimit="10" stroke-width="1.2"/>
        </g>
        <g id="g6748" transform="translate(42.277 42.96)">
          <path id="path6750" d="M-94.734-34.126h-9.531a.667.667,0,0,1-.667-.667v-2.339a.667.667,0,0,1,.667-.667h9.531a.667.667,0,0,1,.667.667v2.339A.667.667,0,0,1-94.734-34.126Z" transform="translate(104.932 37.8)" fill="none" stroke="#000" stroke-linecap="round" stroke-linejoin="round" stroke-miterlimit="10" stroke-width="1.2"/>
        </g>
        <g id="g6752" transform="translate(42.277 50.425)">
          <path id="path6754" d="M-35.482-34.126h-3.152a.667.667,0,0,1-.667-.667v-2.339a.667.667,0,0,1,.667-.667h3.152a.667.667,0,0,1,.667.667v2.339A.667.667,0,0,1-35.482-34.126Z" transform="translate(39.301 37.8)" fill="none" stroke="#000" stroke-linecap="round" stroke-linejoin="round" stroke-miterlimit="10" stroke-width="1.2"/>
        </g>
        <g id="g6756" transform="translate(21.618 52.936)">
          <path id="path6758" d="M0,0V10.947" fill="none" stroke="#000" stroke-linecap="round" stroke-linejoin="round" stroke-miterlimit="10" stroke-width="1.2"/>
        </g>
      </g>
    </g>
  </g>
</svg>
