<svg xmlns="http://www.w3.org/2000/svg" width="66.445" height="66.944" viewBox="0 0 66.445 66.944">
  <g id="social-security_10642028" transform="translate(-7.381 -6.9)">
    <g id="Grupo_1198087" data-name="Grupo 1198087" transform="translate(7.98 7.5)">
      <path id="Trazado_914807" data-name="Trazado 914807" d="M317.811,98.7v8.6h-3.78v2.169H299.554V98.7c0-2.942,3.18-5.2,5.164-6.313a16.6,16.6,0,0,1,1.555-.784h4.82S317.811,94.421,317.811,98.7Z" transform="translate(-261.205 -80.539)" fill="#fff"/>
      <path id="Trazado_914808" data-name="Trazado 914808" d="M307.364,103.865a9.277,9.277,0,0,0-2.646-6.305c-1.983,1.118-5.164,3.371-5.164,6.313v10.772h4.532v14.534l-.966,3.07v1.078h3.288v-1.078l.966-3.07Z" transform="translate(-261.205 -85.715)" fill="#e3e9ee"/>
      <path id="Trazado_914809" data-name="Trazado 914809" d="M334.014,227.464" transform="translate(-291.133 -198.533)" fill="none" stroke="#000" stroke-miterlimit="10" stroke-width="1.2"/>
      <rect id="Rectángulo_408370" data-name="Rectángulo 408370" width="3.779" height="3.769" transform="translate(52.826 26.761)" fill="#ffdba9"/>
      <path id="Trazado_914810" data-name="Trazado 914810" d="M327.633,337.965l-.966,3.07v1.078h11.878v-1.078l-.966-3.07Z" transform="translate(-284.752 -294.501)" fill="#fff"/>
      <rect id="Rectángulo_408371" data-name="Rectángulo 408371" width="9.945" height="14.534" transform="translate(42.881 28.931)" fill="#fff"/>
      <path id="Trazado_914811" data-name="Trazado 914811" d="M344.556,38.875h0a3.771,3.771,0,0,1-3.771-3.771V33.271a3.771,3.771,0,0,1,3.771-3.771h0a3.771,3.771,0,0,1,3.771,3.771V35.1A3.772,3.772,0,0,1,344.556,38.875Z" transform="translate(-297.013 -26.606)" fill="#ffdba9"/>
      <path id="Trazado_914812" data-name="Trazado 914812" d="M177.851,227.464" transform="translate(-155.509 -198.533)" fill="none" stroke="#000" stroke-miterlimit="10" stroke-width="1.2"/>
      <path id="Trazado_914813" data-name="Trazado 914813" d="M91.761,109.469H77.284V107.3H73.5V98.7c0-4.276,6.718-7.1,6.718-7.1h4.819s6.718,2.821,6.718,7.1v10.772Z" transform="translate(-64.887 -80.539)" fill="#fff"/>
      <rect id="Rectángulo_408372" data-name="Rectángulo 408372" width="3.779" height="3.769" transform="translate(8.618 26.761)" fill="#ffb87e"/>
      <path id="Trazado_914814" data-name="Trazado 914814" d="M106.771,341.04v1.077H94.894V341.04l.965-3.07h9.946Z" transform="translate(-83.463 -294.505)" fill="#fff"/>
      <rect id="Rectángulo_408373" data-name="Rectángulo 408373" width="9.945" height="14.534" transform="translate(12.397 28.931)" fill="#fff"/>
      <path id="Trazado_914815" data-name="Trazado 914815" d="M117.5,38.875h0a3.771,3.771,0,0,0,3.771-3.771V33.271A3.771,3.771,0,0,0,117.5,29.5h0a3.771,3.771,0,0,0-3.771,3.771V35.1A3.772,3.772,0,0,0,117.5,38.875Z" transform="translate(-99.821 -26.606)" fill="#ffdba9"/>
      <path id="Trazado_914816" data-name="Trazado 914816" d="M117.019,35.1V33.271a3.771,3.771,0,0,1,2.127-3.395,3.773,3.773,0,0,0-5.416,3.395V35.1a3.773,3.773,0,0,0,5.416,3.395A3.771,3.771,0,0,1,117.019,35.1Z" transform="translate(-99.822 -26.606)" fill="#ffb87e"/>
      <path id="Trazado_914817" data-name="Trazado 914817" d="M344.073,35.1V33.271a3.771,3.771,0,0,1,2.127-3.395,3.773,3.773,0,0,0-5.415,3.395V35.1A3.773,3.773,0,0,0,346.2,38.5,3.772,3.772,0,0,1,344.073,35.1Z" transform="translate(-297.013 -26.606)" fill="#ffb87e"/>
      <path id="Trazado_914818" data-name="Trazado 914818" d="M73.5,109.571v8.6h3.779V104.121C75.477,105.366,73.5,107.255,73.5,109.571Z" transform="translate(-64.887 -91.413)" fill="#e3e9ee"/>
      <g id="Grupo_1198085" data-name="Grupo 1198085" transform="translate(22.353 0)">
        <path id="Trazado_914819" data-name="Trazado 914819" d="M303.312,230.6V227.43h-4.638V234.8C300.853,234.8,303.312,232.775,303.312,230.6Z" transform="translate(-282.794 -198.504)" fill="#ffdba9"/>
        <path id="Trazado_914820" data-name="Trazado 914820" d="M177.934,227.43V230.6c0,2.179,2.389,4.209,4.569,4.209h0V227.43Z" transform="translate(-177.934 -198.504)" fill="#ffdba9"/>
        <path id="Trazado_914821" data-name="Trazado 914821" d="M182.5,103.9h11.311l.07-1.642h4.569V91.483c0-5.218-8.2-8.181-8.2-8.181h-4.117s-8.2,2.962-8.2,8.181v10.776H182.5V103.9Z" transform="translate(-177.934 -73.332)" fill="#fb8065"/>
        <rect id="Rectángulo_408374" data-name="Rectángulo 408374" width="11.311" height="20.069" transform="translate(4.569 30.568)" fill="#84b9f9"/>
        <path id="Trazado_914822" data-name="Trazado 914822" d="M188.712,83.3h-2.576s-8.2,2.962-8.2,8.181v10.776h3.288V92.01C181.223,88.027,186.3,84.67,188.712,83.3Z" transform="translate(-177.935 -73.333)" fill="#e25735"/>
        <path id="Trazado_914823" data-name="Trazado 914823" d="M204.882,392.5l-1.179,2.63v1.315h4.9a1.973,1.973,0,0,0,1.973-1.973,1.973,1.973,0,0,0,1.973,1.973h4.9V395.13l-1.249-2.63Z" transform="translate(-200.314 -341.863)" fill="#fb8065"/>
        <path id="Trazado_914824" data-name="Trazado 914824" d="M225.537,18.943h0a4.6,4.6,0,0,1-4.6-4.6V12.1a4.6,4.6,0,0,1,4.6-4.6h0a4.6,4.6,0,0,1,4.6,4.6v2.236A4.6,4.6,0,0,1,225.537,18.943Z" transform="translate(-215.278 -7.5)" fill="#ffdba9"/>
        <path id="Trazado_914825" data-name="Trazado 914825" d="M224.222,14.339V12.1a4.6,4.6,0,0,1,2.959-4.3,4.589,4.589,0,0,0-1.644-.3h0a4.6,4.6,0,0,0-4.6,4.6v2.236a4.6,4.6,0,0,0,4.6,4.6h0a4.592,4.592,0,0,0,1.644-.3A4.6,4.6,0,0,1,224.222,14.339Z" transform="translate(-215.278 -7.5)" fill="#ffb87e"/>
        <rect id="Rectángulo_408375" data-name="Rectángulo 408375" width="3.288" height="20.069" transform="translate(4.569 30.568)" fill="#2f94f6"/>
        <path id="Trazado_914826" data-name="Trazado 914826" d="M208.171,392.5h-3.288l-1.179,2.63v1.315h3.288V395.13Z" transform="translate(-200.314 -341.863)" fill="#e25735"/>
      </g>
      <path id="Trazado_914827" data-name="Trazado 914827" d="M101.128,342.117H94.894V341.04l.965-3.07h5.269Z" transform="translate(-83.463 -294.505)" fill="#e3e9ee"/>
      <g id="Grupo_1198086" data-name="Grupo 1198086" transform="translate(42.395 25.045)">
        <path id="Trazado_914828" data-name="Trazado 914828" d="M345.674,212.193h0a3.4,3.4,0,0,0-4.435,1.208s-3.246,6.02-4.691,7.464c-2.169,2.169-8.362,4.625-5.485,12.655v5.7h11.115v-5.7s10.142-12.215,10.909-17.262c.713-4.693-4.918-18.338-4.918-18.338-3.409,0-3.928,2.614-3.486,5.513.348,2.288,1.752,9.3,1.752,9.3Z" transform="translate(-330.314 -197.92)" fill="#ffdba9"/>
      </g>
      <rect id="Rectángulo_408376" data-name="Rectángulo 408376" width="3.288" height="14.534" transform="translate(12.397 28.931)" fill="#e3e9ee"/>
      <path id="Trazado_914829" data-name="Trazado 914829" d="M15.456,212.193h0a3.4,3.4,0,0,1,4.435,1.208s3.246,6.02,4.691,7.464c2.169,2.169,8.362,4.625,5.485,12.655v5.7H18.952v-5.7S8.81,221.3,8.043,216.257c-.713-4.693,4.918-18.338,4.918-18.338,3.409,0,3.928,2.614,3.486,5.513-.348,2.288-1.752,9.3-1.752,9.3Z" transform="translate(-7.98 -172.875)" fill="#ffdba9"/>
      <path id="Trazado_914830" data-name="Trazado 914830" d="M11.332,215.87c-.564-3.772,2.837-13.233,4.287-17.031a3.559,3.559,0,0,0-2.657-.919s-5.631,13.645-4.918,18.338c.767,5.047,10.909,17.262,10.909,17.262v5.7h3.288v-5.8S12.1,221,11.332,215.87Z" transform="translate(-7.981 -172.875)" fill="#ffb87e"/>
      <path id="Trazado_914831" data-name="Trazado 914831" d="M334.078,324.877c-.341-6.179,2.01-6.879,3.689-8.462,2.242-2.115,7.676-11.95,7.793-12.538a3.4,3.4,0,0,0-4.321,1.263s-3.246,6.02-4.691,7.464c-2.169,2.169-8.362,4.625-5.485,12.655v5.7h3.067C334.147,328.82,334.15,326.186,334.078,324.877Z" transform="translate(-287.92 -264.614)" fill="#ffb87e"/>
      <path id="Trazado_914832" data-name="Trazado 914832" d="M438.672,206.314c.348,2.288,1.752,9.3,1.752,9.3h0a3.4,3.4,0,0,1,.915,3.516.355.355,0,0,0,.314.095c3.718-.77.144-12.947-1.505-17.984C438.553,202.1,438.338,204.124,438.672,206.314Z" transform="translate(-381.909 -175.756)" fill="#ffb87e"/>
    </g>
    <g id="Grupo_1198091" data-name="Grupo 1198091" transform="translate(7.981 7.5)">
      <g id="Grupo_1198088" data-name="Grupo 1198088" transform="translate(0 25.045)">
        <path id="Trazado_914833" data-name="Trazado 914833" d="M26.814,212.73h0c.022-.112,1.406-7.026,1.752-9.295.442-2.9-.076-5.514-3.485-5.514,0,0-1.726,4.181-3.146,8.711" transform="translate(-20.099 -197.92)" fill="none" stroke="#000" stroke-miterlimit="10" stroke-width="1.2"/>
        <path id="Trazado_914834" data-name="Trazado 914834" d="M9.251,278.53c-.867,3.041-1.47,6-1.207,7.735.767,5.048,10.909,17.263,10.909,17.263v5.7" transform="translate(-7.981 -267.928)" fill="none" stroke="#000" stroke-miterlimit="10" stroke-width="1.2"/>
        <path id="Trazado_914835" data-name="Trazado 914835" d="M55.773,316.179l-4.443-7.5a3.4,3.4,0,0,1,1.362-4.748h0a3.4,3.4,0,0,1,4.435,1.208s3.246,6.02,4.691,7.464c2.169,2.169,8.362,4.625,5.485,12.655v5.7" transform="translate(-45.216 -289.656)" fill="none" stroke="#000" stroke-miterlimit="10" stroke-width="1.2"/>
      </g>
      <g id="Grupo_1198089" data-name="Grupo 1198089" transform="translate(42.395 25.045)">
        <path id="Trazado_914836" data-name="Trazado 914836" d="M440.421,212.73h0c-.022-.112-1.406-7.026-1.752-9.295-.441-2.9.078-5.514,3.487-5.514,0,0,5.632,13.644,4.919,18.337-.466,3.063-4.382,8.765-7.392,12.775" transform="translate(-424.301 -197.92)" fill="none" stroke="#000" stroke-miterlimit="10" stroke-width="1.2"/>
        <path id="Trazado_914837" data-name="Trazado 914837" d="M420.514,455.1v-5.7s.96-1.156,2.312-2.905" transform="translate(-408.651 -413.806)" fill="none" stroke="#000" stroke-miterlimit="10" stroke-width="1.2"/>
        <path id="Trazado_914838" data-name="Trazado 914838" d="M342.593,316.179l4.443-7.5a3.4,3.4,0,0,0-1.362-4.748h0a3.4,3.4,0,0,0-4.435,1.208s-3.246,6.02-4.691,7.464c-2.169,2.169-8.362,4.625-5.485,12.655v5.7" transform="translate(-330.314 -289.656)" fill="none" stroke="#000" stroke-miterlimit="10" stroke-width="1.2"/>
      </g>
      <path id="Trazado_914839" data-name="Trazado 914839" d="M225.537,18.943h0a4.6,4.6,0,0,1-4.6-4.6V12.1a4.6,4.6,0,0,1,4.6-4.6h0a4.6,4.6,0,0,1,4.6,4.6v2.236A4.6,4.6,0,0,1,225.537,18.943Z" transform="translate(-192.925 -7.5)" fill="none" stroke="#000" stroke-miterlimit="10" stroke-width="1.2"/>
      <g id="Grupo_1198090" data-name="Grupo 1198090" transform="translate(22.353 10.35)">
        <path id="Trazado_914840" data-name="Trazado 914840" d="M182.5,112.141c-2.179,0-4.569-2.029-4.569-4.209V93.991c0-4.131,5.137-6.847,7.28-7.8" transform="translate(-177.934 -86.19)" fill="none" stroke="#000" stroke-miterlimit="10" stroke-width="1.2"/>
        <path id="Trazado_914841" data-name="Trazado 914841" d="M278.584,86.19c2.143.954,7.28,3.67,7.28,7.8v13.942c0,2.179-2.46,4.209-4.638,4.209" transform="translate(-265.346 -86.19)" fill="none" stroke="#000" stroke-miterlimit="10" stroke-width="1.2"/>
      </g>
      <path id="Trazado_914842" data-name="Trazado 914842" d="M204.882,160.5v30.514l-1.179,2.63v1.315h4.9a1.973,1.973,0,0,0,1.973-1.973,1.973,1.973,0,0,0,1.973,1.973h4.9v-1.315l-1.249-2.63V160.5" transform="translate(-177.961 -140.377)" fill="none" stroke="#000" stroke-miterlimit="10" stroke-width="1.2"/>
      <line id="Línea_588" data-name="Línea 588" y1="16.572" transform="translate(32.612 36.038)" fill="none" stroke="#000" stroke-miterlimit="10" stroke-width="1.2"/>
      <line id="Línea_589" data-name="Línea 589" x2="4.569" transform="translate(22.353 28.926)" fill="none" stroke="#000" stroke-miterlimit="10" stroke-width="1.2"/>
      <line id="Línea_590" data-name="Línea 590" x2="4.569" transform="translate(38.302 28.926)" fill="none" stroke="#000" stroke-miterlimit="10" stroke-width="1.2"/>
      <line id="Línea_591" data-name="Línea 591" x2="11.311" transform="translate(26.922 30.568)" fill="none" stroke="#000" stroke-miterlimit="10" stroke-width="1.2"/>
      <line id="Línea_592" data-name="Línea 592" x2="11.311" transform="translate(26.922 50.637)" fill="none" stroke="#000" stroke-miterlimit="10" stroke-width="1.2"/>
      <path id="Trazado_914843" data-name="Trazado 914843" d="M344.556,38.875h0a3.771,3.771,0,0,1-3.771-3.771V33.271a3.771,3.771,0,0,1,3.771-3.771h0a3.771,3.771,0,0,1,3.771,3.771V35.1A3.772,3.772,0,0,1,344.556,38.875Z" transform="translate(-297.013 -26.606)" fill="none" stroke="#000" stroke-miterlimit="10" stroke-width="1.2"/>
      <path id="Trazado_914844" data-name="Trazado 914844" d="M334.014,227.464" transform="translate(-291.133 -198.533)" fill="none" stroke="#000" stroke-miterlimit="10" stroke-width="1.2"/>
      <path id="Trazado_914845" data-name="Trazado 914845" d="M318.074,94.888a17.623,17.623,0,0,1,4.08-2.6" transform="translate(-277.289 -81.138)" fill="none" stroke="#000" stroke-miterlimit="10" stroke-width="1.2"/>
      <path id="Trazado_914846" data-name="Trazado 914846" d="M389.5,92.6c1.293.6,6.426,3.228,6.426,6.966v12.371h-3.792" transform="translate(-339.324 -81.407)" fill="none" stroke="#000" stroke-miterlimit="10" stroke-width="1.2"/>
      <line id="Línea_593" data-name="Línea 593" x1="0.012" y1="23.609" transform="translate(52.814 17.883)" fill="none" stroke="#000" stroke-miterlimit="10" stroke-width="1.2"/>
      <path id="Trazado_914847" data-name="Trazado 914847" d="M333.81,246.145h-7.143v-1.078l.966-3.07V227.464" transform="translate(-284.752 -198.533)" fill="none" stroke="#000" stroke-miterlimit="10" stroke-width="1.2"/>
      <line id="Línea_594" data-name="Línea 594" y1="15.193" transform="translate(47.543 32.418)" fill="none" stroke="#000" stroke-miterlimit="10" stroke-width="1.2"/>
      <line id="Línea_595" data-name="Línea 595" x2="3.792" transform="translate(52.814 26.761)" fill="none" stroke="#000" stroke-miterlimit="10" stroke-width="1.2"/>
      <line id="Línea_596" data-name="Línea 596" x2="9.878" transform="translate(42.881 28.931)" fill="none" stroke="#000" stroke-miterlimit="10" stroke-width="1.2"/>
      <line id="Línea_597" data-name="Línea 597" x2="8.63" transform="translate(42.881 43.464)" fill="none" stroke="#000" stroke-miterlimit="10" stroke-width="1.2"/>
      <path id="Trazado_914848" data-name="Trazado 914848" d="M117.505,38.875h0a3.771,3.771,0,0,0,3.771-3.771V33.271a3.771,3.771,0,0,0-3.771-3.771h0a3.771,3.771,0,0,0-3.771,3.771V35.1A3.771,3.771,0,0,0,117.505,38.875Z" transform="translate(-99.825 -26.606)" fill="none" stroke="#000" stroke-miterlimit="10" stroke-width="1.2"/>
      <path id="Trazado_914849" data-name="Trazado 914849" d="M177.855,227.464" transform="translate(-155.512 -198.533)" fill="none" stroke="#000" stroke-miterlimit="10" stroke-width="1.2"/>
      <path id="Trazado_914850" data-name="Trazado 914850" d="M162.774,92.29a17.625,17.625,0,0,1,4.08,2.6" transform="translate(-142.415 -81.138)" fill="none" stroke="#000" stroke-miterlimit="10" stroke-width="1.2"/>
      <path id="Trazado_914851" data-name="Trazado 914851" d="M79.93,92.6c-1.293.6-6.426,3.228-6.426,6.966v12.371H77.3" transform="translate(-64.886 -81.407)" fill="none" stroke="#000" stroke-miterlimit="10" stroke-width="1.2"/>
      <line id="Línea_598" data-name="Línea 598" y1="23.346" x2="0.013" transform="translate(12.397 17.883)" fill="none" stroke="#000" stroke-miterlimit="10" stroke-width="1.2"/>
      <path id="Trazado_914852" data-name="Trazado 914852" d="M132.894,246.145h6.88v-1.078l-.966-3.07V227.464" transform="translate(-116.465 -198.533)" fill="none" stroke="#000" stroke-miterlimit="10" stroke-width="1.2"/>
      <line id="Línea_599" data-name="Línea 599" y1="15.193" transform="translate(17.681 32.418)" fill="none" stroke="#000" stroke-miterlimit="10" stroke-width="1.2"/>
      <line id="Línea_600" data-name="Línea 600" x1="3.792" transform="translate(8.618 26.761)" fill="none" stroke="#000" stroke-miterlimit="10" stroke-width="1.2"/>
      <line id="Línea_601" data-name="Línea 601" x1="9.878" transform="translate(12.465 28.931)" fill="none" stroke="#000" stroke-miterlimit="10" stroke-width="1.2"/>
      <line id="Línea_602" data-name="Línea 602" x1="8.893" transform="translate(13.45 43.464)" fill="none" stroke="#000" stroke-miterlimit="10" stroke-width="1.2"/>
    </g>
    <g id="Grupo_1198092" data-name="Grupo 1198092" transform="translate(37.633 23.99)">
      <line id="Línea_603" data-name="Línea 603" x2="1.973" fill="none" stroke="#fff" stroke-miterlimit="10" stroke-width="1.2"/>
      <line id="Línea_604" data-name="Línea 604" x2="1.973" transform="translate(3.946)" fill="none" stroke="#fff" stroke-miterlimit="10" stroke-width="1.2"/>
    </g>
  </g>
</svg>
