<svg xmlns="http://www.w3.org/2000/svg" xmlns:xlink="http://www.w3.org/1999/xlink" width="118" height="118" viewBox="0 0 118 118">
  <defs>
    <filter id="Trazado_896985" x="0" y="0" width="118" height="118" filterUnits="userSpaceOnUse">
      <feOffset dy="3" input="SourceAlpha"/>
      <feGaussianBlur stdDeviation="3" result="blur"/>
      <feFlood flood-opacity="0.161"/>
      <feComposite operator="in" in2="blur"/>
      <feComposite in="SourceGraphic"/>
    </filter>
  </defs>
  <g id="Grupo_1198255" data-name="Grupo 1198255" transform="translate(-1160.891 -2270.544)">
    <g id="Grupo_1197925" data-name="Grupo 1197925" transform="translate(835 -1575.456)">
      <g id="Grupo_1111318" data-name="Grupo 1111318" transform="translate(334.891 3852)">
        <g id="Grupo_1109826" data-name="Grupo 1109826" transform="translate(0)">
          <g id="Grupo_1098742" data-name="Grupo 1098742" transform="translate(0 0)">
            <g transform="matrix(1, 0, 0, 1, -9, -6)" filter="url(#Trazado_896985)">
              <g id="Trazado_896985-2" data-name="Trazado 896985" transform="translate(9 6)" fill="#fc0" opacity="0.859">
                <path d="M 49.99993515014648 99.5 C 43.31726837158203 99.5 36.83476257324219 98.19129943847656 30.73248100280762 95.61025238037109 C 24.83812141418457 93.11714172363281 19.54434776306152 89.54795837402344 14.99820137023926 85.00179290771484 C 10.45204162597656 80.45565032958984 6.88285493850708 75.16187286376953 4.389748573303223 69.26751708984375 C 1.808695197105408 63.16523742675781 0.5000017881393433 56.6827278137207 0.5000017881393433 50.00006103515625 C 0.5000017881393433 43.31726455688477 1.808695197105408 36.83475494384766 4.389748573303223 30.73247528076172 C 6.88285493850708 24.83811569213867 10.45204162597656 19.54434204101562 14.99820137023926 14.99819660186768 C 19.54434776306152 10.45203590393066 24.83812141418457 6.88284969329834 30.73248100280762 4.389742851257324 C 36.83476257324219 1.808689475059509 43.31726837158203 0.4999961853027344 49.99993515014648 0.4999961853027344 C 56.68260192871094 0.4999961853027344 63.16510772705078 1.808689475059509 69.26738739013672 4.389742851257324 C 75.16175079345703 6.88284969329834 80.45552062988281 10.45203590393066 85.00167083740234 14.99819660186768 C 89.54782867431641 19.54434204101562 93.11701202392578 24.83811569213867 95.61012268066406 30.73247528076172 C 98.19117736816406 36.83475494384766 99.49987030029297 43.31726455688477 99.49987030029297 49.99993133544922 C 99.49987030029297 56.6827278137207 98.19117736816406 63.16523742675781 95.61012268066406 69.26751708984375 C 93.11701202392578 75.16187286376953 89.54782867431641 80.45565032958984 85.00167083740234 85.00179290771484 C 80.45552062988281 89.54795837402344 75.16175079345703 93.11714172363281 69.26738739013672 95.61025238037109 C 63.16510772705078 98.19129943847656 56.68260192871094 99.5 49.99993515014648 99.5 Z" stroke="none"/>
                <path d="M 49.99993515014648 0.9999923706054688 C 43.38454818725586 0.9999923706054688 36.96757507324219 2.29541015625 30.92725372314453 4.850250244140625 C 25.09249877929688 7.318145751953125 19.85213470458984 10.85135650634766 15.35174560546875 15.35174560546875 C 10.85136413574219 19.85212707519531 7.318145751953125 25.09249114990234 4.850257873535156 30.92724609375 C 2.295417785644531 36.96757125854492 1 43.38454437255859 1 50.00006103515625 C 1 56.61544799804688 2.295417785644531 63.03242111206055 4.850257873535156 69.07273864746094 C 7.318145751953125 74.90750122070312 10.85136413574219 80.14786529541016 15.35174560546875 84.64824676513672 C 19.85213470458984 89.14863586425781 25.09249877929688 92.68184661865234 30.92725372314453 95.14974212646484 C 36.96757507324219 97.70458221435547 43.38454818725586 99 49.99993515014648 99 C 56.61532211303711 99 63.03229522705078 97.70458221435547 69.07261657714844 95.14974212646484 C 74.90737915039062 92.68184661865234 80.14773559570312 89.14863586425781 84.64812469482422 84.64824676513672 C 89.14850616455078 80.14786529541016 92.68172454833984 74.90750122070312 95.14961242675781 69.07273864746094 C 97.70445251464844 63.03242111206055 98.99987030029297 56.61544799804688 98.99987030029297 49.99993133544922 C 98.99987030029297 43.38454437255859 97.70445251464844 36.96757125854492 95.14961242675781 30.92724609375 C 92.68172454833984 25.09249114990234 89.14850616455078 19.85212707519531 84.64812469482422 15.35174560546875 C 80.14773559570312 10.85135650634766 74.90737915039062 7.318145751953125 69.07261657714844 4.850250244140625 C 63.03229522705078 2.29541015625 56.61532211303711 0.9999923706054688 49.99993515014648 0.9999923706054688 M 49.99993515014648 -7.62939453125e-06 C 77.6141357421875 -7.62939453125e-06 99.99987030029297 22.38572692871094 99.99987030029297 49.99993133544922 L 99.99987030029297 50.00006103515625 C 99.99987030029297 77.61426544189453 77.6141357421875 100 49.99993515014648 100 C 22.38573455810547 100 0 77.61426544189453 0 50.00006103515625 L 0 49.99993133544922 C 0 22.38572692871094 22.38573455810547 -7.62939453125e-06 49.99993515014648 -7.62939453125e-06 Z" stroke="none" fill="#fff"/>
              </g>
            </g>
            <g id="Rectángulo_400907" data-name="Rectángulo 400907" transform="translate(0)" fill="none" stroke="#fff" stroke-width="1">
              <rect width="100" height="100" rx="50" stroke="none"/>
              <rect x="0.5" y="0.5" width="99" height="99" rx="49.5" fill="none"/>
            </g>
          </g>
        </g>
      </g>
    </g>
    <g id="paper_5382983_1_" data-name="paper_5382983 (1)" transform="translate(1182.425 2291.161)">
      <path id="Trazado_916362" data-name="Trazado 916362" d="M62.3,1V56.378H55.657v-29.9A36.777,36.777,0,0,0,43.474,14.291H18V1Z" transform="translate(0.753 0.108)" fill="#b58254"/>
      <path id="Trazado_916363" data-name="Trazado 916363" d="M56.3,68.378H12V13H44.119V25.183H56.3Z" transform="translate(0.108 1.398)" fill="#f5f2ff"/>
      <path id="Trazado_916364" data-name="Trazado 916364" d="M41.721,55.645v4.43H24v-4.43a3.185,3.185,0,0,1,2.691-3.057,3.2,3.2,0,0,0,2.027-1.573C29.693,49,32.86,49,32.86,49S36.028,49,37,51.016a3.2,3.2,0,0,0,2.027,1.573,3.185,3.185,0,0,1,2.691,3.057Z" transform="translate(1.398 5.27)" fill="#b58254"/>
      <path id="Trazado_916365" data-name="Trazado 916365" d="M47,5h7.753v7.753H47Z" transform="translate(3.872 0.538)" fill="#6fc500"/>
      <path id="Trazado_916366" data-name="Trazado 916366" d="M53.183,25.183H41V13A36.777,36.777,0,0,1,53.183,25.183Z" transform="translate(3.227 1.398)" fill="#b3b3c6"/>
      <path id="Trazado_916367" data-name="Trazado 916367" d="M44.225,33s1.108,12.183-12.183,12.183c0,0-.022-.244-.022-.676C32.02,41.949,32.829,33,44.225,33Z" transform="translate(2.261 3.549)" fill="#54b700"/>
      <path id="Trazado_916368" data-name="Trazado 916368" d="M33.207,44.508c0,.432-.022.676-.022.676C19.895,45.183,21,33,21,33,32.4,33,33.207,41.949,33.207,44.508Z" transform="translate(1.073 3.549)" fill="#6fc500"/>
      <g id="Grupo_1198254" data-name="Grupo 1198254" transform="translate(11)">
        <path id="Trazado_916369" data-name="Trazado 916369" d="M43.515,42.572c3.577-3.917,3.13-9.336,3.11-9.564A1.108,1.108,0,0,0,45.522,32c-4.435,0-7.858,1.288-10.176,3.827a11.2,11.2,0,0,0-2.029,3.193,11.2,11.2,0,0,0-2.029-3.193C28.968,33.288,25.545,32,21.11,32a1.108,1.108,0,0,0-1.1,1.008c-.021.229-.468,5.647,3.11,9.564,2.12,2.321,5.173,3.584,9.069,3.786v3.468a5.236,5.236,0,0,0-4.037,2.534,2.049,2.049,0,0,1-1.329.989c-2.254.632-3.494,2.1-3.494,4.126V60.8H21.11a1.108,1.108,0,1,0,0,2.215H45.476a1.108,1.108,0,1,0,0-2.215H43.261V57.474c0-2.028-1.24-3.493-3.494-4.128a2.042,2.042,0,0,1-1.329-.989A5.238,5.238,0,0,0,34.4,49.824V46.358c3.916-.194,6.986-1.456,9.114-3.787ZM36.98,37.321c1.7-1.857,4.2-2.89,7.448-3.075a10.9,10.9,0,0,1-2.548,6.833c-1.7,1.857-4.2,2.89-7.448,3.075A10.9,10.9,0,0,1,36.98,37.321ZM22.206,34.246c3.24.185,5.737,1.213,7.432,3.06A10.957,10.957,0,0,1,32.2,44.152c-3.241-.185-5.737-1.213-7.432-3.06A10.945,10.945,0,0,1,22.206,34.246ZM36.445,53.324a4.239,4.239,0,0,0,2.722,2.154c1.878.529,1.878,1.595,1.878,2V60.8H25.54V57.474c0-.4,0-1.466,1.878-1.995a4.246,4.246,0,0,0,2.722-2.154c.547-1.126,2.463-1.384,3.149-1.388s2.608.261,3.155,1.387Z" transform="translate(-10.034 3.442)" fill="#352727"/>
        <path id="Trazado_916370" data-name="Trazado 916370" d="M29.321,39.755l-4.43-4.43a1.107,1.107,0,1,0-1.566,1.566l4.43,4.43a1.107,1.107,0,0,0,1.566-1.566Z" transform="translate(-9.709 3.765)" fill="#352727"/>
        <path id="Trazado_916371" data-name="Trazado 916371" d="M41.321,35.325a1.106,1.106,0,0,0-1.566,0l-4.43,4.43a1.107,1.107,0,1,0,1.566,1.566l4.43-4.43A1.106,1.106,0,0,0,41.321,35.325Z" transform="translate(-8.419 3.765)" fill="#352727"/>
        <path id="Trazado_916372" data-name="Trazado 916372" d="M29.215,55H28.108a1.108,1.108,0,1,0,0,2.215h1.108a1.108,1.108,0,0,0,0-2.215Z" transform="translate(-9.279 5.916)" fill="#352727"/>
        <path id="Trazado_916373" data-name="Trazado 916373" d="M35.108,57.215h1.108a1.108,1.108,0,0,0,0-2.215H35.108a1.108,1.108,0,0,0,0,2.215Z" transform="translate(-8.526 5.916)" fill="#352727"/>
        <path id="Trazado_916374" data-name="Trazado 916374" d="M31,53.108a1.107,1.107,0,0,0,1.108,1.108h1.108a1.108,1.108,0,0,0,0-2.215H32.108A1.107,1.107,0,0,0,31,53.108Z" transform="translate(-8.849 5.593)" fill="#352727"/>
        <path id="Trazado_916375" data-name="Trazado 916375" d="M21.108,21.215H33.291a1.108,1.108,0,1,0,0-2.215H21.108a1.108,1.108,0,1,0,0,2.215Z" transform="translate(-10.032 2.044)" fill="#352727"/>
        <path id="Trazado_916376" data-name="Trazado 916376" d="M21.108,25.215H24.43a1.108,1.108,0,1,0,0-2.215H21.108a1.108,1.108,0,1,0,0,2.215Z" transform="translate(-10.032 2.474)" fill="#352727"/>
        <path id="Trazado_916377" data-name="Trazado 916377" d="M36.108,21.215h1.108a1.108,1.108,0,1,0,0-2.215H36.108a1.108,1.108,0,0,0,0,2.215Z" transform="translate(-8.419 2.044)" fill="#352727"/>
        <path id="Trazado_916378" data-name="Trazado 916378" d="M38.076,23H28.108a1.108,1.108,0,1,0,0,2.215h9.968a1.108,1.108,0,1,0,0-2.215Z" transform="translate(-9.279 2.474)" fill="#352727"/>
        <path id="Trazado_916379" data-name="Trazado 916379" d="M21.108,29.215H42.151a1.108,1.108,0,0,0,0-2.215H21.108a1.108,1.108,0,1,0,0,2.215Z" transform="translate(-10.032 2.904)" fill="#352727"/>
        <path id="Trazado_916380" data-name="Trazado 916380" d="M25.108,6.215H37.291a1.108,1.108,0,0,0,0-2.215H25.108a1.108,1.108,0,0,0,0,2.215Z" transform="translate(-9.602 0.43)" fill="#352727"/>
        <path id="Trazado_916381" data-name="Trazado 916381" d="M25.108,10.215H28.43A1.108,1.108,0,0,0,28.43,8H25.108a1.108,1.108,0,0,0,0,2.215Z" transform="translate(-9.602 0.86)" fill="#352727"/>
        <path id="Trazado_916382" data-name="Trazado 916382" d="M40.108,6.215h1.108a1.108,1.108,0,0,0,0-2.215H40.108a1.108,1.108,0,0,0,0,2.215Z" transform="translate(-7.988 0.43)" fill="#352727"/>
        <path id="Trazado_916383" data-name="Trazado 916383" d="M42.076,8H32.108a1.108,1.108,0,0,0,0,2.215h9.968a1.108,1.108,0,0,0,0-2.215Z" transform="translate(-8.849 0.86)" fill="#352727"/>
        <path id="Trazado_916384" data-name="Trazado 916384" d="M56.41,70.884a1.107,1.107,0,0,0,1.108-1.108V57.593h5.538a1.107,1.107,0,0,0,1.108-1.108V1.108A1.107,1.107,0,0,0,63.055,0h-44.3a1.107,1.107,0,0,0-1.108,1.108V13.291H12.108A1.107,1.107,0,0,0,11,14.4V69.776a1.107,1.107,0,0,0,1.108,1.108ZM45.334,16.443a36.378,36.378,0,0,1,9.075,9.031H45.334Zm-32.119-.937H21.45a1.108,1.108,0,0,0,0-2.215H19.86V2.215H61.948V55.378h-4.43v-28.8a1.111,1.111,0,0,0-.146-.549,37.541,37.541,0,0,0-12.6-12.6,1.1,1.1,0,0,0-.549-.146H26.506a1.108,1.108,0,1,0,0,2.215H43.119V26.581a1.107,1.107,0,0,0,1.108,1.108H55.3v40.98H13.215Z" transform="translate(-11)" fill="#352727"/>
        <path id="Trazado_916385" data-name="Trazado 916385" d="M47.108,13.968H54.86a1.107,1.107,0,0,0,1.108-1.108V5.108A1.107,1.107,0,0,0,54.86,4H47.108A1.107,1.107,0,0,0,46,5.108V12.86A1.107,1.107,0,0,0,47.108,13.968Zm1.108-7.753h5.538v5.538H48.215Z" transform="translate(-7.235 0.43)" fill="#352727"/>
      </g>
    </g>
  </g>
</svg>
