<svg xmlns="http://www.w3.org/2000/svg" xmlns:xlink="http://www.w3.org/1999/xlink" width="118" height="118" viewBox="0 0 118 118">
  <defs>
    <filter id="Trazado_896985" x="0" y="0" width="118" height="118" filterUnits="userSpaceOnUse">
      <feOffset dy="3" input="SourceAlpha"/>
      <feGaussianBlur stdDeviation="3" result="blur"/>
      <feFlood flood-opacity="0.161"/>
      <feComposite operator="in" in2="blur"/>
      <feComposite in="SourceGraphic"/>
    </filter>
  </defs>
  <g id="Grupo_1198546" data-name="Grupo 1198546" transform="translate(-616.891 -2883.351)">
    <g id="Grupo_1198130" data-name="Grupo 1198130" transform="translate(291 -962.649)">
      <g id="Grupo_1111318" data-name="Grupo 1111318" transform="translate(334.891 3852)">
        <g id="Grupo_1109826" data-name="Grupo 1109826" transform="translate(0)">
          <g id="Grupo_1098742" data-name="Grupo 1098742" transform="translate(0 0)">
            <g transform="matrix(1, 0, 0, 1, -9, -6)" filter="url(#Trazado_896985)">
              <g id="Trazado_896985-2" data-name="Trazado 896985" transform="translate(9 6)" fill="#fc0" opacity="0.859">
                <path d="M 49.99993515014648 99.25 C 43.35091018676758 99.25 36.90116119384766 97.94794464111328 30.82986831665039 95.37999725341797 C 24.96530914306641 92.89950561523438 19.6982421875 89.34828948974609 15.17497539520264 84.82501983642578 C 10.65170860290527 80.3017578125 7.100495338439941 75.03469085693359 4.620001792907715 69.17012786865234 C 2.05205512046814 63.09883499145508 0.7500017881393433 56.64908981323242 0.7500017881393433 50.00006103515625 C 0.7500017881393433 43.35090255737305 2.05205512046814 36.90115737915039 4.620001792907715 30.82986259460449 C 7.100495338439941 24.96530342102051 10.65170860290527 19.6982364654541 15.17497539520264 15.17496967315674 C 19.6982421875 10.65170288085938 24.96530914306641 7.100489616394043 30.82986831665039 4.619996070861816 C 36.90116119384766 2.05204963684082 43.35091018676758 0.7499961853027344 49.99993515014648 0.7499961853027344 C 56.64896011352539 0.7499961853027344 63.09870910644531 2.05204963684082 69.16999816894531 4.619996070861816 C 75.03456115722656 7.100489616394043 80.30162811279297 10.65170288085938 84.82489776611328 15.17496967315674 C 89.34815979003906 19.6982364654541 92.89937591552734 24.96530342102051 95.37986755371094 30.82986259460449 C 97.94781494140625 36.90115737915039 99.24987030029297 43.35090255737305 99.24987030029297 49.99993133544922 C 99.24987030029297 56.64908981323242 97.94781494140625 63.09883499145508 95.37986755371094 69.17012786865234 C 92.89937591552734 75.03469085693359 89.34815979003906 80.3017578125 84.82489776611328 84.82501983642578 C 80.30162811279297 89.34828948974609 75.03456115722656 92.89950561523438 69.16999816894531 95.37999725341797 C 63.09870910644531 97.94794464111328 56.64896011352539 99.25 49.99993515014648 99.25 Z" stroke="none"/>
                <path d="M 49.99993515014648 1.499992370605469 C 43.45182037353516 1.499992370605469 37.10037612915039 2.782127380371094 31.12203216552734 5.310752868652344 C 25.34687805175781 7.753440856933594 20.15993499755859 11.25067138671875 15.70529174804688 15.70529937744141 C 11.25066375732422 20.15994262695312 7.753433227539062 25.34687042236328 5.310752868652344 31.12202453613281 C 2.782119750976562 37.10038375854492 1.499992370605469 43.45182418823242 1.499992370605469 50.00006866455078 C 1.499992370605469 56.54818344116211 2.782119750976562 62.89962387084961 5.310752868652344 68.87796783447266 C 7.753433227539062 74.65312194824219 11.25066375732422 79.84006500244141 15.70529174804688 84.29469299316406 C 20.15993499755859 88.74932861328125 25.34687805175781 92.24656677246094 31.12203216552734 94.68925476074219 C 37.10037612915039 97.21788024902344 43.45182037353516 98.5 49.99993515014648 98.5 C 56.54804992675781 98.5 62.89949417114258 97.21788024902344 68.87783813476562 94.68925476074219 C 74.65299224853516 92.24656677246094 79.83993530273438 88.74932861328125 84.29456329345703 84.29469299316406 C 88.74919128417969 79.84006500244141 92.24643707275391 74.65312194824219 94.68911743164062 68.87796783447266 C 97.21775054931641 62.89962387084961 98.49986267089844 56.54818344116211 98.49986267089844 49.99992370605469 C 98.49986267089844 43.45182418823242 97.21775054931641 37.10038375854492 94.68911743164062 31.12202453613281 C 92.24643707275391 25.34687042236328 88.74919128417969 20.15994262695312 84.29456329345703 15.70529937744141 C 79.83993530273438 11.25067138671875 74.65299224853516 7.753440856933594 68.87783813476562 5.310752868652344 C 62.89949417114258 2.782127380371094 56.54804992675781 1.499992370605469 49.99993515014648 1.499992370605469 M 49.99993515014648 -7.62939453125e-06 C 77.6141357421875 -7.62939453125e-06 99.99986267089844 22.3857421875 99.99986267089844 49.99992370605469 L 99.99986267089844 50.00006866455078 C 99.99986267089844 77.61426544189453 77.6141357421875 100 49.99993515014648 100 C 22.38573455810547 100 -7.62939453125e-06 77.61426544189453 -7.62939453125e-06 50.00006866455078 L -7.62939453125e-06 49.99992370605469 C -7.62939453125e-06 22.3857421875 22.38573455810547 -7.62939453125e-06 49.99993515014648 -7.62939453125e-06 Z" stroke="none" fill="#fff"/>
              </g>
            </g>
            <g id="Rect치ngulo_400907" data-name="Rect치ngulo 400907" transform="translate(0)" fill="none" stroke="#fff" stroke-width="1.5">
              <rect width="100" height="100" rx="50" stroke="none"/>
              <rect x="0.75" y="0.75" width="98.5" height="98.5" rx="49.25" fill="none"/>
            </g>
          </g>
        </g>
      </g>
    </g>
    <g id="smart-farm_3474044" transform="translate(628.178 2897.638)">
      <g id="Grupo_1198574" data-name="Grupo 1198574" transform="translate(16.99 16.99)">
        <path id="Trazado_917117" data-name="Trazado 917117" d="M78.969,24H26.476A2.476,2.476,0,0,0,24,26.476V55.2a2.476,2.476,0,0,0,2.476,2.476h6.438l8.914,9.161V57.675H78.969A2.476,2.476,0,0,0,81.445,55.2V26.476A2.476,2.476,0,0,0,78.969,24Z" transform="translate(-24 -24)" fill="#57e6b6"/>
        <path id="Trazado_917118" data-name="Trazado 917118" d="M57.984,200a4.935,4.935,0,0,0-1.944.4,4.953,4.953,0,0,0,6.859,5.15A4.945,4.945,0,0,0,57.984,200Z" transform="translate(-52.041 -178.211)" fill="#f8fefc"/>
        <path id="Trazado_917119" data-name="Trazado 917119" d="M113.984,205.943a4.935,4.935,0,0,1-1.944-.4,4.953,4.953,0,0,1,6.859-5.15,4.945,4.945,0,0,1-4.915,5.546Z" transform="translate(-101.108 -178.211)" fill="#f8fefc"/>
        <ellipse id="Elipse_12138" data-name="Elipse 12138" cx="5.491" cy="6.04" rx="5.491" ry="6.04" transform="translate(23.231 3.464)" fill="#f8fefc"/>
        <g id="Grupo_1198571" data-name="Grupo 1198571" transform="translate(20.22 27.732)">
          <path id="Trazado_917120" data-name="Trazado 917120" d="M239.359,298.742V278.6a2.476,2.476,0,0,0-1.524-2.285L227.474,272H219.55l-10.361,4.317a2.476,2.476,0,0,0-1.524,2.286v20.139Z" transform="translate(-205.147 -269.029)" fill="#fac850"/>
          <path id="Trazado_917121" data-name="Trazado 917121" d="M305.569,251.462l-4.952,7.433-4.952-7.433L297.646,248h5.943Z" transform="translate(-282.252 -248)" fill="#ffd4cf"/>
          <rect id="Rect치ngulo_408536" data-name="Rect치ngulo 408536" width="14.277" height="19.768" rx="2" transform="translate(8.502 25.151) rotate(-90)" fill="#fa7d29"/>
          <g id="Grupo_1198570" data-name="Grupo 1198570" transform="translate(0 14.856)">
            <path id="Trazado_917122" data-name="Trazado 917122" d="M189.928,376.914l2.971-2.971v-.99A4.952,4.952,0,0,1,197.851,368v9.9l-4.952,4.952h-3.168a2.4,2.4,0,0,1-2.368-2.815l.2-1.135A2.4,2.4,0,0,1,189.928,376.914Z" transform="translate(-187.327 -368)" fill="#ffd4cf"/>
            <path id="Trazado_917123" data-name="Trazado 917123" d="M407.923,376.914l-2.971-2.971v-.99A4.952,4.952,0,0,0,400,368v9.9l4.952,4.952h3.168a2.4,2.4,0,0,0,2.368-2.815l-.2-1.135A2.4,2.4,0,0,0,407.923,376.914Z" transform="translate(-373.67 -368)" fill="#ffd4cf"/>
          </g>
        </g>
        <path id="Trazado_917124" data-name="Trazado 917124" d="M293.866,94.933H280L283.962,88H289.9Z" transform="translate(-248.306 -80.077)" fill="#fac850"/>
        <ellipse id="Elipse_12139" data-name="Elipse 12139" cx="10.982" cy="3.844" rx="10.982" ry="3.844" transform="translate(27.624 13.347)" fill="#fa7d29"/>
        <g id="Grupo_1198572" data-name="Grupo 1198572" transform="translate(32.684 16.517)">
          <path id="Trazado_917125" data-name="Trazado 917125" d="M310.71,248h-5.943l-.975,1.7,1.515,1.01a4.457,4.457,0,0,0,4.944,0l1.455-.97Z" transform="translate(-301.838 -236.785)" fill="#fbb8b0"/>
          <path id="Trazado_917126" data-name="Trazado 917126" d="M299.885,158.72l-2.028-.676a12.38,12.38,0,0,0-7.83,0L288,158.72v6.6a2.476,2.476,0,0,0,1.1,2.06l3.467,2.311a2.476,2.476,0,0,0,2.747,0l3.467-2.311a2.476,2.476,0,0,0,1.1-2.06Z" transform="translate(-288 -157.409)" fill="#ffd4cf"/>
        </g>
        <g id="Grupo_1198573" data-name="Grupo 1198573" transform="translate(3.962 3.962)">
          <path id="Trazado_917127" data-name="Trazado 917127" d="M57.984,56a4.935,4.935,0,0,0-1.944.4,4.953,4.953,0,0,0,6.859,5.15A4.945,4.945,0,0,0,57.984,56Z" transform="translate(-56.003 -56)" fill="#f8fefc"/>
          <path id="Trazado_917128" data-name="Trazado 917128" d="M113.984,61.943a4.935,4.935,0,0,1-1.944-.4A4.953,4.953,0,0,1,118.9,56.4a4.945,4.945,0,0,1-4.915,5.546Z" transform="translate(-105.07 -56)" fill="#f8fefc"/>
          <path id="Trazado_917129" data-name="Trazado 917129" d="M57.984,128a4.935,4.935,0,0,0-1.944.4,4.953,4.953,0,0,0,6.859,5.15A4.945,4.945,0,0,0,57.984,128Z" transform="translate(-56.003 -119.086)" fill="#f8fefc"/>
          <path id="Trazado_917130" data-name="Trazado 917130" d="M113.984,133.943a4.935,4.935,0,0,1-1.944-.4,4.953,4.953,0,0,1,6.859-5.15,4.945,4.945,0,0,1-4.915,5.546Z" transform="translate(-105.07 -119.086)" fill="#f8fefc"/>
        </g>
      </g>
      <g id="Grupo_1198575" data-name="Grupo 1198575" transform="translate(16 16)">
        <path id="Trazado_917131" data-name="Trazado 917131" d="M37.789,49.675H34.818a.99.99,0,0,0-.99.99v6.723l-7.214-7.414a.99.99,0,0,0-.71-.3H19.467a1.487,1.487,0,0,1-1.486-1.486V19.467a1.487,1.487,0,0,1,1.486-1.486h3.467V16H19.467A3.47,3.47,0,0,0,16,19.467V48.189a3.47,3.47,0,0,0,3.467,3.467h6.02l8.622,8.862a.99.99,0,0,0,1.7-.691V51.655h1.981Z" transform="translate(-16 -16)"/>
        <path id="Trazado_917132" data-name="Trazado 917132" d="M138.512,48.189V19.467A3.47,3.47,0,0,0,135.045,16H88v1.981h47.045a1.487,1.487,0,0,1,1.486,1.486V48.189a1.487,1.487,0,0,1-1.486,1.486h-5.093L124.248,47.3l-1.284-2.244,1.129-.753a3.46,3.46,0,0,0,1.544-2.884v-3.5c3.2-.9,4.952-2.333,4.952-4.088,0-1.065-.667-2.577-3.843-3.732-.375-.136-.771-.262-1.185-.377l-3.026-5.3a.99.99,0,0,0-.86-.5h-5.943a.99.99,0,0,0-.86.5l-3.026,5.3c-.414.115-.81.24-1.185.377-3.176,1.155-3.843,2.667-3.843,3.732,0,1.755,1.751,3.192,4.952,4.088v3.5a3.46,3.46,0,0,0,1.544,2.885l1.069.713L113.076,47.3l-9.118,3.8a3.457,3.457,0,0,0-2.133,3.2V64.531h1.981V54.3a1.482,1.482,0,0,1,.914-1.371l8.577-3.574,3.514,5.275h-6.775a2.231,2.231,0,0,0-2.228,2.228V59.41a5.946,5.946,0,0,0-2.93,5.121v.58L102.46,67.53a3.387,3.387,0,0,0-2.906,2.786l-.2,1.135a3.394,3.394,0,0,0,3.344,3.975h32.046a3.394,3.394,0,0,0,3.344-3.975l-.2-1.135a3.387,3.387,0,0,0-2.906-2.786l-2.419-2.419v-.58a5.946,5.946,0,0,0-2.971-5.145V56.855a2.231,2.231,0,0,0-2.228-2.228h-6.858l3.515-5.275,8.577,3.574a1.482,1.482,0,0,1,.914,1.371V64.531H135.5V54.3a3.457,3.457,0,0,0-1.22-2.641h.766a3.47,3.47,0,0,0,3.467-3.467ZM102.7,73.445a1.413,1.413,0,0,1-1.392-1.655l.2-1.135a1.411,1.411,0,0,1,1.392-1.172.99.99,0,0,0,.7-.29l2.971-2.971a.99.99,0,0,0,.29-.7v-.99a3.969,3.969,0,0,1,2.971-3.836v8.378l-4.372,4.372Zm8.531-2.971h14.985l2.971,2.971H108.26Zm19.648-4.252,2.971,2.971a.99.99,0,0,0,.7.29,1.411,1.411,0,0,1,1.393,1.172l.2,1.135a1.413,1.413,0,0,1-1.393,1.655h-2.758l-4.372-4.372V60.695a3.969,3.969,0,0,1,2.971,3.836v.99a.991.991,0,0,0,.29.7Zm-3.262-9.367v1.816a5.963,5.963,0,0,0-.99-.083.99.99,0,0,0-.99.99v8.914H111.812V59.579a.99.99,0,0,0-.99-.99,5.956,5.956,0,0,0-1.032.09V56.855a.248.248,0,0,1,.248-.248H127.37A.248.248,0,0,1,127.617,56.855ZM116.307,25.9H121.1l1.872,3.275a30.143,30.143,0,0,0-8.536,0Zm-3.859,7.974a.99.99,0,0,0-.677.94v1.029c-2.156-.694-2.971-1.551-2.971-2.02s.785-1.233,2.539-1.871a25.192,25.192,0,0,1,14.731,0c1.754.638,2.539,1.4,2.539,1.871s-.815,1.326-2.971,2.02V34.818a.99.99,0,0,0-.677-.94l-2.028-.676a13.453,13.453,0,0,0-8.456,0Zm1.3,7.538V35.533l1.35-.45a11.461,11.461,0,0,1,7.2,0l1.35.45v5.885a1.483,1.483,0,0,1-.661,1.236l-3.467,2.311a1.482,1.482,0,0,1-1.648,0l-3.467-2.311a1.483,1.483,0,0,1-.661-1.236Zm4.911,12.415-3.788-5.686,1.162-2.03.745.5a3.458,3.458,0,0,0,3.846,0l.685-.457,1.139,1.99Z" transform="translate(-79.086 -16)"/>
        <path id="Trazado_917133" data-name="Trazado 917133" d="M54.933,48v1.517a5.939,5.939,0,0,0-6.3-1.041.99.99,0,0,0-.594.793A6.027,6.027,0,0,0,48,49.98a5.948,5.948,0,0,0,6.933,5.861V58.43a5.939,5.939,0,0,0-6.3-1.04.99.99,0,0,0-.594.793,6.025,6.025,0,0,0-.044.711,5.948,5.948,0,0,0,6.933,5.861v2.589a5.939,5.939,0,0,0-6.3-1.04.99.99,0,0,0-.594.793,6.025,6.025,0,0,0-.044.711,5.948,5.948,0,0,0,6.933,5.861v2.063h1.981V73.668A5.937,5.937,0,0,0,63.8,67.1a.99.99,0,0,0-.594-.792,5.939,5.939,0,0,0-6.3,1.04V64.754A5.937,5.937,0,0,0,63.8,58.182a.99.99,0,0,0-.594-.792,5.939,5.939,0,0,0-6.3,1.04V55.841A5.937,5.937,0,0,0,63.8,49.268a.99.99,0,0,0-.594-.792,5.939,5.939,0,0,0-6.295,1.04V48Zm-.99,5.943a3.967,3.967,0,0,1-3.96-3.838,3.966,3.966,0,0,1,4.948,3.714,3.954,3.954,0,0,1-.988.124Zm0,8.914a3.967,3.967,0,0,1-3.96-3.838,3.966,3.966,0,0,1,4.948,3.714A3.955,3.955,0,0,1,53.943,62.856Zm0,8.914a3.967,3.967,0,0,1-3.96-3.838,3.966,3.966,0,0,1,4.948,3.714A3.954,3.954,0,0,1,53.943,71.77Zm6.933-3.962a3.955,3.955,0,0,1,.988.124,3.966,3.966,0,0,1-4.948,3.714,3.967,3.967,0,0,1,3.96-3.838Zm0-8.914a3.955,3.955,0,0,1,.988.124,3.966,3.966,0,0,1-4.948,3.714,3.967,3.967,0,0,1,3.96-3.838Zm0-8.914a3.955,3.955,0,0,1,.988.124,3.966,3.966,0,0,1-4.948,3.714,3.967,3.967,0,0,1,3.96-3.838Z" transform="translate(-44.038 -44.037)"/>
        <path id="Trazado_917136" data-name="Trazado 917136" d="M168,255.78h10.9v1.981H168Z" transform="translate(-149.182 -226.094)"/>
        <path id="Trazado_917137" data-name="Trazado 917137" d="M191.966,169.555h1.981v1.609h-1.981Z" transform="translate(-170.181 -150.544)"/>
        <path id="Trazado_917138" data-name="Trazado 917138" d="M224,192h1.981v1.609H224Z" transform="translate(-198.249 -170.211)"/>
        <path id="Trazado_917139" data-name="Trazado 917139" d="M192,208h1.981v1.609H192Z" transform="translate(-170.211 -184.23)"/>
        <path id="Trazado_917140" data-name="Trazado 917140" d="M435.962,51.962V48.99a.99.99,0,0,0-.99-.99H432v1.981h1.981v1.981Z" transform="translate(-380.498 -44.038)"/>
        <path id="Trazado_917141" data-name="Trazado 917141" d="M432,243.962h2.971a.99.99,0,0,0,.99-.99V240h-1.981v1.981H432Z" transform="translate(-380.498 -212.268)"/>
        <path id="Trazado_917142" data-name="Trazado 917142" d="M206.943,49.991a4.961,4.961,0,0,1,3.691,1.651l1.476-1.321a6.933,6.933,0,1,0-8.635,10.627l.992-1.715a4.953,4.953,0,0,1,2.475-9.242Z" transform="translate(-177.23 -44.048)"/>
      </g>
    </g>
  </g>
</svg>
