<svg xmlns="http://www.w3.org/2000/svg" xmlns:xlink="http://www.w3.org/1999/xlink" width="118" height="118" viewBox="0 0 118 118">
  <defs>
    <filter id="Trazado_896985" x="0" y="0" width="118" height="118" filterUnits="userSpaceOnUse">
      <feOffset dy="3" input="SourceAlpha"/>
      <feGaussianBlur stdDeviation="3" result="blur"/>
      <feFlood flood-opacity="0.161"/>
      <feComposite operator="in" in2="blur"/>
      <feComposite in="SourceGraphic"/>
    </filter>
  </defs>
  <g id="Grupo_1198569" data-name="Grupo 1198569" transform="translate(-1036.891 -2883.351)">
    <g id="Grupo_1198131" data-name="Grupo 1198131" transform="translate(711 -962.649)">
      <g id="Grupo_1111318" data-name="Grupo 1111318" transform="translate(334.891 3852)">
        <g id="Grupo_1109826" data-name="Grupo 1109826" transform="translate(0)">
          <g id="Grupo_1098742" data-name="Grupo 1098742" transform="translate(0 0)">
            <g transform="matrix(1, 0, 0, 1, -9, -6)" filter="url(#Trazado_896985)">
              <g id="Trazado_896985-2" data-name="Trazado 896985" transform="translate(9 6)" fill="#fc0" opacity="0.859">
                <path d="M 49.99993515014648 99.25 C 43.35091018676758 99.25 36.90116119384766 97.94794464111328 30.82986831665039 95.37999725341797 C 24.96530914306641 92.89950561523438 19.6982421875 89.34828948974609 15.17497539520264 84.82501983642578 C 10.65170860290527 80.3017578125 7.100495338439941 75.03469085693359 4.620001792907715 69.17012786865234 C 2.05205512046814 63.09883499145508 0.7500017881393433 56.64908981323242 0.7500017881393433 50.00006103515625 C 0.7500017881393433 43.35090255737305 2.05205512046814 36.90115737915039 4.620001792907715 30.82986259460449 C 7.100495338439941 24.96530342102051 10.65170860290527 19.6982364654541 15.17497539520264 15.17496967315674 C 19.6982421875 10.65170288085938 24.96530914306641 7.100489616394043 30.82986831665039 4.619996070861816 C 36.90116119384766 2.05204963684082 43.35091018676758 0.7499961853027344 49.99993515014648 0.7499961853027344 C 56.64896011352539 0.7499961853027344 63.09870910644531 2.05204963684082 69.16999816894531 4.619996070861816 C 75.03456115722656 7.100489616394043 80.30162811279297 10.65170288085938 84.82489776611328 15.17496967315674 C 89.34815979003906 19.6982364654541 92.89937591552734 24.96530342102051 95.37986755371094 30.82986259460449 C 97.94781494140625 36.90115737915039 99.24987030029297 43.35090255737305 99.24987030029297 49.99993133544922 C 99.24987030029297 56.64908981323242 97.94781494140625 63.09883499145508 95.37986755371094 69.17012786865234 C 92.89937591552734 75.03469085693359 89.34815979003906 80.3017578125 84.82489776611328 84.82501983642578 C 80.30162811279297 89.34828948974609 75.03456115722656 92.89950561523438 69.16999816894531 95.37999725341797 C 63.09870910644531 97.94794464111328 56.64896011352539 99.25 49.99993515014648 99.25 Z" stroke="none"/>
                <path d="M 49.99993515014648 1.499992370605469 C 43.45182037353516 1.499992370605469 37.10037612915039 2.782127380371094 31.12203216552734 5.310752868652344 C 25.34687805175781 7.753440856933594 20.15993499755859 11.25067138671875 15.70529174804688 15.70529937744141 C 11.25066375732422 20.15994262695312 7.753433227539062 25.34687042236328 5.310752868652344 31.12202453613281 C 2.782119750976562 37.10038375854492 1.499992370605469 43.45182418823242 1.499992370605469 50.00006866455078 C 1.499992370605469 56.54818344116211 2.782119750976562 62.89962387084961 5.310752868652344 68.87796783447266 C 7.753433227539062 74.65312194824219 11.25066375732422 79.84006500244141 15.70529174804688 84.29469299316406 C 20.15993499755859 88.74932861328125 25.34687805175781 92.24656677246094 31.12203216552734 94.68925476074219 C 37.10037612915039 97.21788024902344 43.45182037353516 98.5 49.99993515014648 98.5 C 56.54804992675781 98.5 62.89949417114258 97.21788024902344 68.87783813476562 94.68925476074219 C 74.65299224853516 92.24656677246094 79.83993530273438 88.74932861328125 84.29456329345703 84.29469299316406 C 88.74919128417969 79.84006500244141 92.24643707275391 74.65312194824219 94.68911743164062 68.87796783447266 C 97.21775054931641 62.89962387084961 98.49986267089844 56.54818344116211 98.49986267089844 49.99992370605469 C 98.49986267089844 43.45182418823242 97.21775054931641 37.10038375854492 94.68911743164062 31.12202453613281 C 92.24643707275391 25.34687042236328 88.74919128417969 20.15994262695312 84.29456329345703 15.70529937744141 C 79.83993530273438 11.25067138671875 74.65299224853516 7.753440856933594 68.87783813476562 5.310752868652344 C 62.89949417114258 2.782127380371094 56.54804992675781 1.499992370605469 49.99993515014648 1.499992370605469 M 49.99993515014648 -7.62939453125e-06 C 77.6141357421875 -7.62939453125e-06 99.99986267089844 22.3857421875 99.99986267089844 49.99992370605469 L 99.99986267089844 50.00006866455078 C 99.99986267089844 77.61426544189453 77.6141357421875 100 49.99993515014648 100 C 22.38573455810547 100 -7.62939453125e-06 77.61426544189453 -7.62939453125e-06 50.00006866455078 L -7.62939453125e-06 49.99992370605469 C -7.62939453125e-06 22.3857421875 22.38573455810547 -7.62939453125e-06 49.99993515014648 -7.62939453125e-06 Z" stroke="none" fill="#fff"/>
              </g>
            </g>
            <g id="Rectángulo_400907" data-name="Rectángulo 400907" transform="translate(0)" fill="none" stroke="#fff" stroke-width="1.5">
              <rect width="100" height="100" rx="50" stroke="none"/>
              <rect x="0.75" y="0.75" width="98.5" height="98.5" rx="49.25" fill="none"/>
            </g>
          </g>
        </g>
      </g>
    </g>
    <g id="onboarding_4200070" transform="translate(1057.289 2901.238)">
      <g id="Grupo_1198567" data-name="Grupo 1198567" transform="translate(1.121 1.121)">
        <g id="Grupo_1198547" data-name="Grupo 1198547" transform="translate(14.577 13.456)">
          <path id="Trazado_917094" data-name="Trazado 917094" d="M14,19.728V13H42.034V30.942h-15.7a6.733,6.733,0,0,0,6.728-6.728,6.738,6.738,0,0,0-6.728-6.728H19.607a4.463,4.463,0,0,0-3.88,2.243c-.572.011-1.144.056-1.7.112Z" transform="translate(-14 -13)" fill="#e6e9ed"/>
        </g>
        <g id="Grupo_1198548" data-name="Grupo 1198548" transform="translate(53.825 60.553)">
          <path id="Trazado_917095" data-name="Trazado 917095" d="M53.485,55l2.243,6.728H49L51.243,55Z" transform="translate(-49 -55)" fill="#ff826e"/>
        </g>
        <g id="Grupo_1198549" data-name="Grupo 1198549" transform="translate(53.993 56.067)">
          <path id="Trazado_917096" data-name="Trazado 917096" d="M53.467,51a6.641,6.641,0,0,1,2.074.325l-2.074,4.16H51.224l-2.074-4.16A6.642,6.642,0,0,1,51.224,51Z" transform="translate(-49.15 -51)" fill="#fc6e51"/>
        </g>
        <g id="Grupo_1198550" data-name="Grupo 1198550" transform="translate(58.31 56.392)">
          <path id="Trazado_917097" data-name="Trazado 917097" d="M59.728,57.693v4.485H55.243L53,55.45l2.074-4.16A6.742,6.742,0,0,1,59.728,57.693Z" transform="translate(-53 -51.29)" fill="#e6e9ed"/>
        </g>
        <g id="Grupo_1198551" data-name="Grupo 1198551" transform="translate(49.339 56.392)">
          <path id="Trazado_917098" data-name="Trazado 917098" d="M49.654,51.29l2.074,4.16-2.243,6.728H45V57.693a6.666,6.666,0,0,1,1.974-4.755,6.568,6.568,0,0,1,2.68-1.648Z" transform="translate(-45 -51.29)" fill="#e6e9ed"/>
        </g>
        <g id="Grupo_1198552" data-name="Grupo 1198552" transform="translate(30.276 62.795)">
          <path id="Trazado_917099" data-name="Trazado 917099" d="M31.364,58.121a2.975,2.975,0,0,0-.179-1.054L31.364,57H42.577v4.485H28A3.36,3.36,0,0,0,31.364,58.121Z" transform="translate(-28 -57)" fill="#d3a06c"/>
        </g>
        <g id="Grupo_1198553" data-name="Grupo 1198553" transform="translate(40.368 58.31)">
          <path id="Trazado_917100" data-name="Trazado 917100" d="M41.485,54.121v3.364H37V54.121A1.125,1.125,0,0,1,38.121,53h2.243A1.125,1.125,0,0,1,41.485,54.121Z" transform="translate(-37 -53)" fill="#ccd1d9"/>
        </g>
        <g id="Grupo_1198554" data-name="Grupo 1198554" transform="translate(31.398 44.854)">
          <path id="Trazado_917101" data-name="Trazado 917101" d="M33.485,41a2.249,2.249,0,0,1,2.243,2.243,2.259,2.259,0,0,1-2.243,2.243H31.243A2.249,2.249,0,0,1,29,43.243,2.259,2.259,0,0,1,31.243,41Z" transform="translate(-29 -41)" fill="#ccd1d9"/>
        </g>
        <g id="Grupo_1198555" data-name="Grupo 1198555" transform="translate(6.728 53.825)">
          <path id="Trazado_917102" data-name="Trazado 917102" d="M13.728,55.728H24.942v6.728H11.485A4.484,4.484,0,0,1,7,57.971V52.364a3.364,3.364,0,0,1,6.728,0Z" transform="translate(-7 -49)" fill="#fcd770"/>
        </g>
        <g id="Grupo_1198556" data-name="Grupo 1198556" transform="translate(10.092 53.825)">
          <path id="Trazado_917103" data-name="Trazado 917103" d="M10,49h5.607a6.733,6.733,0,0,1,6.728,6.728H13.364V52.364A3.36,3.36,0,0,0,10,49Z" transform="translate(-10 -49)" fill="#fcd770"/>
        </g>
        <g id="Grupo_1198557" data-name="Grupo 1198557" transform="translate(47.097 38.126)">
          <path id="Trazado_917104" data-name="Trazado 917104" d="M43.606,44.677l-.258-.785A6.643,6.643,0,0,1,43,41.751,6.757,6.757,0,0,1,49.75,35h6.683a6.738,6.738,0,0,1,6.75,6.75,6.643,6.643,0,0,1-.348,2.142l-.258.785v.011h-.011a2.219,2.219,0,0,0-1.626-.718H55.335a5.6,5.6,0,0,1-4.923-2.927l-2.927,2.927H45.243a2.193,2.193,0,0,0-1.581.662.2.2,0,0,0-.045.056Z" transform="translate(-43 -35)" fill="#656d78"/>
        </g>
        <g id="Grupo_1198558" data-name="Grupo 1198558" transform="translate(0 17.942)">
          <path id="Trazado_917105" data-name="Trazado 917105" d="M17.3,19.243A4.463,4.463,0,0,1,21.184,17h6.728a6.738,6.738,0,0,1,6.728,6.728,6.733,6.733,0,0,1-6.728,6.728H16.7a4.479,4.479,0,0,0-4.485,4.485H11.092a3.364,3.364,0,1,0,0,6.728h1.121A11.178,11.178,0,0,1,8.5,50L4.891,46a15.358,15.358,0,0,1-2.882-4.71A15.189,15.189,0,0,1,1,35.85,16.6,16.6,0,0,1,15.6,19.366v-.011c.561-.056,1.133-.1,1.7-.112Z" transform="translate(-1 -17)" fill="#b27946"/>
        </g>
        <g id="Grupo_1198559" data-name="Grupo 1198559" transform="translate(62.795 47.097)">
          <path id="Trazado_917106" data-name="Trazado 917106" d="M60.88,43.718a2.244,2.244,0,0,1-1.637,3.768H57V43h2.243a2.219,2.219,0,0,1,1.626.718Z" transform="translate(-57 -43)" fill="#f0d0b4"/>
        </g>
        <g id="Grupo_1198560" data-name="Grupo 1198560" transform="translate(47.097 47.097)">
          <path id="Trazado_917107" data-name="Trazado 917107" d="M45.243,43h2.243v4.485H45.243A2.249,2.249,0,0,1,43,45.243a2.134,2.134,0,0,1,.617-1.525.2.2,0,0,1,.045-.056A2.193,2.193,0,0,1,45.243,43Z" transform="translate(-43 -43)" fill="#f0d0b4"/>
        </g>
        <g id="Grupo_1198561" data-name="Grupo 1198561" transform="translate(51.582 44.17)">
          <path id="Trazado_917108" data-name="Trazado 917108" d="M58.213,43.317V47.8a4.484,4.484,0,0,1-4.485,4.485H51.485A4.484,4.484,0,0,1,47,47.8V43.317l2.927-2.927a5.6,5.6,0,0,0,4.923,2.927Z" transform="translate(-47 -40.39)" fill="#f0d0b4"/>
        </g>
        <g id="Grupo_1198562" data-name="Grupo 1198562" transform="translate(24.67 58.31)">
          <path id="Trazado_917109" data-name="Trazado 917109" d="M31.791,57.553a2.975,2.975,0,0,1,.179,1.054,3.36,3.36,0,0,1-3.364,3.364H23V55.243l1.783-1.783a1.586,1.586,0,0,1,2.7,1.121v.662h1.121a3.356,3.356,0,0,1,2.377.987A3.226,3.226,0,0,1,31.791,57.553Z" transform="translate(-23 -53)" fill="#f0d0b4"/>
        </g>
        <g id="Grupo_1198563" data-name="Grupo 1198563" transform="translate(6.728 31.398)">
          <path id="Trazado_917110" data-name="Trazado 917110" d="M29.427,37.971l-2.243,2.243v2.243H20.456a4.479,4.479,0,0,0,4.485,4.485h2.243A4.484,4.484,0,0,1,22.7,51.427H10.364l-2.59-2.882a11.178,11.178,0,0,0,3.712-8.332H10.364a3.364,3.364,0,0,1,0-6.728h1.121A4.479,4.479,0,0,1,15.971,29H27.184v3.555A7.665,7.665,0,0,0,29.427,37.971Z" transform="translate(-7 -29)" fill="#f0d0b4"/>
        </g>
        <g id="Grupo_1198564" data-name="Grupo 1198564" transform="translate(20.184 44.854)">
          <path id="Trazado_917111" data-name="Trazado 917111" d="M25.728,41v4.485H23.485A4.479,4.479,0,0,1,19,41Z" transform="translate(-19 -41)" fill="#ff826e"/>
        </g>
        <g id="Grupo_1198565" data-name="Grupo 1198565" transform="translate(17.942 35.883)">
          <circle id="Elipse_12137" data-name="Elipse 12137" cx="2.5" cy="2.5" r="2.5" transform="translate(-0.301 -0.242)" fill="#d3a06c"/>
        </g>
        <g id="Grupo_1198566" data-name="Grupo 1198566" transform="translate(42.611)">
          <path id="Trazado_917112" data-name="Trazado 917112" d="M61.427,18.942a2.259,2.259,0,0,1,2.243,2.243,2.249,2.249,0,0,1-2.243,2.243A2.249,2.249,0,0,1,63.67,25.67a2.259,2.259,0,0,1-2.243,2.243H59.184a2.229,2.229,0,0,1,1.581.65,2.2,2.2,0,0,1,.662,1.592A2.249,2.249,0,0,1,59.184,32.4H39V14.456a6.546,6.546,0,0,1,3.454-3.173,5.23,5.23,0,0,0,3.274-4.844v-3.2a2.193,2.193,0,0,1,.662-1.581A2.193,2.193,0,0,1,47.971,1a4.484,4.484,0,0,1,4.485,4.485v5.607a3.36,3.36,0,0,0,3.364,3.364h5.607A2.259,2.259,0,0,1,63.67,16.7,2.249,2.249,0,0,1,61.427,18.942Z" transform="translate(-39 -1)" fill="#f0d0b4"/>
        </g>
      </g>
      <g id="Grupo_1198568" data-name="Grupo 1198568" transform="translate(0 0)">
        <path id="Trazado_917113" data-name="Trazado 917113" d="M68.649,19.063a3.35,3.35,0,0,0-2.489-5.607H60.553a2.247,2.247,0,0,1-2.243-2.244V5.607A5.613,5.613,0,0,0,52.7,0a3.37,3.37,0,0,0-3.363,3.365v3.2a4.075,4.075,0,0,1-2.573,3.8,7.685,7.685,0,0,0-3.652,3.095H24.67V15.7H42.611V31.4H33.517a7.845,7.845,0,0,0-5.483-13.456H21.306a5.588,5.588,0,0,0-4.492,2.285A17.8,17.8,0,0,0,0,37.909a16.273,16.273,0,0,0,4.184,10.9l4.979,5.533A4.47,4.47,0,0,0,6.728,58.31v5.607a5.613,5.613,0,0,0,5.607,5.607H69.523V67.281H67.281V63.917a7.852,7.852,0,0,0-4.238-6.961,5.592,5.592,0,0,0,1.882-3.131h1.235a3.368,3.368,0,0,0,3.364-3.364,3.33,3.33,0,0,0-.488-1.719l.084-.251a7.876,7.876,0,0,0-7.47-10.365H54.972A7.876,7.876,0,0,0,47.5,48.49l.084.251a3.33,3.33,0,0,0-.488,1.719,3.368,3.368,0,0,0,3.364,3.364H51.7a5.583,5.583,0,0,0,1.882,3.131,7.852,7.852,0,0,0-4.238,6.961v3.364H47.1V60.553a2.245,2.245,0,0,0-2.243-2.243V52.7a5.6,5.6,0,0,0-4.663-5.511A3.357,3.357,0,0,0,37,44.854H34.762a3.364,3.364,0,0,0,0,6.728H37a3.366,3.366,0,0,0,3.117-2.113A3.358,3.358,0,0,1,42.611,52.7V58.31a2.245,2.245,0,0,0-2.243,2.243V62.8H35.26A4.471,4.471,0,0,0,31.4,60.553h-.04a2.707,2.707,0,0,0-4.581-1.45l-1.45,1.45H24.58A7.825,7.825,0,0,0,22.3,56.067h1.246a5.613,5.613,0,0,0,5.607-5.607V44.2l2.708-2.707-.794-.793a6.491,6.491,0,0,1-1.914-4.621V33.64H63.917a3.352,3.352,0,0,0,3.117-4.614,3.334,3.334,0,0,0,1.615-5.477,3.313,3.313,0,0,0,0-4.485ZM37,49.339H34.762a1.121,1.121,0,0,1,0-2.243H37a1.121,1.121,0,0,1,0,2.243ZM57.189,58.31h2.243c.139,0,.27.031.407.041l-1.1,2.2h-.857l-1.1-2.2C56.918,58.341,57.05,58.31,57.189,58.31ZM58,62.8h.626l1.495,4.485H56.5Zm7.041,1.121v3.364H62.483l-1.84-5.52,1.39-2.78A5.59,5.59,0,0,1,65.038,63.917Zm1.121-12.335H65.038V49.339h1.121a1.121,1.121,0,0,1,0,2.243Zm-16.82-1.121a1.122,1.122,0,0,1,1.121-1.121h1.121v2.243H50.461A1.122,1.122,0,0,1,49.339,50.461Zm2.9-3.364H50.461a3.336,3.336,0,0,0-.962.157,5.562,5.562,0,0,1,5.472-6.885h6.678a5.562,5.562,0,0,1,5.473,6.885,3.336,3.336,0,0,0-.962-.157H60.553a4.49,4.49,0,0,1-4.485-4.485H53.825a6.693,6.693,0,0,0,.463,2.437ZM53.825,52.7V48.682l1.66-1.66a6.71,6.71,0,0,0,5.068,2.317H62.8V52.7a3.368,3.368,0,0,1-3.364,3.364H57.189A3.368,3.368,0,0,1,53.825,52.7ZM51.582,63.917a5.592,5.592,0,0,1,3.006-4.937l1.39,2.78-1.841,5.522H51.582Zm-8.971-3.364h2.243V62.8H42.611Zm2.243,4.485v2.243H35.281a4.451,4.451,0,0,0,.6-2.243ZM2.243,37.909A15.567,15.567,0,0,1,15.8,22.551a5.5,5.5,0,0,0-.1,1,5.613,5.613,0,0,0,5.607,5.607,3.364,3.364,0,1,0,0-6.728H20.184V24.67h1.121a1.121,1.121,0,0,1,0,2.243,3.364,3.364,0,0,1,0-6.728h6.728a5.607,5.607,0,0,1,0,11.213H16.82a5.615,5.615,0,0,0-5.493,4.485h-.113a4.486,4.486,0,0,0-.063,8.971,10.1,10.1,0,0,1-2.492,5.578L5.851,47.311a14.031,14.031,0,0,1-3.608-9.4ZM8.971,63.917V58.31a2.243,2.243,0,0,1,4.485,0v2.9l-1.914,1.914,1.586,1.586L15.042,62.8H24.67v4.485H12.335A3.368,3.368,0,0,1,8.971,63.917Zm20.184-2.9V62.8H31.4a2.243,2.243,0,0,1,0,4.485H26.912V62.138l1.449-1.449A.481.481,0,0,1,29.155,61.017Zm-6.841-.464H15.7V58.31a4.439,4.439,0,0,0-.623-2.243H16.82A5.617,5.617,0,0,1,22.314,60.553Zm3.477-11.213A3.371,3.371,0,0,1,22.619,47.1h4.294v2.243Zm1.121-6.071v1.586H20.184v1.121a5.613,5.613,0,0,0,5.607,5.607h.915a3.359,3.359,0,0,1-3.158,2.243H11.712l-1.546-1.718a12.344,12.344,0,0,0,3.29-8.374V42.611H11.213a2.243,2.243,0,1,1,0-4.485h2.243V37A3.368,3.368,0,0,1,16.82,33.64H26.912v2.436A8.714,8.714,0,0,0,28.74,41.44ZM66.159,26.912H60.553v2.243h3.364a1.121,1.121,0,1,1,0,2.242H44.854V14.888A5.454,5.454,0,0,1,47.6,12.445a6.308,6.308,0,0,0,3.984-5.884v-3.2A1.124,1.124,0,0,1,52.7,2.243a3.368,3.368,0,0,1,3.364,3.364v5.606A4.492,4.492,0,0,0,60.553,15.7h5.607a1.121,1.121,0,0,1,0,2.243H60.553v2.243h5.607a1.121,1.121,0,0,1,0,2.243H60.553V24.67h5.607a1.121,1.121,0,1,1,0,2.243Z" transform="translate(0 0)"/>
        <path id="Trazado_917114" data-name="Trazado 917114" d="M18,12h2.243v2.243H18Z" transform="translate(2.184 1.456)"/>
        <path id="Trazado_917115" data-name="Trazado 917115" d="M14,12h2.243v2.243H14Z" transform="translate(1.699 1.456)"/>
        <path id="Trazado_917116" data-name="Trazado 917116" d="M19.364,32a3.364,3.364,0,1,0,3.364,3.364A3.368,3.368,0,0,0,19.364,32Zm0,4.485a1.121,1.121,0,1,1,1.121-1.121A1.122,1.122,0,0,1,19.364,36.485Z" transform="translate(1.942 3.883)"/>
      </g>
    </g>
  </g>
</svg>
