<svg xmlns="http://www.w3.org/2000/svg" xmlns:xlink="http://www.w3.org/1999/xlink" width="117.999" height="118" viewBox="0 0 117.999 118">
  <defs>
    <filter id="Trazado_874925" x="0" y="0" width="117.999" height="118" filterUnits="userSpaceOnUse">
      <feOffset dy="3" input="SourceAlpha"/>
      <feGaussianBlur stdDeviation="3" result="blur"/>
      <feFlood flood-opacity="0.161"/>
      <feComposite operator="in" in2="blur"/>
      <feComposite in="SourceGraphic"/>
    </filter>
  </defs>
  <g id="Grupo_1199209" data-name="Grupo 1199209" transform="translate(-793.782 -2850.423)">
    <g id="Grupo_1198184" data-name="Grupo 1198184" transform="translate(-5.719 339.266)">
      <g id="Grupo_1111316" data-name="Grupo 1111316" transform="translate(808.5 2517.157)">
        <g id="Grupo_1109835" data-name="Grupo 1109835" transform="translate(0 0)">
          <g id="Grupo_1107913" data-name="Grupo 1107913" transform="translate(0 0)">
            <g transform="matrix(1, 0, 0, 1, -9, -6)" filter="url(#Trazado_874925)">
              <g id="Trazado_874925-2" data-name="Trazado 874925" transform="translate(9 6)" fill="#9ad354" opacity="0.859">
                <path d="M 49.99972534179688 98.4998779296875 C 43.45164108276367 98.4998779296875 37.10022354125977 97.21776580810547 31.12189674377441 94.68914794921875 C 25.34676742553711 92.24647521972656 20.15985298156738 88.74925994873047 15.70523929595947 84.29464721679688 C 11.25062561035156 79.84004974365234 7.753411293029785 74.65313720703125 5.310725212097168 68.87800598144531 C 2.782111167907715 62.89969253540039 1.499996781349182 56.54829406738281 1.499996781349182 50.00022125244141 C 1.499996781349182 43.45157623291016 2.782111167907715 37.10017776489258 5.310725212097168 31.12186431884766 C 7.753411293029785 25.34673500061035 11.25062561035156 20.15983581542969 15.70523929595947 15.70522117614746 C 20.15985298156738 11.25062084197998 25.34676742553711 7.753406524658203 31.12189674377441 5.31073522567749 C 37.10022354125977 2.782120943069458 43.45164108276367 1.500006556510925 49.99972534179688 1.500006556510925 C 56.54780960083008 1.500006556510925 62.89922714233398 2.782120943069458 68.87755584716797 5.31073522567749 C 74.65267944335938 7.753406524658203 79.839599609375 11.25062084197998 84.29421234130859 15.70522117614746 C 88.74882507324219 20.15983581542969 92.24604034423828 25.34673500061035 94.68872833251953 31.12186431884766 C 97.21733856201172 37.10017776489258 98.49945068359375 43.45157623291016 98.49945068359375 49.99964904785156 C 98.49945068359375 56.54829406738281 97.21733856201172 62.89969253540039 94.68872833251953 68.87800598144531 C 92.24604034423828 74.65313720703125 88.74882507324219 79.84004974365234 84.29421234130859 84.29464721679688 C 79.839599609375 88.74925994873047 74.65267944335938 92.24647521972656 68.87755584716797 94.68914794921875 C 62.89922714233398 97.21776580810547 56.54780960083008 98.4998779296875 49.99972534179688 98.4998779296875 Z" stroke="none"/>
                <path d="M 49.99972534179688 3 C 43.65348052978516 3 37.49866485595703 4.242240905761719 31.70623016357422 6.692230224609375 C 26.10989379882812 9.059272766113281 21.08323669433594 12.44853210449219 16.76589202880859 16.76587677001953 C 12.44855499267578 21.08321380615234 9.059295654296875 26.10985565185547 6.692230224609375 31.70618438720703 C 4.24224853515625 37.49859619140625 3 43.65341186523438 3 50.00022888183594 C 3 56.34645843505859 4.24224853515625 62.50127410888672 6.692230224609375 68.29368591308594 C 9.059295654296875 73.8900146484375 12.44855499267578 78.91665649414062 16.76589202880859 83.23399353027344 C 21.08323669433594 87.55132293701172 26.10989379882812 90.94059753417969 31.70623016357422 93.30764007568359 C 37.49866485595703 95.75762939453125 43.65348052978516 96.99987030029297 49.99972534179688 96.99987030029297 C 56.34597015380859 96.99987030029297 62.50078582763672 95.75762939453125 68.293212890625 93.30764007568359 C 73.88955688476562 90.94059753417969 78.91621398925781 87.55132293701172 83.23355865478516 83.23399353027344 C 87.55089569091797 78.91665649414062 90.94015502929688 73.8900146484375 93.30722045898438 68.29368591308594 C 95.7572021484375 62.50127410888672 96.99945068359375 56.34645843505859 96.99945068359375 49.99964141845703 C 96.99945068359375 43.65341186523438 95.7572021484375 37.49859619140625 93.30722045898438 31.70618438720703 C 90.94015502929688 26.10985565185547 87.55089569091797 21.08321380615234 83.23355865478516 16.76587677001953 C 78.91621398925781 12.44853210449219 73.88955688476562 9.059272766113281 68.293212890625 6.692230224609375 C 62.50078582763672 4.242240905761719 56.34597015380859 3 49.99972534179688 3 M 49.99972534179688 0 C 77.61381530761719 0 99.99945068359375 22.38559722900391 99.99945068359375 49.99964141845703 L 99.99945068359375 50.00022888183594 C 99.99945068359375 77.6142578125 77.61381530761719 99.99987030029297 49.99972534179688 99.99987030029297 C 22.38563537597656 99.99987030029297 0 77.6142578125 0 50.00022888183594 L 0 49.99964141845703 C 0 22.38559722900391 22.38563537597656 0 49.99972534179688 0 Z" stroke="none" fill="#fff"/>
              </g>
            </g>
            <g id="Trazado_874923" data-name="Trazado 874923" transform="translate(0 0)" fill="none">
              <path d="M50,0a50,50,0,0,1,50,50h0A50,50,0,0,1,0,50H0A50,50,0,0,1,50,0Z" stroke="none"/>
              <path d="M 49.99972534179688 3 C 43.65348052978516 3 37.49866485595703 4.242240905761719 31.70623016357422 6.692230224609375 C 26.10989379882812 9.059272766113281 21.08323669433594 12.44853210449219 16.76589202880859 16.76587677001953 C 12.44855499267578 21.08321380615234 9.059295654296875 26.10985565185547 6.692230224609375 31.70618438720703 C 4.24224853515625 37.49859619140625 3 43.65341186523438 3 50.00022888183594 C 3 56.34645843505859 4.24224853515625 62.50127410888672 6.692230224609375 68.29368591308594 C 9.059295654296875 73.8900146484375 12.44855499267578 78.91665649414062 16.76589202880859 83.23399353027344 C 21.08323669433594 87.55132293701172 26.10989379882812 90.94059753417969 31.70623016357422 93.30764007568359 C 37.49866485595703 95.75762939453125 43.65348052978516 96.99987030029297 49.99972534179688 96.99987030029297 C 56.34597015380859 96.99987030029297 62.50078582763672 95.75762939453125 68.293212890625 93.30764007568359 C 73.88955688476562 90.94059753417969 78.91621398925781 87.55132293701172 83.23355865478516 83.23399353027344 C 87.55089569091797 78.91665649414062 90.94015502929688 73.8900146484375 93.30722045898438 68.29368591308594 C 95.7572021484375 62.50127410888672 96.99945068359375 56.34645843505859 96.99945068359375 49.99964141845703 C 96.99945068359375 43.65341186523438 95.7572021484375 37.49859619140625 93.30722045898438 31.70618438720703 C 90.94015502929688 26.10985565185547 87.55089569091797 21.08321380615234 83.23355865478516 16.76587677001953 C 78.91621398925781 12.44853210449219 73.88955688476562 9.059272766113281 68.293212890625 6.692230224609375 C 62.50078582763672 4.242240905761719 56.34597015380859 3 49.99972534179688 3 M 49.99972534179688 0 C 77.61381530761719 0 99.99945068359375 22.38559722900391 99.99945068359375 49.99964141845703 L 99.99945068359375 50.00022888183594 C 99.99945068359375 77.6142578125 77.61381530761719 99.99987030029297 49.99972534179688 99.99987030029297 C 22.38563537597656 99.99987030029297 0 77.6142578125 0 50.00022888183594 L 0 49.99964141845703 C 0 22.38559722900391 22.38563537597656 0 49.99972534179688 0 Z" stroke="none" fill="#fff"/>
            </g>
          </g>
        </g>
      </g>
    </g>
    <g id="money-bag_4336083" transform="translate(823.608 2879.827)">
      <g id="Grupo_1199207" data-name="Grupo 1199207" transform="translate(0.941 0.941)">
        <g id="Grupo_1199193" data-name="Grupo 1199193" transform="translate(39.525 45.171)">
          <path id="Trazado_1030913" data-name="Trazado 1030913" d="M59.939,49v5.646H43V52.99A14.523,14.523,0,0,0,44.543,49Z" transform="translate(-43 -49)" fill="#ffc729"/>
        </g>
        <g id="Grupo_1199194" data-name="Grupo 1199194" transform="translate(39.525 33.878)">
          <path id="Trazado_1030914" data-name="Trazado 1030914" d="M43,37H59.939v5.646H44.656A14.325,14.325,0,0,0,43,38.035Z" transform="translate(-43 -37)" fill="#ffc729"/>
        </g>
        <g id="Grupo_1199195" data-name="Grupo 1199195" transform="translate(39.525 50.817)">
          <path id="Trazado_1030915" data-name="Trazado 1030915" d="M59.939,55v3.764a1.888,1.888,0,0,1-1.882,1.882H44.882A1.888,1.888,0,0,1,43,58.764V55Z" transform="translate(-43 -55)" fill="#fcd770"/>
        </g>
        <g id="Grupo_1199196" data-name="Grupo 1199196" transform="translate(41.068 39.525)">
          <path id="Trazado_1030916" data-name="Trazado 1030916" d="M60.036,43v5.646H44.64a14.939,14.939,0,0,0,.339-3.134A14.018,14.018,0,0,0,44.753,43H60.036Z" transform="translate(-44.64 -43)" fill="#fcd770"/>
        </g>
        <g id="Grupo_1199197" data-name="Grupo 1199197" transform="translate(39.525 28.232)">
          <path id="Trazado_1030917" data-name="Trazado 1030917" d="M59.939,32.882v3.764H43V32.882A1.888,1.888,0,0,1,44.882,31H58.057A1.888,1.888,0,0,1,59.939,32.882Z" transform="translate(-43 -31)" fill="#fcd770"/>
        </g>
        <g id="Grupo_1199198" data-name="Grupo 1199198" transform="translate(37.642 9.411)">
          <path id="Trazado_1030918" data-name="Trazado 1030918" d="M59.821,12.882v7.528a1.888,1.888,0,0,1-1.882,1.882H52.293l-.715,2.851a1.2,1.2,0,0,1-2.334,0l-.715-2.851H42.882A1.888,1.888,0,0,1,41,20.411V12.882A1.888,1.888,0,0,1,42.882,11H57.939A1.888,1.888,0,0,1,59.821,12.882Z" transform="translate(-41 -11)" fill="#e6e9ed"/>
        </g>
        <g id="Grupo_1199199" data-name="Grupo 1199199" transform="translate(15.518)">
          <path id="Trazado_1030919" data-name="Trazado 1030919" d="M20.793,9.47a4.435,4.435,0,0,0,.094.941H19.852l-.95,1.421c0-.16.009-.311.009-.48A8.345,8.345,0,0,0,17.49,6.665l.019-.009A8.469,8.469,0,1,1,32.98,13.431L30.2,11.352l-.583.386A4.594,4.594,0,0,0,30.2,9.47a4.705,4.705,0,0,0-9.411,0Z" transform="translate(-17.49 -1)" fill="#ffc729"/>
        </g>
        <g id="Grupo_1199200" data-name="Grupo 1199200" transform="translate(0 1.882)">
          <path id="Trazado_1030920" data-name="Trazado 1030920" d="M8.528,18.057v1.835a8.472,8.472,0,1,1,7.99-13.109,8.345,8.345,0,0,1,1.421,4.686c0,.169-.009.32-.009.48v.009L17,13.352,15.116,11.47l-.979.583a3.965,3.965,0,0,0,.038-.583A4.705,4.705,0,1,0,9.47,16.175a4.6,4.6,0,0,0,1.487-.245l.4,1.186Z" transform="translate(-1 -3)" fill="#ffc729"/>
        </g>
        <g id="Grupo_1199201" data-name="Grupo 1199201" transform="translate(18.821 3.764)">
          <path id="Trazado_1030921" data-name="Trazado 1030921" d="M30.411,9.705a4.594,4.594,0,0,1-.583,2.268l-2.24,1.5-1.882-2.823H21.094A4.435,4.435,0,0,1,21,9.705a4.705,4.705,0,1,1,9.411,0Z" transform="translate(-21 -5)" fill="#fcd770"/>
        </g>
        <g id="Grupo_1199202" data-name="Grupo 1199202" transform="translate(3.764 5.646)">
          <path id="Trazado_1030922" data-name="Trazado 1030922" d="M14.411,11.705a3.965,3.965,0,0,1-.038.583l-3.727,2.24.546,1.637a4.6,4.6,0,0,1-1.487.245,4.705,4.705,0,1,1,4.705-4.705Z" transform="translate(-5 -7)" fill="#fcd770"/>
        </g>
        <g id="Grupo_1199203" data-name="Grupo 1199203" transform="translate(7.528 9.411)">
          <path id="Trazado_1030923" data-name="Trazado 1030923" d="M25.939,24.175H12.764L9,22.293V18.528l2.823-.941-.4-1.186-.546-1.637,3.727-2.24.979-.583,1.882,1.882L18.4,12.43v-.009L19.352,11H25l1.882,2.823,2.24-1.5.583-.386,2.776,2.08v.009l.988.734-.941,2.823,2.823.941v3.764l-3.764,1.882Z" transform="translate(-9 -11)" fill="#e6f8ce"/>
        </g>
        <g id="Grupo_1199204" data-name="Grupo 1199204" transform="translate(11.293 22.585)">
          <path id="Trazado_1030924" data-name="Trazado 1030924" d="M23.352,25h8.47v3.764H13V25H23.352Z" transform="translate(-13 -25)" fill="#ffeaa7"/>
        </g>
        <g id="Grupo_1199205" data-name="Grupo 1199205" transform="translate(0 26.35)">
          <path id="Trazado_1030925" data-name="Trazado 1030925" d="M31.114,29l5.524,4.141a14.428,14.428,0,0,1,5.543,9.034,14.018,14.018,0,0,1,.226,2.513,14.94,14.94,0,0,1-.339,3.134,14.523,14.523,0,0,1-1.543,3.99l-2.343,3.077a14.4,14.4,0,0,1-10.2,4.225H15.426A14.433,14.433,0,0,1,6.769,33.141L12.293,29Z" transform="translate(-1 -29)" fill="#e6f8ce"/>
        </g>
        <g id="Grupo_1199206" data-name="Grupo 1199206" transform="translate(28.232 31.996)">
          <circle id="Elipse_12152" data-name="Elipse 12152" cx="2" cy="2" r="2" transform="translate(0 0.235)" fill="#ff826e"/>
        </g>
      </g>
      <g id="Grupo_1199208" data-name="Grupo 1199208" transform="translate(0 0)">
        <path id="Trazado_1030926" data-name="Trazado 1030926" d="M23.528,37.764a3.768,3.768,0,0,1,3.764,3.764h1.882a5.652,5.652,0,0,0-5.646-5.646V34H21.646v1.882H16v3.764a5.652,5.652,0,0,0,5.646,5.646h1.882a3.768,3.768,0,0,1,3.764,3.764v1.882H21.646a3.768,3.768,0,0,1-3.764-3.764H16a5.652,5.652,0,0,0,5.646,5.646V54.7h1.882V52.821h5.646V49.057a5.652,5.652,0,0,0-5.646-5.646H21.646a3.768,3.768,0,0,1-3.764-3.764V37.764Z" transform="translate(-0.943 -2.004)"/>
        <path id="Trazado_1030927" data-name="Trazado 1030927" d="M55.523,28.232H42.348a2.827,2.827,0,0,0-2.823,2.823v1.858a15.213,15.213,0,0,0-2.384-2.234L32,26.82V24.108l3.764-1.882V17.2l-2.574-.858.858-2.574-.924-.693A9.4,9.4,0,0,0,16.243,4.841,9.4,9.4,0,1,0,7.528,20.513v1.713l3.764,1.882V26.82L6.148,30.679A15.371,15.371,0,0,0,15.37,58.346H27.917a15.327,15.327,0,0,0,11.606-5.325v2.5a2.827,2.827,0,0,0,2.823,2.823H55.522a2.827,2.827,0,0,0,2.823-2.823V31.055a2.825,2.825,0,0,0-2.822-2.823ZM42.348,30.114H55.523a.943.943,0,0,1,.941.941v2.823H41.407V31.055A.943.943,0,0,1,42.348,30.114Zm-.941,20.221a15.3,15.3,0,0,0,1.316-3.282H56.464v3.764H41.407Zm1.707-5.165a15.355,15.355,0,0,0,.175-2.2,15.009,15.009,0,0,0-.087-1.569H56.464v3.764Zm-.224-5.646a15.479,15.479,0,0,0-1.416-3.764h14.99v3.764ZM32,34.819a.941.941,0,1,1-.941-.941A.943.943,0,0,1,32,34.819ZM13.175,24.468h1.882V26.35H13.175Zm3.764,0h1.882V26.35H16.939Zm3.764,0h1.882V26.35H20.7Zm3.764,0H26.35V26.35H24.468Zm3.764,0h1.882V26.35H28.232ZM29.958,10.7c.027-.117.047-.235.068-.353h1.91a7.53,7.53,0,0,1-.375,1.556Zm.072-2.235a5.613,5.613,0,0,0-.965-2.325L30.408,4.8A7.484,7.484,0,0,1,31.931,8.47Zm-2.3-3.656a5.613,5.613,0,0,0-2.325-.965v-1.9a7.484,7.484,0,0,1,3.668,1.524Zm-4.207-.965a5.613,5.613,0,0,0-2.325.965L19.865,3.477a7.5,7.5,0,0,1,3.662-1.521ZM20.7,9.411a3.764,3.764,0,1,1,7.149,1.631l-1.242.828L24.971,9.411ZM18.524,4.8,19.87,6.144a5.61,5.61,0,0,0-1.049,3.266h-.19a9.307,9.307,0,0,0-1.108-2.862A7.5,7.5,0,0,1,18.524,4.8Zm-9.3,8.9.446,1.339c-.086.006-.169.021-.256.021a3.764,3.764,0,1,1,3.764-3.764c0,.011,0,.022,0,.033ZM3.463,15.909a7.5,7.5,0,0,1-1.516-3.675h1.9a5.613,5.613,0,0,0,.965,2.325ZM12.677,6.7a5.613,5.613,0,0,0-2.325-.965v-1.9A7.484,7.484,0,0,1,14.02,5.353ZM8.47,5.731A5.613,5.613,0,0,0,6.144,6.7L4.8,5.353A7.484,7.484,0,0,1,8.47,3.829Zm-3.656,2.3a5.613,5.613,0,0,0-.965,2.325h-1.9A7.484,7.484,0,0,1,3.471,6.683Zm10.144,2.228a5.609,5.609,0,0,0-.95-2.228l1.343-1.343a7.484,7.484,0,0,1,1.589,4.609c0,.065,0,.129-.006.194l-.14.211L15.2,10.108ZM4.791,17.244l1.353-1.353a5.6,5.6,0,0,0,2.4.975L7.528,17.2v1.375A7.486,7.486,0,0,1,4.791,17.244Zm4.62,1.315,3.073-1.024-1-3,3.428-2.057,2.174,2.175,2.24-3.36h4.639l2.125,3.187,3.052-2.035,2.689,2.017-1.024,3.073,3.073,1.024v2.5l-3.045,1.523H27.366l2.541-3.176-1.47-1.175-3.48,4.351H23.944l2.346-6.257-1.763-.661-2.595,6.918h-.578l-2.595-6.918L17,16.328l2.347,6.257H18.332L14.85,18.233l-1.47,1.175,2.543,3.177H12.456L9.411,21.063Zm18.508,37.9H15.37A13.489,13.489,0,0,1,7.277,32.184l5.27-3.952H30.114v3.937a2.823,2.823,0,1,0,1.882,0v-3l4.015,3.011a13.489,13.489,0,0,1-8.093,24.279Zm27.6,0H42.348a.943.943,0,0,1-.941-.941V52.7H56.464v2.823A.943.943,0,0,1,55.523,56.464Z" transform="translate(0 0)"/>
        <path id="Trazado_1030928" data-name="Trazado 1030928" d="M46,16h1.882v1.882H46Z" transform="translate(-2.711 -0.943)"/>
        <path id="Trazado_1030929" data-name="Trazado 1030929" d="M50,16h1.882v1.882H50Z" transform="translate(-2.947 -0.943)"/>
        <path id="Trazado_1030930" data-name="Trazado 1030930" d="M54,16h1.882v1.882H54Z" transform="translate(-3.183 -0.943)"/>
        <path id="Trazado_1030931" data-name="Trazado 1030931" d="M57.88,10H42.823A2.827,2.827,0,0,0,40,12.823v7.528a2.827,2.827,0,0,0,2.823,2.823h4.911l.535,2.138a2.147,2.147,0,0,0,4.165,0l.535-2.138H57.88A2.827,2.827,0,0,0,60.7,20.352V12.823A2.827,2.827,0,0,0,57.88,10Zm.941,10.352a.943.943,0,0,1-.941.941H51.5l-.891,3.564a.274.274,0,0,1-.513,0l-.89-3.564H42.823a.943.943,0,0,1-.941-.941V12.823a.943.943,0,0,1,.941-.941H57.88a.943.943,0,0,1,.941.941Z" transform="translate(-2.358 -0.589)"/>
      </g>
    </g>
  </g>
</svg>
