<svg xmlns="http://www.w3.org/2000/svg" xmlns:xlink="http://www.w3.org/1999/xlink" width="118" height="118" viewBox="0 0 118 118">
  <defs>
    <filter id="Trazado_874925" x="0" y="0" width="117.999" height="118" filterUnits="userSpaceOnUse">
      <feOffset dy="3" input="SourceAlpha"/>
      <feGaussianBlur stdDeviation="3" result="blur"/>
      <feFlood flood-opacity="0.161"/>
      <feComposite operator="in" in2="blur"/>
      <feComposite in="SourceGraphic"/>
    </filter>
  </defs>
  <g id="Grupo_1199239" data-name="Grupo 1199239" transform="translate(-1108.781 -2850.423)">
    <g id="Grupo_1198185" data-name="Grupo 1198185" transform="translate(309.281 339.266)">
      <g id="Grupo_1111316" data-name="Grupo 1111316" transform="translate(808.5 2517.157)">
        <g id="Grupo_1109835" data-name="Grupo 1109835" transform="translate(0 0)">
          <g id="Grupo_1107913" data-name="Grupo 1107913" transform="translate(0 0)">
            <g transform="matrix(1, 0, 0, 1, -9, -6)" filter="url(#Trazado_874925)">
              <g id="Trazado_874925-2" data-name="Trazado 874925" transform="translate(9 6)" fill="#9ad354" opacity="0.859">
                <path d="M 49.99972534179688 98.4998779296875 C 43.45164108276367 98.4998779296875 37.10022354125977 97.21776580810547 31.12189674377441 94.68914794921875 C 25.34676742553711 92.24647521972656 20.15985298156738 88.74925994873047 15.70523929595947 84.29464721679688 C 11.25062561035156 79.84004974365234 7.753411293029785 74.65313720703125 5.310725212097168 68.87800598144531 C 2.782111167907715 62.89969253540039 1.499996781349182 56.54829406738281 1.499996781349182 50.00022125244141 C 1.499996781349182 43.45157623291016 2.782111167907715 37.10017776489258 5.310725212097168 31.12186431884766 C 7.753411293029785 25.34673500061035 11.25062561035156 20.15983581542969 15.70523929595947 15.70522117614746 C 20.15985298156738 11.25062084197998 25.34676742553711 7.753406524658203 31.12189674377441 5.31073522567749 C 37.10022354125977 2.782120943069458 43.45164108276367 1.500006556510925 49.99972534179688 1.500006556510925 C 56.54780960083008 1.500006556510925 62.89922714233398 2.782120943069458 68.87755584716797 5.31073522567749 C 74.65267944335938 7.753406524658203 79.839599609375 11.25062084197998 84.29421234130859 15.70522117614746 C 88.74882507324219 20.15983581542969 92.24604034423828 25.34673500061035 94.68872833251953 31.12186431884766 C 97.21733856201172 37.10017776489258 98.49945068359375 43.45157623291016 98.49945068359375 49.99964904785156 C 98.49945068359375 56.54829406738281 97.21733856201172 62.89969253540039 94.68872833251953 68.87800598144531 C 92.24604034423828 74.65313720703125 88.74882507324219 79.84004974365234 84.29421234130859 84.29464721679688 C 79.839599609375 88.74925994873047 74.65267944335938 92.24647521972656 68.87755584716797 94.68914794921875 C 62.89922714233398 97.21776580810547 56.54780960083008 98.4998779296875 49.99972534179688 98.4998779296875 Z" stroke="none"/>
                <path d="M 49.99972534179688 3 C 43.65348052978516 3 37.49866485595703 4.242240905761719 31.70623016357422 6.692230224609375 C 26.10989379882812 9.059272766113281 21.08323669433594 12.44853210449219 16.76589202880859 16.76587677001953 C 12.44855499267578 21.08321380615234 9.059295654296875 26.10985565185547 6.692230224609375 31.70618438720703 C 4.24224853515625 37.49859619140625 3 43.65341186523438 3 50.00022888183594 C 3 56.34645843505859 4.24224853515625 62.50127410888672 6.692230224609375 68.29368591308594 C 9.059295654296875 73.8900146484375 12.44855499267578 78.91665649414062 16.76589202880859 83.23399353027344 C 21.08323669433594 87.55132293701172 26.10989379882812 90.94059753417969 31.70623016357422 93.30764007568359 C 37.49866485595703 95.75762939453125 43.65348052978516 96.99987030029297 49.99972534179688 96.99987030029297 C 56.34597015380859 96.99987030029297 62.50078582763672 95.75762939453125 68.293212890625 93.30764007568359 C 73.88955688476562 90.94059753417969 78.91621398925781 87.55132293701172 83.23355865478516 83.23399353027344 C 87.55089569091797 78.91665649414062 90.94015502929688 73.8900146484375 93.30722045898438 68.29368591308594 C 95.7572021484375 62.50127410888672 96.99945068359375 56.34645843505859 96.99945068359375 49.99964141845703 C 96.99945068359375 43.65341186523438 95.7572021484375 37.49859619140625 93.30722045898438 31.70618438720703 C 90.94015502929688 26.10985565185547 87.55089569091797 21.08321380615234 83.23355865478516 16.76587677001953 C 78.91621398925781 12.44853210449219 73.88955688476562 9.059272766113281 68.293212890625 6.692230224609375 C 62.50078582763672 4.242240905761719 56.34597015380859 3 49.99972534179688 3 M 49.99972534179688 0 C 77.61381530761719 0 99.99945068359375 22.38559722900391 99.99945068359375 49.99964141845703 L 99.99945068359375 50.00022888183594 C 99.99945068359375 77.6142578125 77.61381530761719 99.99987030029297 49.99972534179688 99.99987030029297 C 22.38563537597656 99.99987030029297 0 77.6142578125 0 50.00022888183594 L 0 49.99964141845703 C 0 22.38559722900391 22.38563537597656 0 49.99972534179688 0 Z" stroke="none" fill="#fff"/>
              </g>
            </g>
            <g id="Trazado_874923" data-name="Trazado 874923" transform="translate(0 0)" fill="none">
              <path d="M50,0a50,50,0,0,1,50,50h0A50,50,0,0,1,0,50H0A50,50,0,0,1,50,0Z" stroke="none"/>
              <path d="M 49.99972534179688 3 C 43.65348052978516 3 37.49866485595703 4.242240905761719 31.70623016357422 6.692230224609375 C 26.10989379882812 9.059272766113281 21.08323669433594 12.44853210449219 16.76589202880859 16.76587677001953 C 12.44855499267578 21.08321380615234 9.059295654296875 26.10985565185547 6.692230224609375 31.70618438720703 C 4.24224853515625 37.49859619140625 3 43.65341186523438 3 50.00022888183594 C 3 56.34645843505859 4.24224853515625 62.50127410888672 6.692230224609375 68.29368591308594 C 9.059295654296875 73.8900146484375 12.44855499267578 78.91665649414062 16.76589202880859 83.23399353027344 C 21.08323669433594 87.55132293701172 26.10989379882812 90.94059753417969 31.70623016357422 93.30764007568359 C 37.49866485595703 95.75762939453125 43.65348052978516 96.99987030029297 49.99972534179688 96.99987030029297 C 56.34597015380859 96.99987030029297 62.50078582763672 95.75762939453125 68.293212890625 93.30764007568359 C 73.88955688476562 90.94059753417969 78.91621398925781 87.55132293701172 83.23355865478516 83.23399353027344 C 87.55089569091797 78.91665649414062 90.94015502929688 73.8900146484375 93.30722045898438 68.29368591308594 C 95.7572021484375 62.50127410888672 96.99945068359375 56.34645843505859 96.99945068359375 49.99964141845703 C 96.99945068359375 43.65341186523438 95.7572021484375 37.49859619140625 93.30722045898438 31.70618438720703 C 90.94015502929688 26.10985565185547 87.55089569091797 21.08321380615234 83.23355865478516 16.76587677001953 C 78.91621398925781 12.44853210449219 73.88955688476562 9.059272766113281 68.293212890625 6.692230224609375 C 62.50078582763672 4.242240905761719 56.34597015380859 3 49.99972534179688 3 M 49.99972534179688 0 C 77.61381530761719 0 99.99945068359375 22.38559722900391 99.99945068359375 49.99964141845703 L 99.99945068359375 50.00022888183594 C 99.99945068359375 77.6142578125 77.61381530761719 99.99987030029297 49.99972534179688 99.99987030029297 C 22.38563537597656 99.99987030029297 0 77.6142578125 0 50.00022888183594 L 0 49.99964141845703 C 0 22.38559722900391 22.38563537597656 0 49.99972534179688 0 Z" stroke="none" fill="#fff"/>
            </g>
          </g>
        </g>
      </g>
    </g>
    <g id="cultivation_4496263_1_" data-name="cultivation_4496263 (1)" transform="translate(1135.541 2877)">
      <g id="Grupo_1199237" data-name="Grupo 1199237">
        <g id="Grupo_1199210" data-name="Grupo 1199210">
          <path id="Trazado_1030932" data-name="Trazado 1030932" d="M17,49a5.985,5.985,0,0,0,2,4.47v2.69A7.875,7.875,0,0,1,5.37,53.28L3.53,46.87,17,43.55Z" fill="#ccd1d9"/>
        </g>
        <g id="Grupo_1199211" data-name="Grupo 1199211">
          <path id="Trazado_1030933" data-name="Trazado 1030933" d="M3.53,46.87l-.04.01a2.053,2.053,0,0,1-.49.06,1.99,1.99,0,0,1-1.94-1.52,1.961,1.961,0,0,1,.23-1.51,1.874,1.874,0,0,1,.69-.68A1.833,1.833,0,0,1,2.52,43l14.84-3.66h.01A3.878,3.878,0,0,0,17,41v2.55Z" fill="#aab2bd"/>
        </g>
        <g id="Grupo_1199212" data-name="Grupo 1199212">
          <path id="Trazado_1030934" data-name="Trazado 1030934" d="M25.66,37.71A8.836,8.836,0,0,1,31,45.81V47H25V41a3.995,3.995,0,0,0-4-4h1.19c.1,0,.2,0,.3.01A8.645,8.645,0,0,1,25.66,37.71Z" fill="#fcd770"/>
        </g>
        <g id="Grupo_1199213" data-name="Grupo 1199213">
          <path id="Trazado_1030935" data-name="Trazado 1030935" d="M25,47h8a2.006,2.006,0,0,1,2,2v4a2.006,2.006,0,0,1-2,2H23a6,6,0,0,1-6-6V41a3.878,3.878,0,0,1,.37-1.66A3.972,3.972,0,0,1,21,37a3.995,3.995,0,0,1,4,4Z" fill="#fcd770"/>
        </g>
        <g id="Grupo_1199214" data-name="Grupo 1199214">
          <path id="Trazado_1030936" data-name="Trazado 1030936" d="M19,56.16V53.47A5.971,5.971,0,0,0,23,55h8v6H19Z" fill="#fcd770"/>
        </g>
        <g id="Grupo_1199215" data-name="Grupo 1199215">
          <path id="Trazado_1030937" data-name="Trazado 1030937" d="M55,5H47a6,6,0,0,0-6,6h3a1,1,0,0,1,1,1v2a1,1,0,0,1-1,1H41a12.173,12.173,0,0,1-.99,4.78A2.961,2.961,0,0,1,41,22V55a6,6,0,0,0,6,6h8a6,6,0,0,0,6-6V11A6,6,0,0,0,55,5Z" fill="#dfb28b"/>
        </g>
        <g id="Grupo_1199216" data-name="Grupo 1199216">
          <path id="Trazado_1030938" data-name="Trazado 1030938" d="M57,51v1a3,3,0,0,1-3,3H51V54a3,3,0,0,1,3-3Z" fill="#b4dd7f"/>
        </g>
        <g id="Grupo_1199217" data-name="Grupo 1199217">
          <path id="Trazado_1030939" data-name="Trazado 1030939" d="M51,54v1H48a3,3,0,0,1-3-3V51h3A3,3,0,0,1,51,54Z" fill="#b4dd7f"/>
        </g>
        <g id="Grupo_1199218" data-name="Grupo 1199218">
          <path id="Trazado_1030940" data-name="Trazado 1030940" d="M51,44v1H48a3,3,0,0,1-3-3V41h3A3,3,0,0,1,51,44Z" fill="#b4dd7f"/>
        </g>
        <g id="Grupo_1199219" data-name="Grupo 1199219">
          <path id="Trazado_1030941" data-name="Trazado 1030941" d="M57,41v1a3,3,0,0,1-3,3H51V44a3,3,0,0,1,3-3Z" fill="#b4dd7f"/>
        </g>
        <g id="Grupo_1199220" data-name="Grupo 1199220">
          <path id="Trazado_1030942" data-name="Trazado 1030942" d="M57,31v1a3,3,0,0,1-3,3H51V34a3,3,0,0,1,3-3Z" fill="#b4dd7f"/>
        </g>
        <g id="Grupo_1199221" data-name="Grupo 1199221">
          <path id="Trazado_1030943" data-name="Trazado 1030943" d="M51,34v1H48a3,3,0,0,1-3-3V31h3A3,3,0,0,1,51,34Z" fill="#b4dd7f"/>
        </g>
        <g id="Grupo_1199222" data-name="Grupo 1199222">
          <path id="Trazado_1030944" data-name="Trazado 1030944" d="M51,24v1H48a3,3,0,0,1-3-3V21h3A3,3,0,0,1,51,24Z" fill="#b4dd7f"/>
        </g>
        <g id="Grupo_1199223" data-name="Grupo 1199223">
          <path id="Trazado_1030945" data-name="Trazado 1030945" d="M57,21v1a3,3,0,0,1-3,3H51V24a3,3,0,0,1,3-3Z" fill="#b4dd7f"/>
        </g>
        <g id="Grupo_1199224" data-name="Grupo 1199224">
          <path id="Trazado_1030946" data-name="Trazado 1030946" d="M57,11v1a3,3,0,0,1-3,3H51V14a3,3,0,0,1,3-3Z" fill="#b4dd7f"/>
        </g>
        <g id="Grupo_1199225" data-name="Grupo 1199225">
          <path id="Trazado_1030947" data-name="Trazado 1030947" d="M51,14v1H48a3,3,0,0,1-3-3V11h3A3,3,0,0,1,51,14Z" fill="#b4dd7f"/>
        </g>
        <g id="Grupo_1199226" data-name="Grupo 1199226">
          <path id="Trazado_1030948" data-name="Trazado 1030948" d="M2.52,43a1.833,1.833,0,0,0-.54.23v-.01A3,3,0,0,1,1,41a2.974,2.974,0,0,1,2.22-2.88,2.995,2.995,0,0,1,5.49-2.39A3.952,3.952,0,0,1,11,35a3.887,3.887,0,0,1,1.41.27,4.013,4.013,0,0,1,2.67-2.16h.01a10.006,10.006,0,0,0,7.4,3.88v.02c-.1-.01-.2-.01-.3-.01H21a3.972,3.972,0,0,0-3.63,2.34h-.01Z" fill="#b4dd7f"/>
        </g>
        <g id="Grupo_1199227" data-name="Grupo 1199227">
          <path id="Trazado_1030949" data-name="Trazado 1030949" d="M41,11H9a9.894,9.894,0,0,0,2.94-3.53A9.907,9.907,0,0,0,13,3a2.006,2.006,0,0,1,2-2H35a1.955,1.955,0,0,1,1.41.59A1.955,1.955,0,0,1,37,3,9.993,9.993,0,0,0,41,11Z" fill="#cf9e76"/>
        </g>
        <g id="Grupo_1199228" data-name="Grupo 1199228">
          <path id="Trazado_1030950" data-name="Trazado 1030950" d="M45,12v2a1,1,0,0,1-1,1H6a1,1,0,0,1-1-1V12a1,1,0,0,1,1-1H44A1,1,0,0,1,45,12Z" fill="#d3a06c"/>
        </g>
        <g id="Grupo_1199229" data-name="Grupo 1199229">
          <path id="Trazado_1030951" data-name="Trazado 1030951" d="M37,15h4a12.173,12.173,0,0,1-.99,4.78A2.98,2.98,0,0,0,38,19H37Z" fill="#656d78"/>
        </g>
        <g id="Grupo_1199230" data-name="Grupo 1199230">
          <path id="Trazado_1030952" data-name="Trazado 1030952" d="M13,15v4H12a2.98,2.98,0,0,0-2.01.78A11.963,11.963,0,0,1,9,15Z" fill="#656d78"/>
        </g>
        <g id="Grupo_1199231" data-name="Grupo 1199231">
          <path id="Trazado_1030953" data-name="Trazado 1030953" d="M41,49v2a2.006,2.006,0,0,1-2,2H35V49l.45-.89A2,2,0,0,1,37.24,47H39A2.006,2.006,0,0,1,41,49Z" fill="#f0d0b4"/>
        </g>
        <g id="Grupo_1199232" data-name="Grupo 1199232">
          <path id="Trazado_1030954" data-name="Trazado 1030954" d="M40.01,19.78A2.961,2.961,0,0,1,41,22a3,3,0,0,1-3,3H37V19h1a2.98,2.98,0,0,1,2.01.78Z" fill="#f0d0b4"/>
        </g>
        <g id="Grupo_1199233" data-name="Grupo 1199233">
          <path id="Trazado_1030955" data-name="Trazado 1030955" d="M37,25v2A10,10,0,0,1,27,37H23c-.17,0-.34,0-.51-.01A10.018,10.018,0,0,1,13,27V15H37V25Z" fill="#f0d0b4"/>
        </g>
        <g id="Grupo_1199234" data-name="Grupo 1199234">
          <path id="Trazado_1030956" data-name="Trazado 1030956" d="M13,19v6H12a3,3,0,0,1-3-3,3.013,3.013,0,0,1,3-3Z" fill="#f0d0b4"/>
        </g>
        <g id="Grupo_1199235" data-name="Grupo 1199235">
          <path id="Trazado_1030957" data-name="Trazado 1030957" d="M21,29h8a4,4,0,0,1-8,0Z" fill="#ff826e"/>
        </g>
        <g id="Grupo_1199236" data-name="Grupo 1199236">
          <path id="Trazado_1030958" data-name="Trazado 1030958" d="M29,29H19a3.995,3.995,0,0,1,4-4h4a4,4,0,0,1,4,4Z" fill="#969faa"/>
        </g>
      </g>
      <g id="Grupo_1199238" data-name="Grupo 1199238">
        <path id="Trazado_1030959" data-name="Trazado 1030959" d="M27,24H23a5.006,5.006,0,0,0-5,5v1h2.1a5,5,0,0,0,9.8,0H32V29A5.006,5.006,0,0,0,27,24Zm2.829,4H28V26.176A3.01,3.01,0,0,1,29.829,28ZM24,26h2v2H24Zm-2,.176V28H20.171A3.015,3.015,0,0,1,22,26.176ZM25,32a3,3,0,0,1-2.816-2h5.631A2.994,2.994,0,0,1,25,32Z"/>
        <path id="Trazado_1030960" data-name="Trazado 1030960" d="M20,20a2,2,0,0,1,2,2h2a4,4,0,0,0-8,0h2A2,2,0,0,1,20,20Z"/>
        <path id="Trazado_1030961" data-name="Trazado 1030961" d="M30,20a2,2,0,0,1,2,2h2a4,4,0,0,0-8,0h2A2,2,0,0,1,30,20Z"/>
        <path id="Trazado_1030962" data-name="Trazado 1030962" d="M55,4H47a7.01,7.01,0,0,0-6.7,4.985A9.036,9.036,0,0,1,38,3a3,3,0,0,0-3-3H15a3,3,0,0,0-3,3,9.038,9.038,0,0,1-3.364,7H6a2,2,0,0,0-2,2v2a2,2,0,0,0,2,2H8.05a12.943,12.943,0,0,0,.793,3.572A3.979,3.979,0,0,0,12,26v1a10.917,10.917,0,0,0,1.58,5.651A4.981,4.981,0,0,0,11.944,34.1a4.862,4.862,0,0,0-2.911.311A3.991,3.991,0,0,0,2,37a3.871,3.871,0,0,0,.036.528A3.947,3.947,0,0,0,.631,43.122a3.218,3.218,0,0,0-.2.273,2.991,2.991,0,0,0,2.367,4.527L4.4,53.557A8.863,8.863,0,0,0,18,58.407V62H32V56h1a3,3,0,0,0,2.816-2H39a2.966,2.966,0,0,0,1-.184V55a7.008,7.008,0,0,0,7,7h8a7.008,7.008,0,0,0,7-7V11A7.008,7.008,0,0,0,55,4ZM38.523,10H32.414l-.586-.586A6.194,6.194,0,0,1,30.087,6H36.44A11.084,11.084,0,0,0,38.523,10ZM28.067,6A8.143,8.143,0,0,0,29.7,10H20.3a8.152,8.152,0,0,0,1.633-4ZM15,2H35a1,1,0,0,1,1,1c0,.336.029.668.059,1H13.941c.031-.332.059-.664.059-1a1,1,0,0,1,1-1ZM13.561,6h6.353a6.2,6.2,0,0,1-1.742,3.414L17.586,10H11.477A11.07,11.07,0,0,0,13.561,6ZM6,12H44v2H6ZM35.12,46.879A2.99,2.99,0,0,0,33,46H32v-.192a9.776,9.776,0,0,0-3.982-7.859A11.013,11.013,0,0,0,38,27V26a3.959,3.959,0,0,0,2-.556v20.74A2.962,2.962,0,0,0,39,46H37.236A2.981,2.981,0,0,0,35.12,46.879Zm-9.7-8.168A7.791,7.791,0,0,1,30,45.808V46H26V41a4.942,4.942,0,0,0-.577-2.288ZM14,16H36V27a9.01,9.01,0,0,1-9,9H23a9.01,9.01,0,0,1-9-9Zm24,8V20a2,2,0,0,1,0,4Zm1.5-5.7A3.987,3.987,0,0,0,38,18V16h1.949A10.867,10.867,0,0,1,39.5,18.3ZM12,16v2a3.968,3.968,0,0,0-1.5.3,10.939,10.939,0,0,1-.452-2.3Zm-2,6a2,2,0,0,1,2-2v4A2,2,0,0,1,10,22ZM3.482,39.08l1.086-.294-.42-1.044A1.979,1.979,0,0,1,4,37a2,2,0,0,1,2-2,1.98,1.98,0,0,1,1.8,1.154l.506,1.075.973-.683a2.892,2.892,0,0,1,2.774-.343l.855.323.4-.824a3,3,0,0,1,1.462-1.428,11.049,11.049,0,0,0,3.41,2.6,5.074,5.074,0,0,0-.717.59,4.974,4.974,0,0,0-.762,1.015L2.3,42.024A1.968,1.968,0,0,1,3.482,39.08Zm-1.451,6.1a.991.991,0,0,1,.113-.757.977.977,0,0,1,.612-.454L16.029,40.7C16.023,40.8,16,40.9,16,41v1.77L3.242,45.909a1.01,1.01,0,0,1-1.211-.727ZM12.946,58a6.912,6.912,0,0,1-6.617-4.991L4.78,47.59,16,44.828V49a6.969,6.969,0,0,0,.235,1.768l-3.794-2.106.61-1.295-1.81-.852-.553,1.174-1.2-.666-.97,1.748,1.318.732-.72,1.53-1.63-.9-.972,1.748,1.748.971-.814,1.729,1.81.852.756-1.607,1.923,1.068L11.081,56.6l1.789.9.817-1.634,1.827,1.015.972-1.748-1.9-1.057.756-1.512L18,54.033v1.74A6.853,6.853,0,0,1,12.946,58Zm.643-6.415L12.833,53.1l-1.965-1.092.72-1.531ZM30,60H20V55.314A6.938,6.938,0,0,0,23,56h7Zm4-7a1,1,0,0,1-1,1H23a5.006,5.006,0,0,1-5-5V41a3,3,0,0,1,3-3h.011A3,3,0,0,1,24,41v5.7l-1.831,2.748,1.664,1.109L25.535,48H33a1,1,0,0,1,1,1Zm5-1H36V49.236l.342-.684a1,1,0,0,1,.9-.552H39a1,1,0,0,1,1,1v2A1,1,0,0,1,39,52Zm21,3a5.006,5.006,0,0,1-5,5H47a5.006,5.006,0,0,1-5-5V22a3.965,3.965,0,0,0-.843-2.428A12.942,12.942,0,0,0,41.95,16H44a1.993,1.993,0,0,0,1.6-.817A3.96,3.96,0,0,0,48,16h6a4,4,0,0,0,4-4V10H54a3.975,3.975,0,0,0-3,1.382A3.975,3.975,0,0,0,48,10H42.1A5.009,5.009,0,0,1,47,6h8a5.006,5.006,0,0,1,5,5ZM46,12h2a2,2,0,0,1,2,2H48A2,2,0,0,1,46,12Zm6,2a2,2,0,0,1,2-2h2a2,2,0,0,1-2,2Z"/>
        <path id="Trazado_1030963" data-name="Trazado 1030963" d="M51,51.382A3.975,3.975,0,0,0,48,50H44v2a4,4,0,0,0,4,4h6a4,4,0,0,0,4-4V50H54A3.975,3.975,0,0,0,51,51.382ZM48,54a2,2,0,0,1-2-2h2a2,2,0,0,1,2,2Zm6,0H52a2,2,0,0,1,2-2h2A2,2,0,0,1,54,54Z"/>
        <path id="Trazado_1030964" data-name="Trazado 1030964" d="M51,41.382A3.975,3.975,0,0,0,48,40H44v2a4,4,0,0,0,4,4h6a4,4,0,0,0,4-4V40H54A3.975,3.975,0,0,0,51,41.382ZM48,44a2,2,0,0,1-2-2h2a2,2,0,0,1,2,2Zm6,0H52a2,2,0,0,1,2-2h2A2,2,0,0,1,54,44Z"/>
        <path id="Trazado_1030965" data-name="Trazado 1030965" d="M51,31.382A3.975,3.975,0,0,0,48,30H44v2a4,4,0,0,0,4,4h6a4,4,0,0,0,4-4V30H54A3.975,3.975,0,0,0,51,31.382ZM48,34a2,2,0,0,1-2-2h2a2,2,0,0,1,2,2Zm6,0H52a2,2,0,0,1,2-2h2A2,2,0,0,1,54,34Z"/>
        <path id="Trazado_1030966" data-name="Trazado 1030966" d="M51,21.382A3.975,3.975,0,0,0,48,20H44v2a4,4,0,0,0,4,4h6a4,4,0,0,0,4-4V20H54A3.975,3.975,0,0,0,51,21.382ZM48,24a2,2,0,0,1-2-2h2a2,2,0,0,1,2,2Zm6,0H52a2,2,0,0,1,2-2h2A2,2,0,0,1,54,24Z"/>
      </g>
    </g>
  </g>
</svg>
