<svg xmlns="http://www.w3.org/2000/svg" xmlns:xlink="http://www.w3.org/1999/xlink" width="118" height="118" viewBox="0 0 118 118">
  <defs>
    <filter id="Trazado_874925" x="0" y="0" width="118" height="118" filterUnits="userSpaceOnUse">
      <feOffset dy="3" input="SourceAlpha"/>
      <feGaussianBlur stdDeviation="3" result="blur"/>
      <feFlood flood-opacity="0.161"/>
      <feComposite operator="in" in2="blur"/>
      <feComposite in="SourceGraphic"/>
    </filter>
  </defs>
  <g id="Grupo_1199243" data-name="Grupo 1199243" transform="translate(-4976.392 8757.577)">
    <g id="Grupo_1198187" data-name="Grupo 1198187" transform="translate(4176.892 -11268.734)">
      <g id="Grupo_1111316" data-name="Grupo 1111316" transform="translate(808.5 2517.157)">
        <g id="Grupo_1109835" data-name="Grupo 1109835" transform="translate(0 0)">
          <g id="Grupo_1107913" data-name="Grupo 1107913" transform="translate(0 0)">
            <g transform="matrix(1, 0, 0, 1, -9, -6)" filter="url(#Trazado_874925)">
              <g id="Trazado_874925-2" data-name="Trazado 874925" transform="translate(9 6)" fill="#9ad354" opacity="0.859">
                <path d="M 49.99972534179688 98.4998779296875 C 43.45164108276367 98.4998779296875 37.10022354125977 97.21776580810547 31.12189674377441 94.68914794921875 C 25.34676742553711 92.24647521972656 20.15985298156738 88.74925994873047 15.70523929595947 84.29464721679688 C 11.25062561035156 79.84004974365234 7.753411293029785 74.65313720703125 5.310725212097168 68.87800598144531 C 2.782111167907715 62.89969253540039 1.499996781349182 56.54829406738281 1.499996781349182 50.00022125244141 C 1.499996781349182 43.45157623291016 2.782111167907715 37.10017776489258 5.310725212097168 31.12186431884766 C 7.753411293029785 25.34673500061035 11.25062561035156 20.15983581542969 15.70523929595947 15.70522117614746 C 20.15985298156738 11.25062084197998 25.34676742553711 7.753406524658203 31.12189674377441 5.31073522567749 C 37.10022354125977 2.782120943069458 43.45164108276367 1.500006556510925 49.99972534179688 1.500006556510925 C 56.54780960083008 1.500006556510925 62.89922714233398 2.782120943069458 68.87755584716797 5.31073522567749 C 74.65267944335938 7.753406524658203 79.839599609375 11.25062084197998 84.29421234130859 15.70522117614746 C 88.74882507324219 20.15983581542969 92.24604034423828 25.34673500061035 94.68872833251953 31.12186431884766 C 97.21733856201172 37.10017776489258 98.49945068359375 43.45157623291016 98.49945068359375 49.99964904785156 C 98.49945068359375 56.54829406738281 97.21733856201172 62.89969253540039 94.68872833251953 68.87800598144531 C 92.24604034423828 74.65313720703125 88.74882507324219 79.84004974365234 84.29421234130859 84.29464721679688 C 79.839599609375 88.74925994873047 74.65267944335938 92.24647521972656 68.87755584716797 94.68914794921875 C 62.89922714233398 97.21776580810547 56.54780960083008 98.4998779296875 49.99972534179688 98.4998779296875 Z" stroke="none"/>
                <path d="M 49.99972534179688 3 C 43.65348052978516 3 37.49866485595703 4.242240905761719 31.70623016357422 6.692230224609375 C 26.10989379882812 9.059272766113281 21.08323669433594 12.44853210449219 16.76589202880859 16.76587677001953 C 12.44855499267578 21.08321380615234 9.059295654296875 26.10985565185547 6.692230224609375 31.70618438720703 C 4.24224853515625 37.49859619140625 3 43.65341186523438 3 50.00022888183594 C 3 56.34645843505859 4.24224853515625 62.50127410888672 6.692230224609375 68.29368591308594 C 9.059295654296875 73.8900146484375 12.44855499267578 78.91665649414062 16.76589202880859 83.23399353027344 C 21.08323669433594 87.55132293701172 26.10989379882812 90.94059753417969 31.70623016357422 93.30764007568359 C 37.49866485595703 95.75762939453125 43.65348052978516 96.99987030029297 49.99972534179688 96.99987030029297 C 56.34597015380859 96.99987030029297 62.50078582763672 95.75762939453125 68.293212890625 93.30764007568359 C 73.88955688476562 90.94059753417969 78.91621398925781 87.55132293701172 83.23355865478516 83.23399353027344 C 87.55089569091797 78.91665649414062 90.94015502929688 73.8900146484375 93.30722045898438 68.29368591308594 C 95.7572021484375 62.50127410888672 96.99945068359375 56.34645843505859 96.99945068359375 49.99964141845703 C 96.99945068359375 43.65341186523438 95.7572021484375 37.49859619140625 93.30722045898438 31.70618438720703 C 90.94015502929688 26.10985565185547 87.55089569091797 21.08321380615234 83.23355865478516 16.76587677001953 C 78.91621398925781 12.44853210449219 73.88955688476562 9.059272766113281 68.293212890625 6.692230224609375 C 62.50078582763672 4.242240905761719 56.34597015380859 3 49.99972534179688 3 M 49.99972534179688 0 C 77.61381530761719 0 99.99945068359375 22.38559722900391 99.99945068359375 49.99964141845703 L 99.99945068359375 50.00022888183594 C 99.99945068359375 77.6142578125 77.61381530761719 99.99987030029297 49.99972534179688 99.99987030029297 C 22.38563537597656 99.99987030029297 0 77.6142578125 0 50.00022888183594 L 0 49.99964141845703 C 0 22.38559722900391 22.38563537597656 0 49.99972534179688 0 Z" stroke="none" fill="#fff"/>
              </g>
            </g>
            <g id="Trazado_874923" data-name="Trazado 874923" transform="translate(0 0)" fill="none">
              <path d="M50,0a50,50,0,0,1,50,50h0A50,50,0,0,1,0,50H0A50,50,0,0,1,50,0Z" stroke="none"/>
              <path d="M 49.99972534179688 3 C 43.65348052978516 3 37.49866485595703 4.242240905761719 31.70623016357422 6.692230224609375 C 26.10989379882812 9.059272766113281 21.08323669433594 12.44853210449219 16.76589202880859 16.76587677001953 C 12.44855499267578 21.08321380615234 9.059295654296875 26.10985565185547 6.692230224609375 31.70618438720703 C 4.24224853515625 37.49859619140625 3 43.65341186523438 3 50.00022888183594 C 3 56.34645843505859 4.24224853515625 62.50127410888672 6.692230224609375 68.29368591308594 C 9.059295654296875 73.8900146484375 12.44855499267578 78.91665649414062 16.76589202880859 83.23399353027344 C 21.08323669433594 87.55132293701172 26.10989379882812 90.94059753417969 31.70623016357422 93.30764007568359 C 37.49866485595703 95.75762939453125 43.65348052978516 96.99987030029297 49.99972534179688 96.99987030029297 C 56.34597015380859 96.99987030029297 62.50078582763672 95.75762939453125 68.293212890625 93.30764007568359 C 73.88955688476562 90.94059753417969 78.91621398925781 87.55132293701172 83.23355865478516 83.23399353027344 C 87.55089569091797 78.91665649414062 90.94015502929688 73.8900146484375 93.30722045898438 68.29368591308594 C 95.7572021484375 62.50127410888672 96.99945068359375 56.34645843505859 96.99945068359375 49.99964141845703 C 96.99945068359375 43.65341186523438 95.7572021484375 37.49859619140625 93.30722045898438 31.70618438720703 C 90.94015502929688 26.10985565185547 87.55089569091797 21.08321380615234 83.23355865478516 16.76587677001953 C 78.91621398925781 12.44853210449219 73.88955688476562 9.059272766113281 68.293212890625 6.692230224609375 C 62.50078582763672 4.242240905761719 56.34597015380859 3 49.99972534179688 3 M 49.99972534179688 0 C 77.61381530761719 0 99.99945068359375 22.38559722900391 99.99945068359375 49.99964141845703 L 99.99945068359375 50.00022888183594 C 99.99945068359375 77.6142578125 77.61381530761719 99.99987030029297 49.99972534179688 99.99987030029297 C 22.38563537597656 99.99987030029297 0 77.6142578125 0 50.00022888183594 L 0 49.99964141845703 C 0 22.38559722900391 22.38563537597656 0 49.99972534179688 0 Z" stroke="none" fill="#fff"/>
            </g>
          </g>
        </g>
      </g>
    </g>
    <g id="electric-car_2307943" transform="translate(4989.943 -8747.025)">
      <g id="Grupo_1199241" data-name="Grupo 1199241" transform="translate(16.982 16.288)">
        <path id="Trazado_1030967" data-name="Trazado 1030967" d="M32.835,24H28.908a4.908,4.908,0,0,0,0,9.816h3.926a4.914,4.914,0,0,0,4.225-2.41l.627-1.755A4.909,4.909,0,0,0,32.835,24ZM34.8,28.908a1.963,1.963,0,0,1-1.963,1.963H28.908a1.963,1.963,0,0,1-1.963-1.963h0a1.963,1.963,0,0,1,1.963-1.963h3.926A1.963,1.963,0,0,1,34.8,28.908Z" transform="translate(-24 -23.306)" fill="#f05a29"/>
        <path id="Trazado_1030968" data-name="Trazado 1030968" d="M64,104h3.926v5.89H64Z" transform="translate(-59.092 -93.49)" fill="#f8f117"/>
        <path id="Trazado_1030969" data-name="Trazado 1030969" d="M48,152h7.853v12.761H48Z" transform="translate(-45.055 -135.6)" fill="#aedef8"/>
        <path id="Trazado_1030970" data-name="Trazado 1030970" d="M96,152h1.963v12.761H96Z" transform="translate(-87.165 -135.6)" fill="#00587e"/>
        <path id="Trazado_1030971" data-name="Trazado 1030971" d="M416,376h5.89c1.626,0,2.945,3.076,2.945,6.871s-1.318,6.871-2.945,6.871H416" transform="translate(-367.901 -332.115)" fill="gray"/>
        <ellipse id="Elipse_12153" data-name="Elipse 12153" cx="3.21" cy="6.879" rx="3.21" ry="6.879" transform="translate(44.976 43.836)" fill="#4d4d4d"/>
        <path id="Trazado_1030972" data-name="Trazado 1030972" d="M384,392l3.52,3.52a1.388,1.388,0,0,1,.407.982h0a1.388,1.388,0,0,1-1.388,1.388h0a1.388,1.388,0,0,1-.982-.407L384,395.926Z" transform="translate(-339.827 -346.151)" fill="#f98800"/>
        <path id="Trazado_1030973" data-name="Trazado 1030973" d="M87.559,353.816l-2.945-2.945H74.8l-1.963,1.963H64V344h37.3l-2.945,9.816Z" transform="translate(-59.092 -304.041)" fill="#f98800"/>
        <path id="Trazado_1030974" data-name="Trazado 1030974" d="M92.908,206.871,90.945,200,88,201.963l1.963,4.908Z" transform="translate(-80.147 -177.71)" fill="#f05a29"/>
        <path id="Trazado_1030975" data-name="Trazado 1030975" d="M112,200h5.89v8.835l-1.963-1.963h-1.963Z" transform="translate(-101.202 -177.71)" fill="#f98800"/>
        <path id="Trazado_1030976" data-name="Trazado 1030976" d="M144,157.89l.982-4.908L159.706,152l4.908,1.963,3.926,3.926v6.871H155.779l-3.926,3.926h-3.926l-1.963-1.963v-6.871Z" transform="translate(-129.276 -135.6)" fill="#f8f117"/>
        <path id="Trazado_1030977" data-name="Trazado 1030977" d="M277.2,22.27a3.489,3.489,0,0,1-2.658,1.025,4.383,4.383,0,0,0-.862-4.951l-1.388,1.388a2.412,2.412,0,0,1,.3,3.035l-.423.634-.165.545.452.907.292.049.238.079a5.509,5.509,0,0,0,1.744.285,5.444,5.444,0,0,0,3.858-1.607Z" transform="translate(-241.57 -18.343)" fill="#381b05"/>
        <path id="Trazado_1030978" data-name="Trazado 1030978" d="M25.963,256v4.908H24v5.89H36.761l2.945,2.945h9.816l2.945-2.945h4.908v-6.871L53.449,256H50.5l-3.926,3.926H42.651L38.724,256Z" transform="translate(-24 -226.839)" fill="#387f29"/>
        <path id="Trazado_1030979" data-name="Trazado 1030979" d="M296,288h19.632v6.871H296Z" transform="translate(-262.625 -254.913)" fill="#aedef8"/>
        <path id="Trazado_1030980" data-name="Trazado 1030980" d="M287.559,259.926,283.632,256H264l3.926,3.926Z" transform="translate(-234.551 -226.839)" fill="#479f35"/>
        <path id="Trazado_1030981" data-name="Trazado 1030981" d="M147.667,61.89a9.816,9.816,0,0,1-19.627.291,1.388,1.388,0,0,1,2.364-.866l2.539,2.539V56.982L140.8,56l5.522.92A9.767,9.767,0,0,1,147.667,61.89Z" transform="translate(-115.274 -51.379)" fill="#f5e0cd"/>
        <path id="Trazado_1030982" data-name="Trazado 1030982" d="M146.283,28.847l-5.522-.92-7.853.982v6.871l-2.539-2.539a1.389,1.389,0,0,0-2.364.866c0-.1,0-.194,0-.291a9.817,9.817,0,0,1,18.283-4.969Z" transform="translate(-115.239 -23.306)" fill="#381b05"/>
        <g id="Grupo_1199240" data-name="Grupo 1199240" transform="translate(4.908 20.039)">
          <path id="Trazado_1030983" data-name="Trazado 1030983" d="M153.724,203.834h-6.871a.982.982,0,0,1-.694-.288l-4.214-4.214a.982.982,0,0,1,0-1.388h0a.982.982,0,0,1,1.388,0l3.926,3.926h5.483v-1.963h-3.926a.982.982,0,0,1-.694-.288l-.288-.288a.982.982,0,0,1,0-1.388h0a.982.982,0,0,1,1.388,0h4.5a.982.982,0,0,1,.982.982v3.926A.982.982,0,0,1,153.724,203.834Z" transform="translate(-132.128 -195.694)" fill="#fcc200"/>
          <path id="Trazado_1030984" data-name="Trazado 1030984" d="M279.95,185.338l-2.005-2.005a.982.982,0,1,1,1.388-1.388l2.005,2.005Z" transform="translate(-251.441 -181.657)" fill="#fcc200"/>
          <path id="Trazado_1030985" data-name="Trazado 1030985" d="M346.945,344,344,353.816h5.89L352.835,344Z" transform="translate(-309.643 -324.08)" fill="#fcc200"/>
          <path id="Trazado_1030986" data-name="Trazado 1030986" d="M64,344h3.926v5.031H64Z" transform="translate(-64 -324.08)" fill="#fcc200"/>
          <path id="Trazado_1030987" data-name="Trazado 1030987" d="M288,344h3.926v5.031H288Z" transform="translate(-260.515 -324.08)" fill="#fcc200"/>
        </g>
        <path id="Trazado_1030988" data-name="Trazado 1030988" d="M57.375,296.982H51.608l-2.945,2.945H42.651L38.724,296H24v5.89H36.761l2.945,2.945h9.816l2.945-2.945h4.908Z" transform="translate(-24 -261.931)" fill="#479f35"/>
        <path id="Trazado_1030989" data-name="Trazado 1030989" d="M456,304h2.945v4.908H456Z" transform="translate(-402.993 -268.949)" fill="#f8f117"/>
        <path id="Trazado_1030990" data-name="Trazado 1030990" d="M272,304h2.945v4.908H272Z" transform="translate(-241.57 -268.949)" fill="#f8f117"/>
        <path id="Trazado_1030991" data-name="Trazado 1030991" d="M320,288h1.963v6.871H320Z" transform="translate(-283.68 -254.913)" fill="#00587e"/>
        <path id="Trazado_1030992" data-name="Trazado 1030992" d="M416,288h1.963v6.871H416Z" transform="translate(-367.901 -254.913)" fill="#00587e"/>
        <path id="Trazado_1030993" data-name="Trazado 1030993" d="M352,288h1.963v6.871H352Z" transform="translate(-311.754 -254.913)" fill="#00587e"/>
        <path id="Trazado_1030994" data-name="Trazado 1030994" d="M384,288h1.963v6.871H384Z" transform="translate(-339.827 -254.913)" fill="#00587e"/>
        <path id="Trazado_1030998" data-name="Trazado 1030998" d="M240,129.963a.982.982,0,0,0,.982-.982V128" transform="translate(-213.496 -114.545)" fill="#f5e0cd"/>
        <path id="Trazado_1030999" data-name="Trazado 1030999" d="M240,200h22.577v6.871H240Z" transform="translate(-213.496 -177.71)" fill="#00587e"/>
        <circle id="Elipse_12154" data-name="Elipse 12154" cx="6.879" cy="6.879" r="6.879" transform="translate(0.034 43.836)" fill="#4d4d4d"/>
        <circle id="Elipse_12155" data-name="Elipse 12155" cx="3.21" cy="3.21" r="3.21" transform="translate(3.703 47.505)" fill="#f8f117"/>
        <path id="Trazado_1031000" data-name="Trazado 1031000" d="M262.577,206.871V200H240v6.871h1.963v-4.908h18.651v4.908Z" transform="translate(-213.496 -177.71)" fill="#387f29"/>
        <path id="Trazado_1031001" data-name="Trazado 1031001" d="M320,220.908,324.908,216h1.963l-4.908,4.908Z" transform="translate(-283.68 -191.747)" fill="#aedef8"/>
        <path id="Trazado_1031002" data-name="Trazado 1031002" d="M352,220.908,356.908,216h1.963v4.908Z" transform="translate(-311.754 -191.747)" fill="#aedef8"/>
        <path id="Trazado_1031003" data-name="Trazado 1031003" d="M272,376h5.89c1.626,0,2.945,3.076,2.945,6.871s-1.318,6.871-2.945,6.871H272" transform="translate(-241.57 -332.115)" fill="gray"/>
        <ellipse id="Elipse_12156" data-name="Elipse 12156" cx="2.752" cy="6.879" rx="2.752" ry="6.879" transform="translate(27.55 43.836)" fill="#4d4d4d"/>
        <ellipse id="Elipse_12157" data-name="Elipse 12157" cx="0.917" cy="3.21" rx="0.917" ry="3.21" transform="translate(29.384 47.505)" fill="#f8f117"/>
      </g>
      <g id="Grupo_1199242" data-name="Grupo 1199242" transform="translate(16 16)">
        <path id="Trazado_1031004" data-name="Trazado 1031004" d="M73.955,61.8c-.972-2.269-2.287-2.608-2.985-2.608H65.222l.589-1.963h7.123a.982.982,0,0,0,.982-.982V51.338a.982.982,0,0,0-.982-.982H70.97v-.982a.979.979,0,0,0-.287-.694h0l-3.639-3.639V38.577a.982.982,0,0,0-.982-.982h-9.41l-3.639-3.639a.981.981,0,0,0-.33-.217l-3.792-1.517a10.785,10.785,0,0,0,.845-9.029c.134.01.267.015.4.015A5.444,5.444,0,0,0,54,21.6l-1.388-1.388a3.489,3.489,0,0,1-2.659,1.025,4.382,4.382,0,0,0-.861-4.951L47.7,17.676a2.413,2.413,0,0,1,.5,2.659,10.785,10.785,0,0,0-16.876-.518A5.9,5.9,0,0,0,25.816,16H21.89a5.889,5.889,0,0,0-.982,11.7v4.01h-.982a.982.982,0,0,0-.982.982V44.467a.982.982,0,0,0-.982.982v3.926h-.982a.982.982,0,0,0-.982.982v5.89a.982.982,0,0,0,.982.982h3.926v2.538a7.858,7.858,0,1,0,10.666,5.853l1.52-1.52h9l1.454,1.454c-.043.486-.066.985-.066,1.491a13.711,13.711,0,0,0,.942,5.245c.972,2.269,2.287,2.608,2.985,2.608H53.3c.7,0,2.012-.339,2.985-2.608a13.711,13.711,0,0,0,.942-5.245h3.52l.412.412A13.4,13.4,0,0,0,62.1,72.29c.972,2.269,2.287,2.607,2.984,2.607h5.89c.7,0,2.012-.339,2.985-2.608a15.078,15.078,0,0,0,0-10.491ZM63,66.521a.977.977,0,0,0,.075-.177l.207-.691.7.7a.407.407,0,1,1-.575.575ZM31.3,46.43l1.675,1.675h0l1.963,1.963a.982.982,0,0,0,.694.288h3.926a.982.982,0,0,0,.694-.288l3.639-3.639h2.132l3.351,3.351v.575H44.59a.982.982,0,0,0-.694.288L41.238,53.3h-5.2L32.4,49.663a.982.982,0,0,0-.694-.288H19.926V46.43Zm-5.258-5.515L27.2,40.14l1.236,4.327h-.979ZM26.8,27.7a5.82,5.82,0,0,0,1.966-.707c0,.04,0,.08,0,.12s0,.063,0,.095v.575h.045a10.76,10.76,0,0,0,2.8,6.31L30.9,37.6h-2.14V32.688a.982.982,0,0,0-.982-.982H26.8Zm20.593-4.979a8.832,8.832,0,1,1-16.658,4.405.407.407,0,0,1,.686-.206l2.538,2.538a.982.982,0,0,0,1.676-.694v-6l6.851-.856ZM42.5,45.042l-3.351,3.351H36.039l-1.388-1.388V42.91l1.269,1.269a.982.982,0,0,0,.694.288H42.5Zm-10.1-.287a.982.982,0,0,0-.694-.288H30.483l-1.4-4.908H31.3l1.388,1.388v4.095ZM65.656,46.43l1.963,1.963H50.763L48.8,46.43ZM49.375,52.32v2.945h-.982V52.32Zm1.963-1.963H53.3v4.908H51.338Zm3.926,0h1.963v4.908H55.265Zm3.926,4.908V50.357h1.963v4.908Zm3.926-4.908h1.963v4.908H63.118Zm5.89,4.908H67.044V50.357h1.963Zm2.945-2.945v2.945H70.97V52.32Zm-6.871-7.853H44.467V39.559H65.081Zm-13.313-8.98L53.876,37.6H50.763L49.087,35.92,47.7,37.308l.288.288h-4.5a.982.982,0,0,0-.982.982h-3.52l-.694-.694L36.9,39.271l.982.982a.982.982,0,0,0,.694.288H42.5V42.5H37.02l-4.249-4.249.532-2.66a10.781,10.781,0,0,0,14.412-1.728ZM39.559,17.963a8.8,8.8,0,0,1,6.128,2.48l-3.022-.5a.977.977,0,0,0-.283-.006l-7.853.982a.982.982,0,0,0-.86.974v4.5l-.863-.863a2.354,2.354,0,0,0-1.676-.694c-.063,0-.125,0-.186.009a8.848,8.848,0,0,1,8.614-6.881Zm-21.6,3.926a3.928,3.928,0,0,1,3.926-3.926h3.926a3.931,3.931,0,0,1,3.926,3.926,3.98,3.98,0,0,1-.032.482,10.715,10.715,0,0,0-.578,1.616,3.916,3.916,0,0,1-3.316,1.828H21.89a3.931,3.931,0,0,1-3.926-3.926Zm4.908,5.89h1.963v3.926H22.871Zm-1.963,5.89H26.8v4.383L24.29,39.724a.982.982,0,0,0-.367,1.181l1.425,3.562h-4.44ZM17.963,51.338H31.3l3.639,3.639a.982.982,0,0,0,.694.288h6.012a.982.982,0,0,0,.694-.288L45,52.32H46.43v2.945h-.982a.982.982,0,0,0-.694.288L42.1,58.21h-9l-2.657-2.657a.982.982,0,0,0-.694-.288H17.963Zm4.908,5.89h1.963v2.027a7.615,7.615,0,0,0-1.963,0Zm.982,15.706a5.89,5.89,0,1,1,5.89-5.89A5.9,5.9,0,0,1,23.853,72.934Zm21.6-5.89c0-3.654,1.271-5.89,1.963-5.89s1.963,2.236,1.963,5.89-1.271,5.89-1.963,5.89S45.448,70.7,45.448,67.044Zm7.853,5.89H50.084c.107-.2.212-.409.313-.644a15.078,15.078,0,0,0,0-10.491c-.1-.235-.206-.449-.313-.644H53.3c.692,0,1.963,2.236,1.963,5.89s-1.271,5.89-1.963,5.89ZM56.409,62.1c-.04-.1-.081-.205-.123-.3C55.314,59.53,54,59.191,53.3,59.191h-5.89c-.7,0-2.012.339-2.985,2.608a10.1,10.1,0,0,0-.47,1.384l-.759-.759a.982.982,0,0,0-.694-.288H32.687a.982.982,0,0,0-.694.288l-1.116,1.116a7.9,7.9,0,0,0-4.08-3.773V57.228h2.538l2.657,2.657a.982.982,0,0,0,.694.288H42.5a.982.982,0,0,0,.694-.288l2.657-2.657H57.872Zm3.512-4.875h3.84l-2.356,7.853h-3.84Zm3.321,11.736a2.37,2.37,0,0,0,2.82-2.327,2.355,2.355,0,0,0-.694-1.676l-1.444-1.444.6-2a.894.894,0,0,1,.558-.368c.692,0,1.963,2.236,1.963,5.89s-1.271,5.89-1.963,5.89c-.561,0-1.5-1.469-1.839-3.97Zm7.728,3.97H67.752c.107-.2.212-.409.313-.644a15.073,15.073,0,0,0,0-10.491c-.1-.235-.205-.449-.313-.644H70.97c.692,0,1.963,2.236,1.963,5.89S71.663,72.934,70.97,72.934Z" transform="translate(-16 -16)"/>
        <path id="Trazado_1031005" data-name="Trazado 1031005" d="M51.926,400a3.926,3.926,0,1,0,3.926,3.926A3.931,3.931,0,0,0,51.926,400Zm0,5.89a1.963,1.963,0,1,1,1.963-1.963A1.965,1.965,0,0,1,51.926,405.89Z" transform="translate(-44.074 -352.882)"/>
        <path id="Trazado_1031006" data-name="Trazado 1031006" d="M46.871,45.89a2.945,2.945,0,1,0,0-5.89H42.945a2.945,2.945,0,1,0,0,5.89Zm-4.908-2.945a.983.983,0,0,1,.982-.982h3.926a.982.982,0,0,1,0,1.963H42.945A.983.983,0,0,1,41.963,42.945Z" transform="translate(-37.055 -37.055)"/>
      </g>
    </g>
  </g>
</svg>
