<svg xmlns="http://www.w3.org/2000/svg" xmlns:xlink="http://www.w3.org/1999/xlink" width="118" height="118" viewBox="0 0 118 118">
  <defs>
    <filter id="Trazado_896985" x="0" y="0" width="118" height="118" filterUnits="userSpaceOnUse">
      <feOffset dy="3" input="SourceAlpha"/>
      <feGaussianBlur stdDeviation="3" result="blur"/>
      <feFlood flood-opacity="0.161"/>
      <feComposite operator="in" in2="blur"/>
      <feComposite in="SourceGraphic"/>
    </filter>
  </defs>
  <g id="Grupo_1198098" data-name="Grupo 1198098" transform="translate(-325.891 -3846)">
    <g id="Grupo_1111318" data-name="Grupo 1111318" transform="translate(334.891 3852)">
      <g id="Grupo_1109826" data-name="Grupo 1109826" transform="translate(0)">
        <g id="Grupo_1098742" data-name="Grupo 1098742" transform="translate(0 0)">
          <g transform="matrix(1, 0, 0, 1, -9, -6)" filter="url(#Trazado_896985)">
            <g id="Trazado_896985-2" data-name="Trazado 896985" transform="translate(9 6)" fill="#d6edba" opacity="0.859">
              <path d="M 49.99993515014648 99.5 C 43.31726837158203 99.5 36.83476257324219 98.19129943847656 30.73248100280762 95.61025238037109 C 24.83812141418457 93.11714172363281 19.54434776306152 89.54795837402344 14.99820137023926 85.00179290771484 C 10.45204162597656 80.45565032958984 6.88285493850708 75.16187286376953 4.389748573303223 69.26751708984375 C 1.808695197105408 63.16523742675781 0.5000017881393433 56.6827278137207 0.5000017881393433 50.00006103515625 C 0.5000017881393433 43.31726455688477 1.808695197105408 36.83475494384766 4.389748573303223 30.73247528076172 C 6.88285493850708 24.83811569213867 10.45204162597656 19.54434204101562 14.99820137023926 14.99819660186768 C 19.54434776306152 10.45203590393066 24.83812141418457 6.88284969329834 30.73248100280762 4.389742851257324 C 36.83476257324219 1.808689475059509 43.31726837158203 0.4999961853027344 49.99993515014648 0.4999961853027344 C 56.68260192871094 0.4999961853027344 63.16510772705078 1.808689475059509 69.26738739013672 4.389742851257324 C 75.16175079345703 6.88284969329834 80.45552062988281 10.45203590393066 85.00167083740234 14.99819660186768 C 89.54782867431641 19.54434204101562 93.11701202392578 24.83811569213867 95.61012268066406 30.73247528076172 C 98.19117736816406 36.83475494384766 99.49987030029297 43.31726455688477 99.49987030029297 49.99993133544922 C 99.49987030029297 56.6827278137207 98.19117736816406 63.16523742675781 95.61012268066406 69.26751708984375 C 93.11701202392578 75.16187286376953 89.54782867431641 80.45565032958984 85.00167083740234 85.00179290771484 C 80.45552062988281 89.54795837402344 75.16175079345703 93.11714172363281 69.26738739013672 95.61025238037109 C 63.16510772705078 98.19129943847656 56.68260192871094 99.5 49.99993515014648 99.5 Z" stroke="none"/>
              <path d="M 49.99993515014648 0.9999923706054688 C 43.38454818725586 0.9999923706054688 36.96757507324219 2.29541015625 30.92725372314453 4.850250244140625 C 25.09249877929688 7.318145751953125 19.85213470458984 10.85135650634766 15.35174560546875 15.35174560546875 C 10.85136413574219 19.85212707519531 7.318145751953125 25.09249114990234 4.850257873535156 30.92724609375 C 2.295417785644531 36.96757125854492 1 43.38454437255859 1 50.00006103515625 C 1 56.61544799804688 2.295417785644531 63.03242111206055 4.850257873535156 69.07273864746094 C 7.318145751953125 74.90750122070312 10.85136413574219 80.14786529541016 15.35174560546875 84.64824676513672 C 19.85213470458984 89.14863586425781 25.09249877929688 92.68184661865234 30.92725372314453 95.14974212646484 C 36.96757507324219 97.70458221435547 43.38454818725586 99 49.99993515014648 99 C 56.61532211303711 99 63.03229522705078 97.70458221435547 69.07261657714844 95.14974212646484 C 74.90737915039062 92.68184661865234 80.14773559570312 89.14863586425781 84.64812469482422 84.64824676513672 C 89.14850616455078 80.14786529541016 92.68172454833984 74.90750122070312 95.14961242675781 69.07273864746094 C 97.70445251464844 63.03242111206055 98.99987030029297 56.61544799804688 98.99987030029297 49.99993133544922 C 98.99987030029297 43.38454437255859 97.70445251464844 36.96757125854492 95.14961242675781 30.92724609375 C 92.68172454833984 25.09249114990234 89.14850616455078 19.85212707519531 84.64812469482422 15.35174560546875 C 80.14773559570312 10.85135650634766 74.90737915039062 7.318145751953125 69.07261657714844 4.850250244140625 C 63.03229522705078 2.29541015625 56.61532211303711 0.9999923706054688 49.99993515014648 0.9999923706054688 M 49.99993515014648 -7.62939453125e-06 C 77.6141357421875 -7.62939453125e-06 99.99987030029297 22.38572692871094 99.99987030029297 49.99993133544922 L 99.99987030029297 50.00006103515625 C 99.99987030029297 77.61426544189453 77.6141357421875 100 49.99993515014648 100 C 22.38573455810547 100 0 77.61426544189453 0 50.00006103515625 L 0 49.99993133544922 C 0 22.38572692871094 22.38573455810547 -7.62939453125e-06 49.99993515014648 -7.62939453125e-06 Z" stroke="none" fill="#fff"/>
            </g>
          </g>
          <g id="Rectángulo_400907" data-name="Rectángulo 400907" transform="translate(0)" fill="none" stroke="#fff" stroke-width="1">
            <rect width="100" height="100" rx="50" stroke="none"/>
            <rect x="0.5" y="0.5" width="99" height="99" rx="49.5" fill="none"/>
          </g>
        </g>
      </g>
    </g>
    <g id="farmer_2979795" transform="translate(345.95 3862.031)">
      <g id="Grupo_1198290" data-name="Grupo 1198290" transform="translate(6.257 2.257)">
        <g id="Grupo_1198271" data-name="Grupo 1198271" transform="translate(12.57 67.138)">
          <path id="Trazado_916513" data-name="Trazado 916513" d="M41.141,63.694H16V56.152H31.084a2.458,2.458,0,0,0,1.772-.742Z" transform="translate(-16 -55.41)" fill="#fcd770"/>
        </g>
        <g id="Grupo_1198272" data-name="Grupo 1198272" transform="translate(14.393 42.287)">
          <path id="Trazado_916514" data-name="Trazado 916514" d="M24.427,41.121l6.285-3.771L37,41.121,39.172,35.7a32.581,32.581,0,0,1,12.193,6.1l4.3,3.444-5.9,10.609L45.8,53.691v12.57l-12.57-12.57a2.521,2.521,0,0,0-2.514-2.514L17.45,37.915a20.117,20.117,0,0,1,4.777-2.275Z" transform="translate(-17.45 -35.64)" fill="#fcd770"/>
        </g>
        <g id="Grupo_1198273" data-name="Grupo 1198273" transform="translate(5.078 48.031)">
          <path id="Trazado_916515" data-name="Trazado 916515" d="M17.532,52.516H10.04A21.188,21.188,0,0,1,10.379,50a20.4,20.4,0,0,1,4.9-9.792L26.96,51.888l-.629.629Z" transform="translate(-10.04 -40.21)" fill="#fcd770"/>
        </g>
        <g id="Grupo_1198274" data-name="Grupo 1198274" transform="translate(29.427 60.338)">
          <path id="Trazado_916516" data-name="Trazado 916516" d="M45.236,65.084H37.694L29.41,56.8a2.458,2.458,0,0,0,.742-1.772V50l12.57,12.57Z" transform="translate(-29.41 -50)" fill="#969faa"/>
        </g>
        <g id="Grupo_1198275" data-name="Grupo 1198275" transform="translate(7.542 41.482)">
          <path id="Trazado_916517" data-name="Trazado 916517" d="M18.851,38.08,32.113,51.341H29.385a2.522,2.522,0,0,0-1.785.742l-1.144,1.144L14.778,41.549,12,38.771A3.766,3.766,0,0,1,15.771,35Z" transform="translate(-12 -35)" fill="#969faa"/>
        </g>
        <g id="Grupo_1198276" data-name="Grupo 1198276" transform="translate(2.514 36.454)">
          <path id="Trazado_916518" data-name="Trazado 916518" d="M11.771,31,16.8,36.028A3.766,3.766,0,0,0,13.028,39.8L8,34.771A3.777,3.777,0,0,1,11.771,31Z" transform="translate(-8 -31)" fill="#b27946"/>
        </g>
        <g id="Grupo_1198277" data-name="Grupo 1198277" transform="translate(0 40.225)">
          <path id="Trazado_916519" data-name="Trazado 916519" d="M13.542,39.028l2.778,2.778a20.4,20.4,0,0,0-4.9,9.792H7.257A1.261,1.261,0,0,1,6,50.341V40.071A8.592,8.592,0,0,1,8.514,34Z" transform="translate(-6 -34)" fill="#e6e9ed"/>
        </g>
        <g id="Grupo_1198278" data-name="Grupo 1198278" transform="translate(27.655 41.482)">
          <path id="Trazado_916520" data-name="Trazado 916520" d="M36.46,35.867l-2.175,5.418L28,37.514,33.028,35l3.13.779a2.731,2.731,0,0,1,.3.088Z" transform="translate(-28 -35)" fill="#a0d468"/>
        </g>
        <g id="Grupo_1198279" data-name="Grupo 1198279" transform="translate(19.17 41.482)">
          <path id="Trazado_916521" data-name="Trazado 916521" d="M29.735,37.514,23.45,41.285,21.25,35.8a19.494,19.494,0,0,1,3.457-.8Z" transform="translate(-21.25 -35)" fill="#a0d468"/>
        </g>
        <g id="Grupo_1198280" data-name="Grupo 1198280" transform="translate(15.323 5.028)">
          <path id="Trazado_916522" data-name="Trazado 916522" d="M41.709,7.144l1.144,5.3a50.685,50.685,0,0,0-12.332-1.42,50.685,50.685,0,0,0-12.332,1.42l1.144-5.3A52.434,52.434,0,0,1,30.522,6,52.434,52.434,0,0,1,41.709,7.144Z" transform="translate(-18.19 -6)" fill="#fcd770"/>
        </g>
        <g id="Grupo_1198281" data-name="Grupo 1198281" transform="translate(16.467)">
          <path id="Trazado_916523" data-name="Trazado 916523" d="M41.073,6.3l.4,1.873A52.434,52.434,0,0,0,30.288,7.028,52.434,52.434,0,0,0,19.1,8.172L19.5,6.3a5.025,5.025,0,0,1,4.362-3.935,56.775,56.775,0,0,1,12.847,0A5.025,5.025,0,0,1,41.073,6.3Z" transform="translate(-19.1 -2)" fill="#dfb28b"/>
        </g>
        <g id="Grupo_1198282" data-name="Grupo 1198282" transform="translate(5.028 10.056)">
          <path id="Trazado_916524" data-name="Trazado 916524" d="M55.253,18.8c0,2.627-2.967,4.99-7.655,6.6h-.013A3.751,3.751,0,0,0,43.94,22.57H42.683V21.125a6.094,6.094,0,0,0-6.1-6.1,6.171,6.171,0,0,0-2.728.641l-1.232.616-1.232-.616a6.171,6.171,0,0,0-2.728-.641,6.094,6.094,0,0,0-6.1,6.1V22.57H21.313A3.751,3.751,0,0,0,17.668,25.4C12.967,23.79,10,21.426,10,18.8c0-3.092,4.1-5.807,10.3-7.379A50.685,50.685,0,0,1,32.627,10a50.685,50.685,0,0,1,12.332,1.42C51.155,12.992,55.253,15.707,55.253,18.8Z" transform="translate(-10 -10)" fill="#d3a06c"/>
        </g>
        <g id="Grupo_1198283" data-name="Grupo 1198283" transform="translate(5.028 57.824)">
          <path id="Trazado_916525" data-name="Trazado 916525" d="M10.05,50.514H26.341l.629-.629,1.144-1.144A2.522,2.522,0,0,1,29.9,48h2.728a2.521,2.521,0,0,1,2.514,2.514v5.028a2.532,2.532,0,0,1-2.514,2.514h-17.6A5.027,5.027,0,0,1,10,53.028V51.947C10,51.469,10.013,50.992,10.05,50.514Z" transform="translate(-10 -48)" fill="#f0d0b4"/>
        </g>
        <g id="Grupo_1198284" data-name="Grupo 1198284" transform="translate(46.711 25.141)">
          <path id="Trazado_916526" data-name="Trazado 916526" d="M54.272,27.028V25.771a3.771,3.771,0,0,1,7.542,0V57.725a7.015,7.015,0,0,1-10.371,6.159L43.16,59.359l5.9-10.609,2.64,2.112,2.577-13.777-1.043-1.043a5.033,5.033,0,0,1-1.471-3.557V29.542a2.532,2.532,0,0,1,2.514-2.514Z" transform="translate(-43.16 -22)" fill="#f0d0b4"/>
        </g>
        <g id="Grupo_1198285" data-name="Grupo 1198285" transform="translate(37.711 22.627)">
          <path id="Trazado_916527" data-name="Trazado 916527" d="M40.9,22.828a3.347,3.347,0,0,1,.126.943,3.777,3.777,0,0,1-3.771,3.771H36V20h1.257A3.751,3.751,0,0,1,40.9,22.828Z" transform="translate(-36 -20)" fill="#f0d0b4"/>
        </g>
        <g id="Grupo_1198286" data-name="Grupo 1198286" transform="translate(22.627 37.56)">
          <path id="Trazado_916528" data-name="Trazado 916528" d="M33.076,31.88l.98,3.922-5.028,2.514L24,35.8l.98-3.922a7.646,7.646,0,0,0,1.534.151h5.028A7.646,7.646,0,0,0,33.076,31.88Z" transform="translate(-24 -31.88)" fill="#f0d0b4"/>
        </g>
        <g id="Grupo_1198287" data-name="Grupo 1198287" transform="translate(17.598 15.084)">
          <path id="Trazado_916529" data-name="Trazado 916529" d="M30.056,26.57H28.133a5.023,5.023,0,0,0-4.978,4.312l-.553,3.9A7.507,7.507,0,0,1,20,29.084V20.1A6.094,6.094,0,0,1,26.1,14a6.171,6.171,0,0,1,2.728.641l1.232.616,1.232-.616A6.171,6.171,0,0,1,34.016,14a6.094,6.094,0,0,1,6.1,6.1v8.988a7.507,7.507,0,0,1-2.6,5.694l-.553-3.9A5.023,5.023,0,0,0,31.98,26.57Z" transform="translate(-20 -14)" fill="#f0d0b4"/>
        </g>
        <g id="Grupo_1198288" data-name="Grupo 1198288" transform="translate(12.57 22.627)">
          <path id="Trazado_916530" data-name="Trazado 916530" d="M21.028,20v7.542H19.771A3.777,3.777,0,0,1,16,23.771a3.347,3.347,0,0,1,.126-.943A3.751,3.751,0,0,1,19.771,20Z" transform="translate(-16 -20)" fill="#f0d0b4"/>
        </g>
        <g id="Grupo_1198289" data-name="Grupo 1198289" transform="translate(20.201 27.655)">
          <path id="Trazado_916531" data-name="Trazado 916531" d="M36.425,28.312l.553,3.9a7.464,7.464,0,0,1-3.407,1.7,7.646,7.646,0,0,1-1.534.151H27.01a7.646,7.646,0,0,1-1.534-.151,7.464,7.464,0,0,1-3.407-1.7l.553-3.9A5.023,5.023,0,0,1,27.6,24h3.847a5.023,5.023,0,0,1,4.978,4.312Z" transform="translate(-22.07 -24)" fill="#cf9e76"/>
        </g>
      </g>
      <g id="Grupo_1198291" data-name="Grupo 1198291" transform="translate(5 1)">
        <circle id="Elipse_12126" data-name="Elipse 12126" cx="1" cy="1" r="1" transform="translate(22.94 22.968)"/>
        <circle id="Elipse_12127" data-name="Elipse 12127" cx="1" cy="1" r="1" transform="translate(32.94 22.968)"/>
        <path id="Trazado_916532" data-name="Trazado 916532" d="M67.852,26.141a5.033,5.033,0,0,0-5.028,5.028V31.4a3.766,3.766,0,0,0-2.514,3.54v2.945a6.246,6.246,0,0,0,1.842,4.445l.572.572L60.649,53.965l-5.3-4.237a34.157,34.157,0,0,0-12.97-6.422l-2.4-.6-.509-2.033a8.811,8.811,0,0,0,5.657-6.989h.1a5.033,5.033,0,0,0,5.028-5.028c0-.041-.011-.079-.013-.121C55.1,26.666,57.8,24.059,57.8,21.112c0-3.609-4.075-6.657-10.489-8.422l-1.38-6.4a6.3,6.3,0,0,0-5.453-4.928,58.9,58.9,0,0,0-13.125,0A6.3,6.3,0,0,0,21.9,6.295l-1.379,6.4C14.1,14.455,10.028,17.5,10.028,21.112c0,2.946,2.691,5.554,7.555,7.422,0,.041-.013.079-.013.121A5.033,5.033,0,0,0,22.6,33.683h.1a8.813,8.813,0,0,0,5.657,6.989l-.5,1.991a21.578,21.578,0,0,0-7,2.587l-7.8-7.8h-.52A5.017,5.017,0,0,0,7.569,41.94,9.906,9.906,0,0,0,5,48.551V58.824a2.517,2.517,0,0,0,2.514,2.514h2.7a21.805,21.805,0,0,0-.187,2.694v1.077a6.292,6.292,0,0,0,6.285,6.285H17.57v7.542H54.545l-4.292-4.292V64.713l10.4,5.673A8.271,8.271,0,0,0,72.88,63.125V31.169a5.033,5.033,0,0,0-5.028-5.028ZM31.3,46.354l-3.056,1.833-1.128-2.818c.52-.129,1.051-.226,1.585-.313Zm7.787-1.282,1.578.395-1.087,2.72-3.056-1.833Zm-3.252-13.9a3.788,3.788,0,0,1,3.732,3.238l.451,3.161a6.24,6.24,0,0,1-3.594,1.143H31.4A6.24,6.24,0,0,1,27.8,37.568l.451-3.161a3.787,3.787,0,0,1,3.732-3.238Zm9.389,0V26.141a2.514,2.514,0,1,1,0,5.028ZM27.637,3.863a56.769,56.769,0,0,1,12.55,0,3.793,3.793,0,0,1,3.282,2.96l.006.026a58.554,58.554,0,0,0-19.127,0l.006-.026a3.8,3.8,0,0,1,3.282-2.96ZM23.774,9.516a55.258,55.258,0,0,1,20.277,0l.548,2.543a54.624,54.624,0,0,0-10.687-1,54.624,54.624,0,0,0-10.687,1ZM20.084,28.655A2.517,2.517,0,0,1,22.6,26.141v5.028A2.517,2.517,0,0,1,20.084,28.655ZM22.6,23.443v.184a5.014,5.014,0,0,0-4.317,2.49c-3.605-1.419-5.74-3.249-5.74-5,0-3.567,8.775-7.542,21.37-7.542s21.37,3.975,21.37,7.542c0,1.755-2.134,3.585-5.74,5a5.014,5.014,0,0,0-4.317-2.49v-.184a7.359,7.359,0,0,0-10.65-6.582l-.664.332-.664-.332A7.359,7.359,0,0,0,22.6,23.443Zm2.514,8.983V23.443a4.845,4.845,0,0,1,7.012-4.333L33.912,20,35.7,19.11a4.846,4.846,0,0,1,7.013,4.333v8.983a6.235,6.235,0,0,1-.528,2.5l-.126-.879a6.315,6.315,0,0,0-6.221-5.4h-.667V26.141H32.655v2.514h-.667a6.315,6.315,0,0,0-6.221,5.4l-.126.879a6.235,6.235,0,0,1-.528-2.5Zm6.285,8.8h5.028c.2,0,.39-.016.582-.029l.468,1.869-3.564,1.782-3.564-1.782.468-1.869C31.008,41.209,31.2,41.225,31.4,41.225Zm-6.676,4.92L26.7,51.091l-4-4a18.7,18.7,0,0,1,2.023-.945ZM17.57,58.824v2.514h-4.84a19.179,19.179,0,0,1,3.926-9.191l9.193,9.191H20.084V58.824Zm10.945,1.1-.26.26L15.1,47.038A2.516,2.516,0,0,1,17.1,45.044L30.9,58.851a3.727,3.727,0,0,0-2.39,1.077ZM12.067,40.013l3.1,3.1a5.036,5.036,0,0,0-1.994,1.994l-3.1-3.1a2.516,2.516,0,0,1,1.994-1.994Zm-1.387,18.81H7.514V48.551a7.369,7.369,0,0,1,1.34-4.209l6.027,6.027a21.659,21.659,0,0,0-4.2,8.454Zm1.862,6.285V64.031c0-.06,0-.119,0-.18h15.6l2.146-2.146a1.263,1.263,0,0,1,.889-.368h2.73a1.257,1.257,0,0,1,1.257,1.257v5.028a1.257,1.257,0,0,1-1.257,1.257h-17.6a3.776,3.776,0,0,1-3.771-3.771Zm7.542,6.285H33.912a3.709,3.709,0,0,0,1.615-.378l5.407,5.407H20.084Zm24.4,5.028L37.3,69.238a3.709,3.709,0,0,0,.378-1.615V65.629L48.476,76.422Zm3.251-17.6V72.13L37.624,62.015a3.759,3.759,0,0,0-3.134-3.134L27.3,51.687l6.616-3.968,6.9,4.143,2.3-5.745A31.65,31.65,0,0,1,53.78,51.691l3.464,2.771-4.774,8.6-2.217-1.208V58.824Zm22.627,4.3a5.755,5.755,0,0,1-8.51,5.052L54.677,64.26l4.559-8.207.889.711-1.05,5.6,2.47.464L65.439,42.06l-1.51-1.51a3.737,3.737,0,0,1-1.106-2.665V34.94a1.257,1.257,0,0,1,2.514,0V36.2h2.514V34.94a3.766,3.766,0,0,0-2.514-3.54v-.231a2.514,2.514,0,0,1,5.028,0Z" transform="translate(-5 -1)"/>
        <path id="Trazado_916533" data-name="Trazado 916533" d="M27,41h2.514v2.514H27Z" transform="translate(0.655 9.281)"/>
      </g>
    </g>
  </g>
</svg>
