<svg xmlns="http://www.w3.org/2000/svg" xmlns:xlink="http://www.w3.org/1999/xlink" width="118" height="118" viewBox="0 0 118 118">
  <defs>
    <filter id="Trazado_874925" x="0" y="0" width="118" height="118" filterUnits="userSpaceOnUse">
      <feOffset dy="3" input="SourceAlpha"/>
      <feGaussianBlur stdDeviation="3" result="blur"/>
      <feFlood flood-opacity="0.161"/>
      <feComposite operator="in" in2="blur"/>
      <feComposite in="SourceGraphic"/>
    </filter>
  </defs>
  <g id="Grupo_1199307" data-name="Grupo 1199307" transform="translate(-4976.392 8377.577)">
    <g id="Grupo_1198189" data-name="Grupo 1198189" transform="translate(4176.892 -10888.734)">
      <g id="Grupo_1111316" data-name="Grupo 1111316" transform="translate(808.5 2517.157)">
        <g id="Grupo_1109835" data-name="Grupo 1109835" transform="translate(0 0)">
          <g id="Grupo_1107913" data-name="Grupo 1107913" transform="translate(0 0)">
            <g transform="matrix(1, 0, 0, 1, -9, -6)" filter="url(#Trazado_874925)">
              <g id="Trazado_874925-2" data-name="Trazado 874925" transform="translate(9 6)" fill="#9ad354" opacity="0.859">
                <path d="M 49.99972534179688 98.4998779296875 C 43.45164108276367 98.4998779296875 37.10022354125977 97.21776580810547 31.12189674377441 94.68914794921875 C 25.34676742553711 92.24647521972656 20.15985298156738 88.74925994873047 15.70523929595947 84.29464721679688 C 11.25062561035156 79.84004974365234 7.753411293029785 74.65313720703125 5.310725212097168 68.87800598144531 C 2.782111167907715 62.89969253540039 1.499996781349182 56.54829406738281 1.499996781349182 50.00022125244141 C 1.499996781349182 43.45157623291016 2.782111167907715 37.10017776489258 5.310725212097168 31.12186431884766 C 7.753411293029785 25.34673500061035 11.25062561035156 20.15983581542969 15.70523929595947 15.70522117614746 C 20.15985298156738 11.25062084197998 25.34676742553711 7.753406524658203 31.12189674377441 5.31073522567749 C 37.10022354125977 2.782120943069458 43.45164108276367 1.500006556510925 49.99972534179688 1.500006556510925 C 56.54780960083008 1.500006556510925 62.89922714233398 2.782120943069458 68.87755584716797 5.31073522567749 C 74.65267944335938 7.753406524658203 79.839599609375 11.25062084197998 84.29421234130859 15.70522117614746 C 88.74882507324219 20.15983581542969 92.24604034423828 25.34673500061035 94.68872833251953 31.12186431884766 C 97.21733856201172 37.10017776489258 98.49945068359375 43.45157623291016 98.49945068359375 49.99964904785156 C 98.49945068359375 56.54829406738281 97.21733856201172 62.89969253540039 94.68872833251953 68.87800598144531 C 92.24604034423828 74.65313720703125 88.74882507324219 79.84004974365234 84.29421234130859 84.29464721679688 C 79.839599609375 88.74925994873047 74.65267944335938 92.24647521972656 68.87755584716797 94.68914794921875 C 62.89922714233398 97.21776580810547 56.54780960083008 98.4998779296875 49.99972534179688 98.4998779296875 Z" stroke="none"/>
                <path d="M 49.99972534179688 3 C 43.65348052978516 3 37.49866485595703 4.242240905761719 31.70623016357422 6.692230224609375 C 26.10989379882812 9.059272766113281 21.08323669433594 12.44853210449219 16.76589202880859 16.76587677001953 C 12.44855499267578 21.08321380615234 9.059295654296875 26.10985565185547 6.692230224609375 31.70618438720703 C 4.24224853515625 37.49859619140625 3 43.65341186523438 3 50.00022888183594 C 3 56.34645843505859 4.24224853515625 62.50127410888672 6.692230224609375 68.29368591308594 C 9.059295654296875 73.8900146484375 12.44855499267578 78.91665649414062 16.76589202880859 83.23399353027344 C 21.08323669433594 87.55132293701172 26.10989379882812 90.94059753417969 31.70623016357422 93.30764007568359 C 37.49866485595703 95.75762939453125 43.65348052978516 96.99987030029297 49.99972534179688 96.99987030029297 C 56.34597015380859 96.99987030029297 62.50078582763672 95.75762939453125 68.293212890625 93.30764007568359 C 73.88955688476562 90.94059753417969 78.91621398925781 87.55132293701172 83.23355865478516 83.23399353027344 C 87.55089569091797 78.91665649414062 90.94015502929688 73.8900146484375 93.30722045898438 68.29368591308594 C 95.7572021484375 62.50127410888672 96.99945068359375 56.34645843505859 96.99945068359375 49.99964141845703 C 96.99945068359375 43.65341186523438 95.7572021484375 37.49859619140625 93.30722045898438 31.70618438720703 C 90.94015502929688 26.10985565185547 87.55089569091797 21.08321380615234 83.23355865478516 16.76587677001953 C 78.91621398925781 12.44853210449219 73.88955688476562 9.059272766113281 68.293212890625 6.692230224609375 C 62.50078582763672 4.242240905761719 56.34597015380859 3 49.99972534179688 3 M 49.99972534179688 0 C 77.61381530761719 0 99.99945068359375 22.38559722900391 99.99945068359375 49.99964141845703 L 99.99945068359375 50.00022888183594 C 99.99945068359375 77.6142578125 77.61381530761719 99.99987030029297 49.99972534179688 99.99987030029297 C 22.38563537597656 99.99987030029297 0 77.6142578125 0 50.00022888183594 L 0 49.99964141845703 C 0 22.38559722900391 22.38563537597656 0 49.99972534179688 0 Z" stroke="none" fill="#fff"/>
              </g>
            </g>
            <g id="Trazado_874923" data-name="Trazado 874923" transform="translate(0 0)" fill="none">
              <path d="M50,0a50,50,0,0,1,50,50h0A50,50,0,0,1,0,50H0A50,50,0,0,1,50,0Z" stroke="none"/>
              <path d="M 49.99972534179688 3 C 43.65348052978516 3 37.49866485595703 4.242240905761719 31.70623016357422 6.692230224609375 C 26.10989379882812 9.059272766113281 21.08323669433594 12.44853210449219 16.76589202880859 16.76587677001953 C 12.44855499267578 21.08321380615234 9.059295654296875 26.10985565185547 6.692230224609375 31.70618438720703 C 4.24224853515625 37.49859619140625 3 43.65341186523438 3 50.00022888183594 C 3 56.34645843505859 4.24224853515625 62.50127410888672 6.692230224609375 68.29368591308594 C 9.059295654296875 73.8900146484375 12.44855499267578 78.91665649414062 16.76589202880859 83.23399353027344 C 21.08323669433594 87.55132293701172 26.10989379882812 90.94059753417969 31.70623016357422 93.30764007568359 C 37.49866485595703 95.75762939453125 43.65348052978516 96.99987030029297 49.99972534179688 96.99987030029297 C 56.34597015380859 96.99987030029297 62.50078582763672 95.75762939453125 68.293212890625 93.30764007568359 C 73.88955688476562 90.94059753417969 78.91621398925781 87.55132293701172 83.23355865478516 83.23399353027344 C 87.55089569091797 78.91665649414062 90.94015502929688 73.8900146484375 93.30722045898438 68.29368591308594 C 95.7572021484375 62.50127410888672 96.99945068359375 56.34645843505859 96.99945068359375 49.99964141845703 C 96.99945068359375 43.65341186523438 95.7572021484375 37.49859619140625 93.30722045898438 31.70618438720703 C 90.94015502929688 26.10985565185547 87.55089569091797 21.08321380615234 83.23355865478516 16.76587677001953 C 78.91621398925781 12.44853210449219 73.88955688476562 9.059272766113281 68.293212890625 6.692230224609375 C 62.50078582763672 4.242240905761719 56.34597015380859 3 49.99972534179688 3 M 49.99972534179688 0 C 77.61381530761719 0 99.99945068359375 22.38559722900391 99.99945068359375 49.99964141845703 L 99.99945068359375 50.00022888183594 C 99.99945068359375 77.6142578125 77.61381530761719 99.99987030029297 49.99972534179688 99.99987030029297 C 22.38563537597656 99.99987030029297 0 77.6142578125 0 50.00022888183594 L 0 49.99964141845703 C 0 22.38559722900391 22.38563537597656 0 49.99972534179688 0 Z" stroke="none" fill="#fff"/>
            </g>
          </g>
        </g>
      </g>
    </g>
    <g id="farmer_10649822" transform="translate(4998.076 -8358.745)">
      <g id="Grupo_1199257" data-name="Grupo 1199257" transform="translate(0.411 0.412)">
        <circle id="Elipse_12158" data-name="Elipse 12158" cx="36.757" cy="36.757" r="36.757" transform="translate(0 0)" fill="#0abfb2"/>
      </g>
      <g id="Grupo_1199258" data-name="Grupo 1199258" transform="translate(0 0)">
        <path id="Trazado_1031019" data-name="Trazado 1031019" d="M37.168,74.336A37.173,37.173,0,0,1,10.883,10.883a37.173,37.173,0,0,1,52.57,52.57A36.93,36.93,0,0,1,37.168,74.336Zm0-72.849A35.681,35.681,0,1,0,72.849,37.168,35.729,35.729,0,0,0,37.168,1.487Z" transform="translate(0 0)" fill="#1c1d21"/>
      </g>
      <g id="Grupo_1199259" data-name="Grupo 1199259" transform="translate(24.754 14.882)">
        <path id="Trazado_1031020" data-name="Trazado 1031020" d="M189.232,123a33.163,33.163,0,0,1-4.207-1.695l-3-1.412a2.007,2.007,0,0,1-1.189-1.844v-1.026a1.473,1.473,0,0,1,.862-1.338,6.611,6.611,0,0,0,3.791-5.962v-3.033a6.586,6.586,0,0,0-13.172,0v3.033a6.585,6.585,0,0,0,3.791,5.962,1.49,1.49,0,0,1,.862,1.338v1.026a2.048,2.048,0,0,1-1.189,1.844l-3.033,1.442a32.085,32.085,0,0,1-4.133,1.68,3.012,3.012,0,0,0-2.111,2.869v12.578h24.858V125.88A3.063,3.063,0,0,0,189.232,123Z" transform="translate(-166.5 -100.1)" fill="#ffc5b3"/>
      </g>
      <g id="Grupo_1199260" data-name="Grupo 1199260" transform="translate(23.996 14.139)">
        <path id="Trazado_1031021" data-name="Trazado 1031021" d="M187,134.944H162.143a.736.736,0,0,1-.743-.743V121.623a3.734,3.734,0,0,1,2.631-3.583,33.408,33.408,0,0,0,4.044-1.635l3.033-1.442a.015.015,0,0,0,.015-.015,1.269,1.269,0,0,0,.758-1.16v-1.026a.738.738,0,0,0-.446-.669,7.358,7.358,0,0,1-4.207-6.631V102.43a7.33,7.33,0,0,1,14.659,0v3.033a7.358,7.358,0,0,1-4.207,6.631.763.763,0,0,0-.446.669v1.026a1.27,1.27,0,0,0,.758,1.16h.015l3,1.412a33.654,33.654,0,0,0,4.118,1.665,3.734,3.734,0,0,1,2.632,3.583v12.578a.781.781,0,0,1-.758.758Zm-24.115-1.487h23.371V121.623a2.248,2.248,0,0,0-1.591-2.156,32.461,32.461,0,0,1-4.3-1.739l-3-1.412a2.753,2.753,0,0,1-1.635-2.513v-1.026a2.26,2.26,0,0,1,1.293-2.022,5.882,5.882,0,0,0,3.36-5.293V102.43a5.843,5.843,0,1,0-11.686,0v3.033a5.9,5.9,0,0,0,3.36,5.293,2.243,2.243,0,0,1,1.293,2.022V113.8a2.753,2.753,0,0,1-1.635,2.513l-3.018,1.427a31.607,31.607,0,0,1-4.237,1.71,2.248,2.248,0,0,0-1.591,2.156v11.849Z" transform="translate(-161.4 -95.1)" fill="#1c1d21"/>
      </g>
      <g id="Grupo_1199263" data-name="Grupo 1199263" transform="translate(29.615 7.508)">
        <g id="Grupo_1199261" data-name="Grupo 1199261" transform="translate(0.728 0.743)">
          <path id="Trazado_1031022" data-name="Trazado 1031022" d="M217.689,63.751V62.294a6.794,6.794,0,1,0-13.589,0v1.457Z" transform="translate(-204.1 -55.5)" fill="#ff8939"/>
        </g>
        <g id="Grupo_1199262" data-name="Grupo 1199262">
          <path id="Trazado_1031023" data-name="Trazado 1031023" d="M213.517,60.238H199.943a.736.736,0,0,1-.743-.743V58.038a7.538,7.538,0,0,1,15.075,0v1.457A.769.769,0,0,1,213.517,60.238Zm-12.83-1.487h12.087v-.714a6.051,6.051,0,0,0-12.1,0v.714Z" transform="translate(-199.2 -50.5)" fill="#1c1d21"/>
        </g>
      </g>
      <g id="Grupo_1199264" data-name="Grupo 1199264" transform="translate(24.739 34.626)">
        <path id="Trazado_1031024" data-name="Trazado 1031024" d="M189.266,236.1a43.818,43.818,0,0,1-4.074-1.621l-3.256-1.531-.089-.045a5.435,5.435,0,0,1-6.051.03l-.03-.03-.089.045-3.256,1.546a42.884,42.884,0,0,1-4.029,1.606,3.013,3.013,0,0,0-1.992,2.825V251.5h24.858V238.921A3.013,3.013,0,0,0,189.266,236.1Z" transform="translate(-166.4 -232.9)" fill="#ff3e63"/>
      </g>
      <g id="Grupo_1199265" data-name="Grupo 1199265" transform="translate(23.996 33.892)">
        <path id="Trazado_1031025" data-name="Trazado 1031025" d="M187,248.057H162.143a.736.736,0,0,1-.743-.743V234.736a3.753,3.753,0,0,1,2.483-3.524c1.368-.491,2.691-.981,3.955-1.576l3.256-1.546a.015.015,0,0,0,.015-.015c.015,0,.015-.015.03-.015l.015-.015a.74.74,0,0,1,.743.045l.03.03a4.668,4.668,0,0,0,5.218-.015.74.74,0,0,1,.743-.045l.03.015c.015,0,.015.015.03.015h.015l3.256,1.531c1.264.595,2.572,1.07,4.014,1.591a3.753,3.753,0,0,1,2.483,3.524v12.578a.711.711,0,0,1-.714.743Zm-24.115-1.487h23.371V234.736a2.258,2.258,0,0,0-1.5-2.126c-1.487-.535-2.81-1.026-4.148-1.65l-2.973-1.4a6.136,6.136,0,0,1-6.185,0l-2.973,1.412c-1.323.624-2.691,1.13-4.088,1.635a2.278,2.278,0,0,0-1.5,2.126Z" transform="translate(-161.4 -227.967)" fill="#1c1d21"/>
      </g>
      <g id="Grupo_1199266" data-name="Grupo 1199266" transform="translate(34.553 26.331)">
        <path id="Trazado_1031026" data-name="Trazado 1031026" d="M235.026,179.681a2.885,2.885,0,0,1-2.513-1.457.739.739,0,1,1,1.279-.743,1.449,1.449,0,0,0,1.234.714,1.417,1.417,0,0,0,1.234-.714.739.739,0,1,1,1.279.743A2.916,2.916,0,0,1,235.026,179.681Z" transform="translate(-232.411 -177.111)" fill="#1c1d21"/>
      </g>
      <g id="Grupo_1199267" data-name="Grupo 1199267" transform="translate(29.437 35.369)">
        <path id="Trazado_1031027" data-name="Trazado 1031027" d="M213.447,239.327c-.461-.193-.907-.387-1.353-.595l-1.754-.818v4.876a2.024,2.024,0,0,1-2.022,2.022h-5.174a2.024,2.024,0,0,1-2.022-2.022V237.9l-1.814.862c-.431.208-.862.387-1.308.58v19.907l6.735,6.854,8.7-10.466V239.327Z" transform="translate(-198 -237.9)" fill="#508def"/>
      </g>
      <g id="Grupo_1199268" data-name="Grupo 1199268" transform="translate(28.694 34.617)">
        <path id="Trazado_1031028" data-name="Trazado 1031028" d="M200.582,262.539a.7.7,0,0,1-.52-.223l-6.839-6.854a.757.757,0,0,1-.223-.52V235.02a.7.7,0,0,1,.223-.52.85.85,0,0,1,.238-.164c.461-.193.877-.372,1.264-.565l1.814-.862a.76.76,0,0,1,.714.045.75.75,0,0,1,.342.624v4.891a1.278,1.278,0,0,0,1.279,1.279h5.174a1.278,1.278,0,0,0,1.279-1.279v-4.862a.75.75,0,0,1,.342-.624.76.76,0,0,1,.714-.045l1.754.833c.4.193.833.372,1.323.58a.741.741,0,0,1,.461.684v16.294a.768.768,0,0,1-.164.476l-8.608,10.466a.7.7,0,0,1-.535.268ZM194.5,254.63l6.036,6.066,7.909-9.634V235.526c-.327-.149-.639-.282-.937-.416l-.7-.327v3.7a2.77,2.77,0,0,1-2.765,2.765h-5.174a2.77,2.77,0,0,1-2.765-2.765v-3.717l-.743.357c-.282.134-.565.268-.877.4v19.1Z" transform="translate(-193 -232.841)" fill="#1c1d21"/>
      </g>
      <g id="Grupo_1199269" data-name="Grupo 1199269" transform="translate(27.638 20.963)">
        <path id="Trazado_1031029" data-name="Trazado 1031029" d="M187.565,144.821h1.279V141h-1.279a1.662,1.662,0,0,0-1.665,1.665v.491A1.662,1.662,0,0,0,187.565,144.821Z" transform="translate(-185.9 -141)" fill="#ffc5b3"/>
      </g>
      <g id="Grupo_1199270" data-name="Grupo 1199270" transform="translate(26.895 20.219)">
        <path id="Trazado_1031030" data-name="Trazado 1031030" d="M184.587,141.308h-1.279A2.417,2.417,0,0,1,180.9,138.9v-.491A2.417,2.417,0,0,1,183.308,136h1.279a.736.736,0,0,1,.743.743v3.821A.736.736,0,0,1,184.587,141.308Zm-1.279-3.821a.926.926,0,0,0-.922.922v.491a.926.926,0,0,0,.922.922h.535v-2.334Z" transform="translate(-180.9 -136)" fill="#1c1d21"/>
      </g>
      <g id="Grupo_1199271" data-name="Grupo 1199271" transform="translate(43.754 20.963)">
        <path id="Trazado_1031031" data-name="Trazado 1031031" d="M295.579,141H294.3v3.821h1.279a1.662,1.662,0,0,0,1.665-1.665v-.491A1.662,1.662,0,0,0,295.579,141Z" transform="translate(-294.3 -141)" fill="#ffc5b3"/>
      </g>
      <g id="Grupo_1199272" data-name="Grupo 1199272" transform="translate(43.011 20.219)">
        <path id="Trazado_1031032" data-name="Trazado 1031032" d="M291.322,141.308h-1.279a.736.736,0,0,1-.743-.743v-3.821a.736.736,0,0,1,.743-.743h1.279a2.417,2.417,0,0,1,2.408,2.408v.491A2.417,2.417,0,0,1,291.322,141.308Zm-.535-1.487h.535a.926.926,0,0,0,.922-.922v-.491a.926.926,0,0,0-.922-.922h-.535Z" transform="translate(-289.3 -136)" fill="#1c1d21"/>
      </g>
      <g id="Grupo_1199273" data-name="Grupo 1199273" transform="translate(33.065 19.089)">
        <path id="Trazado_1031033" data-name="Trazado 1031033" d="M223.143,132.934a.736.736,0,0,1-.743-.743v-3.048a.743.743,0,1,1,1.487,0v3.048A.746.746,0,0,1,223.143,132.934Z" transform="translate(-222.4 -128.4)" fill="#ffece9"/>
      </g>
      <g id="Grupo_1199274" data-name="Grupo 1199274" transform="translate(25.646 16.488)">
        <path id="Trazado_1031034" data-name="Trazado 1031034" d="M193.879,114.23H174.165a1.665,1.665,0,0,1,0-3.33h19.7a1.665,1.665,0,0,1,.015,3.33Z" transform="translate(-172.5 -110.9)" fill="#ff8939"/>
      </g>
      <g id="Grupo_1199275" data-name="Grupo 1199275" transform="translate(24.903 15.744)">
        <path id="Trazado_1031035" data-name="Trazado 1031035" d="M189.622,110.717H169.908a2.408,2.408,0,1,1,0-4.817h19.7a2.409,2.409,0,0,1,.015,4.817ZM169.908,107.4a.922.922,0,1,0,0,1.844h19.7a.922.922,0,1,0,0-1.844Z" transform="translate(-167.5 -105.9)" fill="#1c1d21"/>
      </g>
      <g id="Grupo_1199276" data-name="Grupo 1199276" transform="translate(11.522 38.848)">
        <path id="Trazado_1031036" data-name="Trazado 1031036" d="M84.369,265.894l-1.145-1.145A13.973,13.973,0,0,0,77.5,261.3a14.07,14.07,0,0,0,3.449,5.724l1.145,1.145Z" transform="translate(-77.5 -261.3)" fill="#ff9e5c"/>
      </g>
      <g id="Grupo_1199277" data-name="Grupo 1199277" transform="translate(10.792 38.112)">
        <path id="Trazado_1031037" data-name="Trazado 1031037" d="M77.915,264.7a.7.7,0,0,1-.52-.223l-1.145-1.145a14.666,14.666,0,0,1-3.628-6.021.754.754,0,0,1,.178-.743.722.722,0,0,1,.743-.178,14.73,14.73,0,0,1,6.021,3.628l1.145,1.145a.736.736,0,0,1,0,1.056l-2.26,2.275A.779.779,0,0,1,77.915,264.7ZM74.6,258.363a13.23,13.23,0,0,0,2.706,3.925l.624.624,1.219-1.219-.624-.624A13.23,13.23,0,0,0,74.6,258.363Z" transform="translate(-72.592 -256.348)" fill="#1c1d21"/>
      </g>
      <g id="Grupo_1199278" data-name="Grupo 1199278" transform="translate(23.133 56.763)">
        <path id="Trazado_1031038" data-name="Trazado 1031038" d="M159.986,381.8H155.6l1.68,1.68a4.65,4.65,0,0,0,3.271,1.353h4.386l-1.68-1.68A4.624,4.624,0,0,0,159.986,381.8Z" transform="translate(-155.6 -381.8)" fill="#ff9e5c"/>
      </g>
      <g id="Grupo_1199279" data-name="Grupo 1199279" transform="translate(20.041 53.671)">
        <path id="Trazado_1031039" data-name="Trazado 1031039" d="M139.186,361H134.8l1.68,1.68a4.65,4.65,0,0,0,3.271,1.353h4.386l-1.68-1.68A4.65,4.65,0,0,0,139.186,361Z" transform="translate(-134.8 -361)" fill="#ff9e5c"/>
      </g>
      <g id="Grupo_1199280" data-name="Grupo 1199280" transform="translate(16.949 50.578)">
        <path id="Trazado_1031040" data-name="Trazado 1031040" d="M118.386,340.2H114l1.68,1.68a4.65,4.65,0,0,0,3.271,1.353h4.386l-1.68-1.68A4.613,4.613,0,0,0,118.386,340.2Z" transform="translate(-114 -340.2)" fill="#ff9e5c"/>
      </g>
      <g id="Grupo_1199281" data-name="Grupo 1199281" transform="translate(13.856 47.471)">
        <path id="Trazado_1031041" data-name="Trazado 1031041" d="M97.571,319.3H93.2l1.68,1.68a4.65,4.65,0,0,0,3.271,1.353h4.386l-1.68-1.68A4.685,4.685,0,0,0,97.571,319.3Z" transform="translate(-93.2 -319.3)" fill="#ff9e5c"/>
      </g>
      <g id="Grupo_1199282" data-name="Grupo 1199282" transform="translate(10.749 44.379)">
        <path id="Trazado_1031042" data-name="Trazado 1031042" d="M76.686,298.5H72.3l1.68,1.68a4.65,4.65,0,0,0,3.271,1.353h4.386l-1.68-1.68A4.624,4.624,0,0,0,76.686,298.5Z" transform="translate(-72.3 -298.5)" fill="#ff9e5c"/>
      </g>
      <g id="Grupo_1199283" data-name="Grupo 1199283" transform="translate(29.437 50.459)">
        <path id="Trazado_1031043" data-name="Trazado 1031043" d="M198,343.786V339.4l1.68,1.68a4.65,4.65,0,0,1,1.353,3.271v4.386l-1.68-1.68A4.624,4.624,0,0,1,198,343.786Z" transform="translate(-198 -339.4)" fill="#ff9e5c"/>
      </g>
      <g id="Grupo_1199284" data-name="Grupo 1199284" transform="translate(26.345 47.367)">
        <path id="Trazado_1031044" data-name="Trazado 1031044" d="M177.2,322.986V318.6l1.68,1.68a4.65,4.65,0,0,1,1.353,3.271v4.386l-1.68-1.68A4.65,4.65,0,0,1,177.2,322.986Z" transform="translate(-177.2 -318.6)" fill="#ff9e5c"/>
      </g>
      <g id="Grupo_1199285" data-name="Grupo 1199285" transform="translate(23.252 44.274)">
        <path id="Trazado_1031045" data-name="Trazado 1031045" d="M156.4,302.186V297.8l1.68,1.68a4.65,4.65,0,0,1,1.353,3.271v4.386l-1.68-1.68A4.613,4.613,0,0,1,156.4,302.186Z" transform="translate(-156.4 -297.8)" fill="#ff9e5c"/>
      </g>
      <g id="Grupo_1199286" data-name="Grupo 1199286" transform="translate(20.145 41.182)">
        <path id="Trazado_1031046" data-name="Trazado 1031046" d="M135.5,281.371V277l1.68,1.68a4.65,4.65,0,0,1,1.353,3.271v4.386l-1.68-1.68A4.685,4.685,0,0,1,135.5,281.371Z" transform="translate(-135.5 -277)" fill="#ff9e5c"/>
      </g>
      <g id="Grupo_1199287" data-name="Grupo 1199287" transform="translate(17.053 38.075)">
        <path id="Trazado_1031047" data-name="Trazado 1031047" d="M114.7,260.486V256.1l1.68,1.68a4.65,4.65,0,0,1,1.353,3.271v4.4l-1.68-1.68A4.685,4.685,0,0,1,114.7,260.486Z" transform="translate(-114.7 -256.1)" fill="#ff9e5c"/>
      </g>
      <g id="Grupo_1199288" data-name="Grupo 1199288" transform="translate(22.393 56.034)">
        <path id="Trazado_1031048" data-name="Trazado 1031048" d="M160.71,381.42h-4.386a5.379,5.379,0,0,1-3.806-1.576l-1.68-1.68a.739.739,0,0,1,.52-1.264h4.386a5.379,5.379,0,0,1,3.806,1.576l1.68,1.68a.736.736,0,0,1,.164.8A.765.765,0,0,1,160.71,381.42Zm-7.553-3.048.416.416a3.882,3.882,0,0,0,2.75,1.145h2.587l-.416-.416a3.881,3.881,0,0,0-2.75-1.145Z" transform="translate(-150.618 -376.9)" fill="#1c1d21"/>
      </g>
      <g id="Grupo_1199289" data-name="Grupo 1199289" transform="translate(19.285 52.927)">
        <path id="Trazado_1031049" data-name="Trazado 1031049" d="M139.81,360.52h-4.386a5.379,5.379,0,0,1-3.806-1.576l-1.68-1.68a.739.739,0,0,1,.52-1.264h4.386a5.379,5.379,0,0,1,3.806,1.576l1.68,1.68a.735.735,0,0,1,.164.8A.712.712,0,0,1,139.81,360.52Zm-7.538-3.033.416.416a3.881,3.881,0,0,0,2.75,1.145h2.587l-.416-.416a3.881,3.881,0,0,0-2.75-1.145Z" transform="translate(-129.718 -356)" fill="#1c1d21"/>
      </g>
      <g id="Grupo_1199290" data-name="Grupo 1199290" transform="translate(16.193 49.835)">
        <path id="Trazado_1031050" data-name="Trazado 1031050" d="M119.01,339.72h-4.386a5.379,5.379,0,0,1-3.806-1.576l-1.68-1.68a.739.739,0,0,1,.52-1.264h4.386a5.379,5.379,0,0,1,3.806,1.576l1.68,1.68a.735.735,0,0,1,.164.8A.727.727,0,0,1,119.01,339.72Zm-7.538-3.033.416.416a3.881,3.881,0,0,0,2.75,1.145h2.587l-.416-.416a3.881,3.881,0,0,0-2.75-1.145Z" transform="translate(-108.918 -335.2)" fill="#1c1d21"/>
      </g>
      <g id="Grupo_1199291" data-name="Grupo 1199291" transform="translate(13.101 46.742)">
        <path id="Trazado_1031051" data-name="Trazado 1031051" d="M98.21,318.92H93.824a5.379,5.379,0,0,1-3.806-1.576l-1.68-1.68a.739.739,0,0,1,.52-1.264h4.386a5.378,5.378,0,0,1,3.806,1.576l1.68,1.68a.739.739,0,0,1-.52,1.264Zm-7.553-3.048.416.416a3.882,3.882,0,0,0,2.75,1.145h2.587L96,317.017a3.881,3.881,0,0,0-2.75-1.145Z" transform="translate(-88.118 -314.4)" fill="#1c1d21"/>
      </g>
      <g id="Grupo_1199292" data-name="Grupo 1199292" transform="translate(10.008 43.65)">
        <path id="Trazado_1031052" data-name="Trazado 1031052" d="M77.41,298.12H73.024a5.379,5.379,0,0,1-3.806-1.576l-1.68-1.68a.739.739,0,0,1,.52-1.264h4.386a5.379,5.379,0,0,1,3.806,1.576l1.68,1.68a.739.739,0,0,1-.52,1.264Zm-7.553-3.048.416.416a3.882,3.882,0,0,0,2.75,1.145h2.587l-.416-.416a3.881,3.881,0,0,0-2.75-1.145Z" transform="translate(-67.318 -293.6)" fill="#1c1d21"/>
      </g>
      <g id="Grupo_1199293" data-name="Grupo 1199293" transform="translate(28.709 49.719)">
        <path id="Trazado_1031053" data-name="Trazado 1031053" d="M196.876,345.254a.7.7,0,0,1-.52-.223l-1.68-1.68a5.353,5.353,0,0,1-1.576-3.806v-4.386a.741.741,0,0,1,.461-.684.73.73,0,0,1,.8.164l1.68,1.68a5.353,5.353,0,0,1,1.576,3.806v4.386a.741.741,0,0,1-.461.684A.959.959,0,0,1,196.876,345.254Zm-2.3-8.3v2.587a3.846,3.846,0,0,0,1.145,2.75l.416.416v-2.587a3.846,3.846,0,0,0-1.145-2.75Z" transform="translate(-193.1 -334.418)" fill="#1c1d21"/>
      </g>
      <g id="Grupo_1199294" data-name="Grupo 1199294" transform="translate(25.601 46.611)">
        <path id="Trazado_1031054" data-name="Trazado 1031054" d="M175.976,324.354a.7.7,0,0,1-.52-.223l-1.68-1.68a5.353,5.353,0,0,1-1.576-3.806v-4.386a.741.741,0,0,1,.461-.684.73.73,0,0,1,.8.164l1.68,1.68a5.353,5.353,0,0,1,1.576,3.806v4.386a.741.741,0,0,1-.461.684A.6.6,0,0,1,175.976,324.354Zm-2.29-8.281v2.587a3.846,3.846,0,0,0,1.145,2.75l.416.416v-2.587a3.846,3.846,0,0,0-1.145-2.75Z" transform="translate(-172.2 -313.518)" fill="#1c1d21"/>
      </g>
      <g id="Grupo_1199295" data-name="Grupo 1199295" transform="translate(22.509 43.519)">
        <path id="Trazado_1031055" data-name="Trazado 1031055" d="M155.176,303.554a.7.7,0,0,1-.52-.223l-1.68-1.68a5.353,5.353,0,0,1-1.576-3.806v-4.386a.741.741,0,0,1,.461-.684.73.73,0,0,1,.8.164l1.68,1.68a5.353,5.353,0,0,1,1.576,3.806v4.386a.741.741,0,0,1-.461.684A.6.6,0,0,1,155.176,303.554Zm-2.29-8.281v2.587a3.846,3.846,0,0,0,1.145,2.75l.416.416v-2.587a3.846,3.846,0,0,0-1.145-2.75Z" transform="translate(-151.4 -292.718)" fill="#1c1d21"/>
      </g>
      <g id="Grupo_1199296" data-name="Grupo 1199296" transform="translate(19.402 40.441)">
        <path id="Trazado_1031056" data-name="Trazado 1031056" d="M134.291,282.839a.7.7,0,0,1-.52-.223l-1.695-1.68a5.353,5.353,0,0,1-1.576-3.806v-4.371a.741.741,0,0,1,.461-.684.73.73,0,0,1,.8.164l1.68,1.68a5.353,5.353,0,0,1,1.576,3.806v4.386a.741.741,0,0,1-.461.684A.777.777,0,0,1,134.291,282.839Zm-2.3-8.3v2.587a3.846,3.846,0,0,0,1.145,2.75l.416.416V277.71a3.846,3.846,0,0,0-1.145-2.75Z" transform="translate(-130.5 -272.018)" fill="#1c1d21"/>
      </g>
      <g id="Grupo_1199297" data-name="Grupo 1199297" transform="translate(16.324 37.334)">
        <path id="Trazado_1031057" data-name="Trazado 1031057" d="M113.576,261.954a.7.7,0,0,1-.52-.223l-1.68-1.68a5.353,5.353,0,0,1-1.576-3.806v-4.386a.741.741,0,0,1,.461-.684.73.73,0,0,1,.8.164l1.68,1.68a5.353,5.353,0,0,1,1.576,3.806v4.386a.741.741,0,0,1-.461.684A.644.644,0,0,1,113.576,261.954Zm-2.3-8.3v2.587a3.846,3.846,0,0,0,1.145,2.75l.416.416v-2.587a3.846,3.846,0,0,0-1.145-2.75Z" transform="translate(-109.8 -251.118)" fill="#1c1d21"/>
      </g>
      <g id="Grupo_1199298" data-name="Grupo 1199298" transform="translate(31.295 58.592)">
        <path id="Trazado_1031058" data-name="Trazado 1031058" d="M219.718,404.061a.7.7,0,0,1-.52-.223l-8.474-8.459a.746.746,0,0,1,1.056-1.056l8.459,8.459a.736.736,0,0,1,0,1.056A.721.721,0,0,1,219.718,404.061Z" transform="translate(-210.5 -394.1)" fill="#1c1d21"/>
      </g>
      <g id="Grupo_1199299" data-name="Grupo 1199299" transform="translate(43.208 35.852)">
        <path id="Trazado_1031059" data-name="Trazado 1031059" d="M308.521,249.141l-3.851,3.851a1.23,1.23,0,0,1-1.739-1.739l3.851-3.851a1.44,1.44,0,0,0-2.037-2.037l-3.851,3.851a1.23,1.23,0,1,1-1.739-1.739l3.851-3.851a1.436,1.436,0,0,0,0-2.037l-.015-.015a1.436,1.436,0,0,0-2.037,0l-9.515,9.515a2.773,2.773,0,0,0,0,3.925l5.709,5.709a2.773,2.773,0,0,0,3.925,0l9.515-9.515a1.436,1.436,0,0,0,0-2.037l-.015-.015a1.468,1.468,0,0,0-2.052-.015Z" transform="translate(-290.625 -241.15)" fill="#aaadad"/>
      </g>
      <g id="Grupo_1199301" data-name="Grupo 1199301" transform="translate(31.106 51.366)">
        <g id="Grupo_1199300" data-name="Grupo 1199300">
          <path id="Trazado_1031060" data-name="Trazado 1031060" d="M209.727,361.958a1.714,1.714,0,0,1,0-2.423L223.761,345.5l2.423,2.423L212.15,361.958A1.714,1.714,0,0,1,209.727,361.958Z" transform="translate(-209.225 -345.5)" fill="#c67552"/>
        </g>
      </g>
      <g id="Grupo_1199303" data-name="Grupo 1199303" transform="translate(30.374 50.608)">
        <g id="Grupo_1199302" data-name="Grupo 1199302">
          <path id="Trazado_1031061" data-name="Trazado 1031061" d="M206.753,358.85a2.46,2.46,0,0,1-1.739-4.193l14.035-14.035a.736.736,0,0,1,1.056,0l2.423,2.423a.757.757,0,0,1,.223.52.7.7,0,0,1-.223.52l-14.035,14.035A2.444,2.444,0,0,1,206.753,358.85Zm12.816-16.636-13.514,13.514a.967.967,0,1,0,1.368,1.368l13.514-13.514Z" transform="translate(-204.3 -340.4)" fill="#1c1d21"/>
        </g>
      </g>
      <g id="Grupo_1199304" data-name="Grupo 1199304" transform="translate(42.461 35.12)">
        <path id="Trazado_1031062" data-name="Trazado 1031062" d="M294.818,258.091a3.571,3.571,0,0,1-2.5-1.026l-5.694-5.709a3.536,3.536,0,0,1,0-4.98l9.515-9.515a2.2,2.2,0,0,1,3.092,0l.015.015a2.2,2.2,0,0,1,0,3.092l-3.851,3.851a.484.484,0,0,0-.149.342.431.431,0,0,0,.149.342.5.5,0,0,0,.684,0l3.851-3.851a2.2,2.2,0,0,1,3.092,0,2.189,2.189,0,0,1,0,3.092l-3.851,3.851a.476.476,0,0,0,0,.684.5.5,0,0,0,.684,0l3.851-3.851a2.2,2.2,0,0,1,3.092,0l.015.03a2.189,2.189,0,0,1,0,3.092l-9.515,9.515A3.51,3.51,0,0,1,294.818,258.091Zm2.855-20.4a.7.7,0,0,0-.491.208l-9.515,9.515a2.055,2.055,0,0,0,0,2.884l5.709,5.709a2.046,2.046,0,0,0,2.884,0l9.515-9.515a.7.7,0,0,0,.208-.491.674.674,0,0,0-.208-.491l-.015-.03a.7.7,0,0,0-.981,0l-3.851,3.851a1.956,1.956,0,0,1-1.4.58,1.977,1.977,0,0,1-1.4-3.375l3.851-3.851a.694.694,0,0,0-.981-.981l-3.851,3.851a1.956,1.956,0,0,1-1.4.58,1.981,1.981,0,0,1-1.4-.58,1.974,1.974,0,0,1,0-2.8l3.851-3.851a.7.7,0,0,0,0-.981l-.015-.015a.721.721,0,0,0-.52-.223Z" transform="translate(-285.6 -236.225)" fill="#1c1d21"/>
      </g>
      <g id="Grupo_1199305" data-name="Grupo 1199305" transform="translate(45.802 44.334)">
        <path id="Trazado_1031063" data-name="Trazado 1031063" d="M310.666,304.519a.7.7,0,0,1-.52-.223l-1.635-1.635a1.463,1.463,0,0,1,0-2.081l2.156-2.156a.746.746,0,0,1,1.056,1.056l-2.156,2.156,1.621,1.621a.736.736,0,0,1-.52,1.264Z" transform="translate(-308.075 -298.2)" fill="#e0e0e0"/>
      </g>
      <g id="Grupo_1199306" data-name="Grupo 1199306" transform="translate(49.612 51.099)">
        <path id="Trazado_1031064" data-name="Trazado 1031064" d="M335.038,345.8a.7.7,0,0,1-.52-.223l-.595-.595a.746.746,0,0,1,1.056-1.056l.595.595a.736.736,0,0,1,0,1.056A.781.781,0,0,1,335.038,345.8Z" transform="translate(-333.7 -343.7)" fill="#e0e0e0"/>
      </g>
    </g>
  </g>
</svg>
