<svg xmlns="http://www.w3.org/2000/svg" xmlns:xlink="http://www.w3.org/1999/xlink" width="118" height="118" viewBox="0 0 118 118">
  <defs>
    <filter id="Trazado_896985" x="0" y="0" width="118" height="118" filterUnits="userSpaceOnUse">
      <feOffset dy="3" input="SourceAlpha"/>
      <feGaussianBlur stdDeviation="3" result="blur"/>
      <feFlood flood-opacity="0.161"/>
      <feComposite operator="in" in2="blur"/>
      <feComposite in="SourceGraphic"/>
    </filter>
  </defs>
  <g id="Grupo_1198296" data-name="Grupo 1198296" transform="translate(-1161.12 -3136.021)">
    <g id="Grupo_1198097" data-name="Grupo 1198097" transform="translate(835.229 -709.979)">
      <g id="Grupo_1111318" data-name="Grupo 1111318" transform="translate(334.891 3852)">
        <g id="Grupo_1109826" data-name="Grupo 1109826" transform="translate(0)">
          <g id="Grupo_1098742" data-name="Grupo 1098742" transform="translate(0 0)">
            <g transform="matrix(1, 0, 0, 1, -9, -6)" filter="url(#Trazado_896985)">
              <g id="Trazado_896985-2" data-name="Trazado 896985" transform="translate(9 6)" fill="#d6edba" opacity="0.859">
                <path d="M 49.99993515014648 99.5 C 43.31726837158203 99.5 36.83476257324219 98.19129943847656 30.73248100280762 95.61025238037109 C 24.83812141418457 93.11714172363281 19.54434776306152 89.54795837402344 14.99820137023926 85.00179290771484 C 10.45204162597656 80.45565032958984 6.88285493850708 75.16187286376953 4.389748573303223 69.26751708984375 C 1.808695197105408 63.16523742675781 0.5000017881393433 56.6827278137207 0.5000017881393433 50.00006103515625 C 0.5000017881393433 43.31726455688477 1.808695197105408 36.83475494384766 4.389748573303223 30.73247528076172 C 6.88285493850708 24.83811569213867 10.45204162597656 19.54434204101562 14.99820137023926 14.99819660186768 C 19.54434776306152 10.45203590393066 24.83812141418457 6.88284969329834 30.73248100280762 4.389742851257324 C 36.83476257324219 1.808689475059509 43.31726837158203 0.4999961853027344 49.99993515014648 0.4999961853027344 C 56.68260192871094 0.4999961853027344 63.16510772705078 1.808689475059509 69.26738739013672 4.389742851257324 C 75.16175079345703 6.88284969329834 80.45552062988281 10.45203590393066 85.00167083740234 14.99819660186768 C 89.54782867431641 19.54434204101562 93.11701202392578 24.83811569213867 95.61012268066406 30.73247528076172 C 98.19117736816406 36.83475494384766 99.49987030029297 43.31726455688477 99.49987030029297 49.99993133544922 C 99.49987030029297 56.6827278137207 98.19117736816406 63.16523742675781 95.61012268066406 69.26751708984375 C 93.11701202392578 75.16187286376953 89.54782867431641 80.45565032958984 85.00167083740234 85.00179290771484 C 80.45552062988281 89.54795837402344 75.16175079345703 93.11714172363281 69.26738739013672 95.61025238037109 C 63.16510772705078 98.19129943847656 56.68260192871094 99.5 49.99993515014648 99.5 Z" stroke="none"/>
                <path d="M 49.99993515014648 0.9999923706054688 C 43.38454818725586 0.9999923706054688 36.96757507324219 2.29541015625 30.92725372314453 4.850250244140625 C 25.09249877929688 7.318145751953125 19.85213470458984 10.85135650634766 15.35174560546875 15.35174560546875 C 10.85136413574219 19.85212707519531 7.318145751953125 25.09249114990234 4.850257873535156 30.92724609375 C 2.295417785644531 36.96757125854492 1 43.38454437255859 1 50.00006103515625 C 1 56.61544799804688 2.295417785644531 63.03242111206055 4.850257873535156 69.07273864746094 C 7.318145751953125 74.90750122070312 10.85136413574219 80.14786529541016 15.35174560546875 84.64824676513672 C 19.85213470458984 89.14863586425781 25.09249877929688 92.68184661865234 30.92725372314453 95.14974212646484 C 36.96757507324219 97.70458221435547 43.38454818725586 99 49.99993515014648 99 C 56.61532211303711 99 63.03229522705078 97.70458221435547 69.07261657714844 95.14974212646484 C 74.90737915039062 92.68184661865234 80.14773559570312 89.14863586425781 84.64812469482422 84.64824676513672 C 89.14850616455078 80.14786529541016 92.68172454833984 74.90750122070312 95.14961242675781 69.07273864746094 C 97.70445251464844 63.03242111206055 98.99987030029297 56.61544799804688 98.99987030029297 49.99993133544922 C 98.99987030029297 43.38454437255859 97.70445251464844 36.96757125854492 95.14961242675781 30.92724609375 C 92.68172454833984 25.09249114990234 89.14850616455078 19.85212707519531 84.64812469482422 15.35174560546875 C 80.14773559570312 10.85135650634766 74.90737915039062 7.318145751953125 69.07261657714844 4.850250244140625 C 63.03229522705078 2.29541015625 56.61532211303711 0.9999923706054688 49.99993515014648 0.9999923706054688 M 49.99993515014648 -7.62939453125e-06 C 77.6141357421875 -7.62939453125e-06 99.99987030029297 22.38572692871094 99.99987030029297 49.99993133544922 L 99.99987030029297 50.00006103515625 C 99.99987030029297 77.61426544189453 77.6141357421875 100 49.99993515014648 100 C 22.38573455810547 100 0 77.61426544189453 0 50.00006103515625 L 0 49.99993133544922 C 0 22.38572692871094 22.38573455810547 -7.62939453125e-06 49.99993515014648 -7.62939453125e-06 Z" stroke="none" fill="#fff"/>
              </g>
            </g>
            <g id="Rectángulo_400907" data-name="Rectángulo 400907" transform="translate(0)" fill="none" stroke="#fff" stroke-width="1">
              <rect width="100" height="100" rx="50" stroke="none"/>
              <rect x="0.5" y="0.5" width="99" height="99" rx="49.5" fill="none"/>
            </g>
          </g>
        </g>
      </g>
    </g>
    <g id="regulatory_12773723_1_" data-name="regulatory_12773723 (1)" transform="translate(1166.453 3151.668)">
      <g id="Grupo_1198295" data-name="Grupo 1198295" transform="translate(23.459 8.076)">
        <g id="Grupo_1198292" data-name="Grupo 1198292" transform="translate(0 0)">
          <path id="Trazado_916559" data-name="Trazado 916559" d="M77.847,55.987a2.9,2.9,0,0,1,2.893,2.893v53.251a2.9,2.9,0,0,1-2.893,2.9H33.276a2.9,2.9,0,0,1-2.893-2.9V58.88a2.9,2.9,0,0,1,2.893-2.893Z" transform="translate(-30.383 -50.475)" fill="#837683" fill-rule="evenodd"/>
          <path id="Trazado_916560" data-name="Trazado 916560" d="M355.532,115.029h3.736a2.9,2.9,0,0,0,2.893-2.9V58.88a2.9,2.9,0,0,0-2.893-2.893h-3.736Z" transform="translate(-311.804 -50.475)" fill="#685e68" fill-rule="evenodd"/>
          <path id="Trazado_916561" data-name="Trazado 916561" d="M101.318,85.92h-39.7a1.306,1.306,0,0,0-1.3,1.3v48.383a1.3,1.3,0,0,0,1.3,1.3h39.7a1.3,1.3,0,0,0,1.3-1.3V87.224A1.308,1.308,0,0,0,101.318,85.92Z" transform="translate(-56.29 -76.382)" fill="#eceff1" fill-rule="evenodd"/>
          <path id="Trazado_916562" data-name="Trazado 916562" d="M355.532,136.907h1.3c.042,0,.084,0,.122,0a1.307,1.307,0,0,0,1.182-1.3V87.224a1.3,1.3,0,0,0-1.182-1.3,1.205,1.205,0,0,0-.122-.008h-1.3Z" transform="translate(-311.804 -76.382)" fill="#d1d1d6" fill-rule="evenodd"/>
          <path id="Trazado_916563" data-name="Trazado 916563" d="M136.05,18.763h4.128a1.275,1.275,0,0,0,1.193-.785,4.921,4.921,0,0,1,9.042,0,1.275,1.275,0,0,0,1.193.785h4.125a1.308,1.308,0,0,1,1.3,1.3v4.921a1.3,1.3,0,0,1-1.3,1.3H136.05a1.3,1.3,0,0,1-1.3-1.3V20.066A1.3,1.3,0,0,1,136.05,18.763Z" transform="translate(-120.714 -15)" fill="#e3a76f" fill-rule="evenodd"/>
          <path id="Trazado_916564" data-name="Trazado 916564" d="M154.432,49.2H134.75a1.3,1.3,0,0,0,1.3,1.3h19.682a1.3,1.3,0,0,0,1.3-1.3V44.281a1.308,1.308,0,0,0-1.3-1.3V47.9a1.307,1.307,0,0,1-1.3,1.3Z" transform="translate(-120.714 -39.214)" fill="#c48958" fill-rule="evenodd"/>
        </g>
        <g id="Grupo_1198293" data-name="Grupo 1198293" transform="translate(36.637 36.637)">
          <path id="Trazado_916565" data-name="Trazado 916565" d="M362.183,338.749h5.152l1.534,17.408h-8.22Z" transform="translate(-352.869 -331.846)" fill="#837683" fill-rule="evenodd"/>
          <path id="Trazado_916566" data-name="Trazado 916566" d="M400.362,338.749h1.345l1.534,17.408H401.9Z" transform="translate(-387.241 -331.846)" fill="#685e68" fill-rule="evenodd"/>
          <path id="Trazado_916567" data-name="Trazado 916567" d="M328.324,427.353h11.865a2.925,2.925,0,0,1,2.917,2.917v2.917h-17.7V430.27A2.926,2.926,0,0,1,328.324,427.353Z" transform="translate(-322.367 -408.534)" fill="#ecba78" fill-rule="evenodd"/>
          <path id="Trazado_916568" data-name="Trazado 916568" d="M425.321,427.353h1.345a2.925,2.925,0,0,1,2.917,2.917v2.917h-1.345V430.27A2.925,2.925,0,0,0,425.321,427.353Z" transform="translate(-408.844 -408.534)" fill="#e3a76f" fill-rule="evenodd"/>
          <path id="Trazado_916569" data-name="Trazado 916569" d="M305.813,461.6h17.753a3.022,3.022,0,0,1,3.013,3.013v1.479H302.8v-1.479A3.022,3.022,0,0,1,305.813,461.6Z" transform="translate(-302.8 -438.174)" fill="#e3a76f" fill-rule="evenodd"/>
          <path id="Trazado_916570" data-name="Trazado 916570" d="M307.136,462.835a3.014,3.014,0,0,1,2.43-1.237h17.753a3.022,3.022,0,0,1,3.013,3.013v1.479h-.509v-.938a3.022,3.022,0,0,0-3.013-3.013H309.056A3,3,0,0,0,307.136,462.835Z" transform="translate(-306.553 -438.174)" fill="#c48958" fill-rule="evenodd"/>
          <path id="Trazado_916571" data-name="Trazado 916571" d="M361.965,287.423a4.544,4.544,0,1,1-4.544,4.544A4.544,4.544,0,0,1,361.965,287.423Z" transform="translate(-350.075 -287.423)" fill="#ffe177" fill-rule="evenodd"/>
          <path id="Trazado_916572" data-name="Trazado 916572" d="M386.209,287.472a4.544,4.544,0,1,1,0,8.989,4.545,4.545,0,0,0,0-8.989Z" transform="translate(-374.992 -287.423)" fill="#ffd064" fill-rule="evenodd"/>
        </g>
        <g id="Grupo_1198294" data-name="Grupo 1198294" transform="translate(11.749 17.156)">
          <path id="Trazado_916573" data-name="Trazado 916573" d="M129.142,150.728c-7.03,1.771-7.481-5.473-11.313-7.006a.138.138,0,0,1,.018-.261C120.592,142.786,129.142,141.284,129.142,150.728Z" transform="translate(-117.743 -142.894)" fill="#6cf5c2" fill-rule="evenodd"/>
          <path id="Trazado_916574" data-name="Trazado 916574" d="M118.088,143.837q-.127-.062-.259-.115a.138.138,0,0,1,.018-.261c2.745-.674,11.3-2.177,11.3,7.267l-.207.05C128.691,142.254,121.155,143.156,118.088,143.837Z" transform="translate(-117.743 -142.894)" fill="#00e499" fill-rule="evenodd"/>
          <path id="Trazado_916575" data-name="Trazado 916575" d="M208,152.51c7.249-.108,5.809-7.221,9.113-9.694a.138.138,0,0,0-.085-.248C214.2,142.627,205.549,143.387,208,152.51Z" transform="translate(-195.485 -142.569)" fill="#6cf5c2" fill-rule="evenodd"/>
          <path id="Trazado_916576" data-name="Trazado 916576" d="M216.83,143.046c-3.1.127-10.678,1.171-8.738,9.463l-.1,0c-2.446-9.123,6.2-9.883,9.028-9.941a.137.137,0,0,1,.085.248Q216.963,142.925,216.83,143.046Z" transform="translate(-195.485 -142.569)" fill="#00e499" fill-rule="evenodd"/>
        </g>
      </g>
      <path id="Trazado_916577" data-name="Trazado 916577" d="M83.875,73.706H26.356a3.978,3.978,0,0,1-3.973-3.973V16.481a3.978,3.978,0,0,1,3.973-3.969H36.419v-.674a1.076,1.076,0,0,1,1.076-1.076h5.579a6,6,0,0,1,11.13,0H59.78a1.076,1.076,0,0,1,1.076,1.076v.674H70.923a3.977,3.977,0,0,1,3.969,3.969V44.447a5.621,5.621,0,0,1,.9,8.94l.8,9.069h1.321a4,4,0,0,1,3.993,3.993v.75a4.1,4.1,0,0,1,3.04,3.952V72.63A1.076,1.076,0,0,1,83.875,73.706ZM36.419,14.664H26.356a1.822,1.822,0,0,0-1.821,1.817V69.733a1.823,1.823,0,0,0,1.821,1.821H59.02v-.4a4.052,4.052,0,0,1,.275-1.471H27.484A1.076,1.076,0,0,1,26.408,68.6V17.614a1.076,1.076,0,0,1,1.076-1.076h8.935Zm24.437,0v1.874h8.935a1.076,1.076,0,0,1,1.076,1.076V43.749a5.683,5.683,0,0,1,1.874-.061V16.481a1.821,1.821,0,0,0-1.818-1.817Zm0,4.026v.674a1.076,1.076,0,0,1-1.076,1.076H37.495a1.076,1.076,0,0,1-1.076-1.076V18.69H28.56V67.528H61.217a4.061,4.061,0,0,1,.842-.329v-.75a4,4,0,0,1,3.993-3.993h1.321l.8-9.069a5.621,5.621,0,0,1,.542-8.7v-26ZM73.744,54.6a5.649,5.649,0,0,1-3.517,0l-.693,7.859h4.9Zm6.015,12.465v-.613a1.846,1.846,0,0,0-1.841-1.841H66.053a1.847,1.847,0,0,0-1.841,1.841v.613ZM61.171,71.554H82.8v-.4a1.943,1.943,0,0,0-1.937-1.937H63.109a1.943,1.943,0,0,0-1.937,1.937Zm-22.6-58.639v5.373H58.7V12.914H53.422a1.076,1.076,0,0,1-1.046-.823,3.845,3.845,0,0,0-7.473,0,1.076,1.076,0,0,1-1.046.825Zm10.067.609a1.412,1.412,0,1,1,1.414-1.414A1.415,1.415,0,0,1,48.637,13.523ZM71.985,45.789a3.468,3.468,0,1,0,3.468,3.468A3.468,3.468,0,0,0,71.985,45.789Zm-40.32,7.57a1.076,1.076,0,0,1,1.522-1.522l1.878,1.878L39.03,49.4a1.076,1.076,0,0,1,1.584,1.456L35.89,56a1.076,1.076,0,0,1-1.553.033ZM44.74,61.8a1.076,1.076,0,1,1,0-2.152H59.557a1.076,1.076,0,1,1,0,2.152Zm0-15.247a1.076,1.076,0,1,1,0-2.152H59.557a1.076,1.076,0,1,1,0,2.152Zm0,7.623a1.076,1.076,0,0,1,0-2.152H59.557a1.076,1.076,0,0,1,0,2.152ZM31.665,61.38a1.076,1.076,0,1,1,1.522-1.522l1.878,1.878,3.965-4.314a1.076,1.076,0,0,1,1.584,1.456l-4.725,5.14a1.076,1.076,0,0,1-1.553.033ZM46.034,34.289c-3.543.621-5.528-.883-7.112-2.8-.739-.9-1.379-1.894-2.073-2.766a5,5,0,0,0-1.954-1.662,1.213,1.213,0,0,1,.159-2.3h0a16.378,16.378,0,0,1,5.872-.437,7.649,7.649,0,0,1,4.529,2.135,7.09,7.09,0,0,1,1.5,2.34q.077-.156.16-.3a7.646,7.646,0,0,1,3.822-3.234,16.377,16.377,0,0,1,5.785-1.1h0a1.213,1.213,0,0,1,.751,2.185,5,5,0,0,0-1.457,2.111c-.445,1.022-.8,2.152-1.286,3.208-.973,2.131-2.384,4-5.536,4.474a16.892,16.892,0,0,1,.538,3.152,1.076,1.076,0,1,1-2.144.177,11.191,11.191,0,0,0-1.556-5.174Zm-.9-4.192a5.217,5.217,0,0,0-1.223-2.142,5.517,5.517,0,0,0-3.285-1.506,11.691,11.691,0,0,0-2.941,0,22.44,22.44,0,0,1,2.087,2.614,7.468,7.468,0,0,0,3.153,2.916,4.38,4.38,0,0,0,1.4.28,17.9,17.9,0,0,0-3.226-2.292,1.076,1.076,0,1,1,1.075-1.864,22.848,22.848,0,0,1,2.957,1.99Zm4.553,3.717a4.381,4.381,0,0,0,1.3-.638,7.465,7.465,0,0,0,2.29-3.632,22.517,22.517,0,0,1,1.338-3.065,11.68,11.68,0,0,0-2.841.757,5.513,5.513,0,0,0-2.783,2.3,5.219,5.219,0,0,0-.627,2.4,22.294,22.294,0,0,1,2.341-2.7,1.076,1.076,0,1,1,1.521,1.522,18.241,18.241,0,0,0-2.538,3.053ZM31.665,45.338a1.076,1.076,0,1,1,1.522-1.522l1.878,1.878L39.03,41.38a1.076,1.076,0,0,1,1.584,1.456l-4.725,5.14a1.076,1.076,0,0,1-1.553.033Z" transform="translate(0 0)" fill-rule="evenodd"/>
    </g>
  </g>
</svg>
