<svg xmlns="http://www.w3.org/2000/svg" xmlns:xlink="http://www.w3.org/1999/xlink" width="118" height="118" viewBox="0 0 118 118">
  <defs>
    <filter id="Elipse_12115" x="0" y="0" width="118" height="118" filterUnits="userSpaceOnUse">
      <feOffset dy="3" input="SourceAlpha"/>
      <feGaussianBlur stdDeviation="3" result="blur"/>
      <feFlood flood-opacity="0.161"/>
      <feComposite operator="in" in2="blur"/>
      <feComposite in="SourceGraphic"/>
    </filter>
  </defs>
  <g id="Grupo_1198297" data-name="Grupo 1198297" transform="translate(-205.949 -3511.148)">
    <g id="Grupo_1198118" data-name="Grupo 1198118" transform="translate(214.949 3517.148)">
      <g id="Grupo_1182334" data-name="Grupo 1182334">
        <g id="Grupo_1181949" data-name="Grupo 1181949">
          <g transform="matrix(1, 0, 0, 1, -9, -6)" filter="url(#Elipse_12115)">
            <g id="Elipse_12115-2" data-name="Elipse 12115" transform="translate(9 6)" fill="#fff9e4" stroke="#b18d00" stroke-width="4">
              <circle cx="50" cy="50" r="50" stroke="none"/>
              <circle cx="50" cy="50" r="48" fill="none"/>
            </g>
          </g>
        </g>
      </g>
    </g>
    <g id="leaf" transform="translate(233.051 3535)">
      <path id="Trazado_916578" data-name="Trazado 916578" d="M49,20c0,12-8,12-8,19H23c0-7-8-7-8-19A17,17,0,0,1,32,3h.06A17,17,0,0,1,49,20Z" fill="#ffde55"/>
      <path id="Trazado_916579" data-name="Trazado 916579" d="M49,20c0,12-8,12-8,19H23a7.418,7.418,0,0,0-1.11-4H37c0-7,8-7,8-19a16.9,16.9,0,0,0-3.16-9.86A16.967,16.967,0,0,1,49,20Z" fill="#ffcd00"/>
      <path id="Trazado_916580" data-name="Trazado 916580" d="M42.5,25.62s.09,4.81-2.62,6.72-5.95,1.97-7.21.16-.1-4.82,2.62-6.72S42.5,25.62,42.5,25.62Z" fill="#ccfc5c"/>
      <path id="Trazado_916581" data-name="Trazado 916581" d="M39.88,32.34c-2.72,1.9-5.95,1.97-7.21.16a2.691,2.691,0,0,1-.4-.88,6.8,6.8,0,0,0,5.61-1.28c1.76-1.24,2.34-3.7,2.53-5.28a12.371,12.371,0,0,1,2.09.56S42.59,30.43,39.88,32.34Z" fill="#a4e276"/>
      <path id="Trazado_916582" data-name="Trazado 916582" d="M61,12V41L53,51H39l-1.7-3.82L35.44,43,35,42l1.6-3,3.76-7.05,1.75-3.28L43,27h2a2,2,0,0,1,1.96,1.62A1.581,1.581,0,0,1,47,29V42l8-10V12a3,3,0,0,1,6,0Z" fill="#ffdaaa"/>
      <path id="Trazado_916583" data-name="Trazado 916583" d="M55,51v4H37V51H55Z" fill="#ffe477"/>
      <path id="Trazado_916584" data-name="Trazado 916584" d="M39,55H53v6H39Z" fill="#ffdaaa"/>
      <path id="Trazado_916585" data-name="Trazado 916585" d="M42.5,16.28s.09,4.82-2.62,6.72-5.95,1.98-7.21.17a2.919,2.919,0,0,1-.51-1.71,6.316,6.316,0,0,1,2.43-4.47,7.634,7.634,0,0,1,.7-.54c2.71-1.9,7.21-.17,7.21-.17Z" fill="#ccfc5c"/>
      <path id="Trazado_916586" data-name="Trazado 916586" d="M35.44,43l1.86,4.18A6,6,0,0,1,33,49H31a6,6,0,0,1-4.3-1.82L28.56,43Z" fill="#ffe477"/>
      <path id="Trazado_916587" data-name="Trazado 916587" d="M36.6,39,35,42l.44,1H28.56L29,42l-1.6-3h9.2Z" fill="#e0e0e2"/>
      <path id="Trazado_916588" data-name="Trazado 916588" d="M35,42l.44,1h-4L31,42l1.6-3h4Z" fill="#c6c5ca"/>
      <path id="Trazado_916589" data-name="Trazado 916589" d="M36,11.83a7.158,7.158,0,0,1-1.77,4.98A3.172,3.172,0,0,1,32,17.83c-2.21,0-4-2.68-4-6s4-6,4-6S36,8.52,36,11.83Z" fill="#ccfc5c"/>
      <path id="Trazado_916590" data-name="Trazado 916590" d="M39.88,23c-2.72,1.9-5.95,1.98-7.21.17a2.672,2.672,0,0,1-.41-.89A6.8,6.8,0,0,0,37.88,21c1.76-1.23,2.34-3.69,2.52-5.27a12.163,12.163,0,0,1,2.1.55s.09,4.82-2.62,6.72Z" fill="#a4e276"/>
      <path id="Trazado_916591" data-name="Trazado 916591" d="M36,11.83a7.158,7.158,0,0,1-1.77,4.98A3.172,3.172,0,0,1,32,17.83a3.709,3.709,0,0,1-3.12-2.24,2.718,2.718,0,0,0,1.12.24,3.172,3.172,0,0,0,2.23-1.02A7.158,7.158,0,0,0,34,9.83a6.032,6.032,0,0,0-1.42-3.57c1.11.9,3.42,3.06,3.42,5.57Z" fill="#a4e276"/>
      <path id="Trazado_916592" data-name="Trazado 916592" d="M28.71,16.45c2.72,1.9,3.89,4.91,2.62,6.72S26.84,24.9,24.12,23s-2.62-6.72-2.62-6.72S26,14.55,28.71,16.45Z" fill="#ccfc5c"/>
      <path id="Trazado_916593" data-name="Trazado 916593" d="M31.84,30.79a2.919,2.919,0,0,1-.51,1.71c-1.26,1.81-4.49,1.74-7.21-.16a4.538,4.538,0,0,1-.48-.39l-1.75-3.28a12.534,12.534,0,0,1-.39-3.05s4.5-1.74,7.21.16a6.659,6.659,0,0,1,3.13,5.01Z" fill="#ccfc5c"/>
      <path id="Trazado_916594" data-name="Trazado 916594" d="M27.4,39,29,42l-.44,1L26.7,47.18,25,51H11L3,41V12a3,3,0,1,1,6,0V32l8,10V29a1.581,1.581,0,0,1,.04-.38A2,2,0,0,1,19,27h2l.89,1.67,1.75,3.28Z" fill="#ffdaaa"/>
      <path id="Trazado_916595" data-name="Trazado 916595" d="M27,51v4H9V51H27Z" fill="#ffe477"/>
      <path id="Trazado_916596" data-name="Trazado 916596" d="M11,55H25v6H11Z" fill="#ffdaaa"/>
      <path id="Trazado_916597" data-name="Trazado 916597" d="M39,55H53v3H39Z" fill="#ffc477"/>
      <path id="Trazado_916598" data-name="Trazado 916598" d="M11,55H25v3H11Z" fill="#ffc477"/>
      <path id="Trazado_916599" data-name="Trazado 916599" d="M58,8a4,4,0,0,0-4,4V31.65l-6,7.5V29a1.1,1.1,0,0,0-.02-.18A17.939,17.939,0,0,0,50,20a18,18,0,1,0-36,0,17.939,17.939,0,0,0,2.02,8.82A1.1,1.1,0,0,0,16,29V39.15l-6-7.5V12a4,4,0,0,0-8,0V41a.977.977,0,0,0,.22.62l6.71,8.39A1,1,0,0,0,8,51v4a1,1,0,0,0,1,1h1v5a1,1,0,0,0,1,1H25a1,1,0,0,0,1-1V56h1a1,1,0,0,0,1-1V51a1,1,0,0,0-1-1h-.46l.54-1.21A7,7,0,0,0,31,50h2a7,7,0,0,0,3.92-1.21L37.46,50H37a1,1,0,0,0-1,1v4a1,1,0,0,0,1,1h1v5a1,1,0,0,0,1,1H53a1,1,0,0,0,1-1V56h1a1,1,0,0,0,1-1V51a1,1,0,0,0-.93-.99l6.71-8.39A.977.977,0,0,0,62,41V12A4,4,0,0,0,58,8ZM16,20a16,16,0,0,1,32,0,16.716,16.716,0,0,1-1.18,6.63A2.95,2.95,0,0,0,45,26H43.49c.01-.23.01-.38.01-.4a.987.987,0,0,0-.64-.91,13.139,13.139,0,0,0-2.73-.68,3.371,3.371,0,0,0,.32-.19c3.11-2.18,3.05-7.34,3.05-7.56a1.008,1.008,0,0,0-.64-.91,11.8,11.8,0,0,0-6.32-.54A9.746,9.746,0,0,0,37,11.83c0-3.8-4.26-6.71-4.44-6.83a1.033,1.033,0,0,0-1.12,0C31.26,5.12,27,8.03,27,11.83a9.746,9.746,0,0,0,.46,2.98,11.908,11.908,0,0,0-6.32.54,1.008,1.008,0,0,0-.64.91c0,.22-.06,5.38,3.05,7.56a3.371,3.371,0,0,0,.32.19,13.139,13.139,0,0,0-2.73.68.987.987,0,0,0-.64.91c0,.02,0,.17.01.4H19a2.95,2.95,0,0,0-1.82.63A16.716,16.716,0,0,1,16,20Zm17.49,2.59a2.575,2.575,0,0,1-.07-2.38,6.694,6.694,0,0,1,2.44-2.94c1.69-1.19,4.38-.62,5.62-.27-.11,1.5-.6,4.08-2.18,5.18a6.717,6.717,0,0,1-3.59,1.3,2.587,2.587,0,0,1-2.22-.89Zm.76,2.73A9.363,9.363,0,0,0,33,26.5V24.81a4.5,4.5,0,0,0,1.25.51ZM32,16.83c-1.63,0-3-2.29-3-5,0-2.06,2-3.94,3-4.75,1.17.94,3,2.83,3,4.75C35,14.54,33.63,16.83,32,16.83Zm-1.42,3.38a2.575,2.575,0,0,1-.07,2.38,2.587,2.587,0,0,1-2.22.89,6.717,6.717,0,0,1-3.59-1.3C23.01,21,22.62,18.29,22.53,17c1.24-.35,3.92-.91,5.61.27a6.694,6.694,0,0,1,2.44,2.94Zm.42,4.6V26.5a9.363,9.363,0,0,0-1.25-1.18A4.5,4.5,0,0,0,31,24.81ZM28.14,26.6a6.168,6.168,0,0,1,2.66,3.68,1.972,1.972,0,0,1-1.73,2.48,6.274,6.274,0,0,1-4.37-1.24,2.782,2.782,0,0,1-.27-.21l-1.6-3a12.014,12.014,0,0,1-.3-1.97c1.23-.36,3.92-.92,5.61.26Zm.26,8.21a5.691,5.691,0,0,0,1.02-.09A4.644,4.644,0,0,0,31,34.15V38H28l-1.91-3.58a7.667,7.667,0,0,0,2.31.39ZM34.93,40l-.92,2H29.99l-.92-2ZM33,38V34.15a4.644,4.644,0,0,0,1.58.57,5.691,5.691,0,0,0,1.02.09,7.667,7.667,0,0,0,2.31-.39L36,38Zm1.93-5.24a1.972,1.972,0,0,1-1.73-2.48,6.168,6.168,0,0,1,2.66-3.68c1.69-1.18,4.38-.62,5.61-.26a12.014,12.014,0,0,1-.3,1.97l-1.6,3c-.09.07-.17.15-.26.21a6.311,6.311,0,0,1-4.38,1.24ZM24,60H12V56H24Zm2-6H10V52H26Zm-1.65-4H11.48L4,40.65V12a2,2,0,0,1,4,0V32a.977.977,0,0,0,.22.62l8,10a.983.983,0,0,0,1.11.32A1,1,0,0,0,18,42V29a1,1,0,0,1,1-1h1.4l7.49,14.04ZM33,48H31a5,5,0,0,1-3.08-1.1L29.21,44h5.58l1.29,2.9A5,5,0,0,1,33,48ZM52,60H40V56H52Zm2-6H38V52H54Zm6-13.35L52.52,50H39.65l-3.54-7.96L43.6,28H45a1,1,0,0,1,1,1V42a1,1,0,0,0,.67.94.983.983,0,0,0,1.11-.32l8-10A.977.977,0,0,0,56,32V12a2,2,0,1,1,4,0Z"/>
    </g>
  </g>
</svg>
