<svg xmlns="http://www.w3.org/2000/svg" xmlns:xlink="http://www.w3.org/1999/xlink" width="220" height="209" viewBox="0 0 220 209">
  <defs>
    <filter id="Rect치ngulo_404858" x="0" y="0" width="220" height="209" filterUnits="userSpaceOnUse">
      <feOffset dx="3" dy="6" input="SourceAlpha"/>
      <feGaussianBlur stdDeviation="5" result="blur"/>
      <feFlood flood-opacity="0.161"/>
      <feComposite operator="in" in2="blur"/>
      <feComposite in="SourceGraphic"/>
    </filter>
  </defs>
  <g id="Grupo_1198309" data-name="Grupo 1198309" transform="translate(-204.467 -4044)">
    <g id="Grupo_1198104" data-name="Grupo 1198104" transform="translate(216.467 4053)">
      <g id="Grupo_1113681" data-name="Grupo 1113681" transform="translate(0 0)">
        <g transform="matrix(1, 0, 0, 1, -12, -9)" filter="url(#Rect치ngulo_404858)">
          <rect id="Rect치ngulo_404858-2" data-name="Rect치ngulo 404858" width="190" height="179" rx="8" transform="translate(12 9)" fill="#4c6929"/>
        </g>
      </g>
    </g>
    <g id="Layer_1" transform="translate(241.398 4070.276)">
      <g id="Grupo_1198308" data-name="Grupo 1198308" transform="translate(4.952 1.95)">
        <path id="Trazado_916600" data-name="Trazado 916600" d="M203.968,151.2v15.514a5.715,5.715,0,0,0-4.777-5.636l-17.93-2.978a2.139,2.139,0,0,0-2.491,2.113V168.2a12.506,12.506,0,0,0,1.945,6.722H175.2c-.946-3.6-.941-7.171-.941-12.148a17.1,17.1,0,0,1,29.71-11.574Z" transform="translate(-79.87 -65.54)" fill="#7d7b79"/>
        <path id="Trazado_916601" data-name="Trazado 916601" d="M207.549,176.57v1.507a12.647,12.647,0,0,1-12.6,12.6H194.9a12.63,12.63,0,0,1-12.553-12.618V170.07a2.139,2.139,0,0,1,2.491-2.113l17.93,2.978A5.714,5.714,0,0,1,207.549,176.57Z" transform="translate(-83.451 -75.395)" fill="#ffb69f"/>
        <path id="Trazado_916602" data-name="Trazado 916602" d="M56.087,189.907v2.881H7.452V118.75H19.157v23.7h-.006v10.533A12.62,12.62,0,0,0,31.78,165.606v.006A24.294,24.294,0,0,1,56.087,189.907Z" transform="translate(-6.058 -53.634)" fill="#72c2e9"/>
        <g id="Grupo_1198298" data-name="Grupo 1198298" transform="translate(50.022 122.684)">
          <path id="Trazado_916603" data-name="Trazado 916603" d="M131.858,238.48H94.678a18.727,18.727,0,0,1,37.18,0Z" transform="translate(-94.678 -222.011)" fill="#13bf6d"/>
        </g>
        <path id="Trazado_916604" data-name="Trazado 916604" d="M130.287,185.985v9.138a10.6,10.6,0,0,1-.167,1.908,10.951,10.951,0,0,1-21.566,0,10.417,10.417,0,0,1-.167-1.908v-9.138Z" transform="translate(-50.721 -83.385)" fill="#ffb69f"/>
        <path id="Trazado_916605" data-name="Trazado 916605" d="M53.69,161.26v10.533a11.785,11.785,0,0,1-.195,2.2,12.625,12.625,0,0,1-25.057-2.2V161.26Z" transform="translate(-15.344 -72.444)" fill="#ffb69f"/>
        <path id="Trazado_916606" data-name="Trazado 916606" d="M54.341,139.659l-2.286-1.565A4.334,4.334,0,0,1,47.8,141.62H34.178a5.732,5.732,0,0,0-5.73,5.732v3.658H53.7l1.579-1.6A6.382,6.382,0,0,0,54.341,139.659Z" transform="translate(-15.348 -62.193)" fill="#7c7b7a"/>
        <g id="Grupo_1198299" data-name="Grupo 1198299" transform="translate(38.154 94.278)">
          <path id="Trazado_916607" data-name="Trazado 916607" d="M78.5,174.695a3.633,3.633,0,0,1-3.632,3.632H73.389a11.785,11.785,0,0,0,.195-2.2v-5.069h1.281A3.634,3.634,0,0,1,78.5,174.695Z" transform="translate(-73.389 -171.058)" fill="#ffb69f"/>
          <path id="Trazado_916608" data-name="Trazado 916608" d="M105.173,200.8H103.9a3.15,3.15,0,0,1,0-6.3h1.108v4.393A10.368,10.368,0,0,0,105.173,200.8Z" transform="translate(-85.495 -181.429)" fill="#ffb69f"/>
          <path id="Trazado_916609" data-name="Trazado 916609" d="M151.79,197.645a3.146,3.146,0,0,1-3.145,3.15H147.37a10.545,10.545,0,0,0,.167-1.908v-4.393h1.108A3.146,3.146,0,0,1,151.79,197.645Z" transform="translate(-106.125 -181.429)" fill="#ffb69f"/>
        </g>
        <path id="Trazado_916610" data-name="Trazado 916610" d="M120.808,164.388h-2.946a9.477,9.477,0,0,0-9.478,9.478v2.565h21.9v-2.565A9.478,9.478,0,0,0,120.808,164.388Z" transform="translate(-50.72 -73.828)" fill="#f0c020"/>
        <path id="Trazado_916611" data-name="Trazado 916611" d="M209.971,123.521V194.9h-48.6a24.3,24.3,0,0,1,24.251-23.872h.05a12.65,12.65,0,0,0,12.594-12.6V123.521Z" transform="translate(-74.166 -55.745)" fill="#fb5e3d"/>
        <path id="Trazado_916612" data-name="Trazado 916612" d="M233.4,104.86a5.852,5.852,0,0,0-5.852,5.852v4.55h11.7v-4.55A5.852,5.852,0,0,0,233.4,104.86Z" transform="translate(-103.451 -47.487)" fill="#ffb69f"/>
        <path id="Trazado_916613" data-name="Trazado 916613" d="M13.3,100.091a5.852,5.852,0,0,0-5.852,5.852v4.55h11.7v-4.55a5.852,5.852,0,0,0-5.853-5.852Z" transform="translate(-6.058 -45.377)" fill="#ffb69f"/>
        <path id="Trazado_916614" data-name="Trazado 916614" d="M126.153,4.447H91.863A6.813,6.813,0,0,0,85.05,11.26V54.783l19.9,14.774a6.813,6.813,0,0,0,8.123,0l19.9-14.774V11.26a6.812,6.812,0,0,0-6.812-6.813Z" transform="translate(-40.395 -3.055)" fill="#efefef"/>
        <g id="Grupo_1198302" data-name="Grupo 1198302" transform="translate(17.574 33.131)">
          <g id="Grupo_1198300" data-name="Grupo 1198300" transform="translate(87.59 0)">
            <path id="Trazado_916615" data-name="Trazado 916615" d="M207.059,68.326c-2.077-.684-3.7-1.127-4.787-5.806a1.483,1.483,0,0,0-2.887,0c-1.063,4.575-2.544,5.065-4.787,5.806a1.483,1.483,0,0,0,0,2.814c3.725,1.23,4.147,3.051,4.786,5.806a1.482,1.482,0,0,0,2.887,0c1.061-4.575,2.624-5.092,4.786-5.806a1.483,1.483,0,0,0,0-2.814Z" transform="translate(-193.585 -61.377)"/>
            <path id="Trazado_916616" data-name="Trazado 916616" d="M206.98,74.358a7.31,7.31,0,0,0-2.187,2.472,7.709,7.709,0,0,0-2.323-2.453,7.4,7.4,0,0,0,2.3-2.583,7.6,7.6,0,0,0,2.212,2.564Z" transform="translate(-197.517 -65.987)" fill="#f0c020"/>
          </g>
          <g id="Grupo_1198301" data-name="Grupo 1198301" transform="translate(0 0)">
            <path id="Trazado_916617" data-name="Trazado 916617" d="M49.948,68.326c-2.077-.684-3.7-1.127-4.787-5.806a1.483,1.483,0,0,0-2.887,0c-1.063,4.575-2.544,5.065-4.787,5.806a1.483,1.483,0,0,0,0,2.814c3.725,1.23,4.147,3.051,4.786,5.806a1.482,1.482,0,0,0,2.887,0c1.061-4.575,2.624-5.092,4.786-5.806a1.483,1.483,0,0,0,0-2.814Z" transform="translate(-36.474 -61.377)"/>
            <path id="Trazado_916618" data-name="Trazado 916618" d="M49.87,74.358a7.309,7.309,0,0,0-2.187,2.472,7.709,7.709,0,0,0-2.323-2.453,7.4,7.4,0,0,0,2.3-2.583,7.587,7.587,0,0,0,2.212,2.564Z" transform="translate(-40.406 -65.987)" fill="#f0c020"/>
          </g>
        </g>
        <g id="Grupo_1198303" data-name="Grupo 1198303" transform="translate(57.069 14.763)">
          <path id="Trazado_916619" data-name="Trazado 916619" d="M140.335,69.795H134.17a5.647,5.647,0,0,0-5.647,5.647v1.682h6.165a5.647,5.647,0,0,0,5.647-5.647Z" transform="translate(-116.701 -46.734)" fill="#f0c020"/>
          <path id="Trazado_916620" data-name="Trazado 916620" d="M107.318,69.795h6.165a5.647,5.647,0,0,1,5.647,5.647v1.682h-6.165a5.647,5.647,0,0,1-5.647-5.647Z" transform="translate(-107.318 -46.734)" fill="#f0c020"/>
          <path id="Trazado_916621" data-name="Trazado 916621" d="M140.335,49.783H134.17a5.647,5.647,0,0,0-5.647,5.647v1.682h6.165a5.647,5.647,0,0,0,5.647-5.647Z" transform="translate(-116.701 -37.879)" fill="#f0c020"/>
          <path id="Trazado_916622" data-name="Trazado 916622" d="M107.318,49.783h6.165a5.647,5.647,0,0,1,5.647,5.647v1.682h-6.165a5.647,5.647,0,0,1-5.647-5.647Z" transform="translate(-107.318 -37.879)" fill="#f0c020"/>
          <path id="Trazado_916623" data-name="Trazado 916623" d="M125.869,37.554a3.343,3.343,0,0,1-3.343-3.343c0-1.846,3.343-5.78,3.343-5.78s3.343,3.933,3.343,5.78A3.343,3.343,0,0,1,125.869,37.554Z" transform="translate(-114.048 -28.431)" fill="#f0c020"/>
        </g>
        <g id="Grupo_1198304" data-name="Grupo 1198304" transform="translate(39.238 17.642)">
          <path id="Trazado_916624" data-name="Trazado 916624" d="M80.753,36.31V88.1H75.334V36.31a2.709,2.709,0,1,1,5.419,0Z" transform="translate(-75.334 -33.595)" fill="#f0c020"/>
        </g>
        <g id="Grupo_1198305" data-name="Grupo 1198305" transform="translate(92.569 17.642)">
          <path id="Trazado_916625" data-name="Trazado 916625" d="M176.413,36.31V88.1h-5.419V36.31a2.709,2.709,0,1,1,5.419,0Z" transform="translate(-170.994 -33.595)" fill="#f0c020"/>
        </g>
        <path id="Trazado_916626" data-name="Trazado 916626" d="M42.081,186.809h.006a5.321,5.321,0,0,0,9.963,0,1.4,1.4,0,0,0-.814-1.8,1.425,1.425,0,0,0-1.8.82,2.541,2.541,0,0,1-2.369,1.639,2.509,2.509,0,0,1-2.375-1.639,1.422,1.422,0,0,0-1.79-.82A1.393,1.393,0,0,0,42.081,186.809Z" transform="translate(-21.343 -82.919)"/>
        <path id="Trazado_916627" data-name="Trazado 916627" d="M39.446,173.866a1.394,1.394,0,0,0,1.394-1.394v-.743a1.394,1.394,0,0,0-2.788,0v.743A1.394,1.394,0,0,0,39.446,173.866Z" transform="translate(-19.599 -76.46)"/>
        <path id="Trazado_916628" data-name="Trazado 916628" d="M60.523,173.866a1.394,1.394,0,0,0,1.394-1.394v-.743a1.394,1.394,0,0,0-2.788,0v.743a1.394,1.394,0,0,0,1.394,1.394Z" transform="translate(-28.925 -76.46)"/>
        <path id="Trazado_916629" data-name="Trazado 916629" d="M49.985,177.847a1.394,1.394,0,0,0,1.394-1.394v-3.392a1.394,1.394,0,1,0-2.788,0v3.392A1.394,1.394,0,0,0,49.985,177.847Z" transform="translate(-24.262 -77.05)"/>
        <circle id="Elipse_12128" data-name="Elipse 12128" cx="1.394" cy="1.394" r="1.394" transform="translate(23.096 78.034)"/>
        <path id="Trazado_916630" data-name="Trazado 916630" d="M128.883,208.07a1.4,1.4,0,0,0-.82-1.8,1.419,1.419,0,0,0-1.79.82,2.014,2.014,0,0,1-3.769,0,1.426,1.426,0,0,0-1.8-.82,1.4,1.4,0,0,0-.82,1.8,4.81,4.81,0,0,0,8.992,0Z" transform="translate(-55.773 -92.327)"/>
        <path id="Trazado_916631" data-name="Trazado 916631" d="M119.17,195.568v-.644a1.394,1.394,0,1,0-2.788,0v.644a1.394,1.394,0,0,0,2.788,0Z" transform="translate(-54.26 -86.724)"/>
        <path id="Trazado_916632" data-name="Trazado 916632" d="M136.058,196.962a1.394,1.394,0,0,0,1.394-1.394v-.644a1.394,1.394,0,1,0-2.788,0v.644A1.394,1.394,0,0,0,136.058,196.962Z" transform="translate(-62.349 -86.724)"/>
        <path id="Trazado_916633" data-name="Trazado 916633" d="M126.917,200.415a1.394,1.394,0,0,0,1.394-1.394V196.08a1.394,1.394,0,0,0-2.788,0v2.942A1.394,1.394,0,0,0,126.917,200.415Z" transform="translate(-58.304 -87.235)"/>
        <path id="Trazado_916634" data-name="Trazado 916634" d="M205.912,192.73a1.394,1.394,0,0,0-.82-1.79,1.421,1.421,0,0,0-1.8.814,2.529,2.529,0,0,1-2.364,1.633,2.492,2.492,0,0,1-2.358-1.628,1.426,1.426,0,0,0-1.8-.825,1.4,1.4,0,0,0-.82,1.8,5.312,5.312,0,0,0,9.951,0Z" transform="translate(-89.434 -85.539)"/>
        <path id="Trazado_916635" data-name="Trazado 916635" d="M194.722,179.754v-.741a1.394,1.394,0,1,0-2.788,0v.741a1.394,1.394,0,0,0,2.788,0Z" transform="translate(-87.691 -79.683)"/>
        <path id="Trazado_916636" data-name="Trazado 916636" d="M214.361,181.148a1.394,1.394,0,0,0,1.394-1.394v-.741a1.394,1.394,0,0,0-2.788,0v.741A1.394,1.394,0,0,0,214.361,181.148Z" transform="translate(-96.998 -79.683)"/>
        <path id="Trazado_916637" data-name="Trazado 916637" d="M203.844,185.927a1.394,1.394,0,0,0,1.394-1.394v-3.385a1.394,1.394,0,1,0-2.788,0v3.385A1.394,1.394,0,0,0,203.844,185.927Z" transform="translate(-92.344 -80.628)"/>
        <path id="Trazado_916638" data-name="Trazado 916638" d="M142.149,107.5a7.246,7.246,0,1,0-14.492,0c0,.3,0,4.812,0,19.3a18.721,18.721,0,0,0-11.188-3.8h-.028A18.515,18.515,0,0,0,97.948,141.5c0,5.072-.02,8.678.987,12.505a1.392,1.392,0,0,0,2.693-.709c-.89-3.392-.892-6.842-.892-11.8A15.7,15.7,0,0,1,127.656,130.5v9.3a7.1,7.1,0,0,0-3.154-1.368l-17.929-2.977a3.547,3.547,0,0,0-4.114,3.49v7.989a14.032,14.032,0,0,0,7.1,12.183,25.96,25.96,0,0,0-17.841,17.816,20.071,20.071,0,0,0-11.8-10.353,12.282,12.282,0,0,0,5.54-7.27,4.543,4.543,0,0,0,.453-9.074v-1.969h2.86a1.394,1.394,0,0,0,0-2.788h-2.86v-1.171a10.885,10.885,0,0,0-10.871-10.871H72.091A10.885,10.885,0,0,0,61.22,144.309v5.927a4.543,4.543,0,0,0,.452,9.074,12.286,12.286,0,0,0,5.528,7.272A20.078,20.078,0,0,0,55.946,175.9,25.766,25.766,0,0,0,37.6,155.81a13.878,13.878,0,0,0,6.62-8.6,5.032,5.032,0,1,0,.468-10.05v-3.5l1.18-1.2a7.776,7.776,0,0,0-1.143-11.88l-2.28-1.561a1.394,1.394,0,0,0-2.158.892A2.945,2.945,0,0,1,37.4,122.3H35.017a1.394,1.394,0,1,0,0,2.788H37.4a5.755,5.755,0,0,0,4.912-2.782l.842.574a4.991,4.991,0,0,1,.73,7.615l-1.171,1.193H19.446v-2.263a4.347,4.347,0,0,1,4.421-4.337,1.395,1.395,0,1,0-.084-2.788,7.094,7.094,0,0,0-4.338,1.492c0-10.816,0-18.443,0-18.96a7.246,7.246,0,1,0-14.492,0v78.588a1.394,1.394,0,0,0,2.788,0V110.781h8.918c0,19.679-.006,20.548-.006,32.839a14.029,14.029,0,0,0,14.022,14.022,22.933,22.933,0,0,1,22.913,22.9v2.881s0,0,0,0a1.391,1.391,0,0,0,2.771.156,17.333,17.333,0,0,1,34.411,0,1.394,1.394,0,0,0,2.778-.134,23.027,23.027,0,0,1,22.913-22.5,14.055,14.055,0,0,0,13.983-13.989c0-.293,0,3.114,0-33.516h8.92v69.983a1.394,1.394,0,0,0,2.788,0c0-5.477,0-74.395,0-75.928Zm-97.455,32.45a2.241,2.241,0,0,1-.021,4.476c.014-.264.022-.531.022-.8v-3.673ZM41.9,134.48v9.14a11.2,11.2,0,0,1-11.233,11.23h-.025a11.213,11.213,0,0,1-11.207-11.23v-9.14ZM7.74,107.993v-3.156a4.459,4.459,0,1,1,8.917,0v3.156Zm65.483,28.232h.7c1.218,1.442,1.547,5.833,1.547,7.861v1.394H71.661v-1.394C71.662,139.643,72.637,136.753,73.223,136.225Zm12.689,16.807a1.758,1.758,0,0,1-.01,3.468c.006-.163.009-.327.009-.492v-2.976Zm-2.788-8.723v1.171H78.257v-1.394a23.536,23.536,0,0,0-1.082-7.562A8.11,8.11,0,0,1,83.124,144.309Zm-19.117,0a8.118,8.118,0,0,1,5.946-7.784,23.849,23.849,0,0,0-1.079,7.561v1.394H64.007Zm-4.255,10.456a1.758,1.758,0,0,1,1.468-1.733v2.978s.012.488.012.49a1.759,1.759,0,0,1-1.48-1.735Zm4.258,1.243c0-1.968,0-5.773,0-7.741H83.124v7.744a9.557,9.557,0,0,1-19.114,0ZM130.444,107.5a4.459,4.459,0,1,1,8.917,0v3.156h-8.917Zm-25.2,39.439v-7.989a.749.749,0,0,1,.859-.741l17.94,2.983a4.3,4.3,0,0,1,3.611,4.235v1.527a11.258,11.258,0,0,1-11.223,11.208H116.4a11.256,11.256,0,0,1-11.15-11.223Z" transform="translate(-4.952 -44.271)"/>
        <path id="Trazado_916639" data-name="Trazado 916639" d="M73.677,243.488V234.72a1.394,1.394,0,0,0-2.788,0v8.768a1.394,1.394,0,0,0,2.788,0Z" transform="translate(-34.129 -104.333)"/>
        <path id="Trazado_916640" data-name="Trazado 916640" d="M182.64,243.488V234.72a1.394,1.394,0,1,0-2.788,0v8.768a1.394,1.394,0,0,0,2.788,0Z" transform="translate(-82.345 -104.333)"/>
        <path id="Trazado_916641" data-name="Trazado 916641" d="M104.818,39.248V40.93a7.049,7.049,0,0,0,7.041,7.041h4.781v2.49a7,7,0,0,0-4.263-1.45h-6.165a1.394,1.394,0,0,0-1.394,1.394v1.683a7.049,7.049,0,0,0,7.041,7.041h4.781v3.848a1.394,1.394,0,0,0,2.788,0V59.128H124.2a7.048,7.048,0,0,0,7.041-7.041V50.4a1.394,1.394,0,0,0-1.394-1.394h-6.165a6.994,6.994,0,0,0-4.253,1.443V47.97H124.2a7.048,7.048,0,0,0,7.041-7.041V39.248a1.394,1.394,0,0,0-1.394-1.394h-6.165a7,7,0,0,0-4.253,1.443V37.651a4.746,4.746,0,0,0,3.344-4.528c0-2.189-2.813-5.668-3.676-6.682a1.441,1.441,0,0,0-2.124,0c-.862,1.014-3.675,4.493-3.675,6.682a4.746,4.746,0,0,0,3.343,4.528V39.3a7,7,0,0,0-4.263-1.45H106.21A1.394,1.394,0,0,0,104.818,39.248ZM116.63,56.34h-4.772a4.258,4.258,0,0,1-4.253-4.253V51.8h4.772a4.258,4.258,0,0,1,4.253,4.254Zm7.05-4.541h4.772v.289A4.258,4.258,0,0,1,124.2,56.34h-4.772v-.288A4.258,4.258,0,0,1,123.68,51.8Zm0-11.157h4.772v.288a4.258,4.258,0,0,1-4.253,4.253h-4.772v-.288A4.258,4.258,0,0,1,123.68,40.641Zm-5.646-11.049a10.043,10.043,0,0,1,1.95,3.531,1.95,1.95,0,1,1-3.9,0A10.066,10.066,0,0,1,118.034,29.593ZM107.605,40.641h4.772a4.258,4.258,0,0,1,4.253,4.253v.288h-4.772a4.258,4.258,0,0,1-4.253-4.253Z" transform="translate(-49.142 -12.581)"/>
        <circle id="Elipse_12129" data-name="Elipse 12129" cx="1.394" cy="1.394" r="1.394" transform="translate(62.066 0)"/>
        <path id="Trazado_916642" data-name="Trazado 916642" d="M92.874,1.95H86.457a8.217,8.217,0,0,0-8.206,8.206v8.262a4.068,4.068,0,0,0-1.313-.22,4.111,4.111,0,0,0-4.1,4.109V74.094a1.394,1.394,0,0,0,1.394,1.394h5.419a1.394,1.394,0,0,0,1.394-1.394V56.449L98.711,69.57a8.219,8.219,0,0,0,9.784.006l17.669-13.125V74.094a1.394,1.394,0,0,0,1.394,1.394h5.419a1.394,1.394,0,0,0,1.394-1.394V22.307a4.09,4.09,0,0,0-5.416-3.888V10.156a8.217,8.217,0,0,0-8.206-8.206H104.024a1.394,1.394,0,1,0,0,2.788h16.725a5.439,5.439,0,0,1,5.419,5.419V22.237c0,.023,0,.046,0,.07V52.98L106.834,67.333a5.416,5.416,0,0,1-6.461,0L81.04,52.979V22.307c0-.014,0-.028,0-.043V10.156a5.439,5.439,0,0,1,5.419-5.419h6.417a1.394,1.394,0,1,0,0-2.788Zm37.4,19.036a1.3,1.3,0,0,1,1.31,1.321V72.7h-2.631V53.711c0-.01,0-.02,0-.03V22.272a1.321,1.321,0,0,1,1.318-1.286ZM75.621,72.7V22.307a1.32,1.32,0,0,1,1.316-1.321,1.3,1.3,0,0,1,1.313,1.3v31.4c0,.006,0,.012,0,.018v19Z" transform="translate(-34.99 -1.95)"/>
        <g id="Grupo_1198306" data-name="Grupo 1198306" transform="translate(50.074 5.573)">
          <path id="Trazado_916643" data-name="Trazado 916643" d="M130.454,14.735H103.412a1.394,1.394,0,0,1,0-2.788h27.043a1.394,1.394,0,1,1,0,2.788Zm-32.617,0H96.165a1.394,1.394,0,0,1,0-2.788h1.673a1.394,1.394,0,1,1,0,2.788Z" transform="translate(-94.771 -11.947)" fill="#fff"/>
        </g>
        <g id="Grupo_1198307" data-name="Grupo 1198307" transform="translate(48.836 47.53)">
          <path id="Trazado_916644" data-name="Trazado 916644" d="M110.76,102.823l-17.647-13.1a1.394,1.394,0,1,1,1.662-2.238l17.552,13.034L124.059,91.8a1.394,1.394,0,1,1,1.662,2.238L113.9,102.822A2.628,2.628,0,0,1,110.76,102.823Zm17.487-12.4a1.394,1.394,0,0,1,.288-1.95l1.343-1a1.394,1.394,0,0,1,1.662,2.239l-1.343,1A1.394,1.394,0,0,1,128.247,90.427Z" transform="translate(-92.55 -87.206)" fill="#fff"/>
        </g>
      </g>
    </g>
  </g>
</svg>
