<svg xmlns="http://www.w3.org/2000/svg" xmlns:xlink="http://www.w3.org/1999/xlink" width="272" height="260.641" viewBox="0 0 272 260.641">
  <defs>
    <clipPath id="clip-path">
      <rect id="Rectángulo_408480" data-name="Rectángulo 408480" width="272" height="260.641" rx="8" transform="translate(205.083 549.926)" fill="#9d978d"/>
    </clipPath>
  </defs>
  <g id="Enmascarar_grupo_1098805" data-name="Enmascarar grupo 1098805" transform="translate(-205.083 -549.926)" clip-path="url(#clip-path)">
    <rect id="Rectángulo_404882" data-name="Rectángulo 404882" width="272" height="260.641" rx="8" transform="translate(205.083 549.926)" fill="#f3f0ea"/>
    <g id="Grupo_1198260" data-name="Grupo 1198260" transform="translate(191.705 560.619)">
      <g id="Grupo_1198261" data-name="Grupo 1198261" transform="translate(0 9)">
        <path id="Trazado_916415" data-name="Trazado 916415" d="M316.844,123.127A123.127,123.127,0,1,1,193.717,0,123.127,123.127,0,0,1,316.844,123.127" transform="translate(-44.45 -6)" fill="#e2dacc"/>
        <path id="Trazado_916416" data-name="Trazado 916416" d="M256.1,239.81h43.425a10.877,10.877,0,0,1,10.835,10.853v20.81a10.89,10.89,0,0,1-10.835,10.853H256.1a10.891,10.891,0,0,1-10.836-10.853v-20.81A10.878,10.878,0,0,1,256.1,239.81" transform="translate(-154.44 -151.007)" fill="#f6f6f6" fill-rule="evenodd"/>
        <path id="Trazado_916417" data-name="Trazado 916417" d="M278.456,307.314h24.458a12.8,12.8,0,0,1,12.748,12.77V367.41a12.8,12.8,0,0,1-12.748,12.77H278.456a12.8,12.8,0,0,1-12.749-12.77V320.084a12.8,12.8,0,0,1,12.749-12.77" transform="translate(-167.314 -193.514)" fill="#15965d" fill-rule="evenodd"/>
        <path id="Trazado_916418" data-name="Trazado 916418" d="M310.7,211.179H322.3a4.011,4.011,0,0,1,3.993,4v7.665a4.011,4.011,0,0,1-3.993,4H310.7a4.011,4.011,0,0,1-3.993-4v-7.665a4.01,4.01,0,0,1,3.993-4" transform="translate(-193.131 -132.978)" fill="#fbd09b" fill-rule="evenodd"/>
        <path id="Trazado_916419" data-name="Trazado 916419" d="M271.877,163.461c-11.355,0-21.276-7.187-26.745-17.936-5.7-.687-11.9-9.561-8.153-13.207.79-.791,2.121-.958,3.972-.833-.1-.854-.166-1.729-.228-2.6h62.309c-.062.875-.124,1.75-.228,2.6,1.85-.125,3.182.041,3.972.833,3.744,3.646-2.453,12.52-8.152,13.207-5.47,10.749-15.39,17.936-26.746,17.936" transform="translate(-148.506 -81.156)" fill="#fbd09b" fill-rule="evenodd"/>
        <path id="Trazado_916420" data-name="Trazado 916420" d="M258.407,128.882l-1.83,14.81-3.432-7.937-3.515,2.208-.6-9.082Z" transform="translate(-156.811 -81.156)" fill="#7d4b30" fill-rule="evenodd"/>
        <path id="Trazado_916421" data-name="Trazado 916421" d="M391.961,128.882l1.83,14.81,3.432-7.937,3.514,2.208.6-9.082Z" transform="translate(-246.815 -81.156)" fill="#7d4b30" fill-rule="evenodd"/>
        <path id="Trazado_916422" data-name="Trazado 916422" d="M269.623,61.872c13.851,1.563,23.21,4.5,23.21,7.895,0,5.02-20.61,9.082-46.024,9.082s-46.025-4.062-46.025-9.082c0-3.249,8.568-6.083,21.463-7.686a24.333,24.333,0,0,1,47.376-.208" transform="translate(-126.432 -27.208)" fill="#f5b402" fill-rule="evenodd"/>
        <path id="Trazado_916423" data-name="Trazado 916423" d="M364.263,140.539l-11-1.645-.332,2.167,11,1.646Z" transform="translate(-222.237 -87.461)" fill="#7d4b30" fill-rule="evenodd"/>
        <path id="Trazado_916424" data-name="Trazado 916424" d="M361.842,159.427a1.885,1.885,0,1,0-1.892-1.874,1.883,1.883,0,0,0,1.892,1.874" transform="translate(-226.658 -98.016)" fill="#4d4d4d" fill-rule="evenodd"/>
        <path id="Trazado_916425" data-name="Trazado 916425" d="M315.327,177.258c-8.694,1.479-17.22,1.292-25.456-1.687-8.256,2.979-16.763,3.166-25.456,1.687,3.39,8.416,8.527,22.268,25.29,22.935,16.762-.667,22.232-14.519,25.622-22.935" transform="translate(-166.5 -110.556)" fill="#7d4b30" fill-rule="evenodd"/>
        <path id="Trazado_916426" data-name="Trazado 916426" d="M318.572,195.132c2.786.812,2.121.812,4.907,0,2.517-.729,4.617-.6,4.68.313s-1.913,2.25-4.43,2.979a14.385,14.385,0,0,1-1.456.333,6.28,6.28,0,0,1-2.5,0,14.367,14.367,0,0,1-1.456-.333c-2.516-.73-4.492-2.063-4.43-2.979s2.163-1.041,4.68-.313" transform="translate(-197.655 -122.576)" fill="#fff" fill-rule="evenodd"/>
        <path id="Trazado_916427" data-name="Trazado 916427" d="M298.667,176.4l-9.483,11.665,16.284-9.291,16.285,9.291L312.269,176.4l-6.8-.833Z" transform="translate(-182.097 -110.556)" fill="#8a5d45" fill-rule="evenodd"/>
        <path id="Trazado_916428" data-name="Trazado 916428" d="M281.039,140.539l11.023-1.645.311,2.167-11,1.646Z" transform="translate(-176.968 -87.461)" fill="#7d4b30" fill-rule="evenodd"/>
        <path id="Trazado_916429" data-name="Trazado 916429" d="M296.335,159.427a1.885,1.885,0,1,0-1.872-1.874,1.883,1.883,0,0,0,1.872,1.874" transform="translate(-185.421 -98.016)" fill="#4d4d4d" fill-rule="evenodd"/>
        <path id="Trazado_916430" data-name="Trazado 916430" d="M373.708,235.31h5.387A2.807,2.807,0,0,1,381.9,238.1V276.68a2.825,2.825,0,0,1-2.807,2.812h-5.387a2.825,2.825,0,0,1-2.808-2.812V238.1a2.807,2.807,0,0,1,2.808-2.792" transform="translate(-233.553 -148.173)" fill="#15965d" fill-rule="evenodd"/>
        <path id="Trazado_916431" data-name="Trazado 916431" d="M268.515,235.31H273.9a2.807,2.807,0,0,1,2.807,2.792V276.68a2.825,2.825,0,0,1-2.807,2.812h-5.387a2.825,2.825,0,0,1-2.808-2.812V238.1a2.807,2.807,0,0,1,2.808-2.792" transform="translate(-167.314 -148.173)" fill="#15965d" fill-rule="evenodd"/>
        <path id="Trazado_916432" data-name="Trazado 916432" d="M295.924,96.119c12.811,0,23.272-1.271,23.272-2.812s-10.461-2.791-23.272-2.791-23.252,1.25-23.252,2.791,10.44,2.812,23.252,2.812" transform="translate(-171.7 -56.997)" fill="#f19d29" fill-rule="evenodd"/>
        <path id="Trazado_916433" data-name="Trazado 916433" d="M451.827,453.417a34.931,34.931,0,0,0,.27-4.188c0-25.56-28.388-46.285-63.39-46.285-35.023,0-63.412,20.725-63.412,46.285a35.013,35.013,0,0,0,.27,4.188Z" transform="translate(-204.836 -253.731)" fill="#9cb325" fill-rule="evenodd"/>
        <path id="Trazado_916434" data-name="Trazado 916434" d="M569.917,544.206a30.915,30.915,0,0,0,.271-4.187c0-25.558-28.389-46.285-63.391-46.285-35.022,0-63.39,20.727-63.39,46.285a34.849,34.849,0,0,0,.25,4.187Z" transform="translate(-279.21 -310.901)" fill="#bcd732" fill-rule="evenodd"/>
        <path id="Trazado_916435" data-name="Trazado 916435" d="M220.227,515.811a47.22,47.22,0,0,0,.353-5.728c0-34.933-38.807-63.262-86.663-63.262-47.876,0-86.684,28.329-86.684,63.262a43.49,43.49,0,0,0,.374,5.728Z" transform="translate(-29.742 -281.36)" fill="#5e7912" fill-rule="evenodd"/>
        <path id="Trazado_916436" data-name="Trazado 916436" d="M205.5,540.705a4.257,4.257,0,0,1,4.18,4.332,4.442,4.442,0,0,1-.041.542,20.7,20.7,0,0,1-8.257,0,4.366,4.366,0,0,1-.042-.542,4.253,4.253,0,0,1,4.16-4.332" transform="translate(-126.785 -340.478)" fill="#bcd732" fill-rule="evenodd"/>
        <path id="Trazado_916437" data-name="Trazado 916437" d="M82.452,579.912a4.24,4.24,0,0,1,4.159,4.333,4.824,4.824,0,0,1-.02.542,20.663,20.663,0,0,1-8.256,0,4.692,4.692,0,0,1-.041-.542,4.253,4.253,0,0,1,4.16-4.333" transform="translate(-49.3 -365.167)" fill="#bcd732" fill-rule="evenodd"/>
        <path id="Trazado_916438" data-name="Trazado 916438" d="M112.05,537.555a4.253,4.253,0,0,1,4.159,4.332,4.738,4.738,0,0,1-.041.542,20.254,20.254,0,0,1-4.118.417,20.464,20.464,0,0,1-4.139-.417,4.805,4.805,0,0,1-.02-.542,4.24,4.24,0,0,1,4.16-4.332" transform="translate(-67.938 -338.495)" fill="#bcd732" fill-rule="evenodd"/>
        <path id="Trazado_916439" data-name="Trazado 916439" d="M156.025,502.453a4.24,4.24,0,0,1,4.159,4.333,4.616,4.616,0,0,1-.02.541,20.458,20.458,0,0,1-4.139.417,20.105,20.105,0,0,1-4.118-.417,4.406,4.406,0,0,1-.041-.541,4.253,4.253,0,0,1,4.159-4.333" transform="translate(-95.629 -316.391)" fill="#bcd732" fill-rule="evenodd"/>
        <path id="Trazado_916440" data-name="Trazado 916440" d="M210.5,482.314a4.253,4.253,0,0,1,4.159,4.333,4.555,4.555,0,0,1-.021.542,20.8,20.8,0,0,1-8.277,0,4.551,4.551,0,0,1-.021-.542,4.24,4.24,0,0,1,4.16-4.333" transform="translate(-129.933 -303.71)" fill="#bcd732" fill-rule="evenodd"/>
        <path id="Trazado_916441" data-name="Trazado 916441" d="M164.169,572.656a4.239,4.239,0,0,1,4.159,4.333,4.459,4.459,0,0,1-.02.521,19.819,19.819,0,0,1-8.277,0,4.456,4.456,0,0,1-.02-.521,4.253,4.253,0,0,1,4.159-4.333" transform="translate(-100.757 -360.598)" fill="#bcd732" fill-rule="evenodd"/>
        <path id="Trazado_916442" data-name="Trazado 916442" d="M102.979,267.713l8.984,34.766,8.964,34.767h-35.9l8.985-34.767Z" transform="translate(-53.543 -168.577)" fill="#1f826d" fill-rule="evenodd"/>
        <path id="Trazado_916443" data-name="Trazado 916443" d="M119.386,401.915l2.7,2.687V393.957a1.071,1.071,0,0,1,1.061-1.083h.644a1.071,1.071,0,0,1,1.061,1.083v5.708l3.7-2a.974.974,0,0,1,.935,1.708l-4.638,2.521v8.666l3.473-3.917a.942.942,0,0,1,1.373-.062.957.957,0,0,1,.062,1.354l-4.409,4.958a.827.827,0,0,1-.5.291V428.62a1.066,1.066,0,0,1-1.061,1.062h-.644a1.066,1.066,0,0,1-1.061-1.062V407.289a.951.951,0,0,1-.229-.166l-3.848-3.833a.971.971,0,0,1,1.373-1.374" transform="translate(-74.13 -247.39)" fill="#633" fill-rule="evenodd"/>
        <path id="Trazado_916444" data-name="Trazado 916444" d="M192.027,324.526l5.365,20.768,5.345,20.768H181.3l5.365-20.768Z" transform="translate(-114.16 -204.352)" fill="#f4d546" fill-rule="evenodd"/>
        <path id="Trazado_916445" data-name="Trazado 916445" d="M201.829,404.717l1.622,1.625v-6.374a.612.612,0,0,1,.623-.625h.375a.631.631,0,0,1,.645.625v3.416l2.2-1.187a.576.576,0,0,1,.79.229.57.57,0,0,1-.228.791l-2.766,1.5V409.9l2.08-2.354a.583.583,0,0,1,.811-.041.611.611,0,0,1,.041.832l-2.641,2.957a.511.511,0,0,1-.291.168V421.59a.649.649,0,0,1-.645.646h-.375a.631.631,0,0,1-.623-.646V407.946a.917.917,0,0,1-.146-.1L201,405.551a.567.567,0,0,1,0-.813.611.611,0,0,1,.832-.021" transform="translate(-126.458 -251.464)" fill="#633" fill-rule="evenodd"/>
        <path id="Trazado_916446" data-name="Trazado 916446" d="M169.089,398.1l3.474,13.436,3.452,13.435H162.142l3.473-13.435Z" transform="translate(-102.1 -250.684)" fill="#8cd181" fill-rule="evenodd"/>
        <path id="Trazado_916447" data-name="Trazado 916447" d="M175.415,449.96l1.039,1.062V446.9a.418.418,0,0,1,.416-.417h.25a.417.417,0,0,1,.415.417v2.208l1.435-.771a.36.36,0,0,1,.5.146.351.351,0,0,1-.145.5l-1.789.979v3.353l1.331-1.52a.388.388,0,0,1,.541-.021.412.412,0,0,1,.021.541l-1.7,1.917a.557.557,0,0,1-.188.1v6.54a.417.417,0,0,1-.415.417h-.25a.418.418,0,0,1-.416-.417v-8.832c-.02,0-.062-.041-.083-.062l-1.5-1.479a.365.365,0,0,1,0-.521.411.411,0,0,1,.541-.021" transform="translate(-110.049 -281.146)" fill="#633" fill-rule="evenodd"/>
        <path id="Trazado_916448" data-name="Trazado 916448" d="M432.83,314.8h0a1.78,1.78,0,0,1,1.767,1.77V353.6l15.494,3.6c3.12.73,5.8,2.625,5.8,5.813a5.807,5.807,0,0,1-5.491,5.811v37.329a1.768,1.768,0,1,1-3.536,0V368.851H434.6v37.308a1.767,1.767,0,1,1-3.535,0V368.851H418.792v37.308a1.768,1.768,0,1,1-3.536,0V368.83a5.806,5.806,0,0,1-5.49-5.811c0-3.188,2.682-5.083,5.8-5.813l15.494-3.6V316.566a1.781,1.781,0,0,1,1.767-1.77" transform="translate(-258.027 -198.225)" fill="#e6e6e6" fill-rule="evenodd"/>
        <path id="Trazado_916449" data-name="Trazado 916449" d="M432.621,407.943a1.775,1.775,0,0,1-1.56-1.75V368.885H418.791v37.308a1.768,1.768,0,1,1-3.536,0V368.865a5.807,5.807,0,0,1-5.49-5.812c0-3.187,2.682-5.082,5.8-5.812l15.494-3.6V316.6a1.775,1.775,0,0,1,1.56-1.75Z" transform="translate(-258.026 -198.26)" fill="#ccc" fill-rule="evenodd"/>
        <path id="Trazado_916450" data-name="Trazado 916450" d="M462.994,251.76h.457a3.69,3.69,0,0,0,3.681-3.687V209.6a3.709,3.709,0,0,0-3.681-3.708H458.4a3.713,3.713,0,0,0-3.7,3.708v38.474a3.7,3.7,0,0,0,3.7,3.687h4.6Z" transform="translate(-286.318 -129.648)" fill="#9e6544" fill-rule="evenodd"/>
        <path id="Trazado_916451" data-name="Trazado 916451" d="M460.914,205.891H458.4a3.713,3.713,0,0,0-3.7,3.708v38.474a3.7,3.7,0,0,0,3.7,3.687h2.517Z" transform="translate(-286.318 -129.648)" fill="#8e5b3d" fill-rule="evenodd"/>
        <path id="Trazado_916452" data-name="Trazado 916452" d="M502.28,122.392a12.4,12.4,0,0,1,1.248.083A4.748,4.748,0,0,1,502.2,119.2c0-3.1,3.161-5.625,7.092-5.625,3.91,0,7.092,2.521,7.092,5.625a4.446,4.446,0,0,1-.6,2.25,6.743,6.743,0,0,1,2.537,1.874c.915-2.271,3.6-3.937,6.78-3.937,3.91,0,7.092,2.521,7.092,5.625,0,2.728-2.454,5-5.7,5.52-.25,2.916-3.328,5.228-7.092,5.228a8.674,8.674,0,0,1-3.41-.687c-.791,2.4-3.557,4.166-6.843,4.166-3.91,0-7.091-2.5-7.091-5.6-3.806-.1-6.864-2.584-6.864-5.625,0-3.1,3.182-5.624,7.092-5.624" transform="translate(-311.817 -71.521)" fill="#fff" fill-rule="evenodd"/>
        <path id="Trazado_916453" data-name="Trazado 916453" d="M122.478,202.261a7.111,7.111,0,0,1,.957.063,3.747,3.747,0,0,1-1.019-2.541c0-2.4,2.454-4.354,5.491-4.354,3.016,0,5.47,1.958,5.47,4.354a3.44,3.44,0,0,1-.457,1.75,5.263,5.263,0,0,1,1.975,1.458,5.482,5.482,0,0,1,5.242-3.062c3.015,0,5.469,1.958,5.469,4.353,0,2.1-1.892,3.875-4.409,4.27-.187,2.25-2.558,4.041-5.47,4.041a6.77,6.77,0,0,1-2.641-.521c-.624,1.855-2.766,3.23-5.3,3.23-3.015,0-5.469-1.959-5.491-4.354-2.932-.063-5.3-1.979-5.3-4.333,0-2.417,2.454-4.354,5.49-4.354" transform="translate(-73.667 -123.06)" fill="#fff" fill-rule="evenodd"/>
        <path id="Trazado_916454" data-name="Trazado 916454" d="M697.655,356.141a3.563,3.563,0,0,1,.687.042,2.737,2.737,0,0,1-.728-1.812c0-1.729,1.767-3.125,3.951-3.125,2.163,0,3.931,1.4,3.931,3.125a2.676,2.676,0,0,1-.333,1.25,3.646,3.646,0,0,1,1.414,1.041,3.947,3.947,0,0,1,3.764-2.187c2.163,0,3.931,1.4,3.931,3.124a3.421,3.421,0,0,1-3.161,3.062c-.146,1.625-1.85,2.9-3.93,2.9a4.65,4.65,0,0,1-1.893-.374,3.918,3.918,0,0,1-3.806,2.311c-2.183,0-3.952-1.395-3.952-3.1-2.121-.062-3.806-1.436-3.806-3.125,0-1.728,1.767-3.125,3.93-3.125" transform="translate(-436.834 -221.178)" fill="#fff" fill-rule="evenodd"/>
        <path id="Trazado_916455" data-name="Trazado 916455" d="M185.131,500.173l-5.782-.813,1.081,2.4,1.331.291c-.687,8.249-2.871,17.247-9.047,23.726-4.908,5.165-13.04,8.644-20.008,9.582h32.424Z" transform="translate(-96.159 -314.444)" fill="#de765a" fill-rule="evenodd"/>
        <rect id="Rectángulo_408478" data-name="Rectángulo 408478" width="1.601" height="6.833" transform="translate(111.807 166.918)" fill="#de765a"/>
        <path id="Trazado_916456" data-name="Trazado 916456" d="M297.589,452.409v43.724a14.756,14.756,0,0,0-29.408,1.729,12.708,12.708,0,0,0,.125,1.791H253.769a10.172,10.172,0,0,0-9.837-7.54,10.01,10.01,0,0,0-5.407,1.562V476.447a9.225,9.225,0,0,1,9.171-9.207H261.07V455.555h3.473v11.686h3.909V452.409a2.834,2.834,0,0,1,2.828-2.833h23.481a2.833,2.833,0,0,1,2.828,2.833m0,47.16v.083h-.021Z" transform="translate(-150.198 -283.095)" fill="#f99e3f" fill-rule="evenodd"/>
        <path id="Trazado_916457" data-name="Trazado 916457" d="M340.99,474.495V457.059h8.278a1.463,1.463,0,0,1,1.019.417,1.435,1.435,0,0,1,.437,1.021v14.56a1.4,1.4,0,0,1-.437,1.021,1.377,1.377,0,0,1-1.019.418Zm-.686-17.436v23.2c-.1,0-.208-.02-.333-.02h-.708a21.481,21.481,0,0,0-6.156.9,21.106,21.106,0,0,0-5.116,2.313V458.5a1.421,1.421,0,0,1,1.435-1.437Z" transform="translate(-206.534 -287.807)" fill="#f2f2f2" fill-rule="evenodd"/>
        <path id="Trazado_916458" data-name="Trazado 916458" d="M327.992,484.9v2l4.472-2.375.811,1.5,1.56-.833-2.413-4.562-1.581.833.811,1.5Z" transform="translate(-206.535 -302.648)" fill="#de765a" fill-rule="evenodd"/>
        <path id="Trazado_916459" data-name="Trazado 916459" d="M275.929,545.352h10.856a19.705,19.705,0,0,1,38.226-5.269c1.415,3.958,1.143,7.771,1.143,11.895H320.1a14.465,14.465,0,0,0,1.04-5.375,14.652,14.652,0,0,0-29.3,0,14.873,14.873,0,0,0,1.02,5.375H277.614c.02-.334.041-.646.041-.979a9.954,9.954,0,0,0-1.726-5.646" transform="translate(-173.751 -331.836)" fill="#de765a" fill-rule="evenodd"/>
        <path id="Trazado_916460" data-name="Trazado 916460" d="M256.937,504.533h23.418a.646.646,0,0,1,0,1.292H256.937a.646.646,0,1,1,0-1.292" transform="translate(-161.373 -317.701)" fill="#de765a" fill-rule="evenodd"/>
        <path id="Trazado_916461" data-name="Trazado 916461" d="M331.271,568.77A15.946,15.946,0,1,0,315.3,552.836a15.994,15.994,0,0,0,15.972,15.935" transform="translate(-198.542 -338.069)" fill="#333" fill-rule="evenodd"/>
        <path id="Trazado_916462" data-name="Trazado 916462" d="M344.71,574.287a8.072,8.072,0,1,0-8.069-8.062,8.083,8.083,0,0,0,8.069,8.062" transform="translate(-211.981 -351.46)" fill="#f99e3f" fill-rule="evenodd"/>
        <path id="Trazado_916463" data-name="Trazado 916463" d="M233.323,583.717a11.634,11.634,0,1,0-11.647-11.644,11.659,11.659,0,0,0,11.647,11.644" transform="translate(-139.588 -352.911)" fill="#333" fill-rule="evenodd"/>
        <path id="Trazado_916464" data-name="Trazado 916464" d="M245.594,588.73a4.436,4.436,0,1,0-4.43-4.437,4.441,4.441,0,0,0,4.43,4.437" transform="translate(-151.859 -365.132)" fill="#f99e3f" fill-rule="evenodd"/>
        <path id="Trazado_916465" data-name="Trazado 916465" d="M319.074,442.775h26.621a3.869,3.869,0,0,0,3.037-2c.582-1.1.146-2-.957-2H321.154a3.837,3.837,0,0,0-3.036,2c-.582,1.1-.146,2,.957,2" transform="translate(-200.154 -276.294)" fill="#de765a" fill-rule="evenodd"/>
        <path id="Trazado_916466" data-name="Trazado 916466" d="M5.075,620.752H293.681a5.072,5.072,0,1,1,0,10.145H5.075a5.072,5.072,0,1,1,0-10.145" transform="translate(0 -390.883)" fill="#4d4d4d" fill-rule="evenodd"/>
        <path id="Trazado_916467" data-name="Trazado 916467" d="M590.061,247.279,587.3,257.9a12.572,12.572,0,1,1,6.841,0l-2.766-10.624,7.8,7.812.832-.854-8.444-8.457L600,237.323l-.832-.834-8.444,8.457-8.444-8.457-.853.834,8.444,8.456-8.444,8.457.853.854Zm-5.906,22.663-14.891,57.2h5.8l2.1-10.562h27.1l2.1,10.562h5.823l-10.732-41.183v-.584h-.166l-4.013-15.436.852-.228-2.724-10.165a15.512,15.512,0,0,0,1.705-.708l5.262,9.124,1.684-.98-5.261-9.123a16.031,16.031,0,0,0,1.477-1.125l7.425,7.437,1.394-1.375-7.446-7.437a15.167,15.167,0,0,0,1.124-1.478l9.109,5.271.977-1.688-9.109-5.271a13.51,13.51,0,0,0,.707-1.708l10.149,2.73.52-1.9-10.17-2.729a12.939,12.939,0,0,0,.25-1.833h10.524v-1.937H605.2a13.691,13.691,0,0,0-.25-1.854l10.17-2.729-.52-1.876-10.149,2.73a15.579,15.579,0,0,0-.707-1.708l9.109-5.271-.977-1.687-9.109,5.27a15.313,15.313,0,0,0-1.124-1.479l7.446-7.436-1.394-1.4-7.425,7.457a13.085,13.085,0,0,0-1.477-1.125l5.261-9.124-1.684-.978-5.262,9.124a15.435,15.435,0,0,0-1.705-.709l2.724-10.165-1.872-.52-2.724,10.186a13.6,13.6,0,0,0-1.852-.25V220.741H589.75v10.541a12.869,12.869,0,0,0-1.831.25L585.2,221.345l-1.893.52,2.724,10.165a17.3,17.3,0,0,0-1.705.709l-5.262-9.124-1.684.978,5.262,9.124a15.224,15.224,0,0,0-1.477,1.125l-7.425-7.457-1.373,1.4,7.425,7.436c-.395.479-.769.958-1.124,1.479l-9.109-5.27-.977,1.687,9.108,5.271a15.662,15.662,0,0,0-.707,1.708l-10.149-2.73-.5,1.876,10.149,2.729a13.977,13.977,0,0,0-.23,1.854H565.728v1.937h10.523a13.234,13.234,0,0,0,.23,1.833l-10.149,2.729.5,1.9,10.149-2.73a17.574,17.574,0,0,0,.707,1.708l-9.108,5.271.977,1.688,9.109-5.271c.354.521.729,1,1.124,1.478l-7.425,7.437,1.373,1.375,7.425-7.437c.478.4.957.771,1.477,1.125l-5.262,9.123,1.684.98,5.262-9.124a17.392,17.392,0,0,0,1.705.708L583.3,269.714Zm6.946-22.934-.374,1.271-.374-1.271.374-.376Zm1.976,13.123c-.457.062-.915.125-1.394.146v10.54H589.75v-10.54c-.458-.021-.936-.084-1.373-.146l-5.012,25.247H598.09Zm-.4-1.916a12.012,12.012,0,0,1-1.955.146,12.271,12.271,0,0,1-1.976-.146l1.976-9.936Zm-15.016,55.847,5.386-27.163h7.986v27.163Zm26.1,0L598.381,286.9h-6.363v27.163Z" transform="translate(-356.235 -138.999)" fill="#633" fill-rule="evenodd"/>
      </g>
    </g>
  </g>
</svg>
