<svg xmlns="http://www.w3.org/2000/svg" xmlns:xlink="http://www.w3.org/1999/xlink" width="118" height="118" viewBox="0 0 118 118">
  <defs>
    <filter id="Trazado_896985" x="0" y="0" width="118" height="118" filterUnits="userSpaceOnUse">
      <feOffset dy="3" input="SourceAlpha"/>
      <feGaussianBlur stdDeviation="3" result="blur"/>
      <feFlood flood-opacity="0.161"/>
      <feComposite operator="in" in2="blur"/>
      <feComposite in="SourceGraphic"/>
    </filter>
  </defs>
  <g id="Grupo_1198726" data-name="Grupo 1198726" transform="translate(-1036.891 -4461.322)">
    <g id="Grupo_1198141" data-name="Grupo 1198141" transform="translate(711 615.322)">
      <g id="Grupo_1111318" data-name="Grupo 1111318" transform="translate(334.891 3852)">
        <g id="Grupo_1109826" data-name="Grupo 1109826" transform="translate(0)">
          <g id="Grupo_1098742" data-name="Grupo 1098742" transform="translate(0 0)">
            <g transform="matrix(1, 0, 0, 1, -9, -6)" filter="url(#Trazado_896985)">
              <g id="Trazado_896985-2" data-name="Trazado 896985" transform="translate(9 6)" fill="#fc0" opacity="0.859">
                <path d="M 49.99993515014648 99.5 C 43.31726837158203 99.5 36.83476257324219 98.19129943847656 30.73248100280762 95.61025238037109 C 24.83812141418457 93.11714172363281 19.54434776306152 89.54795837402344 14.99820137023926 85.00179290771484 C 10.45204162597656 80.45565032958984 6.88285493850708 75.16187286376953 4.389748573303223 69.26751708984375 C 1.808695197105408 63.16523742675781 0.5000017881393433 56.6827278137207 0.5000017881393433 50.00006103515625 C 0.5000017881393433 43.31726455688477 1.808695197105408 36.83475494384766 4.389748573303223 30.73247528076172 C 6.88285493850708 24.83811569213867 10.45204162597656 19.54434204101562 14.99820137023926 14.99819660186768 C 19.54434776306152 10.45203590393066 24.83812141418457 6.88284969329834 30.73248100280762 4.389742851257324 C 36.83476257324219 1.808689475059509 43.31726837158203 0.4999961853027344 49.99993515014648 0.4999961853027344 C 56.68260192871094 0.4999961853027344 63.16510772705078 1.808689475059509 69.26738739013672 4.389742851257324 C 75.16175079345703 6.88284969329834 80.45552062988281 10.45203590393066 85.00167083740234 14.99819660186768 C 89.54782867431641 19.54434204101562 93.11701202392578 24.83811569213867 95.61012268066406 30.73247528076172 C 98.19117736816406 36.83475494384766 99.49987030029297 43.31726455688477 99.49987030029297 49.99993133544922 C 99.49987030029297 56.6827278137207 98.19117736816406 63.16523742675781 95.61012268066406 69.26751708984375 C 93.11701202392578 75.16187286376953 89.54782867431641 80.45565032958984 85.00167083740234 85.00179290771484 C 80.45552062988281 89.54795837402344 75.16175079345703 93.11714172363281 69.26738739013672 95.61025238037109 C 63.16510772705078 98.19129943847656 56.68260192871094 99.5 49.99993515014648 99.5 Z" stroke="none"/>
                <path d="M 49.99993515014648 0.9999923706054688 C 43.38454818725586 0.9999923706054688 36.96757507324219 2.29541015625 30.92725372314453 4.850250244140625 C 25.09249877929688 7.318145751953125 19.85213470458984 10.85135650634766 15.35174560546875 15.35174560546875 C 10.85136413574219 19.85212707519531 7.318145751953125 25.09249114990234 4.850257873535156 30.92724609375 C 2.295417785644531 36.96757125854492 1 43.38454437255859 1 50.00006103515625 C 1 56.61544799804688 2.295417785644531 63.03242111206055 4.850257873535156 69.07273864746094 C 7.318145751953125 74.90750122070312 10.85136413574219 80.14786529541016 15.35174560546875 84.64824676513672 C 19.85213470458984 89.14863586425781 25.09249877929688 92.68184661865234 30.92725372314453 95.14974212646484 C 36.96757507324219 97.70458221435547 43.38454818725586 99 49.99993515014648 99 C 56.61532211303711 99 63.03229522705078 97.70458221435547 69.07261657714844 95.14974212646484 C 74.90737915039062 92.68184661865234 80.14773559570312 89.14863586425781 84.64812469482422 84.64824676513672 C 89.14850616455078 80.14786529541016 92.68172454833984 74.90750122070312 95.14961242675781 69.07273864746094 C 97.70445251464844 63.03242111206055 98.99987030029297 56.61544799804688 98.99987030029297 49.99993133544922 C 98.99987030029297 43.38454437255859 97.70445251464844 36.96757125854492 95.14961242675781 30.92724609375 C 92.68172454833984 25.09249114990234 89.14850616455078 19.85212707519531 84.64812469482422 15.35174560546875 C 80.14773559570312 10.85135650634766 74.90737915039062 7.318145751953125 69.07261657714844 4.850250244140625 C 63.03229522705078 2.29541015625 56.61532211303711 0.9999923706054688 49.99993515014648 0.9999923706054688 M 49.99993515014648 -7.62939453125e-06 C 77.6141357421875 -7.62939453125e-06 99.99987030029297 22.38572692871094 99.99987030029297 49.99993133544922 L 99.99987030029297 50.00006103515625 C 99.99987030029297 77.61426544189453 77.6141357421875 100 49.99993515014648 100 C 22.38573455810547 100 0 77.61426544189453 0 50.00006103515625 L 0 49.99993133544922 C 0 22.38572692871094 22.38573455810547 -7.62939453125e-06 49.99993515014648 -7.62939453125e-06 Z" stroke="none" fill="#fff"/>
              </g>
            </g>
            <g id="Rectángulo_400907" data-name="Rectángulo 400907" transform="translate(0)" fill="none" stroke="#fff" stroke-width="1">
              <rect width="100" height="100" rx="50" stroke="none"/>
              <rect x="0.5" y="0.5" width="99" height="99" rx="49.5" fill="none"/>
            </g>
          </g>
        </g>
      </g>
    </g>
    <g id="agreement_17394460" transform="translate(1032.862 4459.982)">
      <g id="Grupo_1198725" data-name="Grupo 1198725" transform="translate(28.545 23.623)">
        <path id="Trazado_918351" data-name="Trazado 918351" d="M232.312,166.334l-.435,20.344-5.391-5.918-5.657,6.08-.309-20.392c.074,0,.144,0,.218-.009l2.514-.178a3.562,3.562,0,0,1,2.827,1.232l2.117,2.2C229.172,170.7,231.267,166.581,232.312,166.334Z" transform="translate(-191.935 -145.245)" fill="#ed1e24" fill-rule="evenodd"/>
        <path id="Trazado_918352" data-name="Trazado 918352" d="M188.317,30.71l.871,1.529a2.267,2.267,0,0,0,1.586,1.142l1.728.33a2.328,2.328,0,0,1,1.873,2.547l-.2,1.747a2.253,2.253,0,0,0,.615,1.851l1.2,1.284a2.324,2.324,0,0,1,.022,3.162l-1.189,1.3a2.246,2.246,0,0,0-.592,1.859l.218,1.747a2.324,2.324,0,0,1-1.842,2.569l-1.725.353a2.244,2.244,0,0,0-1.572,1.154l-.85,1.541a2.324,2.324,0,0,1-3,.993l-1.6-.727a2.256,2.256,0,0,0-1.951.012l-1.595.745a2.326,2.326,0,0,1-3.014-.959l-.867-1.533a2.261,2.261,0,0,0-1.586-1.137l-1.728-.33a2.324,2.324,0,0,1-1.873-2.547l.2-1.747a2.259,2.259,0,0,0-.61-1.856l-1.206-1.284a2.318,2.318,0,0,1-.017-3.157l1.189-1.3a2.263,2.263,0,0,0,.593-1.859l-.218-1.747a2.321,2.321,0,0,1,1.842-2.566l1.725-.353a2.263,2.263,0,0,0,1.572-1.158l.85-1.538a2.326,2.326,0,0,1,3-1l1.6.731a2.257,2.257,0,0,0,1.951-.012l1.595-.75a2.326,2.326,0,0,1,3.007.966Z" transform="translate(-148.327 -29.526)" fill="#b21f24" fill-rule="evenodd"/>
        <path id="Trazado_918353" data-name="Trazado 918353" d="M219.652,30.713l.871,1.529a2.267,2.267,0,0,0,1.586,1.142l1.728.33a2.328,2.328,0,0,1,1.873,2.547l-.2,1.747a2.253,2.253,0,0,0,.615,1.851l1.2,1.284a2.324,2.324,0,0,1,.022,3.162l-1.189,1.3a2.246,2.246,0,0,0-.592,1.859l.218,1.747a2.324,2.324,0,0,1-1.842,2.569l-1.725.353a2.244,2.244,0,0,0-1.572,1.154l-.85,1.541a2.331,2.331,0,0,1-1.337,1.1c-8.192-6.267-13.419-15.953-12.287-22.473a2.262,2.262,0,0,0,1.472-1.137l.85-1.538a2.326,2.326,0,0,1,3-1l1.6.731a2.257,2.257,0,0,0,1.951-.012l1.595-.75a2.326,2.326,0,0,1,3.008.965Z" transform="translate(-179.662 -29.529)" fill="#ed1e24" fill-rule="evenodd"/>
        <path id="Trazado_918354" data-name="Trazado 918354" d="M215.709,64.87a7.841,7.841,0,1,1-7.839,7.843A7.845,7.845,0,0,1,215.709,64.87Z" transform="translate(-181.228 -59.44)" fill="#f05151" fill-rule="evenodd"/>
        <path id="Trazado_918355" data-name="Trazado 918355" d="M233.245,64.87a7.842,7.842,0,0,1,3.323,14.946c-.048,0-.092,0-.14,0a7.842,7.842,0,0,1-3.319-14.946c.043,0,.091,0,.135,0Z" transform="translate(-198.765 -59.44)" fill="#f37e81" fill-rule="evenodd"/>
        <path id="Trazado_918356" data-name="Trazado 918356" d="M124.414,333.914c1.642,1.642-1.65,4.508-3.34,2.975-.218-.187-.993-.893-1.206-1.059.945,1.576-2.06,4.042-4.281,1.821-4.368-4.363-5.126-5.358-9.451-9.607L95.68,325.5l4.033-12.556,7.029.413,11.677,2.008c2.308,2.5,5.614,5.806,6.915,7.1l5.474,5.444c1.4,1.389-1.576,4.534-3.25,2.861C129.231,332.433,126.081,335.581,124.414,333.914Z" transform="translate(-86.276 -269.395)" fill="#e2ab7f" fill-rule="evenodd"/>
        <path id="Trazado_918357" data-name="Trazado 918357" d="M143.72,314.21l3.68.218,11.677,2.008c1.3,1.407,2.918,3.07,4.311,4.486a15.65,15.65,0,0,1-7.478,1.8C149.2,322.723,143.758,318.918,143.72,314.21Z" transform="translate(-126.934 -270.47)" fill="#fad1a2" fill-rule="evenodd"/>
        <path id="Trazado_918358" data-name="Trazado 918358" d="M221.179,313.44l15.639.539L229.654,325.3l-8.392,3.162-5.61-5.579c-2.222-2.208-3.962-2.2-5.671-1.037-5.144,3.485-9.294-1.237-6.882-2.67l5.417-3.223c.065-.038.126-.114.218-.171C209.865,315.069,219.4,313.919,221.179,313.44Z" transform="translate(-176.595 -269.818)" fill="#80311a" fill-rule="evenodd"/>
        <path id="Trazado_918359" data-name="Trazado 918359" d="M263.518,313.44l9.18.318a2.69,2.69,0,0,1,.031.418c0,3.084-4.6,5.579-10.27,5.579-4.926,0-9.042-1.882-10.039-4.4C255.4,314.672,262.058,313.832,263.518,313.44Z" transform="translate(-218.933 -269.819)" fill="#bb5727" fill-rule="evenodd"/>
        <path id="Trazado_918360" data-name="Trazado 918360" d="M422.32,305.05h8.249a.609.609,0,0,1,.61.605v15.217a.609.609,0,0,1-.61.605H422.32a.609.609,0,0,1-.61-.605V305.655A.608.608,0,0,1,422.32,305.05Z" transform="translate(-362.213 -262.718)" fill="#70bf44" fill-rule="evenodd"/>
        <path id="Trazado_918361" data-name="Trazado 918361" d="M387.552,297.74h4.508a1.472,1.472,0,0,1,1.467,1.472v15.73a1.472,1.472,0,0,1-1.467,1.472h-4.513a1.475,1.475,0,0,1-1.467-1.472v-15.73A1.475,1.475,0,0,1,387.552,297.74Z" transform="translate(-332.057 -256.531)" fill="#5cba47" fill-rule="evenodd"/>
        <path id="Trazado_918362" data-name="Trazado 918362" d="M387.552,297.74h4.508a1.472,1.472,0,0,1,1.467,1.472v2.835a8.333,8.333,0,0,1-5.975,2.4,9.074,9.074,0,0,1-1.472-.121v-5.118A1.475,1.475,0,0,1,387.552,297.74Z" transform="translate(-332.057 -256.531)" fill="#b4d678" fill-rule="evenodd"/>
        <path id="Trazado_918363" data-name="Trazado 918363" d="M44.713,306.64H35.171a.7.7,0,0,0-.7.7v14.538a.7.7,0,0,0,.7.7h9.543a.707.707,0,0,0,.705-.7V307.341A.7.7,0,0,0,44.713,306.64Z" transform="translate(-34.47 -264.063)" fill="#4061ad" fill-rule="evenodd"/>
        <path id="Trazado_918364" data-name="Trazado 918364" d="M88.437,297.74H92.95a1.475,1.475,0,0,1,1.467,1.472v15.73a1.475,1.475,0,0,1-1.467,1.472H88.437a1.472,1.472,0,0,1-1.467-1.472v-15.73A1.471,1.471,0,0,1,88.437,297.74Z" transform="translate(-78.904 -256.531)" fill="#4589c8" fill-rule="evenodd"/>
        <path id="Trazado_918365" data-name="Trazado 918365" d="M88.437,297.74H92.95a1.475,1.475,0,0,1,1.467,1.472V304.5a8.981,8.981,0,0,1-2.239.283,8.509,8.509,0,0,1-5.209-1.721V299.21A1.471,1.471,0,0,1,88.437,297.74Z" transform="translate(-78.904 -256.531)" fill="#5ea1d7" fill-rule="evenodd"/>
        <path id="Trazado_918366" data-name="Trazado 918366" d="M125.751,202.859c2.6,0,27.912-.061,28.174-.021,6.393-6.651,7.383,10.614.078,4.66l-28.4-.052-.048,2.752-7.839-5.335,7.966-5.122Z" transform="translate(-104.929 -173.588)" fill="#f7ec14" fill-rule="evenodd"/>
        <path id="Trazado_918367" data-name="Trazado 918367" d="M143.651,202.859c2.6,0,27.912-.061,28.174-.022,2.792-2.905,4.551-1.251,5.044,1.04-.458,2.025-2.047,3.349-4.964.976l-28.4-.052-4.638-2.03,4.717-3.031Z" transform="translate(-122.83 -173.588)" fill="#e5e516" fill-rule="evenodd"/>
        <path id="Trazado_918368" data-name="Trazado 918368" d="M238.4,91.71a3.72,3.72,0,1,1-3.72,3.72A3.718,3.718,0,0,1,238.4,91.71Z" transform="translate(-203.919 -82.156)" fill="#f7ec13" fill-rule="evenodd"/>
      </g>
      <path id="Trazado_918369" data-name="Trazado 918369" d="M63.026,32.1a4.8,4.8,0,1,1-3.388,1.4A4.785,4.785,0,0,1,63.026,32.1ZM64.9,35.028A2.648,2.648,0,1,0,65.67,36.9,2.641,2.641,0,0,0,64.9,35.028ZM50.417,51.823l2.5-.009,3.24,0-.043-3.119-.4-.705a1.278,1.278,0,0,0-.356-.409,1.305,1.305,0,0,0-.5-.2l-1.728-.33a3.4,3.4,0,0,1-2.739-3.72l.2-1.747a1.242,1.242,0,0,0-.048-.544,1.225,1.225,0,0,0-.278-.461l-1.2-1.284a3.389,3.389,0,0,1-.026-4.612l1.189-1.3a1.252,1.252,0,0,0,.275-.461,1.226,1.226,0,0,0,.04-.544l-.218-1.747a3.4,3.4,0,0,1,2.7-3.746l1.725-.353a1.266,1.266,0,0,0,.5-.218,1.281,1.281,0,0,0,.349-.406l.843-1.543a3.408,3.408,0,0,1,1.911-1.59,3.356,3.356,0,0,1,2.469.135l1.6.727a1.281,1.281,0,0,0,.532.121,1.253,1.253,0,0,0,.527-.126l1.593-.745a3.392,3.392,0,0,1,4.4,1.4l.867,1.533a1.256,1.256,0,0,0,.356.409,1.214,1.214,0,0,0,.5.2l1.728.335a3.4,3.4,0,0,1,2.739,3.72l-.2,1.747a1.241,1.241,0,0,0,.052.544,1.2,1.2,0,0,0,.278.461l1.2,1.284a3.389,3.389,0,0,1,.026,4.612l-1.189,1.3a1.269,1.269,0,0,0-.275.466,1.19,1.19,0,0,0-.038.539l.218,1.747a3.4,3.4,0,0,1-2.7,3.75l-1.725.353a1.3,1.3,0,0,0-.5.214,1.2,1.2,0,0,0-.349.409L69.9,48.913l-.066,2.87c3.345,0,6.093,0,7.26.009,2.177-2.077,3.967-1.9,5.213-.7a5.745,5.745,0,0,1,1.472,3.737,5.845,5.845,0,0,1-1.045,3.9c-1.128,1.384-2.962,1.79-5.491-.131l-7.552-.012-.14,6.485a1.072,1.072,0,0,1-1.864.7h0l-4.6-5.056-4.864,5.227A1.071,1.071,0,0,1,56.7,66a1.06,1.06,0,0,1-.34-.828l-.1-6.607-5.992-.014-.026,1.7A1.07,1.07,0,0,1,49.155,61.3a1.043,1.043,0,0,1-.588-.183l-7.839-5.339a1.069,1.069,0,0,1,.035-1.793l7.957-5.118a1.081,1.081,0,0,1,1.486.323,1.127,1.127,0,0,1,.171.622ZM58.3,51.8l9.394-.012.017-.767-.009,0a3.369,3.369,0,0,1-2.474-.135l-1.6-.727a1.29,1.29,0,0,0-.532-.126,1.242,1.242,0,0,0-.522.131l-1.595.745a3.373,3.373,0,0,1-2.474.161c-.069-.022-.144-.048-.214-.074Zm9.251,6.782-3.511-.009,3.428,3.767Zm-5.405-.009-3.741-.009.061,3.964Zm-9.229-4.622-3.532.009A1.07,1.07,0,0,1,48.3,52.915l-.022-1.2-4.995,3.21,4.857,3.3.017-.767a1.07,1.07,0,0,1,1.071-1.054l19.411.04a.046.046,0,0,1,.035,0l8.916.012a1.068,1.068,0,0,1,.714.24c1.467,1.2,2.352,1.206,2.778.679a3.7,3.7,0,0,0,.567-2.431,3.6,3.6,0,0,0-.819-2.308c-.444-.432-1.254-.318-2.469.933a1.082,1.082,0,0,1-.971.361c-.074-.014-3.829-.009-8.579,0H68.7l-11.428.017h-.022Zm-14.842,9.8h4.513a2.552,2.552,0,0,1,2.544,2.518l3.938.23c.038,0,.078.009.118.012l11.371,1.956a62.965,62.965,0,0,1,7.922-1.52c1.977-.3,3.724-.575,4.368-.75a1.076,1.076,0,0,1,.387-.031l8.257.283V66.3h0a2.552,2.552,0,0,1,2.549-2.544h4.506a2.535,2.535,0,0,1,1.8.745,2.5,2.5,0,0,1,.309.375H96.9a1.679,1.679,0,0,1,1.685,1.681h0V81.776h0A1.679,1.679,0,0,1,96.9,83.457H90.656a2.709,2.709,0,0,1-.309.375,2.536,2.536,0,0,1-1.8.745H84.035a2.552,2.552,0,0,1-2.544-2.544h0V80.285l-6.972,2.63a3.053,3.053,0,0,1-.406,1.555,4.045,4.045,0,0,1-.727.962,4.1,4.1,0,0,1-.985.727,3.33,3.33,0,0,1-1.054.356,3.409,3.409,0,0,1-.344,1.045,4.17,4.17,0,0,1-.741,1.014,4.124,4.124,0,0,1-1.014.736,3.4,3.4,0,0,1-1.089.353,3.3,3.3,0,0,1-.235.7,3.778,3.778,0,0,1-.767,1.076,4.369,4.369,0,0,1-1.059.771,3.053,3.053,0,0,1-3.162-.057,3.539,3.539,0,0,1-.919.962,3.851,3.851,0,0,1-1.455.641,3.736,3.736,0,0,1-3.475-1.128c-1.885-1.885-3.183-3.231-4.4-4.5-1.355-1.407-2.613-2.718-4.831-4.9l-2.782-.679a2.552,2.552,0,0,1-2.487,2.017H38.079a2.535,2.535,0,0,1-1.8-.745,2.7,2.7,0,0,1-.458-.619H29.246a1.776,1.776,0,0,1-1.776-1.776h0V66.9h0a1.776,1.776,0,0,1,1.776-1.776h6.576a2.632,2.632,0,0,1,.458-.618,2.534,2.534,0,0,1,1.8-.747Zm7.051,4.665V80.367l3.492.854a1.064,1.064,0,0,1,.532.283c2.378,2.334,3.68,3.689,5.083,5.149,1.115,1.158,2.3,2.386,4.377,4.465a1.66,1.66,0,0,0,1.529.544,1.589,1.589,0,0,0,.627-.278,1.287,1.287,0,0,0,.392-.423.408.408,0,0,0,.061-.335l-.009-.017L57.8,87.342A1.071,1.071,0,1,1,59.283,85.8l3.95,3.777c.022.022.043.048.065.069.118.1.235.214.349.313h0c.135.121.257.23.387.344l.026.026a.959.959,0,0,0,1.066-.012,2.215,2.215,0,0,0,.522-.387,1.574,1.574,0,0,0,.33-.453.49.49,0,0,0-.048-.562l-3.941-3.772a1.071,1.071,0,0,1,1.484-1.546l3.95,3.777c.009.009.012.017.022.022a.7.7,0,0,0,.828.022,1.694,1.694,0,0,0,.47-.353,2.006,2.006,0,0,0,.353-.466.734.734,0,0,0,.009-.8l-.04-.04c-.012-.012-.026-.026-.038-.04L65.11,81.963a1.071,1.071,0,1,1,1.484-1.546l3.919,3.75a.524.524,0,0,1,.074.069.683.683,0,0,0,.828.031,1.982,1.982,0,0,0,.461-.349,1.905,1.905,0,0,0,.349-.458c.131-.24.192-.466.1-.567l-5.479-5.444a4.54,4.54,0,0,0-2.417-1.477,2.689,2.689,0,0,0-1.894.567c-2.778,1.882-5.365,1.681-7.065.757a4.845,4.845,0,0,1-1.4-1.132,3.384,3.384,0,0,1-.745-1.515,2.339,2.339,0,0,1,1.18-2.592l3.183-1.894L48.874,68.65Zm-9.59,12.639V67.275H29.616V81.063Zm7.052-15.155H38.079a.4.4,0,0,0-.278.118.406.406,0,0,0-.114.278h0V82.035h0a.4.4,0,0,0,.114.278.41.41,0,0,0,.278.118h4.513a.4.4,0,0,0,.275-.118.391.391,0,0,0,.118-.278h0v-.779a.279.279,0,0,1,0-.088V67.35a.575.575,0,0,1,0-.126v-.919h0a.382.382,0,0,0-.118-.278A.391.391,0,0,0,42.592,65.907Zm48.494,1.123V81.307h5.353V67.031ZM81.5,78.036V68.607l-8.244-.287c-.8.192-2.514.458-4.442.757-3.205.5-7.012,1.085-7.544,1.415l-.012.009a1.226,1.226,0,0,1-.24.178L55.6,73.9a.311.311,0,0,0-.166.344,1.273,1.273,0,0,0,.292.549,2.69,2.69,0,0,0,.771.619c1.111.6,2.858.693,4.838-.648a4.745,4.745,0,0,1,3.392-.923,6.548,6.548,0,0,1,3.632,2.082l0,0,5.122,5.092L81.227,78.1A1.087,1.087,0,0,1,81.5,78.036Zm7.052-12.129H84.04a.392.392,0,0,0-.278.118.411.411,0,0,0-.118.278h0v15.73h0a.4.4,0,0,0,.393.4h4.511a.4.4,0,0,0,.278-.118.406.406,0,0,0,.114-.278h0V66.3h0a.4.4,0,0,0-.114-.278A.4.4,0,0,0,88.548,65.907ZM63.026,27.978a8.923,8.923,0,1,1-6.3,2.613,8.9,8.9,0,0,1,6.3-2.613Zm4.786,4.133A6.764,6.764,0,1,0,69.794,36.9a6.749,6.749,0,0,0-1.982-4.786Zm.662-5.244L67.6,25.333a1.246,1.246,0,0,0-.705-.579,1.267,1.267,0,0,0-.919.061l-1.593.75a3.377,3.377,0,0,1-1.424.327,3.324,3.324,0,0,1-1.42-.309l-1.6-.727a1.26,1.26,0,0,0-1.619.532l-.85,1.541a3.391,3.391,0,0,1-.962,1.106,3.434,3.434,0,0,1-1.337.584l-1.725.353a1.239,1.239,0,0,0-.989,1.389l.218,1.747a3.325,3.325,0,0,1-.871,2.709l-1.189,1.3a1.273,1.273,0,0,0-.327.857,1.238,1.238,0,0,0,.34.85l1.2,1.289a3.282,3.282,0,0,1,.9,2.7l-.2,1.747a1.252,1.252,0,0,0,1.006,1.375l1.728.33a3.354,3.354,0,0,1,2.317,1.664l.867,1.529a1.278,1.278,0,0,0,.71.584,1.245,1.245,0,0,0,.919-.066l1.593-.745a3.279,3.279,0,0,1,1.42-.327,3.329,3.329,0,0,1,1.424.3l1.6.731a1.263,1.263,0,0,0,.919.048,1.236,1.236,0,0,0,.7-.584l.854-1.538a3.365,3.365,0,0,1,.959-1.106,3.3,3.3,0,0,1,1.337-.584l1.725-.353a1.237,1.237,0,0,0,.771-.5,1.252,1.252,0,0,0,.223-.888l-.218-1.747a3.343,3.343,0,0,1,.867-2.709l1.189-1.3a1.255,1.255,0,0,0-.009-1.707l-1.2-1.284a3.328,3.328,0,0,1-.757-1.251,3.386,3.386,0,0,1-.144-1.45l.2-1.747a1.29,1.29,0,0,0-.235-.893,1.259,1.259,0,0,0-.776-.484l-1.728-.33a3.413,3.413,0,0,1-1.346-.575,3.346,3.346,0,0,1-.966-1.086Z" transform="translate(0 0)"/>
    </g>
  </g>
</svg>
