<svg xmlns="http://www.w3.org/2000/svg" xmlns:xlink="http://www.w3.org/1999/xlink" width="208.051" height="119.263" viewBox="0 0 208.051 119.263">
  <defs>
    <filter id="influencer-their-pet-creating-content-online-spaces-social-media" x="0" y="32" width="208.051" height="87" filterUnits="userSpaceOnUse">
      <feOffset dy="3" input="SourceAlpha"/>
      <feGaussianBlur stdDeviation="3" result="blur"/>
      <feFlood flood-opacity="0.161"/>
      <feComposite operator="in" in2="blur"/>
      <feComposite in="SourceGraphic"/>
    </filter>
    <filter id="Rect치ngulo_401593" x="42.457" y="0" width="71.898" height="119.263" filterUnits="userSpaceOnUse">
      <feOffset dy="3" input="SourceAlpha"/>
      <feGaussianBlur stdDeviation="3" result="blur-2"/>
      <feFlood flood-opacity="0.161"/>
      <feComposite operator="in" in2="blur-2"/>
      <feComposite in="SourceGraphic"/>
    </filter>
  </defs>
  <g id="Grupo_1182682" data-name="Grupo 1182682" transform="translate(-1220.949 -2117)">
    <g transform="matrix(1, 0, 0, 1, 1220.95, 2117)" filter="url(#influencer-their-pet-creating-content-online-spaces-social-media)">
      <path id="influencer-their-pet-creating-content-online-spaces-social-media-2" data-name="influencer-their-pet-creating-content-online-spaces-social-media" d="M0,0H190.051V69H0Z" transform="translate(9 38)" fill="#f9e5d6"/>
    </g>
    <g id="Grupo_1182090" data-name="Grupo 1182090" transform="translate(1031.625 -3625)">
      <g transform="matrix(1, 0, 0, 1, 189.32, 5742)" filter="url(#Rect치ngulo_401593)">
        <rect id="Rect치ngulo_401593-2" data-name="Rect치ngulo 401593" width="53.898" height="101.263" rx="8" transform="translate(51.46 6)" fill="#ffea99"/>
      </g>
    </g>
    <g id="environmental-regulations_18780449_3_" data-name="environmental-regulations_18780449 (3)" transform="translate(1277.727 2134.278)">
      <g id="Grupo_1198360" data-name="Grupo 1198360" transform="translate(15.218 1.408)">
        <path id="Trazado_916752" data-name="Trazado 916752" d="M58.943,8.01H31.07a9.273,9.273,0,0,0-9.25,9.246V29.543H58.945V8.01Z" transform="translate(-21.82 -8.01)" fill="#8bd7fa" fill-rule="evenodd"/>
        <path id="Trazado_916753" data-name="Trazado 916753" d="M138.264,8.01a9.271,9.271,0,0,1,9.246,9.246V95.181H83.686V17.256A9.271,9.271,0,0,0,74.44,8.01Z" transform="translate(-65.192 -8.01)" fill="#daeafa" fill-rule="evenodd"/>
        <path id="Trazado_916754" data-name="Trazado 916754" d="M259.4,191.53h14.385a1.777,1.777,0,0,1,1.77,1.77v4.343H257.63V193.3A1.78,1.78,0,0,1,259.4,191.53Z" transform="translate(-216.185 -159.276)" fill="#223c55" fill-rule="evenodd"/>
        <path id="Trazado_916755" data-name="Trazado 916755" d="M288.228,37.51a4.35,4.35,0,1,1-4.348,4.348A4.352,4.352,0,0,1,288.228,37.51Z" transform="translate(-237.822 -32.325)" fill="#986b54" fill-rule="evenodd"/>
        <path id="Trazado_916756" data-name="Trazado 916756" d="M188.172,318.73A22.124,22.124,0,0,0,208.815,346.1c1.524-6.229,4.125-14.308-3.824-18.588C197.54,323.992,193,324.456,188.172,318.73Z" transform="translate(-158.41 -264.12)" fill="#70da40" fill-rule="evenodd"/>
        <path id="Trazado_916757" data-name="Trazado 916757" d="M284.719,392.715a22.809,22.809,0,0,0,2.974.315c1.388-5.682,3.675-12.9-1.963-17.37a12.5,12.5,0,0,0-2.48,7.215A34.462,34.462,0,0,0,284.719,392.715Z" transform="translate(-237.287 -311.044)" fill="#65c43a" fill-rule="evenodd"/>
        <path id="Trazado_916758" data-name="Trazado 916758" d="M321.526,318.73A22.123,22.123,0,0,1,300.879,346.1c-1.519-6.229-4.125-14.308,3.83-18.588C312.159,323.992,316.695,324.456,321.526,318.73Z" transform="translate(-250.47 -264.12)" fill="#70da40" fill-rule="evenodd"/>
        <path id="Trazado_916759" data-name="Trazado 916759" d="M307.8,417.468c-.533.058-1.063.1-1.6.121-.165-.677-.343-1.373-.517-2.09a34,34,0,0,1,3.294-4.807,25.346,25.346,0,0,1,5.392-5.005,1.4,1.4,0,0,1,1.547,2.341,22.391,22.391,0,0,0-4.773,4.445A31.315,31.315,0,0,0,307.8,417.468Z" transform="translate(-255.79 -335.603)" fill="#70da40" fill-rule="evenodd"/>
        <path id="Trazado_916760" data-name="Trazado 916760" d="M390.415,41.33a3.675,3.675,0,1,1-3.675,3.675A3.675,3.675,0,0,1,390.415,41.33Z" transform="translate(-322.604 -35.474)" fill="#986b54" fill-rule="evenodd"/>
        <path id="Trazado_916761" data-name="Trazado 916761" d="M192.4,41.33a3.675,3.675,0,1,1-3.675,3.675A3.676,3.676,0,0,1,192.4,41.33Z" transform="translate(-159.387 -35.474)" fill="#986b54" fill-rule="evenodd"/>
        <path id="Trazado_916762" data-name="Trazado 916762" d="M380.476,138.51H365.76v2.949a2.964,2.964,0,0,0,2.954,2.954h8.811a2.962,2.962,0,0,0,2.949-2.954V138.51Z" transform="translate(-305.311 -115.574)" fill="#fea832" fill-rule="evenodd"/>
        <path id="Trazado_916763" data-name="Trazado 916763" d="M182.486,138.51H167.77v2.949a2.96,2.96,0,0,0,2.949,2.954h8.811a2.964,2.964,0,0,0,2.954-2.954V138.51Z" transform="translate(-142.119 -115.574)" fill="#fea832" fill-rule="evenodd"/>
        <path id="Trazado_916764" data-name="Trazado 916764" d="M71.907,17.256V29.543h3.52V17.256a9.268,9.268,0,0,0-9.2-9.246h-.044a9.22,9.22,0,0,0-1.761.169A9.284,9.284,0,0,1,71.907,17.256Z" transform="translate(-56.933 -8.01)" fill="#7dc2e1" fill-rule="evenodd"/>
        <path id="Trazado_916765" data-name="Trazado 916765" d="M170.522,140.067V138.52H167.77v2.949a2.96,2.96,0,0,0,2.949,2.954h2.756a2.964,2.964,0,0,1-2.954-2.954v-1.4Z" transform="translate(-142.119 -115.582)" fill="#e5972d" fill-rule="evenodd"/>
        <path id="Trazado_916766" data-name="Trazado 916766" d="M365.77,138.51v2.949a2.964,2.964,0,0,0,2.954,2.954h2.752a2.964,2.964,0,0,1-2.954-2.954V138.51H365.77Z" transform="translate(-305.319 -115.574)" fill="#e5972d" fill-rule="evenodd"/>
        <path id="Trazado_916767" data-name="Trazado 916767" d="M260.4,197.643V193.3a1.774,1.774,0,0,1,1.77-1.77H259.41a1.777,1.777,0,0,0-1.77,1.77v4.343Z" transform="translate(-216.194 -159.276)" fill="#1f364d" fill-rule="evenodd"/>
        <path id="Trazado_916768" data-name="Trazado 916768" d="M190.466,45a3.675,3.675,0,0,1,2.794-3.57,3.674,3.674,0,1,0-.874,7.243,3.422,3.422,0,0,0,.875-.107,3.67,3.67,0,0,1-2.8-3.566Z" transform="translate(-159.378 -35.466)" fill="#89604c" fill-rule="evenodd"/>
        <path id="Trazado_916769" data-name="Trazado 916769" d="M288.236,37.51a4.344,4.344,0,0,0-4.114,2.94,4.347,4.347,0,0,0,5,5.67,4.319,4.319,0,0,1-2.283-1.267,4.467,4.467,0,0,1-.963-1.585,4.348,4.348,0,0,1,3.244-5.668A4.17,4.17,0,0,0,288.236,37.51Z" transform="translate(-237.83 -32.325)" fill="#89604c" fill-rule="evenodd"/>
        <path id="Trazado_916770" data-name="Trazado 916770" d="M387.006,43.6a3.676,3.676,0,0,0,3.4,5.083,3.441,3.441,0,0,0,.875-.107,3.675,3.675,0,0,1-2.8-3.568,3.6,3.6,0,0,1,.281-1.408,3.67,3.67,0,0,1,2.519-2.162,3.67,3.67,0,0,0-4.273,2.162Z" transform="translate(-322.595 -35.474)" fill="#89604c" fill-rule="evenodd"/>
      </g>
      <path id="Trazado_916771" data-name="Trazado 916771" d="M88.286,0H24.466A10.669,10.669,0,0,0,13.81,10.658V22.943a1.4,1.4,0,0,0,1.4,1.4H32.308V88.58a1.4,1.4,0,0,0,1.4,1.4H97.538a1.4,1.4,0,0,0,1.4-1.4V10.658A10.669,10.669,0,0,0,88.286,0ZM16.62,21.539V10.658a7.845,7.845,0,1,1,15.69,0V21.539ZM96.132,87.176H35.118V10.658A10.637,10.637,0,0,0,31.667,2.81H88.286a7.855,7.855,0,0,1,7.846,7.847ZM90.383,22.938H88.792l-2.805-7.876a5.078,5.078,0,1,0-7.844-5.526H71.2a5.754,5.754,0,0,0-11.16,0H53.105a5.077,5.077,0,1,0-7.839,5.526L42.46,22.938H40.869a1.4,1.4,0,0,0-1.4,1.4V27.3a4.361,4.361,0,0,0,4.359,4.353h8.809A4.36,4.36,0,0,0,56.991,27.3V24.342a1.4,1.4,0,0,0-1.4-1.4H54L51.189,15.06a5.082,5.082,0,0,0,1.916-2.715h6.941a5.777,5.777,0,0,0,4.174,4.176V32.26H58.436a3.177,3.177,0,0,0-3.174,3.174v4.345a1.4,1.4,0,0,0,1.4,1.4h17.92a1.4,1.4,0,0,0,1.4-1.4V35.432a3.177,3.177,0,0,0-3.174-3.174H67.027V16.521A5.771,5.771,0,0,0,71.2,12.345h6.941a5.1,5.1,0,0,0,1.921,2.717l-2.807,7.876H75.665a1.4,1.4,0,0,0-1.4,1.4V27.3A4.361,4.361,0,0,0,78.62,31.65h8.809A4.36,4.36,0,0,0,91.787,27.3V24.342a1.4,1.4,0,0,0-1.4-1.4ZM73.18,35.432v2.939H58.07V35.432a.369.369,0,0,1,.364-.364H72.818A.368.368,0,0,1,73.18,35.432ZM83.024,8.67a2.27,2.27,0,1,1-2.271,2.273A2.275,2.275,0,0,1,83.024,8.67Zm-34.8,0a2.27,2.27,0,1,1-2.271,2.273A2.273,2.273,0,0,1,48.225,8.67ZM54.179,27.3a1.548,1.548,0,0,1-1.55,1.545H43.82A1.549,1.549,0,0,1,42.27,27.3v-1.55H54.177V27.3ZM51.01,22.938H45.439l2.469-6.93c.1.007.209.011.315.011s.211,0,.315-.011Zm14.612-9.051a2.944,2.944,0,1,1,2.944-2.944A2.947,2.947,0,0,1,65.622,13.886Zm17.087,2.121c.1.007.209.011.315.011s.211,0,.315-.011l2.469,6.93H80.236ZM88.979,27.3a1.548,1.548,0,0,1-1.55,1.545H78.62a1.549,1.549,0,0,1-1.55-1.545v-1.55H88.977V27.3Zm-.16,18.389a1.4,1.4,0,0,1-1.4,1.4H43.836a1.4,1.4,0,1,1,0-2.809H87.414A1.4,1.4,0,0,1,88.819,45.686ZM43.836,53.139a1.4,1.4,0,1,1,0-2.809H65.622a1.4,1.4,0,1,1,0,2.809Zm42.758,1.511a1.405,1.405,0,0,0-1.4.462c-2.983,3.54-5.781,4.491-9.656,5.81a59.492,59.492,0,0,0-6.691,2.613l-.065.032A13.15,13.15,0,0,0,65.615,65.9a12.987,12.987,0,0,0-3.157-2.331l-.063-.032A59.492,59.492,0,0,0,55.7,60.922c-3.874-1.318-6.673-2.271-9.656-5.81a1.405,1.405,0,0,0-2.439.573A23.536,23.536,0,0,0,65.566,84.8l.051,0h.058A23.534,23.534,0,0,0,87.636,55.686,1.4,1.4,0,0,0,86.594,54.651ZM49.926,73.761a20.657,20.657,0,0,1-4.049-14.79c2.83,2.538,5.7,3.513,8.925,4.612a57.394,57.394,0,0,1,6.361,2.478,9.816,9.816,0,0,1,2.749,2.132c-2.285,4.209-1.178,9.385-.125,13.637a20.645,20.645,0,0,1-13.86-8.069Zm31.4,0a20.647,20.647,0,0,1-13.218,7.976,24.017,24.017,0,0,1,7.236-7.9A1.4,1.4,0,1,0,73.788,71.5a26.466,26.466,0,0,0-7.654,8.081c-1.22-5.294-1.694-10.456,3.954-13.514a57.4,57.4,0,0,1,6.361-2.478c3.227-1.1,6.1-2.074,8.925-4.612a20.662,20.662,0,0,1-4.048,14.788Z"/>
    </g>
  </g>
</svg>
