<svg xmlns="http://www.w3.org/2000/svg" xmlns:xlink="http://www.w3.org/1999/xlink" width="272" height="251.992" viewBox="0 0 272 251.992">
  <defs>
    <clipPath id="clip-path">
      <rect id="Rectángulo_408442" data-name="Rectángulo 408442" width="272" height="201.34" rx="8" transform="translate(205.07 6236.303)" fill="#d6edba" opacity="0.51"/>
    </clipPath>
    <clipPath id="clip-path-2">
      <rect id="Rectángulo_408605" data-name="Rectángulo 408605" width="770.111" height="673.56" fill="none"/>
    </clipPath>
    <clipPath id="clip-path-3">
      <rect id="Rectángulo_408592" data-name="Rectángulo 408592" width="286.299" height="451.459" transform="translate(73.479 -0.001)" fill="none"/>
    </clipPath>
    <linearGradient id="linear-gradient" x1="-0.257" y1="1.492" x2="-0.253" y2="1.492" gradientUnits="objectBoundingBox">
      <stop offset="0" stop-color="#fff1b6"/>
      <stop offset="0.147" stop-color="#fff1b6"/>
      <stop offset="0.933" stop-color="#54ace2"/>
      <stop offset="1" stop-color="#54ace2"/>
    </linearGradient>
    <clipPath id="clip-path-4">
      <rect id="Rectángulo_408595" data-name="Rectángulo 408595" width="286.299" height="197.716" transform="translate(73.479 219.069)" fill="none"/>
    </clipPath>
    <clipPath id="clip-path-5">
      <rect id="Rectángulo_408593" data-name="Rectángulo 408593" width="233.196" height="85.995" transform="translate(138.216 311.817)" fill="none"/>
    </clipPath>
    <clipPath id="clip-path-6">
      <rect id="Rectángulo_408594" data-name="Rectángulo 408594" width="175.096" height="70.98" transform="translate(7.684 256.875)" fill="none"/>
    </clipPath>
    <clipPath id="clip-path-7">
      <path id="Trazado_918426" data-name="Trazado 918426" d="M73.479,375.608V612.283h286.3V375.608c-94.374,6.223-189.9,5.664-286.3,0" fill="none"/>
    </clipPath>
    <linearGradient id="linear-gradient-2" x1="-0.257" y1="1.259" x2="-0.253" y2="1.259" gradientUnits="objectBoundingBox">
      <stop offset="0" stop-color="#405e2c"/>
      <stop offset="0.147" stop-color="#405e2c"/>
      <stop offset="0.933" stop-color="#899945"/>
      <stop offset="1" stop-color="#899945"/>
    </linearGradient>
    <clipPath id="clip-path-8">
      <path id="Trazado_918428" data-name="Trazado 918428" d="M73.479,398.537v28.085c6.149.2,12.52.3,19.052.3,51.1,0,92.531-6.424,92.531-14.347s-41.428-14.347-92.531-14.347c-6.532,0-12.9.105-19.052.3" fill="none"/>
    </clipPath>
    <clipPath id="clip-path-9">
      <rect id="Rectángulo_408597" data-name="Rectángulo 408597" width="143.208" height="37.135" transform="translate(11.593 381.568)" fill="none"/>
    </clipPath>
    <clipPath id="clip-path-11">
      <path id="Trazado_918434" data-name="Trazado 918434" d="M184.645,379.788c-72.2,44.53-19.175,174.283,9.555,232.5H359.778V473.774c-116.527-50.285-106.89-84.276-100.645-94.032q-37.139.636-74.488.046" fill="none"/>
    </clipPath>
    <clipPath id="clip-path-12">
      <path id="Trazado_918445" data-name="Trazado 918445" d="M184.645,379.788a71.924,71.924,0,0,0-14.522,11.733,174.322,174.322,0,0,0-21.755,62.9c-.474,39.947,14.464,86.052,29.686,122.451a202.253,202.253,0,0,0,31.034,35.412h150.69V473.774c-116.527-50.285-106.89-84.276-100.646-94.032q-37.137.636-74.487.046" fill="none"/>
    </clipPath>
    <clipPath id="clip-path-13">
      <rect id="Rectángulo_408598" data-name="Rectángulo 408598" width="178.907" height="257.298" transform="translate(130.536 353.926)" fill="none"/>
    </clipPath>
    <clipPath id="clip-path-14">
      <rect id="Rectángulo_408599" data-name="Rectángulo 408599" width="521.745" height="284.574" transform="translate(242.291 368.824)" fill="none"/>
    </clipPath>
    <clipPath id="clip-path-17">
      <rect id="Rectángulo_408600" data-name="Rectángulo 408600" width="23.033" height="15.961" transform="translate(85.227 483.821)" fill="none"/>
    </clipPath>
    <clipPath id="clip-path-18">
      <rect id="Rectángulo_408601" data-name="Rectángulo 408601" width="23.034" height="15.96" transform="translate(88.237 536.858)" fill="none"/>
    </clipPath>
    <clipPath id="clip-path-19">
      <path id="Trazado_918460" data-name="Trazado 918460" d="M305.6,449.49c-4.562,1.355,6.1,6.719,6.1,6.719s-10.638.384-7.562,3.525,9.228-1.474,9.228-1.474-1.282,9.1,3.461,7.306-.9-7.69-.9-7.69,9.357,5.255,10.9,1.282-10.254-3.2-10.254-3.2,8.331-3.845,6.537-5.768-8.588.256-8.716,5.127c0,0-3.531-5.993-7.621-5.993a4.088,4.088,0,0,0-1.171.171" fill="none"/>
    </clipPath>
    <clipPath id="clip-path-21">
      <path id="Trazado_918463" data-name="Trazado 918463" d="M326.963,392.3c-5.127,1.524,6.853,7.551,6.853,7.551s-11.954.432-8.5,3.96,10.37-1.656,10.37-1.656-1.441,10.226,3.888,8.21-1.008-8.642-1.008-8.642,10.514,5.9,12.242,1.44-11.522-3.6-11.522-3.6,9.362-4.321,7.346-6.481-9.65.288-9.794,5.76c0,0-3.968-6.733-8.563-6.733a4.6,4.6,0,0,0-1.315.191" fill="none"/>
    </clipPath>
    <clipPath id="clip-path-23">
      <path id="Trazado_918466" data-name="Trazado 918466" d="M295.11,416.955c-4.562,1.355,6.1,6.719,6.1,6.719s-10.638.384-7.562,3.525,9.229-1.474,9.229-1.474-1.282,9.1,3.461,7.306-.9-7.691-.9-7.691,9.358,5.255,10.9,1.283-10.255-3.2-10.255-3.2,8.331-3.845,6.537-5.768-8.587.256-8.716,5.127c0,0-3.531-5.993-7.62-5.993a4.089,4.089,0,0,0-1.171.171" fill="none"/>
    </clipPath>
    <clipPath id="clip-path-24">
      <rect id="Rectángulo_408644" data-name="Rectángulo 408644" width="272" height="251.992" rx="8" transform="translate(205.07 6219.303)" fill="#d6edba" opacity="0.51"/>
    </clipPath>
    <clipPath id="clip-path-25">
      <rect id="Rectángulo_408643" data-name="Rectángulo 408643" width="216.886" height="395.625" fill="none"/>
    </clipPath>
    <clipPath id="clip-path-26">
      <rect id="Rectángulo_408606" data-name="Rectángulo 408606" width="173.372" height="257.309" fill="none"/>
    </clipPath>
    <clipPath id="clip-path-27">
      <path id="Trazado_918471" data-name="Trazado 918471" d="M119.334,37.467,180.97,40.5s1.067-15.375-2.136-20.073-19.215-8.114-25.45-9.182a3.094,3.094,0,0,0-.529-.042c-7.018,0-31.108,18.886-33.522,26.261" transform="translate(-119.334 -11.206)" fill="none"/>
    </clipPath>
    <clipPath id="clip-path-28">
      <rect id="Rectángulo_408607" data-name="Rectángulo 408607" width="92.39" height="17.854" fill="none"/>
    </clipPath>
    <clipPath id="clip-path-30">
      <path id="Trazado_918474" data-name="Trazado 918474" d="M72.706,61.813c0,16.8,27.985,34.353,62.863,34.353s63.443-17.555,63.443-34.353S170.849,26.85,135.97,26.85,72.706,45.015,72.706,61.813" transform="translate(-72.706 -26.85)" fill="none"/>
    </clipPath>
    <clipPath id="clip-path-32">
      <path id="Trazado_918479" data-name="Trazado 918479" d="M190.607,169.415c.9,10.212,13.282,36.063,19.01,43.408s23.449-10.553,25.71-16.325c1.759-4.489-10.876-29.422-33.246-42.531a57.611,57.611,0,0,0-21.463-7.59s9.091,12.826,9.99,23.037" transform="translate(-180.617 -146.378)" fill="none"/>
    </clipPath>
    <clipPath id="clip-path-34">
      <path id="Trazado_918484" data-name="Trazado 918484" d="M143.221,143.435c-32.059,2.877-42.011,19.968-41.123,30.048.534,6.061,6.338,21.9,11.7,44.064-7.253,14.815-5.115,33.961-5.115,33.961,31.458,5.638,38.248,6.3,69.948.71,0,0-.755-10.385-8.279-23.537,2.959-24.213,10.753-52.782,10.376-58.883-1.415-22.859-13.491-23.678-35.151-26.362Z" transform="translate(-102.044 -143.435)" fill="none"/>
    </clipPath>
    <clipPath id="clip-path-35">
      <rect id="Rectángulo_408611" data-name="Rectángulo 408611" width="54.797" height="45.503" fill="none"/>
    </clipPath>
    <clipPath id="clip-path-37">
      <path id="Trazado_918487" data-name="Trazado 918487" d="M150,116.312v29.943c5.375,2.822,10.871,2.708,16.472,0V116.312Z" transform="translate(-150.004 -116.312)" fill="none"/>
    </clipPath>
    <clipPath id="clip-path-39">
      <path id="Trazado_918490" data-name="Trazado 918490" d="M63.63,198.019c2.262,5.771,18.613,24.094,24.341,16.749s15.768-35.13,16.667-45.341a60.646,60.646,0,0,1,4.312-17.78c-35.433,4.772-47.581,40.6-45.32,46.372" transform="translate(-63.368 -151.647)" fill="none"/>
    </clipPath>
    <clipPath id="clip-path-41">
      <path id="Trazado_918497" data-name="Trazado 918497" d="M157.692,190.193l-49.329.99s-6.785-26.215,1.093-41.428a22.941,22.941,0,0,0-8.581,2.335S89.195,174.153,100,219.644c0,0-28.187,41.523-38.376,80.87H184.507c-2.387-21.791-8.646-64.045-22.418-80.252,0,0,16.7-47.73,2.658-68.24l-6.976-2.326s1.979,23.446-.079,40.5" transform="translate(-61.62 -149.697)" fill="none"/>
    </clipPath>
    <clipPath id="clip-path-43">
      <path id="Trazado_918502" data-name="Trazado 918502" d="M124.794,213.4l1.522,11.133,2.181,2.212,4.3,32.935c12.636,8.2,31.976,0,31.976,0l5.453-33.67,2.125-1.753,1.064-10.858c-3.821-5.914-13.912-8.427-23.944-8.426-11.393,0-22.711,3.242-24.676,8.426" transform="translate(-124.794 -204.971)" fill="none"/>
    </clipPath>
    <clipPath id="clip-path-44">
      <rect id="Rectángulo_408616" data-name="Rectángulo 408616" width="43.297" height="105.139" fill="none"/>
    </clipPath>
    <clipPath id="clip-path-46">
      <path id="Trazado_918505" data-name="Trazado 918505" d="M152.144,175.5c-5.489.219-1.537,11.418-1.537,11.418s-9-11.2-13.174-8.783-1.1,12.034-1.1,12.034-3.514-1.36-4.831,0,.149,6.294.149,6.294-3.661-2.093-5.2,0,2.886,8.378,2.886,8.378c3.448,3.5,9.021,6.253,20.149,6.253s20.15-2.8,20.15-6.253c0,0,7.812-12.434,4.161-16.606s-8.337,2.291-8.337,2.291,1.682-8.658,0-8.877-4.317,6.367-4.317,6.367-3.453-12.518-8.862-12.518c-.047,0-.094,0-.141,0" transform="translate(-126.13 -175.499)" fill="none"/>
    </clipPath>
    <clipPath id="clip-path-48">
      <path id="Trazado_918508" data-name="Trazado 918508" d="M142.671,205.94s-5.809-2.863-8.2-.037,6.83,1.768,6.83,1.768-6.752,4.785-3.414,5.515,5.371-4.892,5.371-4.892,3.046,6.462,5.365,3.274-3.862-4.616-3.862-4.616,8.323-.573,7.63-3.812-8.032,2.288-8.032,2.288,3.777-6.05,1.791-6.536a1.377,1.377,0,0,0-.322-.037c-2.013,0-5.047,4.033-3.159,7.085" transform="translate(-134.08 -198.855)" fill="none"/>
    </clipPath>
    <clipPath id="clip-path-50">
      <path id="Trazado_918511" data-name="Trazado 918511" d="M173.58,199.543s-5.269-6.382-5.751-3,5.274,5,5.274,5-6.22,3.514-2.87,5.591,4.32-4.191,4.32-4.191,1.184,8.258,4.362,7.328-2.873-7.842-2.873-7.842,6.313,3.321,6.65,1.3-4.22-5.177-7.286-2.952c0,0,2.428-6-.566-8.178a1.441,1.441,0,0,0-.8-.335c-1.841,0-.456,7.277-.456,7.277" transform="translate(-167.8 -192.266)" fill="none"/>
    </clipPath>
    <clipPath id="clip-path-52">
      <path id="Trazado_918514" data-name="Trazado 918514" d="M154.268,180.723s-5.269-6.382-5.752-3,5.274,5,5.274,5-6.22,3.514-2.87,5.591,4.321-4.191,4.321-4.191,1.184,8.258,4.362,7.328-2.873-7.842-2.873-7.842,6.313,3.321,6.65,1.305-4.22-5.177-7.286-2.952c0,0,2.428-6-.566-8.178a1.438,1.438,0,0,0-.8-.335c-1.84,0-.456,7.277-.456,7.277" transform="translate(-148.488 -173.446)" fill="none"/>
    </clipPath>
    <clipPath id="clip-path-54">
      <path id="Trazado_918517" data-name="Trazado 918517" d="M53.212,208.366c-7.214,2.187-10.239,18.28-8.065,20.269,26.392,24.137,50.768,27.12,50.768,27.12s4.754-4.739-1.429-11.309c-14.265-15.159-23.387-36.72-37.122-36.72a14.224,14.224,0,0,0-4.152.64" transform="translate(-44.456 -207.726)" fill="none"/>
    </clipPath>
    <clipPath id="clip-path-55">
      <rect id="Rectángulo_408622" data-name="Rectángulo 408622" width="74.421" height="53.246" fill="none"/>
    </clipPath>
    <clipPath id="clip-path-57">
      <path id="Trazado_918520" data-name="Trazado 918520" d="M198.978,244.446c-6.183,6.57-1.429,11.309-1.429,11.309s23.7-6.05,50.093-30.187c2.175-1.989-.176-15.016-7.39-17.2a14.221,14.221,0,0,0-4.152-.64c-13.734,0-22.857,21.561-37.122,36.72" transform="translate(-195.803 -207.726)" fill="none"/>
    </clipPath>
    <clipPath id="clip-path-60">
      <path id="Trazado_918523" data-name="Trazado 918523" d="M97.329,240.917c-8.3,3.006-19,17.348-15.179,19.818,19.525,12.61,37.063,9.549,37.063,9.549l-.884-27.247-14.7,2.882s-2.422-5.161-5.408-5.161a2.619,2.619,0,0,0-.9.159" transform="translate(-81.351 -240.758)" fill="none"/>
    </clipPath>
    <clipPath id="clip-path-62">
      <path id="Trazado_918527" data-name="Trazado 918527" d="M120.3,245.5c-1.606,2.049-1.837,4.489,1.027,7.126a55.514,55.514,0,0,0,7.935-2.7c3.906-.107,9.54-.477,10.75-1.189.2-.116,2.1-3.06.92-4.62s-10.452-1.79-10.452-1.79c-3.494,0-10.179,3.175-10.179,3.175" transform="translate(-119.123 -242.321)" fill="none"/>
    </clipPath>
    <clipPath id="clip-path-64">
      <path id="Trazado_918530" data-name="Trazado 918530" d="M124.338,255.092c-2.7,1.828-3.368,4.042-1.961,6.65,0,0,18.041-2.882,18.241-3.042s1.8-3.363,0-4.643a5.755,5.755,0,0,0-2.677-.386,118.926,118.926,0,0,0-13.6,1.421" transform="translate(-121.66 -253.671)" fill="none"/>
    </clipPath>
    <clipPath id="clip-path-66">
      <path id="Trazado_918533" data-name="Trazado 918533" d="M123.472,264.613c-1.828,2.555-1.71,4.9.953,6.964,0,0,14.1-1.613,15.575-2.251,1.247-.539,1.746-4.419-.256-5.47a8.034,8.034,0,0,0-2.915-.329c-4.79,0-13.357,1.086-13.357,1.086" transform="translate(-122.241 -263.527)" fill="none"/>
    </clipPath>
    <clipPath id="clip-path-68">
      <path id="Trazado_918536" data-name="Trazado 918536" d="M124.354,274.237l-.738,4.481c4.106.951,11.841,1.5,15.027-.476.213-.132,1.951-4.125-.04-4.989a6.253,6.253,0,0,0-2.085-.23,114.443,114.443,0,0,0-12.165,1.214" transform="translate(-123.616 -273.023)" fill="none"/>
    </clipPath>
    <clipPath id="clip-path-70">
      <path id="Trazado_918539" data-name="Trazado 918539" d="M198.469,245.919l-14.7-2.882-.885,27.247s17.54,3.061,37.064-9.549c3.824-2.469-6.882-16.811-15.179-19.818a2.619,2.619,0,0,0-.9-.159c-2.986,0-5.408,5.161-5.408,5.161" transform="translate(-182.888 -240.758)" fill="none"/>
    </clipPath>
    <clipPath id="clip-path-72">
      <path id="Trazado_918543" data-name="Trazado 918543" d="M167.529,244.111c-1.18,1.56.722,4.5.921,4.62,1.209.712,6.843,1.081,10.749,1.189a55.484,55.484,0,0,0,7.935,2.7c2.863-2.637,2.631-5.076,1.027-7.126,0,0-6.686-3.175-10.178-3.175,0,0-9.273.23-10.453,1.79" transform="translate(-167.146 -242.321)" fill="none"/>
    </clipPath>
    <clipPath id="clip-path-74">
      <path id="Trazado_918546" data-name="Trazado 918546" d="M168.81,254.057c-1.8,1.28-.2,4.482,0,4.643s18.241,3.042,18.241,3.042c1.407-2.608.739-4.822-1.961-6.65a118.947,118.947,0,0,0-13.6-1.421,5.759,5.759,0,0,0-2.678.386" transform="translate(-167.966 -253.671)" fill="none"/>
    </clipPath>
    <clipPath id="clip-path-76">
      <path id="Trazado_918549" data-name="Trazado 918549" d="M170.07,263.856c-2,1.051-1.5,4.931-.256,5.47,1.477.638,15.575,2.251,15.575,2.251,2.663-2.066,2.781-4.408.953-6.964,0,0-8.566-1.086-13.356-1.086a8.032,8.032,0,0,0-2.915.329" transform="translate(-168.722 -263.527)" fill="none"/>
    </clipPath>
    <clipPath id="clip-path-78">
      <path id="Trazado_918552" data-name="Trazado 918552" d="M172.4,273.253c-1.991.864-.254,4.857-.04,4.989,3.186,1.975,10.92,1.427,15.026.476l-.737-4.481a114.443,114.443,0,0,0-12.165-1.214,6.256,6.256,0,0,0-2.085.23" transform="translate(-171.449 -273.023)" fill="none"/>
    </clipPath>
    <clipPath id="clip-path-80">
      <path id="Trazado_918556" data-name="Trazado 918556" d="M115.257,80.664c-2.838,1.838,1.335,20.053,11.854,21.89s0-13.012,0-13.012c-.729-4.142-7.058-9.218-10.541-9.219a2.379,2.379,0,0,0-1.313.341" transform="translate(-114.39 -80.323)" fill="none"/>
    </clipPath>
    <clipPath id="clip-path-82">
      <path id="Trazado_918559" data-name="Trazado 918559" d="M189.22,89.542s-10.518,14.849,0,13.012,14.693-20.052,11.854-21.89a2.382,2.382,0,0,0-1.313-.341c-3.484,0-9.813,5.077-10.541,9.219" transform="translate(-184.545 -80.323)" fill="none"/>
    </clipPath>
    <clipPath id="clip-path-84">
      <path id="Trazado_918568" data-name="Trazado 918568" d="M126.768,80.979c1,12.279,9.025,35.128,24.642,35.128s24.64-23.251,24.8-35.563c.168-12.73-1.918-31.353-24.427-31.858-22.508.506-26.018,20.015-25.017,32.294" transform="translate(-126.617 -48.685)" fill="none"/>
    </clipPath>
    <clipPath id="clip-path-86">
      <path id="Trazado_918574" data-name="Trazado 918574" d="M149.777,117.718s1.786,7.309,8.642,6.495,7.992-8.591,7.992-8.591a55.489,55.489,0,0,1-16.633,2.1" transform="translate(-149.777 -115.622)" fill="none"/>
    </clipPath>
    <clipPath id="clip-path-87">
      <rect id="Rectángulo_408639" data-name="Rectángulo 408639" width="32.515" height="10.569" fill="none"/>
    </clipPath>
    <clipPath id="clip-path-89">
      <path id="Trazado_918578" data-name="Trazado 918578" d="M173.182,89.484c-6.226,1.464-6.3,8.24-6.3,8.24s11.4,6.144,15.275-5.789a9.727,9.727,0,0,0-6.686-2.722,9.99,9.99,0,0,0-2.29.271" transform="translate(-166.883 -89.213)" fill="none"/>
    </clipPath>
    <clipPath id="clip-path-90">
      <path id="Trazado_918580" data-name="Trazado 918580" d="M173.61,89.512a7.586,7.586,0,0,0-5.241,4.14c0,.067,0,.134,0,.2a4.761,4.761,0,1,0,6.389-4.544,10.4,10.4,0,0,0-1.145.2" transform="translate(-168.366 -89.309)" fill="none"/>
    </clipPath>
    <clipPath id="clip-path-93">
      <path id="Trazado_918588" data-name="Trazado 918588" d="M133.907,91.935c3.877,11.933,15.275,5.789,15.275,5.789s-.073-6.776-6.3-8.24a9.99,9.99,0,0,0-2.29-.271,9.727,9.727,0,0,0-6.686,2.722" transform="translate(-133.907 -89.213)" fill="none"/>
    </clipPath>
    <clipPath id="clip-path-94">
      <path id="Trazado_918590" data-name="Trazado 918590" d="M140.514,93.853a4.761,4.761,0,1,0,9.52,0c0-.067,0-.134,0-.2a7.583,7.583,0,0,0-5.241-4.141,10.4,10.4,0,0,0-1.145-.2,4.833,4.833,0,0,0-3.131,4.544" transform="translate(-140.514 -89.309)" fill="none"/>
    </clipPath>
  </defs>
  <g id="Grupo_1198931" data-name="Grupo 1198931" transform="translate(-205.07 -6219.303)">
    <g id="Enmascarar_grupo_1098820" data-name="Enmascarar grupo 1098820" clip-path="url(#clip-path)">
      <g id="Grupo_1198780" data-name="Grupo 1198780" transform="translate(115.015 5972.921)">
        <g id="Grupo_1198779" data-name="Grupo 1198779" transform="translate(5 2)" clip-path="url(#clip-path-2)">
          <g id="Grupo_1198731" data-name="Grupo 1198731">
            <g id="Grupo_1198730" data-name="Grupo 1198730" clip-path="url(#clip-path-3)">
              <rect id="Rectángulo_408591" data-name="Rectángulo 408591" width="286.299" height="451.459" transform="translate(73.479 -0.001)" fill="url(#linear-gradient)"/>
            </g>
          </g>
          <g id="Grupo_1198739" data-name="Grupo 1198739">
            <g id="Grupo_1198738" data-name="Grupo 1198738" clip-path="url(#clip-path-4)">
              <g id="Grupo_1198734" data-name="Grupo 1198734" opacity="0.76">
                <g id="Grupo_1198733" data-name="Grupo 1198733">
                  <g id="Grupo_1198732" data-name="Grupo 1198732" clip-path="url(#clip-path-5)">
                    <path id="Trazado_918422" data-name="Trazado 918422" d="M328.188,351.48c-26.83,2.591-32.326,13.027-32.918,14.347,1.256-3.018,22.14-55.249-36.447-53.988-37.131.8-39.63,27.254-36.063,47.481-2.739-3.175-5.663-4.755-7.755-3.819-2.7,1.209-3.2,6.239-1.515,12.147a29.242,29.242,0,0,0-17.485-3.4c-20.208,2.565-16.131,27.98-16.131,27.98s-2.412-2.929-20.956-3.652-20.7,6.088-20.7,6.088c134.573,14.02,233.2-23.369,233.2-23.369s-14.568-22.583-43.224-19.817m-99,30.1c.027-.055.051-.115.077-.172.207.491.325.753.325.753s-.138-.21-.4-.581" fill="#fff"/>
                  </g>
                </g>
              </g>
              <g id="Grupo_1198737" data-name="Grupo 1198737" opacity="0.68">
                <g id="Grupo_1198736" data-name="Grupo 1198736">
                  <g id="Grupo_1198735" data-name="Grupo 1198735" clip-path="url(#clip-path-6)">
                    <path id="Trazado_918423" data-name="Trazado 918423" d="M44.568,273.773c19.438,5.26,26.112,13.52,26.362,14.452-.5-2.119-8.541-38.674,34.524-30.03,27.294,5.479,25.4,22.914,19.915,35.513,2.47-1.686,4.851-2.317,6.263-1.432,1.822,1.142,1.478,4.46-.6,8.055a24.874,24.874,0,0,1,13.386.14c14.553,4.358,7.956,20.243,7.956,20.243s2.194-1.571,15.983.439,14.421,6.7,14.421,6.7c-101.308-8.92-175.1-38.147-175.1-38.147s16.123-21.553,36.884-15.935" fill="#fff"/>
                  </g>
                </g>
              </g>
            </g>
          </g>
          <g id="Grupo_1198741" data-name="Grupo 1198741">
            <g id="Grupo_1198740" data-name="Grupo 1198740" clip-path="url(#clip-path-7)">
              <rect id="Rectángulo_408596" data-name="Rectángulo 408596" width="286.299" height="236.675" transform="translate(73.479 375.608)" fill="url(#linear-gradient-2)"/>
              <path id="Trazado_918424" data-name="Trazado 918424" d="M102.386,342.936c43.536,3.022,305.73-6.53,318.443,13.2S137.873,418.632,75.71,416.315s26.676-73.379,26.676-73.379" fill="#cfd159"/>
              <path id="Trazado_918425" data-name="Trazado 918425" d="M0,412.58c0,7.924,41.427,14.347,92.531,14.347s92.53-6.423,92.53-14.347-41.427-14.347-92.53-14.347S0,404.656,0,412.58" fill="#684c35"/>
            </g>
          </g>
          <g id="Grupo_1198746" data-name="Grupo 1198746">
            <g id="Grupo_1198745" data-name="Grupo 1198745" clip-path="url(#clip-path-8)">
              <g id="Grupo_1198744" data-name="Grupo 1198744" opacity="0.47">
                <g id="Grupo_1198743" data-name="Grupo 1198743">
                  <g id="Grupo_1198742" data-name="Grupo 1198742" clip-path="url(#clip-path-9)">
                    <path id="Trazado_918427" data-name="Trazado 918427" d="M154.8,400.135c0,10.255-32.058,18.568-71.6,18.568s-71.6-8.313-71.6-18.568,32.059-18.568,71.6-18.568,71.6,8.313,71.6,18.568" fill="#c69d6b"/>
                  </g>
                </g>
              </g>
            </g>
          </g>
          <g id="Grupo_1198748" data-name="Grupo 1198748">
            <g id="Grupo_1198747" data-name="Grupo 1198747" clip-path="url(#clip-path-7)">
              <path id="Trazado_918429" data-name="Trazado 918429" d="M82.707,443.731c0,14.615,35.4,26.462,79.069,26.462s79.07-11.847,79.07-26.462-35.4-26.461-79.07-26.461-79.069,11.847-79.069,26.461" fill="#684c35"/>
              <path id="Trazado_918430" data-name="Trazado 918430" d="M260.318,371.807s-66.2,53.458,159.37,129.828c246.77,83.545,296.288,95.294,296.288,95.294L178.319,634.3S61.4,388.8,230.48,368.824h59.459" fill="#7c5e41"/>
              <path id="Trazado_918431" data-name="Trazado 918431" d="M261.44,376.857s-53.76,48.408,171.816,124.777c246.77,83.545,336.855,155.2,336.855,155.2l-560.648-15.7S59.813,385.655,228.888,365.676s15.159,3.147,15.159,3.147h59.459" fill="#99714a"/>
            </g>
          </g>
          <g id="Grupo_1198750" data-name="Grupo 1198750">
            <g id="Grupo_1198749" data-name="Grupo 1198749" clip-path="url(#clip-path-11)">
              <path id="Trazado_918433" data-name="Trazado 918433" d="M146.743,477.891c0,108.065,102.177,195.669,228.218,195.669s228.218-87.6,228.218-195.669S501,282.222,374.961,282.222s-228.218,87.6-228.218,195.669" fill="#c69d6b"/>
            </g>
          </g>
          <g id="Grupo_1198758" data-name="Grupo 1198758">
            <g id="Grupo_1198757" data-name="Grupo 1198757" clip-path="url(#clip-path-12)">
              <path id="Trazado_918435" data-name="Trazado 918435" d="M431.365,495.248S301.382,532.254,205.63,525.315c0,0,28.679,20.353,24.516,31.918,0,0,285.87-32.843,316.4-29.142s-115.181-32.843-115.181-32.843" fill="#ddad7a"/>
              <path id="Trazado_918436" data-name="Trazado 918436" d="M146.044,422.384s81.914,13.057,134.511.637l30.24,19.872s-106.03,19.6-170.6,8.973h0Z" fill="#ddad7a"/>
              <path id="Trazado_918437" data-name="Trazado 918437" d="M396.068,480.06s-227.767,21.64-255.5,28.1h0l1.363-29.989s143.663-1.033,205.492-22.983Z" fill="#ddad7a"/>
              <path id="Trazado_918438" data-name="Trazado 918438" d="M157.651,403.37s89.865,3.508,108.426,6.452-3.789-16.611-3.789-16.611l-98.476-3.073Z" fill="#ddad7a"/>
              <g id="Grupo_1198753" data-name="Grupo 1198753" opacity="0.5">
                <g id="Grupo_1198752" data-name="Grupo 1198752">
                  <g id="Grupo_1198751" data-name="Grupo 1198751" clip-path="url(#clip-path-13)">
                    <path id="Trazado_918439" data-name="Trazado 918439" d="M221.407,366.7c-29.174,32.989,15.829,216.083,77.527,235.228s-168.4,4.238-168.4-5S137.068,391.2,137.068,391.2s50.372-40.526,61.116-37.069S221.407,366.7,221.407,366.7" fill="#ddad7a"/>
                  </g>
                </g>
              </g>
              <path id="Trazado_918440" data-name="Trazado 918440" d="M165.23,445.968c0,2.906,8.287,5.263,18.509,5.263s18.51-2.357,18.51-5.263-8.287-5.263-18.51-5.263-18.509,2.356-18.509,5.263" fill="#efc59e"/>
              <path id="Trazado_918441" data-name="Trazado 918441" d="M188.076,440.7c0,1.924,5.487,3.484,12.255,3.484s12.254-1.56,12.254-3.484-5.486-3.484-12.254-3.484-12.255,1.56-12.255,3.484" fill="#efc59e"/>
              <g id="Grupo_1198756" data-name="Grupo 1198756" opacity="0.3">
                <g id="Grupo_1198755" data-name="Grupo 1198755">
                  <g id="Grupo_1198754" data-name="Grupo 1198754" clip-path="url(#clip-path-14)">
                    <path id="Trazado_918442" data-name="Trazado 918442" d="M252.207,503.972c0,10.569,30.135,19.138,67.309,19.138s67.309-8.569,67.309-19.138-30.135-19.138-67.309-19.138-67.309,8.568-67.309,19.138" fill="#f7dfcb"/>
                    <path id="Trazado_918443" data-name="Trazado 918443" d="M242.291,489.434c0,2.906,8.287,5.263,18.509,5.263s18.51-2.357,18.51-5.263-8.287-5.263-18.51-5.263-18.509,2.356-18.509,5.263" fill="#f7dfcb"/>
                    <path id="Trazado_918444" data-name="Trazado 918444" d="M253.781,379.514S192.48,486.13,588.172,601.931h0l5.373-67.617-320.41-165.49Z" fill="#f7dfcb"/>
                  </g>
                </g>
              </g>
            </g>
          </g>
          <g id="Grupo_1198760" data-name="Grupo 1198760">
            <g id="Grupo_1198759" data-name="Grupo 1198759" clip-path="url(#clip-path-11)">
              <path id="Trazado_918446" data-name="Trazado 918446" d="M282.017,390.358s-66.082,2.978-106.868,0c0,0,62.117,5.023,106.2,6.475Z" fill="#99714a"/>
              <path id="Trazado_918447" data-name="Trazado 918447" d="M305.888,405.2s-66.082,2.978-106.868,0c0,0,62.117,5.023,106.2,6.475Z" fill="#99714a"/>
              <path id="Trazado_918448" data-name="Trazado 918448" d="M418.448,475.559s-106.441,6.475-160.084,18.688c0,0,115.333-13.666,159.416-12.213Z" fill="#99714a"/>
              <path id="Trazado_918449" data-name="Trazado 918449" d="M538.834,525.085S381.554,534.653,302.29,552.7c0,0,174.489-24.118,239.627-21.972Z" fill="#99714a"/>
              <path id="Trazado_918450" data-name="Trazado 918450" d="M138.4,421.4s86.317,12.538,147.077,0c0,0-43.574,17.917-145.523,3.413" fill="#99714a"/>
              <path id="Trazado_918451" data-name="Trazado 918451" d="M129.356,478.268s112.175.033,172.934-12.5c0,0-83.587,23.224-172.876,14.582" fill="#99714a"/>
              <path id="Trazado_918452" data-name="Trazado 918452" d="M143.446,523.256s162.369.048,250.315-18.1c0,0-120.989,33.617-250.231,21.107" fill="#99714a"/>
              <path id="Trazado_918453" data-name="Trazado 918453" d="M103.8,448.091s88.522,12.36,148.031,3.052c0,0-44.528,14.865-146.477.362" fill="#99714a"/>
            </g>
          </g>
          <g id="Grupo_1198768" data-name="Grupo 1198768">
            <g id="Grupo_1198767" data-name="Grupo 1198767" clip-path="url(#clip-path-2)">
              <path id="Trazado_918455" data-name="Trazado 918455" d="M307.14,409.959a19.562,19.562,0,0,1,10.1-9.239s-8.286-.259-11.391,5.692c0,0,1.835-10.3-5.939-11.747,0,0,2.317,7.866,1.282,11.23a7.364,7.364,0,0,0-6.986-5.434s5.111,7.884,5.534,10.165l1.014-3.379a7.088,7.088,0,0,1,1.689,2.112,23.611,23.611,0,0,1,1.267-3.548s1.351,3.819,1.52,4.148l-.169-.329,2.45-2.3Z" fill="#cfd159"/>
              <g id="Grupo_1198763" data-name="Grupo 1198763" opacity="0.67">
                <g id="Grupo_1198762" data-name="Grupo 1198762">
                  <g id="Grupo_1198761" data-name="Grupo 1198761" clip-path="url(#clip-path-17)">
                    <path id="Trazado_918456" data-name="Trazado 918456" d="M95.323,499.115a19.567,19.567,0,0,0-10.1-9.239s8.286-.259,11.391,5.692c0,0-1.835-10.3,5.939-11.747,0,0-2.317,7.866-1.282,11.23a7.364,7.364,0,0,1,6.986-5.434s-5.112,7.884-5.534,10.165l-1.014-3.379a7.072,7.072,0,0,0-1.689,2.112,23.61,23.61,0,0,0-1.267-3.548s-1.352,3.819-1.521,4.148l.169-.329-2.449-2.3Z" fill="#cfd159"/>
                  </g>
                </g>
              </g>
              <g id="Grupo_1198766" data-name="Grupo 1198766" opacity="0.67">
                <g id="Grupo_1198765" data-name="Grupo 1198765">
                  <g id="Grupo_1198764" data-name="Grupo 1198764" clip-path="url(#clip-path-18)">
                    <path id="Trazado_918457" data-name="Trazado 918457" d="M98.334,552.151a19.562,19.562,0,0,0-10.1-9.239s8.286-.259,11.391,5.692c0,0-1.835-10.3,5.939-11.747,0,0-2.317,7.866-1.282,11.23a7.364,7.364,0,0,1,6.986-5.434s-5.112,7.884-5.534,10.165l-1.014-3.379a7.072,7.072,0,0,0-1.689,2.112A23.611,23.611,0,0,0,101.767,548s-1.352,3.819-1.521,4.148l.169-.329-2.449-2.3Z" fill="#cfd159"/>
                  </g>
                </g>
              </g>
              <path id="Trazado_918458" data-name="Trazado 918458" d="M314.388,455.312c.128-4.871,6.921-7.049,8.716-5.127s-6.537,5.768-6.537,5.768,11.792-.769,10.254,3.2-10.9-1.281-10.9-1.281,5.64,5.9.9,7.69-3.46-7.306-3.46-7.306-6.153,4.613-9.229,1.474,7.562-3.525,7.562-3.525-10.662-5.364-6.1-6.719,8.792,5.822,8.792,5.822" fill="#f9d84b"/>
            </g>
          </g>
          <g id="Grupo_1198770" data-name="Grupo 1198770">
            <g id="Grupo_1198769" data-name="Grupo 1198769" clip-path="url(#clip-path-19)">
              <path id="Trazado_918459" data-name="Trazado 918459" d="M312.618,456.668c0,.572.823,1.035,1.839,1.035s1.838-.463,1.838-1.035-.823-1.035-1.838-1.035-1.839.463-1.839,1.035" fill="#ffeea4"/>
            </g>
          </g>
          <g id="Grupo_1198772" data-name="Grupo 1198772">
            <g id="Grupo_1198771" data-name="Grupo 1198771" clip-path="url(#clip-path-2)">
              <path id="Trazado_918461" data-name="Trazado 918461" d="M336.841,398.841c.144-5.473,7.777-7.921,9.794-5.761s-7.346,6.481-7.346,6.481,13.251-.864,11.522,3.6-12.242-1.441-12.242-1.441,6.337,6.626,1.009,8.642-3.889-8.209-3.889-8.209-6.913,5.184-10.37,1.655,8.5-3.96,8.5-3.96-11.98-6.027-6.854-7.55,9.879,6.542,9.879,6.542" fill="#f9d84b"/>
            </g>
          </g>
          <g id="Grupo_1198774" data-name="Grupo 1198774">
            <g id="Grupo_1198773" data-name="Grupo 1198773" clip-path="url(#clip-path-21)">
              <path id="Trazado_918462" data-name="Trazado 918462" d="M334.853,400.364c0,.642.925,1.163,2.066,1.163s2.066-.521,2.066-1.163-.925-1.163-2.066-1.163-2.066.521-2.066,1.163" fill="#ffeea4"/>
            </g>
          </g>
          <g id="Grupo_1198776" data-name="Grupo 1198776">
            <g id="Grupo_1198775" data-name="Grupo 1198775" clip-path="url(#clip-path-2)">
              <path id="Trazado_918464" data-name="Trazado 918464" d="M303.9,422.777c.128-4.871,6.921-7.049,8.716-5.127s-6.537,5.768-6.537,5.768,11.792-.769,10.254,3.2-10.9-1.281-10.9-1.281,5.64,5.9.9,7.69-3.46-7.306-3.46-7.306-6.153,4.613-9.229,1.474,7.562-3.525,7.562-3.525-10.662-5.364-6.1-6.719,8.792,5.822,8.792,5.822" fill="#f9d84b"/>
            </g>
          </g>
          <g id="Grupo_1198778" data-name="Grupo 1198778">
            <g id="Grupo_1198777" data-name="Grupo 1198777" clip-path="url(#clip-path-23)">
              <path id="Trazado_918465" data-name="Trazado 918465" d="M302.132,424.132c0,.572.823,1.035,1.839,1.035s1.838-.463,1.838-1.035-.823-1.035-1.838-1.035-1.839.463-1.839,1.035" fill="#ffeea4"/>
            </g>
          </g>
        </g>
      </g>
    </g>
    <g id="Enmascarar_grupo_1098821" data-name="Enmascarar grupo 1098821" clip-path="url(#clip-path-24)">
      <g id="Grupo_1198930" data-name="Grupo 1198930" transform="translate(232.627 6214.848)">
        <g id="Grupo_1198929" data-name="Grupo 1198929" clip-path="url(#clip-path-25)">
          <g id="Grupo_1198782" data-name="Grupo 1198782" transform="translate(23.848)">
            <g id="Grupo_1198781" data-name="Grupo 1198781" clip-path="url(#clip-path-26)">
              <path id="Trazado_918467" data-name="Trazado 918467" d="M92.8,49.823s-8.5-14.535-8.051-15.251S92.8,47.239,92.8,47.239Z" transform="translate(-48.304 -9.97)" fill="#fff"/>
              <path id="Trazado_918468" data-name="Trazado 918468" d="M92.474,47.882s-1.487-16-.751-16.544,1.9,14.128,1.9,14.128Z" transform="translate(-50.262 -9.041)" fill="#fff"/>
              <path id="Trazado_918469" data-name="Trazado 918469" d="M119.334,37.466c2.479-7.573,27.818-27.286,34.052-26.219s22.246,4.485,25.449,9.182S180.97,40.5,180.97,40.5Z" transform="translate(-58.29 -3.234)" fill="#e8a246"/>
            </g>
          </g>
          <g id="Grupo_1198787" data-name="Grupo 1198787" transform="translate(84.892 7.972)">
            <g id="Grupo_1198786" data-name="Grupo 1198786" clip-path="url(#clip-path-27)">
              <g id="Grupo_1198785" data-name="Grupo 1198785" transform="translate(-28.185 -3.205)" opacity="0.33">
                <g id="Grupo_1198784" data-name="Grupo 1198784">
                  <g id="Grupo_1198783" data-name="Grupo 1198783" clip-path="url(#clip-path-28)">
                    <path id="Trazado_918470" data-name="Trazado 918470" d="M79.714,15.627c0,4.931,20.682,8.927,46.195,8.927s46.195-4,46.195-8.927S151.422,6.7,125.909,6.7s-46.195,4-46.195,8.927" transform="translate(-79.714 -6.7)" fill="#fff"/>
                  </g>
                </g>
              </g>
            </g>
          </g>
          <g id="Grupo_1198789" data-name="Grupo 1198789" transform="translate(23.848)">
            <g id="Grupo_1198788" data-name="Grupo 1198788" clip-path="url(#clip-path-26)">
              <path id="Trazado_918472" data-name="Trazado 918472" d="M199.012,61.813c0,16.8-28.565,34.353-63.443,34.353S72.706,78.611,72.706,61.813,101.092,26.85,135.971,26.85s63.041,18.165,63.041,34.963" transform="translate(-44.832 -7.749)" fill="#cc8240"/>
            </g>
          </g>
          <g id="Grupo_1198791" data-name="Grupo 1198791" transform="translate(51.722 19.101)">
            <g id="Grupo_1198790" data-name="Grupo 1198790" clip-path="url(#clip-path-30)">
              <path id="Trazado_918473" data-name="Trazado 918473" d="M108.86,25.516S77.891,35.6,70.59,47.389c-5.918,9.56-3,22.05,3,28.743S46.14,49.654,46.14,49.654l18.9-28.611s34.426-6.178,34.629-5.406,9.193,9.879,9.193,9.879" transform="translate(-65.039 -23.594)" fill="#fff"/>
            </g>
          </g>
          <g id="Grupo_1198793" data-name="Grupo 1198793" transform="translate(23.848)">
            <g id="Grupo_1198792" data-name="Grupo 1198792" clip-path="url(#clip-path-26)">
              <path id="Trazado_918475" data-name="Trazado 918475" d="M81.693,330.644C82.608,340.98,55.265,443.851,58.35,446.7s12.333,2.785,15.906-.091S135.347,346.4,135.347,346.4Z" transform="translate(-40.619 -95.43)" fill="#1c3542"/>
              <path id="Trazado_918476" data-name="Trazado 918476" d="M203.169,322.672c-1.041,3.137-5.53,124.981-17.708,118.706s-16.7,8.043-16.715-1.369-6.5-121.1-6.5-121.1Z" transform="translate(-70.676 -92.044)" fill="#1c3542"/>
              <path id="Trazado_918477" data-name="Trazado 918477" d="M180.617,146.378a57.62,57.62,0,0,1,21.463,7.59c22.371,13.109,35.006,38.042,33.246,42.531-2.262,5.771-19.983,23.669-25.711,16.325s-18.11-33.2-19.009-43.408-9.989-23.037-9.989-23.037" transform="translate(-75.977 -42.248)" fill="#b24038"/>
            </g>
          </g>
          <g id="Grupo_1198795" data-name="Grupo 1198795" transform="translate(128.487 104.13)">
            <g id="Grupo_1198794" data-name="Grupo 1198794" clip-path="url(#clip-path-32)">
              <path id="Trazado_918478" data-name="Trazado 918478" d="M201.942,153.284c0,7.647,14.262,13.847,31.855,13.847s31.856-6.2,31.856-13.847S251.39,139.437,233.8,139.437s-31.855,6.2-31.855,13.847" transform="translate(-186.772 -144.375)" fill="#c1504d"/>
            </g>
          </g>
          <g id="Grupo_1198797" data-name="Grupo 1198797" transform="translate(23.848)">
            <g id="Grupo_1198796" data-name="Grupo 1198796" clip-path="url(#clip-path-26)">
              <path id="Trazado_918480" data-name="Trazado 918480" d="M248.089,223.685c5.585-16.122-.563-35.622-12.688-31.294-12.717,4.54-16.894,16.82-17.806,19.185s8.376,12.109,8.376,12.109Z" transform="translate(-86.632 -55.351)" fill="#b24038"/>
              <path id="Trazado_918481" data-name="Trazado 918481" d="M108.686,251.507s-2.139-19.145,5.113-33.96c-5.364-22.165-11.168-38-11.7-44.064-.889-10.08,9.063-27.171,41.123-30.048h2.358c21.659,2.683,33.736,3.5,35.151,26.362.377,6.1-7.416,34.67-10.375,58.882,7.523,13.153,8.278,23.538,8.278,23.538-31.7,5.6-38.49,4.928-69.946-.711" transform="translate(-53.3 -41.398)" fill="#b24038"/>
            </g>
          </g>
          <g id="Grupo_1198802" data-name="Grupo 1198802" transform="translate(72.592 102.037)">
            <g id="Grupo_1198801" data-name="Grupo 1198801" clip-path="url(#clip-path-34)">
              <g id="Grupo_1198800" data-name="Grupo 1198800" transform="translate(14.005 -16.227)" opacity="0.31" style="mix-blend-mode: multiply;isolation: isolate">
                <g id="Grupo_1198799" data-name="Grupo 1198799">
                  <g id="Grupo_1198798" data-name="Grupo 1198798" clip-path="url(#clip-path-35)">
                    <path id="Trazado_918482" data-name="Trazado 918482" d="M176.529,143.375c0,12.565-12.267,22.751-27.4,22.751s-27.4-10.186-27.4-22.751,12.266-22.751,27.4-22.751,27.4,10.186,27.4,22.751" transform="translate(-121.732 -120.624)" fill="#606060"/>
                  </g>
                </g>
              </g>
              <path id="Trazado_918483" data-name="Trazado 918483" d="M171.586,152.261c0,4.861-7.623,8.8-17.026,8.8s-17.027-3.94-17.027-8.8,7.623-8.8,17.027-8.8,17.026,3.94,17.026,8.8" transform="translate(-112.287 -143.443)" fill="#bf7362"/>
            </g>
          </g>
          <g id="Grupo_1198804" data-name="Grupo 1198804" transform="translate(23.848)">
            <g id="Grupo_1198803" data-name="Grupo 1198803" clip-path="url(#clip-path-26)">
              <path id="Trazado_918485" data-name="Trazado 918485" d="M166.476,146.255c-5.6,2.708-11.1,2.822-16.472,0V116.312h16.472Z" transform="translate(-67.142 -33.57)" fill="#bf7362"/>
            </g>
          </g>
          <g id="Grupo_1198806" data-name="Grupo 1198806" transform="translate(106.71 82.742)">
            <g id="Grupo_1198805" data-name="Grupo 1198805" clip-path="url(#clip-path-37)">
              <path id="Trazado_918486" data-name="Trazado 918486" d="M144.7,121.46c0,8.342,5.378,15.105,12.012,15.105s12.012-6.763,12.012-15.105-5.378-15.105-12.012-15.105S144.7,113.118,144.7,121.46" transform="translate(-148.472 -113.438)" fill="#99584d"/>
            </g>
          </g>
          <g id="Grupo_1198808" data-name="Grupo 1198808" transform="translate(23.848)">
            <g id="Grupo_1198807" data-name="Grupo 1198807" clip-path="url(#clip-path-26)">
              <path id="Trazado_918488" data-name="Trazado 918488" d="M108.95,151.647c-35.433,4.773-47.582,40.6-45.32,46.372s18.613,24.094,24.341,16.75,15.768-35.13,16.668-45.341a60.642,60.642,0,0,1,4.312-17.781" transform="translate(-42.137 -43.768)" fill="#b24038"/>
            </g>
          </g>
          <g id="Grupo_1198810" data-name="Grupo 1198810" transform="translate(45.078 107.879)">
            <g id="Grupo_1198809" data-name="Grupo 1198809" clip-path="url(#clip-path-39)">
              <path id="Trazado_918489" data-name="Trazado 918489" d="M38.615,155.7c0,7.647,14.262,13.847,31.855,13.847s31.856-6.2,31.856-13.847S88.063,141.854,70.47,141.854s-31.855,6.2-31.855,13.847" transform="translate(-56.224 -148.821)" fill="#c1504d"/>
            </g>
          </g>
          <g id="Grupo_1198812" data-name="Grupo 1198812" transform="translate(23.848)">
            <g id="Grupo_1198811" data-name="Grupo 1198811" clip-path="url(#clip-path-26)">
              <path id="Trazado_918491" data-name="Trazado 918491" d="M51.74,223.7c-2.887-14.053,4.269-35.622,16.394-31.294,12.718,4.54,16.894,16.82,17.807,19.185S77.564,223.7,77.564,223.7Z" transform="translate(-38.597 -55.371)" fill="#b24038"/>
              <path id="Trazado_918492" data-name="Trazado 918492" d="M156.757,149.7s1.979,23.446-.08,40.5l-49.329.99s-6.784-26.215,1.093-41.428a22.948,22.948,0,0,0-8.581,2.336s-11.679,22.062-.877,67.553c0,0-34.2,50.382-40.876,92.742,4.413,17.464,126.63,22.866,126.628,1.559,0,0-4.742-71.419-23.661-93.683,0,0,16.7-47.73,2.658-68.24Z" transform="translate(-40.618 -43.206)" fill="#294f60"/>
            </g>
          </g>
          <g id="Grupo_1198814" data-name="Grupo 1198814" transform="translate(43.835 106.491)">
            <g id="Grupo_1198813" data-name="Grupo 1198813" clip-path="url(#clip-path-41)">
              <path id="Trazado_918493" data-name="Trazado 918493" d="M210.477,154.884c0,11.976-33.451,21.684-74.716,21.684s-74.715-9.708-74.715-21.684S94.5,133.2,135.762,133.2s74.716,9.708,74.716,21.684" transform="translate(-61.455 -144.936)" fill="#437791"/>
              <path id="Trazado_918494" data-name="Trazado 918494" d="M122.113,207.115s-19.51,1.353-19.171.942,21.477-3.028,21.477-3.028Z" transform="translate(-73.545 -165.667)" fill="#1c3542"/>
              <path id="Trazado_918495" data-name="Trazado 918495" d="M187.245,206.063s-1.108-1.365-.769-1.776,20.937,1.665,20.937,1.665H192.747" transform="translate(-97.637 -165.437)" fill="#1c3542"/>
              <path id="Trazado_918496" data-name="Trazado 918496" d="M213.225,356.2c0,21.6-42.088,39.11-94.006,39.11S25.212,377.8,25.212,356.2s38.221-42.064,93.832-19c47.956,19.892,94.181-2.6,94.181,19" transform="translate(-51.112 -200.882)" fill="#437791"/>
            </g>
          </g>
          <g id="Grupo_1198816" data-name="Grupo 1198816" transform="translate(23.848)">
            <g id="Grupo_1198815" data-name="Grupo 1198815" clip-path="url(#clip-path-26)">
              <path id="Trazado_918498" data-name="Trazado 918498" d="M164.774,259.677s-19.34,8.2-31.976,0l-4.3-32.935-2.18-2.212L124.794,213.4c3.7-9.75,40.461-12.629,48.621,0l-1.064,10.858-2.125,1.752Z" transform="translate(-59.866 -59.159)" fill="#f48b56"/>
            </g>
          </g>
          <g id="Grupo_1198821" data-name="Grupo 1198821" transform="translate(88.776 145.812)">
            <g id="Grupo_1198820" data-name="Grupo 1198820" clip-path="url(#clip-path-43)">
              <g id="Grupo_1198819" data-name="Grupo 1198819" transform="translate(2.59 -17.496)" opacity="0.69">
                <g id="Grupo_1198818" data-name="Grupo 1198818">
                  <g id="Grupo_1198817" data-name="Grupo 1198817" clip-path="url(#clip-path-44)">
                    <path id="Trazado_918499" data-name="Trazado 918499" d="M171.715,234.2c-3.3,28.841-13.3,51.313-21.561,51.313s-17.114-19.973-21.7-52.109c-.339-2.378,4.707-7.8,4.437-10.056-3-25.016-1.2-42.206,17.267-42.955,17.248-.7,19.87,18.255,17.735,43.449-.22,2.6,4.135,7.642,3.825,10.358" transform="translate(-128.435 -180.377)" fill="#aa5a37"/>
                  </g>
                </g>
              </g>
              <path id="Trazado_918500" data-name="Trazado 918500" d="M166.357,233.584s-11.944,7.7-41.73.736h0s21.839,10.933,41.73-.736" transform="translate(-120.925 -212.548)" fill="#aa5a37"/>
              <path id="Trazado_918501" data-name="Trazado 918501" d="M124.794,213.036c0,4.009,10.072,7.394,24.48,7.394s24.14-2.752,24.14-6.761-9.732-7.755-24.14-7.755-24.48,3.114-24.48,7.122" transform="translate(-124.794 -205.243)" fill="#f48b56"/>
            </g>
          </g>
          <g id="Grupo_1198823" data-name="Grupo 1198823" transform="translate(23.848)">
            <g id="Grupo_1198822" data-name="Grupo 1198822" clip-path="url(#clip-path-26)">
              <path id="Trazado_918503" data-name="Trazado 918503" d="M126.454,196.465c1.537-2.092,5.2,0,5.2,0s-1.466-4.934-.149-6.294,4.83,0,4.83,0-3.074-9.619,1.1-12.034,13.174,8.783,13.174,8.783-3.952-11.2,1.537-11.418,9,12.515,9,12.515,2.635-6.587,4.317-6.367,0,8.877,0,8.877,4.686-6.462,8.337-2.291-4.161,16.606-4.161,16.606c0,3.454-9.021,6.253-20.15,6.253s-16.7-2.754-20.149-6.253c0,0-4.423-6.286-2.886-8.378" transform="translate(-60.251 -50.653)" fill="#899945"/>
            </g>
          </g>
          <g id="Grupo_1198825" data-name="Grupo 1198825" transform="translate(89.726 124.846)">
            <g id="Grupo_1198824" data-name="Grupo 1198824" clip-path="url(#clip-path-46)">
              <path id="Trazado_918504" data-name="Trazado 918504" d="M173.52,180.371c0,6.457-13.787,11.692-30.8,11.692s-30.795-5.235-30.795-11.692,13.787-11.692,30.795-11.692,30.8,5.234,30.8,11.692" transform="translate(-122.031 -173.531)" fill="#cfd159"/>
            </g>
          </g>
          <g id="Grupo_1198827" data-name="Grupo 1198827" transform="translate(23.848)">
            <g id="Grupo_1198826" data-name="Grupo 1198826" clip-path="url(#clip-path-26)">
              <path id="Trazado_918506" data-name="Trazado 918506" d="M142.672,205.941c-1.993-3.221,1.495-7.534,3.481-7.048s-1.791,6.536-1.791,6.536,7.339-5.527,8.032-2.288-7.629,3.811-7.629,3.811,6.18,1.429,3.861,4.617-5.364-3.274-5.364-3.274-2.033,5.621-5.372,4.891,3.414-5.515,3.414-5.515-9.218,1.058-6.83-1.768,8.2.037,8.2.037" transform="translate(-62.546 -57.394)" fill="#e27474"/>
            </g>
          </g>
          <g id="Grupo_1198829" data-name="Grupo 1198829" transform="translate(95.382 141.461)">
            <g id="Grupo_1198828" data-name="Grupo 1198828" clip-path="url(#clip-path-48)">
              <path id="Trazado_918507" data-name="Trazado 918507" d="M145.321,210.378c.244.371.976.322,1.636-.111s1-1.085.755-1.457-.977-.322-1.637.111-1,1.086-.754,1.457" transform="translate(-137.301 -201.656)" fill="#ffeea4"/>
            </g>
          </g>
          <g id="Grupo_1198831" data-name="Grupo 1198831" transform="translate(23.848)">
            <g id="Grupo_1198830" data-name="Grupo 1198830" clip-path="url(#clip-path-26)">
              <path id="Trazado_918509" data-name="Trazado 918509" d="M175.407,200.779c3.065-2.225,7.623.935,7.286,2.952s-6.651-1.3-6.651-1.3,6.052,6.911,2.873,7.842-4.362-7.328-4.362-7.328-.97,6.269-4.32,4.191,2.87-5.591,2.87-5.591-5.757-1.613-5.275-5,5.752,3,5.752,3-1.734-9.115,1.26-6.942.567,8.178.567,8.178" transform="translate(-72.278 -55.492)" fill="#e27474"/>
            </g>
          </g>
          <g id="Grupo_1198833" data-name="Grupo 1198833" transform="translate(119.369 136.774)">
            <g id="Grupo_1198832" data-name="Grupo 1198832" clip-path="url(#clip-path-50)">
              <path id="Trazado_918510" data-name="Trazado 918510" d="M176.056,203.559c-.353.27-.249,1,.231,1.624s1.156.915,1.508.645.249-1-.231-1.624-1.155-.915-1.508-.645" transform="translate(-170.122 -195.496)" fill="#ffeea4"/>
            </g>
          </g>
          <g id="Grupo_1198835" data-name="Grupo 1198835" transform="translate(23.848)">
            <g id="Grupo_1198834" data-name="Grupo 1198834" clip-path="url(#clip-path-26)">
              <path id="Trazado_918512" data-name="Trazado 918512" d="M156.095,181.959c3.065-2.224,7.623.935,7.286,2.952s-6.651-1.3-6.651-1.3,6.052,6.911,2.873,7.842-4.362-7.327-4.362-7.327-.97,6.268-4.32,4.191,2.87-5.591,2.87-5.591-5.756-1.613-5.275-5,5.752,3,5.752,3-1.734-9.115,1.26-6.942.567,8.178.567,8.178" transform="translate(-66.704 -50.06)" fill="#ff8d8d"/>
            </g>
          </g>
          <g id="Grupo_1198837" data-name="Grupo 1198837" transform="translate(105.631 123.386)">
            <g id="Grupo_1198836" data-name="Grupo 1198836" clip-path="url(#clip-path-52)">
              <path id="Trazado_918513" data-name="Trazado 918513" d="M156.744,184.739c-.353.27-.249,1,.231,1.624s1.156.915,1.508.645.249-1-.231-1.624-1.155-.915-1.508-.645" transform="translate(-150.81 -176.676)" fill="#ffeea4"/>
            </g>
          </g>
          <g id="Grupo_1198839" data-name="Grupo 1198839" transform="translate(23.848)">
            <g id="Grupo_1198838" data-name="Grupo 1198838" clip-path="url(#clip-path-26)">
              <path id="Trazado_918515" data-name="Trazado 918515" d="M95.916,255.755s4.754-4.738-1.429-11.309c-15.655-16.635-25.115-40.98-41.274-36.08-7.213,2.187-10.24,18.281-8.065,20.269,26.392,24.137,50.768,27.12,50.768,27.12" transform="translate(-36.678 -59.954)" fill="#d8a48b"/>
            </g>
          </g>
          <g id="Grupo_1198844" data-name="Grupo 1198844" transform="translate(31.625 147.772)">
            <g id="Grupo_1198843" data-name="Grupo 1198843" clip-path="url(#clip-path-54)">
              <g id="Grupo_1198842" data-name="Grupo 1198842" transform="translate(-24.39 3.477)" opacity="0.38">
                <g id="Grupo_1198841" data-name="Grupo 1198841" transform="translate(0)">
                  <g id="Grupo_1198840" data-name="Grupo 1198840" clip-path="url(#clip-path-55)">
                    <path id="Trazado_918516" data-name="Trazado 918516" d="M60.807,216.78s-44.337-14.8-50.187,11.373,47.273,37.706,47.273,37.706l26.7-20-3.624-17.422Z" transform="translate(-10.17 -212.613)" fill="#bf7362"/>
                  </g>
                </g>
              </g>
            </g>
          </g>
          <g id="Grupo_1198846" data-name="Grupo 1198846" transform="translate(23.848)">
            <g id="Grupo_1198845" data-name="Grupo 1198845" clip-path="url(#clip-path-26)">
              <path id="Trazado_918518" data-name="Trazado 918518" d="M197.549,255.755s-4.754-4.738,1.429-11.309c15.655-16.635,25.115-40.98,41.274-36.08,7.213,2.187,9.564,15.214,7.39,17.2-26.392,24.138-50.093,30.187-50.093,30.187" transform="translate(-80.36 -59.954)" fill="#d8a48b"/>
            </g>
          </g>
          <g id="Grupo_1198851" data-name="Grupo 1198851" transform="translate(139.29 147.772)">
            <g id="Grupo_1198850" data-name="Grupo 1198850" clip-path="url(#clip-path-57)">
              <g id="Grupo_1198849" data-name="Grupo 1198849" transform="translate(3.175 3.477)" opacity="0.38">
                <g id="Grupo_1198848" data-name="Grupo 1198848">
                  <g id="Grupo_1198847" data-name="Grupo 1198847" clip-path="url(#clip-path-55)">
                    <path id="Trazado_918519" data-name="Trazado 918519" d="M224.05,216.78s44.337-14.8,50.187,11.373-47.273,37.706-47.273,37.706l-26.7-20,3.624-17.422Z" transform="translate(-200.266 -212.613)" fill="#bf7362"/>
                  </g>
                </g>
              </g>
            </g>
          </g>
          <g id="Grupo_1198853" data-name="Grupo 1198853" transform="translate(23.848)">
            <g id="Grupo_1198852" data-name="Grupo 1198852" clip-path="url(#clip-path-26)">
              <path id="Trazado_918521" data-name="Trazado 918521" d="M103.633,245.919s-2.922-6.227-6.3-5c-8.3,3.006-19,17.348-15.179,19.818,19.525,12.61,37.064,9.548,37.064,9.548l-.885-27.246Z" transform="translate(-47.327 -69.487)" fill="#e0b146"/>
            </g>
          </g>
          <g id="Grupo_1198855" data-name="Grupo 1198855" transform="translate(57.872 171.27)">
            <g id="Grupo_1198854" data-name="Grupo 1198854" clip-path="url(#clip-path-60)">
              <path id="Trazado_918522" data-name="Trazado 918522" d="M133.93,263.727c-4.015,9.331-13.082,14.4-20.251,11.31s-9.725-13.15-5.71-22.481,13.082-14.4,20.25-11.31,9.726,13.15,5.711,22.481" transform="translate(-88.485 -240.638)" fill="#cc8240"/>
            </g>
          </g>
          <g id="Grupo_1198857" data-name="Grupo 1198857" transform="translate(23.848)">
            <g id="Grupo_1198856" data-name="Grupo 1198856" clip-path="url(#clip-path-26)">
              <path id="Trazado_918524" data-name="Trazado 918524" d="M117.611,243.735l8.813-8.159,2.37,5.966Z" transform="translate(-57.792 -67.992)" fill="#cc8240"/>
              <path id="Trazado_918525" data-name="Trazado 918525" d="M120.3,245.5s6.685-3.175,10.178-3.175c0,0,9.272.23,10.453,1.79s-.722,4.5-.921,4.621c-1.209.711-6.843,1.081-10.75,1.188a55.489,55.489,0,0,1-7.935,2.7c-2.864-2.637-2.632-5.076-1.027-7.126" transform="translate(-58.229 -69.939)" fill="#e0b146"/>
            </g>
          </g>
          <g id="Grupo_1198859" data-name="Grupo 1198859" transform="translate(84.741 172.382)">
            <g id="Grupo_1198858" data-name="Grupo 1198858" clip-path="url(#clip-path-62)">
              <path id="Trazado_918526" data-name="Trazado 918526" d="M129.187,247.51a5.809,5.809,0,1,1-5.788-6.3,6.063,6.063,0,0,1,5.788,6.3" transform="translate(-118.686 -241.999)" fill="#cc8240"/>
            </g>
          </g>
          <g id="Grupo_1198861" data-name="Grupo 1198861" transform="translate(23.848)">
            <g id="Grupo_1198860" data-name="Grupo 1198860" clip-path="url(#clip-path-26)">
              <path id="Trazado_918528" data-name="Trazado 918528" d="M124.338,255.092s14.483-2.316,16.28-1.036.2,4.483,0,4.643-18.241,3.042-18.241,3.042c-1.407-2.607-.738-4.821,1.961-6.649" transform="translate(-58.961 -73.214)" fill="#e0b146"/>
            </g>
          </g>
          <g id="Grupo_1198863" data-name="Grupo 1198863" transform="translate(86.546 180.456)">
            <g id="Grupo_1198862" data-name="Grupo 1198862" clip-path="url(#clip-path-64)">
              <path id="Trazado_918529" data-name="Trazado 918529" d="M130.645,255.856c0,4.375-2.722,7.923-6.079,7.923s-6.079-3.548-6.079-7.923,2.722-7.923,6.079-7.923,6.079,3.547,6.079,7.923" transform="translate(-120.744 -252.015)" fill="#cc8240"/>
            </g>
          </g>
          <g id="Grupo_1198865" data-name="Grupo 1198865" transform="translate(23.848)">
            <g id="Grupo_1198864" data-name="Grupo 1198864" clip-path="url(#clip-path-26)">
              <path id="Trazado_918531" data-name="Trazado 918531" d="M123.473,264.613s14.27-1.808,16.271-.758,1.5,4.931.256,5.47c-1.477.638-15.575,2.251-15.575,2.251-2.663-2.066-2.781-4.409-.953-6.964" transform="translate(-59.129 -76.059)" fill="#e0b146"/>
            </g>
          </g>
          <g id="Grupo_1198867" data-name="Grupo 1198867" transform="translate(86.96 187.468)">
            <g id="Grupo_1198866" data-name="Grupo 1198866" clip-path="url(#clip-path-66)">
              <path id="Trazado_918532" data-name="Trazado 918532" d="M131.957,267.642a6.433,6.433,0,1,1-6.417-6.88,6.661,6.661,0,0,1,6.417,6.88" transform="translate(-121.341 -262.729)" fill="#cc8240"/>
            </g>
          </g>
          <g id="Grupo_1198869" data-name="Grupo 1198869" transform="translate(23.848)">
            <g id="Grupo_1198868" data-name="Grupo 1198868" clip-path="url(#clip-path-26)">
              <path id="Trazado_918534" data-name="Trazado 918534" d="M124.354,274.237s12.258-1.847,14.25-.984.254,4.857.04,4.989c-3.186,1.975-10.921,1.427-15.027.476Z" transform="translate(-59.526 -78.8)" fill="#e0b146"/>
            </g>
          </g>
          <g id="Grupo_1198871" data-name="Grupo 1198871" transform="translate(87.938 194.223)">
            <g id="Grupo_1198870" data-name="Grupo 1198870" clip-path="url(#clip-path-68)">
              <path id="Trazado_918535" data-name="Trazado 918535" d="M128.878,270.638c0,6.552-3.223,11.862-7.2,11.862s-7.2-5.31-7.2-11.862,3.223-11.862,7.2-11.862,7.2,5.31,7.2,11.862" transform="translate(-120.979 -268.911)" fill="#cc8240"/>
            </g>
          </g>
          <g id="Grupo_1198873" data-name="Grupo 1198873" transform="translate(23.848)">
            <g id="Grupo_1198872" data-name="Grupo 1198872" clip-path="url(#clip-path-26)">
              <path id="Trazado_918537" data-name="Trazado 918537" d="M198.469,245.919s2.922-6.227,6.3-5c8.3,3.006,19,17.348,15.179,19.818-19.525,12.61-37.064,9.548-37.064,9.548l.885-27.246Z" transform="translate(-76.633 -69.487)" fill="#e0b146"/>
            </g>
          </g>
          <g id="Grupo_1198875" data-name="Grupo 1198875" transform="translate(130.103 171.27)">
            <g id="Grupo_1198874" data-name="Grupo 1198874" clip-path="url(#clip-path-70)">
              <path id="Trazado_918538" data-name="Trazado 918538" d="M171.458,263.727c4.015,9.331,13.082,14.4,20.251,11.31s9.725-13.15,5.71-22.481-13.082-14.4-20.25-11.31-9.726,13.15-5.711,22.481" transform="translate(-179.041 -240.638)" fill="#cc8240"/>
            </g>
          </g>
          <g id="Grupo_1198877" data-name="Grupo 1198877" transform="translate(23.848)">
            <g id="Grupo_1198876" data-name="Grupo 1198876" clip-path="url(#clip-path-26)">
              <path id="Trazado_918540" data-name="Trazado 918540" d="M195.921,244.18l-8.6-7.062-1.088,6.321Z" transform="translate(-77.598 -68.437)" fill="#cc8240"/>
              <path id="Trazado_918541" data-name="Trazado 918541" d="M188.16,245.5s-6.685-3.175-10.178-3.175c0,0-9.272.23-10.452,1.79s.722,4.5.92,4.621c1.21.711,6.843,1.081,10.75,1.188a55.484,55.484,0,0,0,7.935,2.7c2.863-2.637,2.631-5.076,1.026-7.126" transform="translate(-72.089 -69.939)" fill="#e0b146"/>
            </g>
          </g>
          <g id="Grupo_1198879" data-name="Grupo 1198879" transform="translate(118.904 172.382)">
            <g id="Grupo_1198878" data-name="Grupo 1198878" clip-path="url(#clip-path-72)">
              <path id="Trazado_918542" data-name="Trazado 918542" d="M183.579,247.51a5.809,5.809,0,1,0,5.788-6.3,6.063,6.063,0,0,0-5.788,6.3" transform="translate(-171.889 -241.999)" fill="#cc8240"/>
            </g>
          </g>
          <g id="Grupo_1198881" data-name="Grupo 1198881" transform="translate(23.848)">
            <g id="Grupo_1198880" data-name="Grupo 1198880" clip-path="url(#clip-path-26)">
              <path id="Trazado_918544" data-name="Trazado 918544" d="M185.09,255.092s-14.484-2.316-16.28-1.036-.2,4.483,0,4.643,18.241,3.042,18.241,3.042c1.407-2.607.738-4.821-1.961-6.649" transform="translate(-72.326 -73.214)" fill="#e0b146"/>
            </g>
          </g>
          <g id="Grupo_1198883" data-name="Grupo 1198883" transform="translate(119.487 180.456)">
            <g id="Grupo_1198882" data-name="Grupo 1198882" clip-path="url(#clip-path-74)">
              <path id="Trazado_918545" data-name="Trazado 918545" d="M181.885,255.856c0,4.375,2.722,7.923,6.079,7.923s6.079-3.548,6.079-7.923-2.722-7.923-6.079-7.923-6.079,3.547-6.079,7.923" transform="translate(-171.983 -252.015)" fill="#cc8240"/>
            </g>
          </g>
          <g id="Grupo_1198885" data-name="Grupo 1198885" transform="translate(23.848)">
            <g id="Grupo_1198884" data-name="Grupo 1198884" clip-path="url(#clip-path-26)">
              <path id="Trazado_918547" data-name="Trazado 918547" d="M186.341,264.613s-14.27-1.808-16.271-.758-1.5,4.931-.256,5.47c1.477.638,15.575,2.251,15.575,2.251,2.663-2.066,2.781-4.409.953-6.964" transform="translate(-72.544 -76.059)" fill="#e0b146"/>
            </g>
          </g>
          <g id="Grupo_1198887" data-name="Grupo 1198887" transform="translate(120.025 187.468)">
            <g id="Grupo_1198886" data-name="Grupo 1198886" clip-path="url(#clip-path-76)">
              <path id="Trazado_918548" data-name="Trazado 918548" d="M180.3,267.642a6.433,6.433,0,1,0,6.417-6.88,6.661,6.661,0,0,0-6.417,6.88" transform="translate(-172.063 -262.729)" fill="#cc8240"/>
            </g>
          </g>
          <g id="Grupo_1198889" data-name="Grupo 1198889" transform="translate(23.848)">
            <g id="Grupo_1198888" data-name="Grupo 1198888" clip-path="url(#clip-path-26)">
              <path id="Trazado_918550" data-name="Trazado 918550" d="M186.645,274.237s-12.258-1.847-14.25-.984-.254,4.857-.04,4.989c3.186,1.975,10.92,1.427,15.027.476Z" transform="translate(-73.331 -78.8)" fill="#e0b146"/>
            </g>
          </g>
          <g id="Grupo_1198891" data-name="Grupo 1198891" transform="translate(121.966 194.223)">
            <g id="Grupo_1198890" data-name="Grupo 1198890" clip-path="url(#clip-path-78)">
              <path id="Trazado_918551" data-name="Trazado 918551" d="M182.743,270.638c0,6.552,3.223,11.862,7.2,11.862s7.2-5.31,7.2-11.862-3.223-11.862-7.2-11.862-7.2,5.31-7.2,11.862" transform="translate(-174.709 -268.911)" fill="#cc8240"/>
            </g>
          </g>
          <g id="Grupo_1198893" data-name="Grupo 1198893" transform="translate(23.848)">
            <g id="Grupo_1198892" data-name="Grupo 1198892" clip-path="url(#clip-path-26)">
              <path id="Trazado_918553" data-name="Trazado 918553" d="M169.183,58.523c16.59,17.252,9.466,43.714,14.508,52.617a79.229,79.229,0,0,1-14.508,2.744c-6.5.585-13.9.286-19.305-2.744,0,0-13.653,9.016-24.725,4.412-8.587-18.381,2.666-31.536,3-51.882Z" transform="translate(-59.039 -16.891)" fill="#72382a"/>
              <path id="Trazado_918554" data-name="Trazado 918554" d="M127.112,89.543c-.834-4.746-9.016-10.715-11.854-8.878s1.336,20.052,11.854,21.889,0-13.011,0-13.011" transform="translate(-56.863 -23.183)" fill="#bf7362"/>
            </g>
          </g>
          <g id="Grupo_1198895" data-name="Grupo 1198895" transform="translate(81.375 57.14)">
            <g id="Grupo_1198894" data-name="Grupo 1198894" clip-path="url(#clip-path-80)">
              <path id="Trazado_918555" data-name="Trazado 918555" d="M124.143,86.9s-5.643-4.09-6.936-3.189,4.362,17.252,8.563,17.557c0,0-3.231-6.163-4.12-8.632s2.218-1.071,2.828-1.655-.334-4.081-.334-4.081" transform="translate(-115.149 -81.263)" fill="#99584d"/>
            </g>
          </g>
          <g id="Grupo_1198897" data-name="Grupo 1198897" transform="translate(23.848)">
            <g id="Grupo_1198896" data-name="Grupo 1198896" clip-path="url(#clip-path-26)">
              <path id="Trazado_918557" data-name="Trazado 918557" d="M189.22,89.543c.834-4.746,9.016-10.715,11.854-8.878s-1.336,20.052-11.854,21.889,0-13.011,0-13.011" transform="translate(-77.111 -23.183)" fill="#bf7362"/>
            </g>
          </g>
          <g id="Grupo_1198899" data-name="Grupo 1198899" transform="translate(131.282 57.14)">
            <g id="Grupo_1198898" data-name="Grupo 1198898" clip-path="url(#clip-path-82)">
              <path id="Trazado_918558" data-name="Trazado 918558" d="M195.7,86.9s5.644-4.09,6.937-3.189-4.363,17.252-8.564,17.557c0,0,3.232-6.163,4.12-8.632s-2.218-1.071-2.828-1.655.334-4.081.334-4.081" transform="translate(-187.294 -81.263)" fill="#99584d"/>
            </g>
          </g>
          <g id="Grupo_1198901" data-name="Grupo 1198901" transform="translate(23.848)">
            <g id="Grupo_1198900" data-name="Grupo 1198900" clip-path="url(#clip-path-26)">
              <path id="Trazado_918560" data-name="Trazado 918560" d="M151.785,48.685c22.508.506,24.594,19.128,24.427,31.858-.161,12.313-9.187,35.563-24.8,35.563s-23.641-22.849-24.642-35.128,2.509-31.788,25.018-32.294" transform="translate(-60.392 -14.051)" fill="#ce906e"/>
            </g>
          </g>
          <g id="Grupo_1198903" data-name="Grupo 1198903" transform="translate(90.073 34.634)">
            <g id="Grupo_1198902" data-name="Grupo 1198902" clip-path="url(#clip-path-84)">
              <path id="Trazado_918561" data-name="Trazado 918561" d="M173.54,109.444c.283,1.007,2.74,1.3,5.487.647s4.745-1.992,4.462-3-2.74-1.3-5.487-.647-4.745,1.991-4.462,3" transform="translate(-140.152 -65.256)" fill="#bf7362"/>
              <path id="Trazado_918562" data-name="Trazado 918562" d="M145.735,109.444c-.283,1.007-2.74,1.3-5.487.647s-4.745-1.992-4.462-3,2.74-1.3,5.487-.647,4.745,1.991,4.462,3" transform="translate(-129.256 -65.256)" fill="#bf7362"/>
              <path id="Trazado_918563" data-name="Trazado 918563" d="M163.367,107.009c0,1.116-1.32,2.021-2.947,2.021s-2.947-.9-2.947-2.021,1.214-4.31,2.841-4.31,3.053,3.194,3.053,4.31" transform="translate(-135.523 -64.275)" fill="#d8a48b"/>
              <path id="Trazado_918564" data-name="Trazado 918564" d="M182.517,87.189c0,4.073-3.531,8.959-7.837,8.959a7.385,7.385,0,1,1,0-14.748c4.305,0,7.837,1.716,7.837,5.788" transform="translate(-138.239 -58.127)" fill="#bf7362"/>
              <path id="Trazado_918565" data-name="Trazado 918565" d="M148.476,88.256a7.593,7.593,0,0,1-7.8,7.373c-4.305,0-7.346-5.438-7.346-9.51s3.041-5.236,7.346-5.236a7.593,7.593,0,0,1,7.8,7.373" transform="translate(-128.556 -57.978)" fill="#bf7362"/>
              <path id="Trazado_918566" data-name="Trazado 918566" d="M116.958,96.059s9.958,25.993,18.935,32.691S115.179,141.9,115.179,141.9L92.127,125.3Z" transform="translate(-116.663 -62.358)" fill="#d8a48b"/>
              <path id="Trazado_918567" data-name="Trazado 918567" d="M185.73,104.561s-11.937,22.7-20.914,29.394,20.714,13.152,20.714,13.152l23.052-16.6Z" transform="translate(-137.154 -64.812)" fill="#d8a48b"/>
            </g>
          </g>
          <g id="Grupo_1198905" data-name="Grupo 1198905" transform="translate(23.848)">
            <g id="Grupo_1198904" data-name="Grupo 1198904" clip-path="url(#clip-path-26)">
              <path id="Trazado_918569" data-name="Trazado 918569" d="M164.061,108.441a12.239,12.239,0,0,1-8.682,0s2.254,3.138,4.341,3.138,4.341-3.138,4.341-3.138" transform="translate(-68.693 -31.298)" fill="#bf7362"/>
              <path id="Trazado_918570" data-name="Trazado 918570" d="M166.41,115.622a55.5,55.5,0,0,1-16.633,2.1s1.786,7.309,8.643,6.495,7.991-8.59,7.991-8.59" transform="translate(-67.076 -33.371)" fill="#dce7ea"/>
            </g>
          </g>
          <g id="Grupo_1198910" data-name="Grupo 1198910" transform="translate(106.548 82.251)">
            <g id="Grupo_1198909" data-name="Grupo 1198909" clip-path="url(#clip-path-86)">
              <g id="Grupo_1198908" data-name="Grupo 1198908" transform="translate(-3.681 2.168)" opacity="0.51">
                <g id="Grupo_1198907" data-name="Grupo 1198907">
                  <g id="Grupo_1198906" data-name="Grupo 1198906" clip-path="url(#clip-path-87)">
                    <path id="Trazado_918571" data-name="Trazado 918571" d="M144.6,123.955c0,2.919,7.279,5.284,16.258,5.284s16.257-2.365,16.257-5.284-7.279-5.285-16.257-5.285-16.258,2.366-16.258,5.285" transform="translate(-144.602 -118.67)" fill="#fff"/>
                  </g>
                </g>
              </g>
              <path id="Trazado_918572" data-name="Trazado 918572" d="M149.163,116.62c.176.161,1.875,2.848,1.875,2.848l-1.438,3.386Z" transform="translate(-149.6 -115.91)" fill="#9b594e"/>
              <path id="Trazado_918573" data-name="Trazado 918573" d="M172.895,113.356c-.176.161-1.975,3.6-1.975,3.6l1.538,2.631Z" transform="translate(-155.879 -114.968)" fill="#9b594e"/>
            </g>
          </g>
          <g id="Grupo_1198912" data-name="Grupo 1198912" transform="translate(23.848)">
            <g id="Grupo_1198911" data-name="Grupo 1198911" clip-path="url(#clip-path-26)">
              <path id="Trazado_918575" data-name="Trazado 918575" d="M182.158,91.935a9.688,9.688,0,0,0-8.976-2.45c-6.226,1.463-6.3,8.239-6.3,8.239s11.4,6.143,15.275-5.789" transform="translate(-72.013 -25.749)" fill="#dce7ea"/>
            </g>
          </g>
          <g id="Grupo_1198914" data-name="Grupo 1198914" transform="translate(118.717 63.464)">
            <g id="Grupo_1198913" data-name="Grupo 1198913" clip-path="url(#clip-path-89)">
              <path id="Trazado_918576" data-name="Trazado 918576" d="M182.39,93.864S169.5,93.951,164.8,99.9s8.833,4.918,8.833,4.918l8.756-5.9Z" transform="translate(-165.996 -90.555)" fill="#fff"/>
              <path id="Trazado_918577" data-name="Trazado 918577" d="M168.366,93.735a4.761,4.761,0,1,0,4.76-4.834,4.8,4.8,0,0,0-4.76,4.834" transform="translate(-167.311 -89.123)" fill="#437791"/>
            </g>
          </g>
          <g id="Grupo_1198916" data-name="Grupo 1198916" transform="translate(119.772 63.533)">
            <g id="Grupo_1198915" data-name="Grupo 1198915" clip-path="url(#clip-path-90)">
              <path id="Trazado_918579" data-name="Trazado 918579" d="M161.468,99.033c0,1.8,3.777,3.253,8.435,3.253s8.436-1.456,8.436-3.253-3.777-3.254-8.436-3.254-8.435,1.457-8.435,3.254" transform="translate(-166.375 -91.176)" fill="#5eadcc"/>
            </g>
          </g>
          <g id="Grupo_1198918" data-name="Grupo 1198918" transform="translate(118.717 63.464)">
            <g id="Grupo_1198917" data-name="Grupo 1198917" clip-path="url(#clip-path-89)">
              <path id="Trazado_918581" data-name="Trazado 918581" d="M170.366,94.321a3.337,3.337,0,1,0,3.337-3.389,3.363,3.363,0,0,0-3.337,3.389" transform="translate(-167.888 -89.709)" fill="#21230b"/>
            </g>
          </g>
          <g id="Grupo_1198920" data-name="Grupo 1198920" transform="translate(23.848)">
            <g id="Grupo_1198919" data-name="Grupo 1198919" clip-path="url(#clip-path-26)">
              <path id="Trazado_918583" data-name="Trazado 918583" d="M184.442,91.164a3.768,3.768,0,0,1-3.74-.1,11.88,11.88,0,0,0-7.838-.941A7.178,7.178,0,0,0,167.456,95s1.006-6.09,7.23-6.728c3.277-.335,5.353-.12,6.752,1.006a19.737,19.737,0,0,0,3,1.888" transform="translate(-72.179 -25.435)" fill="#21230b"/>
              <path id="Trazado_918584" data-name="Trazado 918584" d="M175.241,96.91c0,.47,1.414.851,3.158.851s3.157-.381,3.157-.851-1.413-.851-3.157-.851-3.158.381-3.158.851" transform="translate(-74.426 -27.725)" fill="#fff"/>
              <path id="Trazado_918585" data-name="Trazado 918585" d="M133.907,91.935a9.688,9.688,0,0,1,8.976-2.45c6.226,1.463,6.3,8.239,6.3,8.239s-11.4,6.143-15.275-5.789" transform="translate(-62.496 -25.749)" fill="#dce7ea"/>
            </g>
          </g>
          <g id="Grupo_1198922" data-name="Grupo 1198922" transform="translate(95.259 63.464)">
            <g id="Grupo_1198921" data-name="Grupo 1198921" clip-path="url(#clip-path-93)">
              <path id="Trazado_918586" data-name="Trazado 918586" d="M132.335,93.864s12.89.087,17.589,6.039-8.833,4.918-8.833,4.918l-8.756-5.9Z" transform="translate(-133.453 -90.555)" fill="#fff"/>
              <path id="Trazado_918587" data-name="Trazado 918587" d="M150.034,93.735a4.761,4.761,0,1,1-4.76-4.834,4.8,4.8,0,0,1,4.76,4.834" transform="translate(-135.814 -89.123)" fill="#437791"/>
            </g>
          </g>
          <g id="Grupo_1198924" data-name="Grupo 1198924" transform="translate(99.959 63.533)">
            <g id="Grupo_1198923" data-name="Grupo 1198923" clip-path="url(#clip-path-94)">
              <path id="Trazado_918589" data-name="Trazado 918589" d="M153.95,99.033c0,1.8-3.777,3.253-8.435,3.253s-8.436-1.456-8.436-3.253,3.777-3.254,8.436-3.254,8.435,1.457,8.435,3.254" transform="translate(-139.523 -91.176)" fill="#5eadcc"/>
            </g>
          </g>
          <g id="Grupo_1198926" data-name="Grupo 1198926" transform="translate(95.259 63.464)">
            <g id="Grupo_1198925" data-name="Grupo 1198925" clip-path="url(#clip-path-93)">
              <path id="Trazado_918591" data-name="Trazado 918591" d="M149.188,94.321a3.337,3.337,0,1,1-3.337-3.389,3.363,3.363,0,0,1,3.337,3.389" transform="translate(-136.391 -89.709)" fill="#21230b"/>
            </g>
          </g>
          <g id="Grupo_1198928" data-name="Grupo 1198928" transform="translate(23.848)">
            <g id="Grupo_1198927" data-name="Grupo 1198927" clip-path="url(#clip-path-26)">
              <path id="Trazado_918593" data-name="Trazado 918593" d="M129.934,90.458s1.5,1.68,3.025,1.109c2.547-.951,6.466-2.1,9.261-1.443A7.177,7.177,0,0,1,147.628,95s-1.006-6.09-7.23-6.728c-2.983-.306-5.364-.181-7.076.933a7.211,7.211,0,0,1-3.388,1.253" transform="translate(-61.349 -25.435)" fill="#21230b"/>
              <path id="Trazado_918594" data-name="Trazado 918594" d="M144.46,96.91c0,.47-1.414.851-3.158.851s-3.157-.381-3.157-.851,1.414-.851,3.157-.851,3.158.381,3.158.851" transform="translate(-63.719 -27.725)" fill="#fff"/>
              <path id="Trazado_918595" data-name="Trazado 918595" d="M180.778,83.686s-8.66-1.924-14.389,1.81c0,0-1.78-1.1-1.039-2.306s10.491-3.579,15.428.5" transform="translate(-71.519 -23.494)" fill="#21230b"/>
              <path id="Trazado_918596" data-name="Trazado 918596" d="M132.6,83.167s8.66-1.924,14.39,1.81c0,0,1.779-1.1,1.039-2.306s-10.491-3.579-15.428.5" transform="translate(-62.119 -23.344)" fill="#21230b"/>
              <path id="Trazado_918597" data-name="Trazado 918597" d="M134.773,56.954a85.087,85.087,0,0,0,16.968,2.268c7.714,0,17.237-2.268,17.237-2.268L175.9,83.517s6.5-35.856-24.079-35.856S126.868,82.09,126.868,82.09s.537-19.013,7.9-25.136" transform="translate(-60.347 -13.756)" fill="#72382a"/>
              <path id="Trazado_918598" data-name="Trazado 918598" d="M138.145,59.675s7.461,6.407,17.392,7.065L154.5,63.951s21.186,14.584,25.051,13.19c-1.543-7.53-4.02-13.943-7.647-18.982L157.37,57.086Z" transform="translate(-63.719 -16.476)" fill="#72382a"/>
            </g>
          </g>
        </g>
      </g>
    </g>
  </g>
</svg>
