<svg xmlns="http://www.w3.org/2000/svg" xmlns:xlink="http://www.w3.org/1999/xlink" width="118" height="118" viewBox="0 0 118 118">
  <defs>
    <filter id="Trazado_896985" x="0" y="0" width="118" height="118" filterUnits="userSpaceOnUse">
      <feOffset dy="3" input="SourceAlpha"/>
      <feGaussianBlur stdDeviation="3" result="blur"/>
      <feFlood flood-opacity="0.161"/>
      <feComposite operator="in" in2="blur"/>
      <feComposite in="SourceGraphic"/>
    </filter>
  </defs>
  <g id="Grupo_1199151" data-name="Grupo 1199151" transform="translate(-1161.051 -8275.206)">
    <g id="Grupo_1198166" data-name="Grupo 1198166" transform="translate(835.16 4429.206)">
      <g id="Grupo_1111318" data-name="Grupo 1111318" transform="translate(334.891 3852)">
        <g id="Grupo_1109826" data-name="Grupo 1109826" transform="translate(0)">
          <g id="Grupo_1098742" data-name="Grupo 1098742" transform="translate(0 0)">
            <g transform="matrix(1, 0, 0, 1, -9, -6)" filter="url(#Trazado_896985)">
              <g id="Trazado_896985-2" data-name="Trazado 896985" transform="translate(9 6)" fill="#d6edba" opacity="0.859">
                <path d="M 49.99993515014648 99 C 43.38454818725586 99 36.96757507324219 97.70458221435547 30.92725563049316 95.14974212646484 C 25.09249496459961 92.68184661865234 19.85213470458984 89.14863586425781 15.3517484664917 84.64824676513672 C 10.85136222839355 80.14786529541016 7.318148612976074 74.90750122070312 4.850255012512207 69.07274627685547 C 2.295415163040161 63.03242111206055 1.000001788139343 56.61544799804688 1.000001788139343 50.00006103515625 C 1.000001788139343 43.38454437255859 2.295415163040161 36.96757125854492 4.850255012512207 30.92724990844727 C 7.318148612976074 25.09248924255371 10.85136222839355 19.85212898254395 15.3517484664917 15.3517427444458 C 19.85213470458984 10.85135650634766 25.09249496459961 7.318142890930176 30.92725563049316 4.850249290466309 C 36.96757507324219 2.295409440994263 43.38454818725586 0.9999961853027344 49.99993515014648 0.9999961853027344 C 56.61532211303711 0.9999961853027344 63.03229522705078 2.295409440994263 69.07261657714844 4.850249290466309 C 74.90737152099609 7.318142890930176 80.14773559570312 10.85135650634766 84.64812469482422 15.3517427444458 C 89.14850616455078 19.85212898254395 92.68172454833984 25.09248924255371 95.14961242675781 30.92724990844727 C 97.70445251464844 36.96757125854492 98.99987030029297 43.38454437255859 98.99987030029297 49.99993133544922 C 98.99987030029297 56.61544799804688 97.70445251464844 63.03242111206055 95.14961242675781 69.07274627685547 C 92.68172454833984 74.90750122070312 89.14850616455078 80.14786529541016 84.64812469482422 84.64824676513672 C 80.14773559570312 89.14863586425781 74.90737152099609 92.68184661865234 69.07261657714844 95.14974212646484 C 63.03229522705078 97.70458221435547 56.61532211303711 99 49.99993515014648 99 Z" stroke="none"/>
                <path d="M 49.99993515014648 1.999992370605469 C 43.51910781860352 1.999992370605469 37.23319244384766 3.268821716308594 31.31680297851562 5.771255493164062 C 25.60124969482422 8.188728332519531 20.46773529052734 11.64997863769531 16.05885314941406 16.05885314941406 C 11.64997863769531 20.46772766113281 8.188720703125 25.60124969482422 5.771247863769531 31.31681060791016 C 3.268821716308594 37.23318099975586 1.999992370605469 43.51909637451172 1.999992370605469 50.00006866455078 C 1.999992370605469 56.48089599609375 3.268821716308594 62.76681137084961 5.771247863769531 68.68319702148438 C 8.188720703125 74.39875793457031 11.64997863769531 79.53227233886719 16.05885314941406 83.94113922119141 C 20.46773529052734 88.35002136230469 25.60124969482422 91.81126403808594 31.31680297851562 94.22873687744141 C 37.23319244384766 96.73117065429688 43.51910781860352 98 49.99993515014648 98 C 56.48076248168945 98 62.76667785644531 96.73117065429688 68.68305969238281 94.22873687744141 C 74.39862060546875 91.81126403808594 79.53213500976562 88.35002136230469 83.94100952148438 83.94113922119141 C 88.34989166259766 79.53227233886719 91.81113433837891 74.39875793457031 94.22860717773438 68.68319702148438 C 96.73103332519531 62.76681137084961 97.99986267089844 56.48089599609375 97.99986267089844 49.99992370605469 C 97.99986267089844 43.51909637451172 96.73103332519531 37.23318099975586 94.22860717773438 31.31681060791016 C 91.81113433837891 25.60124969482422 88.34989166259766 20.46772766113281 83.94100952148438 16.05885314941406 C 79.53213500976562 11.64997863769531 74.39862060546875 8.188728332519531 68.68305969238281 5.771255493164062 C 62.76667785644531 3.268821716308594 56.48076248168945 1.999992370605469 49.99993515014648 1.999992370605469 M 49.99993515014648 -7.62939453125e-06 C 77.6141357421875 -7.62939453125e-06 99.99986267089844 22.3857421875 99.99986267089844 49.99992370605469 L 99.99986267089844 50.00006866455078 C 99.99986267089844 77.61426544189453 77.6141357421875 100 49.99993515014648 100 C 22.38573455810547 100 -7.62939453125e-06 77.61426544189453 -7.62939453125e-06 50.00006866455078 L -7.62939453125e-06 49.99992370605469 C -7.62939453125e-06 22.3857421875 22.38573455810547 -7.62939453125e-06 49.99993515014648 -7.62939453125e-06 Z" stroke="none" fill="#fff"/>
              </g>
            </g>
            <g id="Rectángulo_400907" data-name="Rectángulo 400907" transform="translate(0)" fill="none" stroke="#fff" stroke-width="2">
              <rect width="100" height="100" rx="50" stroke="none"/>
              <rect x="1" y="1" width="98" height="98" rx="49" fill="none"/>
            </g>
          </g>
        </g>
      </g>
    </g>
    <g id="location_2139289" transform="translate(1184.305 8297.673)">
      <path id="Trazado_918875" data-name="Trazado 918875" d="M8,176l9.062,9.062v6.8L8,182.8Z" transform="translate(-6.868 -151.032)" fill="#ddf216"/>
      <path id="Trazado_918876" data-name="Trazado 918876" d="M78.227,81.062v6.8L68.033,98.052H58.971l-7.929,7.929H40.848l-5.663-5.663h-6.8l-4.531-4.531h-6.8L8,86.725v-6.8H22.725L30.654,72H31.1a11.791,11.791,0,0,0-.442,3.217,25.312,25.312,0,0,0,7.566,18.01l4.893,4.825,4.893-4.825a25.273,25.273,0,0,0,7.532-16.7H63.5l4.531,4.531Z" transform="translate(-6.868 -61.757)" fill="#acdd12"/>
      <path id="Trazado_918877" data-name="Trazado 918877" d="M192.919,20.278c0,.442-.011.884-.034,1.314a25.273,25.273,0,0,1-7.532,16.7l-4.893,4.825-4.893-4.825A25.312,25.312,0,0,1,168,20.278a11.79,11.79,0,0,1,.442-3.217,12.1,12.1,0,0,1,3.205-5.46,12.581,12.581,0,0,1,17.625,0,12.249,12.249,0,0,1,3.647,8.676Z" transform="translate(-144.214 -6.819)" fill="#e22526"/>
      <circle id="Elipse_12147" data-name="Elipse 12147" cx="6.796" cy="6.796" r="6.796" transform="translate(29.45 6.845)" fill="#ffec00"/>
      <path id="Trazado_918878" data-name="Trazado 918878" d="M254.725,20.278c0,.442-.011.884-.034,1.314a25.273,25.273,0,0,1-7.532,16.7l-4.893,4.825L240,40.879l2.628-2.591a25.274,25.274,0,0,0,7.532-16.7c.023-.43.034-.872.034-1.314a12.249,12.249,0,0,0-3.647-8.676A12.452,12.452,0,0,0,240,8.2a12.669,12.669,0,0,1,2.265-.2,12.5,12.5,0,0,1,8.812,3.6,12.248,12.248,0,0,1,3.647,8.676Z" transform="translate(-206.019 -6.819)" fill="#bc131c"/>
      <path id="Trazado_918879" data-name="Trazado 918879" d="M230.709,56.419a6.8,6.8,0,0,1-12.089,4.263,6.8,6.8,0,0,0,7.187-10.792A6.8,6.8,0,0,1,230.709,56.419Z" transform="translate(-187.667 -42.778)" fill="#d6c103"/>
      <path id="Trazado_918880" data-name="Trazado 918880" d="M72,240h6.8v6.8H72Z" transform="translate(-61.806 -205.971)" fill="#f4faaf"/>
      <path id="Trazado_918881" data-name="Trazado 918881" d="M124.531,244.531v6.8L120,246.8V240Z" transform="translate(-103.01 -205.971)" fill="#ddf216"/>
      <path id="Trazado_918882" data-name="Trazado 918882" d="M152,272h6.8v6.8H152Z" transform="translate(-130.479 -233.44)" fill="#f4faaf"/>
      <path id="Trazado_918883" data-name="Trazado 918883" d="M200,272l5.663,5.663v6.8L200,278.8Z" transform="translate(-171.683 -233.44)" fill="#ddf216"/>
      <path id="Trazado_918884" data-name="Trazado 918884" d="M240,312h10.194v6.8H240Z" transform="translate(-206.019 -267.776)" fill="#f4faaf"/>
      <path id="Trazado_918885" data-name="Trazado 918885" d="M319.929,256v6.8L312,270.725v-6.8Z" transform="translate(-267.825 -219.705)" fill="#ddf216"/>
      <path id="Trazado_918886" data-name="Trazado 918886" d="M224.424,392H214.8l-4.531,4.531H208v11.327h18.123l7.592-2.847a2.265,2.265,0,0,0,1.47-2.121V398.4a2.265,2.265,0,0,0-2.888-2.178l-5.041,1.44h-2.832a2.832,2.832,0,0,0,2.832-2.832h0A2.832,2.832,0,0,0,224.424,392Z" transform="translate(-178.55 -336.449)" fill="#fac8b2"/>
      <path id="Trazado_918887" data-name="Trazado 918887" d="M176,424h4.531v11.327H176Z" transform="translate(-151.081 -363.919)" fill="#aedef8"/>
      <path id="Trazado_918888" data-name="Trazado 918888" d="M112,424h9.062v11.327H112Z" transform="translate(-96.143 -363.919)" fill="#00a8e7"/>
      <path id="Trazado_918889" data-name="Trazado 918889" d="M273.133,428.531a1.133,1.133,0,0,1,0-2.265,1.134,1.134,0,0,0,1.133-1.133,1.133,1.133,0,0,1,2.265,0A3.4,3.4,0,0,1,273.133,428.531Z" transform="translate(-233.489 -363.919)" fill="#eaaa94"/>
      <path id="Trazado_918890" data-name="Trazado 918890" d="M368,256h9.062v6.8H368Z" transform="translate(-315.896 -219.705)" fill="#f4faaf"/>
      <path id="Trazado_918891" data-name="Trazado 918891" d="M442.194,184v6.8L432,200.99v-6.8Z" transform="translate(-370.835 -157.899)" fill="#ddf216"/>
      <path id="Trazado_918892" data-name="Trazado 918892" d="M145.691,388.822a3.371,3.371,0,0,0-2.98-.555l-3.854,1.1A3.965,3.965,0,0,0,135.149,384h-9.628a1.132,1.132,0,0,0-.8.332l-4.2,4.2H105.133A1.133,1.133,0,0,0,104,389.664v11.327a1.133,1.133,0,0,0,1.133,1.133h31.715a1.132,1.132,0,0,0,.4-.072l7.592-2.847a3.414,3.414,0,0,0,2.2-3.182v-4.488a3.37,3.37,0,0,0-1.352-2.713Zm-32.629,11.036h-6.8V390.8h6.8Zm4.531-9.062v9.062h-2.265V390.8Zm27.185,5.226a1.138,1.138,0,0,1-.735,1.06l-7.4,2.775H119.858V390.8h1.133a1.133,1.133,0,0,0,.8-.332l4.2-4.2h9.159a1.7,1.7,0,0,1,0,3.4h-3.964a1.133,1.133,0,0,0-1.133,1.133,1.134,1.134,0,0,1-1.133,1.133,1.133,1.133,0,0,0,0,2.265,3.4,3.4,0,0,0,3.2-2.265h5.858a1.132,1.132,0,0,0,.311-.044l5.041-1.44a1.133,1.133,0,0,1,1.444,1.089Z" transform="translate(-89.275 -329.582)"/>
      <path id="Trazado_918893" data-name="Trazado 918893" d="M71.36,18.172H61.634l-4.2-4.2a1.133,1.133,0,0,0-.8-.332H49.828c0-.061,0-.121,0-.181a13.374,13.374,0,0,0-3.982-9.477,13.706,13.706,0,0,0-19.2,0,13.3,13.3,0,0,0-3.27,5.207,1.131,1.131,0,0,0-.389.253l-7.6,7.6H1.132A1.133,1.133,0,0,0,0,18.172V31.764a1.133,1.133,0,0,0,.332.8l9.062,9.062a1.133,1.133,0,0,0,.8.332h6.327l4.2,4.2a1.133,1.133,0,0,0,.8.332h6.327l5.332,5.332a1.133,1.133,0,0,0,.8.332H44.175a1.133,1.133,0,0,0,.8-.332l7.6-7.6h8.592a1.133,1.133,0,0,0,.8-.332L72.16,33.7a1.133,1.133,0,0,0,.332-.8V19.3a1.133,1.133,0,0,0-1.133-1.133ZM28.223,5.584a11.456,11.456,0,0,1,16.044,0,10.969,10.969,0,0,1,2.451,3.626,10.852,10.852,0,0,1,.863,4.251c0,.424-.011.846-.032,1.255a24.122,24.122,0,0,1-7.2,15.954l-4.1,4.047-4.1-4.047A24.187,24.187,0,0,1,24.911,13.46a10.726,10.726,0,0,1,.4-2.923,11.01,11.01,0,0,1,2.91-4.953ZM2.265,19.3H15.857a1.133,1.133,0,0,0,.8-.332l6.014-6.013c-.006.167-.01.333-.01.5a26.436,26.436,0,0,0,7.9,18.811L35.456,37.1a1.125,1.125,0,0,0,1.579,0l4.893-4.825a26.373,26.373,0,0,0,7.787-16.364h6.45l4.2,4.2a1.133,1.133,0,0,0,.8.332h9.062v5.194L60.7,35.162H52.1a1.133,1.133,0,0,0-.8.332l-7.6,7.6H34.45l-5.332-5.332a1.133,1.133,0,0,0-.8-.332H21.99l-4.2-4.2a1.133,1.133,0,0,0-.8-.332H10.663l-8.4-8.4Zm9.062,15.858h4.531v4.531H11.327Zm6.8,1.6,2.265,2.265v3.592l-2.265-2.265Zm4.531,2.929h4.531v4.531H22.654Zm6.8,1.6,3.4,3.4v3.592l-3.4-3.4Zm5.663,4.062h7.929v4.531H35.113Zm10.194-.664,5.663-5.663v3.592l-5.663,5.663Zm7.929-7.265h6.8v4.531h-6.8ZM2.265,27.7l6.8,6.8v3.592l-6.8-6.8ZM62.3,40.356V36.764l7.929-7.929v3.592Z"/>
      <path id="Trazado_918894" data-name="Trazado 918894" d="M207.977,55.9a7.921,7.921,0,1,0-7.921-7.921A7.93,7.93,0,0,0,207.977,55.9Zm0-13.592a5.671,5.671,0,1,1-5.671,5.671A5.678,5.678,0,0,1,207.977,42.306Z" transform="translate(-171.732 -34.336)"/>
    </g>
  </g>
</svg>
