<svg xmlns="http://www.w3.org/2000/svg" xmlns:xlink="http://www.w3.org/1999/xlink" width="118" height="118" viewBox="0 0 118 118">
  <defs>
    <filter id="Trazado_896985" x="0" y="0" width="118" height="118" filterUnits="userSpaceOnUse">
      <feOffset dy="3" input="SourceAlpha"/>
      <feGaussianBlur stdDeviation="3" result="blur"/>
      <feFlood flood-opacity="0.161"/>
      <feComposite operator="in" in2="blur"/>
      <feComposite in="SourceGraphic"/>
    </filter>
  </defs>
  <g id="Grupo_1199155" data-name="Grupo 1199155" transform="translate(-1036.891 -8757.455)">
    <g id="Grupo_1198167" data-name="Grupo 1198167" transform="translate(711 4911.455)">
      <g id="Grupo_1111318" data-name="Grupo 1111318" transform="translate(334.891 3852)">
        <g id="Grupo_1109826" data-name="Grupo 1109826" transform="translate(0)">
          <g id="Grupo_1098742" data-name="Grupo 1098742" transform="translate(0 0)">
            <g transform="matrix(1, 0, 0, 1, -9, -6)" filter="url(#Trazado_896985)">
              <g id="Trazado_896985-2" data-name="Trazado 896985" transform="translate(9 6)" fill="#fc0" opacity="0.859">
                <path d="M 49.99993515014648 99.5 C 43.31726837158203 99.5 36.83476257324219 98.19129943847656 30.73248100280762 95.61025238037109 C 24.83812141418457 93.11714172363281 19.54434776306152 89.54795837402344 14.99820137023926 85.00179290771484 C 10.45204162597656 80.45565032958984 6.88285493850708 75.16187286376953 4.389748573303223 69.26751708984375 C 1.808695197105408 63.16523742675781 0.5000017881393433 56.6827278137207 0.5000017881393433 50.00006103515625 C 0.5000017881393433 43.31726455688477 1.808695197105408 36.83475494384766 4.389748573303223 30.73247528076172 C 6.88285493850708 24.83811569213867 10.45204162597656 19.54434204101562 14.99820137023926 14.99819660186768 C 19.54434776306152 10.45203590393066 24.83812141418457 6.88284969329834 30.73248100280762 4.389742851257324 C 36.83476257324219 1.808689475059509 43.31726837158203 0.4999961853027344 49.99993515014648 0.4999961853027344 C 56.68260192871094 0.4999961853027344 63.16510772705078 1.808689475059509 69.26738739013672 4.389742851257324 C 75.16175079345703 6.88284969329834 80.45552062988281 10.45203590393066 85.00167083740234 14.99819660186768 C 89.54782867431641 19.54434204101562 93.11701202392578 24.83811569213867 95.61012268066406 30.73247528076172 C 98.19117736816406 36.83475494384766 99.49987030029297 43.31726455688477 99.49987030029297 49.99993133544922 C 99.49987030029297 56.6827278137207 98.19117736816406 63.16523742675781 95.61012268066406 69.26751708984375 C 93.11701202392578 75.16187286376953 89.54782867431641 80.45565032958984 85.00167083740234 85.00179290771484 C 80.45552062988281 89.54795837402344 75.16175079345703 93.11714172363281 69.26738739013672 95.61025238037109 C 63.16510772705078 98.19129943847656 56.68260192871094 99.5 49.99993515014648 99.5 Z" stroke="none"/>
                <path d="M 49.99993515014648 0.9999923706054688 C 43.38454818725586 0.9999923706054688 36.96757507324219 2.29541015625 30.92725372314453 4.850250244140625 C 25.09249877929688 7.318145751953125 19.85213470458984 10.85135650634766 15.35174560546875 15.35174560546875 C 10.85136413574219 19.85212707519531 7.318145751953125 25.09249114990234 4.850257873535156 30.92724609375 C 2.295417785644531 36.96757125854492 1 43.38454437255859 1 50.00006103515625 C 1 56.61544799804688 2.295417785644531 63.03242111206055 4.850257873535156 69.07273864746094 C 7.318145751953125 74.90750122070312 10.85136413574219 80.14786529541016 15.35174560546875 84.64824676513672 C 19.85213470458984 89.14863586425781 25.09249877929688 92.68184661865234 30.92725372314453 95.14974212646484 C 36.96757507324219 97.70458221435547 43.38454818725586 99 49.99993515014648 99 C 56.61532211303711 99 63.03229522705078 97.70458221435547 69.07261657714844 95.14974212646484 C 74.90737915039062 92.68184661865234 80.14773559570312 89.14863586425781 84.64812469482422 84.64824676513672 C 89.14850616455078 80.14786529541016 92.68172454833984 74.90750122070312 95.14961242675781 69.07273864746094 C 97.70445251464844 63.03242111206055 98.99987030029297 56.61544799804688 98.99987030029297 49.99993133544922 C 98.99987030029297 43.38454437255859 97.70445251464844 36.96757125854492 95.14961242675781 30.92724609375 C 92.68172454833984 25.09249114990234 89.14850616455078 19.85212707519531 84.64812469482422 15.35174560546875 C 80.14773559570312 10.85135650634766 74.90737915039062 7.318145751953125 69.07261657714844 4.850250244140625 C 63.03229522705078 2.29541015625 56.61532211303711 0.9999923706054688 49.99993515014648 0.9999923706054688 M 49.99993515014648 -7.62939453125e-06 C 77.6141357421875 -7.62939453125e-06 99.99987030029297 22.38572692871094 99.99987030029297 49.99993133544922 L 99.99987030029297 50.00006103515625 C 99.99987030029297 77.61426544189453 77.6141357421875 100 49.99993515014648 100 C 22.38573455810547 100 0 77.61426544189453 0 50.00006103515625 L 0 49.99993133544922 C 0 22.38572692871094 22.38573455810547 -7.62939453125e-06 49.99993515014648 -7.62939453125e-06 Z" stroke="none" fill="#fff"/>
              </g>
            </g>
            <g id="Rectángulo_400907" data-name="Rectángulo 400907" transform="translate(0)" fill="none" stroke="#fff" stroke-width="1">
              <rect width="100" height="100" rx="50" stroke="none"/>
              <rect x="0.5" y="0.5" width="99" height="99" rx="49.5" fill="none"/>
            </g>
          </g>
        </g>
      </g>
    </g>
    <g id="efficiency_12238051" transform="translate(1054.185 8757.482)">
      <g id="Grupo_1199154" data-name="Grupo 1199154" transform="translate(1.241 22.351)">
        <path id="Trazado_918927" data-name="Trazado 918927" d="M146.318,111.537a19.083,19.083,0,0,0-4.771,1.981,1.157,1.157,0,0,1-1.129.029l-2.776-1.414a1.159,1.159,0,0,0-1.363.217l-2.82,2.815a1.164,1.164,0,0,0-.217,1.366l1.418,2.776a1.146,1.146,0,0,1-.034,1.129,18.929,18.929,0,0,0-1.976,4.771,1.154,1.154,0,0,1-.775.817l-2.964.963a1.162,1.162,0,0,0-.81,1.12v3.983a1.162,1.162,0,0,0,.81,1.12l2.964.963a1.154,1.154,0,0,1,.775.817,19.009,19.009,0,0,0,1.976,4.771,1.146,1.146,0,0,1,.034,1.129l-1.418,2.776a1.167,1.167,0,0,0,.217,1.368l2.82,2.815a1.159,1.159,0,0,0,1.363.217l2.781-1.415a1.148,1.148,0,0,1,1.124.029,19.117,19.117,0,0,0,4.771,1.981,1.123,1.123,0,0,1,.817.771l.963,2.964a1.159,1.159,0,0,0,1.12.813H153.2a1.151,1.151,0,0,0,1.115-.813l.963-2.964a1.138,1.138,0,0,1,.822-.771,19.083,19.083,0,0,0,4.771-1.981,1.148,1.148,0,0,1,1.124-.029l2.776,1.415a1.163,1.163,0,0,0,1.366-.217l2.82-2.815a1.166,1.166,0,0,0,.217-1.368l-1.418-2.776a1.146,1.146,0,0,1,.034-1.129,18.929,18.929,0,0,0,1.976-4.771,1.154,1.154,0,0,1,.775-.817l2.961-.963a1.159,1.159,0,0,0,.813-1.12v-3.983a1.161,1.161,0,0,0-.813-1.12l-2.961-.963a1.154,1.154,0,0,1-.775-.817,19.01,19.01,0,0,0-1.976-4.771,1.146,1.146,0,0,1-.034-1.129l1.418-2.776a1.164,1.164,0,0,0-.217-1.366l-2.82-2.815a1.163,1.163,0,0,0-1.366-.217L162,113.548a1.148,1.148,0,0,1-1.124-.029,19.117,19.117,0,0,0-4.771-1.981,1.138,1.138,0,0,1-.822-.771l-.963-2.964a1.151,1.151,0,0,0-1.115-.813h-3.986a1.161,1.161,0,0,0-1.12.813l-.963,2.964A1.121,1.121,0,0,1,146.318,111.537Z" transform="translate(-109.473 -94.911)" fill="#2f5274" fill-rule="evenodd"/>
        <path id="Trazado_918928" data-name="Trazado 918928" d="M208.353,199.852a12.626,12.626,0,1,0-12.623-12.628A12.651,12.651,0,0,0,208.353,199.852Z" transform="translate(-166.613 -152.035)" fill="#ebf5fc" fill-rule="evenodd"/>
        <path id="Trazado_918929" data-name="Trazado 918929" d="M229.113,216.811A8.81,8.81,0,1,0,220.3,208,8.826,8.826,0,0,0,229.113,216.811Z" transform="translate(-187.373 -172.811)" fill="#0593fc" fill-rule="evenodd"/>
        <path id="Trazado_918930" data-name="Trazado 918930" d="M20.608,199.94A12.6,12.6,0,1,0,8,187.333,12.628,12.628,0,0,0,20.608,199.94Z" transform="translate(-8 -152.145)" fill="#70da40" fill-rule="evenodd"/>
        <path id="Trazado_918931" data-name="Trazado 918931" d="M181.3,110.681a35.19,35.19,0,0,1-49.52,49.526.751.751,0,0,1-.285-.561.775.775,0,0,1,.226-.588l2.981-2.978a.771.771,0,0,1,1.031-.059,29.447,29.447,0,0,0,41.38-41.38.777.777,0,0,1,.059-1.035l2.978-2.976a.748.748,0,0,1,.588-.226.733.733,0,0,1,.561.278Z" transform="translate(-112.342 -97.793)" fill="#ff4646" fill-rule="evenodd"/>
        <path id="Trazado_918932" data-name="Trazado 918932" d="M154.074,29.11a35.046,35.046,0,0,1,22.3,7.969.751.751,0,0,1,.285.561.775.775,0,0,1-.226.588L173.452,41.2a.771.771,0,0,1-1.031.059,29.448,29.448,0,0,0-36.7,0,.773.773,0,0,1-1.031-.059l-2.979-2.976a.775.775,0,0,1-.226-.588.749.749,0,0,1,.285-.561A35.032,35.032,0,0,1,154.074,29.11Z" transform="translate(-112.334 -29.11)" fill="#ffd400" fill-rule="evenodd"/>
        <path id="Trazado_918933" data-name="Trazado 918933" d="M20.608,174.73c.327,0,.651.012.976.039a12.6,12.6,0,0,0,0,25.134c-.324.025-.647.039-.976.039a12.606,12.606,0,1,1,0-25.211Z" transform="translate(-8 -152.145)" fill="#65c43a" fill-rule="evenodd"/>
        <path id="Trazado_918934" data-name="Trazado 918934" d="M208.353,174.59c.281,0,.561.012.839.029a12.624,12.624,0,0,0,0,25.193c-.276.017-.558.029-.839.029a12.626,12.626,0,0,1,0-25.252Z" transform="translate(-166.613 -152.026)" fill="#d4dde3" fill-rule="evenodd"/>
        <path id="Trazado_918935" data-name="Trazado 918935" d="M173.262,111.537a19.3,19.3,0,0,0-4,1.554l.9.456a1.148,1.148,0,0,0,1.124-.029,19.091,19.091,0,0,1,4.774-1.981,1.139,1.139,0,0,0,.817-.771l.963-2.964a1.155,1.155,0,0,1,1.115-.813h-2.79a1.161,1.161,0,0,0-1.12.813l-.963,2.964A1.116,1.116,0,0,1,173.262,111.537Zm-7.584,1.151-1.09-.554a1.159,1.159,0,0,0-1.363.217l-2.82,2.815a1.164,1.164,0,0,0-.217,1.366l1.418,2.776a1.146,1.146,0,0,1-.034,1.129,19.1,19.1,0,0,0-1.58,3.449,12.384,12.384,0,0,1,1.027,2.33l.592-.192a1.145,1.145,0,0,0,.775-.817,18.964,18.964,0,0,1,1.981-4.771,1.157,1.157,0,0,0,.029-1.129l-1.415-2.776a1.164,1.164,0,0,1,.217-1.366Zm-5.686,23.625a18.991,18.991,0,0,0,1.58,3.449,1.146,1.146,0,0,1,.034,1.129l-1.418,2.776a1.167,1.167,0,0,0,.217,1.368l2.82,2.815a1.159,1.159,0,0,0,1.363.217l1.09-.554-2.478-2.478a1.166,1.166,0,0,1-.217-1.368l1.415-2.776a1.157,1.157,0,0,0-.029-1.129,19,19,0,0,1-1.981-4.771,1.139,1.139,0,0,0-.771-.817l-.6-.192A12.67,12.67,0,0,1,159.992,136.313Zm9.267,10.8a19.214,19.214,0,0,0,4,1.554,1.123,1.123,0,0,1,.817.771l.963,2.964a1.159,1.159,0,0,0,1.12.813h2.79a1.155,1.155,0,0,1-1.115-.813l-.963-2.964a1.139,1.139,0,0,0-.817-.771,18.964,18.964,0,0,1-4.771-1.981,1.157,1.157,0,0,0-1.129-.029Z" transform="translate(-136.417 -94.911)" fill="#2a4a68" fill-rule="evenodd"/>
      </g>
      <path id="Trazado_918936" data-name="Trazado 918936" d="M42.981,71.405A13.864,13.864,0,1,0,29.115,57.54,13.881,13.881,0,0,0,42.981,71.405Zm0-25.248A11.385,11.385,0,1,1,31.594,57.54,11.4,11.4,0,0,1,42.981,46.157Zm0,21.433a10.048,10.048,0,1,0-10.05-10.05A10.062,10.062,0,0,0,42.981,67.59Zm0-17.618a7.568,7.568,0,1,1-7.57,7.566A7.576,7.576,0,0,1,42.981,49.972ZM41.74,57.54V52.545a1.239,1.239,0,1,1,2.478,0V56.3h2.365a1.239,1.239,0,1,1,0,2.478h-3.6A1.24,1.24,0,0,1,41.74,57.54ZM24.535,66.334c.239.5.5.99.774,1.464l-1.4,2.75a2.415,2.415,0,0,0,.445,2.8l2.823,2.823a2.411,2.411,0,0,0,2.8.439l2.744-1.4a20.333,20.333,0,0,0,5.016,2.077l.954,2.936a2.418,2.418,0,0,0,2.3,1.664h3.983a2.419,2.419,0,0,0,2.3-1.672l.948-2.928a20.279,20.279,0,0,0,5.021-2.078l2.741,1.4a2.4,2.4,0,0,0,2.806-.442L61.6,73.353a2.411,2.411,0,0,0,.453-2.813l-1.4-2.745a20.227,20.227,0,0,0,2.08-5.014l2.927-.951a2.407,2.407,0,0,0,1.674-2.3V55.545a2.4,2.4,0,0,0-1.67-2.3L62.73,52.3a20.2,20.2,0,0,0-2.08-5.014l1.4-2.755a2.4,2.4,0,0,0-.45-2.8l-2.818-2.818a2.4,2.4,0,0,0-2.8-.444l-2.744,1.4a20.523,20.523,0,0,0-5.021-2.083l-.949-2.931a2.418,2.418,0,0,0-2.3-1.661H40.989a2.42,2.42,0,0,0-2.3,1.669l-.952,2.927a20.486,20.486,0,0,0-5.016,2.081l-2.741-1.4a2.414,2.414,0,0,0-2.81.442l-2.82,2.818a2.413,2.413,0,0,0-.444,2.8l1.4,2.75q-.416.712-.772,1.463a13.848,13.848,0,1,0,0,17.587Zm3-20.147L26.139,43.45,28.89,40.7l2.742,1.4a2.385,2.385,0,0,0,2.309-.07,17.992,17.992,0,0,1,4.45-1.847,2.355,2.355,0,0,0,1.692-1.593l.949-2.916h3.895l.943,2.913a2.355,2.355,0,0,0,1.684,1.591,18.023,18.023,0,0,1,4.465,1.852,2.379,2.379,0,0,0,2.311.067L57.067,40.7l2.753,2.753-1.391,2.731a2.378,2.378,0,0,0,.065,2.32,17.766,17.766,0,0,1,1.85,4.464,2.381,2.381,0,0,0,1.588,1.678l2.921.949v3.891l-2.921.949a2.38,2.38,0,0,0-1.588,1.681,17.707,17.707,0,0,1-1.852,4.462,2.376,2.376,0,0,0-.062,2.316l1.394,2.731L57.07,74.38l-2.739-1.4a2.367,2.367,0,0,0-2.309.07A17.824,17.824,0,0,1,47.559,74.9a2.381,2.381,0,0,0-1.686,1.591l-.945,2.919H41.034l-.949-2.921A2.379,2.379,0,0,0,38.4,74.9a17.825,17.825,0,0,1-4.453-1.841,2.369,2.369,0,0,0-2.32-.073l-2.739,1.4-2.753-2.753L27.533,68.9a2.381,2.381,0,0,0-.065-2.322,17.556,17.556,0,0,1-1.3-2.725,13.83,13.83,0,0,0,0-12.619,17.664,17.664,0,0,1,1.3-2.728,2.384,2.384,0,0,0,.062-2.316ZM13.846,68.908A11.367,11.367,0,1,1,25.214,57.54,11.38,11.38,0,0,1,13.846,68.908Zm6.733-15.693a1.239,1.239,0,0,1,0,1.753l-6.9,6.9a1.239,1.239,0,0,1-1.753,0l-4.81-4.81A1.239,1.239,0,0,1,8.87,55.3L12.8,59.238l6.021-6.021A1.24,1.24,0,0,1,20.578,53.215ZM71.161,34.458a1.991,1.991,0,0,0-1.447-.741l-.025,0a2.01,2.01,0,0,0-1.514.591l-2.969,2.973a2,2,0,0,0-.161,2.685,27.905,27.905,0,0,1,6.143,17.574A28.242,28.242,0,0,1,42.981,85.75,27.917,27.917,0,0,1,25.4,79.6a2.019,2.019,0,0,0-2.677.154l-2.981,2.981a2.018,2.018,0,0,0,.147,2.983A36.428,36.428,0,0,0,71.161,34.458ZM42.981,91.494a34.01,34.01,0,0,1-21.118-7.367L24.186,81.8a30.354,30.354,0,0,0,18.795,6.429A30.725,30.725,0,0,0,73.669,57.54a30.357,30.357,0,0,0-6.426-18.79l2.32-2.323A33.95,33.95,0,0,1,42.981,91.494ZM22.723,35.325a2.02,2.02,0,0,0,2.683.149,28.2,28.2,0,0,1,35.152,0,2.021,2.021,0,0,0,2.679-.155l2.972-2.976a1.992,1.992,0,0,0,.6-1.514.117.117,0,0,0,0-.023,2,2,0,0,0-.732-1.45,36.433,36.433,0,0,0-46.182,0,2.019,2.019,0,0,0-.144,2.981ZM42.981,23.589A34.016,34.016,0,0,1,64.1,30.954l-2.322,2.325A30.351,30.351,0,0,0,42.981,26.85a30.764,30.764,0,0,0-18.795,6.429l-2.323-2.322a34.008,34.008,0,0,1,21.118-7.369Z"/>
    </g>
  </g>
</svg>
