<svg xmlns="http://www.w3.org/2000/svg" xmlns:xlink="http://www.w3.org/1999/xlink" width="118" height="118" viewBox="0 0 118 118">
  <defs>
    <filter id="Trazado_896985" x="0" y="0" width="118" height="118" filterUnits="userSpaceOnUse">
      <feOffset dy="3" input="SourceAlpha"/>
      <feGaussianBlur stdDeviation="3" result="blur"/>
      <feFlood flood-opacity="0.161"/>
      <feComposite operator="in" in2="blur"/>
      <feComposite in="SourceGraphic"/>
    </filter>
  </defs>
  <g id="Grupo_1198170" data-name="Grupo 1198170" transform="translate(-325.891 -3846)">
    <g id="Grupo_1111318" data-name="Grupo 1111318" transform="translate(334.891 3852)">
      <g id="Grupo_1109826" data-name="Grupo 1109826" transform="translate(0)">
        <g id="Grupo_1098742" data-name="Grupo 1098742" transform="translate(0 0)">
          <g transform="matrix(1, 0, 0, 1, -9, -6)" filter="url(#Trazado_896985)">
            <g id="Trazado_896985-2" data-name="Trazado 896985" transform="translate(9 6)" fill="#f4f9ff" opacity="0.859">
              <path d="M 49.99993515014648 98.5 C 43.45182037353516 98.5 37.10037612915039 97.21788024902344 31.12203598022461 94.68925476074219 C 25.34687805175781 92.24656677246094 20.15993499755859 88.74932098388672 15.70530700683594 84.29469299316406 C 11.25067806243896 79.84006500244141 7.753435134887695 74.65312194824219 5.310749530792236 68.87796783447266 C 2.782120943069458 62.89962387084961 1.500006556510925 56.54818344116211 1.500006556510925 50.00006866455078 C 1.500006556510925 43.45180892944336 2.782120943069458 37.10036849975586 5.310749530792236 31.12202453613281 C 7.753435134887695 25.34686851501465 11.25067806243896 20.15992546081543 15.70530700683594 15.70529651641846 C 20.15993499755859 11.25066757202148 25.34687805175781 7.753424644470215 31.12203598022461 5.310739040374756 C 37.10037612915039 2.782110452651978 43.45182037353516 1.499996185302734 49.99993515014648 1.499996185302734 C 56.54804992675781 1.499996185302734 62.89949417114258 2.782110452651978 68.87783813476562 5.310739040374756 C 74.65299224853516 7.753424644470215 79.83993530273438 11.25066757202148 84.29457855224609 15.70529651641846 C 88.74920654296875 20.15992546081543 92.24643707275391 25.34686851501465 94.68911743164062 31.12202453613281 C 97.21775054931641 37.10036849975586 98.4998779296875 43.45180892944336 98.4998779296875 49.99992370605469 C 98.4998779296875 56.54818344116211 97.21775054931641 62.89962387084961 94.68911743164062 68.87796783447266 C 92.24643707275391 74.65312194824219 88.74920654296875 79.84006500244141 84.29457855224609 84.29469299316406 C 79.83993530273438 88.74932098388672 74.65299224853516 92.24656677246094 68.87783813476562 94.68925476074219 C 62.89949417114258 97.21788024902344 56.54804992675781 98.5 49.99993515014648 98.5 Z" stroke="none"/>
              <path d="M 49.99993515014648 2.999992370605469 C 43.65365982055664 2.999992370605469 37.49881362915039 4.242256164550781 31.70636749267578 6.6922607421875 C 26.10999298095703 9.059318542480469 21.08332061767578 12.44859313964844 16.76596832275391 16.76596832275391 C 12.44859313964844 21.08332061767578 9.059318542480469 26.10999298095703 6.6922607421875 31.70636749267578 C 4.242256164550781 37.49880981445312 3 43.65365600585938 3 50.00005722045898 C 3 56.34633636474609 4.242256164550781 62.50118255615234 6.6922607421875 68.29362487792969 C 9.059318542480469 73.88999938964844 12.44859313964844 78.91667175292969 16.76596832275391 83.23402404785156 C 21.08332061767578 87.55139923095703 26.10999298095703 90.940673828125 31.70636749267578 93.30773162841797 C 37.49881362915039 95.75773620605469 43.65365982055664 97 49.99993515014648 97 C 56.34621047973633 97 62.50105667114258 95.75773620605469 68.29350280761719 93.30773162841797 C 73.88987731933594 90.940673828125 78.91654968261719 87.55139923095703 83.23390197753906 83.23402404785156 C 87.55126953125 78.91667175292969 90.9405517578125 73.88999938964844 93.30760955810547 68.29362487792969 C 95.75761413574219 62.50118255615234 96.99987030029297 56.34633636474609 96.99987030029297 49.99993515014648 C 96.99987030029297 43.65365600585938 95.75761413574219 37.49880981445312 93.30760955810547 31.70636749267578 C 90.9405517578125 26.10999298095703 87.55126953125 21.08332061767578 83.23390197753906 16.76596832275391 C 78.91654968261719 12.44859313964844 73.88987731933594 9.059318542480469 68.29350280761719 6.6922607421875 C 62.50105667114258 4.242256164550781 56.34621047973633 2.999992370605469 49.99993515014648 2.999992370605469 M 49.99993515014648 -7.62939453125e-06 C 77.6141357421875 -7.62939453125e-06 99.99987030029297 22.38573455810547 99.99987030029297 49.99993515014648 L 99.99987030029297 50.00005722045898 C 99.99987030029297 77.6142578125 77.6141357421875 100 49.99993515014648 100 C 22.38573455810547 100 0 77.6142578125 0 50.00005722045898 L 0 49.99993515014648 C 0 22.38573455810547 22.38573455810547 -7.62939453125e-06 49.99993515014648 -7.62939453125e-06 Z" stroke="none" fill="#9cc8ff"/>
            </g>
          </g>
          <g id="Rectángulo_400907" data-name="Rectángulo 400907" transform="translate(0)" fill="none" stroke="#9cc8ff" stroke-width="3">
            <rect width="100" height="100" rx="50" stroke="none"/>
            <rect x="1.5" y="1.5" width="97" height="97" rx="48.5" fill="none"/>
          </g>
        </g>
      </g>
    </g>
    <g id="inspire-idea_14781822_1_" data-name="inspire-idea_14781822 (1)" transform="translate(347.69 3864.652)">
      <g id="Grupo_1173811" data-name="Grupo 1173811" transform="translate(7.75 7.5)">
        <path id="Trazado_1030754" data-name="Trazado 1030754" d="M118.589,347.269V343a2.6,2.6,0,0,0,2.109-2.549v-7.338h13.4v7.338A2.6,2.6,0,0,0,136.21,343l.365,3.676Z" transform="translate(-105.581 -294.9)" fill="#ca6e59"/>
        <path id="Trazado_1030755" data-name="Trazado 1030755" d="M63.8,19.051c0,8.444-4.544,18.475-16.112,15.157l-9.653-4.39a3.812,3.812,0,0,1-.251-5.637l.974-.269.674-.67a4.028,4.028,0,0,1,.807-6.909.355.355,0,0,0,.208-.413,3.824,3.824,0,0,1-.107-.9,3.721,3.721,0,0,1,3.68-3.76,3.684,3.684,0,0,1,.716.072,1.747,1.747,0,0,1,.278-.282,1.486,1.486,0,0,0,.617-1.3,4.148,4.148,0,0,1,5.811-.41.35.35,0,0,0,.525-.084,3.641,3.641,0,0,1,6.232,0,.35.35,0,0,0,.526.084,4.134,4.134,0,0,1,.827-.549C63.8,10.08,63.8,16,63.8,19.051Z" transform="translate(-33.267 -7.5)" fill="#73788c"/>
        <path id="Trazado_1030756" data-name="Trazado 1030756" d="M156.462,33.24a3.783,3.783,0,0,1-1.377,2.932l-11.04,6h-9.869l-3.537-1.609A17.341,17.341,0,0,0,142.5,15.147a4.108,4.108,0,0,1,1.868-.447,4.165,4.165,0,0,1,3.116,1.407l.194.947.7.631a3.681,3.681,0,0,1,.715-.072,3.722,3.722,0,0,1,3.682,3.76,3.844,3.844,0,0,1-.194,1.2,4.023,4.023,0,0,1,1.1,7.019A3.748,3.748,0,0,1,156.462,33.24Z" transform="translate(-116.218 -13.855)" fill="#5e6577"/>
        <path id="Trazado_1030757" data-name="Trazado 1030757" d="M72.008,201.344A6.425,6.425,0,0,0,76.9,195.1h0a2.555,2.555,0,0,0-2.555-2.555h-2.34l-25.738,0H43.93a2.555,2.555,0,0,0-2.555,2.555h0a6.425,6.425,0,0,0,4.894,6.24Z" transform="translate(-37.429 -170.832)" fill="#ca6e59"/>
        <path id="Trazado_1030758" data-name="Trazado 1030758" d="M102.453,130.982a2.542,2.542,0,0,1,3.32,1.094,10.2,10.2,0,0,0,.851,1.293l.555.738c.235.685.758,3.886,1.483,3.886v9.748a8.132,8.132,0,0,1-2.777,6.121l-5.05,4.419a5.42,5.42,0,0,1-3.569,1.34H94.271a5.42,5.42,0,0,1-3.569-1.34l-5.05-4.419a8.131,8.131,0,0,1-2.777-6.121v-9.748a1.726,1.726,0,0,0,1.6-1.179l1.112-4.339a2.542,2.542,0,0,1,3.5-1.469l.162.078,1.308.5a14.484,14.484,0,0,0,10.365,0l1.308-.5Z" transform="translate(-74.058 -116.276)" fill="#d78878"/>
        <path id="Trazado_1030759" data-name="Trazado 1030759" d="M171.03,300.595c-2.784,0-2.908-2.57-2.861-3.5a.351.351,0,0,1,.352-.333h5.011a.351.351,0,0,1,.352.341C173.907,298.041,173.723,300.595,171.03,300.595Z" transform="translate(-149.336 -262.813)" fill="#eaf6ff"/>
        <path id="Trazado_1030760" data-name="Trazado 1030760" d="M15.468,440.809,8.1,440.792a.352.352,0,0,1-.352-.352V433.9a.353.353,0,0,1,.189-.313,11.384,11.384,0,0,1,3.069-1.056l.849-.17,7.486,2.777Z" transform="translate(-7.75 -382.499)" fill="#9be69d"/>
        <path id="Trazado_1030761" data-name="Trazado 1030761" d="M299.972,435.732l-2.842,4.637-9.809.007-3.549-6.215c.039-.04,7.175-2.28,7.175-2.28l.485.093a11.388,11.388,0,0,1,3.207,1.129Z" transform="translate(-251.378 -382.075)" fill="#9be69d"/>
        <path id="Trazado_1030762" data-name="Trazado 1030762" d="M124.637,418.39l1.072,5.385-3.875,4.69-11.765.013-4.463-4.919,1.665-5.142A12.05,12.05,0,0,0,124.637,418.39Z" transform="translate(-94.123 -370.168)" fill="#eaf6ff"/>
        <path id="Trazado_1030763" data-name="Trazado 1030763" d="M50.8,410.591l-3.2-11.523a1.29,1.29,0,0,0-1.618-.888l-7.124,2.171a.558.558,0,0,0-.349.761l1.5,3.4a.352.352,0,0,0,.243.2l3.661.84a.352.352,0,0,1,.21.545l-1.987,2.848a.352.352,0,0,0-.043.32l.479,1.323Z" transform="translate(-34.852 -352.281)" fill="#bbf49b"/>
        <path id="Trazado_1030764" data-name="Trazado 1030764" d="M243.879,410.375l3.209-11.537a1.289,1.289,0,0,1,1.618-.888l7.124,2.17a.56.56,0,0,1,.349.762l-1.5,3.4a.352.352,0,0,1-.243.2l-3.662.84a.352.352,0,0,0-.21.545l1.987,2.848a.352.352,0,0,1,.043.32l-.48,1.339Z" transform="translate(-216.167 -352.079)" fill="#bbf49b"/>
        <g id="Grupo_1173808" data-name="Grupo 1173808" transform="translate(43.444 31.836)">
          <path id="Trazado_1030765" data-name="Trazado 1030765" d="M391.878,387.922v4.513a13.749,13.749,0,0,1-.309,2.736,9.61,9.61,0,0,1-1.112,2c-.711,1.2-.4,2.43-.4,3.821l-.9.577h-8.895v-1.932a4.853,4.853,0,0,0-1.277-3.28,4.018,4.018,0,0,1-1.055-2.711V391.7a2.381,2.381,0,0,1,1.016-1.951Z" transform="translate(-377.933 -375.112)" fill="#d78878"/>
          <g id="Grupo_1173807" data-name="Grupo 1173807" transform="translate(10.855 7.578)">
            <path id="Trazado_1030766" data-name="Trazado 1030766" d="M473.515,344.107v4.475a.938.938,0,0,1-.377.84c-.282.282-1.271-.149-1.7-.145l-.765-.818-.247-2.909.812-.627a1.574,1.574,0,0,1,1.533-1.572C473.287,343.542,473.515,343.808,473.515,344.107Z" transform="translate(-470.425 -343.35)" fill="#d78878"/>
            <path id="Trazado_1030767" data-name="Trazado 1030767" d="M482,344.913v3.536a1.575,1.575,0,0,1-2.848.925l-.1-.107a1.575,1.575,0,0,0,1.561-1.575v-3.532a1.565,1.565,0,0,0-.229-.818h.042A1.574,1.574,0,0,1,482,344.913Z" transform="translate(-478.041 -343.34)" fill="#ca6e59"/>
          </g>
          <path id="Trazado_1030768" data-name="Trazado 1030768" d="M477.148,386.87v4.707a7.675,7.675,0,0,1-1.08,3.926,7.679,7.679,0,0,0-1.079,3.955l0,.829a.352.352,0,0,1-.352.354h-1.083l0-1.183a7.692,7.692,0,0,1,1.08-3.955,7.674,7.674,0,0,0,1.08-3.926v-4.5Z" transform="translate(-462.332 -374.184)" fill="#ca6e59"/>
          <path id="Trazado_1030769" data-name="Trazado 1030769" d="M391.756,281.542v12.712c0,.913-1.494,1.659-2.407,1.659l.776-2.074-1.073-1.021V281.542a1.661,1.661,0,0,1,.979-1.512A1.535,1.535,0,0,1,391.756,281.542Z" transform="translate(-387.747 -279.882)" fill="#d78878"/>
          <path id="Trazado_1030770" data-name="Trazado 1030770" d="M418.068,332.363v4.171c0,.672-1.092,1.255-1.669,1.514a1.664,1.664,0,0,1-.982-1.514l-.405-.09v-3.938l.405-.143a1.663,1.663,0,0,1,.982-1.513C417.791,331.028,418.068,331.691,418.068,332.363Z" transform="translate(-410.66 -324.738)" fill="#d78878"/>
          <path id="Trazado_1030771" data-name="Trazado 1030771" d="M447.683,332.363v4.423c0,.671-1.214,1.253-1.792,1.513a1.662,1.662,0,0,1-.982-1.513l-.4-.252v-3.992l.4-.179a1.663,1.663,0,0,1,.982-1.513C447.465,331.064,447.683,331.691,447.683,332.363Z" transform="translate(-436.7 -324.738)" fill="#d78878"/>
          <path id="Trazado_1030772" data-name="Trazado 1030772" d="M399.867,280.43v12.036a.75.75,0,0,1-1.5,0V280.43a1.664,1.664,0,0,0-.978-1.512,1.634,1.634,0,0,1,.681-.148h.133A1.664,1.664,0,0,1,399.867,280.43Z" transform="translate(-395.11 -278.77)" fill="#ca6e59"/>
          <path id="Trazado_1030773" data-name="Trazado 1030773" d="M429.3,331.259v4.171a1.665,1.665,0,0,1-1.659,1.661h-.134a1.621,1.621,0,0,1-.677-.147,1.664,1.664,0,0,0,.982-1.514v-4.171a1.663,1.663,0,0,0-.982-1.513,1.622,1.622,0,0,1,.677-.147h.134A1.665,1.665,0,0,1,429.3,331.259Z" transform="translate(-421.095 -323.635)" fill="#ca6e59"/>
          <path id="Trazado_1030774" data-name="Trazado 1030774" d="M458.724,331.259v4.423a1.665,1.665,0,0,1-1.661,1.659h-.133a1.617,1.617,0,0,1-.677-.147,1.662,1.662,0,0,0,.981-1.513v-4.423a1.663,1.663,0,0,0-.981-1.513,1.618,1.618,0,0,1,.677-.147h.133A1.666,1.666,0,0,1,458.724,331.259Z" transform="translate(-447.062 -323.635)" fill="#ca6e59"/>
          <path id="Trazado_1030775" data-name="Trazado 1030775" d="M400.7,367.311a3.574,3.574,0,0,1-.076.731c-.308,1.476-2.5,1.659-4.061,1.821a4.965,4.965,0,0,0-2.942-.4c-.931.288-1.515,1.782-1.529,1.772l-3.047-1.594v-1.5l2.941-2.115a3.3,3.3,0,0,1,1.883-.613l4.884-.046A1.947,1.947,0,0,1,400.7,367.311Z" transform="translate(-387.745 -355.203)" fill="#ca6e59"/>
          <path id="Trazado_1030776" data-name="Trazado 1030776" d="M391.069,381.622l1.389-1.87a.352.352,0,0,1,.24-.139l3-.364a2.383,2.383,0,0,0,1.643-2.286.8.8,0,0,0-.807-.784h-4.418a2.982,2.982,0,0,0-1.711.539l-3.813,2.669Z" transform="translate(-385.578 -364.747)" fill="#d78878"/>
        </g>
        <g id="Grupo_1173810" data-name="Grupo 1173810" transform="translate(32.246 1.659)">
          <path id="Trazado_1030777" data-name="Trazado 1030777" d="M306.056,31.038A13.671,13.671,0,0,1,292.482,44.92c-2.476,0-7.913-1.817-8.62-3.791l.134-.54a.348.348,0,0,0-.03-.245A12.815,12.815,0,0,1,303.808,24.83,12.164,12.164,0,0,1,306.056,31.038Z" transform="translate(-282.517 -21.635)" fill="#eaf6ff"/>
          <path id="Trazado_1030778" data-name="Trazado 1030778" d="M309.064,61.191a12.834,12.834,0,0,1-19.235,8.2.35.35,0,0,0-.249-.046L284.3,70.348a.353.353,0,0,1-.408-.431l1.175-4.753a13.82,13.82,0,0,0,19.946-16.3A12.784,12.784,0,0,1,309.064,61.191Z" transform="translate(-283.717 -45.669)" fill="#d8ecfe"/>
          <g id="Grupo_1173809" data-name="Grupo 1173809" transform="translate(6.202 3.192)">
            <path id="Trazado_1030779" data-name="Trazado 1030779" d="M347.072,56.084c0,3.434-3.607,6.755-7.111,6.755-.532,0-1.106.361-2.034-1.01a7.466,7.466,0,0,0-.918-1.615,6.361,6.361,0,0,1,3.59-10.532C345.413,49.682,347.072,53.03,347.072,56.084Z" transform="translate(-335.361 -49.583)" fill="#ffe177"/>
            <path id="Trazado_1030780" data-name="Trazado 1030780" d="M365.918,55.2a6.338,6.338,0,0,1-1.619,4.238,7.68,7.68,0,0,0-1.54,4.579v.4l-6.4.021v-.351a10.748,10.748,0,0,0-.787-3.5,6.441,6.441,0,0,0,1.541.185c3.5,0,6.54-2.282,6.54-5.715a6.254,6.254,0,0,0-5.215-6.117,6.365,6.365,0,0,1,7.484,6.262Z" transform="translate(-353.197 -48.837)" fill="#ffd15b"/>
            <path id="Trazado_1030781" data-name="Trazado 1030781" d="M367.268,179.51l1,1.944c0,1.055-.632,1.944-2.9,1.944h-.5a1.91,1.91,0,0,1-1.91-1.91V179.51h4.317Z" transform="translate(-359.713 -164.174)" fill="#5e6577"/>
            <path id="Trazado_1030782" data-name="Trazado 1030782" d="M387.311,179.511v1.979a1.91,1.91,0,0,1-1.91,1.91h-1.927a1.909,1.909,0,0,0,1.909-1.91v-1.979Z" transform="translate(-377.828 -164.175)" fill="#4d5263"/>
            <path id="Trazado_1030783" data-name="Trazado 1030783" d="M355.172,160.716c0,.423.256.9,0,1.179a7.691,7.691,0,0,1-2.553.606h-4.7a1.478,1.478,0,0,1-1.418-1.531,1.6,1.6,0,0,1,.415-1.083,1.367,1.367,0,0,1,1-.448h4.7C353.4,159.439,355.172,159.87,355.172,160.716Z" transform="translate(-345.196 -146.459)" fill="#73788c"/>
            <path id="Trazado_1030784" data-name="Trazado 1030784" d="M402.6,160.971a1.593,1.593,0,0,1-.415,1.083,1.367,1.367,0,0,1-1,.448h-2.572a1.365,1.365,0,0,0,1-.448,1.593,1.593,0,0,0,.415-1.083,1.478,1.478,0,0,0-1.418-1.532h2.572A1.478,1.478,0,0,1,402.6,160.971Z" transform="translate(-391.188 -146.459)" fill="#5e6577"/>
          </g>
        </g>
      </g>
      <g id="Grupo_1173820" data-name="Grupo 1173820" transform="translate(7.75 7.5)">
        <g id="Grupo_1173812" data-name="Grupo 1173812" transform="translate(3.946 21.72)">
          <path id="Trazado_1030785" data-name="Trazado 1030785" d="M46.211,201.357a6.425,6.425,0,0,1-4.835-6.225h0a2.555,2.555,0,0,1,2.555-2.555h2.34" transform="translate(-41.376 -192.577)" fill="none" stroke="#000" stroke-linecap="round" stroke-linejoin="round" stroke-miterlimit="10" stroke-width="0.8"/>
          <path id="Trazado_1030786" data-name="Trazado 1030786" d="M307.529,232.041a6.436,6.436,0,0,1-4.472,4.141" transform="translate(-272.346 -227.41)" fill="none" stroke="#000" stroke-linecap="round" stroke-linejoin="round" stroke-miterlimit="10" stroke-width="0.8"/>
        </g>
        <path id="Trazado_1030787" data-name="Trazado 1030787" d="M209.872,132.4a14.479,14.479,0,0,0,3.149-.815l1.308-.5.217-.1a2.542,2.542,0,0,1,3.486,1.476" transform="translate(-186.151 -116.276)" fill="none" stroke="#000" stroke-linecap="round" stroke-linejoin="round" stroke-miterlimit="10" stroke-width="0.8"/>
        <path id="Trazado_1030788" data-name="Trazado 1030788" d="M108.661,142.86v5.012a8.132,8.132,0,0,1-2.777,6.121l-5.05,4.419a5.42,5.42,0,0,1-3.569,1.34H94.271a5.42,5.42,0,0,1-3.569-1.34l-5.05-4.419a8.131,8.131,0,0,1-2.777-6.121v-9.748a1.726,1.726,0,0,0,1.6-1.179l1.112-4.339a2.542,2.542,0,0,1,3.5-1.469l.162.078,1.308.5a14.474,14.474,0,0,0,3.129.813" transform="translate(-74.058 -116.406)" fill="none" stroke="#000" stroke-linecap="round" stroke-linejoin="round" stroke-miterlimit="10" stroke-width="0.8"/>
        <g id="Grupo_1173814" data-name="Grupo 1173814" transform="translate(14.261 20.605)">
          <g id="Grupo_1173813" data-name="Grupo 1173813">
            <path id="Trazado_1030789" data-name="Trazado 1030789" d="M184.556,262.089a2.72,2.72,0,0,1-2.467,0" transform="translate(-175.89 -252.816)" fill="none" stroke="#000" stroke-linecap="round" stroke-linejoin="round" stroke-miterlimit="10" stroke-width="0.8"/>
            <path id="Trazado_1030790" data-name="Trazado 1030790" d="M133.778,183.651a4.694,4.694,0,0,0-4.512,0" transform="translate(-129.266 -183.073)" fill="none" stroke="#000" stroke-linecap="round" stroke-linejoin="round" stroke-miterlimit="10" stroke-width="0.8"/>
            <path id="Trazado_1030791" data-name="Trazado 1030791" d="M222,183.651a4.694,4.694,0,0,0-4.512,0" transform="translate(-207.133 -183.073)" fill="none" stroke="#000" stroke-linecap="round" stroke-linejoin="round" stroke-miterlimit="10" stroke-width="0.8"/>
            <line id="Línea_813" data-name="Línea 813" y1="1.999" transform="translate(12.61 3.389)" fill="none" stroke="#000" stroke-linecap="round" stroke-linejoin="round" stroke-miterlimit="10" stroke-width="0.8"/>
            <line id="Línea_814" data-name="Línea 814" y1="1.999" transform="translate(2.256 3.389)" fill="none" stroke="#000" stroke-linecap="round" stroke-linejoin="round" stroke-miterlimit="10" stroke-width="0.8"/>
          </g>
          <path id="Trazado_1030792" data-name="Trazado 1030792" d="M171.03,300.595c-3.4,0-2.832-3.835-2.832-3.835h5.665S174.33,300.595,171.03,300.595Z" transform="translate(-163.598 -283.418)" fill="none" stroke="#000" stroke-linecap="round" stroke-linejoin="round" stroke-miterlimit="10" stroke-width="0.8"/>
        </g>
        <path id="Trazado_1030793" data-name="Trazado 1030793" d="M68.95,12.576a3.629,3.629,0,0,0-3.513-1.244,4.224,4.224,0,0,0-4.011-2.986,4.157,4.157,0,0,0-3.013,1.3,3.649,3.649,0,0,0-6.647,0,4.157,4.157,0,0,0-3.013-1.3,4.224,4.224,0,0,0-4.011,2.986,3.627,3.627,0,0,0-.716-.072,3.721,3.721,0,0,0-3.681,3.759,3.826,3.826,0,0,0,.194,1.2,4.024,4.024,0,0,0-1.1,7.02,3.792,3.792,0,0,0-1.4,6.575" transform="translate(-33.271 -7.5)" fill="none" stroke="#000" stroke-linecap="round" stroke-linejoin="round" stroke-miterlimit="10" stroke-width="0.8"/>
        <path id="Trazado_1030794" data-name="Trazado 1030794" d="M61.988,142.314a3.684,3.684,0,0,1-1.661-.673" transform="translate(-54.157 -125.898)" fill="none" stroke="#000" stroke-linecap="round" stroke-linejoin="round" stroke-miterlimit="10" stroke-width="0.8"/>
        <path id="Trazado_1030795" data-name="Trazado 1030795" d="M105.6,40.2a3.493,3.493,0,0,1,2.214,1.471" transform="translate(-94.116 -36.361)" fill="none" stroke="#000" stroke-linecap="round" stroke-linejoin="round" stroke-miterlimit="10" stroke-width="0.8"/>
        <path id="Trazado_1030796" data-name="Trazado 1030796" d="M268.324,40.183a3.5,3.5,0,0,0-1.778,1.355" transform="translate(-236.174 -36.347)" fill="none" stroke="#000" stroke-linecap="round" stroke-linejoin="round" stroke-miterlimit="10" stroke-width="0.8"/>
        <path id="Trazado_1030797" data-name="Trazado 1030797" d="M305.529,35.051q-.059.372-.14.744a13.211,13.211,0,0,1-19.921,8.363l-6.133,1.169,1.514-6.13A13.178,13.178,0,0,1,290.278,20" transform="translate(-247.426 -18.535)" fill="none" stroke="#000" stroke-linecap="round" stroke-linejoin="round" stroke-miterlimit="10" stroke-width="0.8"/>
        <path id="Trazado_1030798" data-name="Trazado 1030798" d="M407.545,19.544q.473.068.949.17A13.193,13.193,0,0,1,418.731,30.54" transform="translate(-360.626 -18.131)" fill="none" stroke="#000" stroke-linecap="round" stroke-linejoin="round" stroke-miterlimit="10" stroke-width="0.8"/>
        <g id="Grupo_1173815" data-name="Grupo 1173815" transform="translate(38.447 4.854)">
          <path id="Trazado_1030799" data-name="Trazado 1030799" d="M338.12,61.624A7.5,7.5,0,0,0,337,59.47a6.354,6.354,0,1,1,9.446-.032,7.837,7.837,0,0,0-1.139,2.16" transform="translate(-335.355 -48.863)" fill="none" stroke="#000" stroke-linecap="round" stroke-linejoin="round" stroke-miterlimit="10" stroke-width="0.8"/>
          <line id="Línea_815" data-name="Línea 815" y1="4.671" transform="translate(6.354 8.064)" fill="none" stroke="#000" stroke-linecap="round" stroke-linejoin="round" stroke-miterlimit="10" stroke-width="0.8"/>
          <path id="Trazado_1030800" data-name="Trazado 1030800" d="M369.156,186.134v.723a2.347,2.347,0,0,1-2.347,2.347h-1.544a2.347,2.347,0,0,1-2.347-2.347v-.723" transform="translate(-359.683 -170.024)" fill="none" stroke="#000" stroke-linecap="round" stroke-linejoin="round" stroke-miterlimit="10" stroke-width="0.8"/>
          <path id="Trazado_1030801" data-name="Trazado 1030801" d="M356.8,160.9h-6.323a1.606,1.606,0,0,1-1.606-1.606V159.2a1.606,1.606,0,0,1,1.606-1.606H356.8A1.606,1.606,0,0,1,358.4,159.2v.095A1.606,1.606,0,0,1,356.8,160.9Z" transform="translate(-347.281 -144.834)" fill="none" stroke="#000" stroke-linecap="round" stroke-linejoin="round" stroke-miterlimit="10" stroke-width="0.8"/>
          <line id="Línea_816" data-name="Línea 816" x2="4.068" transform="translate(4.404 8.054)" fill="none" stroke="#000" stroke-linecap="round" stroke-linejoin="round" stroke-miterlimit="10" stroke-width="0.8"/>
        </g>
        <path id="Trazado_1030802" data-name="Trazado 1030802" d="M346.53,432.2l.295.056a11.37,11.37,0,0,1,3.207,1.129" transform="translate(-306.771 -382.353)" fill="none" stroke="#000" stroke-linecap="round" stroke-linejoin="round" stroke-miterlimit="10" stroke-width="0.8"/>
        <path id="Trazado_1030803" data-name="Trazado 1030803" d="M250.768,358.351v4.376a2.6,2.6,0,0,0,2.109,2.549" transform="translate(-222.248 -317.176)" fill="none" stroke="#000" stroke-linecap="round" stroke-linejoin="round" stroke-miterlimit="10" stroke-width="0.8"/>
        <path id="Trazado_1030804" data-name="Trazado 1030804" d="M118.589,417.362h0a12.053,12.053,0,0,0,17.621,0h0" transform="translate(-105.581 -369.261)" fill="none" stroke="#000" stroke-linecap="round" stroke-linejoin="round" stroke-miterlimit="10" stroke-width="0.8"/>
        <path id="Trazado_1030805" data-name="Trazado 1030805" d="M11.47,367.114l-.462.092a11.367,11.367,0,0,0-3.258,1.157m15.117-10.012v4.376a2.6,2.6,0,0,1-2.109,2.549l-.135.026" transform="translate(-7.75 -317.176)" fill="none" stroke="#000" stroke-linecap="round" stroke-linejoin="round" stroke-miterlimit="10" stroke-width="0.8"/>
        <g id="Grupo_1173816" data-name="Grupo 1173816" transform="translate(3.281 45.843)">
          <path id="Trazado_1030806" data-name="Trazado 1030806" d="M46.684,405.69l-1.842-6.622a1.29,1.29,0,0,0-1.618-.888L36.1,400.351a.558.558,0,0,0-.349.761l1.574,3.564,4.342,1-2.39,3.425.542,1.511" transform="translate(-35.703 -398.124)" fill="none" stroke="#000" stroke-linecap="round" stroke-linejoin="round" stroke-miterlimit="10" stroke-width="0.8"/>
          <line id="Línea_817" data-name="Línea 817" x1="0.267" y1="0.961" transform="translate(12.081 11.523)" fill="none" stroke="#000" stroke-linecap="round" stroke-linejoin="round" stroke-miterlimit="10" stroke-width="0.8"/>
          <path id="Trazado_1030807" data-name="Trazado 1030807" d="M244.868,410.609l3.21-11.54a1.289,1.289,0,0,1,1.618-.888l7.124,2.17a.56.56,0,0,1,.349.762l-1.574,3.565-4.342,1,2.39,3.425-.542,1.51" transform="translate(-220.321 -398.125)" fill="none" stroke="#000" stroke-linecap="round" stroke-linejoin="round" stroke-miterlimit="10" stroke-width="0.8"/>
        </g>
        <g id="Grupo_1173819" data-name="Grupo 1173819" transform="translate(43.452 31.87)">
          <g id="Grupo_1173817" data-name="Grupo 1173817" transform="translate(11.667 7.578)">
            <path id="Trazado_1030808" data-name="Trazado 1030808" d="M480.562,345.2a1.573,1.573,0,0,0-1.573-1.573h0a1.575,1.575,0,0,0-1.575,1.575v3.532a1.575,1.575,0,0,0,1.575,1.575h0a1.575,1.575,0,0,0,1.575-1.575Z" transform="translate(-477.412 -343.626)" fill="none" stroke="#000" stroke-linecap="round" stroke-linejoin="round" stroke-miterlimit="10" stroke-width="0.8"/>
            <path id="Trazado_1030809" data-name="Trazado 1030809" d="M490.831,400.563" transform="translate(-489.256 -393.881)" fill="none" stroke="#000" stroke-linecap="round" stroke-linejoin="round" stroke-miterlimit="10" stroke-width="0.8"/>
          </g>
          <g id="Grupo_1173818" data-name="Grupo 1173818" transform="translate(12.658 12.73)">
            <path id="Trazado_1030810" data-name="Trazado 1030810" d="M488.016,387.53v4.707a7.645,7.645,0,0,1-1.079,3.883h0a7.683,7.683,0,0,0-1.079,3.955l0,1.183" transform="translate(-485.858 -387.53)" fill="none" stroke="#000" stroke-linecap="round" stroke-linejoin="round" stroke-miterlimit="10" stroke-width="0.8"/>
          </g>
          <path id="Trazado_1030811" data-name="Trazado 1030811" d="M433.859,414.75a6.438,6.438,0,0,1,1.375,5.887l-.049.188" transform="translate(-427.303 -398.825)" fill="none" stroke="#000" stroke-linecap="round" stroke-linejoin="round" stroke-miterlimit="10" stroke-width="0.8"/>
          <path id="Trazado_1030812" data-name="Trazado 1030812" d="M389.115,293.42v-12.7a1.664,1.664,0,0,1,1.66-1.66h.133a1.664,1.664,0,0,1,1.66,1.66v10.322" transform="translate(-387.811 -279.057)" fill="none" stroke="#000" stroke-linecap="round" stroke-linejoin="round" stroke-miterlimit="10" stroke-width="0.8"/>
          <path id="Trazado_1030813" data-name="Trazado 1030813" d="M418.532,331.553a1.664,1.664,0,0,1,1.66-1.66h.133a1.664,1.664,0,0,1,1.66,1.66v3.778" transform="translate(-413.775 -323.927)" fill="none" stroke="#000" stroke-linecap="round" stroke-linejoin="round" stroke-miterlimit="10" stroke-width="0.8"/>
          <path id="Trazado_1030814" data-name="Trazado 1030814" d="M447.947,335.29v-3.737a1.664,1.664,0,0,1,1.66-1.66h.133a1.664,1.664,0,0,1,1.659,1.66v1.584" transform="translate(-439.738 -323.927)" fill="none" stroke="#000" stroke-linecap="round" stroke-linejoin="round" stroke-miterlimit="10" stroke-width="0.8"/>
          <path id="Trazado_1030815" data-name="Trazado 1030815" d="M383.49,381.911l1.48-1.991,2.965-.382a2.383,2.383,0,0,0,1.643-2.264.807.807,0,0,0-.807-.806h-4.23a2.982,2.982,0,0,0-1.711.539l-3.813,2.669A2.382,2.382,0,0,0,378,381.627v1.944a4.013,4.013,0,0,0,1.055,2.711,4.855,4.855,0,0,1,1.277,3.281v1.931" transform="translate(-377.999 -365.036)" fill="none" stroke="#000" stroke-linecap="round" stroke-linejoin="round" stroke-miterlimit="10" stroke-width="0.8"/>
        </g>
      </g>
    </g>
  </g>
</svg>
