<svg xmlns="http://www.w3.org/2000/svg" xmlns:xlink="http://www.w3.org/1999/xlink" width="118" height="118" viewBox="0 0 118 118">
  <defs>
    <filter id="Trazado_896985" x="0" y="0" width="118" height="118" filterUnits="userSpaceOnUse">
      <feOffset dy="3" input="SourceAlpha"/>
      <feGaussianBlur stdDeviation="3" result="blur"/>
      <feFlood flood-opacity="0.161"/>
      <feComposite operator="in" in2="blur"/>
      <feComposite in="SourceGraphic"/>
    </filter>
  </defs>
  <g id="Grupo_1198423" data-name="Grupo 1198423" transform="translate(-196.891 -2351.719)">
    <g id="Grupo_1198126" data-name="Grupo 1198126" transform="translate(-129 -1494.281)">
      <g id="Grupo_1111318" data-name="Grupo 1111318" transform="translate(334.891 3852)">
        <g id="Grupo_1109826" data-name="Grupo 1109826" transform="translate(0)">
          <g id="Grupo_1098742" data-name="Grupo 1098742" transform="translate(0 0)">
            <g transform="matrix(1, 0, 0, 1, -9, -6)" filter="url(#Trazado_896985)">
              <g id="Trazado_896985-2" data-name="Trazado 896985" transform="translate(9 6)" fill="#f4f9ff" opacity="0.859">
                <path d="M 49.99993515014648 98.5 C 43.45182037353516 98.5 37.10037612915039 97.21788024902344 31.12203598022461 94.68925476074219 C 25.34687805175781 92.24656677246094 20.15993499755859 88.74932098388672 15.70530700683594 84.29469299316406 C 11.25067806243896 79.84006500244141 7.753435134887695 74.65312194824219 5.310749530792236 68.87796783447266 C 2.782120943069458 62.89962387084961 1.500006556510925 56.54818344116211 1.500006556510925 50.00006866455078 C 1.500006556510925 43.45180892944336 2.782120943069458 37.10036849975586 5.310749530792236 31.12202453613281 C 7.753435134887695 25.34686851501465 11.25067806243896 20.15992546081543 15.70530700683594 15.70529651641846 C 20.15993499755859 11.25066757202148 25.34687805175781 7.753424644470215 31.12203598022461 5.310739040374756 C 37.10037612915039 2.782110452651978 43.45182037353516 1.499996185302734 49.99993515014648 1.499996185302734 C 56.54804992675781 1.499996185302734 62.89949417114258 2.782110452651978 68.87783813476562 5.310739040374756 C 74.65299224853516 7.753424644470215 79.83993530273438 11.25066757202148 84.29457855224609 15.70529651641846 C 88.74920654296875 20.15992546081543 92.24643707275391 25.34686851501465 94.68911743164062 31.12202453613281 C 97.21775054931641 37.10036849975586 98.4998779296875 43.45180892944336 98.4998779296875 49.99992370605469 C 98.4998779296875 56.54818344116211 97.21775054931641 62.89962387084961 94.68911743164062 68.87796783447266 C 92.24643707275391 74.65312194824219 88.74920654296875 79.84006500244141 84.29457855224609 84.29469299316406 C 79.83993530273438 88.74932098388672 74.65299224853516 92.24656677246094 68.87783813476562 94.68925476074219 C 62.89949417114258 97.21788024902344 56.54804992675781 98.5 49.99993515014648 98.5 Z" stroke="none"/>
                <path d="M 49.99993515014648 2.999992370605469 C 43.65365982055664 2.999992370605469 37.49881362915039 4.242256164550781 31.70636749267578 6.6922607421875 C 26.10999298095703 9.059318542480469 21.08332061767578 12.44859313964844 16.76596832275391 16.76596832275391 C 12.44859313964844 21.08332061767578 9.059318542480469 26.10999298095703 6.6922607421875 31.70636749267578 C 4.242256164550781 37.49880981445312 3 43.65365600585938 3 50.00005722045898 C 3 56.34633636474609 4.242256164550781 62.50118255615234 6.6922607421875 68.29362487792969 C 9.059318542480469 73.88999938964844 12.44859313964844 78.91667175292969 16.76596832275391 83.23402404785156 C 21.08332061767578 87.55139923095703 26.10999298095703 90.940673828125 31.70636749267578 93.30773162841797 C 37.49881362915039 95.75773620605469 43.65365982055664 97 49.99993515014648 97 C 56.34621047973633 97 62.50105667114258 95.75773620605469 68.29350280761719 93.30773162841797 C 73.88987731933594 90.940673828125 78.91654968261719 87.55139923095703 83.23390197753906 83.23402404785156 C 87.55126953125 78.91667175292969 90.9405517578125 73.88999938964844 93.30760955810547 68.29362487792969 C 95.75761413574219 62.50118255615234 96.99987030029297 56.34633636474609 96.99987030029297 49.99993515014648 C 96.99987030029297 43.65365600585938 95.75761413574219 37.49880981445312 93.30760955810547 31.70636749267578 C 90.9405517578125 26.10999298095703 87.55126953125 21.08332061767578 83.23390197753906 16.76596832275391 C 78.91654968261719 12.44859313964844 73.88987731933594 9.059318542480469 68.29350280761719 6.6922607421875 C 62.50105667114258 4.242256164550781 56.34621047973633 2.999992370605469 49.99993515014648 2.999992370605469 M 49.99993515014648 -7.62939453125e-06 C 77.6141357421875 -7.62939453125e-06 99.99987030029297 22.38573455810547 99.99987030029297 49.99993515014648 L 99.99987030029297 50.00005722045898 C 99.99987030029297 77.6142578125 77.6141357421875 100 49.99993515014648 100 C 22.38573455810547 100 0 77.6142578125 0 50.00005722045898 L 0 49.99993515014648 C 0 22.38573455810547 22.38573455810547 -7.62939453125e-06 49.99993515014648 -7.62939453125e-06 Z" stroke="none" fill="#9cc8ff"/>
              </g>
            </g>
            <g id="Rectángulo_400907" data-name="Rectángulo 400907" transform="translate(0)" fill="none" stroke="#9cc8ff" stroke-width="3">
              <rect width="100" height="100" rx="50" stroke="none"/>
              <rect x="1.5" y="1.5" width="97" height="97" rx="48.5" fill="none"/>
            </g>
          </g>
        </g>
      </g>
    </g>
    <g id="regulatory_18306455" transform="translate(201.135 2347.428)">
      <path id="Trazado_916945" data-name="Trazado 916945" d="M340.969,321.54l-2.708,1.725-.211,3.329,20.019,11.558a1.059,1.059,0,0,0,1.441-.386l1.864-3.229a1.059,1.059,0,0,0-.386-1.441Z" transform="translate(-272.329 -251.138)" fill="#b5693c" fill-rule="evenodd"/>
      <path id="Trazado_916946" data-name="Trazado 916946" d="M148.919,69.6c-19.759-17.026.216-21.8-2.24-39.156Q170.005,50.279,148.919,69.6Z" transform="translate(-104.918 -4.947)" fill="#9ddb53" fill-rule="evenodd"/>
      <path id="Trazado_916947" data-name="Trazado 916947" d="M216.145,231.254c-11.318-16.939,7.487-15.654,11.186-28.744Q240.779,222.321,216.145,231.254Z" transform="translate(-166.204 -150.472)" fill="#9ddb53" fill-rule="evenodd"/>
      <path id="Trazado_916948" data-name="Trazado 916948" d="M45.164,223.829c7.255-25.5-13.172-17.6-21.35-33.169Q15.094,220.554,45.164,223.829Z" transform="translate(-4.913 -140.45)" fill="#9ddb53" fill-rule="evenodd"/>
      <path id="Trazado_916949" data-name="Trazado 916949" d="M283.675,272.93l-6.515,11.284,3.186,2.882,4.409,1.5,6.515-11.284-3.183-3.121Z" transform="translate(-220.833 -210.028)" fill="#fcc72d" fill-rule="evenodd"/>
      <path id="Trazado_916950" data-name="Trazado 916950" d="M222.45,425.38h15.568v5.113H222.45Z" transform="translate(-174.563 -338.959)" fill="#c5a082" fill-rule="evenodd"/>
      <g id="Grupo_1198422" data-name="Grupo 1198422" transform="translate(45.326 58.911)">
        <path id="Trazado_916951" data-name="Trazado 916951" d="M205.85,448.58h20.691v5.088H205.85Z" transform="translate(-205.85 -417.491)" fill="#b5693c" fill-rule="evenodd"/>
        <path id="Trazado_916952" data-name="Trazado 916952" d="M316.374,247.7l-.933,1.615a1.276,1.276,0,0,0,.466,1.739l7.595,4.384a1.276,1.276,0,0,0,1.739-.466l.933-1.615a1.276,1.276,0,0,0-.466-1.739l-7.595-4.384A1.276,1.276,0,0,0,316.374,247.7Z" transform="translate(-298.39 -247.061)" fill="#b5693c" fill-rule="evenodd"/>
        <path id="Trazado_916953" data-name="Trazado 916953" d="M259.844,345.606l-.933,1.615a1.276,1.276,0,0,0,.466,1.739l7.595,4.384a1.276,1.276,0,0,0,1.739-.466l.933-1.615a1.276,1.276,0,0,0-.466-1.739l-7.595-4.384A1.276,1.276,0,0,0,259.844,345.606Z" transform="translate(-250.581 -329.866)" fill="#b5693c" fill-rule="evenodd"/>
      </g>
      <path id="Trazado_916954" data-name="Trazado 916954" d="M42.855,27.669c.219,5.788-1.945,10.171-3.878,14.09C35.83,48.132,33.3,53.252,42.518,62.091c-.421-3.473.423-6.538,1.305-9.745a39.337,39.337,0,0,0,1.74-9.562.889.889,0,0,1,.935-.87.9.9,0,0,1,.87.935,41.324,41.324,0,0,1-1.8,9.977c-.961,3.49-1.805,6.558-1.08,10.119,5.822-5.67,8.721-11.4,8.616-17.058-.11-5.961-3.554-12.083-10.245-18.217Zm3.368,66.517H65.108V90.9H46.222Zm19.79,1.807H45.32a.9.9,0,0,1-.9-.9V90a.9.9,0,0,1,.9-.9h1.658V86.423a.9.9,0,0,1,.9-.9H63.448a.9.9,0,0,1,.9.9V89.1h1.658a.9.9,0,0,1,.9.9V95.09A.9.9,0,0,1,66.013,95.992ZM48.785,89.1H62.548V87.324H48.785Zm37.47-1.038a1.933,1.933,0,0,1-.973-.262L66.045,76.69l-.994,1.72a2.177,2.177,0,0,1,.113,2.351l-.933,1.617a2.177,2.177,0,0,1-2.973.8L55.073,79.6a49.808,49.808,0,0,1-4.832,2.029.891.891,0,0,1-.309.054.9.9,0,0,1-.751-.4c-7.424-11.111-2.376-15.122,2.97-19.368,3.32-2.638,6.754-5.366,8.1-10.123a.9.9,0,0,1,1.617-.262A33.217,33.217,0,0,1,65.5,58.3l7.589,4.381a2.179,2.179,0,0,1,.8,2.973l-.933,1.617a2.19,2.19,0,0,1-1.891,1.088c-.068,0-.134,0-.2-.009l-.994,1.72L89.1,81.181a1.961,1.961,0,0,1,.717,2.674l-1.864,3.229a1.943,1.943,0,0,1-1.189.91,2.008,2.008,0,0,1-.508.065ZM66.949,75.125,86.187,86.232a.136.136,0,0,0,.114.014.155.155,0,0,0,.093-.069l1.864-3.229a.156.156,0,0,0-.056-.207L68.965,71.634ZM55.365,75.1l-.933,1.617a.375.375,0,0,0,.136.506l7.595,4.384a.373.373,0,0,0,.5-.134L63.6,79.86a.376.376,0,0,0-.134-.506l-7.6-4.384a.37.37,0,0,0-.5.134ZM53.24,78.47c-.927.42-1.911.827-2.944,1.216-5.952-9.259-2.188-12.251,2.982-16.356,2.981-2.368,6.311-5.014,8.087-9.253A30.251,30.251,0,0,1,63.515,58.2a2.158,2.158,0,0,0-.994.9l-.932,1.617a2.177,2.177,0,0,0,.113,2.351l-5.808,10.06A2.178,2.178,0,0,0,53.8,74.2l-.933,1.617A2.177,2.177,0,0,0,53.24,78.47Zm4.315-4.614,6.031,3.482L69.2,67.618l-6.031-3.482ZM64.086,60l-.932,1.617a.375.375,0,0,0,.136.506l7.595,4.384a.365.365,0,0,0,.281.035.373.373,0,0,0,.225-.171l.933-1.615a.375.375,0,0,0-.136-.506l-7.595-4.384a.376.376,0,0,0-.508.134ZM38.64,82.268C30,81.053,24,78,20.78,73.186,17.5,68.274,16.969,61.326,19.2,52.506c3.264,4.926,7.822,7.235,11.891,9.3,6.652,3.372,11.975,6.072,8.851,19.15a29.44,29.44,0,0,0-7.109-7.035c-3.149-2.453-5.867-4.571-6.041-7.785a.9.9,0,1,0-1.8.1c.219,4.034,3.385,6.5,6.734,9.111C34.269,77.325,36.884,79.363,38.64,82.268Zm1.507,2.009c-10.11-1.1-17.131-4.5-20.869-10.088-3.843-5.75-4.264-13.9-1.25-24.233a.9.9,0,0,1,1.666-.167c3.013,5.737,7.692,8.109,12.218,10.4,7.131,3.616,13.866,7.03,9.2,23.433a.907.907,0,0,1-.967.651Zm3.848-18.724a.9.9,0,0,1-.589-.219C30.721,54.4,33.944,47.875,37.356,40.96c2.168-4.392,4.409-8.934,3.5-15.339a.9.9,0,0,1,1.479-.815c8.21,6.982,12.439,14.065,12.567,21.049.12,6.541-3.345,13.089-10.3,19.462a.906.906,0,0,1-.609.236Z" transform="translate(0 0)" fill-rule="evenodd"/>
    </g>
  </g>
</svg>
