<svg xmlns="http://www.w3.org/2000/svg" xmlns:xlink="http://www.w3.org/1999/xlink" width="220" height="173.993" viewBox="0 0 220 173.993">
  <defs>
    <filter id="Rect치ngulo_404858" x="0" y="0" width="220" height="173.993" filterUnits="userSpaceOnUse">
      <feOffset dx="3" dy="6" input="SourceAlpha"/>
      <feGaussianBlur stdDeviation="5" result="blur"/>
      <feFlood flood-opacity="0.161"/>
      <feComposite operator="in" in2="blur"/>
      <feComposite in="SourceGraphic"/>
    </filter>
  </defs>
  <g id="Grupo_1198231" data-name="Grupo 1198231" transform="translate(-204.467 -1874.689)">
    <g id="Grupo_1197921" data-name="Grupo 1197921" transform="translate(216.467 1883.689)">
      <g id="Grupo_1113681" data-name="Grupo 1113681" transform="translate(0 0)">
        <g transform="matrix(1, 0, 0, 1, -12, -9)" filter="url(#Rect치ngulo_404858)">
          <rect id="Rect치ngulo_404858-2" data-name="Rect치ngulo 404858" width="190" height="143.993" rx="8" transform="translate(12 9)" fill="#6c8bb1"/>
        </g>
      </g>
    </g>
    <g id="insurance_18242323" transform="translate(209.563 1873.861)">
      <path id="Trazado_916316" data-name="Trazado 916316" d="M134.254,51.463V77.652a24.315,24.315,0,0,0,10.628,20.453l16.385,11.509,16.385-11.509A24.316,24.316,0,0,0,188.28,77.652V51.463a84.727,84.727,0,0,1-27.013-14.181A84.727,84.727,0,0,1,134.254,51.463Z" transform="translate(-59.363 -5.099)" fill="#ffbf31" fill-rule="evenodd"/>
      <path id="Trazado_916317" data-name="Trazado 916317" d="M287.126,207.254l-4.533,18.131a13.294,13.294,0,0,1-3.76,6.554l-5.461,5.34a3.661,3.661,0,0,0-5.134-.54l-13.452,10.89A12.513,12.513,0,0,0,250,257.654v7.384h20.8c.307-3.878,1.423-6.255,5.476-10.66,4.4-4.78,8.831-6.808,12.111-12.672,4.535-8.107,4.335-23.877,5.13-33.422a3.152,3.152,0,0,0-3.154-3.427H290.2A3.133,3.133,0,0,0,287.126,207.254Z" transform="translate(-148.099 -133.567)" fill="#f0b16e" fill-rule="evenodd"/>
      <path id="Trazado_916318" data-name="Trazado 916318" d="M69.879,207.254l4.533,18.131a13.3,13.3,0,0,0,3.76,6.554l5.461,5.34a3.661,3.661,0,0,1,5.134-.54l13.452,10.89A12.513,12.513,0,0,1,107,257.654v7.384H86.2c-.307-3.878-1.423-6.255-5.476-10.66-4.4-4.78-8.831-6.808-12.111-12.672-4.535-8.107-4.335-23.877-5.13-33.422a3.152,3.152,0,0,1,3.154-3.427h.174A3.133,3.133,0,0,1,69.879,207.254Z" transform="translate(-5.098 -133.567)" fill="#f0b16e" fill-rule="evenodd"/>
      <g id="Grupo_1198230" data-name="Grupo 1198230" transform="translate(86.874 57.472)">
        <path id="Trazado_916319" data-name="Trazado 916319" d="M265.033,226.326A10.929,10.929,0,0,1,250,235a10.929,10.929,0,0,1,15.03-8.678Z" transform="translate(-234.973 -206.855)" fill="#19cfba" fill-rule="evenodd"/>
        <path id="Trazado_916320" data-name="Trazado 916320" d="M185.6,226.326A10.929,10.929,0,0,0,200.631,235a10.929,10.929,0,0,0-15.03-8.678Z" transform="translate(-185.601 -206.855)" fill="#19cfba" fill-rule="evenodd"/>
        <path id="Trazado_916321" data-name="Trazado 916321" d="M265.033,186.405A10.929,10.929,0,0,1,250,195.083a10.929,10.929,0,0,1,15.03-8.678Z" transform="translate(-234.973 -176.251)" fill="#19cfba" fill-rule="evenodd"/>
        <path id="Trazado_916322" data-name="Trazado 916322" d="M185.6,186.405a10.929,10.929,0,0,0,15.03,8.678,10.929,10.929,0,0,0-15.03-8.678Z" transform="translate(-185.601 -176.251)" fill="#19cfba" fill-rule="evenodd"/>
        <path id="Trazado_916323" data-name="Trazado 916323" d="M265.033,146.483A10.929,10.929,0,0,1,250,155.161a10.929,10.929,0,0,1,15.03-8.678Z" transform="translate(-234.973 -145.646)" fill="#19cfba" fill-rule="evenodd"/>
        <path id="Trazado_916324" data-name="Trazado 916324" d="M185.6,146.483a10.929,10.929,0,0,0,15.03,8.678,10.929,10.929,0,0,0-15.03-8.678Z" transform="translate(-185.601 -145.646)" fill="#19cfba" fill-rule="evenodd"/>
      </g>
      <path id="Trazado_916325" data-name="Trazado 916325" d="M84.627,94.274l16.385,11.509a.013.013,0,0,0,.007,0,1.55,1.55,0,0,0,.186.112c.012.006.023.01.034.017a1.618,1.618,0,0,0,.407.128l.046.006a1.344,1.344,0,0,0,.421,0l.046-.006a1.619,1.619,0,0,0,.408-.128l.034-.017a1.505,1.505,0,0,0,.187-.112.014.014,0,0,0,.007,0l16.385-11.509a25.89,25.89,0,0,0,11.287-21.722V46.363a1.55,1.55,0,0,0-1.072-1.475,82.551,82.551,0,0,1-26.524-13.919,1.556,1.556,0,0,0-1.937,0A82.558,82.558,0,0,1,74.411,44.888a1.55,1.55,0,0,0-1.072,1.475V72.552A25.89,25.89,0,0,0,84.627,94.274ZM95.755,60.28a9.308,9.308,0,0,1,4.366,5.678,9.291,9.291,0,0,1-5.228-.12c-.085-.027-.17-.058-.255-.083a9.612,9.612,0,0,1-1.616-.74,9.31,9.31,0,0,1-4.366-5.676A9.3,9.3,0,0,1,95.755,60.28Zm19.4-.941a9.308,9.308,0,0,1-4.366,5.676,9.629,9.629,0,0,1-1.616.74c-.086.025-.171.056-.258.085a9.3,9.3,0,0,1-5.225.118,9.378,9.378,0,0,1,11.465-6.619ZM103.667,78.456c-.073.077-.141.157-.212.236v-.285C103.526,78.423,103.6,78.441,103.667,78.456Zm6.455-9.745a9.264,9.264,0,0,1,5.028-.056,9.308,9.308,0,0,1-4.366,5.676,9.608,9.608,0,0,1-1.615.74c-.089.025-.177.058-.266.087a9.288,9.288,0,0,1-5.219.116,9.309,9.309,0,0,1,4.366-5.678,9.52,9.52,0,0,1,1.612-.738c.154-.046.307-.1.459-.147Zm-2.071,10.2a9.41,9.41,0,0,1,1.614-.738c.151-.046.3-.1.453-.147a9.277,9.277,0,0,1,5.032-.056,9.383,9.383,0,0,1-11.465,6.619A9.31,9.31,0,0,1,108.052,78.913Zm-4.6-9.538v-.286c.071.017.142.036.212.05C103.595,69.216,103.526,69.3,103.455,69.375Zm-3.1,0c-.071-.079-.14-.159-.212-.236.071-.014.141-.033.212-.05Zm-5.711,5.7a9.6,9.6,0,0,1-1.618-.74,9.311,9.311,0,0,1-4.366-5.676,9.259,9.259,0,0,1,5.028.056c.153.052.306.1.46.147a9.483,9.483,0,0,1,1.611.738,9.307,9.307,0,0,1,4.366,5.678,9.3,9.3,0,0,1-5.238-.122c-.081-.027-.161-.056-.243-.081Zm-.954,2.956c.151.052.3.1.455.147a9.523,9.523,0,0,1,1.613.738,9.308,9.308,0,0,1,4.366,5.678,9.383,9.383,0,0,1-11.465-6.619A9.271,9.271,0,0,1,93.687,78.027Zm6.665.379v.285c-.071-.079-.14-.159-.212-.236C100.211,78.441,100.281,78.423,100.352,78.406ZM76.442,47.484A85.527,85.527,0,0,0,101.9,34.154a85.533,85.533,0,0,0,25.461,13.33V72.552A22.866,22.866,0,0,1,117.4,91.736l-13.942,9.793v-13.8a12.482,12.482,0,0,0,15.017-10.581,1.552,1.552,0,0,0-.944-1.636,12.762,12.762,0,0,0-2.361-.716,12.408,12.408,0,0,0,3.306-6.965,1.552,1.552,0,0,0-.944-1.636,12.7,12.7,0,0,0-2.362-.714,12.418,12.418,0,0,0,3.306-6.967,1.552,1.552,0,0,0-.944-1.636,12.455,12.455,0,0,0-5.9-.908V46.609a1.551,1.551,0,1,0-3.1,0V56.651a12.719,12.719,0,0,0-2.025.942,12.583,12.583,0,0,0-3.046,2.465V43.144a1.551,1.551,0,1,0-3.1,0V60.058a12.569,12.569,0,0,0-3.046-2.465,12.866,12.866,0,0,0-2.025-.942V46.609a1.551,1.551,0,1,0-3.1,0v9.358a12.455,12.455,0,0,0-5.9.908,1.553,1.553,0,0,0-.944,1.636,12.41,12.41,0,0,0,3.306,6.965,12.876,12.876,0,0,0-2.362.716,1.553,1.553,0,0,0-.944,1.636,12.41,12.41,0,0,0,3.306,6.965,12.911,12.911,0,0,0-2.362.716,1.553,1.553,0,0,0-.944,1.636,12.43,12.43,0,0,0,15.017,10.579v13.805L86.41,91.735a22.866,22.866,0,0,1-9.968-19.184V47.484Zm69.3,23.773a4.734,4.734,0,0,1,1.225,3.589c-.162,1.943-.283,4.164-.411,6.518-.505,9.258-1.134,20.78-4.911,27.532-2.216,3.961-4.868,6.229-7.674,8.63a51.828,51.828,0,0,0-4.649,4.336c-4.052,4.4-4.814,6.475-5.072,9.733a1.551,1.551,0,0,1-1.546,1.427H81.1a1.551,1.551,0,0,1-1.546-1.427c-.258-3.258-1.02-5.331-5.071-9.733a51.9,51.9,0,0,0-4.65-4.336c-2.807-2.4-5.459-4.669-7.674-8.63-3.778-6.752-4.406-18.273-4.911-27.532-.128-2.354-.25-4.576-.411-6.518a4.7,4.7,0,0,1,4.7-5.107h.174a4.708,4.708,0,0,1,4.575,3.57l4.533,18.133a11.676,11.676,0,0,0,3.339,5.821l4.443,4.344a5.209,5.209,0,0,1,6.045.358L98.1,112.855a14.437,14.437,0,0,1,3.807,4.625,14.439,14.439,0,0,1,3.806-4.625l13.453-10.89a5.208,5.208,0,0,1,6.044-.358l4.442-4.344a11.678,11.678,0,0,0,3.34-5.821l4.533-18.133a4.709,4.709,0,0,1,4.575-3.57h.174A4.73,4.73,0,0,1,145.746,71.257Zm-45.394,58.661H82.486c-.534-3.568-2.033-6.15-5.721-10.158a54.1,54.1,0,0,0-4.916-4.59c-2.7-2.313-5.038-4.311-6.983-7.788-3.426-6.125-4.033-17.249-4.52-26.187-.129-2.375-.252-4.621-.417-6.607a1.6,1.6,0,0,1,1.607-1.746h.174a1.573,1.573,0,0,1,1.565,1.22l4.533,18.13a14.8,14.8,0,0,0,4.18,7.288l4.6,4.495a5.218,5.218,0,0,0,1.515,6.077l11.778,9.534a1.551,1.551,0,1,0,1.952-2.412L80.051,107.64a2.109,2.109,0,0,1-.311-2.952v0a2.1,2.1,0,0,1,2.951-.31l13.452,10.891a11.009,11.009,0,0,1,4.208,8.82v5.832Zm43.526-55.331c-.166,1.986-.288,4.232-.418,6.607-.488,8.938-1.094,20.063-4.52,26.187-1.946,3.477-4.28,5.475-6.983,7.788a54.058,54.058,0,0,0-4.915,4.59c-3.689,4.009-5.188,6.59-5.721,10.158H103.455v-5.831a11.01,11.01,0,0,1,4.208-8.82l13.453-10.891a2.1,2.1,0,0,1,2.641,3.264l-11.777,9.534a1.551,1.551,0,0,0,1.952,2.412l11.778-9.534a5.221,5.221,0,0,0,1.515-6.077l4.6-4.495A14.81,14.81,0,0,0,136,92.193l4.533-18.13a1.572,1.572,0,0,1,1.565-1.22h.174a1.6,1.6,0,0,1,1.608,1.745Z" transform="translate(0 0)" fill="#060707" fill-rule="evenodd"/>
    </g>
  </g>
</svg>
