<svg xmlns="http://www.w3.org/2000/svg" xmlns:xlink="http://www.w3.org/1999/xlink" width="118" height="118" viewBox="0 0 118 118">
  <defs>
    <filter id="Trazado_896985" x="0" y="0" width="118" height="118" filterUnits="userSpaceOnUse">
      <feOffset dy="3" input="SourceAlpha"/>
      <feGaussianBlur stdDeviation="3" result="blur"/>
      <feFlood flood-opacity="0.161"/>
      <feComposite operator="in" in2="blur"/>
      <feComposite in="SourceGraphic"/>
    </filter>
  </defs>
  <g id="Grupo_1198427" data-name="Grupo 1198427" transform="translate(-826.891 -2351.719)">
    <g id="Grupo_1198127" data-name="Grupo 1198127" transform="translate(501 -1494.281)">
      <g id="Grupo_1111318" data-name="Grupo 1111318" transform="translate(334.891 3852)">
        <g id="Grupo_1109826" data-name="Grupo 1109826" transform="translate(0)">
          <g id="Grupo_1098742" data-name="Grupo 1098742" transform="translate(0 0)">
            <g transform="matrix(1, 0, 0, 1, -9, -6)" filter="url(#Trazado_896985)">
              <g id="Trazado_896985-2" data-name="Trazado 896985" transform="translate(9 6)" fill="#f4f9ff" opacity="0.859">
                <path d="M 49.99993515014648 98.5 C 43.45182037353516 98.5 37.10037612915039 97.21788024902344 31.12203598022461 94.68925476074219 C 25.34687805175781 92.24656677246094 20.15993499755859 88.74932098388672 15.70530700683594 84.29469299316406 C 11.25067806243896 79.84006500244141 7.753435134887695 74.65312194824219 5.310749530792236 68.87796783447266 C 2.782120943069458 62.89962387084961 1.500006556510925 56.54818344116211 1.500006556510925 50.00006866455078 C 1.500006556510925 43.45180892944336 2.782120943069458 37.10036849975586 5.310749530792236 31.12202453613281 C 7.753435134887695 25.34686851501465 11.25067806243896 20.15992546081543 15.70530700683594 15.70529651641846 C 20.15993499755859 11.25066757202148 25.34687805175781 7.753424644470215 31.12203598022461 5.310739040374756 C 37.10037612915039 2.782110452651978 43.45182037353516 1.499996185302734 49.99993515014648 1.499996185302734 C 56.54804992675781 1.499996185302734 62.89949417114258 2.782110452651978 68.87783813476562 5.310739040374756 C 74.65299224853516 7.753424644470215 79.83993530273438 11.25066757202148 84.29457855224609 15.70529651641846 C 88.74920654296875 20.15992546081543 92.24643707275391 25.34686851501465 94.68911743164062 31.12202453613281 C 97.21775054931641 37.10036849975586 98.4998779296875 43.45180892944336 98.4998779296875 49.99992370605469 C 98.4998779296875 56.54818344116211 97.21775054931641 62.89962387084961 94.68911743164062 68.87796783447266 C 92.24643707275391 74.65312194824219 88.74920654296875 79.84006500244141 84.29457855224609 84.29469299316406 C 79.83993530273438 88.74932098388672 74.65299224853516 92.24656677246094 68.87783813476562 94.68925476074219 C 62.89949417114258 97.21788024902344 56.54804992675781 98.5 49.99993515014648 98.5 Z" stroke="none"/>
                <path d="M 49.99993515014648 2.999992370605469 C 43.65365982055664 2.999992370605469 37.49881362915039 4.242256164550781 31.70636749267578 6.6922607421875 C 26.10999298095703 9.059318542480469 21.08332061767578 12.44859313964844 16.76596832275391 16.76596832275391 C 12.44859313964844 21.08332061767578 9.059318542480469 26.10999298095703 6.6922607421875 31.70636749267578 C 4.242256164550781 37.49880981445312 3 43.65365600585938 3 50.00005722045898 C 3 56.34633636474609 4.242256164550781 62.50118255615234 6.6922607421875 68.29362487792969 C 9.059318542480469 73.88999938964844 12.44859313964844 78.91667175292969 16.76596832275391 83.23402404785156 C 21.08332061767578 87.55139923095703 26.10999298095703 90.940673828125 31.70636749267578 93.30773162841797 C 37.49881362915039 95.75773620605469 43.65365982055664 97 49.99993515014648 97 C 56.34621047973633 97 62.50105667114258 95.75773620605469 68.29350280761719 93.30773162841797 C 73.88987731933594 90.940673828125 78.91654968261719 87.55139923095703 83.23390197753906 83.23402404785156 C 87.55126953125 78.91667175292969 90.9405517578125 73.88999938964844 93.30760955810547 68.29362487792969 C 95.75761413574219 62.50118255615234 96.99987030029297 56.34633636474609 96.99987030029297 49.99993515014648 C 96.99987030029297 43.65365600585938 95.75761413574219 37.49880981445312 93.30760955810547 31.70636749267578 C 90.9405517578125 26.10999298095703 87.55126953125 21.08332061767578 83.23390197753906 16.76596832275391 C 78.91654968261719 12.44859313964844 73.88987731933594 9.059318542480469 68.29350280761719 6.6922607421875 C 62.50105667114258 4.242256164550781 56.34621047973633 2.999992370605469 49.99993515014648 2.999992370605469 M 49.99993515014648 -7.62939453125e-06 C 77.6141357421875 -7.62939453125e-06 99.99987030029297 22.38573455810547 99.99987030029297 49.99993515014648 L 99.99987030029297 50.00005722045898 C 99.99987030029297 77.6142578125 77.6141357421875 100 49.99993515014648 100 C 22.38573455810547 100 0 77.6142578125 0 50.00005722045898 L 0 49.99993515014648 C 0 22.38573455810547 22.38573455810547 -7.62939453125e-06 49.99993515014648 -7.62939453125e-06 Z" stroke="none" fill="#9cc8ff"/>
              </g>
            </g>
            <g id="Rectángulo_400907" data-name="Rectángulo 400907" transform="translate(0)" fill="none" stroke="#9cc8ff" stroke-width="3">
              <rect width="100" height="100" rx="50" stroke="none"/>
              <rect x="1.5" y="1.5" width="97" height="97" rx="48.5" fill="none"/>
            </g>
          </g>
        </g>
      </g>
    </g>
    <g id="botanic_3296163" transform="translate(851.785 2349.459)">
      <g id="Grupo_1198425" data-name="Grupo 1198425" transform="translate(1.065 26.886)">
        <path id="Trazado_916955" data-name="Trazado 916955" d="M40.54,131.164H10.34A2.84,2.84,0,0,0,7.5,134v39.173a2.84,2.84,0,0,0,2.84,2.84h60.4a2.84,2.84,0,0,0,2.84-2.84V134a2.84,2.84,0,0,0-2.84-2.84Z" transform="translate(-7.5 -117.27)" fill="#71e4bf"/>
        <path id="Trazado_916956" data-name="Trazado 916956" d="M268.847,152.591H240.171V112a2.84,2.84,0,0,1,2.84-2.84h25.827Z" transform="translate(-207.131 -98.386)" fill="#fef2e2"/>
        <path id="Trazado_916957" data-name="Trazado 916957" d="M66.972,123.179H38.3V79.743l5.992-2.834A21.8,21.8,0,0,1,64.97,78.151a4.252,4.252,0,0,1,1.994,3.608Z" transform="translate(-33.923 -68.974)" fill="#fef2e2"/>
        <g id="Grupo_1198424" data-name="Grupo 1198424" transform="translate(27.849 7.541)">
          <path id="Trazado_916958" data-name="Trazado 916958" d="M208.8,91.671a4.252,4.252,0,0,0-1.994-3.608,21.349,21.349,0,0,0-3.2-1.635c.12.071.24.142.358.215a4.252,4.252,0,0,1,1.994,3.608l.008,42.84h2.84Z" transform="translate(-203.611 -86.428)" fill="#ffe1ba"/>
        </g>
        <path id="Trazado_916959" data-name="Trazado 916959" d="M268.847,375.08H240.171v-3.772a2.84,2.84,0,0,1,2.84-2.84h25.827Z" transform="translate(-207.131 -320.876)" fill="#ffe1ba"/>
        <path id="Trazado_916960" data-name="Trazado 916960" d="M66.963,338.76a4.252,4.252,0,0,0-1.994-3.608,21.8,21.8,0,0,0-20.682-1.242l-5.992,2.834v6.94H66.964Z" transform="translate(-33.922 -289.48)" fill="#ffe1ba"/>
        <path id="Trazado_916961" data-name="Trazado 916961" d="M44.288,333.91,38.3,336.743v.328H66.614a4.231,4.231,0,0,0-1.645-1.921A21.8,21.8,0,0,0,44.288,333.91Z" transform="translate(-33.923 -289.479)" fill="#ffc277"/>
        <ellipse id="Elipse_12130" data-name="Elipse 12130" cx="2.13" cy="5.68" rx="2.13" ry="5.68" transform="matrix(0.766, -0.643, 0.643, 0.766, 10.003, 11.73)" fill="#71e4bf"/>
        <ellipse id="Elipse_12131" data-name="Elipse 12131" cx="5.68" cy="2.13" rx="5.68" ry="2.13" transform="matrix(0.643, -0.766, 0.766, 0.643, 18.004, 17.703)" fill="#b6efbb"/>
        <ellipse id="Elipse_12132" data-name="Elipse 12132" cx="2.13" cy="5.68" rx="2.13" ry="5.68" transform="matrix(0.766, -0.643, 0.643, 0.766, 10.005, 21.974)" fill="#b6efbb"/>
        <ellipse id="Elipse_12133" data-name="Elipse 12133" cx="5.68" cy="2.13" rx="5.68" ry="2.13" transform="matrix(0.643, -0.766, 0.766, 0.643, 18.003, 27.949)" fill="#71e4bf"/>
        <ellipse id="Elipse_12134" data-name="Elipse 12134" cx="2.13" cy="5.68" rx="2.13" ry="5.68" transform="translate(17.136 0)" fill="#b6efbb"/>
        <path id="Trazado_916962" data-name="Trazado 916962" d="M285.485,259.758h7.2v8.378h-7.2Z" transform="translate(-246.01 -227.603)" fill="#ffc277"/>
      </g>
      <g id="Grupo_1198426" data-name="Grupo 1198426" transform="translate(0 25.821)">
        <path id="Trazado_916963" data-name="Trazado 916963" d="M64.306,39.715h-.468V36.59H36.946a3.883,3.883,0,0,0-2.308.758c-.041-.085-.084-.171-.13-.254a5.306,5.306,0,0,0-1.832-1.934,22.847,22.847,0,0,0-9.163-3.248c-.126-3.046-1.133-6.09-3.181-6.09-2.064,0-3.071,3.09-3.184,6.16a22.2,22.2,0,0,0-6.172,1.878l-6.6,3.122v2.735H3.905A3.909,3.909,0,0,0,0,43.62v3.564H2.13V43.62a1.777,1.777,0,0,1,1.775-1.775h.468v40.31H49.016v-2.13H35.17V77.319a1.777,1.777,0,0,1,1.775-1.775h24.77v4.482H51.146v2.13h12.7l-.008-40.31h.467a1.777,1.777,0,0,1,1.775,1.775V82.793a1.777,1.777,0,0,1-1.775,1.775H3.905A1.777,1.777,0,0,1,2.13,82.793V49.323H0V82.793A3.909,3.909,0,0,0,3.905,86.7h60.4a3.909,3.909,0,0,0,3.905-3.905V43.62a3.91,3.91,0,0,0-3.905-3.905ZM20.331,28c.37.35,1.065,1.9,1.065,4.57s-.695,4.22-1.065,4.57c-.37-.35-1.065-1.9-1.065-4.57S19.961,28.346,20.331,28Zm3.2,23.169c1.717-2.045,3.245-2.786,3.753-2.816.059.506-.405,2.139-2.122,4.185s-3.245,2.786-3.753,2.816c0-.006,0-.014,0-.02,0-.048,0-.1,0-.144a8.244,8.244,0,0,1,2.123-4.02ZM19.27,45.1c-.523-.043-2.037-.788-3.737-2.814-1.716-2.046-2.18-3.679-2.121-4.185.509.03,2.037.771,3.753,2.816a8.829,8.829,0,0,1,2.1,3.859Zm.006,10.245c-.517-.037-2.036-.78-3.744-2.815s-2.18-3.679-2.121-4.185c.509.03,2.037.771,3.753,2.816a8.681,8.681,0,0,1,2.111,3.9Zm2.134-10.4a8.206,8.206,0,0,1,2.124-4.03c1.717-2.046,3.245-2.786,3.753-2.816.059.506-.405,2.139-2.122,4.185s-3.245,2.786-3.753,2.816c0-.011,0-.026,0-.038,0-.038,0-.077,0-.117Zm-9.524-9.167a20.047,20.047,0,0,1,5.328-1.656c.215,2.137.88,4.119,2.053,4.867V40.14q-.226-.3-.47-.589a12.932,12.932,0,0,0-3.352-2.919c-1.906-1.076-2.968-.584-3.431-.2s-1.133,1.349-.4,3.413A12.929,12.929,0,0,0,13.9,43.658a12.932,12.932,0,0,0,3.352,2.919,4.383,4.383,0,0,0,2.018.65l0,3.167c-.155-.2-.314-.4-.477-.6a12.934,12.934,0,0,0-3.352-2.919c-1.905-1.076-2.968-.584-3.431-.195-1.682,1.411-.2,4.732,1.888,7.221,1.588,1.893,3.711,3.523,5.376,3.575l0,4.609h2.13l0-4.613a4.362,4.362,0,0,0,2.037-.65A12.929,12.929,0,0,0,26.8,53.9c2.088-2.488,3.57-5.81,1.889-7.221s-4.7.624-6.784,3.113q-.259.309-.5.625l0-3.193a4.355,4.355,0,0,0,2.043-.65A12.929,12.929,0,0,0,26.8,43.659c2.088-2.488,3.57-5.81,1.889-7.221-.464-.389-1.526-.881-3.431.194A12.929,12.929,0,0,0,21.9,39.551c-.173.206-.341.418-.5.634V38.994c1.186-.758,1.853-2.778,2.059-4.943a20.7,20.7,0,0,1,8.092,2.915,3.172,3.172,0,0,1,1.095,1.156,3.213,3.213,0,0,1,.4,1.548v.808c0,.006,0,.011,0,.016V71.906c-.118-.088-.239-.173-.365-.252a22.887,22.887,0,0,0-21.7-1.3L6.5,72.468V38.329ZM31.468,73.414H9.487l2.4-1.134a20.736,20.736,0,0,1,19.583,1.134ZM6.5,80.025V75.544H32.981a3.254,3.254,0,0,1,.06.609v3.873Zm30.442-6.612a3.878,3.878,0,0,0-1.775.429V40.487a1.777,1.777,0,0,1,1.775-1.767H61.708l.007,34.694Z" transform="translate(0 -25.821)"/>
        <path id="Trazado_916964" data-name="Trazado 916964" d="M277.485,146.418H287.1v2.13h-9.612Z" transform="translate(-238.081 -129.293)"/>
        <path id="Trazado_916965" data-name="Trazado 916965" d="M277.485,191.406h18.082v2.13H277.485Z" transform="translate(-238.081 -167.892)"/>
        <path id="Trazado_916966" data-name="Trazado 916966" d="M307,221.406h13.89v2.13H307Z" transform="translate(-263.408 -193.632)"/>
        <path id="Trazado_916967" data-name="Trazado 916967" d="M0,0H6.341V2.13H0Z" transform="translate(51.147 36.194) rotate(-0.458)"/>
        <path id="Trazado_916968" data-name="Trazado 916968" d="M0,0H6.341V2.13H0Z" transform="translate(51.146 32.029) rotate(-0.458)"/>
        <path id="Trazado_916969" data-name="Trazado 916969" d="M0,0H2.13V6.341H0Z" transform="translate(51.157 42.634) rotate(-89.599)"/>
        <path id="Trazado_916970" data-name="Trazado 916970" d="M277.985,262.766h9.328V252.258h-9.328Zm2.13-8.378h5.068v6.248h-5.068Z" transform="translate(-238.51 -220.103)"/>
        <path id="Trazado_916971" data-name="Trazado 916971" d="M135.775,296.258h2.13v2.121h-2.13Z" transform="translate(-116.494 -257.855)"/>
        <path id="Trazado_916972" data-name="Trazado 916972" d="M277.171,221.406h2.13v2.13h-2.13Z" transform="translate(-237.811 -193.632)"/>
      </g>
    </g>
  </g>
</svg>
