<svg xmlns="http://www.w3.org/2000/svg" xmlns:xlink="http://www.w3.org/1999/xlink" width="118" height="118" viewBox="0 0 118 118">
  <defs>
    <filter id="Trazado_896985" x="0" y="0" width="118" height="118" filterUnits="userSpaceOnUse">
      <feOffset dy="3" input="SourceAlpha"/>
      <feGaussianBlur stdDeviation="3" result="blur"/>
      <feFlood flood-opacity="0.161"/>
      <feComposite operator="in" in2="blur"/>
      <feComposite in="SourceGraphic"/>
    </filter>
  </defs>
  <g id="Grupo_1198250" data-name="Grupo 1198250" transform="translate(-326 -2270.544)">
    <g id="Grupo_1197924" data-name="Grupo 1197924" transform="translate(0.109 -1575.456)">
      <g id="Grupo_1111318" data-name="Grupo 1111318" transform="translate(334.891 3852)">
        <g id="Grupo_1109826" data-name="Grupo 1109826" transform="translate(0)">
          <g id="Grupo_1098742" data-name="Grupo 1098742" transform="translate(0 0)">
            <g transform="matrix(1, 0, 0, 1, -9, -6)" filter="url(#Trazado_896985)">
              <g id="Trazado_896985-2" data-name="Trazado 896985" transform="translate(9 6)" fill="#fc0" opacity="0.859">
                <path d="M 49.99993515014648 99.5 C 43.31726837158203 99.5 36.83476257324219 98.19129943847656 30.73248100280762 95.61025238037109 C 24.83812141418457 93.11714172363281 19.54434776306152 89.54795837402344 14.99820137023926 85.00179290771484 C 10.45204162597656 80.45565032958984 6.88285493850708 75.16187286376953 4.389748573303223 69.26751708984375 C 1.808695197105408 63.16523742675781 0.5000017881393433 56.6827278137207 0.5000017881393433 50.00006103515625 C 0.5000017881393433 43.31726455688477 1.808695197105408 36.83475494384766 4.389748573303223 30.73247528076172 C 6.88285493850708 24.83811569213867 10.45204162597656 19.54434204101562 14.99820137023926 14.99819660186768 C 19.54434776306152 10.45203590393066 24.83812141418457 6.88284969329834 30.73248100280762 4.389742851257324 C 36.83476257324219 1.808689475059509 43.31726837158203 0.4999961853027344 49.99993515014648 0.4999961853027344 C 56.68260192871094 0.4999961853027344 63.16510772705078 1.808689475059509 69.26738739013672 4.389742851257324 C 75.16175079345703 6.88284969329834 80.45552062988281 10.45203590393066 85.00167083740234 14.99819660186768 C 89.54782867431641 19.54434204101562 93.11701202392578 24.83811569213867 95.61012268066406 30.73247528076172 C 98.19117736816406 36.83475494384766 99.49987030029297 43.31726455688477 99.49987030029297 49.99993133544922 C 99.49987030029297 56.6827278137207 98.19117736816406 63.16523742675781 95.61012268066406 69.26751708984375 C 93.11701202392578 75.16187286376953 89.54782867431641 80.45565032958984 85.00167083740234 85.00179290771484 C 80.45552062988281 89.54795837402344 75.16175079345703 93.11714172363281 69.26738739013672 95.61025238037109 C 63.16510772705078 98.19129943847656 56.68260192871094 99.5 49.99993515014648 99.5 Z" stroke="none"/>
                <path d="M 49.99993515014648 0.9999923706054688 C 43.38454818725586 0.9999923706054688 36.96757507324219 2.29541015625 30.92725372314453 4.850250244140625 C 25.09249877929688 7.318145751953125 19.85213470458984 10.85135650634766 15.35174560546875 15.35174560546875 C 10.85136413574219 19.85212707519531 7.318145751953125 25.09249114990234 4.850257873535156 30.92724609375 C 2.295417785644531 36.96757125854492 1 43.38454437255859 1 50.00006103515625 C 1 56.61544799804688 2.295417785644531 63.03242111206055 4.850257873535156 69.07273864746094 C 7.318145751953125 74.90750122070312 10.85136413574219 80.14786529541016 15.35174560546875 84.64824676513672 C 19.85213470458984 89.14863586425781 25.09249877929688 92.68184661865234 30.92725372314453 95.14974212646484 C 36.96757507324219 97.70458221435547 43.38454818725586 99 49.99993515014648 99 C 56.61532211303711 99 63.03229522705078 97.70458221435547 69.07261657714844 95.14974212646484 C 74.90737915039062 92.68184661865234 80.14773559570312 89.14863586425781 84.64812469482422 84.64824676513672 C 89.14850616455078 80.14786529541016 92.68172454833984 74.90750122070312 95.14961242675781 69.07273864746094 C 97.70445251464844 63.03242111206055 98.99987030029297 56.61544799804688 98.99987030029297 49.99993133544922 C 98.99987030029297 43.38454437255859 97.70445251464844 36.96757125854492 95.14961242675781 30.92724609375 C 92.68172454833984 25.09249114990234 89.14850616455078 19.85212707519531 84.64812469482422 15.35174560546875 C 80.14773559570312 10.85135650634766 74.90737915039062 7.318145751953125 69.07261657714844 4.850250244140625 C 63.03229522705078 2.29541015625 56.61532211303711 0.9999923706054688 49.99993515014648 0.9999923706054688 M 49.99993515014648 -7.62939453125e-06 C 77.6141357421875 -7.62939453125e-06 99.99987030029297 22.38572692871094 99.99987030029297 49.99993133544922 L 99.99987030029297 50.00006103515625 C 99.99987030029297 77.61426544189453 77.6141357421875 100 49.99993515014648 100 C 22.38573455810547 100 0 77.61426544189453 0 50.00006103515625 L 0 49.99993133544922 C 0 22.38572692871094 22.38573455810547 -7.62939453125e-06 49.99993515014648 -7.62939453125e-06 Z" stroke="none" fill="#fff"/>
              </g>
            </g>
            <g id="Rectángulo_400907" data-name="Rectángulo 400907" transform="translate(0)" fill="none" stroke="#fff" stroke-width="1">
              <rect width="100" height="100" rx="50" stroke="none"/>
              <rect x="0.5" y="0.5" width="99" height="99" rx="49.5" fill="none"/>
            </g>
          </g>
        </g>
      </g>
    </g>
    <g id="data-analysis_12966901" transform="translate(340.45 2289.58)">
      <g id="Grupo_1198249" data-name="Grupo 1198249" transform="translate(14.478 1.714)">
        <g id="Grupo_1198232" data-name="Grupo 1198232" transform="translate(30.591 36.32)">
          <path id="Trazado_916326" data-name="Trazado 916326" d="M240.2,263.494l-5.847,3.375,7.563,13.1,5.847-3.379Z" transform="translate(-234.352 -263.494)" fill="#4a4d71" fill-rule="evenodd"/>
        </g>
        <g id="Grupo_1198233" data-name="Grupo 1198233" transform="translate(1.727)">
          <path id="Trazado_916327" data-name="Trazado 916327" d="M44.162,12.24A24.108,24.108,0,1,0,77.1,21.061,24.109,24.109,0,0,0,44.162,12.24Z" transform="translate(-32.104 -9.004)" fill="#5b5e8b" fill-rule="evenodd"/>
        </g>
        <g id="Grupo_1198234" data-name="Grupo 1198234" transform="translate(36.564 48.766)">
          <path id="Trazado_916328" data-name="Trazado 916328" d="M291.435,371.615a5.948,5.948,0,0,1-8.105-2.169l-6.9-11.957a1.71,1.71,0,0,1,.623-2.327l7.324-4.228a1.708,1.708,0,0,1,2.327.623l6.9,11.957A5.948,5.948,0,0,1,291.435,371.615Z" transform="translate(-276.2 -350.707)" fill="#ff5ba8" fill-rule="evenodd"/>
        </g>
        <g id="Grupo_1198235" data-name="Grupo 1198235" transform="translate(6.292 4.563)">
          <path id="Trazado_916329" data-name="Trazado 916329" d="M73.862,43.6a19.548,19.548,0,1,0,26.7,7.154,19.545,19.545,0,0,0-26.7-7.154Z" transform="translate(-64.085 -40.977)" fill="#a8f3ff" fill-rule="evenodd"/>
        </g>
        <g id="Grupo_1198236" data-name="Grupo 1198236" transform="translate(13.001 22.181)">
          <path id="Trazado_916330" data-name="Trazado 916330" d="M111.1,164.427h5.94v11.035H111.1Z" transform="translate(-111.1 -164.427)" fill="#ff5ba8" fill-rule="evenodd"/>
        </g>
        <g id="Grupo_1198237" data-name="Grupo 1198237" transform="translate(22.871 26.531)">
          <path id="Trazado_916331" data-name="Trazado 916331" d="M180.254,194.907h5.94v6.685h-5.94Z" transform="translate(-180.254 -194.907)" fill="#a1a1f8" fill-rule="evenodd"/>
        </g>
        <g id="Grupo_1198238" data-name="Grupo 1198238" transform="translate(32.74 16.609)">
          <path id="Trazado_916332" data-name="Trazado 916332" d="M249.408,125.384h5.94v16.607h-5.94Z" transform="translate(-249.408 -125.384)" fill="#00d696" fill-rule="evenodd"/>
        </g>
        <g id="Grupo_1198239" data-name="Grupo 1198239" transform="translate(51.196 38.448)">
          <path id="Trazado_916333" data-name="Trazado 916333" d="M394.346,289.872H379.269c-.3,0-.542-.53-.542-1.182v-9.1c0-.648.243-1.182.542-1.182h15.077c.3,0,.546.534.546,1.182v9.1C394.893,289.342,394.646,289.872,394.346,289.872Z" transform="translate(-378.727 -278.408)" fill="#00d696" fill-rule="evenodd"/>
        </g>
        <g id="Grupo_1198240" data-name="Grupo 1198240" transform="translate(0 37.881)">
          <path id="Trazado_916334" data-name="Trazado 916334" d="M40.091,278.962a12.356,12.356,0,0,1,1.882.781l3.921-2.476,3.9,3.9-2.472,3.921a12.608,12.608,0,0,1,.781,1.882l4.52,1.024V293.5l-4.52,1.024a12.6,12.6,0,0,1-.781,1.882l2.472,3.921-3.9,3.9-3.921-2.476a12.789,12.789,0,0,1-1.882.781l-1.024,4.52H33.552l-1.02-4.52a12.432,12.432,0,0,1-1.882-.781l-3.925,2.476-3.9-3.9,2.476-3.921a11.817,11.817,0,0,1-.781-1.882L20,293.505v-5.511l4.524-1.024a11.811,11.811,0,0,1,.781-1.882l-2.476-3.921,3.9-3.9,3.925,2.476a12.028,12.028,0,0,1,1.882-.781l1.02-4.524h5.515Z" transform="translate(-20 -274.438)" fill="#a1a1f8" fill-rule="evenodd"/>
        </g>
        <g id="Grupo_1198241" data-name="Grupo 1198241" transform="translate(0 37.881)">
          <path id="Trazado_916335" data-name="Trazado 916335" d="M39.629,304.564l-.562,2.493H33.552l-1.02-4.52a12.431,12.431,0,0,1-1.882-.781l-3.925,2.476-3.9-3.9,2.476-3.921a11.816,11.816,0,0,1-.781-1.882L20,293.505v-5.511l4.524-1.024a11.812,11.812,0,0,1,.781-1.882l-2.476-3.921,3.9-3.9,3.925,2.476a12.032,12.032,0,0,1,1.882-.781l1.02-4.524h5.515l.562,2.5a14.18,14.18,0,0,0,0,27.629Z" transform="translate(-20 -274.438)" fill="#9494f7" fill-rule="evenodd"/>
        </g>
        <g id="Grupo_1198242" data-name="Grupo 1198242" transform="translate(7.968 45.849)">
          <path id="Trazado_916336" data-name="Trazado 916336" d="M84.172,346.95a8.342,8.342,0,1,0-8.344-8.34A8.357,8.357,0,0,0,84.172,346.95Z" transform="translate(-75.828 -330.266)" fill="#f1f0ff" fill-rule="evenodd"/>
        </g>
        <g id="Grupo_1198243" data-name="Grupo 1198243" transform="translate(7.968 45.849)">
          <path id="Trazado_916337" data-name="Trazado 916337" d="M77.739,338.61a8.341,8.341,0,0,1,7.385-8.287,8.22,8.22,0,0,0-.951-.057,8.342,8.342,0,1,0,0,16.684,8.222,8.222,0,0,0,.951-.053,8.341,8.341,0,0,1-7.385-8.287Z" transform="translate(-75.829 -330.266)" fill="#d0d0f7" fill-rule="evenodd"/>
        </g>
        <g id="Grupo_1198244" data-name="Grupo 1198244" transform="translate(36.564 52.776)">
          <path id="Trazado_916338" data-name="Trazado 916338" d="M291.435,395.705a5.948,5.948,0,0,1-8.105-2.169l-6.9-11.957a1.71,1.71,0,0,1,.623-2.327l.769-.445a1.712,1.712,0,0,0,.134,1.408l6.9,11.957a5.953,5.953,0,0,0,8.105,2.169l.162-.1A5.9,5.9,0,0,1,291.435,395.705Z" transform="translate(-276.2 -378.807)" fill="#ed4593" fill-rule="evenodd"/>
        </g>
        <g id="Grupo_1198245" data-name="Grupo 1198245" transform="translate(51.196 38.448)">
          <path id="Trazado_916339" data-name="Trazado 916339" d="M379.808,288.69v-9.1c0-.648.247-1.182.546-1.182h-1.085c-.3,0-.542.534-.542,1.182v9.1c0,.651.243,1.182.542,1.182h1.085C380.054,289.872,379.808,289.342,379.808,288.69Z" transform="translate(-378.727 -278.408)" fill="#00c78b" fill-rule="evenodd"/>
        </g>
        <g id="Grupo_1198246" data-name="Grupo 1198246" transform="translate(13.001 22.181)">
          <path id="Trazado_916340" data-name="Trazado 916340" d="M111.1,164.427h2.97v11.035H111.1Z" transform="translate(-111.1 -164.427)" fill="#ed4593" fill-rule="evenodd"/>
        </g>
        <g id="Grupo_1198247" data-name="Grupo 1198247" transform="translate(22.871 26.531)">
          <path id="Trazado_916341" data-name="Trazado 916341" d="M180.254,194.907h2.97v6.685h-2.97Z" transform="translate(-180.254 -194.907)" fill="#9494f7" fill-rule="evenodd"/>
        </g>
        <g id="Grupo_1198248" data-name="Grupo 1198248" transform="translate(32.74 16.609)">
          <path id="Trazado_916342" data-name="Trazado 916342" d="M249.408,125.384h2.97v16.607h-2.97Z" transform="translate(-249.408 -125.384)" fill="#00c78b" fill-rule="evenodd"/>
        </g>
      </g>
      <path id="Trazado_916343" data-name="Trazado 916343" d="M44.828,15.215l.091-1.559-5.177,6.357a1,1,0,0,1-1.469.085l-4.8-4.67-4.837,5.264a1,1,0,0,1-1.468-1.349L32.7,13.323a1,1,0,0,1,1.43-.04l4.754,4.626,4.641-5.7-1.664.186a1,1,0,1,1-.222-1.982l4.328-.484a1,1,0,0,1,1.106,1.049l-.254,4.352a1,1,0,0,1-.994.939l-.059,0a1,1,0,0,1-.937-1.054ZM43.3,26.976a1,1,0,0,1,1,1v6.669a1,1,0,0,1-1,1H37.374a1,1,0,0,1-1-1V27.974a1,1,0,0,1,1-1Zm-1,1.994H38.371v4.675H42.3Zm-8.849-6.338a1,1,0,0,1,1,1V34.643a1,1,0,0,1-1,1H27.528a1,1,0,0,1-1-1V23.63a1,1,0,0,1,1-1h5.926Zm-1,1.994H28.525v9.019h3.932Zm14.764-7.55h5.926a1,1,0,0,1,1,1V34.643a1,1,0,0,1-1,1H47.221a1,1,0,0,1-1-1V18.075a1,1,0,0,1,1-1Zm1,16.568H52.15V19.072H48.218ZM39.909,56.157a9.081,9.081,0,1,1-9.079-9.079A9.09,9.09,0,0,1,39.909,56.157Zm-1.994,0a7.087,7.087,0,1,0-7.085,7.085A7.093,7.093,0,0,0,37.915,56.157ZM82.759,41.042v9.079c0,1.281-.634,2.176-1.542,2.176H66.175c-.908,0-1.542-.895-1.542-2.176V41.042c0-1.281.634-2.176,1.542-2.176H72.7v-9.16a1.754,1.754,0,0,0-1.752-1.752H65.278a25.362,25.362,0,0,1-.743,4.091,24.861,24.861,0,0,1-8.316,12.895l2.607,4.513a2.7,2.7,0,0,1,3.55,1.053l6.888,11.931a6.922,6.922,0,0,1-2.528,9.444,6.852,6.852,0,0,1-3.438.926,6.986,6.986,0,0,1-1.81-.24,6.865,6.865,0,0,1-4.2-3.215L50.4,57.422a2.7,2.7,0,0,1,.862-3.6L48.6,49.212c-.766.269-1.543.5-2.332.7a1,1,0,1,1-.473-1.938A23.115,23.115,0,0,0,62.608,31.528a23.291,23.291,0,0,0,.749-4.561s0-.007,0-.01a1.01,1.01,0,0,1,.007-.116A23.06,23.06,0,1,0,20.369,37.092c.33.569.68,1.12,1.07,1.683A1,1,0,1,1,19.8,39.91c-.415-.6-.8-1.211-1.157-1.82A25.052,25.052,0,1,1,65.395,25.959h5.552a3.751,3.751,0,0,1,3.746,3.746v9.16h6.524c.908,0,1.542.895,1.542,2.176Zm-29.64,14,0,0h0l-.732.423a.7.7,0,0,0-.325.429.689.689,0,0,0,.067.529l6.888,11.932a4.937,4.937,0,0,0,6.724,1.8h0a4.925,4.925,0,0,0,1.8-6.72L60.648,51.5a.7.7,0,0,0-.61-.35.7.7,0,0,0-.349.094Zm1.493-8.894q-.848.586-1.75,1.108a25.248,25.248,0,0,1-2.386,1.216l2.507,4.345,4.11-2.373Zm26.153-5.1a1.446,1.446,0,0,0-.011-.182H66.638a1.446,1.446,0,0,0-.011.182v9.079a1.445,1.445,0,0,0,.011.182H80.754a1.445,1.445,0,0,0,.011-.182V41.042ZM78.1,42.705H69.291a1,1,0,0,0,0,1.994H78.1a1,1,0,1,0,0-1.994ZM46.421,45.091a1,1,0,0,0,.312-.05,20.5,20.5,0,1,0-24.149-9.226,21.39,21.39,0,0,0,1.525,2.274,1,1,0,1,0,1.581-1.216,19.381,19.381,0,0,1-1.38-2.058,18.485,18.485,0,1,1,21.8,8.332,1,1,0,0,0,.311,1.944ZM48.1,53.407v5.5a1,1,0,0,1-.778.973l-3.968.9q-.18.487-.4.964l2.171,3.443a1,1,0,0,1-.138,1.237l-3.888,3.892a1,1,0,0,1-1.238.138l-3.441-2.174c-.319.148-.641.282-.966.4l-.9,3.971a1,1,0,0,1-.973.777h-5.5a1,1,0,0,1-.973-.778l-.895-3.969q-.489-.18-.967-.4L21.8,70.452a1,1,0,0,1-1.237-.139l-3.888-3.892a1,1,0,0,1-.138-1.237l2.173-3.44q-.221-.477-.4-.966l-3.969-.895a1,1,0,0,1-.778-.973v-5.5a1,1,0,0,1,.777-.973l3.971-.9q.18-.486.4-.966l-2.173-3.441a1,1,0,0,1,.138-1.237L20.561,42a1,1,0,0,1,1.237-.138l3.444,2.171c.319-.147.643-.281.967-.4l.9-3.968a1,1,0,0,1,.973-.778h5.5a1,1,0,0,1,.972.777l.9,3.97q.485.18.963.4l3.444-2.171A1,1,0,0,1,41.095,42l3.888,3.888a1,1,0,0,1,.138,1.237l-2.171,3.444q.219.477.4.963l3.97.9a1,1,0,0,1,.777.972Zm-1.995.8-3.733-.845a1,1,0,0,1-.728-.666,11.8,11.8,0,0,0-.719-1.731,1,1,0,0,1,.045-.985l2.042-3.238-2.761-2.761L37.01,46.019a1,1,0,0,1-.985.045,11.845,11.845,0,0,0-1.731-.719,1,1,0,0,1-.666-.729l-.845-3.733H28.874l-.842,3.732a1,1,0,0,1-.668.73,11.713,11.713,0,0,0-1.733.718,1,1,0,0,1-.985-.045l-3.238-2.042-2.761,2.761,2.045,3.238a1,1,0,0,1,.043.99,10.994,10.994,0,0,0-.714,1.721,1,1,0,0,1-.73.671l-3.736.845v3.908l3.736.842a1,1,0,0,1,.732.673,10.676,10.676,0,0,0,.713,1.716,1,1,0,0,1-.042.993l-2.045,3.238,2.761,2.764,3.242-2.046a1,1,0,0,1,.992-.041,10.662,10.662,0,0,0,1.717.712,1,1,0,0,1,.673.732l.842,3.736h3.908l.845-3.736a1,1,0,0,1,.671-.731,10.987,10.987,0,0,0,1.721-.714,1,1,0,0,1,.99.043l3.237,2.045,2.762-2.764-2.042-3.238a1,1,0,0,1-.044-.987,11.46,11.46,0,0,0,.717-1.727,1,1,0,0,1,.73-.668l3.732-.842V54.2Zm32-7.741H69.291a1,1,0,0,0,0,1.995H78.1a1,1,0,1,0,0-1.995Z" transform="translate(0 0)"/>
    </g>
  </g>
</svg>
