<svg xmlns="http://www.w3.org/2000/svg" xmlns:xlink="http://www.w3.org/1999/xlink" width="208.051" height="119.263" viewBox="0 0 208.051 119.263">
  <defs>
    <filter id="influencer-their-pet-creating-content-online-spaces-social-media" x="0" y="32" width="208.051" height="87" filterUnits="userSpaceOnUse">
      <feOffset dy="3" input="SourceAlpha"/>
      <feGaussianBlur stdDeviation="3" result="blur"/>
      <feFlood flood-opacity="0.161"/>
      <feComposite operator="in" in2="blur"/>
      <feComposite in="SourceGraphic"/>
    </filter>
    <filter id="Rect치ngulo_401593" x="42.457" y="0" width="71.898" height="119.263" filterUnits="userSpaceOnUse">
      <feOffset dy="3" input="SourceAlpha"/>
      <feGaussianBlur stdDeviation="3" result="blur-2"/>
      <feFlood flood-opacity="0.161"/>
      <feComposite operator="in" in2="blur-2"/>
      <feComposite in="SourceGraphic"/>
    </filter>
  </defs>
  <g id="Grupo_1198128" data-name="Grupo 1198128" transform="translate(-1220.949 -2117)">
    <g transform="matrix(1, 0, 0, 1, 1220.95, 2117)" filter="url(#influencer-their-pet-creating-content-online-spaces-social-media)">
      <path id="influencer-their-pet-creating-content-online-spaces-social-media-2" data-name="influencer-their-pet-creating-content-online-spaces-social-media" d="M0,0H190.051V69H0Z" transform="translate(9 38)" fill="#f9e5d6"/>
    </g>
    <g id="Grupo_1182090" data-name="Grupo 1182090" transform="translate(1031.625 -3625)">
      <g transform="matrix(1, 0, 0, 1, 189.32, 5742)" filter="url(#Rect치ngulo_401593)">
        <rect id="Rect치ngulo_401593-2" data-name="Rect치ngulo 401593" width="53.898" height="101.263" rx="8" transform="translate(51.46 6)" fill="#ffea99"/>
      </g>
    </g>
    <g id="farmer_2979795_1_" data-name="farmer_2979795 (1)" transform="translate(1288.051 2122)">
      <g id="Grupo_1198447" data-name="Grupo 1198447" transform="translate(6.634 2.634)">
        <g id="Grupo_1198428" data-name="Grupo 1198428" transform="translate(16.339 87.267)">
          <path id="Trazado_916973" data-name="Trazado 916973" d="M48.678,66.177H16v-9.8H35.607a3.2,3.2,0,0,0,2.3-.964Z" transform="translate(-16 -55.41)" fill="#6b9339"/>
        </g>
        <g id="Grupo_1198429" data-name="Grupo 1198429" transform="translate(18.708 54.965)">
          <path id="Trazado_916974" data-name="Trazado 916974" d="M26.518,42.764l8.17-4.9,8.17,4.9,2.827-7.042a42.35,42.35,0,0,1,15.849,7.924l5.588,4.477-7.663,13.79L54.295,59.1V75.442L37.956,59.1a3.277,3.277,0,0,0-3.268-3.268L17.45,38.6a26.148,26.148,0,0,1,6.209-2.957Z" transform="translate(-17.45 -35.64)" fill="#6b9339"/>
        </g>
        <g id="Grupo_1198430" data-name="Grupo 1198430" transform="translate(6.601 62.432)">
          <path id="Trazado_916975" data-name="Trazado 916975" d="M19.778,56.206H10.04a27.54,27.54,0,0,1,.441-3.268A26.52,26.52,0,0,1,16.853,40.21L32.032,55.389l-.817.817Z" transform="translate(-10.04 -40.21)" fill="#6b9339"/>
        </g>
        <g id="Grupo_1198431" data-name="Grupo 1198431" transform="translate(38.25 78.427)">
          <path id="Trazado_916976" data-name="Trazado 916976" d="M49.981,69.607h-9.8L29.41,58.839a3.2,3.2,0,0,0,.964-2.3V50L46.713,66.339Z" transform="translate(-29.41 -50)" fill="#969faa"/>
        </g>
        <g id="Grupo_1198432" data-name="Grupo 1198432" transform="translate(9.803 53.919)">
          <path id="Trazado_916977" data-name="Trazado 916977" d="M20.9,39,38.142,56.241H34.6a3.278,3.278,0,0,0-2.32.964L30.79,58.692,15.611,43.513,12,39.9A4.9,4.9,0,0,1,16.9,35Z" transform="translate(-12 -35)" fill="#969faa"/>
        </g>
        <g id="Grupo_1198433" data-name="Grupo 1198433" transform="translate(3.268 47.383)">
          <path id="Trazado_916978" data-name="Trazado 916978" d="M12.9,31l6.536,6.536a4.9,4.9,0,0,0-4.9,4.9L8,35.9A4.909,4.909,0,0,1,12.9,31Z" transform="translate(-8 -31)" fill="#b27946"/>
        </g>
        <g id="Grupo_1198434" data-name="Grupo 1198434" transform="translate(0 52.285)">
          <path id="Trazado_916979" data-name="Trazado 916979" d="M15.8,40.536l3.611,3.611a26.52,26.52,0,0,0-6.372,12.728H7.634A1.639,1.639,0,0,1,6,55.241V41.892A11.168,11.168,0,0,1,9.268,34Z" transform="translate(-6 -34)" fill="#e6e9ed"/>
        </g>
        <g id="Grupo_1198435" data-name="Grupo 1198435" transform="translate(35.946 53.919)">
          <path id="Trazado_916980" data-name="Trazado 916980" d="M39,36.127,36.17,43.17,28,38.268,34.536,35,38.6,36.013a3.548,3.548,0,0,1,.392.114Z" transform="translate(-28 -35)" fill="#a0d468"/>
        </g>
        <g id="Grupo_1198436" data-name="Grupo 1198436" transform="translate(24.917 53.919)">
          <path id="Trazado_916981" data-name="Trazado 916981" d="M32.279,38.268l-8.17,4.9L21.25,36.046A25.338,25.338,0,0,1,25.743,35Z" transform="translate(-21.25 -35)" fill="#a0d468"/>
        </g>
        <g id="Grupo_1198437" data-name="Grupo 1198437" transform="translate(19.917 6.536)">
          <path id="Trazado_916982" data-name="Trazado 916982" d="M48.76,7.487l1.487,6.9a65.881,65.881,0,0,0-16.029-1.846A65.881,65.881,0,0,0,18.19,14.382l1.487-6.9A68.154,68.154,0,0,1,34.219,6,68.154,68.154,0,0,1,48.76,7.487Z" transform="translate(-18.19 -6)" fill="#fcd770"/>
        </g>
        <g id="Grupo_1198438" data-name="Grupo 1198438" transform="translate(21.404)">
          <path id="Trazado_916983" data-name="Trazado 916983" d="M47.661,7.588l.523,2.435A68.154,68.154,0,0,0,33.642,8.536,68.154,68.154,0,0,0,19.1,10.022l.523-2.435a6.531,6.531,0,0,1,5.67-5.114,73.8,73.8,0,0,1,16.7,0A6.531,6.531,0,0,1,47.661,7.588Z" transform="translate(-19.1 -2)" fill="#dfb28b"/>
        </g>
        <g id="Grupo_1198439" data-name="Grupo 1198439" transform="translate(6.536 13.071)">
          <path id="Trazado_916984" data-name="Trazado 916984" d="M68.821,21.437c0,3.415-3.856,6.487-9.95,8.578h-.016a4.875,4.875,0,0,0-4.738-3.676H52.482V24.46a7.921,7.921,0,0,0-7.924-7.924,8.021,8.021,0,0,0-3.546.833l-1.6.8-1.6-.8a8.021,8.021,0,0,0-3.546-.833,7.921,7.921,0,0,0-7.924,7.924v1.879H24.705a4.875,4.875,0,0,0-4.738,3.676C13.856,27.924,10,24.852,10,21.437c0-4.019,5.327-7.549,13.382-9.591A65.881,65.881,0,0,1,39.41,10a65.881,65.881,0,0,1,16.029,1.846C63.494,13.889,68.821,17.418,68.821,21.437Z" transform="translate(-10 -10)" fill="#d3a06c"/>
        </g>
        <g id="Grupo_1198440" data-name="Grupo 1198440" transform="translate(6.536 75.16)">
          <path id="Trazado_916985" data-name="Trazado 916985" d="M10.065,51.268H31.241l.817-.817,1.487-1.487A3.278,3.278,0,0,1,35.865,48H39.41a3.277,3.277,0,0,1,3.268,3.268V57.8a3.292,3.292,0,0,1-3.268,3.268H16.536A6.534,6.534,0,0,1,10,54.536V53.13C10,52.51,10.016,51.889,10.065,51.268Z" transform="translate(-10 -48)" fill="#f0d0b4"/>
        </g>
        <g id="Grupo_1198441" data-name="Grupo 1198441" transform="translate(60.716 32.678)">
          <path id="Trazado_916986" data-name="Trazado 916986" d="M57.6,28.536V26.9a4.9,4.9,0,0,1,9.8,0V68.436a9.118,9.118,0,0,1-13.48,8.006L43.16,70.56l7.663-13.79,3.431,2.745L57.6,41.607l-1.356-1.356a6.542,6.542,0,0,1-1.912-4.624V31.8A3.292,3.292,0,0,1,57.6,28.536Z" transform="translate(-43.16 -22)" fill="#f0d0b4"/>
        </g>
        <g id="Grupo_1198442" data-name="Grupo 1198442" transform="translate(49.017 29.41)">
          <path id="Trazado_916987" data-name="Trazado 916987" d="M42.372,23.676a4.35,4.35,0,0,1,.163,1.225,4.909,4.909,0,0,1-4.9,4.9H36V20h1.634a4.875,4.875,0,0,1,4.738,3.676Z" transform="translate(-36 -20)" fill="#f0d0b4"/>
        </g>
        <g id="Grupo_1198443" data-name="Grupo 1198443" transform="translate(29.41 48.821)">
          <path id="Trazado_916988" data-name="Trazado 916988" d="M35.8,31.88l1.274,5.1-6.536,3.268L24,36.978l1.274-5.1a9.938,9.938,0,0,0,1.993.2H33.8A9.938,9.938,0,0,0,35.8,31.88Z" transform="translate(-24 -31.88)" fill="#f0d0b4"/>
        </g>
        <g id="Grupo_1198444" data-name="Grupo 1198444" transform="translate(22.875 19.607)">
          <path id="Trazado_916989" data-name="Trazado 916989" d="M33.071,30.339h-2.5a6.53,6.53,0,0,0-6.47,5.6l-.719,5.065A9.758,9.758,0,0,1,20,33.607V21.924A7.921,7.921,0,0,1,27.924,14a8.021,8.021,0,0,1,3.546.833l1.6.8,1.6-.8A8.021,8.021,0,0,1,38.218,14a7.921,7.921,0,0,1,7.924,7.924V33.607a9.758,9.758,0,0,1-3.382,7.4l-.719-5.065a6.529,6.529,0,0,0-6.47-5.6Z" transform="translate(-20 -14)" fill="#f0d0b4"/>
        </g>
        <g id="Grupo_1198445" data-name="Grupo 1198445" transform="translate(16.339 29.41)">
          <path id="Trazado_916990" data-name="Trazado 916990" d="M22.536,20v9.8H20.9A4.909,4.909,0,0,1,16,24.9a4.35,4.35,0,0,1,.163-1.225A4.875,4.875,0,0,1,20.9,20Z" transform="translate(-16 -20)" fill="#f0d0b4"/>
        </g>
        <g id="Grupo_1198446" data-name="Grupo 1198446" transform="translate(26.257 35.946)">
          <path id="Trazado_916991" data-name="Trazado 916991" d="M40.729,29.6l.719,5.065a9.7,9.7,0,0,1-4.428,2.206,9.938,9.938,0,0,1-1.993.2H28.491a9.938,9.938,0,0,1-1.993-.2,9.7,9.7,0,0,1-4.428-2.206l.719-5.065a6.529,6.529,0,0,1,6.47-5.6h5a6.529,6.529,0,0,1,6.47,5.6Z" transform="translate(-22.07 -24)" fill="#cf9e76"/>
        </g>
      </g>
      <g id="Grupo_1198448" data-name="Grupo 1198448" transform="translate(5 1)">
        <ellipse id="Elipse_12135" data-name="Elipse 12135" cx="2" cy="1.5" rx="2" ry="1.5" transform="translate(29 29.302)"/>
        <ellipse id="Elipse_12136" data-name="Elipse 12136" cx="2" cy="1.5" rx="2" ry="1.5" transform="translate(42 29.302)"/>
        <path id="Trazado_916992" data-name="Trazado 916992" d="M86.7,33.678a6.542,6.542,0,0,0-6.536,6.536v.3a4.9,4.9,0,0,0-3.268,4.6v3.828a8.119,8.119,0,0,0,2.394,5.777l.743.743-2.7,14.38-6.885-5.508a44.4,44.4,0,0,0-16.859-8.348l-3.126-.781L49.8,52.566a11.453,11.453,0,0,0,7.353-9.085h.131a6.542,6.542,0,0,0,6.536-6.536c0-.054-.015-.1-.016-.157,6.322-2.428,9.82-5.817,9.82-9.647,0-4.691-5.3-8.653-13.633-10.947L58.2,7.882a8.192,8.192,0,0,0-7.088-6.4,76.553,76.553,0,0,0-17.06,0,8.192,8.192,0,0,0-7.088,6.4L25.169,16.2c-8.336,2.294-13.633,6.256-13.633,10.947,0,3.83,3.5,7.219,9.82,9.647,0,.054-.016.1-.016.157a6.542,6.542,0,0,0,6.536,6.536h.131a11.455,11.455,0,0,0,7.353,9.085l-.647,2.588a28.048,28.048,0,0,0-9.1,3.363L15.48,48.383H14.8A6.521,6.521,0,0,0,8.34,54.215,12.876,12.876,0,0,0,5,62.807V76.16a3.271,3.271,0,0,0,3.268,3.268h3.511a28.343,28.343,0,0,0-.243,3.5v1.4a8.179,8.179,0,0,0,8.17,8.17h1.634v9.8H69.4l-5.578-5.578V83.814l13.516,7.374a10.751,10.751,0,0,0,15.895-9.437V40.214A6.542,6.542,0,0,0,86.7,33.678ZM39.186,59.951l-3.972,2.382L33.749,58.67c.676-.168,1.366-.294,2.06-.407Zm10.122-1.667,2.051.513-1.413,3.536-3.972-2.382ZM45.081,40.214a4.923,4.923,0,0,1,4.851,4.209l.587,4.109a8.111,8.111,0,0,1-4.671,1.485H39.312a8.111,8.111,0,0,1-4.671-1.485l.587-4.109a4.922,4.922,0,0,1,4.851-4.209Zm12.2,0V33.678a3.268,3.268,0,1,1,0,6.536ZM34.423,4.722a73.789,73.789,0,0,1,16.313,0A4.93,4.93,0,0,1,55,8.57l.008.034a76.109,76.109,0,0,0-24.862,0l.008-.034a4.932,4.932,0,0,1,4.266-3.848ZM29.4,12.07a71.825,71.825,0,0,1,26.357,0l.712,3.305a71,71,0,0,0-13.891-1.3,71,71,0,0,0-13.891,1.3Zm-4.8,24.876a3.271,3.271,0,0,1,3.268-3.268v6.536A3.271,3.271,0,0,1,24.607,36.946Zm3.268-6.774v.239a6.518,6.518,0,0,0-5.611,3.237c-4.686-1.845-7.46-4.224-7.46-6.5,0-4.637,11.406-9.8,27.776-9.8s27.776,5.166,27.776,9.8c0,2.281-2.774,4.66-7.46,6.5a6.518,6.518,0,0,0-5.611-3.237v-.239a9.565,9.565,0,0,0-13.842-8.555l-.863.431-.863-.431a9.565,9.565,0,0,0-13.842,8.555Zm3.268,11.676V30.172a6.3,6.3,0,0,1,9.114-5.632L42.58,25.7,44.9,24.54a6.3,6.3,0,0,1,9.116,5.632V41.847a8.1,8.1,0,0,1-.686,3.255l-.163-1.142a8.209,8.209,0,0,0-8.086-7.014h-.868V33.678H40.946v3.268h-.868a8.209,8.209,0,0,0-8.086,7.014L31.829,45.1a8.1,8.1,0,0,1-.686-3.255Zm8.17,11.437h6.536c.255,0,.507-.021.756-.038l.608,2.43L42.58,57.994l-4.632-2.317.608-2.43C38.806,53.264,39.057,53.285,39.312,53.285Zm-8.678,6.4,2.572,6.429-5.2-5.2a24.307,24.307,0,0,1,2.629-1.229Zm-9.3,16.48v3.268H15.049a24.93,24.93,0,0,1,5.1-11.947L32.1,79.427H24.607V76.16ZM35.565,77.6l-.338.338L18.133,60.84a3.271,3.271,0,0,1,2.591-2.591L38.672,76.2a4.844,4.844,0,0,0-3.106,1.4ZM14.186,51.71l4.036,4.036a6.546,6.546,0,0,0-2.591,2.591L11.594,54.3A3.271,3.271,0,0,1,14.186,51.71Zm-1.8,24.45H8.268V62.807a9.579,9.579,0,0,1,1.742-5.47l7.835,7.835A28.153,28.153,0,0,0,12.384,76.16Zm2.42,8.17v-1.4c0-.078,0-.155,0-.234H35.087l2.789-2.789a1.642,1.642,0,0,1,1.155-.479H42.58a1.635,1.635,0,0,1,1.634,1.634V87.6a1.635,1.635,0,0,1-1.634,1.634H19.705A4.908,4.908,0,0,1,14.8,84.329Zm9.8,8.17H42.58a4.821,4.821,0,0,0,2.1-.492l7.027,7.027h-27.1Zm31.721,6.536L46.99,89.7a4.821,4.821,0,0,0,.492-2.1V85.005L61.51,99.034ZM60.553,76.16v17.3L47.4,80.308a4.886,4.886,0,0,0-4.073-4.073l-9.351-9.351,8.6-5.158,8.973,5.385,2.987-7.467a41.139,41.139,0,0,1,13.865,7.245l4.5,3.6L66.7,81.663l-2.882-1.57V76.16Zm29.41,5.591A7.48,7.48,0,0,1,78.9,88.317L69.57,83.226,75.5,72.558l1.155.925-1.364,7.274,3.211.6L83.56,54.37,81.6,52.407a4.858,4.858,0,0,1-1.438-3.464V45.115a1.634,1.634,0,0,1,3.268,0v1.634H86.7V45.115a4.9,4.9,0,0,0-3.268-4.6v-.3a3.268,3.268,0,0,1,6.536,0Z" transform="translate(-5 -1)"/>
        <path id="Trazado_916993" data-name="Trazado 916993" d="M27,41h3.268v3.268H27Z" transform="translate(8.946 24.356)"/>
      </g>
    </g>
  </g>
</svg>
