<svg xmlns="http://www.w3.org/2000/svg" xmlns:xlink="http://www.w3.org/1999/xlink" width="118" height="118" viewBox="0 0 118 118">
  <defs>
    <filter id="Trazado_896985" x="0" y="0" width="118" height="118" filterUnits="userSpaceOnUse">
      <feOffset dy="3" input="SourceAlpha"/>
      <feGaussianBlur stdDeviation="3" result="blur"/>
      <feFlood flood-opacity="0.161"/>
      <feComposite operator="in" in2="blur"/>
      <feComposite in="SourceGraphic"/>
    </filter>
  </defs>
  <g id="Grupo_1198253" data-name="Grupo 1198253" transform="translate(-741.891 -2270.544)">
    <g id="Grupo_1197926" data-name="Grupo 1197926" transform="translate(416 -1575.456)">
      <g id="Grupo_1111318" data-name="Grupo 1111318" transform="translate(334.891 3852)">
        <g id="Grupo_1109826" data-name="Grupo 1109826" transform="translate(0)">
          <g id="Grupo_1098742" data-name="Grupo 1098742" transform="translate(0 0)">
            <g transform="matrix(1, 0, 0, 1, -9, -6)" filter="url(#Trazado_896985)">
              <g id="Trazado_896985-2" data-name="Trazado 896985" transform="translate(9 6)" fill="#fc0" opacity="0.859">
                <path d="M 49.99993515014648 99.5 C 43.31726837158203 99.5 36.83476257324219 98.19129943847656 30.73248100280762 95.61025238037109 C 24.83812141418457 93.11714172363281 19.54434776306152 89.54795837402344 14.99820137023926 85.00179290771484 C 10.45204162597656 80.45565032958984 6.88285493850708 75.16187286376953 4.389748573303223 69.26751708984375 C 1.808695197105408 63.16523742675781 0.5000017881393433 56.6827278137207 0.5000017881393433 50.00006103515625 C 0.5000017881393433 43.31726455688477 1.808695197105408 36.83475494384766 4.389748573303223 30.73247528076172 C 6.88285493850708 24.83811569213867 10.45204162597656 19.54434204101562 14.99820137023926 14.99819660186768 C 19.54434776306152 10.45203590393066 24.83812141418457 6.88284969329834 30.73248100280762 4.389742851257324 C 36.83476257324219 1.808689475059509 43.31726837158203 0.4999961853027344 49.99993515014648 0.4999961853027344 C 56.68260192871094 0.4999961853027344 63.16510772705078 1.808689475059509 69.26738739013672 4.389742851257324 C 75.16175079345703 6.88284969329834 80.45552062988281 10.45203590393066 85.00167083740234 14.99819660186768 C 89.54782867431641 19.54434204101562 93.11701202392578 24.83811569213867 95.61012268066406 30.73247528076172 C 98.19117736816406 36.83475494384766 99.49987030029297 43.31726455688477 99.49987030029297 49.99993133544922 C 99.49987030029297 56.6827278137207 98.19117736816406 63.16523742675781 95.61012268066406 69.26751708984375 C 93.11701202392578 75.16187286376953 89.54782867431641 80.45565032958984 85.00167083740234 85.00179290771484 C 80.45552062988281 89.54795837402344 75.16175079345703 93.11714172363281 69.26738739013672 95.61025238037109 C 63.16510772705078 98.19129943847656 56.68260192871094 99.5 49.99993515014648 99.5 Z" stroke="none"/>
                <path d="M 49.99993515014648 0.9999923706054688 C 43.38454818725586 0.9999923706054688 36.96757507324219 2.29541015625 30.92725372314453 4.850250244140625 C 25.09249877929688 7.318145751953125 19.85213470458984 10.85135650634766 15.35174560546875 15.35174560546875 C 10.85136413574219 19.85212707519531 7.318145751953125 25.09249114990234 4.850257873535156 30.92724609375 C 2.295417785644531 36.96757125854492 1 43.38454437255859 1 50.00006103515625 C 1 56.61544799804688 2.295417785644531 63.03242111206055 4.850257873535156 69.07273864746094 C 7.318145751953125 74.90750122070312 10.85136413574219 80.14786529541016 15.35174560546875 84.64824676513672 C 19.85213470458984 89.14863586425781 25.09249877929688 92.68184661865234 30.92725372314453 95.14974212646484 C 36.96757507324219 97.70458221435547 43.38454818725586 99 49.99993515014648 99 C 56.61532211303711 99 63.03229522705078 97.70458221435547 69.07261657714844 95.14974212646484 C 74.90737915039062 92.68184661865234 80.14773559570312 89.14863586425781 84.64812469482422 84.64824676513672 C 89.14850616455078 80.14786529541016 92.68172454833984 74.90750122070312 95.14961242675781 69.07273864746094 C 97.70445251464844 63.03242111206055 98.99987030029297 56.61544799804688 98.99987030029297 49.99993133544922 C 98.99987030029297 43.38454437255859 97.70445251464844 36.96757125854492 95.14961242675781 30.92724609375 C 92.68172454833984 25.09249114990234 89.14850616455078 19.85212707519531 84.64812469482422 15.35174560546875 C 80.14773559570312 10.85135650634766 74.90737915039062 7.318145751953125 69.07261657714844 4.850250244140625 C 63.03229522705078 2.29541015625 56.61532211303711 0.9999923706054688 49.99993515014648 0.9999923706054688 M 49.99993515014648 -7.62939453125e-06 C 77.6141357421875 -7.62939453125e-06 99.99987030029297 22.38572692871094 99.99987030029297 49.99993133544922 L 99.99987030029297 50.00006103515625 C 99.99987030029297 77.61426544189453 77.6141357421875 100 49.99993515014648 100 C 22.38573455810547 100 0 77.61426544189453 0 50.00006103515625 L 0 49.99993133544922 C 0 22.38572692871094 22.38573455810547 -7.62939453125e-06 49.99993515014648 -7.62939453125e-06 Z" stroke="none" fill="#fff"/>
              </g>
            </g>
            <g id="Rectángulo_400907" data-name="Rectángulo 400907" transform="translate(0)" fill="none" stroke="#fff" stroke-width="1">
              <rect width="100" height="100" rx="50" stroke="none"/>
              <rect x="0.5" y="0.5" width="99" height="99" rx="49.5" fill="none"/>
            </g>
          </g>
        </g>
      </g>
    </g>
    <g id="policy_7839234" transform="translate(752.091 2286.934)">
      <g id="Grupo_1198251" data-name="Grupo 1198251" transform="translate(15.466 7.5)">
        <path id="Trazado_916344" data-name="Trazado 916344" d="M131.121,7.5h-49.4a2.143,2.143,0,0,0-2.142,2.142V71.905a2.143,2.143,0,0,0,2.142,2.142h42.976a2.143,2.143,0,0,0,2.142-2.142V25.76Z" transform="translate(-70.992 -7.5)" fill="#e5eef9"/>
        <path id="Trazado_916345" data-name="Trazado 916345" d="M85.07,74.048H81.722a2.143,2.143,0,0,1-2.142-2.142V9.642A2.143,2.143,0,0,1,81.722,7.5H85.07a2.143,2.143,0,0,0-2.142,2.142V71.905A2.143,2.143,0,0,0,85.07,74.048Z" transform="translate(-70.995 -7.5)" fill="#d5e3f4"/>
        <path id="Trazado_916346" data-name="Trazado 916346" d="M263.274,69.778h-2.257a4.962,4.962,0,0,0-4.962,4.962V77h2.257a4.962,4.962,0,0,0,4.962-4.962Z" transform="translate(-223.84 -61.439)" fill="#bbec6c"/>
        <path id="Trazado_916347" data-name="Trazado 916347" d="M202.14,105.121v2.257a4.962,4.962,0,0,0,4.962,4.962h2.257v-2.257a4.962,4.962,0,0,0-4.962-4.962Z" transform="translate(-177.145 -92.05)" fill="#bbec6c"/>
        <path id="Trazado_916348" data-name="Trazado 916348" d="M26.374,231.564a1.335,1.335,0,0,1-1.186,0c-2.193-1.085-9.723-5.165-9.723-10.032V208.765a1.338,1.338,0,0,1,.4-.952c1.371-1.355,2.372-2.259,3.744-3.615a1.342,1.342,0,0,1,.943-.388H31.013a1.342,1.342,0,0,1,.943.388c1.373,1.356,2.373,2.26,3.744,3.615a1.338,1.338,0,0,1,.4.952v12.767C36.1,226.4,28.568,230.478,26.374,231.564Z" transform="translate(-15.466 -177.524)" fill="#fff0ad"/>
        <path id="Trazado_916349" data-name="Trazado 916349" d="M439.5,25.76h-6.963V11.785A4.285,4.285,0,0,1,436.819,7.5h0a4.285,4.285,0,0,1,4.285,4.285V24.153A1.607,1.607,0,0,1,439.5,25.76Z" transform="translate(-376.689 -7.5)" fill="#e5eef9"/>
        <path id="Trazado_916350" data-name="Trazado 916350" d="M438.49,7.839a4.286,4.286,0,0,0-2.612,3.946V25.76H432.53V11.785a4.289,4.289,0,0,1,5.96-3.946Z" transform="translate(-376.686 -7.5)" fill="#d5e3f4"/>
        <path id="Trazado_916351" data-name="Trazado 916351" d="M58.066,247.515c0,.55-.716,2.007-3.4,3.973a26.584,26.584,0,0,1-2.359,1.532,1.068,1.068,0,0,1-1.07,0,26.79,26.79,0,0,1-2.361-1.532c-2.686-1.966-3.4-3.422-3.4-3.973v-11.2a1.07,1.07,0,0,1,.337-.781l1.532-1.437a1.071,1.071,0,0,1,.732-.291h7.393a1.071,1.071,0,0,1,.732.291l1.532,1.437a1.07,1.07,0,0,1,.337.781Z" transform="translate(-41.453 -203.507)" fill="#ffe177"/>
        <path id="Trazado_916352" data-name="Trazado 916352" d="M19.885,221.532V208.766a1.338,1.338,0,0,1,.4-.952c1.371-1.355,2.372-2.259,3.744-3.615a1.342,1.342,0,0,1,.943-.388H20.55a1.342,1.342,0,0,0-.943.388c-1.373,1.356-2.373,2.26-3.744,3.615a1.338,1.338,0,0,0-.4.952v12.767c0,4.867,7.529,8.947,9.723,10.032a1.335,1.335,0,0,0,1.186,0c.392-.194.956-.485,1.616-.858C24.96,228.994,19.885,225.529,19.885,221.532Z" transform="translate(-15.466 -177.525)" fill="#ffe177"/>
        <path id="Trazado_916353" data-name="Trazado 916353" d="M52.22,251.487c-2.686-1.966-3.4-3.422-3.4-3.973v-11.2a1.07,1.07,0,0,1,.337-.781l1.532-1.437a1.072,1.072,0,0,1,.732-.291H48.072a1.072,1.072,0,0,0-.732.291l-1.532,1.437a1.07,1.07,0,0,0-.337.781v11.2c0,.55.716,2.007,3.4,3.973a26.788,26.788,0,0,0,2.361,1.532,1.068,1.068,0,0,0,1.07,0c.358-.208.743-.441,1.139-.7C53.041,252.067,52.629,251.787,52.22,251.487Z" transform="translate(-41.453 -203.507)" fill="#ffd15b"/>
      </g>
      <g id="Grupo_1198252" data-name="Grupo 1198252" transform="translate(15.466 7.5)">
        <path id="Trazado_916354" data-name="Trazado 916354" d="M126.841,254.1v31.386a2.143,2.143,0,0,1-2.142,2.142H81.722a2.143,2.143,0,0,1-2.142-2.142V274.528" transform="translate(-70.995 -221.081)" fill="none" stroke="#000" stroke-linecap="round" stroke-linejoin="round" stroke-miterlimit="10" stroke-width="1.2"/>
        <line id="Línea_674" data-name="Línea 674" y1="10.073" transform="translate(55.846 18.26)" fill="none" stroke="#000" stroke-linecap="round" stroke-linejoin="round" stroke-miterlimit="10" stroke-width="1.2"/>
        <path id="Trazado_916355" data-name="Trazado 916355" d="M79.58,33.786V9.642A2.143,2.143,0,0,1,81.722,7.5h49.4" transform="translate(-70.995 -7.5)" fill="none" stroke="#000" stroke-linecap="round" stroke-linejoin="round" stroke-miterlimit="10" stroke-width="1.2"/>
        <path id="Trazado_916356" data-name="Trazado 916356" d="M26.374,231.564a1.335,1.335,0,0,1-1.186,0c-2.193-1.085-9.723-5.165-9.723-10.032V208.765a1.338,1.338,0,0,1,.4-.952c1.371-1.355,2.372-2.259,3.744-3.615a1.342,1.342,0,0,1,.943-.388H31.013a1.342,1.342,0,0,1,.943.388c1.373,1.356,2.373,2.26,3.744,3.615a1.338,1.338,0,0,1,.4.952v12.767C36.1,226.4,28.568,230.478,26.374,231.564Z" transform="translate(-15.466 -177.524)" fill="none" stroke="#000" stroke-linecap="round" stroke-linejoin="round" stroke-miterlimit="10" stroke-width="1.2"/>
        <path id="Trazado_916357" data-name="Trazado 916357" d="M58.066,245.1v2.414c0,.55-.716,2.007-3.4,3.973a26.584,26.584,0,0,1-2.359,1.532,1.068,1.068,0,0,1-1.07,0,26.79,26.79,0,0,1-2.361-1.532c-2.686-1.966-3.4-3.422-3.4-3.973v-11.2a1.07,1.07,0,0,1,.337-.781l1.532-1.437a1.071,1.071,0,0,1,.732-.291h7.393a1.071,1.071,0,0,1,.732.291l1.532,1.437a1.07,1.07,0,0,1,.337.781v4.1" transform="translate(-41.453 -203.507)" fill="none" stroke="#000" stroke-linecap="round" stroke-linejoin="round" stroke-miterlimit="10" stroke-width="1.2"/>
        <line id="Línea_675" data-name="Línea 675" y1="11.4" transform="translate(32.215 15.558)" fill="none" stroke="#000" stroke-linecap="round" stroke-linejoin="round" stroke-miterlimit="10" stroke-width="1.2"/>
        <path id="Trazado_916358" data-name="Trazado 916358" d="M262.739,69.778h-1.721a4.962,4.962,0,0,0-4.962,4.962V77h2.257a4.962,4.962,0,0,0,4.962-4.962V70.314A.535.535,0,0,0,262.739,69.778Z" transform="translate(-223.84 -61.439)" fill="none" stroke="#000" stroke-linecap="round" stroke-linejoin="round" stroke-miterlimit="10" stroke-width="1.2"/>
        <path id="Trazado_916359" data-name="Trazado 916359" d="M202.14,105.657v1.721a4.962,4.962,0,0,0,4.962,4.962h2.257v-2.257a4.962,4.962,0,0,0-4.962-4.962h-1.721A.536.536,0,0,0,202.14,105.657Z" transform="translate(-177.145 -92.05)" fill="none" stroke="#000" stroke-linecap="round" stroke-linejoin="round" stroke-miterlimit="10" stroke-width="1.2"/>
        <line id="Línea_676" data-name="Línea 676" x1="28.63" transform="translate(20.63 33.559)" fill="none" stroke="#000" stroke-linecap="round" stroke-linejoin="round" stroke-miterlimit="10" stroke-width="1.2"/>
        <line id="Línea_677" data-name="Línea 677" x1="28.63" transform="translate(20.63 37.576)" fill="none" stroke="#000" stroke-linecap="round" stroke-linejoin="round" stroke-miterlimit="10" stroke-width="1.2"/>
        <line id="Línea_678" data-name="Línea 678" x1="28.63" transform="translate(20.63 41.593)" fill="none" stroke="#000" stroke-linecap="round" stroke-linejoin="round" stroke-miterlimit="10" stroke-width="1.2"/>
        <line id="Línea_679" data-name="Línea 679" x1="28.895" transform="translate(20.365 45.61)" fill="none" stroke="#000" stroke-linecap="round" stroke-linejoin="round" stroke-miterlimit="10" stroke-width="1.2"/>
        <line id="Línea_680" data-name="Línea 680" x1="23.782" transform="translate(17.527 49.627)" fill="none" stroke="#000" stroke-linecap="round" stroke-linejoin="round" stroke-miterlimit="10" stroke-width="1.2"/>
        <path id="Trazado_916360" data-name="Trazado 916360" d="M285.534,419.246l1.058-2.9a.268.268,0,0,1,.465-.07l1.878,2.484a.268.268,0,0,0,.443-.024l1.64-2.735a.268.268,0,0,1,.49.073l.779,3.122a.268.268,0,0,0,.41.157l2.425-1.642a.268.268,0,0,1,.15-.046h3.361" transform="translate(-249.372 -361.192)" fill="none" stroke="#000" stroke-linecap="round" stroke-linejoin="round" stroke-miterlimit="10" stroke-width="1.2"/>
        <path id="Trazado_916361" data-name="Trazado 916361" d="M439.5,25.76h-6.963V11.785A4.285,4.285,0,0,1,436.819,7.5h0a4.285,4.285,0,0,1,4.285,4.285V24.153A1.607,1.607,0,0,1,439.5,25.76Z" transform="translate(-376.689 -7.5)" fill="none" stroke="#000" stroke-linecap="round" stroke-linejoin="round" stroke-miterlimit="10" stroke-width="1.2"/>
      </g>
    </g>
  </g>
</svg>
